# Blender 4.0.2
# www.blender.org
mtllib 底座.mtl
o 底座
v 16.860897 0.031106 -13.753265
v 12.997476 0.853804 -15.291257
v 12.944167 0.853604 -15.271431
v 13.473192 0.854134 -14.776871
v 13.434748 0.853675 -14.740973
v 16.721643 0.805009 -14.666800
v 16.757063 0.804940 -14.627901
v 17.307364 0.851371 -17.398527
v 17.360674 0.851574 -17.418354
v 16.870092 0.851503 -17.948811
v 16.831648 0.851044 -17.912912
v 14.078959 0.851971 -18.553144
v 14.098785 0.851868 -18.499836
v 13.558512 0.852541 -18.071823
v 13.597980 0.829953 -18.038113
v 13.147708 0.708818 -17.469307
v 13.197128 0.728832 -17.449705
v 12.983215 0.853186 -16.411640
v 13.035668 0.853451 -16.406471
v 13.930696 0.853741 -14.214939
v 13.954221 0.850385 -14.266623
v 15.085834 0.744234 -14.168672
v 15.087526 0.744621 -14.221248
v 17.282061 0.852303 -15.122872
v 17.230232 0.852257 -15.146299
v 17.321367 0.851938 -16.270613
v 17.268799 0.851663 -16.272413
v 16.374439 0.851436 -18.474533
v 16.351013 0.851209 -18.422705
v 15.224899 0.851330 -18.461271
v 15.226699 0.851703 -18.513840
v 15.574034 0.770205 -14.210486
v 15.569551 0.767406 -14.158505
v 13.472968 0.874247 -14.776106
v 13.434524 0.873789 -14.740208
v 13.930471 0.873855 -14.214173
v 13.953997 0.870499 -14.265858
v 15.085610 0.764347 -14.167906
v 15.087302 0.764735 -14.220482
v 15.582355 0.841855 -14.201699
v 15.569326 0.835343 -14.157740
v 14.078735 0.872084 -18.552380
v 14.098561 0.871981 -18.499069
v 15.224675 0.871444 -18.460505
v 15.226476 0.871817 -18.513073
v 16.721420 0.872946 -14.666034
v 16.756838 0.872877 -14.627135
v 17.281837 0.872416 -15.122107
v 17.230009 0.872371 -15.145534
v 17.307140 0.871485 -17.397762
v 17.360451 0.871688 -17.417587
v 16.869869 0.871616 -17.948046
v 16.831425 0.871157 -17.912148
v 17.321144 0.872052 -16.269848
v 17.268574 0.871776 -16.271646
v 16.374216 0.871549 -18.473766
v 16.350790 0.871322 -18.421940
v 13.558288 0.872654 -18.071056
v 13.597755 0.850066 -18.037348
v 13.147484 0.728932 -17.468540
v 13.196904 0.748945 -17.448940
v 12.982992 0.873300 -16.410873
v 13.035445 0.873565 -16.405706
v 12.997252 0.873918 -15.290491
v 12.943944 0.873717 -15.270665
v 12.248837 0.031106 -15.012827
v 12.228450 0.006719 -15.005243
v 12.933603 0.031106 -14.273017
v 12.918683 0.006711 -14.259085
v 17.225399 0.031106 -14.124891
v 17.238550 0.006741 -14.110808
v 18.057159 0.031106 -17.677387
v 18.076729 0.006740 -17.684666
v 17.372349 0.031106 -18.417805
v 17.386482 0.006739 -18.431004
v 13.820027 0.031106 -19.249355
v 13.812675 0.006735 -19.269119
v 13.079758 0.031106 -18.564552
v 13.066382 0.006732 -18.578876
v 12.346225 0.031106 -17.872726
v 12.326790 0.006729 -17.881512
v 12.297489 0.031106 -16.442663
v 12.277607 0.006725 -16.443344
v 13.503226 0.023290 -13.589163
v 13.490800 -0.001211 -13.573975
v 15.054426 0.031106 -13.483471
v 15.053902 0.006817 -13.468179
v 17.959240 0.031106 -14.816774
v 17.978233 0.006741 -14.808189
v 18.008205 0.031106 -16.247091
v 18.027483 0.006741 -16.246431
v 16.680473 0.031106 -19.151569
v 16.689104 0.006738 -19.170664
v 15.250215 0.031106 -19.200476
v 15.250879 0.006737 -19.219894
v 16.865032 0.006741 -13.755259
v 15.898917 0.031106 -13.454762
v 15.877231 0.006814 -13.440044
vn 0.9994 0.0098 0.0342
vn -0.0342 -0.0384 0.9987
vn 0.0342 0.0384 -0.9987
vn -0.7272 -0.0342 0.6856
vn -0.9994 -0.0098 -0.0342
vn -0.0436 -0.0385 0.9983
vn 0.7337 0.0340 -0.6786
vn 0.7273 0.0342 -0.6854
vn 0.6782 -0.0204 0.7346
vn 0.7272 0.0342 -0.6856
vn 0.9883 0.0052 0.1523
vn -0.6788 0.0204 -0.7340
vn -0.0027 0.9999 0.0099
vn 0.0952 0.9952 -0.0213
vn 0.0002 1.0000 0.0019
vn 0.0015 1.0000 0.0004
vn -0.1453 0.9894 0.0026
vn -0.0029 1.0000 0.0025
vn -0.0007 1.0000 -0.0003
vn -0.0062 1.0000 0.0062
vn 0.0021 1.0000 0.0011
vn 0.0001 1.0000 0.0044
vn 0.2457 0.9135 0.3244
vn -0.3089 0.9347 -0.1756
vn -0.0040 1.0000 -0.0005
vn -0.0028 1.0000 0.0025
vn -0.0039 1.0000 -0.0005
vn -0.7394 -0.0100 0.6732
vn -0.7337 -0.0340 0.6786
vn 0.0436 0.0385 -0.9983
vn 0.6860 -0.0059 0.7276
vn 0.9588 -0.0000 0.2841
vn -0.8275 0.0122 -0.5613
vn -0.6868 0.0200 -0.7265
vn 0.8274 -0.0122 0.5615
vn -0.0192 -0.0382 0.9991
vn 0.0190 0.1195 -0.9926
vn -0.9882 -0.0052 -0.1530
vn 0.5408 0.6203 0.5681
vn -0.0593 0.5475 0.8347
vn 0.5381 0.6203 0.5707
vn 0.7838 0.6204 0.0268
vn 0.5754 0.6211 -0.5321
vn 0.7833 0.6211 0.0268
vn -0.5859 0.6413 0.4954
vn -0.0289 0.5330 0.8456
vn 0.5699 0.6216 -0.5374
vn -0.5302 0.6248 -0.5732
vn 0.0267 0.6248 -0.7803
vn -0.5347 0.6266 -0.5669
vn 0.0268 0.6224 -0.7822
vn -0.7769 0.6290 -0.0266
vn -0.5663 0.6363 0.5239
vn -0.7710 0.6363 -0.0264
vn 0.0463 0.9980 -0.0437
vn 0.0925 0.9957 0.0103
vn 0.0002 1.0000 0.0071
vn -0.0003 1.0000 -0.0013
vn -0.1568 0.9826 0.0991
vn -0.0067 1.0000 0.0056
vn -0.0052 1.0000 -0.0007
vn -0.0032 1.0000 0.0029
vn 0.2524 0.9142 0.3171
vn -0.0001 1.0000 0.0071
vn -0.3658 0.9303 -0.0275
vn 0.0066 0.9930 -0.1176
vn -0.0052 1.0000 -0.0004
vn -0.0050 1.0000 -0.0005
vn 0.6868 -0.0200 0.7266
vn 0.9891 -0.1245 0.0786
vn -0.6860 0.0059 -0.7276
vn -0.0193 -0.0113 0.9997
vn 0.0201 0.0382 -0.9991
vn 0.7125 0.0638 0.6988
vn -0.0602 0.5328 0.8441
vn 0.5380 0.6204 0.5706
vn 0.7836 0.6207 0.0268
vn 0.5751 0.6216 -0.5319
vn -0.5994 0.6188 0.5077
vn -0.0287 0.5366 0.8434
vn 0.5695 0.6224 -0.5369
vn -0.5292 0.6266 -0.5721
vn 0.0267 0.6234 -0.7814
vn -0.5333 0.6290 -0.5656
vn -0.7744 0.6322 -0.0264
vn -0.5628 0.6417 0.5210
vn -0.7744 0.6322 -0.0263
vt 0.089696 0.389512
vt 0.079255 0.218091
vt 0.389696 0.096117
vt 0.221026 0.086094
vt 0.561091 0.079028
vt 0.389634 0.089586
vt 0.138770 0.138641
vt 0.096272 0.389526
vt 0.086191 0.220930
vt 0.560928 0.699651
vt 0.389415 0.689311
vt 0.389634 0.089586
vt 0.218158 0.079188
vt 0.131330 0.131239
vt 0.558113 0.692696
vt 0.640375 0.640128
vt 0.640887 0.134741
vt 0.558371 0.085844
vt 0.131330 0.131240
vt 0.683896 0.390054
vt 0.689273 0.222844
vt 0.647760 0.647587
vt 0.648106 0.128536
vt 0.130977 0.647787
vt 0.085953 0.558220
vt 0.138127 0.640499
vt 0.316836 0.692570
vt 0.389396 0.682711
vt 0.079088 0.561005
vt 0.648106 0.128536
vt 0.690151 0.389835
vt 0.697082 0.219535
vt 0.647760 0.647587
vt 0.692883 0.557931
vt 0.699778 0.560808
vt 0.690151 0.389835
vt 0.316837 0.692571
vt 0.314306 0.685722
vt 0.006003 0.772959
vt 0.098566 0.778821
vt 0.000145 0.778817
vt 0.389495 0.778821
vt 0.583741 0.776471
vt 0.583582 0.778821
vt 0.002728 0.583699
vt 0.006003 0.772959
vt 0.000142 0.389481
vt 0.000142 0.584243
vt 0.000145 0.000145
vt 0.002733 0.195264
vt 0.000142 0.194719
vt 0.002733 0.195264
vt 0.778821 0.778817
vt 0.772611 0.772611
vt 0.278791 0.778821
vt 0.389481 0.776079
vt 0.195266 0.002742
vt 0.006025 0.006025
vt 0.778817 0.000145
vt 0.583694 0.002759
vt 0.584244 0.000142
vt 0.583694 0.002759
vt 0.389481 0.000142
vt 0.776174 0.195274
vt 0.772859 0.006104
vt 0.195266 0.002742
vt 0.194719 0.000142
vt 0.778821 0.389481
vt 0.776174 0.195274
vt 0.778821 0.194718
vt 0.776121 0.583680
vt 0.778821 0.584247
vt 0.099684 0.778541
vt 0.003598 0.389481
vt 0.274895 0.776497
vt 0.772859 0.006104
vt 0.389481 0.003623
vt 0.775257 0.389481
vt 0.772611 0.772611
s 0
usemtl 金边
f 26/1/1 51/2/1 54/1/1
f 30/3/2 57/4/2 44/3/2
f 12/5/3 45/6/3 31/6/3
f 11/7/4 57/4/4 29/4/4
f 27/8/5 50/9/5 8/9/5
f 20/10/6 38/11/6 36/10/6
f 31/12/3 56/13/3 28/13/3
f 9/2/7 52/14/7 51/2/7
f 21/15/8 34/16/8 37/15/8
f 15/17/9 43/18/9 59/17/9
f 13/18/2 44/3/2 43/18/2
f 10/19/10 56/13/10 52/19/10
f 19/20/11 61/21/11 63/20/11
f 20/10/4 35/22/4 5/22/4
f 14/23/12 42/5/12 12/5/12
f 35/22/13 37/15/13 34/16/13
f 38/11/14 37/15/14 36/10/14
f 43/18/15 45/6/15 42/5/15
f 47/24/16 49/25/16 46/26/16
f 41/27/17 39/28/17 38/11/17
f 52/14/18 50/9/18 51/2/18
f 54/1/19 49/25/19 48/29/19
f 52/19/20 57/4/20 53/7/20
f 58/23/21 43/18/21 42/5/21
f 45/12/22 57/4/22 56/13/22
f 58/30/23 61/21/23 59/17/23
f 62/31/24 61/21/24 60/32/24
f 50/9/25 54/1/25 51/2/25
f 35/33/26 64/34/26 65/35/26
f 64/34/27 62/36/27 65/35/27
f 7/24/28 46/26/28 6/26/28
f 8/9/29 53/7/29 11/7/29
f 21/15/30 39/28/30 23/28/30
f 7/24/31 48/29/31 47/24/31
f 24/29/1 54/1/1 48/29/1
f 33/37/32 40/38/32 41/37/32
f 5/33/29 65/35/29 3/35/29
f 16/32/33 58/30/33 14/30/33
f 4/16/7 64/34/7 34/16/7
f 6/26/34 49/25/34 25/25/34
f 25/25/5 55/8/5 27/8/5
f 2/34/1 63/20/1 64/34/1
f 17/21/35 59/17/35 61/21/35
f 33/27/36 38/11/36 22/11/36
f 3/35/5 62/36/5 18/36/5
f 32/38/37 39/28/37 40/38/37
f 18/31/38 60/32/38 16/32/38
f 70/39/39 96/40/39 71/41/39
f 87/42/40 84/43/40 85/44/40
f 71/41/41 88/45/41 70/46/41
f 91/47/42 88/45/42 89/48/42
f 75/49/43 72/50/43 73/51/43
f 72/52/44 91/47/44 73/51/44
f 69/53/45 84/43/45 68/54/45
f 98/55/46 86/56/46 87/42/46
f 75/49/47 92/57/47 74/58/47
f 79/59/48 76/60/48 77/61/48
f 76/62/49 95/63/49 77/61/49
f 79/59/50 80/64/50 78/65/50
f 95/63/51 92/66/51 93/67/51
f 83/68/52 80/69/52 81/70/52
f 69/53/53 66/71/53 67/72/53
f 66/71/54 83/68/54 67/72/54
f 26/1/1 9/2/1 51/2/1
f 30/3/2 29/4/2 57/4/2
f 12/5/3 42/5/3 45/6/3
f 11/7/4 53/7/4 57/4/4
f 27/8/5 55/8/5 50/9/5
f 20/10/6 22/11/6 38/11/6
f 31/12/3 45/12/3 56/13/3
f 9/2/7 10/14/7 52/14/7
f 21/15/8 4/16/8 34/16/8
f 15/17/9 13/18/9 43/18/9
f 13/18/2 30/3/2 44/3/2
f 10/19/10 28/13/10 56/13/10
f 19/20/11 17/21/11 61/21/11
f 20/10/4 36/10/4 35/22/4
f 14/23/12 58/23/12 42/5/12
f 35/22/55 36/10/55 37/15/55
f 38/11/56 39/28/56 37/15/56
f 43/18/57 44/3/57 45/6/57
f 47/24/58 48/29/58 49/25/58
f 41/27/59 40/38/59 39/28/59
f 52/14/60 53/7/60 50/9/60
f 54/1/61 55/8/61 49/25/61
f 52/19/62 56/13/62 57/4/62
f 58/23/63 59/17/63 43/18/63
f 45/12/64 44/3/64 57/4/64
f 58/30/65 60/32/65 61/21/65
f 62/31/66 63/20/66 61/21/66
f 50/9/67 55/8/67 54/1/67
f 35/33/60 34/16/60 64/34/60
f 64/34/68 63/20/68 62/36/68
f 7/24/28 47/24/28 46/26/28
f 8/9/29 50/9/29 53/7/29
f 21/15/30 37/15/30 39/28/30
f 7/24/69 24/29/69 48/29/69
f 24/29/1 26/1/1 54/1/1
f 33/37/70 32/38/70 40/38/70
f 5/33/29 35/33/29 65/35/29
f 16/32/33 60/32/33 58/30/33
f 4/16/7 2/34/7 64/34/7
f 6/26/71 46/26/71 49/25/71
f 25/25/5 49/25/5 55/8/5
f 2/34/1 19/20/1 63/20/1
f 17/21/35 15/17/35 59/17/35
f 33/27/72 41/27/72 38/11/72
f 3/35/5 65/35/5 62/36/5
f 32/38/73 23/28/73 39/28/73
f 18/31/38 62/31/38 60/32/38
f 70/39/74 1/73/74 96/40/74
f 87/42/75 86/56/75 84/43/75
f 71/41/76 89/48/76 88/45/76
f 91/47/77 90/74/77 88/45/77
f 75/49/78 74/58/78 72/50/78
f 72/52/77 90/74/77 91/47/77
f 69/53/79 85/44/79 84/43/79
f 98/55/80 97/75/80 86/56/80
f 75/49/81 93/67/81 92/57/81
f 79/59/82 78/76/82 76/60/82
f 76/62/83 94/77/83 95/63/83
f 79/59/84 81/70/84 80/64/84
f 95/63/83 94/77/83 92/66/83
f 83/68/85 82/78/85 80/69/85
f 69/53/86 68/79/86 66/71/86
f 66/71/87 82/78/87 83/68/87
