# Blender 4.0.2
# www.blender.org
mtllib 断桥_cell.007.mtl
o 断桥_cell.007
v 358.841370 17.832998 -175.979538
v 365.610199 19.241787 -179.599121
v 342.460327 14.007446 -162.044937
v 346.815277 10.952784 -173.535950
v 338.609589 10.748415 -163.281693
v 354.151154 7.633477 -181.872986
v 342.682373 -42.629745 -155.692001
v 354.602295 -40.357552 -146.108139
v 338.525055 -39.388184 -151.289871
v 331.402405 -20.837851 -146.829117
v 357.210297 -6.886849 -132.729477
v 362.408875 15.896589 -144.596863
v 367.404510 -33.437096 -139.113846
v 379.729645 20.579144 -167.249695
v 338.609589 10.748415 -163.281693
v 346.815277 10.952784 -173.535950
v 354.151154 7.633477 -181.872986
v 365.610199 19.241787 -179.599121
v 354.602295 -40.357552 -146.108139
v 338.525055 -39.388184 -151.289871
v 331.402405 -20.837851 -146.829117
v 357.210297 -6.886849 -132.729477
v 367.404510 -33.437096 -139.113846
v 379.729645 20.579144 -167.249695
v 362.408875 15.896589 -144.596863
v 342.460327 14.007446 -162.044937
vn -0.1624 0.9835 0.0791
vn -0.4721 0.5936 -0.6517
vn -0.5152 0.7595 -0.3972
vn -0.7709 -0.1469 -0.6198
vn 0.6053 -0.4720 -0.6410
vn -0.1983 -0.8693 0.4528
vn -0.3074 -0.3324 0.8916
vn -0.6053 0.4720 0.6410
vn 0.7709 0.1469 0.6198
vn -0.1624 0.9836 0.0791
vt 0.000000 0.000000
vt 0.916909 0.237486
vt 0.638425 0.134637
vt 1.000000 0.000000
vt 0.768931 0.189076
vt 0.827353 0.000000
vt 0.827353 0.827353
vt 0.597887 0.597887
vt 1.000000 1.000000
vt 0.234375 0.750000
vt 0.234375 0.500000
vt 0.234375 0.575327
vt 0.375000 0.359375
vt 0.412880 0.374486
vt 0.375000 0.390625
vt 0.250123 0.500000
vt 0.234375 0.575327
vt 0.885462 0.281798
vt 0.615008 0.401017
vt 0.727357 0.134619
vt 0.375000 0.859375
vt 0.375000 0.890625
vt 0.375000 0.890625
vt 0.265625 0.500000
vt 0.265625 0.750000
vt 0.096249 0.096249
vt 0.597887 0.000000
vt 1.000000 0.096249
vt 0.554947 0.397608
vt 0.234375 0.624494
vt 0.375000 0.375123
vt 0.375000 0.359375
vt 0.296857 0.183933
vt 0.875086 0.362813
vt 0.385521 0.885416
s 0
usemtl Asphalt
f 1/1/1 12/2/1 14/3/1
f 1/4/2 17/5/2 16/6/2
f 16/7/3 26/8/3 1/9/3
f 5/10/4 6/11/4 20/12/4
f 7/13/5 2/14/5 13/15/5
f 19/16/6 20/17/6 7/11/6
f 9/18/7 23/19/7 22/20/7
f 25/21/8 5/22/8 21/23/8
f 24/24/9 11/25/9 13/24/9
f 14/3/1 18/26/1 1/1/1
f 1/1/10 26/27/10 12/2/10
f 1/4/2 18/28/2 17/5/2
f 16/7/3 15/29/3 26/8/3
f 20/12/4 21/10/4 5/10/4
f 5/10/4 4/30/4 6/11/4
f 6/11/4 7/11/4 20/12/4
f 13/15/5 19/31/5 7/13/5
f 7/13/5 6/32/5 2/14/5
f 2/14/5 24/15/5 13/15/5
f 22/20/7 10/33/7 9/18/7
f 9/18/7 8/34/7 23/19/7
f 21/23/8 11/21/8 25/21/8
f 25/21/8 3/35/8 5/22/8
f 24/24/9 25/25/9 11/25/9
