# Blender 4.0.2
# www.blender.org
mtllib 断桥_cell.012.mtl
o 断桥_cell.012
v 266.686584 -44.309784 -208.619110
v 268.561951 -36.090668 -212.900269
v 259.594666 -45.661659 -214.321152
v 280.484131 -55.068069 -223.229156
v 283.293365 -42.756157 -229.642151
v 276.636688 -55.801476 -226.322571
v 277.150482 -48.979263 -230.860962
v 259.634338 -45.134621 -214.671768
v 277.150482 -48.979263 -230.860962
v 276.636688 -55.801476 -226.322571
v 259.594666 -45.661659 -214.321152
v 283.293365 -42.756157 -229.642151
v 259.634338 -45.134621 -214.671768
v 268.561951 -36.090668 -212.900269
vn -0.6053 0.4720 0.6410
vn 0.7709 0.1469 0.6198
vn -0.1983 -0.8693 0.4528
vn 0.6053 -0.4720 -0.6410
vn -0.6724 -0.3742 -0.6386
vn -0.4721 0.5936 -0.6517
vt 0.375000 0.937500
vt 0.375514 0.946926
vt 0.375000 0.946870
vt 0.187500 0.500000
vt 0.187500 0.750000
vt 0.182417 0.500000
vt 0.375000 0.312500
vt 0.379552 0.306441
vt 0.375000 0.312500
vt 0.924989 0.924989
vt 0.765263 0.244168
vt 0.931607 0.891351
vt 0.122664 0.067307
vt 0.679600 0.000000
vt 0.924989 0.000000
vt 0.178130 0.750000
vt 0.375000 0.307417
vt 0.679600 0.679600
vt 0.200354 0.150109
s 0
usemtl Asphalt
f 1/1/1 8/2/1 11/3/1
f 4/4/2 14/5/2 1/5/2
f 1/5/3 10/6/3 4/4/3
f 4/7/4 9/8/4 12/9/4
f 13/10/5 6/11/5 3/12/5
f 2/13/6 7/14/6 13/15/6
f 1/1/1 14/1/1 8/2/1
f 4/4/2 12/4/2 14/5/2
f 1/5/3 11/16/3 10/6/3
f 4/7/4 10/17/4 9/8/4
f 13/10/5 7/18/5 6/11/5
f 2/13/6 5/19/6 7/14/6
