# Blender 4.0.2
# www.blender.org
mtllib 断桥_cell.003.mtl
o 断桥_cell.003
v 277.472565 -33.501404 -144.245987
v 233.584564 -62.666183 -187.912415
v 259.770599 -32.836143 -129.901505
v 282.949432 -46.807957 -106.242538
v 249.974136 -49.654243 -177.431534
v 232.272186 -48.988987 -163.087036
v 261.350220 -22.651907 -164.645065
v 254.900162 -27.915173 -172.360748
v 256.948975 -25.669098 -169.936539
v 237.198196 -27.249914 -158.016235
v 243.648285 -21.986649 -150.300568
v 239.247025 -25.003839 -155.592041
v 265.396484 -21.749516 -159.693573
v 258.387024 -24.392529 -168.221115
v 262.952118 -22.142788 -162.691849
v 240.685059 -23.727268 -153.876617
v 247.694550 -21.084259 -145.349075
v 245.250168 -21.477531 -148.347351
v 224.106384 -7.494965 -207.502319
v 205.566406 -12.293242 -197.745392
v 226.374573 -7.325397 -208.517899
v 206.513428 -7.928463 -196.779144
v 239.112610 -57.780479 -190.458435
v 234.380386 -42.073143 -197.026733
v 220.204300 -75.825218 -176.734924
v 264.776245 -56.282627 -122.636871
v 266.093719 -55.704666 -121.037827
v 286.640015 -44.630074 -103.869759
v 236.478180 -68.689941 -156.982925
v 250.630783 -52.729965 -176.478561
v 289.774536 -41.095802 -108.187378
v 290.013702 -35.463108 -128.678513
v 278.928925 -40.323063 -142.132385
v 234.300308 8.393829 -163.245468
v 248.969772 5.947258 -181.249634
v 281.279999 -36.949295 -103.166870
v 287.533447 -39.123707 -107.290253
v 285.536987 -29.346146 -134.486710
v 286.104279 -30.120588 -133.750732
v 288.184784 -39.695858 -107.551491
v 285.837311 -44.629951 -103.204681
v 282.091858 -40.752090 -101.988617
v 224.106384 -7.494965 -207.502319
v 206.513428 -7.928463 -196.779144
v 286.640015 -44.630074 -103.869759
v 289.774536 -41.095802 -108.187378
v 286.104279 -30.120588 -133.750732
v 290.013702 -35.463108 -128.678513
v 285.837311 -44.629951 -103.204681
v 282.091858 -40.752090 -101.988617
v 205.566406 -12.293242 -197.745392
v 264.776245 -56.282627 -122.636871
v 266.093719 -55.704666 -121.037827
v 248.969772 5.947258 -181.249634
v 285.536987 -29.346146 -134.486710
v 239.112610 -57.780479 -190.458435
v 234.380386 -42.073143 -197.026733
v 220.204300 -75.825218 -176.734924
v 250.630783 -52.729965 -176.478561
v 236.478180 -68.689941 -156.982925
v 278.928925 -40.323063 -142.132385
v 287.533447 -39.123707 -107.290253
v 288.184784 -39.695858 -107.551491
v 226.374573 -7.325397 -208.517899
v 234.300308 8.393829 -163.245468
v 281.279999 -36.949295 -103.166870
vn -0.3573 -0.3664 -0.8591
vn -0.5034 0.2894 -0.8142
vn -0.0656 -0.4017 -0.9134
vn 0.5926 -0.7785 -0.2070
vn 0.6906 0.6952 0.1993
vn -0.3502 -0.5711 0.7424
vn 0.2946 -0.8869 0.3558
vn -0.1998 0.9359 -0.2900
vn 0.7766 -0.0292 -0.6293
vn -0.7766 0.0292 0.6293
vn 0.0411 -0.9944 0.0969
vn 0.3453 -0.8158 0.4640
vn 0.2321 -0.9154 0.3289
vn 0.5975 0.3510 0.7210
vn 0.1669 -0.9537 0.2502
vn 0.5920 -0.3079 0.7448
vn 0.4693 0.8414 0.2680
vn -0.5975 -0.3510 -0.7210
vn -0.3432 -0.8572 -0.3838
vn 0.6913 0.6946 0.1990
vn 0.5926 -0.7784 -0.2070
vn 0.5926 -0.7784 -0.2071
vn 0.5925 -0.7785 -0.2071
vn 0.5924 -0.7787 -0.2066
vn 0.5980 0.3504 0.7208
vn 0.5975 0.3509 0.7210
vn 0.6912 0.6947 0.1990
vt 0.597875 0.000000
vt 0.821860 0.000000
vt 0.353793 0.353793
vt 1.000000 0.178139
vt 1.000000 0.459758
vt 0.861162 0.429220
vt 1.000000 0.000000
vt 1.000000 0.353793
vt 0.903742 0.000000
vt 0.944108 0.000000
vt 0.720840 0.279575
vt 1.000000 0.282324
vt 0.061555 0.061555
vt 1.000000 0.062425
vt 1.000000 1.000000
vt 0.348194 0.279748
vt 0.234941 0.234941
vt 1.000000 0.546614
vt 0.504308 0.000000
vt 0.706791 0.500000
vt 0.741306 0.526256
vt 0.743936 0.750000
vt 0.375000 0.422171
vt 0.375000 0.405954
vt 0.625000 0.418209
vt 0.375000 0.844046
vt 0.375000 0.827829
vt 0.625000 0.827241
vt 0.375000 0.833412
vt 0.375000 0.828125
vt 0.291588 0.500000
vt 0.286537 0.750000
vt 0.291588 0.750000
vt 0.296875 0.750000
vt 0.298009 0.500000
vt 0.298009 0.750000
vt 0.280116 0.500000
vt 0.281250 0.750000
vt 0.280116 0.750000
vt 0.281250 0.500000
vt 0.343750 0.667579
vt 0.343750 0.750000
vt 0.343750 0.697035
vt 0.265625 0.750000
vt 0.265625 0.500000
vt 0.296875 0.500000
vt 1.000000 0.061555
vt 0.715133 0.234771
vt 0.581461 0.353355
vt 0.312500 0.750000
vt 0.312500 0.500000
vt 1.000000 0.238100
vt 0.062425 0.062425
vt 1.000000 0.055892
vt 0.375000 0.406250
vt 0.916898 0.679421
vt 0.000000 0.000000
vt 0.096258 0.000000
vt 0.375000 0.411537
vt 0.540241 0.000000
vt 0.138597 0.137251
vt 0.727143 0.141795
vt 0.761900 0.000000
vt 0.453386 0.000000
vt 1.000000 0.234941
vt 0.289503 0.289503
vt 0.504308 0.504308
vt 0.702241 0.750000
vt 0.740696 0.500000
vt 0.411323 0.453208
vt 0.401935 0.457057
vt 0.375000 0.437500
vt 0.375000 0.437500
vt 0.412814 0.452652
vt 0.456573 0.375469
vt 0.625000 0.384304
vt 0.375000 0.390625
vt 0.412885 0.374487
vt 0.375000 0.390625
vt 0.375000 0.423009
vt 0.375000 0.405116
vt 0.625000 0.868936
vt 0.607734 0.872348
vt 0.385524 0.885414
vt 0.375000 0.859375
vt 0.375000 0.781250
vt 0.375000 0.812500
vt 0.380069 0.810031
vt 0.375000 0.844884
vt 0.375000 0.826991
vt 0.286537 0.500000
vt 0.343750 0.641667
vt 0.343750 0.660045
vt 0.343750 0.708463
vt 0.910127 0.025106
vt 1.000000 0.289503
vt 0.282324 0.282324
vt 0.638410 0.503782
vt 0.597875 0.597875
s 0
usemtl Asphalt
f 58/1/1 43/2/1 57/3/1
f 43/4/2 51/5/2 44/6/2
f 2/7/3 57/8/3 56/9/3
f 46/10/4 4/7/4 52/11/4
f 47/12/5 62/13/5 63/14/5
f 4/15/6 50/16/6 53/17/6
f 4/7/7 45/18/7 49/19/7
f 54/20/8 19/21/8 22/22/8
f 15/23/9 9/24/9 54/25/9
f 12/26/10 18/27/10 65/28/10
f 18/27/10 11/29/10 16/30/10
f 7/31/8 16/32/8 11/33/8
f 18/34/11 13/35/11 17/36/11
f 8/37/12 12/38/12 10/39/12
f 11/33/13 9/40/13 7/31/13
f 37/41/14 42/42/14 28/43/14
f 6/44/14 59/45/14 5/45/14
f 16/32/15 15/46/15 18/34/15
f 6/44/16 8/37/16 10/39/16
f 62/47/17 35/48/17 34/49/17
f 3/50/18 61/51/18 26/50/18
f 17/36/19 1/51/19 3/50/19
f 32/52/20 63/53/20 46/54/20
f 9/24/10 15/23/10 7/55/10
f 29/56/21 2/57/21 56/58/21
f 14/59/9 7/55/9 15/23/9
f 18/27/9 12/26/9 11/29/9
f 57/3/1 2/57/1 58/1/1
f 58/1/1 51/60/1 43/2/1
f 43/2/1 21/61/1 57/3/1
f 33/62/22 32/63/22 46/10/22
f 46/10/23 45/64/23 4/7/23
f 4/7/24 53/65/24 52/11/24
f 52/11/22 33/62/22 46/10/22
f 47/12/5 38/66/5 62/13/5
f 4/15/6 49/67/6 50/16/6
f 22/22/8 65/68/8 54/20/8
f 54/20/8 64/69/8 19/21/8
f 39/70/9 48/71/9 61/72/9
f 39/70/9 61/72/9 1/73/9
f 54/25/9 55/74/9 39/70/9
f 24/75/9 64/76/9 54/25/9
f 59/77/9 23/78/9 24/75/9
f 5/79/9 59/77/9 24/75/9
f 54/25/9 39/70/9 1/73/9
f 54/25/9 1/73/9 13/80/9
f 5/79/9 24/75/9 54/25/9
f 8/81/9 5/79/9 54/25/9
f 54/25/9 13/80/9 15/23/9
f 9/24/9 8/81/9 54/25/9
f 65/28/10 22/82/10 20/83/10
f 20/83/10 25/84/10 60/85/10
f 20/83/10 60/85/10 6/85/10
f 42/86/10 66/86/10 65/28/10
f 26/87/10 27/88/10 42/86/10
f 3/87/10 26/87/10 42/86/10
f 65/28/10 20/83/10 6/85/10
f 65/28/10 6/85/10 10/89/10
f 3/87/10 42/86/10 65/28/10
f 17/90/10 3/87/10 65/28/10
f 65/28/10 10/89/10 12/26/10
f 18/27/10 17/90/10 65/28/10
f 7/31/8 14/91/8 16/32/8
f 18/34/11 15/46/11 13/35/11
f 8/37/12 9/40/12 12/38/12
f 11/33/13 12/38/13 9/40/13
f 31/92/25 40/93/25 37/41/25
f 37/41/14 66/42/14 42/42/14
f 42/42/26 41/94/26 28/43/26
f 28/43/14 31/92/14 37/41/14
f 6/44/14 60/44/14 59/45/14
f 16/32/15 14/91/15 15/46/15
f 6/44/16 5/45/16 8/37/16
f 34/49/17 36/95/17 62/47/17
f 62/47/17 38/96/17 35/48/17
f 3/50/18 1/51/18 61/51/18
f 17/36/19 13/35/19 1/51/19
f 32/52/27 47/97/27 63/53/27
f 56/58/21 30/98/21 29/56/21
f 29/56/21 58/99/21 2/57/21
