# Blender 4.0.2
# www.blender.org
mtllib 立方体.001_cell.045.mtl
o 立方体.001_cell.045
v 15.002175 5.636644 -17.356649
v 14.989693 5.770657 -17.368757
v 15.020522 5.717790 -17.492966
v 14.940904 5.594053 -17.388683
v 14.953366 5.602561 -17.403961
v 15.018363 5.720831 -17.505663
v 14.983100 5.781255 -17.486380
v 14.974038 5.796187 -17.382793
v 14.944468 5.637896 -17.288328
v 14.939501 5.824739 -17.346199
v 14.926769 5.818457 -17.305500
v 14.860257 5.848647 -17.370037
v 14.897633 5.848651 -17.408556
v 14.858122 5.832689 -17.372108
v 14.859937 5.819487 -17.370348
v 14.916680 5.833045 -17.432365
v 14.862854 5.798774 -17.367516
v 14.883402 5.654285 -17.347580
v 14.892365 5.593919 -17.338882
v 14.929888 5.584264 -17.302475
v 14.960301 5.764891 -17.272964
v 14.935064 5.587443 -17.297451
v 14.978053 5.727901 -17.287567
v 14.999742 5.637896 -17.345293
v 14.972898 5.749139 -17.273907
v 14.967107 5.753150 -17.266361
v 14.883402 5.654285 -17.347580
v 14.892365 5.593919 -17.338882
v 14.926769 5.818457 -17.305500
v 14.960301 5.764891 -17.272964
v 14.860257 5.848647 -17.370037
v 14.897633 5.848651 -17.408556
v 14.862854 5.798774 -17.367516
v 14.935064 5.587443 -17.297451
v 14.999742 5.637896 -17.345293
v 14.929888 5.584264 -17.302475
v 14.967107 5.753150 -17.266361
v 14.978053 5.727901 -17.287567
v 14.972898 5.749139 -17.273907
v 14.916680 5.833045 -17.432365
v 14.858122 5.832689 -17.372108
v 14.859937 5.819487 -17.370348
vn -0.6964 -0.0000 0.7177
vn 0.6946 -0.2514 0.6740
vn -0.7038 -0.1881 -0.6851
vn -0.7039 -0.1926 -0.6837
vn -0.7041 -0.1944 -0.6830
vn -0.7010 -0.2026 -0.6838
vn -0.1287 -0.9834 -0.1281
vn 0.7595 0.6017 0.2473
vn 0.5951 0.8011 -0.0634
vn 0.5752 0.8147 -0.0738
vn 0.7045 0.6343 0.3183
vn 0.8600 0.5096 -0.0242
vn 0.8527 0.5225 -0.0007
vn 0.8613 0.5081 -0.0025
vn 0.7305 -0.6255 -0.2740
vn 0.7178 -0.6367 -0.2818
vn -0.6998 -0.2041 -0.6846
vn 0.5415 -0.8403 -0.0262
vn 0.9744 0.1085 0.1969
vn 0.9742 0.1095 0.1973
vn 0.9746 0.1085 0.1957
vn 0.7600 0.5917 0.2688
vn -0.7055 0.1833 -0.6846
vn 0.6118 -0.7910 -0.0072
vn 0.6922 -0.2640 0.6717
vn 0.2221 0.9509 0.2156
vn -0.6963 -0.0000 0.7178
vn 0.7593 0.5927 0.2687
vn 0.4318 -0.8818 0.1898
vn 0.2218 0.9508 0.2162
vt 0.611949 0.239497
vt 0.596339 0.225544
vt 0.602528 0.219477
vt 0.596079 0.223927
vt 0.597890 0.222635
vt 1.000000 0.549684
vt 0.254383 0.000000
vt 1.000000 0.000000
vt 1.000000 0.599668
vt 0.000000 0.000000
vt 0.599668 0.599668
vt 0.522851 0.000000
vt 0.522851 0.522851
vt 0.268661 0.268661
vt 0.386050 0.000000
vt 1.000000 1.000000
vt 0.745617 0.000000
vt 1.000000 0.079438
vt 0.804523 0.000000
vt 0.906047 0.906047
vt 0.446416 0.000000
vt 0.047007 0.047007
vt 1.000000 0.333319
vt 0.321949 0.000000
vt 0.333319 0.333319
vt 0.804523 0.804523
vt 1.000000 0.678051
vt 0.623676 0.283710
vt 0.622375 0.250000
vt 0.623675 0.250000
vt 0.938385 0.938385
vt 0.446416 0.446416
vt 0.600758 0.219109
vt 0.601435 0.218277
vt 0.919432 0.277274
vt 0.920562 0.000000
vt 0.607280 0.226166
vt 0.613312 0.239433
vt 0.612694 0.239859
vt 0.610775 0.238915
vt 0.602597 0.234816
vt 0.599203 0.233028
vt 0.596079 0.223927
vt 0.601563 0.218119
vt 0.697689 0.437594
vt 0.549684 0.549684
vt 1.000000 0.268661
vt 1.000000 0.613950
vt 0.929927 0.698922
vt 0.622404 0.302774
vt 0.926157 0.000000
s 0
usemtl 石头
f 15/1/1 20/2/1 30/3/1
f 34/4/2 35/5/2 9/5/2
f 42/6/3 40/7/3 7/8/3
f 33/9/4 7/10/4 6/8/4
f 33/11/5 6/10/5 18/12/5
f 4/8/6 18/13/6 6/10/6
f 19/14/7 4/10/7 36/15/7
f 10/16/8 2/10/8 8/8/8
f 10/16/9 8/10/9 7/8/9
f 10/16/10 40/17/10 13/18/10
f 21/19/11 10/16/11 29/20/11
f 7/16/12 3/10/12 6/8/12
f 8/10/13 2/8/13 7/16/13
f 7/16/14 2/10/14 3/8/14
f 3/10/15 1/8/15 6/16/15
f 1/10/16 5/8/16 6/16/16
f 4/8/17 6/16/17 5/10/17
f 22/21/18 4/16/18 5/10/18
f 24/22/19 2/8/19 38/23/19
f 39/24/20 38/25/20 2/10/20
f 2/16/21 1/10/21 3/8/21
f 21/26/22 39/27/22 2/16/22
f 32/28/23 41/29/23 31/30/23
f 5/8/24 24/31/24 22/32/24
f 9/5/25 23/33/25 25/34/25
f 12/35/26 10/10/26 13/36/26
f 30/3/1 11/37/1 31/38/1
f 31/38/1 41/39/1 15/1/1
f 15/1/27 17/40/27 27/41/27
f 27/41/1 28/42/1 20/2/1
f 20/2/1 34/43/1 9/5/1
f 9/5/1 37/44/1 30/3/1
f 30/3/1 31/38/1 15/1/1
f 15/1/1 27/41/1 20/2/1
f 20/2/1 9/5/1 30/3/1
f 42/6/3 14/45/3 40/7/3
f 33/9/4 42/46/4 7/10/4
f 4/8/6 19/47/6 18/13/6
f 10/16/10 7/10/10 40/17/10
f 21/19/28 2/8/28 10/16/28
f 22/21/18 36/48/18 4/16/18
f 24/22/19 1/10/19 2/8/19
f 21/26/22 26/49/22 39/27/22
f 32/28/23 16/50/23 41/29/23
f 5/8/29 1/16/29 24/31/29
f 25/34/25 37/44/25 9/5/25
f 9/5/25 35/5/25 23/33/25
f 12/35/30 29/51/30 10/10/30
