# Blender 4.0.2
# www.blender.org
mtllib 立方体.001_cell.165.mtl
o 立方体.001_cell.165
v 15.962126 3.346837 -16.300915
v 15.978876 3.374701 -16.318178
v 16.037748 3.380948 -16.289688
v 16.082489 3.380761 -16.261135
v 16.103781 3.380642 -16.249899
v 16.023809 3.178112 -16.364489
v 15.974370 3.381724 -16.289034
v 15.981094 3.381325 -16.314640
v 16.122299 3.299623 -16.268986
v 16.112623 3.287686 -16.278368
v 16.042871 3.229032 -16.346006
v 16.023811 3.203002 -16.364489
vn 0.8904 -0.3915 0.2320
vn -0.4464 -0.3006 0.8428
vn 0.8762 -0.4198 0.2367
vn -0.3820 -0.3325 0.8623
vn 0.7177 -0.0000 0.6964
vn -0.6962 -0.0000 0.7179
vn -0.3453 0.7633 0.5460
vn -0.4654 -0.3590 0.8090
vt 0.375000 0.351197
vt 0.378298 0.354635
vt 0.379106 0.350124
vt 0.226197 0.500000
vt 0.228093 0.514311
vt 0.234704 0.508895
vt 0.375000 0.352168
vt 0.230351 0.505009
vt 0.227168 0.500000
vt 0.206066 0.508568
vt 0.207300 0.508104
vt 0.211273 0.509239
vt 0.225792 0.513765
vt 0.236398 0.510773
s 0
usemtl 石头
f 2/1/1 7/2/1 1/3/1
f 2/4/2 9/5/2 4/6/2
f 2/1/3 8/7/3 7/2/3
f 3/8/4 8/9/4 2/4/4
f 2/4/5 6/10/5 12/11/5
f 11/12/6 10/13/6 9/5/6
f 2/4/4 12/11/4 11/12/4
f 4/6/7 3/8/7 2/4/7
f 9/5/2 5/14/2 4/6/2
f 2/4/8 11/12/8 9/5/8
