# Blender 4.0.2
# www.blender.org
mtllib 立方体.001_cell.079.mtl
o 立方体.001_cell.079
v 15.982725 5.712041 -16.406492
v 15.934882 5.598939 -16.451981
v 16.131744 5.711251 -16.560619
v 16.111668 5.599632 -16.633728
v 15.928018 5.587497 -16.420143
v 15.982545 5.715139 -16.389278
v 15.931798 5.591951 -16.445717
v 16.022005 5.618594 -16.328896
v 16.023121 5.588384 -16.327955
v 16.063885 5.740884 -16.336447
v 15.938555 5.585789 -16.448910
v 16.113462 5.586444 -16.628773
v 16.124252 5.550153 -16.593830
v 16.051914 5.574464 -16.332130
v 16.007973 5.637896 -16.425653
v 15.941645 5.570413 -16.419165
v 15.933908 5.578160 -16.414236
v 15.930893 5.594185 -16.417425
v 15.966441 5.677443 -16.398394
v 15.962071 5.666773 -16.389696
v 15.970280 5.685238 -16.405413
v 15.943529 5.620021 -16.440603
v 15.975070 5.693943 -16.413771
v 15.996961 5.693956 -16.436337
v 15.966887 5.622161 -16.465517
v 15.954595 5.558702 -16.427908
v 15.975808 5.566423 -16.373369
v 15.981663 5.560504 -16.377819
v 15.974436 5.576457 -16.374641
v 15.966669 5.637896 -16.383085
v 15.962332 5.660852 -16.387638
v 15.995122 5.558959 -16.391275
v 16.140680 5.749945 -16.367502
v 16.118011 5.749930 -16.344133
v 16.177530 5.749783 -16.405437
v 15.979664 5.556365 -16.453119
v 15.983871 5.549869 -16.449039
v 16.013184 5.558877 -16.409870
v 16.187357 5.586541 -16.377691
v 16.170441 5.586505 -16.360252
v 16.018543 5.558888 -16.415396
v 16.178848 5.731999 -16.402035
v 16.179543 5.722096 -16.400099
v 16.157213 5.590244 -16.347221
v 16.131920 5.700151 -16.345142
v 16.148756 5.641262 -16.346727
v 16.184986 5.641262 -16.384068
v 15.966441 5.677443 -16.398394
v 15.962071 5.666773 -16.389696
v 15.970280 5.685238 -16.405413
v 15.941645 5.570413 -16.419165
v 15.933908 5.578160 -16.414236
v 15.930893 5.594185 -16.417425
v 15.975070 5.693943 -16.413771
v 15.996961 5.693956 -16.436337
v 15.975808 5.566423 -16.373369
v 15.981663 5.560504 -16.377819
v 15.974436 5.576457 -16.374641
v 15.966669 5.637896 -16.383085
v 15.995122 5.558959 -16.391275
v 16.013184 5.558877 -16.409870
v 16.187357 5.586541 -16.377691
v 16.170441 5.586505 -16.360252
v 15.983871 5.549869 -16.449039
v 16.018543 5.558888 -16.415396
v 16.179543 5.722096 -16.400099
v 16.184986 5.641262 -16.384068
v 15.979664 5.556365 -16.453119
v 15.966887 5.622161 -16.465517
v 15.962332 5.660852 -16.387638
v 16.178848 5.731999 -16.402035
v 15.954595 5.558702 -16.427908
v 16.157213 5.590244 -16.347221
v 16.148756 5.641262 -16.346727
v 16.131920 5.700151 -16.345142
v 16.177530 5.749783 -16.405437
v 16.118011 5.749930 -16.344133
v 16.140680 5.749945 -16.367502
v 15.943529 5.620021 -16.440603
vn -0.9362 0.3426 -0.0787
vn -0.7566 -0.6161 -0.2191
vn -0.6996 0.0105 0.7145
vn -0.9208 0.3897 0.0153
vn -0.9137 0.4030 -0.0522
vn -0.9142 0.4021 -0.0502
vn -0.6842 -0.2955 -0.6667
vn -0.9050 0.4168 -0.0845
vn -0.6201 0.5041 -0.6012
vn -0.7157 -0.6402 -0.2791
vn -0.7354 -0.6333 -0.2410
vn -0.6729 -0.3387 -0.6576
vn -0.6594 -0.3901 -0.6427
vn -0.2630 -0.7323 0.6281
vn -0.6917 -0.0031 0.7221
vn -0.6978 0.0102 0.7162
vn 0.0736 -0.9798 0.1861
vn -0.5881 0.2423 0.7717
vn -0.5816 0.2470 0.7751
vn -0.1914 0.9656 -0.1758
vn -0.6191 0.5052 -0.6012
vn 0.9559 0.0200 -0.2931
vn -0.1871 0.9656 -0.1809
vn -0.1860 0.9650 -0.1848
vn -0.5355 -0.6629 -0.5232
vn -0.6217 0.4254 -0.6576
vn 0.1327 -0.9830 0.1267
vn 0.0840 -0.9320 0.3527
vn 0.9579 0.0162 -0.2866
vn 0.9588 0.0116 -0.2840
vn 0.1422 -0.0026 0.9898
vn 0.1420 0.0140 0.9898
vn 0.1376 0.0184 0.9903
vn 0.0804 0.0340 0.9962
vn 0.9595 0.0088 -0.2816
vn 0.7055 0.1833 0.6846
vn 0.7132 0.1115 0.6920
vn -0.6922 -0.2640 -0.6717
vn -0.7055 -0.1833 -0.6846
vn 0.6949 0.2629 0.6693
vn -0.6964 -0.0000 0.7177
vn -0.9103 0.4111 -0.0485
vn -0.5966 0.5567 -0.5781
vn -0.7169 0.2505 -0.6506
vn -0.5210 -0.6939 -0.4970
vn -0.5324 -0.6698 -0.5175
vn 0.1617 -0.9816 0.1020
vn 0.1311 -0.9826 0.1317
vn 0.7053 0.1833 0.6848
vn -0.7056 -0.1833 -0.6845
vn -0.7057 -0.1832 -0.6844
vn 0.6922 0.2640 0.6717
vn 0.6950 0.2713 0.6659
vn 0.6929 0.2612 0.6721
vt 1.000000 1.000000
vt 0.000000 0.000000
vt 1.000000 0.000000
vt 0.568102 0.000000
vt 1.000000 0.910658
vt 0.720942 0.720942
vt 1.000000 0.295324
vt 0.083621 0.000000
vt 0.257324 0.000000
vt 0.295325 0.295325
vt 0.939451 0.939451
vt 0.818569 0.000000
vt 0.257324 0.257324
vt 0.160660 0.036656
vt 1.000000 0.170953
vt 0.283312 0.202666
vt 1.000000 0.431899
vt 0.683483 0.683483
vt 1.000000 0.639438
vt 1.000000 0.652746
vt 0.639438 0.639438
vt 0.864704 0.171180
vt 0.652746 0.652746
vt 0.370771 0.000000
vt 1.000000 0.683482
vt 0.965545 0.965545
vt 1.000000 0.916379
vt 1.000000 0.247008
vt 0.247008 0.247008
vt 0.246347 0.000000
vt 0.863583 0.180625
vt 1.000000 0.180765
vt 1.000000 0.104020
vt 0.967044 0.745914
vt 1.000000 0.629228
vt 0.104020 0.104020
vt 0.257680 0.000000
vt 1.000000 0.172673
vt 0.189808 0.000000
vt 0.218396 0.000000
vt 0.561811 0.263901
vt 1.000000 0.357641
vt 0.357641 0.357641
vt 0.579148 0.000000
vt 0.452040 0.324445
vt 0.103997 0.000000
vt 0.615629 0.912338
vt 0.606771 0.897722
vt 0.613360 0.860198
vt 0.604118 0.882141
vt 0.606771 0.865044
vt 0.606771 0.897722
vt 0.599399 0.029220
vt 0.599677 0.029561
vt 0.597890 0.027365
vt 0.594935 0.025256
vt 0.594938 0.025258
vt 0.592861 0.033533
vt 0.592487 0.033074
vt 0.594444 0.035476
vt 0.592366 0.032172
vt 0.594512 0.035560
vt 1.000000 0.720942
vt 1.000000 0.160015
vt 0.794797 0.794797
vt 0.795451 0.669770
vt 0.160015 0.160015
vt 0.965545 0.000000
vt 0.420852 0.000000
vt 0.863379 0.000000
vt 0.863379 0.863379
vt 0.896003 0.000000
vt 1.000000 0.778874
vt 0.778874 0.778874
vt 0.753653 0.000000
vt 0.172673 0.172673
vt 0.218396 0.218396
vt 1.000000 0.810192
vt 0.614167 0.859629
vt 0.615617 0.858673
vt 0.615630 0.891889
vt 0.611571 0.905799
vt 0.604121 0.893455
vt 0.604120 0.866882
vt 0.598622 0.028264
vt 0.598810 0.028496
vt 0.599150 0.028914
vt 0.599676 0.029561
vt 0.594995 0.025299
vt 0.595217 0.025457
vt 0.595592 0.025725
vt 0.594935 0.025256
vt 0.593620 0.034464
vt 0.593108 0.033836
vt 0.592400 0.033011
s 0
usemtl 石头
f 5/1/1 2/2/1 7/3/1
f 51/4/2 5/1/2 7/2/2
f 53/5/3 5/1/3 52/6/3
f 6/3/4 48/7/4 49/8/4
f 6/2/5 50/9/5 48/10/5
f 2/3/6 53/11/6 79/12/6
f 2/1/7 4/2/7 7/3/7
f 1/3/8 50/13/8 6/2/8
f 1/2/9 4/3/9 55/14/9
f 11/2/10 72/15/10 7/1/10
f 72/16/11 51/17/11 7/1/11
f 4/2/12 12/3/12 7/1/12
f 7/1/13 12/2/13 11/3/13
f 57/18/14 9/3/14 56/19/14
f 9/2/15 58/20/15 56/21/15
f 8/2/16 59/22/16 58/23/16
f 60/24/17 14/3/17 57/25/17
f 70/26/18 6/3/18 49/27/18
f 6/1/19 8/2/19 10/3/19
f 1/3/20 6/1/20 10/2/20
f 1/2/21 3/3/21 4/1/21
f 3/2/22 12/3/22 4/1/22
f 10/2/23 78/28/23 1/1/23
f 3/3/24 78/29/24 76/30/24
f 12/2/25 13/3/25 11/1/25
f 13/2/26 68/31/26 72/32/26
f 13/2/27 63/33/27 65/34/27
f 60/35/28 63/36/28 73/37/28
f 3/2/29 71/38/29 12/1/29
f 12/1/30 66/39/30 13/3/30
f 9/3/31 14/1/31 73/40/31
f 9/1/32 74/41/32 75/42/32
f 10/3/33 75/43/33 77/44/33
f 8/3/34 9/1/34 10/2/34
f 13/3/35 67/45/35 62/46/35
f 34/47/36 46/48/36 43/49/36
f 40/50/37 47/51/37 46/52/37
f 21/53/38 24/54/38 30/55/38
f 30/55/39 41/56/39 32/57/39
f 16/58/40 36/59/40 22/60/40
f 37/61/41 15/55/41 25/62/41
f 51/4/2 52/63/2 5/1/2
f 2/3/42 5/1/42 53/11/42
f 1/3/8 54/64/8 50/13/8
f 4/3/43 2/1/43 79/65/43
f 4/3/44 79/65/44 69/66/44
f 55/14/9 54/67/9 1/2/9
f 4/3/9 69/66/9 55/14/9
f 57/18/14 14/2/14 9/3/14
f 9/2/15 8/3/15 58/20/15
f 8/2/16 70/68/16 59/22/16
f 70/26/18 8/2/18 6/3/18
f 10/2/23 77/69/23 78/28/23
f 3/3/24 1/1/24 78/29/24
f 72/32/45 11/1/45 13/2/45
f 13/2/46 64/70/46 68/31/46
f 65/34/27 64/71/27 13/2/27
f 13/2/27 62/72/27 63/33/27
f 63/33/27 61/73/27 65/34/27
f 73/37/47 14/3/47 60/35/47
f 60/35/48 61/74/48 63/36/48
f 3/2/29 76/75/29 71/38/29
f 12/1/30 71/76/30 66/39/30
f 9/1/32 73/77/32 74/41/32
f 10/3/33 9/1/33 75/43/33
f 13/3/35 66/78/35 67/45/35
f 43/49/49 42/79/49 35/80/49
f 35/80/36 33/81/36 34/47/36
f 34/47/36 45/82/36 46/48/36
f 46/48/36 47/51/36 43/49/36
f 43/49/36 35/80/36 34/47/36
f 46/52/37 44/83/37 40/50/37
f 40/50/37 39/84/37 47/51/37
f 30/55/38 31/85/38 20/86/38
f 20/86/38 19/87/38 21/53/38
f 21/53/38 23/88/38 24/54/38
f 24/54/38 15/55/38 30/55/38
f 30/55/38 20/86/38 21/53/38
f 32/57/39 28/89/39 27/90/39
f 27/90/50 29/91/50 30/55/50
f 30/55/39 15/55/39 41/56/39
f 41/56/51 38/92/51 32/57/51
f 32/57/39 27/90/39 30/55/39
f 18/93/52 17/94/52 16/58/52
f 16/58/53 26/59/53 36/59/53
f 36/59/54 25/62/54 22/60/54
f 22/60/52 18/93/52 16/58/52
f 25/62/41 36/95/41 37/61/41
f 37/61/41 41/56/41 15/55/41
f 15/55/41 24/54/41 25/62/41
