# Blender 4.0.2
# www.blender.org
mtllib 立方体.001_cell.155.mtl
o 立方体.001_cell.155
v 15.073728 5.574082 -17.285456
v 15.052912 5.494485 -17.307083
v 15.067335 5.610517 -17.292152
v 15.035490 5.487824 -17.322950
v 15.041487 5.486900 -17.316959
v 15.006595 5.477335 -17.313213
v 15.012946 5.558702 -17.301638
v 15.046350 5.618575 -17.312534
v 15.024714 5.618614 -17.290220
v 15.034839 5.558702 -17.324202
v 15.033581 5.549006 -17.325502
v 15.029611 5.518978 -17.329449
v 15.026194 5.498410 -17.331434
v 15.002628 5.481593 -17.311649
v 15.034839 5.558702 -17.324202
v 15.033581 5.549006 -17.325502
v 15.045635 5.610583 -17.269920
v 15.024714 5.618614 -17.290220
v 15.046350 5.618575 -17.312534
v 15.029611 5.518978 -17.329449
v 15.052850 5.572751 -17.262920
v 15.059056 5.538684 -17.256899
v 15.045826 5.488521 -17.269735
v 15.008533 5.474507 -17.305922
v 15.002628 5.481593 -17.311649
v 15.026194 5.498410 -17.331434
v 15.021238 5.471859 -17.293592
vn 0.1915 0.9641 0.1840
vn 0.6978 0.0054 -0.7163
vn 0.6940 0.0029 -0.7199
vn 0.6516 -0.0351 -0.7578
vn 0.6920 0.2568 0.6747
vn -0.7055 0.1833 -0.6846
vn 0.7217 -0.0006 -0.6922
vn 0.9491 -0.2848 0.1346
vn 0.5751 -0.8178 -0.0215
vn 0.5719 -0.8197 -0.0321
vn 0.6928 -0.1171 -0.7116
vn -0.0268 -0.6394 -0.7684
vn 0.2352 -0.8972 -0.3738
vn 0.1913 -0.8969 -0.3986
vn -0.7416 -0.6679 -0.0619
vn -0.6922 0.2640 -0.6717
vn 0.7037 0.2460 0.6665
vn 0.6784 -0.0251 -0.7343
vn -0.5404 -0.2034 -0.8165
vn 0.1949 -0.8983 -0.3939
vt 0.769459 0.000000
vt 1.000000 0.326253
vt 0.769347 0.325106
vt 0.000000 0.000000
vt 1.000000 0.387406
vt 0.915487 0.386622
vt 0.232670 0.000000
vt 0.387406 0.387406
vt 0.232670 0.232670
vt 1.000000 0.000000
vt 1.000000 0.106907
vt 1.000000 0.230541
vt 0.746613 0.000000
vt 0.592487 0.216926
vt 0.591010 0.217986
vt 0.589621 0.218984
vt 1.000000 1.000000
vt 0.371308 0.000000
vt 1.000000 0.620981
vt 1.000000 0.257415
vt 0.620981 0.620981
vt 0.262750 0.000000
vt 0.105027 0.105027
vt 1.000000 0.261977
vt 0.739079 0.000000
vt 0.260920 0.000000
vt 0.057718 0.057718
vt 0.594398 0.214580
vt 0.746613 0.746613
vt 0.628692 0.000000
vt 0.326253 0.326253
vt 0.592126 0.217185
vt 0.590246 0.218535
vt 1.000000 0.020158
vt 0.261977 0.261977
vt 0.594399 0.214579
s 0
usemtl 石头
f 17/1/1 19/2/1 18/3/1
f 3/4/2 16/5/2 15/6/2
f 2/4/3 20/7/3 16/8/3
f 20/9/4 4/10/4 26/11/4
f 17/12/5 21/13/5 3/10/5
f 10/14/6 12/15/6 14/16/6
f 3/17/7 1/4/7 2/10/7
f 2/17/8 22/18/8 23/19/8
f 27/20/9 2/17/9 23/21/9
f 27/22/10 5/10/10 2/17/10
f 2/17/11 5/4/11 4/10/11
f 6/10/12 26/23/12 4/4/12
f 5/4/13 27/24/13 4/17/13
f 4/17/14 24/25/14 6/10/14
f 6/4/15 24/26/15 25/27/15
f 7/14/16 8/28/16 10/14/16
f 1/10/17 21/29/17 22/30/17
f 17/1/1 3/10/1 19/2/1
f 15/6/2 19/31/2 3/4/2
f 3/4/2 2/10/2 16/5/2
f 20/9/18 2/4/18 4/10/18
f 14/16/6 7/14/6 10/14/6
f 10/14/6 11/32/6 12/15/6
f 12/15/6 13/33/6 14/16/6
f 2/17/8 1/4/8 22/18/8
f 6/10/19 25/34/19 26/23/19
f 4/17/20 27/35/20 24/25/20
f 7/14/16 9/36/16 8/28/16
f 1/10/17 3/17/17 21/29/17
