# Blender 4.0.2
# www.blender.org
mtllib 立方体.001_cell.055.mtl
o 立方体.001_cell.055
v 15.913888 2.577220 -16.427471
v 15.967631 2.473310 -16.375324
v 15.940300 2.538632 -16.401844
v 15.935681 2.579427 -16.449932
v 15.989439 2.478681 -16.397800
v 15.949222 2.559650 -16.436802
v 15.975432 2.512149 -16.411385
vn 0.6498 0.5667 0.5066
vn 0.4849 0.6893 0.5382
vn 0.5578 0.5018 0.6611
vn -0.6962 -0.0000 0.7179
vt 0.413173 0.226196
vt 0.414489 0.216414
vt 0.408044 0.227025
vt 0.406175 0.230334
vt 0.409284 0.232150
vt 0.417648 0.217984
vt 0.412041 0.220319
s 0
usemtl 金边
f 3/1/1 5/2/1 6/3/1
f 6/3/2 4/4/2 1/5/2
f 3/1/3 2/6/3 5/2/3
f 6/3/2 1/5/2 3/1/2
f 5/2/4 7/7/4 6/3/4
