# Blender 4.0.2
# www.blender.org
mtllib 立方体.001_cell.146.mtl
o 立方体.001_cell.146
v 16.041006 5.220740 -16.347284
v 15.981133 4.983230 -16.320505
v 16.021521 4.834719 -16.362131
v 16.023434 4.820939 -16.364101
v 16.021729 5.219709 -16.365892
v 16.023493 5.156844 -16.364162
v 16.023428 4.813120 -16.364096
v 16.004225 5.219656 -16.347849
v 16.000370 5.219628 -16.343876
v 15.997298 5.156844 -16.337166
v 16.030125 4.985225 -16.315821
v 15.981133 4.983230 -16.320505
v 15.997298 5.156844 -16.337166
v 16.023434 4.820939 -16.364101
v 16.023493 5.156844 -16.364162
v 16.023428 4.813120 -16.364096
v 16.021521 4.834719 -16.362131
v 16.068708 4.959385 -16.320435
v 16.065170 4.971636 -16.317019
v 16.000370 5.219628 -16.343876
v 16.071873 4.968637 -16.317369
v 16.021729 5.219709 -16.365892
v 16.004225 5.219656 -16.347849
vn 0.6958 -0.0000 -0.7182
vn -0.0291 0.9993 -0.0253
vn -0.0292 0.9993 -0.0214
vn 0.0835 0.1282 0.9882
vn 0.1098 0.1304 0.9854
vn -0.0989 0.1042 0.9896
vn -0.7171 -0.0393 -0.6958
vn -0.7177 -0.0000 -0.6964
vn 0.7177 -0.0000 0.6964
vn 0.0794 0.1284 0.9885
vn -0.0722 0.1095 0.9914
vn -0.7173 -0.0392 -0.6957
vn 0.6945 -0.0003 -0.7195
vn 0.6699 -0.0053 -0.7424
vn 0.7104 -0.0088 -0.7038
vt 0.000000 0.000000
vt 0.158405 0.000000
vt 0.141955 0.141955
vt 1.000000 0.000000
vt 1.000000 0.318912
vt 0.680724 0.000000
vt 1.000000 1.000000
vt 0.680724 0.680724
vt 0.149770 0.000000
vt 1.000000 0.840969
vt 0.840969 0.840969
vt 1.000000 0.841595
vt 0.149770 0.149770
vt 0.195703 0.039900
vt 0.791104 0.148025
vt 0.580750 0.019994
vt 0.577893 0.019640
vt 0.580746 0.019993
vt 0.562649 0.019640
vt 0.561997 0.019640
vt 0.600506 0.034003
vt 0.860160 0.068622
vt 0.783940 0.000000
vt 0.014157 0.000000
vt 0.580748 0.019993
vt 0.569810 0.019640
vt 0.561627 0.019640
vt 0.681088 0.000000
vt 1.000000 0.141955
vt 0.781766 0.000000
s 0
usemtl 石头
f 1/1/1 21/2/1 18/3/1
f 1/4/2 22/5/2 23/6/2
f 20/4/3 1/7/3 23/8/3
f 1/7/4 11/9/4 19/10/4
f 1/7/5 19/11/5 21/12/5
f 11/13/6 13/14/6 12/15/6
f 5/16/7 10/17/7 9/18/7
f 17/19/8 10/17/8 14/20/8
f 6/21/9 3/22/9 4/23/9
f 1/7/10 20/1/10 11/9/10
f 11/13/11 20/24/11 13/14/11
f 9/18/12 8/25/12 5/16/12
f 5/16/7 15/17/7 10/17/7
f 17/19/8 2/26/8 10/17/8
f 10/17/8 15/17/8 14/20/8
f 14/20/8 16/27/8 17/19/8
f 6/21/13 22/28/13 1/4/13
f 1/4/14 18/29/14 3/22/14
f 3/22/9 7/30/9 4/23/9
f 6/21/15 1/4/15 3/22/15
