# Blender 4.0.2
# www.blender.org
mtllib 立方体.011.mtl
o 立方体.011
v 3.884565 -0.678785 -0.692688
v 3.689471 0.239813 -2.402461
v 4.186716 -0.981479 -0.750439
v 4.017344 -0.176123 -2.671366
v 4.220555 -0.415953 -0.570845
v 4.021265 0.438893 -2.349950
v 4.530940 -0.851657 -0.532550
v 4.364235 0.176078 -2.569129
v 4.059510 -0.791120 -0.958501
v 3.985046 -0.820505 -0.701046
v 3.785885 -0.349597 -1.193355
v 3.770184 -0.107410 -1.840527
v 3.809837 0.099482 -2.544502
v 3.911301 0.015411 -2.607099
v 4.083169 -0.467434 -2.003460
v 4.117312 -0.777672 -1.217982
v 4.394747 -0.846611 -0.606818
v 4.305618 -0.857873 -0.835718
v 4.104553 -0.008355 -2.716174
v 4.190782 0.108916 -2.623665
v 4.457525 -0.100592 -2.001426
v 4.467485 -0.587205 -1.120582
v 4.320821 -0.473116 -0.723468
v 4.453021 -0.655334 -0.552992
v 4.206856 0.429674 -2.532526
v 4.126315 0.424741 -2.527790
v 4.118511 0.203037 -1.792178
v 4.103944 -0.040456 -1.335883
v 3.974383 -0.556718 -0.718985
v 4.128627 -0.492098 -0.536073
v 3.961830 0.387146 -2.415973
v 3.777706 0.293598 -2.414630
v 4.199857 0.090399 -2.305347
v 4.100254 0.348427 -2.596165
v 4.024140 0.056292 -2.478032
v 3.948079 0.216299 -2.581832
v 4.195426 -0.815596 -0.703698
v 4.059498 -0.761462 -0.621508
v 4.296495 -0.736264 -0.609737
v 4.211472 -0.608481 -0.649607
v 4.112112 -0.121896 -1.382767
v 3.937087 -0.298494 -1.234563
v 4.021691 0.013627 -1.540474
v 3.948686 0.030527 -1.891255
v 4.381182 -0.186577 -1.401891
v 4.279600 -0.121159 -1.353493
v 4.304050 -0.064017 -1.901706
v 4.166005 0.167999 -2.008203
v 4.233573 -0.569561 -1.494181
v 4.389711 -0.425664 -1.463174
v 4.171824 -0.222415 -2.070632
v 4.286429 -0.118426 -2.225766
v 3.937550 -0.545438 -1.113654
v 4.060376 -0.580439 -1.341895
v 3.918801 -0.258818 -1.948368
v 3.907118 -0.163863 -2.186618
v 3.719196 0.092117 -2.172604
v 4.050256 -0.321778 -2.337413
v 4.410881 0.037743 -2.285277
v 4.065714 0.291998 -2.118989
v 3.994864 0.213691 -1.973234
v 3.866538 0.203013 -2.194756
v 4.255453 0.182828 -2.217116
v 4.146160 0.296370 -2.267997
v 4.138188 -0.115385 -2.393403
v 4.238606 -0.004755 -2.424716
v 3.864319 -0.079668 -2.246435
v 3.909209 -0.074226 -2.396858
vn -0.8204 -0.5230 -0.2311
vn 0.5340 -0.7221 -0.4397
vn 0.5989 0.7229 0.3445
vn -0.4749 0.7294 0.4924
vn 0.5634 -0.3354 0.7550
vn -0.5407 0.4041 -0.7378
vn -0.4063 0.8601 -0.3084
vn -0.5702 0.5954 -0.5660
vn -0.7298 -0.3699 -0.5749
vn -0.0845 0.6808 -0.7276
vn -0.2498 0.9662 0.0633
vn 0.6761 -0.4207 -0.6049
vn -0.0359 0.9613 -0.2731
vn 0.7606 -0.0579 -0.6466
vn -0.5014 -0.4007 0.7668
vn -0.1898 0.3566 0.9148
vn -0.8825 -0.0840 0.4627
vn 0.5714 -0.8175 0.0720
vn -0.2143 -0.9679 0.1311
vn 0.4219 -0.2596 0.8687
vn -0.2448 -0.1928 0.9502
vn 0.1448 0.3812 0.9131
vn -0.6387 0.5791 0.5067
vn -0.2141 0.9131 0.3469
vn -0.4647 0.7648 0.4462
vn -0.6918 0.6244 0.3628
vn -0.9170 -0.2640 0.2989
vn -0.1348 0.7120 0.6891
vn -0.2333 0.8993 0.3698
vn -0.6213 0.7127 0.3256
vn 0.7594 0.5879 0.2787
vn 0.4110 0.7988 0.4394
vn 0.9248 0.3742 0.0685
vn 0.5577 0.7457 0.3646
vn 0.9845 0.1273 -0.1207
vn 0.6025 0.7635 0.2327
vn 0.7146 0.6678 0.2080
vn 0.5167 0.7111 0.4769
vn 0.1960 -0.8862 -0.4197
vn 0.3114 -0.8303 -0.4622
vn 0.5015 -0.7633 -0.4072
vn 0.7836 -0.5557 -0.2778
vn 0.5787 -0.7496 -0.3212
vn 0.6542 -0.6149 -0.4404
vn 0.8697 -0.4342 -0.2346
vn 0.5613 -0.6533 -0.5082
vn -0.7056 -0.6819 -0.1925
vn -0.9409 -0.3271 -0.0883
vn -0.7924 -0.5457 -0.2726
vn -0.7728 -0.5655 -0.2881
vn -0.7233 -0.6523 -0.2266
vn -0.6446 -0.7274 -0.2353
vn -0.7893 -0.5792 -0.2038
vn -0.7384 -0.6290 -0.2431
vn -0.8214 -0.5426 -0.1760
vn -0.7698 -0.5993 -0.2195
vn 0.0865 -0.8559 -0.5098
vn 0.8961 -0.3848 -0.2210
vn 0.7244 0.5927 0.3522
vn 0.4215 0.8405 0.3404
vn -0.9225 0.3255 0.2077
vn -0.5021 0.7727 0.3884
vn -0.4180 0.7365 0.5317
vn 0.7502 0.6587 0.0581
vn 0.6232 -0.6578 -0.4230
vn -0.7576 -0.5977 -0.2623
vn -0.8847 -0.4528 -0.1103
vn 0.4457 -0.7269 -0.5225
vn 0.6201 0.7211 0.3089
vn -0.3853 0.7529 0.5336
vn 0.7508 -0.2801 0.5982
vn -0.3931 0.4655 -0.7930
vn -0.5190 0.6619 -0.5409
vn -0.3443 0.6681 -0.6596
vn -0.3779 0.9236 0.0645
vn 0.6789 -0.4181 -0.6035
vn -0.5687 0.7249 -0.3888
vn 0.2856 -0.4223 -0.8603
vn -0.4894 0.0216 -0.8718
vn -0.3996 0.1861 -0.8976
vn -0.2069 0.3491 0.9140
vn -0.3284 -0.7689 0.5486
vn 0.7114 -0.2250 0.6658
vn -0.3251 -0.9421 0.0829
vn -0.4515 -0.3806 0.8070
vn -0.6033 -0.1575 0.7818
vn -0.4792 -0.0994 0.8720
vn -0.4838 0.3845 0.7862
vn -0.1730 0.8756 0.4510
vn -0.4945 0.7806 0.3823
vn -0.9959 -0.0887 -0.0194
vn -0.4973 0.7913 0.3557
vn -0.4832 0.7787 0.4001
vn -0.8762 0.4369 0.2034
vn -0.8143 0.4059 0.4149
vn -0.3942 0.7827 0.4817
vn 0.4200 0.8384 0.3475
vn 0.8341 0.5433 0.0953
vn 0.9676 0.2465 0.0543
vn 0.6195 0.7019 0.3516
vn 0.4617 0.7786 0.4249
vn 0.8610 0.5085 -0.0082
vn 0.8385 0.4843 0.2498
vn -0.0287 0.8953 0.4446
vn 0.0810 -0.8943 -0.4401
vn 0.5656 -0.7355 -0.3729
vn 0.4694 -0.7888 -0.3967
vn 0.6702 -0.6501 -0.3580
vn 0.8540 -0.4002 -0.3325
vn 0.2692 -0.8801 -0.3910
vn 0.8117 -0.5018 -0.2988
vn 0.8626 -0.4465 -0.2380
vn -0.8920 -0.3952 -0.2192
vn -0.8246 -0.5523 -0.1227
vn -0.6934 -0.6572 -0.2955
vn -0.7541 -0.5749 -0.3176
vn -0.7655 -0.6136 -0.1935
vn -0.5575 -0.7802 -0.2836
vn -0.8380 -0.5020 -0.2142
vn -0.7093 -0.6458 -0.2824
vn -0.7779 -0.5752 -0.2530
vn -0.7898 -0.5717 -0.2222
vn 0.6638 -0.6865 -0.2968
vn 0.8551 -0.4391 -0.2758
vn 0.6103 0.7277 0.3130
vn 0.7162 0.5989 0.3583
vn -0.8009 0.4009 0.4447
vn -0.3615 0.8832 0.2988
vn -0.4685 0.7237 0.5068
vn 0.5686 0.7539 0.3291
vn 0.5697 -0.6471 -0.5067
vn -0.8451 -0.5155 -0.1416
vt 0.250043 0.833276
vt 0.291703 0.749957
vt 0.291703 0.833276
vt 0.291703 0.583319
vt 0.250043 0.500000
vt 0.291703 0.500000
vt 0.291703 0.333362
vt 0.250043 0.250043
vt 0.291703 0.250043
vt 0.250043 0.083405
vt 0.291703 0.000087
vt 0.291703 0.083405
vt 0.583319 0.333362
vt 0.500000 0.250043
vt 0.583319 0.250043
vt 0.000087 0.333362
vt 0.083406 0.250043
vt 0.083406 0.333362
vt 0.250043 0.333362
vt 0.166724 0.250043
vt 0.166725 0.333362
vt 0.166725 0.416681
vt 0.250043 0.416681
vt 0.166724 0.500000
vt 0.083406 0.416681
vt 0.083406 0.500000
vt 0.000087 0.416681
vt 0.666638 0.333362
vt 0.749957 0.250043
vt 0.749957 0.333362
vt 0.666638 0.250043
vt 0.749957 0.500000
vt 0.666638 0.416681
vt 0.749957 0.416681
vt 0.583319 0.500000
vt 0.666638 0.500000
vt 0.500000 0.416681
vt 0.583319 0.416681
vt 0.500000 0.333362
vt 0.500000 0.083405
vt 0.416681 0.000087
vt 0.500000 0.000087
vt 0.416681 0.083405
vt 0.333362 0.000087
vt 0.416681 0.250043
vt 0.500000 0.166724
vt 0.333362 0.166724
vt 0.416681 0.166724
vt 0.250043 0.166724
vt 0.291703 0.166724
vt 0.416681 0.333362
vt 0.333362 0.250043
vt 0.416681 0.500000
vt 0.500000 0.500000
vt 0.416681 0.416681
vt 0.333362 0.416681
vt 0.333362 0.333362
vt 0.291703 0.416681
vt 0.500000 0.583319
vt 0.416681 0.583319
vt 0.333362 0.500000
vt 0.416681 0.749957
vt 0.500000 0.666638
vt 0.500000 0.749957
vt 0.333362 0.749957
vt 0.416681 0.666638
vt 0.333362 0.666638
vt 0.250043 0.666638
vt 0.291703 0.666638
vt 0.250043 0.583319
vt 0.500000 0.833276
vt 0.416681 0.833276
vt 0.500000 0.999914
vt 0.416681 0.916595
vt 0.500000 0.916595
vt 0.333362 0.999914
vt 0.416681 0.999914
vt 0.333362 0.916595
vt 0.291703 0.999914
vt 0.250043 0.916595
vt 0.291703 0.916594
vt 0.333362 0.833276
vt 0.333362 0.583319
vt 0.333362 0.083405
vt 0.250043 0.749957
vt 0.250043 0.000087
vt 0.000087 0.250043
vt 0.000087 0.500000
vt 0.250043 0.999914
s 0
usemtl 石头.001
f 14/1/1 58/2/1 68/3/1
f 66/4/2 8/5/2 59/6/2
f 64/7/3 6/8/3 60/9/3
f 32/10/4 57/11/4 62/12/4
f 40/13/5 5/14/5 30/15/5
f 13/16/6 32/17/6 36/18/6
f 26/19/7 31/20/7 6/8/7
f 36/18/8 31/20/8 34/21/8
f 8/5/9 33/22/9 25/23/9
f 25/23/10 34/21/10 26/19/10
f 20/24/11 35/25/11 33/22/11
f 35/25/12 34/21/12 33/22/12
f 19/26/13 14/27/13 35/25/13
f 14/27/14 36/18/14 35/25/14
f 38/28/15 1/29/15 10/30/15
f 40/13/16 29/31/16 38/28/16
f 3/32/17 37/33/17 9/34/17
f 9/34/18 38/28/18 10/30/18
f 17/35/19 37/33/19 18/36/19
f 37/33/20 40/13/20 38/28/20
f 17/35/21 24/37/21 39/38/21
f 39/38/22 23/39/22 40/13/22
f 29/40/23 11/41/23 1/42/23
f 42/43/24 12/44/24 11/41/24
f 28/45/25 30/46/25 5/14/25
f 30/46/26 42/43/26 29/40/26
f 28/45/27 43/47/27 41/48/27
f 43/47/28 42/43/28 41/48/28
f 60/9/29 31/49/29 61/50/29
f 31/49/30 62/12/30 61/50/30
f 46/51/31 5/14/31 23/39/31
f 46/51/32 27/52/32 28/45/32
f 22/53/33 24/37/33 7/54/33
f 45/55/34 23/39/34 24/37/34
f 22/53/35 47/56/35 45/55/35
f 45/55/36 48/57/36 46/51/36
f 8/5/37 63/58/37 59/6/37
f 25/23/38 64/7/38 63/58/38
f 17/59/39 22/53/39 7/54/39
f 50/60/40 21/61/40 22/53/40
f 16/62/41 18/63/41 3/64/41
f 18/63/42 50/60/42 17/59/42
f 15/65/43 49/66/43 16/62/43
f 51/67/44 50/60/44 49/66/44
f 58/2/45 19/68/45 65/69/45
f 65/69/46 20/70/46 66/4/46
f 9/71/47 16/62/47 3/64/47
f 54/72/48 15/65/48 16/62/48
f 1/73/49 53/74/49 10/75/49
f 53/74/50 9/71/50 10/75/50
f 12/76/51 53/74/51 11/77/51
f 55/78/52 54/72/52 53/74/52
f 57/79/53 13/80/53 67/81/53
f 13/80/54 68/3/54 67/81/54
f 67/81/55 56/82/55 55/78/55
f 12/76/56 67/81/56 55/78/56
f 51/67/57 66/4/57 52/83/57
f 15/65/58 65/69/58 51/67/58
f 63/58/59 48/57/59 47/56/59
f 59/6/60 47/56/60 21/61/60
f 61/50/61 44/84/61 43/47/61
f 27/52/62 61/50/62 43/47/62
f 62/12/63 12/44/63 44/84/63
f 48/57/64 60/9/64 27/52/64
f 52/83/65 59/6/65 21/61/65
f 68/3/66 15/65/66 56/82/66
f 14/1/67 4/85/67 58/2/67
f 66/4/68 20/70/68 8/5/68
f 64/7/69 26/19/69 6/8/69
f 32/10/70 2/86/70 57/11/70
f 40/13/71 23/39/71 5/14/71
f 13/16/72 2/87/72 32/17/72
f 26/19/73 34/21/73 31/20/73
f 36/18/74 32/17/74 31/20/74
f 8/5/75 20/24/75 33/22/75
f 25/23/76 33/22/76 34/21/76
f 20/24/77 19/26/77 35/25/77
f 35/25/78 36/18/78 34/21/78
f 19/26/79 4/88/79 14/27/79
f 14/27/80 13/16/80 36/18/80
f 38/28/81 29/31/81 1/29/81
f 40/13/82 30/15/82 29/31/82
f 3/32/83 18/36/83 37/33/83
f 9/34/84 37/33/84 38/28/84
f 17/35/85 39/38/85 37/33/85
f 37/33/86 39/38/86 40/13/86
f 17/35/87 7/54/87 24/37/87
f 39/38/88 24/37/88 23/39/88
f 29/40/89 42/43/89 11/41/89
f 42/43/90 44/84/90 12/44/90
f 28/45/91 41/48/91 30/46/91
f 30/46/92 41/48/92 42/43/92
f 28/45/93 27/52/93 43/47/93
f 43/47/94 44/84/94 42/43/94
f 60/9/95 6/8/95 31/49/95
f 31/49/96 32/10/96 62/12/96
f 46/51/97 28/45/97 5/14/97
f 46/51/98 48/57/98 27/52/98
f 22/53/99 45/55/99 24/37/99
f 45/55/100 46/51/100 23/39/100
f 22/53/101 21/61/101 47/56/101
f 45/55/102 47/56/102 48/57/102
f 8/5/103 25/23/103 63/58/103
f 25/23/104 26/19/104 64/7/104
f 17/59/105 50/60/105 22/53/105
f 50/60/106 52/83/106 21/61/106
f 16/62/107 49/66/107 18/63/107
f 18/63/108 49/66/108 50/60/108
f 15/65/109 51/67/109 49/66/109
f 51/67/110 52/83/110 50/60/110
f 58/2/111 4/85/111 19/68/111
f 65/69/112 19/68/112 20/70/112
f 9/71/113 54/72/113 16/62/113
f 54/72/114 56/82/114 15/65/114
f 1/73/115 11/77/115 53/74/115
f 53/74/116 54/72/116 9/71/116
f 12/76/117 55/78/117 53/74/117
f 55/78/118 56/82/118 54/72/118
f 57/79/119 2/89/119 13/80/119
f 13/80/120 14/1/120 68/3/120
f 67/81/121 68/3/121 56/82/121
f 12/76/122 57/79/122 67/81/122
f 51/67/123 65/69/123 66/4/123
f 15/65/124 58/2/124 65/69/124
f 63/58/125 64/7/125 48/57/125
f 59/6/126 63/58/126 47/56/126
f 61/50/127 62/12/127 44/84/127
f 27/52/128 60/9/128 61/50/128
f 62/12/129 57/11/129 12/44/129
f 48/57/130 64/7/130 60/9/130
f 52/83/131 66/4/131 59/6/131
f 68/3/132 58/2/132 15/65/132
