# Blender 4.0.2
# www.blender.org
mtllib 立方体.001_cell.099.mtl
o 立方体.001_cell.099
v 15.012946 5.558702 -17.301638
v 15.045635 5.610583 -17.269920
v 15.024714 5.618614 -17.290220
v 15.052850 5.572751 -17.262920
v 15.059056 5.538684 -17.256899
v 15.045826 5.488521 -17.269735
v 15.021238 5.471859 -17.293592
v 15.008533 5.474507 -17.305922
v 15.002628 5.481593 -17.311649
vn -0.6964 -0.0000 0.7177
vt 0.587276 0.210368
vt 0.594399 0.214579
vt 0.589621 0.218984
vt 0.588939 0.217807
vt 0.587956 0.214715
vt 0.588665 0.207728
vt 0.590573 0.208967
vt 0.592712 0.210405
vt 0.592487 0.216926
s 0
usemtl 金边
f 6/1/1 3/2/1 9/3/1
f 8/4/1 7/5/1 6/1/1
f 6/1/1 5/6/1 4/7/1
f 4/7/1 2/8/1 3/2/1
f 3/2/1 1/9/1 9/3/1
f 9/3/1 8/4/1 6/1/1
f 6/1/1 4/7/1 3/2/1
