# Blender 4.0.2
# www.blender.org
mtllib 立方体.001_cell.075.mtl
o 立方体.001_cell.075
v 15.981133 4.983230 -16.320505
v 16.068708 4.959385 -16.320435
v 16.071873 4.968637 -16.317369
v 16.065170 4.971636 -16.317019
v 16.030125 4.985225 -16.315821
v 16.021521 4.834719 -16.362131
vn -0.0795 -0.2890 0.9540
vn -0.0794 -0.2890 0.9540
vt 0.744368 0.562500
vt 0.738370 0.596441
vt 0.743696 0.600645
vt 0.750000 0.600139
vt 0.738793 0.594096
vt 0.739222 0.597201
s 0
usemtl 石头
f 6/1/1 3/2/1 5/3/1
f 5/3/1 1/4/1 6/1/1
f 6/1/2 2/5/2 3/2/2
f 3/2/1 4/6/1 5/3/1
