# Blender 4.0.2
# www.blender.org
mtllib 立方体.001_cell.048.mtl
o 立方体.001_cell.048
v 15.910929 5.240831 -16.430346
v 15.907323 5.285590 -16.433844
v 15.925530 5.288297 -16.416176
v 15.937669 5.262665 -16.404400
v 15.956440 5.223104 -16.386185
v 15.917899 5.170784 -16.423582
v 15.944053 5.201742 -16.398205
v 15.958383 5.218820 -16.384302
v 15.912913 5.170464 -16.428419
vn -0.6964 -0.0000 0.7177
vn -0.6964 -0.0000 0.7176
vt 0.579193 0.032469
vt 0.576649 0.037803
vt 0.576733 0.031196
vt 0.578336 0.028337
vt 0.578425 0.028725
vt 0.579655 0.034890
vt 0.578467 0.038522
vt 0.573541 0.037407
vt 0.573836 0.036412
s 0
usemtl 金边
f 4/1/1 1/2/1 7/3/1
f 8/4/2 5/5/2 4/1/2
f 4/1/1 3/6/1 2/7/1
f 1/2/1 9/8/1 6/9/1
f 4/1/1 2/7/1 1/2/1
f 7/3/1 8/4/1 4/1/1
f 1/2/1 6/9/1 7/3/1
