# Blender 4.0.2
# www.blender.org
mtllib 立方体.001_cell.088.mtl
o 立方体.001_cell.088
v 16.020147 5.617481 -16.327274
v 16.021017 5.589207 -16.326996
v 15.923399 5.637896 -16.338490
v 15.971709 5.588319 -16.375006
v 15.965223 5.637896 -16.381594
v 15.974221 5.567115 -16.371918
v 15.961089 5.659195 -16.385704
v 15.919190 5.659325 -16.342573
v 15.978955 5.617508 -16.284584
v 15.979400 5.596151 -16.284153
v 15.979473 5.589171 -16.284082
v 15.956317 5.578100 -16.306549
v 15.932887 5.566982 -16.329283
v 15.971709 5.588319 -16.375006
v 15.965223 5.637896 -16.381594
v 15.961089 5.659195 -16.385704
v 15.979400 5.596151 -16.284153
v 15.979473 5.589171 -16.284082
v 15.956317 5.578100 -16.306549
v 15.932887 5.566982 -16.329283
v 15.978955 5.617508 -16.284584
v 15.919190 5.659325 -16.342573
v 15.974221 5.567115 -16.371918
vn 0.6976 -0.0039 -0.7164
vn 0.6976 -0.0216 -0.7161
vn 0.7085 0.0149 -0.7055
vn 0.7193 0.0290 0.6941
vn 0.7184 0.0145 0.6955
vn 0.2336 -0.9459 0.2253
vn 0.2329 -0.9466 0.2229
vn -0.6964 -0.0000 0.7177
vn -0.6922 -0.2640 -0.6717
vn -0.7055 -0.1833 -0.6846
vn 0.3232 0.8937 0.3113
vn 0.6982 -0.0026 -0.7159
vt 0.319598 0.139966
vt 1.000000 0.000000
vt 1.000000 0.524024
vt 0.000000 0.000000
vt 0.637183 0.000000
vt 0.524024 0.524024
vt 0.956014 0.956014
vt 1.000000 0.755387
vt 1.000000 1.000000
vt 0.755387 0.755387
vt 1.000000 0.754640
vt 1.000000 0.886734
vt 0.754640 0.754640
vt 1.000000 0.362817
vt 0.886733 0.886733
vt 0.887066 0.565461
vt 0.597220 0.020799
vt 0.599560 0.016194
vt 0.598573 0.028204
vt 0.597890 0.027365
vt 0.598519 0.028138
vt 0.597890 0.027365
vt 0.595243 0.025476
vt 0.595238 0.025472
vt 0.823779 0.653468
vt 0.756648 0.000000
vt 0.048459 0.000000
vt 0.243352 0.000000
vt 0.599241 0.016180
vt 0.600523 0.016283
vt 0.596036 0.026042
vt 1.000000 0.956014
s 0
usemtl 石头
f 15/1/1 2/2/1 14/3/1
f 2/4/2 23/5/2 14/6/2
f 16/7/3 1/4/3 2/2/3
f 1/4/4 17/8/4 2/9/4
f 17/10/5 18/11/5 2/9/5
f 19/12/6 2/9/6 18/13/6
f 23/14/7 19/15/7 20/16/7
f 12/17/8 10/18/8 22/19/8
f 5/20/9 22/19/9 7/21/9
f 5/22/10 6/23/10 13/24/10
f 1/2/11 8/25/11 21/26/11
f 15/1/12 16/27/12 2/2/12
f 1/4/4 21/28/4 17/8/4
f 23/14/7 2/9/7 19/15/7
f 3/20/8 13/24/8 12/17/8
f 12/17/8 11/29/8 10/18/8
f 10/18/8 9/30/8 22/19/8
f 22/19/8 3/20/8 12/17/8
f 5/20/9 3/20/9 22/19/9
f 13/24/10 3/20/10 5/22/10
f 5/22/10 4/31/10 6/23/10
f 1/2/11 16/32/11 8/25/11
