# Blender 4.0.2
# www.blender.org
mtllib 立方体.001_cell.163.mtl
o 立方体.001_cell.163
v 15.835502 5.871888 -16.503529
v 15.840901 5.906795 -16.550688
v 15.813183 5.905672 -16.525183
v 15.835502 5.871888 -16.503529
v 15.840901 5.906795 -16.550688
v 15.791040 5.886429 -16.546667
v 15.813183 5.905672 -16.525183
vn 0.4840 0.6759 0.5558
vn 0.2771 -0.7872 -0.5509
vn -0.3765 0.8485 -0.3719
vt 0.599732 0.057011
vt 0.599640 0.052848
vt 0.599732 0.056995
vt 1.000000 0.311601
vt 1.000000 0.470472
vt 0.559263 0.141473
vt 0.350629 0.000000
vt 0.470472 0.470472
vt 0.311601 0.311601
s 0
usemtl 石头
f 7/1/1 4/2/1 5/3/1
f 6/4/2 2/5/2 1/6/2
f 3/7/3 2/8/3 6/9/3
