# Blender 4.0.2
# www.blender.org
mtllib 立方体.001_cell.136.mtl
o 立方体.001_cell.136
v 15.742853 1.412516 -16.636894
v 15.715839 1.515649 -16.662386
v 15.913888 1.625647 -16.427471
v 15.913888 2.577220 -16.427471
v 15.967631 2.473310 -16.375324
v 15.989155 1.528844 -16.397507
v 15.796373 1.625647 -16.584999
v 15.935677 2.180388 -16.449928
v 15.935495 1.625647 -16.449741
v 15.989438 2.394480 -16.397800
v 15.739971 1.625647 -16.639694
v 15.935681 2.579427 -16.449932
v 15.989439 2.478681 -16.397800
v 15.715863 1.625647 -16.662407
v 15.694470 1.625647 -16.640369
v 15.694474 1.515615 -16.640366
v 15.967631 1.528829 -16.375324
v 15.796373 1.625647 -16.584999
v 15.935495 1.625647 -16.449741
v 15.989155 1.528844 -16.397507
v 15.989438 2.394480 -16.397800
v 15.935677 2.180388 -16.449928
v 15.935681 2.579427 -16.449932
v 15.989439 2.478681 -16.397800
v 15.949222 2.559650 -16.436802
v 15.975432 2.512149 -16.411385
v 15.694470 1.625647 -16.640369
v 15.739971 1.625647 -16.639694
v 15.715863 1.625647 -16.662407
v 15.967631 1.528829 -16.375324
v 15.719981 1.416922 -16.615616
vn 0.6971 -0.0005 -0.7170
vn 0.6962 -0.0000 -0.7179
vn 0.6858 -0.0003 -0.7278
vn 0.1156 -0.9407 0.3190
vn -0.6750 -0.3388 -0.6554
vn -0.7175 -0.0000 -0.6965
vn -0.7177 -0.0000 -0.6964
vn 0.7177 -0.0000 0.6964
vn -0.0000 1.0000 -0.0000
vn 0.2305 -0.9472 0.2231
vn -0.7177 -0.0000 -0.6963
vn 0.0004 1.0000 -0.0000
vt 0.500387 0.000000
vt 0.679824 0.070511
vt 1.000000 0.499625
vt 0.108314 0.000000
vt 0.108441 0.108441
vt 0.000000 0.000000
vt 0.390695 0.390695
vt 0.583480 0.426597
vt 0.542419 0.501816
vt 1.000000 0.000000
vt 0.108314 0.108314
vt 0.953793 0.498387
vt 0.953361 0.000000
vt 0.956955 0.956955
vt 0.957636 0.000000
vt 0.058721 0.016363
vt 0.058994 0.058994
vt 0.409570 0.037212
vt 0.453708 0.037212
vt 0.435242 0.037212
vt 0.405726 0.026492
vt 0.446348 0.026492
vt 0.450299 0.026492
vt 0.407942 0.076238
vt 0.407744 0.080980
vt 1.000000 0.108441
vt 1.000000 0.390695
vt 0.499625 0.499625
vt 0.593501 0.401079
vt 0.559398 0.475755
vt 1.000000 0.058994
vt 1.000000 0.499613
vt 1.000000 1.000000
vt 0.042364 0.000000
vt 0.453606 0.037212
vt 0.450047 0.026492
vt 0.405726 0.026492
vt 0.408411 0.064990
vt 0.407744 0.080979
s 0
usemtl 石头
f 20/1/1 19/2/1 21/3/1
f 28/4/2 18/5/2 1/6/2
f 22/7/2 25/8/2 24/9/2
f 2/10/3 28/11/3 1/6/3
f 1/10/4 30/12/4 31/13/4
f 2/10/5 31/14/5 16/15/5
f 2/6/6 15/16/6 29/17/6
f 3/18/7 12/19/7 8/20/7
f 17/21/8 10/22/8 13/23/8
f 9/18/9 11/24/9 27/25/9
f 20/1/1 1/10/1 18/26/1
f 19/2/1 22/27/1 21/3/1
f 20/1/1 18/26/1 19/2/1
f 24/9/2 21/28/2 22/7/2
f 22/7/2 23/29/2 25/8/2
f 25/8/2 26/30/2 24/9/2
f 2/10/3 29/31/3 28/11/3
f 1/10/10 20/32/10 30/12/10
f 2/10/5 1/33/5 31/14/5
f 2/6/11 16/34/11 15/16/11
f 8/20/7 9/18/7 3/18/7
f 3/18/7 4/35/7 12/19/7
f 13/23/8 5/36/8 17/21/8
f 17/21/8 6/37/8 10/22/8
f 27/25/9 3/18/9 9/18/9
f 9/18/12 7/38/12 11/24/12
f 11/24/9 14/39/9 27/25/9
