# Blender 4.0.2
# www.blender.org
mtllib 立方体.001_cell.018.mtl
o 立方体.001_cell.018
v 14.994583 5.421450 -17.319456
v 15.009059 5.472467 -17.305410
v 15.005409 5.468755 -17.308952
v 15.000158 5.463116 -17.314047
v 15.021774 5.463595 -17.293074
v 15.024490 5.438410 -17.290438
v 14.990575 5.371687 -17.323345
v 15.032290 5.365743 -17.282869
v 15.021107 5.469290 -17.293720
vn -0.6964 -0.0000 0.7177
vn -0.6961 -0.0000 0.7179
vt 0.585326 0.221389
vt 0.588028 0.215543
vt 0.588869 0.218430
vt 0.588934 0.219477
vt 0.587386 0.220589
vt 0.582583 0.213068
vt 0.586330 0.214624
vt 0.587715 0.215199
vt 0.588815 0.217702
s 0
usemtl 金边
f 7/1/1 9/2/1 3/3/1
f 4/4/1 1/5/1 7/1/1
f 7/1/1 8/6/1 6/7/1
f 6/7/2 5/8/2 9/2/2
f 9/2/1 2/9/1 3/3/1
f 3/3/1 4/4/1 7/1/1
f 7/1/1 6/7/1 9/2/1
