# Blender 4.0.2
# www.blender.org
mtllib 立方体.001_cell.168.mtl
o 立方体.001_cell.168
v 15.956564 5.188634 -16.428564
v 15.980559 5.217506 -16.405634
v 15.988923 4.925822 -16.397264
v 15.967633 4.772460 -16.375322
v 15.989057 5.138907 -16.397402
v 15.989058 5.148661 -16.397404
v 15.967633 5.148661 -16.375322
v 15.987115 5.217857 -16.399305
v 15.965683 5.217792 -16.377214
v 15.940763 5.195502 -16.401394
v 15.967633 4.772460 -16.375322
v 15.988923 4.925822 -16.397264
v 15.989057 5.138907 -16.397402
v 15.989058 5.148661 -16.397404
v 15.987115 5.217857 -16.399305
v 15.965683 5.217792 -16.377214
v 15.959170 5.217442 -16.383533
v 15.918941 5.169049 -16.422567
vn -0.4663 0.7544 -0.4619
vn 0.6915 -0.0009 -0.7224
vn -0.0904 -0.1287 -0.9875
vn 0.7177 -0.0000 0.6964
vn 0.6945 -0.0003 -0.7195
vn 0.7171 0.0393 0.6958
vn -0.0291 0.9993 -0.0253
vn -0.4682 0.7599 -0.4509
vn 0.7172 -0.0000 0.6968
vn 0.6950 -0.0002 -0.7190
vt 0.000000 0.000000
vt 1.000000 0.921370
vt 1.000000 1.000000
vt 1.000000 0.042823
vt 0.145475 0.145475
vt 0.921965 0.000000
vt 1.000000 0.145475
vt 0.921696 0.219488
vt 0.575592 0.026492
vt 0.557938 0.026492
vt 0.565135 0.026492
vt 0.981068 0.018552
vt 0.108449 0.000000
vt 0.578701 0.026881
vt 0.578704 0.026881
vt 0.609091 0.501087
vt 1.000000 0.891551
vt 0.921370 0.921370
vt 1.000000 0.609386
vt 0.078035 0.000000
vt 1.000000 0.000000
vt 0.575134 0.026492
vt 0.957177 0.000000
vt 0.609386 0.609386
s 0
usemtl 石头
f 1/1/1 10/2/1 2/3/1
f 1/1/2 13/4/2 12/5/2
f 18/6/3 12/7/3 11/8/3
f 14/9/4 4/10/4 3/11/4
f 6/12/5 2/1/5 15/13/5
f 16/14/6 14/9/6 8/15/6
f 2/3/7 9/16/7 15/17/7
f 10/18/8 17/19/8 2/3/8
f 1/1/1 18/20/1 10/2/1
f 1/1/2 2/21/2 13/4/2
f 18/6/3 1/21/3 12/7/3
f 3/11/9 5/22/9 14/9/9
f 14/9/4 7/9/4 4/10/4
f 6/12/10 13/23/10 2/1/10
f 16/14/6 7/9/6 14/9/6
f 2/3/7 17/24/7 9/16/7
