# Blender 4.0.2
# www.blender.org
mtllib 立方体.001_cell.025.mtl
o 立方体.001_cell.025
v 15.913890 5.135857 -16.427471
v 15.967634 4.720887 -16.375324
v 15.967634 4.435637 -16.375324
v 15.954655 4.578262 -16.387918
v 15.916800 5.168267 -16.424648
v 15.912980 5.168134 -16.428354
v 15.967634 4.754099 -16.375324
v 15.932062 5.044148 -16.409838
v 15.913890 3.382601 -16.427471
v 15.967634 3.382555 -16.375324
vn -0.6964 -0.0000 0.7177
vn -0.6965 -0.0000 0.7176
vt 0.572013 0.037212
vt 0.548194 0.029081
vt 0.573583 0.036903
vt 0.490877 0.037212
vt 0.492714 0.026492
vt 0.542132 0.026492
vt 0.555518 0.026492
vt 0.557076 0.026492
vt 0.568755 0.033587
vt 0.573438 0.037394
s 0
usemtl 金边
f 1/1/1 4/2/1 5/3/1
f 1/1/1 9/4/1 10/5/1
f 10/5/1 3/6/1 4/2/1
f 4/2/1 2/7/1 7/8/1
f 7/8/2 8/9/2 5/3/2
f 5/3/1 6/10/1 1/1/1
f 1/1/1 10/5/1 4/2/1
f 4/2/1 7/8/1 5/3/1
