# Blender 4.0.2
# www.blender.org
mtllib 立方体.001_cell.154.mtl
o 立方体.001_cell.154
v 16.042292 6.020154 -16.500017
v 16.009031 5.977138 -16.566751
v 15.829833 5.967205 -16.429276
v 16.021629 5.983551 -16.562872
v 16.025537 6.112202 -16.515339
v 15.931334 6.188251 -16.607565
v 15.998432 6.147590 -16.575121
v 16.016489 5.982373 -16.576189
v 15.907806 6.026020 -16.842062
v 15.897701 6.025559 -16.855755
v 15.819638 6.213543 -16.716377
v 15.914407 5.967205 -16.516438
v 15.707410 5.909189 -16.717283
v 15.665917 5.906111 -16.757544
v 15.681397 5.965004 -16.740387
v 15.754536 6.216253 -16.671558
v 15.756328 6.213282 -16.646725
v 15.767898 6.213233 -16.658592
v 15.661804 5.969273 -16.725279
v 15.728784 6.126185 -16.696545
v 15.792956 6.188282 -16.465055
v 15.861880 6.133024 -16.398180
v 15.887506 6.112335 -16.373316
v 15.869488 5.921372 -16.560022
v 15.842992 5.910377 -16.557108
v 15.688590 5.879631 -16.646074
v 15.851552 5.920023 -16.577425
v 15.715347 5.909786 -16.709581
v 15.656970 5.970021 -16.721189
v 15.703221 6.131649 -16.676710
v 15.633173 5.972691 -16.699844
v 15.679212 6.134342 -16.655174
v 15.686778 6.212497 -16.568079
v 15.693457 6.213291 -16.581940
v 15.894300 6.074773 -16.366724
v 15.903971 6.020121 -16.357340
v 15.880516 5.999701 -16.380098
v 15.833344 5.959254 -16.425869
v 15.813819 5.908300 -16.524567
v 15.917943 5.959197 -16.513008
v 15.876687 5.923824 -16.553036
v 15.838977 5.908285 -16.550478
v 15.633173 5.972691 -16.699844
v 15.679212 6.134342 -16.655174
v 15.707410 5.909189 -16.717283
v 15.665917 5.906111 -16.757544
v 15.754536 6.216253 -16.671558
v 15.767898 6.213233 -16.658592
v 15.681397 5.965004 -16.740387
v 15.661804 5.969273 -16.725279
v 15.728784 6.126185 -16.696545
v 15.703221 6.131649 -16.676710
v 15.792956 6.188282 -16.465055
v 15.861880 6.133024 -16.398180
v 15.887506 6.112335 -16.373316
v 15.786666 5.887003 -16.550913
v 15.688590 5.879631 -16.646074
v 15.869488 5.921372 -16.560022
v 15.851552 5.920023 -16.577425
v 15.715347 5.909786 -16.709581
v 15.656970 5.970021 -16.721189
v 15.686778 6.212497 -16.568079
v 15.693457 6.213291 -16.581940
v 15.894300 6.074773 -16.366724
v 15.876687 5.923824 -16.553036
v 15.813819 5.908300 -16.524567
v 15.790505 5.888310 -16.547188
v 15.833344 5.959254 -16.425869
v 15.917943 5.959197 -16.513008
v 15.838977 5.908285 -16.550478
v 15.842992 5.910377 -16.557108
v 15.903971 6.020121 -16.357340
v 15.756328 6.213282 -16.646725
v 15.880516 5.999701 -16.380098
vn 0.6149 0.6183 -0.4896
vn 0.6343 0.5994 -0.4883
vn 0.4859 -0.8088 -0.3314
vn 0.3416 -0.8960 -0.2836
vn -0.5156 0.3618 -0.7767
vn 0.1166 0.9871 0.1097
vn 0.6127 0.6251 -0.4836
vn -0.5181 0.3630 -0.7745
vn 0.3599 0.8652 0.3490
vn 0.9281 0.1097 -0.3559
vn 0.9261 0.1052 -0.3623
vn 0.9267 0.0983 -0.3627
vn 0.9243 0.1072 -0.3663
vn 0.4770 -0.8724 -0.1070
vn 0.3521 -0.9083 -0.2256
vn 0.3765 -0.9242 -0.0636
vn 0.3411 -0.8967 -0.2821
vn -0.5676 0.3655 -0.7378
vn -0.5979 0.3672 -0.7125
vn 0.1160 0.9869 0.1124
vn 0.6955 0.2444 0.6757
vn 0.6971 0.2394 0.6759
vn 0.3806 -0.8481 0.3687
vn 0.3757 -0.8517 0.3653
vn 0.3841 -0.8940 0.2307
vn -0.6964 -0.0000 0.7177
vn -0.5523 -0.6386 -0.5359
vn -0.6113 -0.5240 -0.5931
vn -0.6951 -0.0266 0.7184
vn 0.5523 0.6386 0.5359
vn 0.3579 0.8668 0.3473
vn -0.5212 0.3639 -0.7720
vn 0.3683 -0.9281 -0.0538
vn -0.6957 -0.6154 -0.3705
vn -0.5523 -0.6385 -0.5359
vn 0.5523 0.6385 0.5359
vn 0.3575 0.8670 0.3473
vt 0.000000 0.000000
vt 1.000000 0.000000
vt 1.000000 1.000000
vt 0.824669 0.000000
vt 0.223104 0.000000
vt 0.094605 0.094605
vt 0.291488 0.291488
vt 0.291829 0.172477
vt 0.233653 0.000000
vt 0.721557 0.272003
vt 0.584370 0.584370
vt 0.611887 0.000000
vt 1.000000 0.546952
vt 1.000000 0.291698
vt 1.000000 0.465292
vt 0.530117 0.000000
vt 0.977814 0.193529
vt 0.597087 0.505827
vt 1.000000 0.265582
vt 1.000000 0.766347
vt 0.237085 0.000000
vt 0.735607 0.735607
vt 0.290001 0.257812
vt 0.788996 0.756520
vt 0.832123 0.832123
vt 1.000000 0.859636
vt 1.000000 0.388113
vt 0.593733 0.000000
vt 0.593733 0.593733
vt 0.557813 0.000000
vt 0.682840 0.418675
vt 0.890655 0.681949
vt 1.000000 0.298798
vt 1.000000 0.445856
vt 0.938208 0.367563
vt 0.298798 0.298798
vt 0.306266 0.000000
vt 0.445856 0.445856
vt 0.574267 0.000000
vt 0.600308 0.083055
vt 0.601045 0.054988
vt 0.605989 0.045323
vt 0.606091 0.046028
vt 0.615334 0.033169
vt 0.615548 0.039636
vt 0.606569 0.075260
vt 0.606569 0.075253
vt 0.605989 0.045328
vt 0.589871 0.087319
vt 0.590592 0.092262
vt 0.587178 0.095595
vt 0.590275 0.082153
vt 0.590612 0.092890
vt 0.599741 0.057420
vt 0.600330 0.084024
vt 1.000000 0.584370
vt 0.309121 0.000000
vt 1.000000 0.094605
vt 0.140364 0.000000
vt 1.000000 0.291488
vt 0.223104 0.223104
vt 0.734418 0.000000
vt 0.425733 0.000000
vt 0.465292 0.465292
vt 0.291698 0.291698
vt 0.565845 0.066824
vt 1.000000 0.175331
vt 0.546952 0.546952
vt 0.237085 0.237085
vt 0.859488 0.859488
vt 0.690879 0.000000
vt 0.592917 0.000000
vt 0.592917 0.592917
vt 0.557812 0.557812
vt 1.000000 0.560264
vt 0.605805 0.077918
vt 0.599767 0.058566
vt 0.601642 0.053552
vt 0.613078 0.053384
vt 0.606569 0.075259
vt 0.611055 0.035919
vt 0.613639 0.031240
vt 0.616490 0.034524
vt 0.606569 0.075259
vt 0.590387 0.085735
vt 0.590609 0.092801
vt 0.590387 0.085735
vt 0.590622 0.093208
vt 0.599736 0.057174
vt 0.599736 0.057201
vt 0.599767 0.058566
vt 0.600322 0.083704
s 0
usemtl 石头
f 11/1/1 7/2/1 10/3/1
f 7/1/2 9/2/2 10/3/2
f 9/1/3 8/2/3 10/3/3
f 45/4/4 10/3/4 8/1/4
f 49/5/5 10/3/5 46/6/5
f 6/2/6 47/7/6 48/8/6
f 11/3/7 6/1/7 7/2/7
f 11/3/8 50/9/8 51/10/8
f 5/2/9 22/11/9 55/12/9
f 5/1/10 1/2/10 7/3/10
f 7/3/11 1/1/11 9/2/11
f 1/1/12 8/2/12 9/3/12
f 1/1/13 4/2/13 8/3/13
f 8/3/14 4/1/14 2/2/14
f 2/1/15 58/13/15 8/3/15
f 56/14/16 71/15/16 70/16/16
f 60/17/17 8/3/17 59/18/17
f 52/19/18 50/20/18 61/21/18
f 52/22/19 43/23/19 44/24/19
f 33/25/20 6/2/20 73/26/20
f 55/27/21 64/28/21 5/2/21
f 64/29/22 1/2/22 5/3/22
f 1/3/23 74/30/23 4/2/23
f 38/31/24 69/32/24 4/3/24
f 67/33/24 70/34/24 39/35/24
f 67/36/16 56/37/16 70/38/16
f 65/39/25 2/2/25 4/3/25
f 20/40/26 24/41/26 40/42/26
f 3/43/26 35/44/26 54/45/26
f 3/43/27 34/46/27 18/47/27
f 68/48/28 12/43/28 40/42/28
f 13/49/29 15/50/29 14/51/29
f 15/50/27 26/52/27 29/53/27
f 25/54/30 20/40/30 32/55/30
f 22/56/31 6/1/31 53/57/31
f 45/4/4 46/58/4 10/3/4
f 49/5/5 11/2/5 10/3/5
f 6/2/6 11/3/6 47/7/6
f 48/8/6 73/59/6 6/2/6
f 51/10/8 47/60/8 11/3/8
f 11/3/8 49/61/8 50/9/8
f 50/9/32 52/62/32 51/10/32
f 5/2/9 7/3/9 22/11/9
f 2/1/33 65/63/33 58/13/33
f 71/64/17 56/65/17 57/66/17
f 60/17/17 45/67/17 8/3/17
f 71/64/17 57/66/17 60/17/17
f 8/3/17 58/68/17 59/18/17
f 59/18/17 71/64/17 60/17/17
f 52/22/19 61/69/19 43/23/19
f 73/26/20 63/70/20 33/25/20
f 33/25/20 53/71/20 6/2/20
f 64/29/22 72/72/22 1/2/22
f 1/3/23 72/73/23 74/30/23
f 4/3/24 74/74/24 38/31/24
f 69/32/24 65/75/24 4/3/24
f 40/42/26 12/43/26 18/47/26
f 18/47/26 16/76/26 20/40/26
f 20/40/26 27/77/26 24/41/26
f 24/41/26 41/78/26 40/42/26
f 40/42/26 18/47/26 20/40/26
f 21/79/26 62/80/26 3/43/26
f 3/43/26 68/48/26 37/81/26
f 37/81/26 36/82/26 35/44/26
f 35/44/26 23/83/26 54/45/26
f 54/45/26 21/79/26 3/43/26
f 3/43/26 37/81/26 35/44/26
f 18/47/27 12/43/27 3/43/27
f 3/43/34 62/80/34 34/46/34
f 34/46/35 17/84/35 18/47/35
f 68/48/28 3/43/28 12/43/28
f 13/49/29 28/85/29 15/50/29
f 29/53/35 19/86/35 15/50/35
f 15/50/27 28/87/27 26/52/27
f 26/52/27 31/88/27 29/53/27
f 66/89/36 42/90/36 25/54/36
f 25/54/30 27/91/30 20/40/30
f 20/40/36 30/92/36 32/55/36
f 32/55/30 66/89/30 25/54/30
f 22/56/37 7/3/37 6/1/37
