# Blender 4.0.2
# www.blender.org
mtllib 立方体.001_cell.010.mtl
o 立方体.001_cell.010
v 15.208597 6.359245 -17.157063
v 15.711541 6.359297 -16.669838
v 15.858808 6.434901 -16.921602
v 15.480820 6.435578 -17.287903
v 15.219082 6.364102 -17.171955
v 15.799763 6.388027 -16.735609
v 15.818791 6.214920 -16.717598
v 15.896896 6.025588 -16.857830
v 15.909728 6.011302 -16.887892
v 15.518505 6.240337 -16.900572
v 15.508881 6.215482 -17.295298
v 15.510902 6.112366 -17.293335
v 15.505837 6.379289 -17.298250
v 15.901122 6.136525 -16.914711
v 15.914171 6.016172 -16.902050
v 15.914946 6.008600 -16.901300
v 15.373199 5.958434 -17.041561
v 15.385927 5.934872 -17.029211
v 15.565748 5.958448 -17.240120
v 15.691286 5.726077 -17.118313
v 15.343732 5.982147 -17.028090
v 15.294942 6.131649 -17.084400
v 15.364751 5.982141 -17.049757
v 15.311478 6.131645 -17.101448
v 15.263759 6.227203 -17.120390
v 15.277430 6.227199 -17.134483
v 15.289676 6.131791 -17.078804
v 15.255587 6.227423 -17.111706
v 15.505380 6.434557 -17.298693
v 15.867938 6.434933 -16.946911
v 15.872251 6.401223 -16.942726
v 15.750404 6.242609 -16.675566
v 15.753121 6.217532 -16.672928
v 15.661833 5.970519 -16.726793
v 15.681597 5.966113 -16.741913
v 15.704731 6.133083 -16.679974
v 15.727729 6.127955 -16.697567
v 15.664557 5.905289 -16.758862
v 15.653058 5.885643 -16.770018
v 15.791635 5.793744 -17.020947
v 15.874593 5.935508 -16.940453
v 15.913963 6.002804 -16.902252
v 15.518238 5.730526 -16.900831
v 15.711163 5.701555 -17.099026
v 15.697187 5.716935 -17.112587
v 15.459097 5.799768 -16.958216
v 15.334072 6.359258 -17.035509
v 15.425889 6.121501 -16.946716
v 15.496671 6.240337 -16.878069
v 15.339667 6.215838 -17.030182
v 15.425098 6.359268 -16.947329
v 15.700164 6.290545 -16.680904
v 15.659172 6.359292 -16.720570
v 15.568157 6.359282 -16.808741
v 15.649453 5.984112 -16.730230
v 15.680390 6.171060 -16.700138
v 15.361135 6.367765 -17.053265
v 15.452076 6.367748 -16.965027
v 15.675911 6.367704 -16.747845
v 15.584949 6.367722 -16.836103
v 15.723577 6.251716 -16.658768
v 15.656847 5.971848 -16.723240
v 15.525199 5.738494 -16.894077
v 15.780523 5.780956 -17.031727
v 15.508881 6.215482 -17.295298
v 15.510902 6.112366 -17.293335
v 15.294942 6.131649 -17.084400
v 15.311478 6.131645 -17.101448
v 15.277430 6.227199 -17.134483
v 15.289676 6.131791 -17.078804
v 15.505837 6.379289 -17.298250
v 15.505380 6.434557 -17.298693
v 15.664557 5.905289 -16.758862
v 15.681597 5.966113 -16.741913
v 15.680390 6.171060 -16.700138
v 15.704731 6.133083 -16.679974
v 15.914946 6.008600 -16.901300
v 15.913963 6.002804 -16.902252
v 15.753121 6.217532 -16.672928
v 15.727729 6.127955 -16.697567
v 15.343732 5.982147 -17.028090
v 15.425889 6.121501 -16.946716
v 15.364751 5.982141 -17.049757
v 15.691286 5.726077 -17.118313
v 15.697187 5.716935 -17.112587
v 15.496671 6.240337 -16.878069
v 15.339667 6.215838 -17.030182
v 15.425098 6.359268 -16.947329
v 15.700164 6.290545 -16.680904
v 15.659172 6.359292 -16.720570
v 15.568157 6.359282 -16.808741
v 15.584949 6.367722 -16.836103
v 15.750404 6.242609 -16.675566
v 15.723577 6.251716 -16.658768
v 15.653058 5.885643 -16.770018
v 15.525199 5.738494 -16.894077
v 15.711163 5.701555 -17.099026
v 15.780523 5.780956 -17.031727
v 15.867938 6.434933 -16.946911
v 15.452076 6.367748 -16.965027
v 15.874593 5.935508 -16.940453
v 15.901122 6.136525 -16.914711
v 15.872251 6.401223 -16.942726
v 15.914171 6.016172 -16.902050
v 15.373199 5.958434 -17.041561
v 15.385927 5.934872 -17.029211
v 15.565748 5.958448 -17.240120
v 15.263759 6.227203 -17.120390
v 15.255587 6.227423 -17.111706
v 15.661833 5.970519 -16.726793
v 15.791635 5.793744 -17.020947
v 15.518238 5.730526 -16.900831
v 15.459097 5.799768 -16.958216
v 15.649453 5.984112 -16.730230
v 15.334072 6.359258 -17.035509
v 15.361135 6.367765 -17.053265
v 15.675911 6.367704 -16.747845
v 15.656847 5.971848 -16.723240
vn -0.4025 -0.0253 -0.9151
vn -0.4019 -0.0240 -0.9154
vn 0.5604 0.1466 0.8152
vn 0.9322 0.1363 0.3352
vn 0.9327 0.1287 0.3370
vn 0.8944 -0.2160 0.3916
vn -0.5735 -0.6014 -0.5562
vn -0.6430 -0.4447 -0.6236
vn -0.6582 -0.4438 -0.6081
vn -0.1804 0.9655 0.1878
vn -0.4026 -0.0107 -0.9153
vn 0.0283 0.9991 -0.0302
vn 0.9284 0.1604 0.3351
vn 0.5149 -0.3600 0.7780
vn 0.5174 -0.3611 0.7758
vn 0.6964 -0.0000 -0.7177
vn 0.5577 -0.6318 0.5383
vn -0.4997 -0.7822 -0.3721
vn -0.5170 -0.7630 -0.3879
vn -0.5542 -0.6684 -0.4961
vn -0.6965 -0.0084 0.7176
vn -0.6958 -0.0009 0.7182
vn 0.5568 -0.6321 0.5389
vn -0.6958 -0.0005 0.7182
vn -0.1810 0.9656 0.1867
vn -0.1784 0.9663 0.1858
vn -0.1744 0.9665 0.1882
vn -0.6511 -0.0144 0.7589
vn -0.6892 -0.0026 0.7245
vn 0.4773 -0.3572 0.8029
vn 0.3980 -0.7684 0.5012
vn 0.3972 -0.7701 0.4992
vn -0.6969 -0.0006 0.7172
vn -0.5523 -0.6386 -0.5359
vn 0.5523 -0.6386 0.5359
vn 0.9322 0.1371 0.3348
vn -0.6964 -0.0000 0.7177
vn 0.5523 0.6386 0.5359
vn -0.5523 0.6385 -0.5359
vn 0.5602 0.1464 0.8153
vn 0.5602 0.1466 0.8153
vn 0.5603 0.1464 0.8152
vn 0.0004 1.0000 0.0014
vn 0.6964 -0.0000 -0.7176
vn 0.6955 0.0005 -0.7185
vn -0.5738 -0.6024 -0.5549
vn -0.6962 -0.0012 0.7179
vn 0.5568 -0.6320 0.5390
vn 0.5569 -0.6319 0.5390
vn -0.6816 0.0061 0.7317
vn -0.6964 0.0005 0.7176
vn -0.6879 -0.0095 0.7257
vn -0.6968 0.0005 0.7172
vn -0.6926 -0.0063 0.7213
vn 0.5523 -0.6385 0.5359
vn 0.9322 0.1373 0.3350
vn -0.5522 0.6386 -0.5360
vn -0.5523 0.6386 -0.5359
vt 1.000000 0.301818
vt 0.379417 0.000000
vt 1.000000 0.000000
vt 0.329119 0.000000
vt 0.301818 0.301818
vt 0.000000 0.000000
vt 0.855127 0.137889
vt 1.000000 1.000000
vt 0.228400 0.228400
vt 0.061181 0.061181
vt 0.019356 0.019356
vt 0.020004 0.000000
vt 0.902730 0.000000
vt 1.000000 0.634243
vt 0.040694 0.000000
vt 0.634243 0.634243
vt 0.475915 0.048939
vt 0.702982 0.040459
vt 0.662534 0.662534
vt 0.432518 0.000000
vt 0.426990 0.426990
vt 0.059214 0.000000
vt 1.000000 0.670881
vt 1.000000 0.045146
vt 0.045719 0.045719
vt 1.000000 0.277431
vt 0.538993 0.263354
vt 0.762667 0.000000
vt 0.227017 0.225548
vt 0.090406 0.000000
vt 0.589612 0.596004
vt 0.595798 0.665505
vt 0.578674 0.641062
vt 0.665077 0.665077
vt 1.000000 0.962413
vt 0.029771 0.000000
vt 1.000000 0.096260
vt 1.000000 0.959260
vt 0.959260 0.959260
vt 0.096260 0.096260
vt 1.000000 0.096168
vt 0.096168 0.096168
vt 1.000000 0.959306
vt 0.959256 0.959256
vt 1.000000 0.489725
vt 1.000000 0.567482
vt 1.000000 0.940785
vt 1.000000 0.328889
vt 1.000000 0.750519
vt 0.070971 0.000000
vt 1.000000 0.665077
vt 0.744745 0.388090
vt 0.596028 0.000000
vt 1.000000 0.569533
vt 0.852454 0.000000
vt 1.000000 0.104125
vt 0.576026 0.464927
vt 0.311555 0.200974
vt 0.805177 0.000000
vt 1.000000 0.738590
vt 0.403972 0.000000
vt 0.764410 0.764410
vt 0.147546 0.000000
vt 0.738590 0.738590
vt 0.241422 0.241422
vt 1.000000 0.237333
vt 1.000000 0.080735
vt 0.092433 0.000000
vt 0.921131 0.000000
vt 0.970229 0.000000
vt 0.092433 0.092433
vt 0.097360 0.000000
vt 0.571118 0.125053
vt 0.590597 0.092420
vt 0.590657 0.155670
vt 0.606626 0.078742
vt 0.606719 0.084437
vt 0.606853 0.092602
vt 0.606596 0.173088
vt 0.606869 0.156391
vt 0.606853 0.157401
vt 0.277431 0.277431
vt 1.000000 0.228400
vt 0.600322 0.166296
vt 0.600943 0.138251
vt 0.606869 0.093602
vt 0.600313 0.083265
vt 0.605764 0.078200
vt 0.591619 0.125000
vt 0.590597 0.092426
vt 0.590619 0.093107
vt 0.600920 0.110744
vt 0.600426 0.088386
vt 0.590657 0.155669
vt 0.591619 0.125000
vt 0.600920 0.139258
vt 0.600322 0.166296
vt 0.600323 0.166279
vt 0.764410 0.000000
vt 1.000000 0.282328
vt 1.000000 0.061181
vt 1.000000 0.019356
vt 1.000000 0.064310
vt 0.662534 0.000000
vt 1.000000 0.620583
vt 0.064310 0.064310
vt 0.120646 0.062206
vt 0.058458 0.000000
vt 0.426990 0.000000
vt 0.671111 0.000000
vt 0.040293 0.000000
vt 0.045146 0.045146
vt 1.000000 0.226316
vt 0.282328 0.282328
vt 0.262820 0.000000
vt 0.571693 0.621704
vt 0.572142 0.621046
vt 0.599605 0.585064
vt 0.603997 0.584661
vt 0.610919 0.584054
vt 0.613114 0.584355
vt 0.609907 0.656283
vt 0.608826 0.657143
vt 0.599921 0.662902
vt 0.595534 0.665660
vt 0.595227 0.665464
vt 0.589840 0.657610
vt 0.577453 0.638846
vt 0.569940 0.625011
vt 1.000000 0.097270
vt 1.000000 0.692202
vt 0.090406 0.090406
vt 0.919266 0.000000
vt 0.692202 0.692202
vt 0.489725 0.489725
vt 0.194823 0.000000
vt 1.000000 0.285090
vt 0.750519 0.750519
vt 0.757033 0.645580
vt 0.130505 0.020279
vt 0.104125 0.104125
vt 0.569533 0.569533
vt 0.285090 0.285090
vt 1.000000 0.241422
vt 1.000000 0.929029
vt 0.921131 0.921131
vt 0.589171 0.153985
vt 0.587428 0.151446
vt 0.577473 0.136850
vt 0.571823 0.123665
vt 0.585554 0.098160
vt 0.587061 0.095867
vt 0.606869 0.093602
vt 0.606644 0.079824
vt 0.606597 0.173062
vt 0.606596 0.173088
vt 0.606596 0.173088
vt 0.600943 0.111746
vt 0.590664 0.094564
vt 0.590614 0.092950
vt 0.600326 0.083875
vt 0.591176 0.139116
vt 0.600544 0.156295
vt 0.600943 0.138251
vt 0.600322 0.166296
s 0
usemtl 石头
f 65/1/1 66/2/1 5/3/1
f 71/4/2 65/5/2 5/6/2
f 2/6/3 93/7/3 7/8/3
f 8/3/4 102/9/4 7/6/4
f 9/3/5 104/10/5 8/6/5
f 77/11/6 9/6/6 78/12/6
f 106/13/7 107/14/7 84/15/7
f 107/16/8 68/17/8 69/18/8
f 108/19/9 1/3/9 5/8/9
f 70/20/9 67/21/9 81/22/9
f 5/8/10 1/6/10 4/3/10
f 4/6/11 71/23/11 5/8/11
f 4/6/12 99/24/12 72/25/12
f 31/26/13 3/6/13 6/3/13
f 7/8/14 80/27/14 110/28/14
f 8/3/15 74/29/15 73/30/15
f 19/31/16 15/32/16 40/33/16
f 9/8/17 101/34/17 78/35/17
f 44/36/18 112/37/18 85/38/18
f 85/39/19 112/40/19 113/41/19
f 113/42/20 84/43/20 85/44/20
f 82/45/21 70/46/21 81/47/21
f 109/48/22 115/49/22 1/3/22
f 95/50/23 101/51/23 8/8/23
f 86/52/24 75/53/24 88/54/24
f 89/55/24 2/3/24 90/56/24
f 4/3/25 58/57/25 92/58/25
f 4/8/26 2/6/26 3/3/26
f 2/6/27 6/3/27 3/8/27
f 114/59/28 76/60/28 75/61/28
f 94/62/29 2/6/29 89/63/29
f 76/64/30 118/65/30 110/66/30
f 111/67/31 96/68/31 98/69/31
f 44/70/32 96/71/32 112/72/32
f 43/73/33 35/74/33 23/75/33
f 32/76/34 52/77/34 53/78/34
f 25/79/35 116/80/35 47/81/35
f 31/82/36 7/3/36 102/83/36
f 116/80/37 24/84/37 100/85/37
f 59/86/37 37/87/37 33/88/37
f 49/89/34 35/90/34 62/91/34
f 37/87/38 54/92/38 56/93/38
f 21/94/35 10/95/35 49/95/35
f 51/96/39 24/97/39 27/98/39
f 7/8/40 6/8/40 2/6/40
f 2/6/41 94/99/41 93/7/41
f 93/7/42 79/100/42 7/8/42
f 8/3/4 104/101/4 102/9/4
f 9/3/5 77/102/5 104/10/5
f 106/13/7 105/103/7 107/14/7
f 69/18/8 108/104/8 5/3/8
f 5/3/8 66/105/8 107/16/8
f 107/16/8 105/106/8 83/107/8
f 83/107/8 81/108/8 67/109/8
f 83/107/8 67/109/8 68/17/8
f 69/18/8 5/3/8 107/16/8
f 107/16/8 83/107/8 68/17/8
f 108/19/9 109/110/9 1/3/9
f 4/6/11 72/111/11 71/23/11
f 4/6/43 3/3/43 99/24/43
f 31/26/13 99/112/13 3/6/13
f 110/28/14 74/113/14 7/8/14
f 7/8/14 79/114/14 80/27/14
f 80/27/14 76/115/14 110/28/14
f 8/3/15 7/8/15 74/29/15
f 45/116/16 20/117/16 19/31/16
f 19/31/16 12/118/16 11/119/16
f 11/119/16 13/120/16 29/121/16
f 29/121/16 30/122/16 103/123/16
f 103/123/44 14/124/44 15/32/44
f 15/32/16 16/125/16 42/126/16
f 42/126/45 41/127/45 40/33/45
f 40/33/16 64/128/16 97/129/16
f 97/129/16 45/116/16 19/31/16
f 19/31/16 11/119/16 29/121/16
f 29/121/16 103/123/16 15/32/16
f 15/32/16 42/126/16 40/33/16
f 40/33/16 97/129/16 19/31/16
f 19/31/16 29/121/16 15/32/16
f 113/42/46 106/130/46 84/43/46
f 82/45/47 87/131/47 70/46/47
f 8/8/48 73/132/48 95/50/48
f 95/50/49 111/133/49 101/51/49
f 101/51/17 9/3/17 8/8/17
f 87/134/24 82/135/24 86/52/24
f 86/52/24 114/136/24 75/53/24
f 75/53/24 91/137/24 88/54/24
f 88/54/24 87/134/24 86/52/24
f 4/3/25 1/8/25 115/138/25
f 4/3/25 115/138/25 57/139/25
f 117/140/25 90/141/25 2/6/25
f 88/142/25 91/143/25 92/58/25
f 117/140/25 2/6/25 4/3/25
f 58/57/25 88/142/25 92/58/25
f 92/58/25 117/140/25 4/3/25
f 4/3/25 57/139/25 58/57/25
f 114/59/50 118/144/50 76/60/50
f 111/67/31 95/145/31 96/68/31
f 44/70/32 98/146/32 96/71/32
f 23/75/37 17/147/37 18/148/37
f 18/148/37 46/149/37 43/73/37
f 43/73/51 63/150/51 39/151/51
f 39/151/52 38/152/52 35/74/52
f 35/74/53 10/95/53 23/75/53
f 23/75/37 18/148/37 43/73/37
f 43/73/54 39/151/54 35/74/54
f 53/78/34 59/153/34 32/76/34
f 32/76/34 61/154/34 52/77/34
f 47/81/55 28/155/55 25/79/55
f 25/79/35 26/156/35 116/80/35
f 31/82/56 6/6/56 7/3/56
f 116/80/37 26/157/37 24/84/37
f 33/88/37 32/76/37 59/86/37
f 59/86/37 60/158/37 37/87/37
f 62/91/34 55/159/34 49/89/34
f 49/89/34 10/89/34 35/90/34
f 35/90/34 34/160/34 62/91/34
f 56/93/38 36/161/38 37/87/38
f 37/87/38 60/158/38 54/92/38
f 49/95/35 48/162/35 21/94/35
f 21/94/35 23/75/35 10/95/35
f 27/98/57 50/163/57 51/96/57
f 51/96/58 100/164/58 24/97/58
f 24/97/58 22/165/58 27/98/58
