# Blender 4.0.2
# www.blender.org
mtllib 立方体.001_cell.026.mtl
o 立方体.001_cell.026
v 15.092705 5.839350 -17.224251
v 15.143632 5.750230 -17.174837
v 15.078144 5.806376 -17.238379
v 15.187122 5.758941 -17.132639
v 15.146106 5.929027 -17.172436
v 15.310134 5.965511 -17.013283
vn -0.6964 -0.0000 0.7177
vt 0.589825 0.182183
vt 0.599790 0.190364
vt 0.599112 0.203921
vt 0.592231 0.190673
vt 0.590595 0.157645
vt 0.599555 0.201017
s 0
usemtl 金边
f 4/1/1 5/2/1 3/3/1
f 3/3/1 2/4/1 4/1/1
f 4/1/1 6/5/1 5/2/1
f 5/2/1 1/6/1 3/3/1
