# Blender 4.0.2
# www.blender.org
mtllib 立方体.001_cell.014.mtl
o 立方体.001_cell.014
v 14.989656 3.999871 -17.324238
v 14.979951 4.018431 -17.333656
v 15.033694 3.946595 -17.281509
v 14.984919 4.011738 -17.338778
v 15.055374 3.947143 -17.303852
v 15.001606 4.012160 -17.355974
vn -0.4612 -0.7550 -0.4660
vn -0.8444 -0.5155 -0.1456
vt 0.604749 0.712926
vt 0.603698 0.711188
vt 0.602189 0.727315
vt 0.605696 0.724271
vt 0.604788 0.710160
vt 0.600913 0.713673
s 0
usemtl 金边
f 1/1/1 4/2/1 5/3/1
f 5/3/1 3/4/1 1/1/1
f 1/1/2 2/5/2 4/2/2
f 4/2/1 6/6/1 5/3/1
