# Blender 4.0.2
# www.blender.org
mtllib 立方体.001_cell.039.mtl
o 立方体.001_cell.039
v 15.084459 3.725019 -17.707104
v 15.251924 3.975687 -17.544617
v 15.024664 3.653764 -17.379738
v 15.024664 4.012743 -17.379738
v 14.990314 3.602347 -17.413067
v 14.990314 4.054298 -17.413067
v 14.896420 4.191308 -17.461237
v 14.907774 4.169589 -17.450191
v 14.965310 4.082192 -17.394232
v 14.968767 4.053753 -17.390860
v 15.003078 4.012197 -17.357492
v 14.968771 4.075571 -17.390865
v 15.056775 3.947178 -17.305296
v 15.003032 3.623434 -17.357443
v 14.968697 3.572038 -17.390787
v 15.105636 4.152662 -17.686558
v 14.912334 4.171268 -17.482586
v 14.934914 4.148837 -17.511400
v 15.056753 3.703848 -17.305273
v 14.870278 3.424717 -17.486364
v 15.157293 3.852290 -17.251049
v 15.078407 3.734210 -17.327591
v 15.078407 3.947725 -17.327591
vn -0.4996 -0.5682 -0.6539
vn -0.8231 0.5673 -0.0269
vn -0.4612 -0.7550 -0.4660
vn -0.7177 -0.0000 -0.6964
vn -0.7990 -0.5458 -0.2523
vn 0.8427 -0.1276 -0.5231
vn -0.8444 -0.5155 -0.1456
vn -0.4275 -0.8445 0.3225
vn -0.7828 -0.6060 -0.1416
vn -0.5115 -0.8514 -0.1162
vn -0.8887 0.1654 -0.4277
vt 0.596168 0.708521
vt 0.602404 0.686410
vt 0.568500 0.750000
vt 0.594246 0.770366
vt 0.587085 0.793112
vt 0.601962 0.727512
vt 0.600667 0.713892
vt 0.597065 0.717107
vt 0.599814 0.705229
vt 0.599648 0.704663
vt 0.598462 0.730550
vt 0.600077 0.703425
vt 0.600682 0.750000
vt 0.592520 0.691399
vt 0.562304 0.717391
vt 0.601934 0.683475
vt 0.597993 0.686801
vt 0.593465 0.787141
vt 0.597532 0.773247
vt 0.547080 0.792726
vt 0.585361 0.821601
vt 0.590997 0.796029
vt 0.589875 0.784243
s 0
usemtl 石头
f 6/1/1 8/2/1 2/3/1
f 22/4/2 2/3/2 5/5/2
f 13/6/3 11/7/3 4/8/3
f 6/1/4 10/9/4 12/10/4
f 23/11/3 13/6/3 4/8/3
f 6/1/5 12/10/5 9/12/5
f 23/11/6 4/8/6 6/1/6
f 2/3/3 21/13/3 23/11/3
f 18/14/3 16/15/3 2/3/3
f 8/2/7 7/16/7 17/17/7
f 17/17/8 18/14/8 2/3/8
f 2/3/3 23/11/3 6/1/3
f 6/1/9 9/12/9 8/2/9
f 8/2/10 17/17/10 2/3/10
f 14/18/2 19/19/2 22/4/2
f 22/4/2 21/13/2 2/3/2
f 2/3/2 1/20/2 20/21/2
f 20/21/2 15/22/2 5/5/2
f 3/23/2 14/18/2 22/4/2
f 2/3/2 20/21/2 5/5/2
f 5/5/11 3/23/11 22/4/11
