# Blender 4.0.2
# www.blender.org
mtllib 立方体.001_cell.070.mtl
o 立方体.001_cell.070
v 15.057726 5.434793 -17.258190
v 15.039189 5.358504 -17.276175
v 15.033500 5.364644 -17.281696
v 15.022624 5.469383 -17.292250
v 15.024673 5.447568 -17.290262
v 15.029688 5.397832 -17.285395
v 15.030984 5.386176 -17.284138
v 15.046457 5.486646 -17.269123
v 15.066481 5.479362 -17.249697
v 15.040142 5.482117 -17.275251
v 15.046569 5.351404 -17.269016
vn -0.6964 -0.0000 0.7177
vt 0.586733 0.214587
vt 0.581837 0.211691
vt 0.587153 0.210242
vt 0.587352 0.211502
vt 0.587846 0.214996
vt 0.584184 0.213587
vt 0.583581 0.213328
vt 0.582460 0.212826
vt 0.581068 0.210220
vt 0.584131 0.207994
vt 0.585556 0.206248
s 0
usemtl 金边
f 5/1/1 2/2/1 8/3/1
f 10/4/1 4/5/1 5/1/1
f 5/1/1 6/6/1 7/7/1
f 7/7/1 3/8/1 2/2/1
f 2/2/1 11/9/1 1/10/1
f 1/10/1 9/11/1 8/3/1
f 8/3/1 10/4/1 5/1/1
f 5/1/1 7/7/1 2/2/1
f 2/2/1 1/10/1 8/3/1
