# Blender 4.0.2
# www.blender.org
mtllib 立方体.001_cell.007.mtl
o 立方体.001_cell.007
v 15.760204 1.218267 -16.620417
v 15.748656 1.211115 -16.608168
v 15.708668 1.183168 -16.546841
v 15.692143 1.262962 -16.562874
v 15.722870 1.262962 -16.600267
v 15.878197 1.262962 -16.382349
v 15.854774 1.262962 -16.528475
v 15.730259 1.262962 -16.606794
v 15.753509 1.262962 -16.626774
v 15.708668 1.183168 -16.546841
v 15.692143 1.262962 -16.562874
v 15.878197 1.262962 -16.382349
v 15.854774 1.262962 -16.528475
v 15.753509 1.262962 -16.626774
v 15.722870 1.262962 -16.600267
v 15.730259 1.262962 -16.606794
vn -0.7425 -0.2764 -0.6101
vn 0.3987 -0.9044 -0.1522
vn 0.4854 -0.8708 -0.0778
vn -0.6384 -0.2013 -0.7429
vn -0.6471 -0.2102 -0.7328
vn 0.6965 0.0023 -0.7175
vn -0.6964 -0.0000 0.7177
vn -0.0000 1.0000 -0.0000
vn 0.4853 -0.8711 -0.0757
vt 1.000000 0.000000
vt 0.283891 0.075645
vt 0.452242 0.000000
vt 0.132670 0.132670
vt 0.000000 0.000000
vt 0.158812 0.158812
vt 0.198745 0.000000
vt 0.510549 0.158395
vt 1.000000 0.510794
vt 0.610117 0.000000
vt 0.510794 0.510794
vt 1.000000 0.547758
vt 1.000000 0.801255
vt 1.000000 1.000000
vt 0.768099 0.768099
vt 0.393254 0.036381
vt 0.392441 0.073494
vt 0.389098 0.069832
vt 0.392431 0.073956
vt 0.392882 0.053355
vt 1.000000 0.132670
vt 0.392440 0.073559
vt 0.392429 0.074065
s 0
usemtl 石头
f 2/1/1 11/2/1 15/3/1
f 10/4/2 2/5/2 1/1/2
f 10/6/3 13/7/3 12/8/3
f 1/1/4 16/9/4 14/10/4
f 16/11/5 2/1/5 15/12/5
f 13/13/6 1/14/6 14/15/6
f 6/16/7 4/17/7 3/18/7
f 8/19/8 4/17/8 7/20/8
f 2/1/1 10/21/1 11/2/1
f 10/6/9 1/5/9 13/7/9
f 16/11/5 1/5/5 2/1/5
f 7/20/8 9/22/8 8/19/8
f 8/19/8 5/23/8 4/17/8
f 4/17/8 6/16/8 7/20/8
