# Blender 4.0.2
# www.blender.org
mtllib 立方体.001_cell.072.mtl
o 立方体.001_cell.072
v 15.309528 5.904627 -17.456676
v 15.161585 6.394541 -17.163794
v 15.185024 6.359423 -17.140770
v 15.216392 6.363306 -17.171471
v 15.207073 6.359628 -17.158512
v 15.122603 5.967205 -17.284710
v 15.066148 5.928222 -17.260969
v 14.980386 6.035657 -17.422388
v 15.021142 6.035507 -17.464451
v 15.063236 6.058109 -17.498951
v 15.325895 5.983322 -17.472845
v 15.321679 5.980104 -17.476936
v 15.066844 6.046854 -17.507093
v 15.059803 6.035519 -17.504290
v 15.343008 5.908644 -17.456242
v 15.116448 5.918727 -17.290682
v 15.105391 5.928226 -17.301411
v 15.133183 5.904526 -17.274445
v 15.068970 5.939783 -17.253662
v 14.974716 6.169981 -17.345078
v 15.066411 5.933916 -17.256208
v 14.978083 6.063429 -17.409098
v 15.023804 6.223324 -17.365355
v 15.025443 6.216423 -17.370966
v 15.023119 6.298626 -17.298117
v 15.059275 6.072284 -17.487745
v 15.506063 6.107980 -17.298031
v 15.372171 6.015478 -17.427944
v 15.061329 6.063429 -17.494894
v 15.353156 5.910883 -17.446394
v 15.160477 5.915785 -17.203028
v 15.325137 5.953081 -17.043560
v 15.182940 5.915796 -17.226166
v 15.563835 5.958562 -17.241976
v 15.371598 5.958566 -17.043114
v 15.347451 5.953092 -17.066544
v 15.158381 5.919359 -17.196609
v 15.151572 5.932664 -17.173738
v 15.315803 5.969072 -17.014885
v 15.097258 5.994414 -17.226168
v 15.320976 5.977755 -17.009871
v 15.267641 6.127487 -17.061224
v 15.233552 6.223187 -17.094046
v 15.081067 5.967205 -17.241901
v 14.989847 6.223324 -17.330359
v 15.013654 6.277286 -17.307217
v 15.509833 6.110224 -17.294373
v 15.512197 6.103940 -17.292080
v 15.288444 6.130263 -17.079357
v 15.363794 5.980537 -17.050686
v 15.310627 6.130218 -17.102274
v 15.276646 6.225885 -17.135244
v 15.254504 6.225930 -17.112371
v 15.240482 6.224144 -17.100048
v 15.340390 5.980435 -17.026688
v 15.279439 6.129116 -17.071444
v 15.325895 5.983322 -17.472845
v 15.321679 5.980104 -17.476936
v 15.343008 5.908644 -17.456242
v 15.116448 5.918727 -17.290682
v 15.105391 5.928226 -17.301411
v 14.974716 6.169981 -17.345078
v 14.978083 6.063429 -17.409098
v 15.068970 5.939783 -17.253662
v 15.066411 5.933916 -17.256208
v 14.980386 6.035657 -17.422388
v 15.023804 6.223324 -17.365355
v 15.025443 6.216423 -17.370966
v 15.023119 6.298626 -17.298117
v 15.059275 6.072284 -17.487745
v 15.506063 6.107980 -17.298031
v 15.372171 6.015478 -17.427944
v 15.063236 6.058109 -17.498951
v 15.061329 6.063429 -17.494894
v 15.353156 5.910883 -17.446394
v 15.160477 5.915785 -17.203028
v 15.182940 5.915796 -17.226166
v 15.563835 5.958562 -17.241976
v 15.371598 5.958566 -17.043114
v 15.347451 5.953092 -17.066544
v 15.158381 5.919359 -17.196609
v 15.151572 5.932664 -17.173738
v 15.315803 5.969072 -17.014885
v 15.320976 5.977755 -17.009871
v 15.081067 5.967205 -17.241901
v 14.989847 6.223324 -17.330359
v 15.288444 6.130263 -17.079357
v 15.310627 6.130218 -17.102274
v 15.276646 6.225885 -17.135244
v 15.512197 6.103940 -17.292080
v 15.254504 6.225930 -17.112371
v 15.240482 6.224144 -17.100048
v 15.267641 6.127487 -17.061224
v 15.363794 5.980537 -17.050686
v 15.097258 5.994414 -17.226168
v 15.233552 6.223187 -17.094046
v 15.279439 6.129116 -17.071444
v 15.021142 6.035507 -17.464451
v 15.325137 5.953081 -17.043560
v 15.059803 6.035519 -17.504290
v 15.013654 6.277286 -17.307217
v 15.066844 6.046854 -17.507093
v 15.340390 5.980435 -17.026688
v 15.509833 6.110224 -17.294373
v 15.066148 5.928222 -17.260969
v 15.133183 5.904526 -17.274445
vn -0.3793 -0.8504 -0.3645
vn 0.2502 0.6188 -0.7446
vn 0.0444 -0.2656 -0.9630
vn -0.3765 -0.8512 -0.3656
vn -0.3736 -0.8541 -0.3620
vn -0.7010 -0.0038 0.7131
vn -0.9142 -0.2296 0.3340
vn 0.2518 0.6458 -0.7207
vn 0.2548 0.6441 -0.7212
vn 0.2548 0.6425 -0.7227
vn 0.1171 -0.9877 0.1038
vn -0.2095 -0.8818 0.4226
vn -0.2302 -0.8694 0.4372
vn -0.6951 -0.0010 0.7189
vn -0.6966 -0.0003 0.7174
vn -0.6977 0.0040 0.7164
vn 0.4556 0.6804 0.5740
vn 0.4730 0.6976 0.5381
vn 0.2801 0.6623 -0.6949
vn 0.6515 0.4640 0.6002
vn 0.6444 0.4436 0.6229
vn 0.5602 0.4408 0.7013
vn 0.5526 0.4397 0.7081
vn 0.6964 -0.0000 -0.7177
vn -0.6113 0.5240 -0.5931
vn -0.6673 0.3680 -0.6475
vn -0.6922 0.2640 -0.6717
vn 0.5523 -0.6386 0.5359
vn 0.6113 -0.5240 0.5931
vn -0.6964 -0.0000 0.7177
vn 0.1155 -0.9870 0.1116
vn -0.5523 0.6386 -0.5359
vn 0.0444 -0.2657 -0.9630
vn -0.3764 -0.8513 -0.3656
vn -0.3766 -0.8512 -0.3655
vn -0.9145 -0.2339 0.3302
vn -0.9157 -0.2321 0.3282
vn -0.2101 -0.8814 0.4231
vn 0.6447 0.4426 0.6232
vn 0.6407 0.4436 0.6267
vn 0.6964 0.0001 -0.7177
vn -0.6677 0.3684 -0.6469
vn -0.6922 0.2641 -0.6717
vn -0.6922 0.2640 -0.6716
vn 0.5524 -0.6392 0.5351
vn 0.5523 -0.6385 0.5359
vn 0.6113 -0.5239 0.5931
vn 0.1156 -0.9870 0.1113
vn 0.1153 -0.9871 0.1114
vn 0.1154 -0.9871 0.1112
vn -0.6962 0.0002 0.7179
vt 0.035695 0.000000
vt 0.655979 0.000000
vt 0.811502 0.811502
vt 0.223821 0.000000
vt 1.000000 0.383074
vt 1.000000 0.886744
vt 0.837455 0.000000
vt 1.000000 0.832455
vt 0.886744 0.886744
vt 0.832455 0.832455
vt 0.809745 0.000000
vt 0.839545 0.064220
vt 0.809745 0.809745
vt 0.000000 0.000000
vt 0.886977 0.000000
vt 1.000000 0.963123
vt 0.071165 0.000000
vt 1.000000 0.235564
vt 1.000000 0.964305
vt 0.235564 0.235564
vt 0.847617 0.314625
vt 0.932352 0.538054
vt 1.000000 0.000000
vt 1.000000 0.595119
vt 1.000000 0.416427
vt 1.000000 0.832036
vt 1.000000 0.776179
vt 0.832036 0.832036
vt 0.416427 0.416427
vt 1.000000 0.162545
vt 0.884016 0.000000
vt 0.101485 0.101485
vt 1.000000 0.775942
vt 0.791469 0.791469
vt 0.031275 0.000000
vt 0.701746 0.000000
vt 0.775942 0.775942
vt 0.031275 0.031275
vt 0.403231 0.000000
vt 0.701746 0.701746
vt 1.000000 0.824031
vt 0.649466 0.000000
vt 0.918972 0.873658
vt 0.871567 0.108576
vt 1.000000 0.637476
vt 0.712121 0.712121
vt 1.000000 1.000000
vt 1.000000 0.342722
vt 0.625286 0.625286
vt 1.000000 0.637709
vt 0.637518 0.637518
vt 0.333472 0.065785
vt 1.000000 0.337475
vt 0.333362 0.333362
vt 1.000000 0.574538
vt 0.945107 0.945107
vt 0.571896 0.571896
vt 0.350534 0.000000
vt 0.337475 0.337475
vt 0.945446 0.945446
vt 0.596769 0.000000
vt 0.982029 0.000000
vt 0.601656 0.553598
vt 0.604868 0.557391
vt 0.599587 0.584851
vt 0.805579 0.527354
vt 0.836226 0.532344
vt 0.836188 0.534317
vt 0.802333 0.526902
vt 0.730775 0.516879
vt 0.836189 0.523860
vt 0.798861 0.514518
vt 0.722864 0.515470
vt 0.606091 0.203972
vt 0.606594 0.173244
vt 0.606590 0.173451
vt 0.605592 0.207405
vt 0.605664 0.206904
vt 0.590549 0.159121
vt 0.589276 0.154304
vt 0.590651 0.155860
vt 0.933358 0.791262
vt 0.362291 0.000000
vt 0.933799 0.101279
vt 0.590549 0.159122
vt 0.590651 0.155860
vt 0.590641 0.156191
vt 0.599765 0.191513
vt 0.600312 0.166790
vt 0.600319 0.166461
vt 0.602660 0.201861
vt 0.600319 0.166466
vt 0.674601 0.000000
vt 0.383074 0.383074
vt 1.000000 0.044166
vt 1.000000 0.811502
vt 1.000000 0.344021
vt 0.963123 0.963123
vt 0.362524 0.000000
vt 0.595119 0.595119
vt 0.657278 0.000000
vt 1.000000 0.325399
vt 0.938509 0.797413
vt 1.000000 0.034582
vt 0.017971 0.000000
vt 1.000000 0.226182
vt 1.000000 0.928835
vt 0.824031 0.824031
vt 0.712121 0.000000
vt 0.625286 0.000000
vt 1.000000 0.637518
vt 0.572007 0.065911
vt 0.571896 0.000000
vt 0.945107 0.000000
vt 0.945218 0.066107
vt 1.000000 0.066136
vt 0.333362 0.000000
vt 0.574538 0.574538
vt 0.599169 0.585322
vt 0.589741 0.595623
vt 0.602238 0.551574
vt 0.606765 0.547319
vt 0.606619 0.548160
vt 0.599746 0.584099
vt 0.836206 0.527354
vt 0.805579 0.527354
vt 0.734896 0.517459
vt 0.805858 0.516879
vt 0.727207 0.514506
vt 0.762074 0.514505
vt 0.805859 0.516879
vt 0.728112 0.516427
vt 0.606588 0.173565
vt 0.606144 0.200740
vt 0.606594 0.173239
vt 0.605591 0.207406
vt 0.605740 0.206387
vt 1.000000 0.113023
vt 0.884016 0.884016
vt 0.933864 0.000000
vt 1.000000 0.101485
vt 1.000000 0.791469
vt 0.590606 0.157293
vt 0.590651 0.155873
vt 0.600319 0.166466
vt 0.599756 0.191936
vt 0.599755 0.191937
vt 0.599800 0.189932
vt 0.600316 0.166597
vt 0.604421 0.205199
vt 0.599755 0.191936
s 0
usemtl 石头
f 105/1/1 66/2/1 98/3/1
f 73/4/2 58/5/2 102/6/2
f 59/7/3 100/8/3 102/9/3
f 100/10/4 60/11/4 61/12/4
f 60/13/5 1/14/5 106/15/5
f 65/16/6 64/17/6 62/18/6
f 105/19/7 62/20/7 63/21/7
f 67/22/8 2/23/8 68/24/8
f 2/14/9 72/25/9 70/26/9
f 73/27/10 70/28/10 72/29/10
f 59/30/11 75/31/11 1/23/11
f 99/32/12 81/33/12 76/34/12
f 83/35/13 82/36/13 81/37/13
f 83/38/14 93/39/14 82/40/14
f 3/23/14 95/41/14 96/42/14
f 85/43/15 3/14/15 86/44/15
f 3/14/16 69/45/16 101/46/16
f 2/47/17 3/14/17 5/23/17
f 2/47/18 5/14/18 4/23/18
f 4/14/19 71/48/19 2/47/19
f 5/23/20 104/49/20 4/14/20
f 34/50/21 90/51/21 89/52/21
f 5/14/22 92/53/22 91/54/22
f 97/55/22 103/56/22 87/57/22
f 3/14/23 96/58/23 92/59/23
f 103/60/23 93/61/23 84/62/23
f 30/63/24 28/64/24 47/65/24
f 23/66/25 46/67/25 25/68/25
f 24/69/26 29/70/26 20/71/26
f 8/72/27 29/70/27 13/73/27
f 44/74/28 52/75/28 54/76/28
f 17/77/29 44/74/29 21/78/29
f 80/79/30 35/80/30 50/81/30
f 77/82/31 34/83/31 36/84/31
f 32/85/28 50/86/28 41/87/28
f 37/88/32 42/89/32 49/90/32
f 17/77/30 18/91/30 51/92/30
f 73/4/2 57/93/2 58/5/2
f 102/9/33 58/94/33 59/7/33
f 59/7/3 1/23/3 100/8/3
f 105/95/34 98/96/34 100/10/34
f 100/10/4 1/14/4 60/11/4
f 61/12/35 105/95/35 100/10/35
f 63/21/36 66/97/36 105/19/36
f 105/19/37 65/98/37 62/20/37
f 67/22/8 69/99/8 2/23/8
f 70/26/9 68/100/9 2/14/9
f 2/14/9 71/101/9 72/25/9
f 72/29/10 57/102/10 73/27/10
f 73/27/10 74/103/10 70/28/10
f 99/32/38 83/104/38 81/33/38
f 83/38/14 84/105/14 93/39/14
f 86/44/15 62/106/15 64/107/15
f 85/43/15 95/108/15 3/14/15
f 86/44/15 64/107/15 85/43/15
f 3/14/15 101/109/15 86/44/15
f 3/14/16 2/23/16 69/45/16
f 4/14/19 104/110/19 71/48/19
f 5/23/20 90/111/20 104/49/20
f 88/112/39 87/113/39 103/114/39
f 94/115/21 79/116/21 34/50/21
f 88/112/40 103/114/40 94/115/40
f 5/14/21 91/117/21 89/52/21
f 88/112/21 94/115/21 34/50/21
f 90/51/21 5/14/21 89/52/21
f 89/52/21 88/112/21 34/50/21
f 5/14/22 3/23/22 92/53/22
f 103/60/23 97/118/23 93/61/23
f 48/119/24 78/120/24 30/63/24
f 30/63/24 15/121/24 12/122/24
f 12/122/41 11/123/41 28/64/41
f 28/64/24 27/124/24 47/65/24
f 47/65/24 48/119/24 30/63/24
f 30/63/24 12/122/24 28/64/24
f 23/66/25 45/125/25 46/67/25
f 45/125/26 23/126/26 24/69/26
f 24/69/42 26/127/42 29/70/42
f 29/70/26 22/128/26 20/71/26
f 20/71/26 45/125/26 24/69/26
f 14/129/43 9/130/43 8/72/43
f 8/72/27 22/131/27 29/70/27
f 29/70/44 10/132/44 13/73/44
f 13/73/27 14/129/27 8/72/27
f 43/133/45 40/134/45 44/74/45
f 44/74/28 6/74/28 52/75/28
f 52/75/46 53/135/46 54/76/46
f 54/76/46 43/133/46 44/74/46
f 21/78/29 7/136/29 17/77/29
f 17/77/29 6/74/29 44/74/29
f 44/74/47 19/137/47 21/78/47
f 77/82/48 106/138/48 1/47/48
f 1/47/49 75/139/49 34/83/49
f 34/83/31 79/140/31 36/84/31
f 36/84/31 99/141/31 76/142/31
f 77/82/50 1/47/50 34/83/50
f 36/84/31 76/142/31 77/82/31
f 41/87/46 39/143/46 32/85/46
f 32/85/46 80/79/46 50/86/46
f 50/86/28 55/144/28 41/87/28
f 49/90/32 51/145/32 33/146/32
f 33/146/32 31/147/32 37/88/32
f 37/88/32 38/148/32 42/89/32
f 42/89/32 56/149/32 49/90/32
f 49/90/32 33/146/32 37/88/32
f 52/75/30 6/74/30 17/77/30
f 17/77/51 16/150/51 18/91/51
f 18/91/30 33/151/30 51/92/30
f 51/92/30 52/75/30 17/77/30
