# Blender 4.0.2
# www.blender.org
mtllib 立方体.001_cell.092.mtl
o 立方体.001_cell.092
v 15.035505 5.487900 -17.325462
v 14.937365 5.402809 -17.381439
v 14.942806 5.369343 -17.448891
v 14.941085 5.372583 -17.441036
v 14.949841 5.590701 -17.407911
v 14.913568 5.439292 -17.404312
v 14.924747 5.404782 -17.393593
v 14.947228 5.587361 -17.404785
v 14.887682 5.523661 -17.462873
v 15.090876 5.407758 -17.700880
v 15.007687 5.478302 -17.396212
v 14.888462 5.524420 -17.473463
v 14.997967 5.641261 -17.567488
v 14.893385 5.512702 -17.480425
v 14.937840 5.407758 -17.543156
v 14.958192 5.358403 -17.566919
v 14.968500 5.499143 -17.350245
v 14.971322 5.510877 -17.350012
v 14.973810 5.521000 -17.349867
v 15.010039 5.654151 -17.576479
v 15.178456 5.573520 -17.615902
v 15.222005 5.521343 -17.573648
v 15.023308 5.641261 -17.593605
v 15.102374 5.550496 -17.689724
v 15.169876 5.401080 -17.624228
v 15.213682 5.448146 -17.581724
v 15.140268 5.369423 -17.652956
v 15.089486 5.358496 -17.702229
v 14.965702 5.476896 -17.353168
v 14.967006 5.487673 -17.351776
v 15.022356 5.492936 -17.328943
v 15.027266 5.497183 -17.332867
v 14.992091 5.536815 -17.364473
v 14.962277 5.429704 -17.357244
v 15.005069 5.475899 -17.315689
v 15.015687 5.538095 -17.388449
v 15.250050 5.487556 -17.546436
v 15.049459 5.497408 -17.355680
v 15.247067 5.484216 -17.549330
v 14.976623 5.429627 -17.372042
v 15.003763 5.429602 -17.400019
v 15.046576 5.475857 -17.358479
v 14.888462 5.524420 -17.473463
v 14.997967 5.641261 -17.567488
v 15.027266 5.497183 -17.332867
v 15.049459 5.497408 -17.355680
v 14.893385 5.512702 -17.480425
v 14.937840 5.407758 -17.543156
v 14.958192 5.358403 -17.566919
v 14.968500 5.499143 -17.350245
v 14.971322 5.510877 -17.350012
v 14.973810 5.521000 -17.349867
v 15.178456 5.573520 -17.615902
v 15.222005 5.521343 -17.573648
v 15.010039 5.654151 -17.576479
v 15.023308 5.641261 -17.593605
v 15.169876 5.401080 -17.624228
v 15.213682 5.448146 -17.581724
v 15.046576 5.475857 -17.358479
v 15.005069 5.475899 -17.315689
v 15.089486 5.358496 -17.702229
v 15.250050 5.487556 -17.546436
v 15.247067 5.484216 -17.549330
v 14.976623 5.429627 -17.372042
v 15.003763 5.429602 -17.400019
v 14.962277 5.429704 -17.357244
v 14.967006 5.487673 -17.351776
v 15.015687 5.538095 -17.388449
v 14.965702 5.476896 -17.353168
v 15.102374 5.550496 -17.689724
v 14.992091 5.536815 -17.364473
v 15.140268 5.369423 -17.652956
v 15.022356 5.492936 -17.328943
vn 0.2735 0.8015 -0.5318
vn -0.9365 -0.3381 -0.0932
vn -0.9353 -0.3423 -0.0902
vn -0.9357 -0.3421 -0.0864
vn -0.9465 -0.3198 -0.0423
vn -0.7812 0.1760 0.5989
vn -0.7798 0.1831 0.5986
vn -0.7569 0.6505 0.0626
vn 0.4690 0.7582 0.4529
vn 0.4387 -0.7919 0.4247
vn -0.6964 -0.0000 0.7177
vn 0.1099 -0.9883 0.1059
vn -0.9046 -0.4256 -0.0227
vn -0.4824 -0.7930 0.3721
vn -0.6944 -0.0089 0.7195
vn -0.6990 -0.0044 0.7151
vn 0.0191 0.6018 0.7984
vn 0.0469 0.6479 0.7602
vn -0.6896 -0.0125 0.7240
vn 0.0624 0.6556 0.7525
vn 0.4698 0.7565 0.4550
vn 0.4489 -0.7794 0.4371
vn 0.4395 -0.7903 0.4270
vn 0.4376 -0.7906 0.4283
vn 0.6964 -0.0000 -0.7177
vn 0.7132 -0.1115 0.6920
vn -0.7055 0.1833 -0.6846
vn -0.7132 0.1115 -0.6920
vn -0.7171 0.0393 -0.6958
vn 0.7055 -0.1833 0.6846
vn -0.7317 0.6817 -0.0051
vn 0.4376 -0.7934 0.4231
vn 0.3176 0.8594 -0.4008
vn 0.4569 0.7661 0.4521
vn 0.4533 0.7472 0.4860
vn 0.4478 -0.7806 0.4361
vn 0.4397 -0.7900 0.4273
vn 0.6963 0.0002 -0.7177
vn -0.7133 0.1117 -0.6919
vn 0.7078 -0.1740 0.6847
vn -0.7314 0.6819 -0.0045
vn -0.7314 0.6819 -0.0044
vn 0.4376 -0.7933 0.4232
vt 0.953837 0.918806
vt 0.513498 0.513498
vt 0.654838 0.381919
vt 1.000000 0.036259
vt 0.940031 0.000000
vt 1.000000 0.000000
vt 0.940031 0.940031
vt 0.706418 0.303009
vt 1.000000 1.000000
vt 0.000000 0.000000
vt 0.848709 0.000000
vt 0.076923 0.076923
vt 1.000000 0.513498
vt 0.671340 0.000000
vt 1.000000 0.573174
vt 0.341809 0.000000
vt 0.589886 0.227677
vt 0.590209 0.218562
vt 0.594157 0.225299
vt 0.384887 0.000000
vt 0.656317 0.656317
vt 0.737298 0.032373
vt 0.210784 0.210784
vt 1.000000 0.229827
vt 0.093336 0.000000
vt 0.229827 0.229827
vt 1.000000 0.855723
vt 0.491797 0.000000
vt 0.361751 0.000000
vt 0.692384 0.692384
vt 0.488501 0.000000
vt 1.000000 0.328660
vt 0.557553 0.488622
vt 0.161346 0.092831
vt 1.000000 0.690045
vt 0.670996 0.670996
vt 0.690045 0.690045
vt 0.541751 0.079256
vt 0.454503 0.454503
vt 0.638249 0.000000
vt 0.592575 0.527437
vt 0.590082 0.517038
vt 0.592794 0.501003
vt 0.591921 0.226895
vt 0.589890 0.227676
vt 0.589887 0.227677
vt 0.606771 0.399235
vt 0.607821 0.411216
vt 0.606771 0.422091
vt 0.601110 0.308957
vt 0.595458 0.500000
vt 0.593067 0.381582
vt 0.595458 0.361969
vt 0.592271 0.226645
vt 0.594109 0.225333
vt 0.984904 0.000000
vt 0.036259 0.036259
vt 0.590043 0.218681
vt 0.589408 0.219137
vt 0.573174 0.573174
vt 0.994157 0.994157
vt 0.615113 0.000000
vt 1.000000 0.076923
vt 0.144277 0.000000
vt 0.984904 0.984904
vt 0.589408 0.219137
vt 0.820055 0.436578
vt 1.000000 0.210784
vt 0.151291 0.000000
vt 0.092710 0.092710
vt 0.670996 0.000000
vt 0.488501 0.488501
vt 1.000000 0.658191
vt 0.012035 0.000000
vt 0.144275 0.120104
vt 0.454503 0.000000
vt 0.595104 0.501280
vt 0.601326 0.503573
vt 0.597733 0.518750
vt 0.589277 0.533031
vt 0.589306 0.532436
vt 0.589662 0.525776
vt 0.590334 0.511132
vt 0.591862 0.226917
vt 0.600542 0.314249
vt 0.606771 0.399235
vt 0.602373 0.500000
vt 0.593071 0.500000
vt 0.593518 0.225755
vt 0.593139 0.226025
vt 0.592700 0.226338
vt 0.896633 0.002476
vt 0.589494 0.219075
vt 0.590210 0.218561
vt 1.000000 0.656318
s 0
usemtl 石头
f 56/1/1 53/2/1 70/3/1
f 43/4/2 47/5/2 9/6/2
f 3/6/3 47/7/3 48/8/3
f 7/6/4 9/9/4 3/10/4
f 6/6/5 9/9/5 7/10/5
f 50/11/6 9/9/6 6/10/6
f 51/12/7 8/6/7 9/9/7
f 5/6/8 9/9/8 8/10/8
f 53/13/9 5/10/9 54/14/9
f 57/15/10 58/16/10 4/6/10
f 41/17/11 38/18/11 68/19/11
f 49/20/12 72/21/12 3/10/12
f 7/6/13 3/9/13 4/10/13
f 7/9/14 4/10/14 2/6/14
f 29/22/15 7/9/15 2/10/15
f 67/23/16 6/6/16 7/9/16
f 60/10/17 1/6/17 73/24/17
f 1/10/18 45/25/18 73/26/18
f 8/6/18 52/27/18 71/28/18
f 2/10/19 66/29/19 29/30/19
f 5/6/20 8/9/20 71/31/20
f 54/32/21 36/33/21 46/34/21
f 1/10/22 63/35/22 62/36/22
f 4/6/23 63/37/23 65/38/23
f 2/6/24 64/39/24 66/40/24
f 22/41/25 25/42/25 28/43/25
f 11/44/26 34/45/26 40/46/26
f 44/47/27 20/48/27 23/49/27
f 12/50/28 23/49/28 10/51/28
f 10/51/29 16/52/29 15/53/29
f 30/54/30 11/44/30 33/55/30
f 55/56/31 43/57/31 9/9/31
f 31/58/27 38/18/27 42/59/27
f 3/6/32 57/60/32 4/10/32
f 56/1/33 55/61/33 53/2/33
f 48/8/3 49/62/3 3/6/3
f 3/6/3 9/9/3 47/7/3
f 50/11/6 51/63/6 9/9/6
f 51/12/7 52/64/7 8/6/7
f 53/13/9 55/65/9 5/10/9
f 68/19/11 11/44/11 41/17/11
f 41/17/11 42/66/11 38/18/11
f 49/20/12 61/67/12 72/21/12
f 29/22/15 67/68/15 7/9/15
f 67/23/16 50/69/16 6/6/16
f 46/34/34 45/70/34 1/10/34
f 1/10/21 62/71/21 54/32/21
f 5/9/35 71/72/35 36/33/35
f 46/34/21 1/10/21 54/32/21
f 54/32/21 5/9/21 36/33/21
f 1/10/36 60/6/36 63/35/36
f 4/6/23 58/73/23 63/37/23
f 63/37/37 60/74/37 59/75/37
f 65/38/23 64/76/23 4/6/23
f 63/37/23 59/75/23 65/38/23
f 2/6/24 4/9/24 64/39/24
f 28/43/25 10/77/25 24/78/25
f 24/78/25 21/79/25 22/41/25
f 22/41/25 37/80/25 39/81/25
f 39/81/38 26/82/38 25/42/38
f 25/42/25 27/83/25 28/43/25
f 28/43/25 24/78/25 22/41/25
f 22/41/25 39/81/25 25/42/25
f 40/46/26 41/17/26 11/44/26
f 11/44/26 69/84/26 34/45/26
f 15/53/39 14/85/39 12/50/39
f 12/50/28 44/86/28 23/49/28
f 23/49/28 24/87/28 10/51/28
f 10/51/28 15/53/28 12/50/28
f 10/51/29 28/88/29 16/52/29
f 33/55/30 19/89/30 18/90/30
f 18/90/30 17/91/30 30/54/30
f 30/54/40 69/44/40 11/44/40
f 11/44/30 68/19/30 33/55/30
f 33/55/30 18/90/30 30/54/30
f 9/9/41 5/10/41 55/56/41
f 55/56/42 13/92/42 43/57/42
f 42/59/27 35/93/27 31/58/27
f 31/58/27 32/94/27 38/18/27
f 3/6/43 72/95/43 57/60/43
