# Blender 4.0.2
# www.blender.org
mtllib 立方体.001_cell.106.mtl
o 立方体.001_cell.106
v 14.979951 3.591070 -17.333652
v 15.033694 3.671516 -17.281506
v 14.979951 3.380867 -17.333652
v 15.001576 3.621391 -17.355940
v 15.055355 3.701887 -17.303831
v 15.001559 3.397633 -17.355923
v 15.055333 3.401717 -17.303806
v 15.001451 3.381798 -17.355810
v 15.055196 3.381762 -17.303665
v 14.990755 3.381154 -17.344788
v 15.046599 3.381244 -17.294806
v 15.033694 3.380901 -17.281506
v 15.001576 3.621391 -17.355940
v 15.055355 3.701887 -17.303831
v 15.001559 3.397633 -17.355923
v 15.001451 3.381798 -17.355810
v 14.990755 3.381154 -17.344788
v 14.979951 3.380867 -17.333652
v 15.046599 3.381244 -17.294806
v 15.033694 3.380901 -17.281506
v 15.055196 3.381762 -17.303665
v 15.055333 3.401717 -17.303806
vn -0.7177 -0.0000 -0.6964
vn 0.6960 -0.0001 -0.7181
vn 0.6963 -0.0099 -0.7177
vn 0.0289 -0.9991 -0.0304
vn 0.0132 -0.9998 -0.0130
vn 0.7177 -0.0000 0.6964
vn -0.7177 -0.0000 -0.6963
vn 0.0288 -0.9991 -0.0304
vt 0.492635 0.223508
vt 0.503922 0.223508
vt 0.492679 0.223508
vt 0.371856 0.371856
vt 0.380440 0.255485
vt 0.486374 0.318748
vt 1.000000 0.295073
vt 0.458153 0.000000
vt 0.570036 0.000000
vt 1.000000 0.448350
vt 0.429964 0.000000
vt 0.541847 0.000000
vt 0.442161 0.000000
vt 0.554509 0.028361
vt 0.444555 0.023745
vt 0.505652 0.212788
vt 0.490798 0.212788
vt 0.490838 0.212788
vt 0.492649 0.223508
vt 0.502499 0.223508
vt 0.493422 0.223508
vt 0.295073 0.295073
vt 1.000000 0.371856
vt 1.000000 0.557839
vt 0.551650 0.000000
vt 0.491761 0.212788
vt 0.504247 0.212788
vt 0.490814 0.212788
s 0
usemtl 石头
f 18/1/1 13/2/1 16/3/1
f 22/4/2 4/5/2 5/6/2
f 6/7/3 21/8/3 8/9/3
f 19/10/4 8/11/4 21/12/4
f 10/13/5 20/14/5 3/15/5
f 14/16/6 12/17/6 9/18/6
f 16/3/7 17/19/7 18/1/7
f 18/1/1 1/20/1 13/2/1
f 13/2/1 15/21/1 16/3/1
f 22/4/2 6/22/2 4/5/2
f 6/7/3 22/23/3 21/8/3
f 19/10/8 10/24/8 8/11/8
f 10/13/5 19/25/5 20/14/5
f 9/18/6 7/26/6 14/16/6
f 14/16/6 2/27/6 12/17/6
f 12/17/6 11/28/6 9/18/6
