# Blender 4.0.2
# www.blender.org
mtllib 立方体.001_cell.066.mtl
o 立方体.001_cell.066
v 15.033694 5.135857 -17.281509
v 14.989656 3.999871 -17.324238
v 14.979951 4.018431 -17.333656
v 15.033694 3.946595 -17.281509
v 14.986074 5.190321 -17.327715
v 14.979951 5.140418 -17.333656
v 15.035153 5.187576 -17.280094
vn -0.6964 -0.0000 0.7177
vt 0.522554 0.223508
vt 0.572013 0.212788
vt 0.577187 0.222287
vt 0.575205 0.223508
vt 0.521279 0.221572
vt 0.516977 0.212788
vt 0.574297 0.212497
s 0
usemtl 金边
f 3/1/1 1/2/1 5/3/1
f 5/3/1 6/4/1 3/1/1
f 3/1/1 2/5/1 4/6/1
f 1/2/1 7/7/1 5/3/1
f 3/1/1 4/6/1 1/2/1
