# Blender 4.0.2
# www.blender.org
mtllib 立方体.001_cell.143.mtl
o 立方体.001_cell.143
v 15.744142 1.412579 -16.637939
v 15.717995 1.515086 -16.663904
v 15.958604 1.625647 -16.473555
v 16.337761 2.359095 -16.491051
v 16.337761 2.796992 -16.491051
v 16.146935 2.607491 -16.676207
v 16.248806 2.426952 -16.577362
v 16.214680 2.508514 -16.610474
v 16.129522 2.225190 -16.276432
v 16.154806 3.157398 -16.302490
v 16.224030 3.053228 -16.373835
v 16.012348 2.484323 -16.421408
v 16.012348 3.095878 -16.421408
v 16.046698 2.402228 -16.388079
v 16.046698 3.115545 -16.388079
v 16.033607 3.135242 -16.374588
v 15.901642 2.988006 -16.528824
v 15.888745 2.770203 -16.541338
v 15.863248 2.721063 -16.566076
v 15.958604 2.581747 -16.473555
v 15.958604 3.045107 -16.473555
v 15.990627 2.478974 -16.399023
v 16.024992 1.544592 -16.365707
v 15.990624 1.528438 -16.399019
v 15.936855 1.625647 -16.451139
v 16.123501 2.223466 -16.270226
v 16.024994 2.396883 -16.365711
v 16.123499 1.590895 -16.270224
v 15.936995 3.379575 -16.451283
v 15.958604 3.379598 -16.473555
v 15.990734 3.379644 -16.399132
v 16.025082 3.379689 -16.365801
v 16.012348 3.379667 -16.421408
v 16.046698 3.379712 -16.388079
v 16.123533 3.379815 -16.270260
v 16.123524 3.294261 -16.270250
v 16.025055 3.172658 -16.365774
v 16.025059 3.198228 -16.365778
v 15.945048 3.102310 -16.443398
v 15.741271 1.625647 -16.640778
v 15.936894 2.579550 -16.451180
v 15.936958 3.094201 -16.451246
v 15.989334 3.128544 -16.400429
v 15.908835 1.604431 -16.907230
v 15.927537 1.531937 -16.889084
v 15.958427 1.412657 -16.859112
v 16.012348 1.528454 -16.421408
v 16.046698 1.544607 -16.388079
v 16.271343 1.591001 -16.422596
v 16.285633 1.566533 -16.541630
v 15.717974 1.625647 -16.663919
v 16.337761 1.591187 -16.491051
v 15.736908 3.379298 -16.688662
v 15.908690 3.379340 -16.907370
v 16.337761 3.380023 -16.491051
v 15.737178 1.625647 -16.688400
v 15.936995 3.379575 -16.451283
v 15.958604 3.379598 -16.473555
v 15.936894 2.579550 -16.451180
v 15.936855 1.625647 -16.451139
v 16.123501 2.223466 -16.270226
v 16.113235 2.239860 -16.280176
v 16.086773 2.249310 -16.305828
v 16.024994 2.396883 -16.365711
v 15.990734 3.379644 -16.399132
v 16.012348 3.379667 -16.421408
v 16.046698 3.379712 -16.388079
v 15.989334 3.128544 -16.400429
v 16.123533 3.379815 -16.270260
v 16.123524 3.294261 -16.270250
v 16.043077 3.222854 -16.348297
v 16.114216 3.282766 -16.279280
v 16.025082 3.379689 -16.365801
v 16.025059 3.198228 -16.365778
v 15.927537 1.531937 -16.889084
v 15.958427 1.412657 -16.859112
v 15.949717 2.560811 -16.438732
v 15.936958 3.094201 -16.451246
v 15.908835 1.604431 -16.907230
v 15.990624 1.528438 -16.399019
v 16.012348 1.528454 -16.421408
v 16.024992 1.544592 -16.365707
v 16.046698 1.544607 -16.388079
v 16.123499 1.590895 -16.270224
v 16.271343 1.591001 -16.422596
v 16.285633 1.566533 -16.541630
v 16.337761 1.591187 -16.491051
v 15.736908 3.379298 -16.688662
v 15.908690 3.379340 -16.907370
v 16.337761 3.380023 -16.491051
v 15.965480 3.130197 -16.423578
v 15.717974 1.625647 -16.663919
v 15.737178 1.625647 -16.688400
v 15.741271 1.625647 -16.640778
v 15.990627 2.478974 -16.399023
v 15.977349 2.510705 -16.411903
vn -0.0011 1.0000 -0.0002
vn -0.6960 -0.0000 0.7180
vn -0.6964 0.0002 0.7176
vn -0.7868 -0.0001 -0.6172
vn -0.6762 -0.3383 -0.6545
vn -0.6755 -0.3394 -0.6546
vn 0.2298 -0.9475 0.2223
vn -0.7047 -0.0000 0.7095
vn 0.2320 -0.9469 0.2225
vn 0.6964 -0.0000 -0.7177
vn 0.7177 -0.0000 0.6964
vn -0.6964 -0.0000 0.7177
vn -0.7177 -0.0000 -0.6964
vn 0.7177 -0.0076 0.6963
vn -0.0000 1.0000 -0.0000
vn -0.0010 1.0000 -0.0006
vn -0.0012 1.0000 -0.0001
vn -0.0011 1.0000 -0.0000
vn -0.6961 0.0002 0.7179
vn -0.6963 -0.0000 0.7178
vn -0.6965 0.0001 0.7175
vn -0.7868 -0.0002 -0.6172
vn -0.7864 -0.0002 -0.6177
vn 0.2298 -0.9475 0.2224
vn 0.6737 -0.0000 0.7390
vn -0.0003 1.0000 -0.0000
vt 0.896394 0.370446
vt 0.896376 0.486556
vt 0.959519 0.884562
vt 0.566908 0.000000
vt 0.765731 0.365157
vt 0.691593 0.390041
vt 0.664340 0.664340
vt 0.778419 0.698664
vt 0.918075 0.874575
vt 0.388998 0.070705
vt 0.497537 0.000000
vt 0.977707 0.535901
vt 0.708356 0.000000
vt 0.970656 0.054485
vt 0.708349 0.708349
vt 0.590118 0.590118
vt 0.610706 0.465606
vt 0.655101 0.528285
vt 0.000000 0.000000
vt 1.000000 0.708068
vt 1.000000 1.000000
vt 0.708069 0.708069
vt 1.000000 0.660546
vt 0.965614 0.468044
vt 0.660546 0.660546
vt 0.765973 0.000000
vt 1.000000 0.000000
vt 0.891663 0.891663
vt 0.940693 0.000000
vt 0.706432 0.326096
vt 0.765973 0.765973
vt 0.660797 0.660797
vt 0.455115 0.711935
vt 0.408812 0.739602
vt 0.483019 0.664412
vt 0.441260 0.937822
vt 0.410529 0.943254
vt 0.410534 0.809906
vt 0.481379 0.852580
vt 0.497213 0.750000
vt 0.493058 0.943232
vt 0.447535 0.019640
vt 0.405708 0.026492
vt 0.406949 0.019640
vt 0.481292 0.019640
vt 0.492579 0.026492
vt 0.479262 0.026492
vt 0.482224 0.019640
vt 0.483995 0.019640
vt 0.493793 0.019640
vt 0.485205 0.019640
vt 0.493792 0.019640
vt 0.447282 0.019640
vt 0.406949 0.019640
vt 0.457850 0.056233
vt 0.470959 0.048575
vt 0.483552 0.081435
vt 0.409570 0.037212
vt 0.453714 0.037212
vt 0.453815 0.037212
vt 0.477530 0.037212
vt 0.490738 0.037212
vt 0.475258 0.037212
vt 0.450313 0.026492
vt 0.405707 0.026492
vt 0.480746 0.026492
vt 0.492579 0.026492
vt 0.492578 0.026492
vt 0.407728 0.081381
vt 0.407747 0.080913
vt 0.708350 0.000000
vt 0.970598 0.000000
vt 1.000000 0.473990
vt 1.000000 0.590118
vt 1.000000 0.664340
vt 1.000000 0.877088
vt 0.896365 0.560767
vt 0.566884 0.491991
vt 0.765748 0.000000
vt 0.745009 0.377405
vt 0.877088 0.877088
vt 0.751273 0.659009
vt 0.903466 0.854127
vt 0.891663 0.000000
vt 0.625487 0.167724
vt 0.893960 0.477648
vt 0.857262 0.450486
vt 1.000000 0.059307
vt 0.970598 0.970598
vt 0.709604 0.582791
vt 0.473990 0.473990
vt 0.626677 0.486060
vt 0.291644 0.000000
vt 1.000000 0.234252
vt 1.000000 0.433092
vt 0.965641 0.398700
vt 0.660797 0.000000
vt 1.000000 0.502463
vt 0.497213 0.750000
vt 0.468965 0.750000
vt 0.452005 0.725448
vt 0.448909 0.732256
vt 0.404090 0.668171
vt 0.407030 0.664441
vt 0.399170 0.674333
vt 0.447748 0.750000
vt 0.410543 0.750000
vt 0.441177 0.943252
vt 0.486426 0.915016
vt 0.497203 0.943222
vt 0.450564 0.026492
vt 0.460695 0.051147
vt 0.407728 0.081381
vt 0.490737 0.037212
vt 0.479262 0.026492
vt 0.407943 0.076213
s 0
usemtl 石头
f 58/1/1 66/2/1 90/3/1
f 82/4/2 26/5/2 63/6/2
f 73/7/3 71/8/3 36/9/3
f 60/10/2 80/11/2 96/12/2
f 79/13/4 93/14/4 89/15/4
f 65/16/3 78/17/3 91/18/3
f 2/19/5 75/20/5 1/21/5
f 1/21/6 75/22/6 76/23/6
f 81/24/7 76/25/7 85/26/7
f 2/27/8 94/28/8 92/29/8
f 87/30/9 85/31/9 86/32/9
f 6/33/10 50/34/10 54/35/10
f 9/36/11 28/37/11 49/38/11
f 11/39/11 55/40/11 70/41/11
f 14/42/12 47/43/12 48/44/12
f 15/45/12 33/46/12 13/47/12
f 16/48/13 37/49/13 15/45/13
f 34/50/13 38/51/13 32/52/13
f 27/53/13 48/44/13 23/54/13
f 19/55/12 17/56/12 53/57/12
f 3/58/13 41/59/13 20/60/13
f 42/61/13 30/62/13 21/63/13
f 47/43/11 95/64/11 24/65/11
f 68/66/14 33/67/14 31/68/14
f 25/58/15 56/69/15 51/70/15
f 90/3/16 89/71/16 88/72/16
f 58/1/17 57/73/17 65/74/17
f 90/3/1 88/72/1 58/1/1
f 73/75/1 69/76/1 90/3/1
f 67/77/18 73/75/18 90/3/18
f 58/1/17 65/74/17 66/2/17
f 66/2/1 67/77/1 90/3/1
f 63/6/2 64/78/2 82/4/2
f 82/4/2 84/79/2 26/5/2
f 26/5/2 62/80/2 63/6/2
f 36/9/3 69/81/3 73/7/3
f 73/7/3 74/82/3 71/8/3
f 71/8/3 72/83/3 36/9/3
f 60/10/19 94/84/19 1/19/19
f 80/11/20 22/85/20 96/12/20
f 96/12/3 77/86/3 59/87/3
f 60/10/2 1/19/2 80/11/2
f 96/12/21 59/87/21 60/10/21
f 79/13/22 2/27/22 92/88/22
f 93/14/23 88/89/23 89/15/23
f 79/13/22 92/88/22 93/14/22
f 91/18/3 43/90/3 65/16/3
f 65/16/3 57/91/3 78/17/3
f 78/17/3 39/92/3 91/18/3
f 2/19/5 79/93/5 75/20/5
f 85/26/24 84/94/24 82/95/24
f 85/26/24 82/95/24 83/96/24
f 76/25/7 86/97/7 85/26/7
f 80/98/7 1/21/7 76/25/7
f 85/26/7 83/96/7 81/24/7
f 81/24/7 80/98/7 76/25/7
f 2/27/8 1/21/8 94/28/8
f 54/35/10 55/99/10 5/100/10
f 6/33/10 8/101/10 7/102/10
f 54/35/10 5/100/10 6/33/10
f 45/103/10 44/104/10 54/35/10
f 50/34/10 46/105/10 45/103/10
f 4/106/10 52/107/10 50/34/10
f 7/102/10 4/106/10 50/34/10
f 50/34/10 45/103/10 54/35/10
f 6/33/10 7/102/10 50/34/10
f 49/38/11 52/107/11 4/106/11
f 9/36/11 61/108/11 28/37/11
f 49/38/11 4/106/11 9/36/11
f 70/41/11 10/109/11 11/39/11
f 11/39/11 5/100/11 55/40/11
f 55/40/11 35/110/11 70/41/11
f 14/42/12 12/111/12 47/43/12
f 15/45/12 34/50/12 33/46/12
f 34/50/13 15/45/13 38/51/13
f 27/53/13 14/42/13 48/44/13
f 19/55/12 18/112/12 17/56/12
f 17/56/12 21/63/12 30/62/12
f 53/57/12 56/113/12 3/58/12
f 3/58/12 20/60/12 19/55/12
f 17/56/12 30/62/12 53/57/12
f 53/57/12 3/58/12 19/55/12
f 3/58/13 25/58/13 41/59/13
f 42/61/13 29/114/13 30/62/13
f 47/43/11 12/111/11 95/64/11
f 68/66/25 13/115/25 33/67/25
f 51/70/26 40/116/26 25/58/26
f 25/58/15 3/58/15 56/69/15
