# Blender 4.0.2
# www.blender.org
mtllib 立方体.001_cell.172.mtl
o 立方体.001_cell.172
v 15.473790 6.240337 -16.854490
v 15.318756 5.979992 -17.004917
v 15.631821 5.974962 -16.701157
v 15.495593 6.240337 -16.876961
v 15.579100 6.100147 -16.795984
v 15.352760 6.000766 -17.015211
v 15.341614 5.982186 -17.025860
v 15.295040 6.142807 -17.071207
v 15.423722 6.358647 -16.946651
v 15.288319 6.131605 -17.077627
v 15.276215 6.130135 -17.066904
v 15.265650 6.129775 -17.056446
v 15.402173 6.359035 -16.923979
v 15.413098 6.359047 -16.935225
v 15.545483 6.358909 -16.784927
v 15.561937 6.358926 -16.801907
v 15.677858 6.136614 -16.656487
v 15.701110 6.134027 -16.677366
v 15.655044 5.972377 -16.722012
v 15.678949 6.171496 -16.699173
v 15.647733 5.984738 -16.729204
v 15.644582 6.229286 -16.732613
v 15.567478 6.358727 -16.807379
v 15.579100 6.100147 -16.795984
v 15.495593 6.240337 -16.876961
v 15.352760 6.000766 -17.015211
v 15.341614 5.982186 -17.025860
v 15.423722 6.358647 -16.946651
v 15.295040 6.142807 -17.071207
v 15.288319 6.131605 -17.077627
v 15.276215 6.130135 -17.066904
v 15.265650 6.129775 -17.056446
v 15.318756 5.979992 -17.004917
v 15.413098 6.359047 -16.935225
v 15.402173 6.359035 -16.923979
v 15.545483 6.358909 -16.784927
v 15.561937 6.358926 -16.801907
v 15.631821 5.974962 -16.701157
v 15.677858 6.136614 -16.656487
v 15.701110 6.134027 -16.677366
v 15.678949 6.171496 -16.699173
v 15.644582 6.229286 -16.732613
v 15.567478 6.358727 -16.807379
v 15.655044 5.972377 -16.722012
v 15.647733 5.984738 -16.729204
vn 0.5523 -0.6386 0.5359
vn -0.5523 -0.6386 -0.5359
vn 0.6958 -0.0004 -0.7182
vn 0.6930 -0.0026 -0.7209
vn -0.5523 0.6386 -0.5359
vn -0.5811 -0.4458 -0.6809
vn -0.6232 -0.4427 -0.6447
vn -0.0001 1.0000 0.0010
vn 0.5523 0.6386 0.5359
vn 0.5985 -0.3672 0.7120
vn 0.6996 -0.0020 -0.7145
vn 0.6965 -0.0010 -0.7176
vn 0.0175 0.9997 -0.0187
vn 0.5523 -0.6385 0.5360
vn -0.5525 -0.6387 -0.5356
vn -0.5520 0.6386 -0.5361
vn -0.5523 0.6385 -0.5359
vn -0.5639 -0.4427 -0.6972
vn 0.5523 0.6383 0.5362
vn 0.5524 0.6385 0.5359
vn 0.0176 0.9997 -0.0187
vt 0.591619 0.125000
vt 0.590648 0.155954
vt 0.590657 0.155665
vt 0.590621 0.093170
vt 0.591619 0.125000
vt 0.591097 0.108347
vt 1.000000 0.716075
vt 0.785016 0.477514
vt 0.608055 0.000000
vt 0.431869 0.000000
vt 1.000000 0.650025
vt 0.057777 0.000000
vt 0.600322 0.166301
vt 0.600318 0.166519
vt 0.600920 0.139284
vt 0.589609 0.589609
vt 0.942223 0.000000
vt 0.977843 0.977843
vt 1.000000 0.022028
vt 1.000000 0.408006
vt 0.589609 0.000000
vt 0.959282 0.279993
vt 1.000000 0.567370
vt 0.972999 0.565277
vt 0.600919 0.110678
vt 0.600919 0.110699
vt 0.600329 0.083987
vt 0.740734 0.000000
vt 0.250760 0.039571
vt 0.244365 0.000000
vt 0.197296 0.000000
vt 0.740734 0.740734
vt 0.244365 0.244365
vt 1.000000 0.530275
vt 0.598055 0.598055
vt 0.197296 0.197296
vt 0.283190 0.283190
vt 0.569790 0.000000
vt 0.567370 0.567370
vt 0.590726 0.153458
vt 0.590667 0.094639
vt 0.590630 0.093477
vt 1.000000 0.430210
vt 0.764791 0.764791
vt 0.530275 0.530275
vt 0.349975 0.000000
vt 1.000000 0.391945
vt 0.600919 0.139332
vt 0.600352 0.164970
vt 0.600318 0.166476
vt 0.600920 0.139286
vt 0.568131 0.000000
vt 1.000000 0.283190
vt 0.600427 0.088437
vt 0.600579 0.095302
vt 0.600919 0.110701
vt 0.600336 0.084294
vt 0.747138 0.039620
vt 0.598055 0.000000
vt 1.000000 0.764791
vt 0.283925 0.000000
s 0
usemtl 石头
f 25/1/1 33/2/1 27/3/1
f 19/4/2 1/5/2 24/6/2
f 43/7/3 4/8/3 29/9/3
f 30/10/4 6/11/4 7/12/4
f 10/13/5 32/14/5 34/15/5
f 11/16/6 7/17/6 2/18/6
f 2/19/7 12/20/7 11/21/7
f 15/22/8 14/23/8 13/24/8
f 23/25/9 36/26/9 40/27/9
f 18/28/10 3/29/10 44/30/10
f 45/31/11 18/32/11 44/33/11
f 5/34/12 20/35/12 45/36/12
f 37/37/13 28/38/13 14/39/13
f 27/3/14 26/40/14 25/1/14
f 25/1/1 1/1/1 33/2/1
f 24/6/15 21/41/15 19/4/15
f 19/4/2 38/42/2 1/5/2
f 1/5/2 25/5/2 24/6/2
f 29/9/3 28/43/3 43/7/3
f 43/7/3 22/44/3 5/45/3
f 4/8/3 6/46/3 29/9/3
f 43/7/3 5/45/3 4/8/3
f 30/10/4 29/47/4 6/11/4
f 9/48/16 8/49/16 10/13/16
f 10/13/5 31/50/5 32/14/5
f 32/14/5 35/51/5 34/15/5
f 34/15/17 9/48/17 10/13/17
f 11/16/18 30/52/18 7/17/18
f 15/22/8 37/53/8 14/23/8
f 41/54/19 42/55/19 23/25/19
f 23/25/20 16/56/20 36/26/20
f 36/26/9 39/57/9 40/27/9
f 40/27/9 41/54/9 23/25/9
f 18/28/10 17/58/10 3/29/10
f 45/31/11 20/59/11 18/32/11
f 5/34/12 22/60/12 20/35/12
f 37/37/21 43/61/21 28/38/21
