# Blender 4.0.2
# www.blender.org
mtllib 立方体.001_cell.021.mtl
o 立方体.001_cell.021
v 15.242165 5.828762 -17.463762
v 14.988338 5.780860 -17.499966
v 15.310609 5.903758 -17.458378
v 15.020893 5.722327 -17.512531
v 15.254423 5.666701 -17.505684
v 15.109685 5.641262 -17.682629
v 15.139607 5.864899 -17.653597
v 15.285183 5.657266 -17.512348
v 15.290261 5.664078 -17.507420
v 15.276589 5.645792 -17.520685
v 15.078696 6.046504 -17.519444
v 15.175259 6.046402 -17.619003
v 15.268436 6.003942 -17.528595
v 15.011599 5.660452 -17.576401
v 15.272056 5.642585 -17.525084
v 15.298486 5.675158 -17.499439
v 15.333083 5.789756 -17.465870
v 15.014241 5.655738 -17.580387
v 15.179195 5.577041 -17.615185
v 15.025840 5.641262 -17.596216
v 15.102586 5.553138 -17.689518
v 15.068507 6.046430 -17.508972
v 15.319298 5.980287 -17.479246
v 15.008204 5.673024 -17.569538
v 14.975385 5.795232 -17.502995
v 14.994171 5.861609 -17.504587
v 15.054169 6.016716 -17.505873
v 15.061168 6.034659 -17.506035
v 15.341202 5.907356 -17.457993
v 15.339083 5.876408 -17.460049
v 15.078696 6.046504 -17.519444
v 15.175259 6.046402 -17.619003
v 15.268436 6.003942 -17.528595
v 14.975385 5.795232 -17.502995
v 15.008204 5.673024 -17.569538
v 15.054169 6.016716 -17.505873
v 14.994171 5.861609 -17.504587
v 15.179195 5.577041 -17.615185
v 15.102586 5.553138 -17.689518
v 15.272056 5.642585 -17.525084
v 15.068507 6.046430 -17.508972
v 15.014241 5.655738 -17.580387
v 15.011599 5.660452 -17.576401
v 15.061168 6.034659 -17.506035
v 15.025840 5.641262 -17.596216
v 15.333083 5.789756 -17.465870
v 15.339083 5.876408 -17.460049
v 15.285183 5.657266 -17.512348
v 15.290261 5.664078 -17.507420
v 15.276589 5.645792 -17.520685
v 15.319298 5.980287 -17.479246
v 15.341202 5.907356 -17.457993
v 15.298486 5.675158 -17.499439
vn -0.0035 -0.5844 0.8114
vn -0.0041 -0.5858 0.8104
vn 0.2236 0.9505 0.2159
vn -0.0033 -0.5828 0.8126
vn -0.1853 -0.6922 0.6975
vn -0.1845 -0.6945 0.6954
vn -0.0890 -0.2561 0.9625
vn -0.0874 -0.2557 0.9628
vn -0.2692 -0.8008 0.5350
vn 0.2236 0.9485 0.2242
vn -0.6701 -0.4856 0.5614
vn -0.1555 0.0676 0.9855
vn -0.1534 0.0675 0.9859
vn -0.1525 0.0684 0.9859
vn -0.0436 0.2674 0.9626
vn -0.0055 -0.0666 0.9978
vn -0.6599 -0.4894 0.5702
vn 0.6964 -0.0000 -0.7177
vn -0.6924 0.2625 -0.6720
vn -0.7055 0.1833 -0.6846
vn -0.7132 0.1115 -0.6920
vn -0.0048 -0.0660 0.9978
vn -0.1833 -0.6926 0.6976
vn -0.1846 -0.6945 0.6955
vn -0.6949 0.0001 0.7191
vn -0.0891 -0.2557 0.9626
vn -0.2692 -0.8008 0.5351
vn -0.6599 -0.4894 0.5701
vn 0.6960 0.0002 -0.7180
vn -0.6922 0.2639 -0.6717
vn -0.6932 0.2640 -0.6707
vn -0.2159 0.0755 -0.9735
vn -0.6922 0.2640 -0.6717
vn -0.7052 0.1834 -0.6848
vt 1.000000 0.000000
vt 1.000000 0.030711
vt 0.959800 0.000000
vt 0.000000 0.000000
vt 0.228529 0.000000
vt 0.030711 0.030711
vt 0.612787 0.382748
vt 0.060836 0.000000
vt 0.225657 0.000000
vt 1.000000 0.040200
vt 1.000000 0.825513
vt 1.000000 0.009193
vt 1.000000 1.000000
vt 0.469984 0.000000
vt 1.000000 0.771471
vt 0.825513 0.825513
vt 0.656629 0.000000
vt 0.480375 0.480375
vt 0.127357 0.058451
vt 0.838298 0.371997
vt 0.225657 0.225657
vt 0.117659 0.000000
vt 0.610721 0.000000
vt 0.127754 0.000000
vt 1.000000 0.053443
vt 1.000000 0.287004
vt 0.913002 0.000000
vt 0.287004 0.287004
vt 1.000000 0.805110
vt 0.805110 0.805110
vt 0.148010 0.000000
vt 1.000000 0.882341
vt 0.826106 0.826106
vt 0.854978 0.000000
vt 0.127754 0.127754
vt 0.049505 0.000000
vt 0.606934 0.546844
vt 0.594815 0.542693
vt 0.595028 0.537420
vt 0.625000 0.515431
vt 0.755335 0.500000
vt 0.725823 0.514433
vt 0.619321 0.360288
vt 0.625000 0.500000
vt 0.606771 0.424376
vt 0.602502 0.500000
vt 0.606771 0.424376
vt 0.606771 0.500000
vt 0.148010 0.148010
vt 1.000000 0.145022
vt 0.950494 0.000000
vt 0.008744 0.000000
vt 0.859732 0.859732
vt 0.009063 0.009063
vt 0.060837 0.060837
vt 1.000000 0.826106
vt 1.000000 0.389279
vt 0.656629 0.656629
vt 0.597893 0.518656
vt 0.601442 0.503616
vt 0.605283 0.505032
vt 0.613941 0.511001
vt 0.619564 0.518112
vt 0.611405 0.536699
vt 0.602303 0.551213
vt 0.601097 0.550791
vt 0.597687 0.549594
vt 0.594841 0.541052
vt 0.594858 0.540039
vt 0.594885 0.538325
vt 0.721289 0.515434
vt 0.712113 0.515440
vt 0.728958 0.512907
vt 0.608080 0.411174
vt 0.608335 0.409215
vt 0.609360 0.404637
vt 0.625000 0.369665
s 0
usemtl 石头
f 5/1/1 48/2/1 49/3/1
f 5/4/2 50/5/2 48/6/2
f 32/7/3 31/8/3 33/9/3
f 49/10/4 53/11/4 5/1/4
f 4/4/5 42/12/5 5/13/5
f 38/14/6 50/15/6 5/13/6
f 4/1/7 1/4/7 2/4/7
f 1/1/8 53/16/8 46/17/8
f 38/18/9 45/19/9 39/20/9
f 33/21/10 41/22/10 51/23/10
f 35/24/11 2/1/11 34/25/11
f 2/1/12 37/26/12 34/27/12
f 37/28/13 1/1/13 36/29/13
f 3/1/14 36/30/14 1/4/14
f 52/31/15 41/32/15 44/33/15
f 1/13/16 47/34/16 3/1/16
f 4/1/17 35/35/17 43/36/17
f 23/37/18 16/38/18 15/39/18
f 12/40/19 26/41/19 28/42/19
f 25/43/20 7/44/20 20/45/20
f 21/46/21 20/47/21 6/48/21
f 52/49/22 3/1/22 47/50/22
f 4/4/23 43/51/23 42/12/23
f 5/13/24 42/52/24 38/14/24
f 38/14/25 40/53/25 50/15/25
f 4/1/26 5/13/26 1/4/26
f 1/1/8 5/13/8 53/16/8
f 38/18/27 42/54/27 45/19/27
f 33/21/10 31/55/10 41/22/10
f 37/28/13 2/4/13 1/1/13
f 3/1/14 44/56/14 36/30/14
f 44/33/15 3/4/15 52/31/15
f 52/31/15 51/57/15 41/32/15
f 1/13/16 46/58/16 47/34/16
f 4/1/28 2/13/28 35/35/28
f 19/59/18 21/60/18 6/61/18
f 6/61/18 7/62/18 12/63/18
f 12/63/18 13/64/18 23/37/18
f 23/37/18 29/65/18 30/66/18
f 30/66/18 17/67/18 16/38/18
f 16/38/29 9/68/29 8/69/29
f 8/69/18 10/70/18 15/39/18
f 15/39/18 19/59/18 6/61/18
f 6/61/18 12/63/18 23/37/18
f 23/37/18 30/66/18 16/38/18
f 16/38/18 8/69/18 15/39/18
f 15/39/18 6/61/18 23/37/18
f 22/71/30 11/72/30 12/40/30
f 12/40/31 7/44/31 26/41/31
f 26/41/32 27/73/32 28/42/32
f 28/42/33 22/71/33 12/40/33
f 20/45/20 18/74/20 14/75/20
f 14/75/34 24/76/34 25/43/34
f 25/43/20 26/77/20 7/44/20
f 7/44/20 6/48/20 20/45/20
f 20/45/20 14/75/20 25/43/20
