# Blender 4.0.2
# www.blender.org
mtllib 立方体.007.mtl
o 立方体.007
v 30.611126 -2.300256 -36.093075
v 26.811699 0.999610 -40.999210
v 31.391327 -3.329544 -36.789837
v 27.538452 -0.590994 -42.095829
v 32.034145 -1.774518 -35.995735
v 27.826212 1.751004 -41.493698
v 32.776215 -2.888093 -36.756298
v 28.728889 0.606638 -42.404240
v 30.656530 -2.682243 -37.174194
v 30.889551 -2.782165 -36.293148
v 29.447872 -1.180877 -37.380657
v 28.270439 -0.357342 -39.240601
v 27.155115 0.346178 -41.362995
v 27.341564 0.060301 -41.722973
v 28.898317 -1.581573 -40.263062
v 30.371376 -2.636513 -38.032009
v 32.249161 -2.870934 -36.734749
v 31.588972 -2.909230 -37.246456
v 27.714434 -0.020513 -42.378998
v 28.127670 0.378258 -42.259987
v 29.993643 -0.334158 -40.911728
v 31.562927 -1.988846 -38.360268
v 31.829590 -1.600893 -36.945675
v 32.513229 -2.220513 -36.679665
v 28.526321 1.340663 -42.070614
v 28.262369 1.408750 -41.786263
v 29.370836 0.698310 -39.708683
v 30.126228 -0.129668 -38.352482
v 30.827084 -1.885175 -36.326820
v 31.596756 -1.665440 -36.063091
v 27.757401 1.370896 -41.240665
v 27.288502 1.006253 -40.928059
v 28.710747 0.315293 -41.347519
v 27.911741 1.192697 -42.021488
v 27.896334 0.199315 -41.543873
v 27.493004 0.743407 -41.713596
v 31.498461 -2.765470 -36.668755
v 31.245762 -2.581393 -36.191372
v 31.957520 -2.495708 -36.571457
v 31.639839 -2.061193 -36.539059
v 30.068069 -0.406599 -38.503494
v 29.816778 -1.007105 -37.765228
v 29.528601 0.054236 -38.805321
v 28.702314 0.111702 -39.700672
v 30.819340 -0.626542 -39.029762
v 30.607716 -0.404094 -38.710991
v 29.720419 -0.209787 -40.352539
v 29.131605 0.579166 -40.421741
v 30.227478 -1.928848 -39.040806
v 30.737055 -1.439539 -39.223400
v 29.039413 -0.748407 -40.613979
v 29.102381 -0.394799 -41.266808
v 30.029549 -1.846821 -37.413422
v 29.988657 -1.965838 -38.293831
v 28.515293 -0.872192 -39.814976
v 28.064619 -0.549305 -40.489376
vn -0.7847 -0.5977 0.1646
vn 0.3170 -0.6578 -0.6832
vn 0.7681 0.5377 -0.3476
vn -0.1034 0.7434 0.6608
vn -0.2794 -0.7506 0.5988
vn -0.8431 0.4041 -0.3547
vn -0.6861 -0.3130 -0.6567
vn -0.7905 0.5445 -0.2805
vn -0.9696 -0.2311 -0.0804
vn -0.2435 0.8675 -0.4338
vn -0.1817 0.9662 0.1828
vn 0.2688 -0.4207 -0.8664
vn -0.1712 0.9613 -0.2157
vn 0.3198 -0.0579 -0.9457
vn -0.0357 -0.4007 0.9155
vn 0.3076 0.3566 0.8822
vn -0.5190 -0.0840 0.8506
vn 0.5271 -0.8175 -0.2321
vn -0.1164 -0.9679 0.2226
vn 0.8086 -0.2596 0.5281
vn 0.2787 -0.1928 0.9408
vn 0.5937 0.3812 0.7086
vn -0.2872 0.5791 0.7630
vn -0.0052 0.9131 0.4076
vn 0.1722 0.9152 0.3643
vn -0.4068 0.6244 0.6669
vn -0.6328 -0.2640 0.7279
vn 0.2387 0.7120 0.6604
vn -0.2401 0.7701 0.5910
vn -0.6951 0.2853 0.6598
vn 0.6550 0.7556 -0.0030
vn 0.5785 0.7988 0.1655
vn 0.8284 0.3742 -0.4168
vn 0.6658 0.7457 0.0259
vn 0.7823 0.1273 -0.6098
vn 0.6364 0.7635 -0.1103
vn 0.5365 0.8405 0.0752
vn 0.8021 0.5970 -0.0187
vn -0.0477 -0.8862 -0.4608
vn 0.0294 -0.8303 -0.5566
vn 0.2207 -0.7633 -0.6071
vn 0.5292 -0.5557 -0.6412
vn 0.3311 -0.7496 -0.5731
vn 0.3346 -0.6149 -0.7141
vn 0.6549 -0.3848 -0.6504
vn -0.1880 -0.8559 -0.4817
vn -0.7042 -0.6819 0.1977
vn -0.8523 -0.3271 0.4081
vn -0.8198 -0.5457 0.1737
vn -0.8109 -0.5655 0.1503
vn -0.7368 -0.6523 0.1776
vn -0.6738 -0.7274 0.1296
vn -0.7731 -0.5993 0.2076
vn -0.7949 -0.5426 0.2715
vn -0.8155 -0.4528 0.3604
vn 0.1136 -0.7269 -0.6773
vn 0.6401 0.7661 0.0580
vn -0.1092 0.7411 0.6624
vn 0.7817 -0.5616 -0.2710
vn 0.1180 0.5296 -0.8400
vn -0.3639 0.8899 -0.2750
vn -0.7125 0.5884 -0.3824
vn -0.2909 0.9236 0.2496
vn 0.0707 -0.5663 -0.8211
vn -0.6877 0.7249 -0.0410
vn -0.1974 -0.4223 -0.8847
vn -0.8680 0.0216 -0.4960
vn -0.8043 0.1861 -0.5643
vn 0.2925 0.3491 0.8902
vn 0.0004 -0.7689 0.6394
vn 0.9525 -0.2250 0.2052
vn -0.2362 -0.9421 0.2382
vn 0.0278 -0.3806 0.9243
vn -0.1153 -0.1575 0.9808
vn 0.0374 -0.0994 0.9943
vn -0.0107 0.3845 0.9231
vn 0.0836 0.8756 0.4758
vn -0.2275 0.7806 0.5822
vn -0.8144 -0.1365 0.5640
vn -0.2436 0.7913 0.5608
vn -0.2087 0.7787 0.5916
vn -0.6469 0.4369 0.6250
vn -0.4422 0.5511 0.7076
vn -0.1206 0.7309 0.6717
vn 0.5719 0.8063 0.1508
vn 0.7643 0.5433 -0.3472
vn 0.8578 0.2465 -0.4510
vn 0.7121 0.7019 -0.0170
vn 0.6145 0.7786 0.1270
vn 0.7342 0.5085 -0.4498
vn 0.8852 0.3715 -0.2800
vn 0.4638 0.8568 0.2254
vn -0.1568 -0.8943 -0.4191
vn 0.2934 -0.7355 -0.6107
vn 0.1986 -0.7888 -0.5817
vn 0.3907 -0.6501 -0.6517
vn 0.5615 -0.4002 -0.7243
vn 0.0298 -0.8801 -0.4738
vn 0.5425 -0.5018 -0.6737
vn 0.6174 -0.4465 -0.6476
vn -0.8778 -0.3952 0.2707
vn -0.7703 -0.5523 0.3188
vn -0.7466 -0.6572 0.1032
vn -0.8100 -0.5749 0.1153
vn -0.7561 -0.6136 0.2277
vn -0.6240 -0.7802 0.0434
vn -0.7994 -0.5521 0.2371
vn -0.7536 -0.6458 0.1226
vt 0.625000 0.166667
vt 0.541667 0.250000
vt 0.541667 0.166667
vt 0.541667 0.416667
vt 0.625000 0.500000
vt 0.541667 0.500000
vt 0.541667 0.666667
vt 0.625000 0.750000
vt 0.541667 0.750000
vt 0.625000 0.916667
vt 0.541667 1.000000
vt 0.541667 0.916667
vt 0.291667 0.666667
vt 0.375000 0.750000
vt 0.291667 0.750000
vt 0.875000 0.666667
vt 0.791667 0.750000
vt 0.791667 0.666667
vt 0.625000 0.666667
vt 0.708333 0.750000
vt 0.708333 0.666667
vt 0.708333 0.583333
vt 0.625000 0.583333
vt 0.708333 0.500000
vt 0.791667 0.583333
vt 0.791667 0.500000
vt 0.875000 0.583333
vt 0.208333 0.666667
vt 0.125000 0.750000
vt 0.125000 0.666667
vt 0.208333 0.750000
vt 0.125000 0.500000
vt 0.208333 0.583333
vt 0.125000 0.583333
vt 0.291667 0.500000
vt 0.208333 0.500000
vt 0.375000 0.583333
vt 0.291667 0.583333
vt 0.375000 0.666667
vt 0.375000 0.916667
vt 0.458333 1.000000
vt 0.375000 1.000000
vt 0.458333 0.916667
vt 0.458333 0.833333
vt 0.375000 0.833333
vt 0.458333 0.750000
vt 0.541667 0.833333
vt 0.625000 0.833333
vt 0.458333 0.666667
vt 0.458333 0.500000
vt 0.375000 0.500000
vt 0.458333 0.583333
vt 0.541667 0.583333
vt 0.375000 0.416667
vt 0.458333 0.416667
vt 0.458333 0.250000
vt 0.375000 0.333333
vt 0.375000 0.250000
vt 0.458333 0.333333
vt 0.541667 0.333333
vt 0.625000 0.333333
vt 0.625000 0.416667
vt 0.375000 0.166667
vt 0.458333 0.166667
vt 0.375000 0.000000
vt 0.458333 0.083333
vt 0.375000 0.083333
vt 0.541667 0.000000
vt 0.458333 0.000000
vt 0.541667 0.083333
vt 0.625000 0.083333
vt 0.625000 0.250000
vt 0.625000 1.000000
vt 0.875000 0.750000
vt 0.875000 0.500000
vt 0.625000 0.000000
s 0
usemtl 石头.001
f 14/1/1 15/2/1 56/3/1
f 52/4/2 8/5/2 21/6/2
f 48/7/3 6/8/3 27/9/3
f 32/10/4 12/11/4 44/12/4
f 40/13/5 5/14/5 30/15/5
f 13/16/6 32/17/6 36/18/6
f 26/19/7 31/20/7 6/8/7
f 36/18/8 31/20/8 34/21/8
f 8/5/9 33/22/9 25/23/9
f 25/23/10 34/21/10 26/19/10
f 20/24/11 35/25/11 33/22/11
f 35/25/12 34/21/12 33/22/12
f 19/26/13 14/27/13 35/25/13
f 14/27/14 36/18/14 35/25/14
f 38/28/15 1/29/15 10/30/15
f 40/13/16 29/31/16 38/28/16
f 3/32/17 37/33/17 9/34/17
f 9/34/18 38/28/18 10/30/18
f 17/35/19 37/33/19 18/36/19
f 37/33/20 40/13/20 38/28/20
f 17/35/21 24/37/21 39/38/21
f 39/38/22 23/39/22 40/13/22
f 29/40/23 11/41/23 1/42/23
f 42/43/24 12/11/24 11/41/24
f 5/14/25 41/44/25 30/45/25
f 30/45/26 42/43/26 29/40/26
f 28/46/27 43/47/27 41/44/27
f 43/47/28 42/43/28 41/44/28
f 27/9/29 31/48/29 43/47/29
f 31/48/30 44/12/30 43/47/30
f 23/39/31 28/46/31 5/14/31
f 46/49/32 27/9/32 28/46/32
f 22/50/33 24/37/33 7/51/33
f 45/52/34 23/39/34 24/37/34
f 22/50/35 47/53/35 45/52/35
f 45/52/36 48/7/36 46/49/36
f 8/5/37 47/53/37 21/6/37
f 25/23/38 48/7/38 47/53/38
f 17/54/39 22/50/39 7/51/39
f 50/55/40 21/6/40 22/50/40
f 16/56/41 18/57/41 3/58/41
f 18/57/42 50/55/42 17/54/42
f 15/2/43 49/59/43 16/56/43
f 51/60/44 50/55/44 49/59/44
f 15/2/45 19/61/45 51/60/45
f 51/60/46 20/62/46 52/4/46
f 9/63/47 16/56/47 3/58/47
f 54/64/48 15/2/48 16/56/48
f 1/65/49 53/66/49 10/67/49
f 53/66/50 9/63/50 10/67/50
f 12/68/51 53/66/51 11/69/51
f 55/70/52 54/64/52 53/66/52
f 12/68/53 13/71/53 55/70/53
f 13/71/54 56/3/54 55/70/54
f 14/1/55 4/72/55 15/2/55
f 52/4/56 20/62/56 8/5/56
f 48/7/57 26/19/57 6/8/57
f 32/10/58 2/73/58 12/11/58
f 40/13/59 23/39/59 5/14/59
f 13/16/60 2/74/60 32/17/60
f 26/19/61 34/21/61 31/20/61
f 36/18/62 32/17/62 31/20/62
f 8/5/63 20/24/63 33/22/63
f 25/23/64 33/22/64 34/21/64
f 20/24/65 19/26/65 35/25/65
f 35/25/66 36/18/66 34/21/66
f 19/26/67 4/75/67 14/27/67
f 14/27/68 13/16/68 36/18/68
f 38/28/69 29/31/69 1/29/69
f 40/13/70 30/15/70 29/31/70
f 3/32/71 18/36/71 37/33/71
f 9/34/72 37/33/72 38/28/72
f 17/35/73 39/38/73 37/33/73
f 37/33/74 39/38/74 40/13/74
f 17/35/75 7/51/75 24/37/75
f 39/38/76 24/37/76 23/39/76
f 29/40/77 42/43/77 11/41/77
f 42/43/78 44/12/78 12/11/78
f 5/14/79 28/46/79 41/44/79
f 30/45/80 41/44/80 42/43/80
f 28/46/81 27/9/81 43/47/81
f 43/47/82 44/12/82 42/43/82
f 27/9/83 6/8/83 31/48/83
f 31/48/84 32/10/84 44/12/84
f 23/39/85 46/49/85 28/46/85
f 46/49/86 48/7/86 27/9/86
f 22/50/87 45/52/87 24/37/87
f 45/52/88 46/49/88 23/39/88
f 22/50/89 21/6/89 47/53/89
f 45/52/90 47/53/90 48/7/90
f 8/5/91 25/23/91 47/53/91
f 25/23/92 26/19/92 48/7/92
f 17/54/93 50/55/93 22/50/93
f 50/55/94 52/4/94 21/6/94
f 16/56/95 49/59/95 18/57/95
f 18/57/96 49/59/96 50/55/96
f 15/2/97 51/60/97 49/59/97
f 51/60/98 52/4/98 50/55/98
f 15/2/99 4/72/99 19/61/99
f 51/60/100 19/61/100 20/62/100
f 9/63/101 54/64/101 16/56/101
f 54/64/102 56/3/102 15/2/102
f 1/65/103 11/69/103 53/66/103
f 53/66/104 54/64/104 9/63/104
f 12/68/105 55/70/105 53/66/105
f 55/70/106 56/3/106 54/64/106
f 12/68/107 2/76/107 13/71/107
f 13/71/108 14/1/108 56/3/108
