# Blender 4.0.2
# www.blender.org
mtllib 立方体.006.mtl
o 立方体.006
v 84.192261 -1.352830 -34.131573
v 80.723770 3.481149 -34.979588
v 83.889107 -3.878292 -38.719097
v 79.173141 -0.644705 -41.082382
v 88.391808 0.660488 -36.400013
v 84.224457 6.005149 -37.762009
v 87.832771 -2.120255 -41.159504
v 84.010323 2.819019 -43.169621
v 83.355309 -2.708533 -37.421165
v 83.881660 -2.527047 -35.766716
v 83.378456 0.484787 -33.722309
v 81.861740 1.349581 -35.072273
v 80.206169 1.838945 -37.360775
v 80.018494 1.061462 -38.997620
v 80.784546 -1.862004 -40.376865
v 82.615952 -3.042489 -38.961063
v 86.682976 -2.305936 -39.943737
v 85.017159 -2.892495 -39.870892
v 80.568123 0.777979 -41.579868
v 82.263855 2.022028 -41.741039
v 85.427711 1.557767 -43.079933
v 86.430367 -0.983213 -41.692013
v 88.051704 0.653268 -38.214268
v 88.496582 -0.513579 -39.676102
v 84.988136 4.718137 -41.084675
v 84.580956 4.878929 -39.708221
v 86.198715 4.352087 -37.527573
v 86.650146 3.096995 -36.563900
v 85.399223 -0.288490 -34.755318
v 87.595566 0.715421 -35.508579
v 83.490204 4.759959 -37.251198
v 81.824371 3.739450 -35.822445
v 83.653366 2.466858 -40.724518
v 83.340652 4.083788 -39.785564
v 81.563286 1.731726 -39.589634
v 81.629562 2.869006 -38.568459
v 85.203224 -2.351274 -38.034321
v 85.077774 -1.818275 -36.061180
v 86.757950 -1.422554 -38.489090
v 86.856544 -0.449338 -37.251125
v 85.972992 2.310461 -37.123600
v 84.449570 0.948255 -35.324409
v 85.550179 3.125317 -36.236671
v 83.606712 2.563400 -36.688133
v 87.143585 1.892522 -40.341198
v 87.148079 2.482034 -38.823895
v 85.162621 1.960490 -40.915947
v 85.287407 3.674148 -38.971516
v 83.391319 -1.687430 -40.484989
v 85.407814 -0.283051 -41.533615
v 82.574295 0.187059 -40.691135
v 83.233650 0.869107 -42.127499
v 83.444290 -0.957753 -35.781567
v 82.944023 -1.608814 -38.085621
v 81.334801 -0.063850 -37.632946
v 80.776489 0.300720 -38.044930
vn -0.8464 -0.3919 0.3605
vn -0.2708 -0.3676 -0.8897
vn 0.5487 0.5683 -0.6131
vn 0.5542 0.2572 0.7917
vn 0.3844 -0.8345 0.3948
vn -0.6723 0.7181 -0.1799
vn -0.8599 0.3575 -0.3644
vn -0.6450 0.7470 -0.1612
vn -0.8627 0.5029 -0.0535
vn -0.5119 0.8226 -0.2475
vn -0.3203 0.9470 0.0235
vn -0.5385 0.3428 -0.7697
vn -0.4516 0.8714 -0.1918
vn -0.4995 0.5947 -0.6299
vn 0.5368 -0.7303 0.4225
vn 0.7139 -0.5353 0.4514
vn 0.3526 -0.6184 0.7023
vn 0.4972 -0.8653 -0.0633
vn 0.3319 -0.9134 0.2355
vn 0.6855 -0.6907 0.2302
vn 0.6198 -0.6845 0.3837
vn 0.7721 -0.5280 0.3536
vn 0.4564 0.0039 0.8898
vn 0.1778 0.9072 0.3813
vn 0.4525 0.8186 0.3538
vn 0.0862 0.4703 0.8783
vn 0.1945 -0.6744 0.7123
vn 0.8136 -0.1796 0.5529
vn 0.1744 0.6685 0.7229
vn -0.2816 0.2242 0.9330
vn 0.8087 0.5677 -0.1539
vn 0.9123 0.3991 0.0924
vn 0.5912 0.4016 -0.6995
vn 0.8789 0.4655 -0.1041
vn 0.2719 0.3531 -0.8952
vn 0.5304 0.7897 -0.3084
vn 0.6657 0.7441 -0.0569
vn 0.9920 0.0559 -0.1129
vn -0.4170 -0.7528 -0.5093
vn -0.4866 -0.5588 -0.6715
vn -0.2501 -0.6008 -0.7592
vn 0.1568 -0.5473 -0.8221
vn 0.0231 -0.7529 -0.6577
vn -0.3128 -0.2375 -0.9196
vn 0.2792 -0.3791 -0.8822
vn -0.7255 -0.4301 -0.5373
vn -0.5523 -0.7194 0.4212
vn -0.6891 -0.2562 0.6778
vn -0.9032 -0.2484 0.3500
vn -0.9139 -0.2517 0.3184
vn -0.6952 -0.5990 0.3974
vn -0.6016 -0.7249 0.3355
vn -0.7470 -0.5049 0.4324
vn -0.7017 -0.4902 0.5171
vn -0.6244 -0.4611 0.6305
vn -0.5622 -0.2043 -0.8013
vn 0.8841 0.4561 -0.1020
vn 0.5485 0.2582 0.7953
vn 0.6227 -0.7742 -0.1136
vn -0.4976 0.7608 -0.4166
vn -0.5213 0.8317 -0.1911
vn -0.6282 0.7534 -0.1943
vn -0.3576 0.9303 0.0818
vn -0.6585 0.2786 -0.6991
vn -0.5946 0.7994 -0.0858
vn -0.7088 0.4937 -0.5038
vn -0.7339 0.6404 -0.2265
vn -0.6951 0.6770 -0.2419
vn 0.7095 -0.5378 0.4553
vn 0.4843 -0.8083 0.3349
vn 0.7230 -0.6791 0.1269
vn 0.2676 -0.9258 0.2671
vn 0.5531 -0.7244 0.4114
vn 0.5483 -0.6781 0.4894
vn 0.5903 -0.6655 0.4567
vn 0.6517 -0.4836 0.5843
vn 0.5274 0.6543 0.5419
vn 0.1752 0.6869 0.7053
vn -0.4292 -0.2484 0.8684
vn 0.0939 0.7539 0.6503
vn 0.2334 0.6436 0.7289
vn -0.3308 0.5021 0.7991
vn 0.1418 0.3030 0.9424
vn 0.5458 0.2351 0.8043
vn 0.8849 0.4605 0.0697
vn 0.4650 0.6516 -0.5994
vn 0.6669 0.1748 -0.7243
vn 0.9052 0.3952 -0.1562
vn 0.9216 0.3861 0.0410
vn 0.2145 0.7259 -0.6535
vn 0.8945 0.0293 -0.4462
vn 0.8012 0.5737 0.1700
vn -0.5507 -0.7020 -0.4516
vn -0.1300 -0.6369 -0.7599
vn -0.2270 -0.6676 -0.7091
vn -0.0720 -0.5283 -0.8460
vn -0.0329 -0.1234 -0.9918
vn -0.2872 -0.8075 -0.5153
vn 0.0907 -0.4068 -0.9090
vn 0.2479 -0.4492 -0.8584
vn -0.8938 -0.0663 0.4435
vn -0.5355 -0.6201 0.5733
vn -0.8527 -0.4402 0.2811
vn -0.9453 -0.1961 0.2607
vn -0.6580 -0.5937 0.4631
vn -0.6423 -0.7338 0.2211
vn -0.7719 -0.4324 0.4660
vn -0.8386 -0.4484 0.3092
vt 0.625000 0.166667
vt 0.541667 0.250000
vt 0.541667 0.166667
vt 0.541667 0.416667
vt 0.625000 0.500000
vt 0.541667 0.500000
vt 0.541667 0.666667
vt 0.625000 0.750000
vt 0.541667 0.750000
vt 0.625000 0.916667
vt 0.541667 1.000000
vt 0.541667 0.916667
vt 0.291667 0.666667
vt 0.375000 0.750000
vt 0.291667 0.750000
vt 0.875000 0.666667
vt 0.791667 0.750000
vt 0.791667 0.666667
vt 0.625000 0.666667
vt 0.708333 0.750000
vt 0.708333 0.666667
vt 0.708333 0.583333
vt 0.625000 0.583333
vt 0.708333 0.500000
vt 0.791667 0.583333
vt 0.791667 0.500000
vt 0.875000 0.583333
vt 0.208333 0.666667
vt 0.125000 0.750000
vt 0.125000 0.666667
vt 0.208333 0.750000
vt 0.125000 0.500000
vt 0.208333 0.583333
vt 0.125000 0.583333
vt 0.291667 0.500000
vt 0.208333 0.500000
vt 0.375000 0.583333
vt 0.291667 0.583333
vt 0.375000 0.666667
vt 0.375000 0.916667
vt 0.458333 1.000000
vt 0.375000 1.000000
vt 0.458333 0.916667
vt 0.458333 0.833333
vt 0.375000 0.833333
vt 0.458333 0.750000
vt 0.541667 0.833333
vt 0.625000 0.833333
vt 0.458333 0.666667
vt 0.458333 0.500000
vt 0.375000 0.500000
vt 0.458333 0.583333
vt 0.541667 0.583333
vt 0.375000 0.416667
vt 0.458333 0.416667
vt 0.458333 0.250000
vt 0.375000 0.333333
vt 0.375000 0.250000
vt 0.458333 0.333333
vt 0.541667 0.333333
vt 0.625000 0.333333
vt 0.625000 0.416667
vt 0.375000 0.166667
vt 0.458333 0.166667
vt 0.375000 0.000000
vt 0.458333 0.083333
vt 0.375000 0.083333
vt 0.541667 0.000000
vt 0.458333 0.000000
vt 0.541667 0.083333
vt 0.625000 0.083333
vt 0.625000 0.250000
vt 0.625000 1.000000
vt 0.875000 0.750000
vt 0.875000 0.500000
vt 0.625000 0.000000
s 0
usemtl Asphalt
f 14/1/1 15/2/1 56/3/1
f 52/4/2 8/5/2 21/6/2
f 48/7/3 6/8/3 27/9/3
f 32/10/4 12/11/4 44/12/4
f 40/13/5 5/14/5 30/15/5
f 13/16/6 32/17/6 36/18/6
f 26/19/7 31/20/7 6/8/7
f 36/18/8 31/20/8 34/21/8
f 8/5/9 33/22/9 25/23/9
f 25/23/10 34/21/10 26/19/10
f 20/24/11 35/25/11 33/22/11
f 35/25/12 34/21/12 33/22/12
f 19/26/13 14/27/13 35/25/13
f 14/27/14 36/18/14 35/25/14
f 38/28/15 1/29/15 10/30/15
f 40/13/16 29/31/16 38/28/16
f 3/32/17 37/33/17 9/34/17
f 9/34/18 38/28/18 10/30/18
f 17/35/19 37/33/19 18/36/19
f 37/33/20 40/13/20 38/28/20
f 17/35/21 24/37/21 39/38/21
f 39/38/22 23/39/22 40/13/22
f 29/40/23 11/41/23 1/42/23
f 42/43/24 12/11/24 11/41/24
f 5/14/25 41/44/25 30/45/25
f 30/45/26 42/43/26 29/40/26
f 28/46/27 43/47/27 41/44/27
f 43/47/28 42/43/28 41/44/28
f 27/9/29 31/48/29 43/47/29
f 31/48/30 44/12/30 43/47/30
f 23/39/31 28/46/31 5/14/31
f 46/49/32 27/9/32 28/46/32
f 22/50/33 24/37/33 7/51/33
f 45/52/34 23/39/34 24/37/34
f 22/50/35 47/53/35 45/52/35
f 45/52/36 48/7/36 46/49/36
f 8/5/37 47/53/37 21/6/37
f 25/23/38 48/7/38 47/53/38
f 17/54/39 22/50/39 7/51/39
f 50/55/40 21/6/40 22/50/40
f 16/56/41 18/57/41 3/58/41
f 18/57/42 50/55/42 17/54/42
f 15/2/43 49/59/43 16/56/43
f 51/60/44 50/55/44 49/59/44
f 15/2/45 19/61/45 51/60/45
f 51/60/46 20/62/46 52/4/46
f 9/63/47 16/56/47 3/58/47
f 54/64/48 15/2/48 16/56/48
f 1/65/49 53/66/49 10/67/49
f 53/66/50 9/63/50 10/67/50
f 12/68/51 53/66/51 11/69/51
f 55/70/52 54/64/52 53/66/52
f 12/68/53 13/71/53 55/70/53
f 13/71/54 56/3/54 55/70/54
f 14/1/55 4/72/55 15/2/55
f 52/4/56 20/62/56 8/5/56
f 48/7/57 26/19/57 6/8/57
f 32/10/58 2/73/58 12/11/58
f 40/13/59 23/39/59 5/14/59
f 13/16/60 2/74/60 32/17/60
f 26/19/61 34/21/61 31/20/61
f 36/18/62 32/17/62 31/20/62
f 8/5/63 20/24/63 33/22/63
f 25/23/64 33/22/64 34/21/64
f 20/24/65 19/26/65 35/25/65
f 35/25/66 36/18/66 34/21/66
f 19/26/67 4/75/67 14/27/67
f 14/27/68 13/16/68 36/18/68
f 38/28/69 29/31/69 1/29/69
f 40/13/70 30/15/70 29/31/70
f 3/32/71 18/36/71 37/33/71
f 9/34/72 37/33/72 38/28/72
f 17/35/73 39/38/73 37/33/73
f 37/33/74 39/38/74 40/13/74
f 17/35/75 7/51/75 24/37/75
f 39/38/76 24/37/76 23/39/76
f 29/40/77 42/43/77 11/41/77
f 42/43/78 44/12/78 12/11/78
f 5/14/79 28/46/79 41/44/79
f 30/45/80 41/44/80 42/43/80
f 28/46/81 27/9/81 43/47/81
f 43/47/82 44/12/82 42/43/82
f 27/9/83 6/8/83 31/48/83
f 31/48/84 32/10/84 44/12/84
f 23/39/85 46/49/85 28/46/85
f 46/49/86 48/7/86 27/9/86
f 22/50/87 45/52/87 24/37/87
f 45/52/88 46/49/88 23/39/88
f 22/50/89 21/6/89 47/53/89
f 45/52/90 47/53/90 48/7/90
f 8/5/91 25/23/91 47/53/91
f 25/23/92 26/19/92 48/7/92
f 17/54/93 50/55/93 22/50/93
f 50/55/94 52/4/94 21/6/94
f 16/56/95 49/59/95 18/57/95
f 18/57/96 49/59/96 50/55/96
f 15/2/97 51/60/97 49/59/97
f 51/60/98 52/4/98 50/55/98
f 15/2/99 4/72/99 19/61/99
f 51/60/100 19/61/100 20/62/100
f 9/63/101 54/64/101 16/56/101
f 54/64/102 56/3/102 15/2/102
f 1/65/103 11/69/103 53/66/103
f 53/66/104 54/64/104 9/63/104
f 12/68/105 55/70/105 53/66/105
f 55/70/106 56/3/106 54/64/106
f 12/68/107 2/76/107 13/71/107
f 13/71/108 14/1/108 56/3/108
