# Blender 4.0.2
# www.blender.org
mtllib 立方体.001_cell.032.mtl
o 立方体.001_cell.032
v 15.724072 6.568178 -16.614870
v 15.433932 6.632031 -16.813410
v 15.685785 6.577250 -16.569040
v 15.701043 6.621264 -16.554237
v 15.742471 6.621306 -16.596981
v 15.530498 6.661147 -16.719715
v 15.710376 6.661045 -16.611254
v 15.677337 6.661075 -16.577240
v 15.190581 6.661163 -17.049528
v 15.232160 6.661042 -17.092525
v 15.718822 6.661020 -16.619930
v 15.674771 6.545938 -16.579727
v 15.121910 6.545845 -17.116159
v 15.177051 6.568295 -17.146238
v 15.382622 6.545866 -16.863195
v 15.629006 6.545886 -16.624132
v 15.513516 6.568223 -16.819401
v 15.485239 6.545875 -16.763628
v 15.437573 6.568240 -16.893171
v 15.721786 6.656051 -16.617064
v 15.183021 6.578329 -17.140436
v 15.468041 6.619445 -16.863560
v 15.481838 6.621436 -16.850157
v 15.475518 6.632031 -16.856268
v 15.685785 6.577250 -16.569040
v 15.701043 6.621264 -16.554237
v 15.742471 6.621306 -16.596981
v 15.530498 6.661147 -16.719715
v 15.677337 6.661075 -16.577240
v 15.382622 6.545866 -16.863195
v 15.437573 6.568240 -16.893171
v 15.190581 6.661163 -17.049528
v 15.232160 6.661042 -17.092525
v 15.710376 6.661045 -16.611254
v 15.718822 6.661020 -16.619930
v 15.121910 6.545845 -17.116159
v 15.177051 6.568295 -17.146238
v 15.674771 6.545938 -16.579727
v 15.629006 6.545886 -16.624132
v 15.485239 6.545875 -16.763628
v 15.721786 6.656051 -16.617064
v 15.513516 6.568223 -16.819401
v 15.481838 6.621436 -16.850157
v 15.475518 6.632031 -16.856268
v 15.183021 6.578329 -17.140436
v 15.468041 6.619445 -16.863560
vn 0.6443 -0.4401 0.6254
vn 0.6468 -0.4349 0.6265
vn 0.0007 1.0000 -0.0002
vn 0.0014 1.0000 -0.0014
vn 0.2441 -0.9366 -0.2515
vn 0.6968 0.0002 -0.7173
vn 0.2441 -0.9369 -0.2505
vn 0.6967 0.0017 -0.7174
vn 0.5523 0.6385 0.5359
vn -0.5523 0.6386 -0.5359
vn -0.6964 -0.0000 0.7177
vn -0.5523 -0.6386 -0.5359
vn 0.5523 -0.6386 0.5359
vn 0.5534 0.6370 0.5367
vn 0.5521 0.6388 0.5358
vn 0.5523 0.6386 0.5359
vn -0.5528 0.6390 -0.5348
vn -0.6964 -0.0002 0.7177
vt 1.000000 0.097302
vt 0.923096 0.000000
vt 1.000000 0.000000
vt 0.097302 0.097302
vt 0.572247 0.000000
vt 0.571396 0.097266
vt 0.124869 0.077453
vt 0.047341 0.000000
vt 0.233079 0.000000
vt 0.047341 0.047341
vt 0.767589 0.000000
vt 0.730626 0.233854
vt 1.000000 0.655113
vt 0.892431 0.892431
vt 0.892225 0.657033
vt 0.892079 0.489013
vt 1.000000 0.103988
vt 1.000000 0.530719
vt 0.655113 0.655113
vt 0.946415 0.000000
vt 1.000000 0.427753
vt 0.530719 0.530719
vt 0.108075 0.000000
vt 0.551578 0.000000
vt 1.000000 0.892431
vt 1.000000 1.000000
vt 0.892528 0.892528
vt 1.000000 0.232411
vt 0.687296 0.570497
vt 0.108075 0.108075
vt 0.837611 0.673559
vt 0.875000 0.673553
vt 0.837613 0.678276
vt 0.837324 0.565427
vt 0.875000 0.576458
vt 0.837433 0.576444
vt 0.607382 0.125000
vt 0.622132 0.074762
vt 0.625000 0.076447
vt 0.607362 0.123741
vt 0.607258 0.117421
vt 0.607258 0.132578
vt 0.607358 0.126495
vt 0.000000 0.000000
vt 0.233079 0.233079
vt 0.054781 0.000000
vt 0.891707 0.062138
vt 0.573046 0.000000
vt 0.103988 0.103988
vt 1.000000 0.945219
vt 0.946415 0.946415
vt 0.573046 0.573046
vt 0.551578 0.551578
vt 0.837607 0.674149
vt 0.845216 0.673556
vt 0.875000 0.678281
vt 0.837328 0.566618
vt 0.875000 0.562760
vt 0.625000 0.187240
vt 0.607215 0.135235
vt 0.607215 0.114766
vt 0.616921 0.086088
vt 0.620323 0.076691
vt 0.625000 0.071719
vt 0.614998 0.105738
vt 0.625000 0.173542
vt 0.607215 0.135235
s 0
usemtl 石头
f 25/1/1 38/2/1 1/3/1
f 25/4/2 27/5/2 26/6/2
f 29/7/3 34/8/3 28/9/3
f 34/10/4 33/11/4 9/12/4
f 42/13/5 39/14/5 40/15/5
f 30/16/5 37/17/5 31/18/5
f 42/19/6 41/20/6 27/21/6
f 31/22/6 45/23/6 46/24/6
f 39/25/7 1/26/7 38/27/7
f 33/28/8 44/29/8 45/30/8
f 11/31/9 8/32/9 5/33/9
f 14/34/10 32/35/10 10/36/10
f 2/37/11 3/38/11 8/39/11
f 2/37/12 23/40/12 17/41/12
f 2/37/13 19/42/13 22/43/13
f 25/4/2 1/44/2 27/5/2
f 9/12/4 28/45/4 34/10/4
f 34/10/4 35/46/4 33/11/4
f 42/13/5 1/26/5 39/14/5
f 30/16/5 13/47/5 37/17/5
f 27/21/6 1/26/6 42/19/6
f 42/19/6 43/48/6 41/20/6
f 31/22/6 37/49/6 45/23/6
f 33/28/8 35/50/8 41/51/8
f 41/51/8 43/52/8 44/29/8
f 44/29/8 46/53/8 45/30/8
f 33/28/8 41/51/8 44/29/8
f 5/33/14 20/54/14 11/31/14
f 11/31/15 7/55/15 8/32/15
f 8/32/16 4/56/16 5/33/16
f 10/36/17 21/57/17 14/34/17
f 14/34/10 36/58/10 32/35/10
f 36/59/11 15/60/11 2/37/11
f 2/37/11 18/61/11 16/62/11
f 16/62/11 12/63/11 3/38/11
f 3/38/11 4/64/11 8/39/11
f 8/39/18 6/65/18 32/66/18
f 32/66/11 36/59/11 2/37/11
f 2/37/11 16/62/11 3/38/11
f 8/39/11 32/66/11 2/37/11
f 17/41/12 18/61/12 2/37/12
f 2/37/12 24/37/12 23/40/12
f 22/43/13 24/37/13 2/37/13
f 2/37/13 15/67/13 19/42/13
