# Blender 4.0.2
# www.blender.org
mtllib 立方体.001_cell.067.mtl
o 立方体.001_cell.067
v 14.905742 1.262962 -17.325903
v 15.209439 1.204453 -17.114655
v 15.193142 0.922323 -17.129515
v 15.166210 1.176725 -17.073175
v 15.169023 1.228070 -17.070446
v 14.807282 1.398786 -17.421436
v 14.848966 1.374572 -17.464397
v 15.085463 1.262962 -17.234941
v 14.905742 1.352320 -17.325903
v 14.947428 1.328105 -17.368866
v 15.095087 1.262962 -17.142185
v 14.807282 1.084514 -17.421436
v 15.151940 0.922264 -17.087021
v 14.848766 1.084567 -17.464191
v 14.848867 1.144077 -17.464294
v 14.947400 1.262962 -17.368837
v 14.807282 1.398786 -17.421436
v 14.848966 1.374572 -17.464397
v 14.905742 1.352320 -17.325903
v 14.947428 1.328105 -17.368866
v 15.169023 1.228070 -17.070446
v 15.095087 1.262962 -17.142185
v 14.807282 1.084514 -17.421436
v 14.848766 1.084567 -17.464191
v 15.085463 1.262962 -17.234941
v 14.947400 1.262962 -17.368837
v 14.848867 1.144077 -17.464294
v 15.166210 1.176725 -17.073175
v 15.151940 0.922264 -17.087021
vn 0.7153 -0.0761 0.6946
vn 0.4641 0.8845 -0.0482
vn -0.2291 -0.9474 -0.2235
vn 0.7158 -0.0779 0.6939
vn 0.6963 -0.0024 -0.7177
vn 0.6962 -0.0006 -0.7179
vn -0.7177 -0.0000 -0.6964
vn -0.6964 -0.0000 0.7177
vn -0.0000 1.0000 -0.0000
vn 0.7177 -0.0000 0.6964
vn -0.6965 -0.0000 0.7175
vt 1.000000 0.000000
vt 1.000000 0.091840
vt 0.901933 0.000000
vt 0.671584 0.091825
vt 0.793763 0.000000
vt 0.888391 0.091819
vt 0.000000 0.000000
vt 0.254645 0.091836
vt 0.091840 0.091840
vt 0.212898 0.097686
vt 1.000000 0.097056
vt 1.000000 0.098067
vt 0.097056 0.097056
vt 1.000000 1.000000
vt 0.787067 0.000000
vt 1.000000 0.205508
vt 0.205508 0.205508
vt 1.000000 0.423050
vt 0.775459 0.422844
vt 0.385994 0.250000
vt 0.400048 0.287596
vt 0.388880 0.287507
vt 0.393621 0.230360
vt 0.377796 0.181250
vt 0.390971 0.177843
vt 0.393018 0.202827
vt 0.396704 0.230360
vt 0.397850 0.230360
vt 0.576950 0.000000
vt 0.272998 0.000000
vt 0.212933 0.000000
vt 1.000000 0.727002
vt 1.000000 0.206237
vt 0.385997 0.287417
vt 0.401221 0.250000
vt 0.397850 0.230360
vt 0.388765 0.178403
vt 0.392794 0.192591
vt 0.392794 0.192591
s 0
usemtl 石头
f 2/1/1 21/2/1 28/3/1
f 19/4/2 18/5/2 17/6/2
f 2/7/2 22/8/2 21/9/2
f 12/10/3 3/1/3 29/11/3
f 3/7/4 28/12/4 29/13/4
f 2/14/5 24/15/5 27/16/5
f 27/17/6 20/18/6 26/19/6
f 23/20/7 7/21/7 15/22/7
f 1/23/8 13/24/8 5/25/8
f 1/23/9 8/26/9 16/23/9
f 1/23/10 10/27/10 9/28/10
f 19/4/2 20/29/2 18/5/2
f 2/7/2 25/30/2 22/8/2
f 12/10/3 24/31/3 3/1/3
f 3/7/4 2/1/4 28/12/4
f 2/14/5 3/7/5 24/15/5
f 26/19/6 25/32/6 2/14/6
f 27/17/6 18/33/6 20/18/6
f 26/19/6 2/14/6 27/17/6
f 15/22/7 14/34/7 23/20/7
f 23/20/7 6/35/7 7/21/7
f 1/23/8 9/36/8 6/35/8
f 6/35/8 23/20/8 13/24/8
f 13/24/11 4/37/11 5/25/11
f 5/25/8 11/38/8 1/23/8
f 1/23/8 6/35/8 13/24/8
f 1/23/9 11/39/9 8/26/9
f 1/23/10 16/23/10 10/27/10
