# Blender 4.0.2
# www.blender.org
mtllib 立方体.001_cell.mtl
o 立方体.001_cell
v 15.036880 5.680544 -17.278419
v 15.083142 5.686838 -17.233532
v 15.078506 5.669782 -17.238029
v 15.087614 5.703658 -17.229193
v 15.070910 5.642660 -17.245399
v 15.045730 5.612509 -17.269833
v 15.025054 5.620340 -17.289892
v 15.049421 5.724705 -17.266249
vn -0.6964 -0.0000 0.7177
vt 0.594037 0.202032
vt 0.596376 0.212152
vt 0.592792 0.210387
vt 0.592481 0.205364
vt 0.593169 0.203849
vt 0.593604 0.202924
vt 0.597478 0.209650
vt 0.594454 0.214511
s 0
usemtl 金边
f 4/1/1 1/2/1 6/3/1
f 6/3/1 5/4/1 3/5/1
f 3/5/1 2/6/1 4/1/1
f 4/1/1 8/7/1 1/2/1
f 1/2/1 7/8/1 6/3/1
f 6/3/1 3/5/1 4/1/1
