# Blender 4.0.2
# www.blender.org
mtllib 立方体.001_cell.115.mtl
o 立方体.001_cell.115
v 16.060581 3.927587 -16.205381
v 16.060581 3.602591 -16.205381
v 16.101215 4.101492 -16.288754
v 16.073446 3.513344 -16.218639
v 16.067377 3.516556 -16.220709
v 16.055399 3.550225 -16.224003
v 16.046663 3.570007 -16.225780
v 16.041126 3.562224 -16.224257
v 16.070135 3.612146 -16.215227
v 16.072441 3.561585 -16.217604
v 16.121984 4.055729 -16.268665
v 16.110224 4.075202 -16.280041
v 15.981714 4.058644 -16.281904
v 16.010489 4.075202 -16.288347
v 16.084431 4.150110 -16.304880
v 16.074907 3.506949 -16.220146
vn -0.0733 0.4696 0.8798
vn -0.0795 0.2890 0.9540
vn -0.4464 -0.3006 0.8428
vn -0.3668 -0.0444 0.9292
vn 0.8075 -0.5197 0.2792
vn 0.7177 -0.0000 0.6964
vn -0.3221 -0.0572 0.9450
vn -0.3354 -0.0272 0.9417
vt 0.738975 0.334405
vt 0.733056 0.375000
vt 0.746193 0.375000
vt 0.734330 0.381663
vt 0.736659 0.393985
vt 0.249345 0.505257
vt 0.250000 0.504978
vt 0.250000 0.504308
vt 0.259010 0.500000
vt 0.252324 0.501794
vt 0.376191 0.383462
vt 0.375000 0.378944
vt 0.375000 0.384010
vt 0.750000 0.370446
vt 0.731394 0.369645
vt 0.733056 0.375000
vt 0.253672 0.503028
vt 0.253944 0.500000
vt 0.375338 0.378179
s 0
usemtl 石头
f 1/1/1 12/2/1 14/3/1
f 14/3/2 3/4/2 15/5/2
f 16/6/3 4/7/3 5/8/3
f 9/9/4 6/10/4 4/7/4
f 2/11/5 7/12/5 9/13/5
f 14/3/1 13/14/1 1/1/1
f 1/1/1 11/15/1 12/2/1
f 14/3/2 12/16/2 3/4/2
f 4/7/6 10/17/6 9/9/6
f 9/9/7 7/18/7 6/10/7
f 6/10/8 5/8/8 4/7/8
f 2/11/5 8/19/5 7/12/5
