# Blender 4.0.2
# www.blender.org
mtllib 立方体.001_cell.151.mtl
o 立方体.001_cell.151
v 15.076170 5.573391 -17.285759
v 15.054816 5.494655 -17.306553
v 15.075563 5.525603 -17.240883
v 15.120277 5.525603 -17.286966
v 15.432817 5.494963 -17.369102
v 15.290701 5.573310 -17.506994
v 15.108847 5.556345 -17.257715
v 15.129010 5.556351 -17.278494
v 15.710382 5.341562 -17.099783
v 15.468800 5.368562 -16.948803
v 15.518168 5.326637 -16.900900
v 15.517880 5.339162 -16.901180
v 15.710617 5.331401 -17.099556
v 15.710620 5.326103 -17.099554
v 15.162402 5.461381 -17.246094
v 15.467733 5.418376 -17.335222
v 15.111492 5.480875 -17.295492
v 15.280491 5.490073 -17.516899
v 15.074741 5.480846 -17.257627
v 15.269214 5.494562 -17.527842
v 15.066772 5.480852 -17.249413
v 15.276481 5.521310 -17.520792
v 15.500976 5.350745 -16.917582
v 15.104987 5.554479 -17.254799
v 15.432817 5.494963 -17.369102
v 15.290701 5.573310 -17.506994
v 15.108847 5.556345 -17.257715
v 15.129010 5.556351 -17.278494
v 15.468800 5.368562 -16.948803
v 15.710620 5.326103 -17.099554
v 15.467733 5.418376 -17.335222
v 15.162402 5.461381 -17.246094
v 15.111492 5.480875 -17.295492
v 15.280491 5.490073 -17.516899
v 15.074741 5.480846 -17.257627
v 15.518168 5.326637 -16.900900
v 15.517880 5.339162 -16.901180
v 15.047531 5.488512 -17.268082
v 15.066772 5.480852 -17.249413
v 15.269214 5.494562 -17.527842
v 15.276481 5.521310 -17.520792
v 15.500976 5.350745 -16.917582
v 15.060452 5.536134 -17.255545
v 15.710617 5.331401 -17.099556
v 15.710382 5.341562 -17.099783
v 15.104987 5.554479 -17.254799
v 15.075563 5.525603 -17.240883
vn 0.2643 0.9299 0.2559
vn 0.2645 0.9295 0.2569
vn 0.7175 0.0321 0.6958
vn 0.7182 0.0008 0.6958
vn -0.1902 -0.9648 -0.1817
vn -0.1898 -0.9643 -0.1849
vn -0.1975 -0.9615 -0.1909
vn -0.6716 0.3540 -0.6508
vn -0.6708 0.3561 -0.6506
vn -0.0108 0.8488 0.5286
vn 0.6964 -0.0000 -0.7177
vn -0.9472 0.2919 -0.1327
vn -0.2708 0.6277 0.7299
vn -0.6964 -0.0000 0.7177
vn 0.6673 -0.3680 0.6475
vn 0.6922 -0.2640 0.6717
vn 0.2780 0.9187 0.2806
vn -0.1890 -0.9650 -0.1819
vn -0.2889 0.6736 0.6803
vn 0.6964 0.0002 -0.7176
vn 0.6963 -0.0000 -0.7177
vt 0.222952 0.000000
vt 1.000000 0.000000
vt 1.000000 0.338607
vt 1.000000 0.311558
vt 0.338607 0.338607
vt 0.073518 0.033114
vt 0.151342 0.000000
vt 1.000000 0.332627
vt 0.311558 0.311558
vt 0.335154 0.000000
vt 0.332627 0.332627
vt 0.026170 0.000000
vt 0.026170 0.026170
vt 1.000000 0.396329
vt 0.335154 0.335154
vt 0.115774 0.115774
vt 0.201426 0.008015
vt 0.711349 0.000000
vt 0.711349 0.711349
vt 0.111859 0.087184
vt 0.000000 0.000000
vt 1.000000 0.660290
vt 0.660251 0.660251
vt 0.777048 0.000000
vt 0.660290 0.660290
vt 1.000000 0.926499
vt 1.000000 1.000000
vt 0.887414 0.887414
vt 0.884396 0.000000
vt 1.000000 0.116823
vt 1.000000 0.604757
vt 1.000000 0.915286
vt 0.604757 0.604757
vt 0.618430 0.574016
vt 0.555491 0.624855
vt 0.587523 0.539103
vt 0.589201 0.538303
vt 0.581668 0.196033
vt 0.555389 0.125125
vt 0.559404 0.134915
vt 0.587035 0.204436
vt 0.587821 0.202694
vt 0.587773 0.202800
vt 0.585604 0.206189
vt 0.585604 0.206189
vt 0.883177 0.000000
vt 0.073501 0.000000
vt 1.000000 0.025972
vt 1.000000 0.115774
vt 0.396329 0.396329
vt 0.111732 0.000000
vt 0.604361 0.000000
vt 1.000000 0.660251
vt 0.111732 0.111732
vt 0.395639 0.000000
vt 0.590690 0.541139
vt 0.578386 0.569488
vt 0.555069 0.624901
vt 0.554855 0.624902
vt 0.572947 0.576453
vt 0.588422 0.536853
vt 0.587821 0.202694
vt 0.585605 0.206188
vt 0.554868 0.125067
vt 0.556824 0.128497
s 0
usemtl 石头
f 26/1/1 1/2/1 25/3/1
f 45/4/2 25/5/2 28/6/2
f 37/7/3 44/8/3 45/9/3
f 30/10/4 44/11/4 36/12/4
f 36/13/5 31/14/5 30/15/5
f 32/16/6 33/17/6 34/18/6
f 2/2/7 34/19/7 39/20/7
f 2/21/8 41/22/8 40/23/8
f 26/24/9 41/25/9 1/21/9
f 27/26/10 1/27/10 46/28/10
f 42/29/11 37/2/11 29/30/11
f 2/21/12 43/31/12 1/27/12
f 46/32/13 43/33/13 3/34/13
f 9/35/11 18/36/11 22/37/11
f 15/38/14 12/39/14 10/40/14
f 4/41/15 7/42/15 24/43/15
f 4/41/16 21/44/16 19/45/16
f 29/46/17 37/2/17 45/4/17
f 1/21/2 27/47/2 28/6/2
f 28/6/2 29/46/2 45/4/2
f 25/5/2 1/21/2 28/6/2
f 37/7/3 36/48/3 44/8/3
f 36/13/18 32/49/18 31/14/18
f 34/18/6 31/50/6 32/16/6
f 33/17/6 35/51/6 34/18/6
f 39/20/7 38/52/7 2/2/7
f 2/2/7 40/53/7 34/19/7
f 34/19/7 35/54/7 39/20/7
f 2/21/8 1/2/8 41/22/8
f 2/21/12 38/55/12 43/31/12
f 46/32/19 1/27/19 43/33/19
f 6/56/20 5/57/20 9/35/20
f 9/35/21 13/58/21 14/59/21
f 14/59/11 16/60/11 18/36/11
f 18/36/11 20/61/11 22/37/11
f 22/37/11 6/56/11 9/35/11
f 9/35/11 14/59/11 18/36/11
f 10/40/14 8/62/14 4/41/14
f 4/41/14 17/63/14 15/38/14
f 15/38/14 11/64/14 12/39/14
f 12/39/14 23/65/14 10/40/14
f 10/40/14 4/41/14 15/38/14
f 24/43/15 47/41/15 4/41/15
f 4/41/15 8/62/15 7/42/15
f 19/45/16 17/63/16 4/41/16
f 4/41/16 47/41/16 21/44/16
