# Blender 4.0.2
# www.blender.org
mtllib 立方体.001_cell.013.mtl
o 立方体.001_cell.013
v 14.947184 5.219006 -17.369129
v 14.913054 5.247094 -17.415548
v 14.869796 5.257876 -17.474270
v 14.807281 5.180303 -17.421438
v 14.807281 4.415623 -17.421438
v 14.834048 4.415268 -17.449024
v 14.907978 5.236181 -17.323732
v 14.918445 5.236001 -17.334530
v 14.892998 5.241022 -17.338268
v 14.863133 5.164175 -17.479000
v 14.863434 5.180303 -17.479309
v 14.866638 5.255628 -17.478361
v 14.849076 4.416873 -17.464514
v 14.840534 5.252295 -17.389172
v 14.809410 5.255796 -17.419371
v 14.813080 5.258042 -17.415812
v 14.807281 4.415623 -17.421438
v 14.834048 4.415268 -17.449024
v 14.849076 4.416873 -17.464514
v 14.863133 5.164175 -17.479000
v 14.863434 5.180303 -17.479309
v 14.866638 5.255628 -17.478361
v 14.809410 5.255796 -17.419371
v 14.813080 5.258042 -17.415812
v 14.892998 5.241022 -17.338268
v 14.907978 5.236181 -17.323732
v 14.840534 5.252295 -17.389172
vn 0.7063 -0.1685 0.6875
vn 0.1703 0.9741 0.1488
vn 0.7984 -0.0264 -0.6016
vn 0.8003 -0.0267 -0.5989
vn 0.7161 -0.1681 0.6774
vn 0.1748 0.9770 0.1221
vn 0.5720 0.8170 0.0738
vn -0.2873 0.9156 -0.2814
vn 0.1080 0.9889 0.1020
vn 0.8049 -0.0028 -0.5934
vn -0.7177 -0.0000 -0.6964
vn -0.7171 0.0393 -0.6958
vn -0.6964 -0.0000 0.7177
vn 0.1095 0.9883 0.1061
vn -0.7190 -0.0000 -0.6950
vn -0.6963 -0.0000 0.7177
vt 0.998892 0.000000
vt 0.481073 0.169914
vt 0.480765 0.000000
vt 0.067158 0.065651
vt 0.001733 0.000000
vt 0.159722 0.000000
vt 1.000000 0.000000
vt 0.992260 0.047962
vt 0.972593 0.000000
vt 0.058412 0.058412
vt 1.000000 0.512451
vt 0.000000 0.000000
vt 1.000000 0.519235
vt 0.512451 0.512451
vt 1.000000 0.840278
vt 0.996209 0.996209
vt 0.923773 0.923773
vt 0.540109 0.512715
vt 0.508114 0.508114
vt 0.468239 0.468239
vt 1.000000 1.000000
vt 0.547388 0.250000
vt 0.584437 0.300646
vt 0.547449 0.287697
vt 0.588095 0.250000
vt 0.588087 0.301620
vt 0.582551 0.232902
vt 0.587879 0.248843
vt 0.584437 0.250000
vt 0.999039 0.066468
vt 1.000000 0.058412
vt 1.000000 0.001108
vt 0.468240 0.000000
vt 0.027407 0.000000
vt 1.000000 0.508114
vt 0.547371 0.274142
vt 0.583656 0.300376
vt 0.547388 0.250000
vt 0.581569 0.229905
vt 0.586051 0.243367
vt 0.587978 0.249575
s 0
usemtl 石头
f 8/1/1 5/2/1 18/3/1
f 26/4/2 8/5/2 25/6/2
f 3/7/3 21/8/3 22/9/3
f 20/10/4 1/7/4 19/11/4
f 1/12/5 18/13/5 19/14/5
f 2/12/6 25/15/6 8/16/6
f 8/17/7 1/12/7 2/7/7
f 3/12/8 23/18/8 24/19/8
f 3/7/9 27/20/9 2/12/9
f 2/12/10 1/7/10 3/21/10
f 17/22/11 11/23/11 13/24/11
f 11/23/12 15/25/12 12/26/12
f 9/27/13 16/28/13 4/29/13
f 8/1/1 26/30/1 5/2/1
f 3/7/3 20/31/3 21/8/3
f 20/10/4 3/12/4 1/7/4
f 1/12/5 8/32/5 18/13/5
f 2/12/14 27/33/14 25/15/14
f 3/12/8 22/34/8 23/18/8
f 3/7/9 24/35/9 27/20/9
f 13/24/11 6/36/11 17/22/11
f 17/22/11 4/29/11 11/23/11
f 11/23/15 10/37/15 13/24/15
f 11/23/12 4/29/12 15/25/12
f 17/38/13 7/39/13 9/27/13
f 9/27/16 14/40/16 16/28/16
f 16/28/13 15/41/13 4/29/13
f 4/29/13 17/38/13 9/27/13
