# Blender 4.0.2
# www.blender.org
mtllib 立方体.001_cell.038.mtl
o 立方体.001_cell.038
v 16.125454 5.735540 -16.644432
v 16.009907 5.975743 -16.566698
v 16.017456 5.980989 -16.575157
v 15.981563 5.713869 -16.406204
v 16.131897 5.713658 -16.561623
v 15.965949 5.730177 -16.383362
v 16.015171 5.764402 -16.335064
v 15.982231 5.717221 -16.388668
v 16.050259 5.775722 -16.312714
v 16.051186 5.922374 -16.371128
v 16.064316 5.743196 -16.336399
v 16.022877 5.982495 -16.562807
v 16.071539 5.978074 -16.471882
v 15.949289 5.888208 -16.482592
v 15.980143 5.779573 -16.452654
v 15.947252 5.873934 -16.484568
v 15.945285 5.896755 -16.486015
v 16.144646 5.815268 -16.678427
v 15.958441 5.742978 -16.473711
v 16.145214 5.808604 -16.677874
v 15.942887 5.757139 -16.405441
v 15.938587 5.779573 -16.409826
v 15.931476 5.805053 -16.416977
v 15.926920 5.852522 -16.439257
v 15.925689 5.866160 -16.445738
v 15.940532 5.888208 -16.473564
v 16.198652 5.822006 -16.446543
v 16.208385 5.854066 -16.465158
v 16.152073 5.812182 -16.671219
v 16.145973 5.800136 -16.677139
v 15.959116 5.735434 -16.473057
v 16.199736 5.864898 -16.459143
v 16.140831 5.935078 -16.426016
v 15.965718 5.732207 -16.466650
v 15.991912 5.719655 -16.441235
v 15.969468 5.719708 -16.418125
v 15.963570 5.724718 -16.414015
v 15.953676 5.733275 -16.407181
v 15.946427 5.739666 -16.402222
v 16.074793 5.910997 -16.348490
v 16.074532 5.864898 -16.330105
v 16.069212 5.794377 -16.305742
v 16.082705 5.917226 -16.359093
v 16.126926 5.951247 -16.418039
v 16.177305 5.752425 -16.405914
v 16.117243 5.752289 -16.343975
v 16.087399 5.778321 -16.320187
v 16.152073 5.812182 -16.671219
v 16.144646 5.815268 -16.678427
v 15.947252 5.873934 -16.484568
v 15.958441 5.742978 -16.473711
v 16.145214 5.808604 -16.677874
v 15.942887 5.757139 -16.405441
v 15.938587 5.779573 -16.409826
v 15.931476 5.805053 -16.416977
v 15.926920 5.852522 -16.439257
v 15.925689 5.866160 -16.445738
v 15.945285 5.896755 -16.486015
v 15.940532 5.888208 -16.473564
v 16.198652 5.822006 -16.446543
v 16.208385 5.854066 -16.465158
v 16.199736 5.864898 -16.459143
v 15.965718 5.732207 -16.466650
v 15.991912 5.719655 -16.441235
v 15.963570 5.724718 -16.414015
v 15.953676 5.733275 -16.407181
v 16.074793 5.910997 -16.348490
v 16.074532 5.864898 -16.330105
v 16.069212 5.794377 -16.305742
v 16.117243 5.752289 -16.343975
v 16.087399 5.778321 -16.320187
v 15.946427 5.739666 -16.402222
v 15.959116 5.735434 -16.473057
v 16.145973 5.800136 -16.677139
v 16.082705 5.917226 -16.359093
v 16.126926 5.951247 -16.418039
v 15.969468 5.719708 -16.418125
v 16.177305 5.752425 -16.405914
v 16.140831 5.935078 -16.426016
vn -0.7231 -0.1056 -0.6826
vn 0.9095 -0.3788 -0.1709
vn -0.6979 0.0062 0.7162
vn -0.5910 0.2956 0.7506
vn -0.5839 0.3049 0.7524
vn -0.5410 0.7754 0.3258
vn -0.4841 0.8685 0.1066
vn -0.7076 -0.1079 -0.6983
vn -0.5304 0.7827 0.3256
vn -0.5107 0.8010 0.3123
vn 0.9103 -0.3764 -0.1723
vn -0.7120 -0.1238 -0.6912
vn 0.6200 0.6985 -0.3573
vn 0.6462 0.6931 -0.3192
vn -0.2373 -0.9436 -0.2309
vn -0.2344 -0.9456 -0.2254
vn -0.5632 -0.8074 0.1758
vn -0.5687 -0.8023 0.1814
vn -0.5723 -0.7975 0.1911
vn -0.6971 -0.0092 0.7169
vn -0.2560 -0.6389 0.7255
vn -0.5797 0.3047 0.7557
vn -0.2692 -0.6349 0.7242
vn -0.2572 -0.6415 0.7227
vn -0.5785 0.3050 0.7565
vn -0.0415 0.8747 0.4829
vn -0.0389 0.8778 0.4774
vn 0.6406 0.7031 -0.3086
vn 0.1919 -0.9640 0.1840
vn 0.1887 -0.9648 0.1832
vn 0.1826 -0.9670 0.1779
vn 0.2035 -0.5174 0.8312
vn 0.2079 -0.5192 0.8290
vn 0.6964 -0.0000 -0.7177
vn 0.6922 0.2640 0.6717
vn 0.7055 0.1833 0.6846
vn -0.6113 -0.5240 -0.5931
vn -0.6673 -0.3680 -0.6475
vn -0.6922 -0.2640 -0.6717
vn -0.7134 -0.1181 -0.6907
vn -0.6964 -0.0000 0.7177
vn 0.9095 -0.3789 -0.1709
vn 0.6078 0.7292 -0.3143
vn 0.6478 0.6920 -0.3187
vn 0.6471 0.6931 -0.3177
vn 0.1920 -0.9640 0.1840
vn 0.6922 0.2641 0.6717
vn 0.7055 0.1832 0.6846
vn -0.6922 -0.2639 -0.6718
vn -0.7135 -0.1182 -0.6907
vn -0.7134 -0.1182 -0.6907
vn -0.6614 -0.0095 0.7500
vn -0.6965 -0.0000 0.7176
vn -0.6963 -0.0003 0.7177
vt 0.303614 0.000000
vt 1.000000 0.000000
vt 1.000000 0.633387
vt 0.000000 0.000000
vt 1.000000 0.563351
vt 0.247459 0.000000
vt 0.620994 0.374427
vt 0.270890 0.000000
vt 0.803334 0.803334
vt 0.899962 0.000000
vt 0.899962 0.899962
vt 1.000000 0.936014
vt 0.973630 0.759332
vt 1.000000 0.696386
vt 1.000000 1.000000
vt 1.000000 0.031972
vt 0.436649 0.000000
vt 1.000000 0.867905
vt 0.971982 0.971982
vt 0.867905 0.867905
vt 0.882314 0.000000
vt 1.000000 0.101389
vt 0.965878 0.965878
vt 0.966878 0.966878
vt 0.507301 0.000000
vt 1.000000 0.442201
vt 0.882314 0.882314
vt 1.000000 0.270977
vt 0.851014 0.269949
vt 1.000000 0.411940
vt 0.270977 0.270977
vt 0.411940 0.411940
vt 0.431343 0.000000
vt 0.431343 0.431343
vt 1.000000 0.391078
vt 1.000000 0.729110
vt 0.391078 0.391078
vt 1.000000 0.762508
vt 0.188917 0.000000
vt 0.762508 0.762508
vt 1.000000 0.845647
vt 0.698739 0.000000
vt 1.000000 0.492699
vt 0.247459 0.247459
vt 0.586250 0.000000
vt 0.732433 0.732433
vt 1.000000 0.732433
vt 0.586250 0.586250
vt 0.602224 0.711592
vt 0.602839 0.712960
vt 0.601895 0.711743
vt 0.804277 0.746081
vt 0.699751 0.750000
vt 0.750124 0.742659
vt 0.625000 0.824751
vt 0.619252 0.950987
vt 0.615821 0.912745
vt 0.605188 0.039824
vt 0.605079 0.039070
vt 0.602405 0.032916
vt 0.603032 0.034359
vt 0.604536 0.037821
vt 0.600497 0.030570
vt 0.600929 0.031102
vt 0.018292 0.000000
vt 0.633387 0.633387
vt 0.604317 0.039477
vt 0.599044 0.037110
vt 0.600495 0.030568
vt 1.000000 0.803334
vt 0.936014 0.936014
vt 0.442201 0.442201
vt 1.000000 0.981708
vt 1.000000 0.971982
vt 0.935189 0.381807
vt 1.000000 0.852341
vt 0.852341 0.852341
vt 0.685762 0.447957
vt 0.845647 0.845647
vt 0.301261 0.000000
vt 0.811083 0.000000
vt 0.602522 0.711532
vt 0.796036 0.745551
vt 0.812678 0.750000
vt 0.740447 0.744033
vt 0.615832 0.858555
vt 0.621504 0.830904
vt 0.624117 0.818256
vt 0.625000 0.937678
vt 0.617943 0.936521
vt 0.605079 0.039070
vt 0.604200 0.037049
vt 0.601133 0.031352
vt 0.601690 0.032037
vt 0.600657 0.030767
vt 0.968028 0.000000
vt 0.898611 0.000000
vt 0.605188 0.039824
vt 0.599330 0.037245
vt 0.599346 0.035793
s 0
usemtl 石头
f 17/1/1 2/2/1 50/3/1
f 5/4/2 60/5/2 78/6/2
f 7/2/3 54/7/3 53/8/3
f 55/9/4 7/4/4 56/10/4
f 56/11/5 10/2/5 57/12/5
f 59/13/6 10/4/6 17/14/6
f 3/2/7 2/15/7 12/4/7
f 49/16/8 2/15/8 3/4/8
f 2/15/9 10/4/9 13/2/9
f 12/2/10 2/15/10 13/4/10
f 60/17/11 74/18/11 48/19/11
f 74/20/12 73/21/12 51/22/12
f 49/23/13 3/4/13 12/2/13
f 49/24/14 79/25/14 61/26/14
f 5/2/15 73/27/15 1/4/15
f 5/4/16 77/28/16 64/29/16
f 4/4/17 65/30/17 77/31/17
f 65/32/18 8/4/18 66/33/18
f 66/34/19 6/2/19 72/35/19
f 6/4/20 53/36/20 72/37/20
f 9/2/21 7/15/21 11/4/21
f 7/15/22 9/4/22 10/2/22
f 6/4/23 8/2/23 7/15/23
f 7/15/24 8/4/24 11/2/24
f 67/38/25 9/4/25 69/39/25
f 10/15/26 67/40/26 75/41/26
f 10/15/27 76/42/27 13/2/27
f 13/4/28 79/43/28 12/15/28
f 11/2/29 78/44/29 70/45/29
f 8/2/30 5/15/30 11/4/30
f 4/2/31 5/15/31 8/4/31
f 71/46/32 9/2/32 11/15/32
f 71/47/33 11/15/33 70/48/33
f 52/49/34 29/50/34 30/51/34
f 40/52/35 32/53/35 44/54/35
f 32/55/36 42/56/36 46/57/36
f 58/58/37 14/59/37 26/59/37
f 15/60/38 23/61/38 25/62/38
f 15/60/39 36/63/39 38/64/39
f 20/65/40 50/66/40 2/4/40
f 16/67/41 31/68/41 35/69/41
f 5/4/42 1/2/42 60/5/42
f 7/2/3 55/70/3 54/7/3
f 56/11/5 7/4/5 10/2/5
f 59/13/6 57/71/6 10/4/6
f 10/4/6 2/2/6 17/14/6
f 48/19/11 61/72/11 60/17/11
f 60/17/11 1/2/11 74/18/11
f 51/22/12 20/73/12 74/20/12
f 74/20/12 1/4/12 73/21/12
f 61/26/43 48/74/43 49/24/43
f 49/24/44 12/4/44 79/25/44
f 79/25/45 62/75/45 61/26/45
f 5/2/15 63/76/15 73/27/15
f 64/29/16 63/77/16 5/4/16
f 5/4/16 4/2/16 77/28/16
f 4/4/17 8/2/17 65/30/17
f 66/34/19 8/4/19 6/2/19
f 6/4/20 7/2/20 53/36/20
f 69/39/25 68/78/25 67/38/25
f 67/38/25 10/15/25 9/4/25
f 10/15/27 75/79/27 76/42/27
f 13/4/28 76/80/28 79/43/28
f 11/2/46 5/15/46 78/44/46
f 71/46/32 69/81/32 9/2/32
f 52/49/34 18/82/34 29/50/34
f 44/54/47 43/83/47 40/52/47
f 40/52/35 41/84/35 32/53/35
f 32/53/35 33/85/35 44/54/35
f 46/57/36 45/86/36 27/87/36
f 27/87/36 28/88/36 32/55/36
f 32/55/36 41/89/36 42/56/36
f 42/56/48 47/90/48 46/57/48
f 46/57/36 27/87/36 32/55/36
f 26/91/38 14/59/38 15/60/38
f 15/60/38 22/60/38 23/61/38
f 23/61/38 24/92/38 25/62/38
f 25/62/38 26/91/38 15/60/38
f 38/64/39 39/93/39 21/94/39
f 21/94/39 22/60/39 15/60/39
f 15/60/39 35/69/39 36/63/39
f 36/63/49 37/95/49 38/64/49
f 38/64/39 21/94/39 15/60/39
f 2/4/50 49/96/50 20/65/50
f 20/65/51 51/97/51 50/66/51
f 35/69/41 15/60/41 14/59/41
f 14/59/52 58/98/52 16/67/52
f 16/67/53 19/99/53 31/68/53
f 31/68/54 34/100/54 35/69/54
f 35/69/41 14/59/41 16/67/41
