# Blender 4.0.2
# www.blender.org
mtllib 立方体.001_cell.036.mtl
o 立方体.001_cell.036
v 15.077103 5.574625 -17.285456
v 15.094728 5.641427 -17.268440
v 15.069545 5.611813 -17.292311
v 15.521778 5.343428 -16.905022
v 15.131371 5.680058 -17.285349
v 15.299809 5.713225 -17.254932
v 15.125181 5.665717 -17.370279
v 15.254724 5.665149 -17.503819
v 15.138105 5.588374 -17.269669
v 15.703110 5.347530 -17.106842
v 15.710449 5.343628 -17.099720
v 15.129405 5.557740 -17.278111
v 15.397240 5.516232 -17.403622
v 15.455337 5.377973 -16.961864
v 15.291286 5.575250 -17.506426
v 15.710519 5.368381 -17.099651
v 15.710449 5.464433 -17.099720
v 15.710039 5.685348 -17.100117
v 15.495525 5.355811 -16.922871
v 15.107689 5.557745 -17.255726
v 15.289685 5.583380 -17.507978
v 15.114292 5.581743 -17.248896
v 15.277969 5.643547 -17.519346
v 15.295343 5.666817 -17.502489
v 15.300605 5.673845 -17.497385
v 15.693954 5.699152 -17.115725
v 15.675725 5.714426 -17.133411
v 15.333962 5.494519 -17.079632
v 15.127447 5.613344 -17.236624
v 15.158638 5.639308 -17.245829
v 15.116224 5.588374 -17.247118
v 15.367299 5.695653 -17.432673
v 15.493560 5.713712 -17.310163
v 15.421174 5.713007 -17.380398
v 15.703110 5.347530 -17.106842
v 15.710449 5.343628 -17.099720
v 15.710519 5.368381 -17.099651
v 15.710449 5.464433 -17.099720
v 15.710039 5.685348 -17.100117
v 15.107689 5.557745 -17.255726
v 15.114292 5.581743 -17.248896
v 15.693954 5.699152 -17.115725
v 15.675725 5.714426 -17.133411
v 15.129405 5.557740 -17.278111
v 15.333962 5.494519 -17.079632
v 15.158638 5.639308 -17.245829
v 15.127447 5.613344 -17.236624
v 15.116224 5.588374 -17.247118
v 15.493560 5.713712 -17.310163
v 15.421174 5.713007 -17.380398
v 15.495525 5.355811 -16.922871
v 15.289685 5.583380 -17.507978
v 15.277969 5.643547 -17.519346
v 15.295343 5.666817 -17.502489
v 15.300605 5.673845 -17.497385
v 15.397240 5.516232 -17.403622
v 15.367299 5.695653 -17.432673
v 15.455337 5.377973 -16.961864
v 15.291286 5.575250 -17.506426
vn -0.2555 -0.9343 -0.2486
vn -0.2642 -0.9298 -0.2563
vn -0.2652 -0.9286 -0.2597
vn 0.7181 -0.0039 0.6959
vn 0.7178 0.0010 0.6962
vn 0.7173 0.0026 0.6967
vn -0.2543 0.5809 0.7732
vn -0.2649 -0.9298 -0.2554
vn -0.6921 -0.2645 -0.6716
vn -0.7000 -0.0106 0.7141
vn -0.6924 -0.2619 -0.6723
vn 0.0025 0.5855 -0.8107
vn 0.0024 0.5865 -0.8099
vn -0.2500 0.5903 0.7675
vn -0.6933 0.0087 0.7206
vn -0.7369 0.6735 -0.0582
vn -0.7367 0.6735 -0.0600
vn -0.6944 -0.2561 -0.6725
vn -0.1619 0.9735 -0.1612
vn -0.0041 1.0000 -0.0058
vn -0.0028 1.0000 -0.0011
vn -0.1610 0.9743 -0.1575
vn -0.1643 0.9745 -0.1526
vn 0.6964 -0.0000 -0.7177
vn -0.6964 -0.0000 0.7177
vn 0.6113 -0.5240 0.5931
vn 0.6673 -0.3680 0.6475
vn -0.2525 0.5807 0.7740
vn -0.2642 -0.9298 -0.2562
vn -0.2540 0.5804 0.7737
vn -0.2540 0.5797 0.7742
vn -0.2545 0.5801 0.7738
vn 0.6964 -0.0000 -0.7176
vn 0.6965 -0.0021 -0.7176
vn 0.6963 0.0001 -0.7177
vn 0.6965 -0.0000 -0.7175
vn -0.7068 -0.0455 0.7060
vn -0.2526 0.5807 0.7739
vn -0.2526 0.5808 0.7738
vn -0.2521 0.5809 0.7739
vt 1.000000 0.247697
vt 0.689810 0.000000
vt 1.000000 0.000000
vt 1.000000 0.272053
vt 0.951062 0.025953
vt 0.781196 0.000000
vt 0.272053 0.272053
vt 0.000000 0.000000
vt 0.708503 0.000000
vt 1.000000 0.310190
vt 1.000000 1.000000
vt 0.708503 0.708503
vt 1.000000 0.659570
vt 1.000000 0.036559
vt 0.659570 0.659570
vt 0.172800 0.147966
vt 0.851909 0.851909
vt 1.000000 0.850584
vt 0.781387 0.000000
vt 1.000000 0.218804
vt 0.837254 0.000000
vt 0.781387 0.781387
vt 0.049460 0.000000
vt 0.240757 0.240757
vt 0.182289 0.000000
vt 0.049460 0.049460
vt 0.072864 0.000000
vt 1.000000 0.944344
vt 1.000000 0.162746
vt 0.829610 0.154165
vt 0.635086 0.000000
vt 0.412587 0.000000
vt 1.000000 0.262751
vt 0.262751 0.262751
vt 0.927136 0.000000
vt 0.635086 0.635086
vt 0.594619 0.543115
vt 0.572629 0.617941
vt 0.556563 0.624882
vt 0.588639 0.200880
vt 0.560570 0.137601
vt 0.572601 0.161811
vt 0.589002 0.198680
vt 0.587856 0.202615
vt 0.588469 0.201255
vt 0.944344 0.944344
vt 0.764225 0.000000
vt 0.247697 0.247697
vt 0.149416 0.000000
vt 0.926973 0.000000
vt 0.764225 0.764225
vt 1.000000 0.130996
vt 0.885617 0.885617
vt 1.000000 0.240757
vt 0.130996 0.130996
vt 1.000000 0.817711
vt 1.000000 0.587413
vt 0.555571 0.624868
vt 0.556149 0.623404
vt 0.581504 0.562391
vt 0.590742 0.541256
vt 0.591213 0.540937
vt 0.594695 0.538600
vt 0.594640 0.542066
vt 0.591305 0.556419
vt 0.588604 0.567165
vt 0.584011 0.581604
vt 0.570890 0.621577
vt 0.569350 0.624786
vt 0.560433 0.624868
vt 0.589380 0.196393
vt 0.587856 0.202615
vt 0.557342 0.129584
vt 0.589380 0.196393
vt 0.587856 0.202615
vt 0.036559 0.036559
vt 1.000000 0.851909
s 0
usemtl 石头
f 35/1/1 36/2/1 4/3/1
f 1/3/2 56/4/2 44/5/2
f 59/6/3 56/7/3 1/8/3
f 37/9/4 4/3/4 36/10/4
f 4/11/5 37/12/5 38/13/5
f 39/14/6 4/11/6 38/15/6
f 30/16/7 6/8/7 2/3/7
f 51/17/8 58/18/8 4/11/8
f 1/11/9 52/19/9 59/20/9
f 1/11/10 41/21/10 3/3/10
f 8/3/11 52/22/11 3/8/11
f 8/8/12 54/23/12 53/24/12
f 8/8/13 55/25/13 54/26/13
f 43/27/14 6/3/14 42/28/14
f 2/8/15 41/29/15 48/30/15
f 5/3/16 3/11/16 2/8/16
f 5/8/17 7/3/17 3/11/17
f 7/8/18 8/3/18 3/11/18
f 57/31/19 8/11/19 7/8/19
f 50/32/20 6/3/20 49/33/20
f 49/34/21 6/8/21 43/35/21
f 6/3/22 57/36/22 7/8/22
f 7/8/23 5/3/23 6/11/23
f 25/37/24 27/38/24 16/39/24
f 9/40/25 14/41/25 28/42/25
f 9/40/26 29/43/26 31/40/26
f 12/44/27 31/40/27 22/45/27
f 42/46/28 45/47/28 4/11/28
f 56/4/2 35/48/2 4/8/2
f 4/8/2 58/49/2 44/5/2
f 44/5/29 40/50/29 1/3/29
f 56/4/2 4/8/2 44/5/2
f 30/16/30 45/51/30 6/8/30
f 6/8/31 5/8/31 2/3/31
f 2/3/32 47/52/32 30/16/32
f 1/11/9 3/8/9 52/19/9
f 1/11/10 40/53/10 41/21/10
f 8/3/11 53/54/11 52/22/11
f 48/30/15 47/55/15 2/8/15
f 2/8/15 3/3/15 41/29/15
f 57/31/19 55/56/19 8/11/19
f 6/3/22 50/57/22 57/36/22
f 16/39/24 11/58/24 10/59/24
f 10/59/24 13/60/24 15/61/24
f 15/61/33 21/62/33 23/63/33
f 23/63/34 24/64/34 25/37/34
f 25/37/35 32/65/35 34/66/35
f 34/66/24 33/67/24 27/38/24
f 27/38/24 26/68/24 18/69/24
f 18/69/36 17/70/36 16/39/36
f 16/39/24 10/59/24 15/61/24
f 15/61/24 23/63/24 25/37/24
f 25/37/24 34/66/24 27/38/24
f 27/38/24 18/69/24 16/39/24
f 16/39/24 15/61/24 25/37/24
f 28/42/37 46/71/37 9/40/37
f 9/40/25 12/72/25 14/41/25
f 14/41/25 19/73/25 28/42/25
f 9/40/26 46/74/26 29/43/26
f 22/45/27 20/75/27 12/44/27
f 12/44/27 9/40/27 31/40/27
f 4/11/38 39/76/38 42/46/38
f 42/46/39 6/8/39 45/47/39
f 45/47/40 51/77/40 4/11/40
