# Blender 4.0.2
# www.blender.org
mtllib 立方体.001_cell.104.mtl
o 立方体.001_cell.104
v 14.905741 3.483768 -17.325901
v 14.836243 3.379740 -17.393335
v 14.905741 3.379785 -17.325901
v 14.967203 3.569943 -17.389246
v 14.868679 3.422474 -17.484713
v 14.967190 3.395022 -17.389233
v 14.868676 3.387539 -17.484711
v 14.967099 3.381821 -17.389139
v 14.868638 3.381887 -17.484671
v 14.955062 3.381096 -17.376734
v 14.852755 3.380930 -17.468302
v 14.838784 3.380558 -17.453903
v 14.868679 3.422474 -17.484713
v 14.967203 3.569943 -17.389246
v 14.967190 3.395022 -17.389233
v 14.967099 3.381821 -17.389139
v 14.955062 3.381096 -17.376734
v 14.905741 3.379785 -17.325901
v 14.852755 3.380930 -17.468302
v 14.868638 3.381887 -17.484671
v 14.838784 3.380558 -17.453903
v 14.836243 3.379740 -17.393335
v 14.868676 3.387539 -17.484711
vn -0.6964 -0.0000 0.7177
vn 0.7177 -0.0000 0.6964
vn 0.6960 -0.0001 -0.7181
vn 0.6963 -0.0099 -0.7177
vn 0.0288 -0.9991 -0.0304
vn 0.0132 -0.9998 -0.0130
vn -0.7177 -0.0000 -0.6964
vn 0.7177 -0.0000 0.6963
vt 0.493797 0.230360
vt 0.498717 0.230360
vt 0.496168 0.244223
vt 0.502796 0.230360
vt 0.493797 0.230360
vt 0.493893 0.230360
vt 0.118660 0.099151
vt 0.245999 0.245999
vt 0.105332 0.105332
vt 0.641545 0.000000
vt 1.000000 0.105332
vt 1.000000 0.245999
vt 0.153484 0.000000
vt 1.000000 0.627818
vt 1.000000 0.828404
vt 0.240924 0.102425
vt 0.171596 0.000000
vt 0.372182 0.000000
vt 0.497239 0.278413
vt 0.497577 0.305375
vt 0.497303 0.305340
vt 0.494518 0.230360
vt 0.498717 0.230360
vt 0.493859 0.230360
vt 0.312733 0.215051
vt 0.846516 0.000000
vt 0.358455 0.000000
vt 0.383111 0.108394
vt 0.174692 0.030704
vt 0.497257 0.291014
vt 0.499270 0.305377
s 0
usemtl 石头
f 18/1/1 1/2/1 22/3/1
f 14/4/2 18/5/2 16/6/2
f 5/7/3 6/8/3 23/9/3
f 8/10/4 23/11/4 6/12/4
f 20/13/5 10/14/5 19/15/5
f 2/16/6 19/17/6 10/18/6
f 12/19/7 7/20/7 9/21/7
f 16/6/8 15/22/8 14/4/8
f 14/4/2 1/23/2 18/5/2
f 18/5/2 17/24/2 16/6/2
f 5/7/3 4/25/3 6/8/3
f 8/10/4 20/26/4 23/11/4
f 20/13/5 8/27/5 10/14/5
f 10/18/6 3/28/6 2/16/6
f 2/16/6 21/29/6 19/17/6
f 9/21/7 11/30/7 12/19/7
f 12/19/7 13/31/7 7/20/7
