# Blender 4.0.2
# www.blender.org
mtllib 立方体.001_cell.101.mtl
o 立方体.001_cell.101
v 15.962126 1.302642 -16.300919
v 16.023634 1.342768 -16.364309
v 16.060585 1.349193 -16.205385
v 15.962126 1.542854 -16.300919
v 16.060585 1.589154 -16.205385
v 16.023758 1.542896 -16.364437
v 16.122112 1.589197 -16.268797
v 16.121998 1.389257 -16.268679
v 15.962126 1.302642 -16.300919
v 16.023634 1.342768 -16.364309
v 16.060585 1.349193 -16.205385
v 15.962126 1.542854 -16.300919
v 16.060585 1.589154 -16.205385
v 16.023758 1.542896 -16.364437
v 16.122112 1.589197 -16.268797
v 16.121998 1.389257 -16.268679
vn -0.7177 -0.0000 -0.6964
vn 0.4870 -0.8699 -0.0781
vn -0.6964 -0.0000 0.7177
vn -0.2298 0.9475 -0.2224
vn 0.6973 -0.0009 -0.7168
vn 0.7177 -0.0000 0.6964
vn 0.6973 -0.0008 -0.7167
vt 0.397398 0.019640
vt 0.406866 0.019640
vt 0.406868 0.019640
vt 0.553619 0.000000
vt 0.893101 0.157942
vt 0.686584 0.158187
vt 0.398818 0.000000
vt 0.410444 0.000000
vt 0.231918 0.000000
vt 0.435103 0.132280
vt 0.235527 0.132056
vt 0.568512 0.000000
vt 1.000000 0.239659
vt 1.000000 0.446381
vt 0.400759 0.944609
vt 0.410444 1.000000
vt 0.398818 1.000000
vt 0.395499 0.019640
vt 0.760341 0.000000
vt 0.431488 0.000000
vt 0.768082 0.000000
vt 0.410446 0.944505
s 0
usemtl 石头
f 10/1/1 12/2/1 14/3/1
f 2/4/2 11/5/2 1/6/2
f 12/2/3 3/7/3 13/8/3
f 15/9/4 4/10/4 5/11/4
f 6/12/5 16/13/5 2/14/5
f 8/15/6 13/16/6 3/17/6
f 10/1/1 9/18/1 12/2/1
f 2/4/2 16/19/2 11/5/2
f 12/2/3 9/18/3 3/7/3
f 15/9/4 6/20/4 4/10/4
f 6/12/7 15/21/7 16/13/7
f 8/15/6 7/22/6 13/16/6
