# Blender 4.0.2
# www.blender.org
mtllib 立方体.001_cell.058.mtl
o 立方体.001_cell.058
v 15.221499 1.209454 -17.121782
v 15.748366 1.209744 -16.610516
v 15.325546 0.887707 -17.228271
v 15.409668 1.332426 -17.315765
v 15.759885 1.216711 -16.621689
v 15.968836 1.256033 -16.849012
v 15.974783 1.216749 -16.843243
v 15.974354 0.857600 -16.843658
v 15.497701 0.857600 -17.306147
v 15.436101 0.857600 -17.273001
v 15.482370 0.903507 -17.321022
v 15.348478 0.857600 -17.225599
v 15.455175 0.985567 -17.347408
v 15.447899 1.007616 -17.354469
v 15.447572 1.332499 -17.354786
v 15.269965 1.332332 -17.141729
v 15.458085 1.332640 -17.344585
v 15.757009 1.332621 -17.054544
v 15.743649 1.332322 -16.682121
v 15.764511 1.332295 -16.661879
v 15.957142 1.332367 -16.860359
v 15.752766 1.262962 -16.628529
v 15.775133 1.262962 -16.651573
v 15.729074 1.262962 -16.608122
v 15.721868 1.262962 -16.602228
v 15.861192 0.857600 -16.727072
v 15.264400 1.262962 -17.045485
v 15.446359 1.262962 -16.869110
v 15.809873 0.857600 -16.776814
v 15.532746 0.857600 -17.046253
v 15.219698 1.262962 -17.088945
v 15.213850 1.262962 -17.094652
v 15.259662 1.262962 -17.151726
v 15.974783 1.216749 -16.843243
v 15.974354 0.857600 -16.843658
v 15.497701 0.857600 -17.306147
v 15.436101 0.857600 -17.273001
v 15.447572 1.332499 -17.354786
v 15.458085 1.332640 -17.344585
v 15.757009 1.332621 -17.054544
v 15.743649 1.332322 -16.682121
v 15.764511 1.332295 -16.661879
v 15.752766 1.262962 -16.628529
v 15.775133 1.262962 -16.651573
v 15.729074 1.262962 -16.608122
v 15.861192 0.857600 -16.727072
v 15.809873 0.857600 -16.776814
v 15.264400 1.262962 -17.045485
v 15.219698 1.262962 -17.088945
v 15.213850 1.262962 -17.094652
v 15.259662 1.262962 -17.151726
v 15.348478 0.857600 -17.225599
v 15.532746 0.857600 -17.046253
v 15.957142 1.332367 -16.860359
v 15.968836 1.256033 -16.849012
v 15.269965 1.332332 -17.141729
v 15.721868 1.262962 -16.602228
v 15.482370 0.903507 -17.321022
v 15.446359 1.262962 -16.869110
v 15.455175 0.985567 -17.347408
v 15.447899 1.007616 -17.354469
vn 0.7023 0.2064 0.6813
vn 0.6964 -0.0000 -0.7177
vn -0.4331 -0.4055 -0.8050
vn -0.4354 -0.4031 -0.8049
vn -0.4365 -0.4018 -0.8050
vn -0.0000 1.0000 -0.0000
vn -0.0079 1.0000 -0.0058
vn -0.0007 1.0000 0.0008
vn 0.0005 1.0000 0.0008
vn 0.7018 0.2088 0.6811
vn 0.6384 0.2079 0.7411
vn 0.6214 0.1911 0.7598
vn 0.7000 -0.0121 0.7141
vn -0.6322 -0.4184 0.6522
vn -0.6326 -0.4200 0.6507
vn -0.6318 -0.4236 0.6491
vn -0.6338 -0.4199 0.6495
vn 0.7178 -0.0018 0.6962
vn -0.6325 -0.4166 0.6530
vn -0.6964 -0.0000 0.7177
vn -0.7638 0.2017 -0.6131
vn -0.0000 -1.0000 -0.0000
vn -0.7173 -0.0014 -0.6968
vn 0.6966 0.0004 -0.7175
vn 0.6963 -0.0001 -0.7177
vn 0.6964 -0.0000 -0.7176
vn 0.7176 -0.0017 0.6965
vn -0.6964 0.0009 0.7176
vn -0.7638 0.2018 -0.6130
vn 0.0004 -1.0000 -0.0000
vn -0.7173 -0.0014 -0.6967
vt 1.000000 0.000000
vt 1.000000 0.348404
vt 0.660462 0.000000
vt 0.377024 0.579372
vt 0.395738 0.574528
vt 0.390733 0.677595
vt 0.181953 0.000000
vt 0.154023 0.066322
vt 0.094417 0.000000
vt 1.000000 0.220000
vt 0.094418 0.094418
vt 0.621881 0.000000
vt 0.269196 0.000000
vt 0.220000 0.220000
vt 0.000000 0.000000
vt 0.392201 0.165554
vt 0.392434 0.073811
vt 0.392444 0.176633
vt 1.000000 0.393122
vt 0.102336 0.102336
vt 0.041357 0.041357
vt 1.000000 0.392866
vt 0.393122 0.393122
vt 0.040952 0.040952
vt 0.339626 0.000000
vt 0.392866 0.392866
vt 0.339626 0.339626
vt 0.635217 0.035323
vt 1.000000 0.480854
vt 1.000000 1.000000
vt 0.599822 0.599822
vt 0.480854 0.480854
vt 0.445977 0.000000
vt 1.000000 0.122334
vt 0.558732 0.000000
vt 1.000000 0.899377
vt 0.875547 0.875547
vt 0.084491 0.084491
vt 1.000000 0.375578
vt 0.378119 0.000000
vt 0.375578 0.375578
vt 0.100723 0.100723
vt 0.439928 0.000000
vt 0.877666 0.000000
vt 0.348404 0.348404
vt 1.000000 0.554023
vt 0.441268 0.000000
vt 0.395369 0.174577
vt 0.392434 0.073810
vt 0.395354 0.075929
vt 0.496136 0.222656
vt 0.375000 0.582430
vt 0.272952 0.677506
vt 0.273177 0.611940
vt 0.269196 0.269196
vt 0.375000 0.677510
vt 0.380631 0.573948
vt 0.381602 0.572496
vt 0.395788 0.572431
vt 0.394461 0.634155
vt 0.395680 0.674076
vt 0.392420 0.676409
vt 0.181953 0.181953
vt 0.392423 0.175650
vt 0.392397 0.174480
vt 0.391407 0.129276
vt 0.392422 0.074363
vt 0.392426 0.074210
vt 0.392434 0.073810
vt 1.000000 0.041357
vt 1.000000 0.040952
vt 0.035403 0.000000
vt 0.599822 0.000000
vt 1.000000 0.339538
vt 0.035403 0.035403
vt 1.000000 0.084491
vt 0.899376 0.899376
vt 0.100723 0.000000
vt 0.194561 0.122263
vt 0.395250 0.080090
vt 1.000000 0.127670
vt 0.560072 0.000000
vt 0.273426 0.575128
vt 0.333116 0.579406
vt 0.272929 0.667274
vt 1.000000 0.102336
s 0
usemtl 石头
f 5/1/1 34/2/1 55/3/1
f 11/4/2 17/5/2 7/6/2
f 58/7/3 36/8/3 37/9/3
f 60/10/4 37/11/4 52/12/4
f 61/13/5 60/14/5 3/15/5
f 48/16/6 22/17/6 51/18/6
f 4/15/7 39/19/7 38/20/7
f 56/21/8 18/22/8 39/23/8
f 41/24/9 21/25/9 18/26/9
f 5/1/10 21/27/10 23/28/10
f 24/29/11 5/30/11 43/31/11
f 2/1/12 24/32/12 57/33/12
f 46/34/13 5/30/13 2/15/13
f 59/35/14 47/36/14 46/37/14
f 27/38/15 3/1/15 53/39/15
f 52/40/16 53/41/16 3/15/16
f 1/1/17 31/42/17 32/43/17
f 46/44/18 34/45/18 5/15/18
f 57/46/19 59/47/19 2/1/19
f 16/48/20 44/49/20 20/50/20
f 4/30/21 1/15/21 33/51/21
f 9/52/22 26/53/22 30/54/22
f 4/1/23 61/55/23 3/30/23
f 35/56/2 9/52/2 11/4/2
f 11/4/24 13/57/24 14/58/24
f 14/58/2 15/59/2 17/5/2
f 17/5/25 40/60/25 54/61/25
f 54/61/26 6/62/26 7/6/26
f 7/6/2 35/56/2 11/4/2
f 11/4/2 14/58/2 17/5/2
f 17/5/2 54/61/2 7/6/2
f 52/12/4 3/1/4 60/10/4
f 60/10/4 58/63/4 37/11/4
f 50/64/6 49/65/6 48/16/6
f 48/16/6 28/66/6 25/67/6
f 25/67/6 45/68/6 22/17/6
f 22/17/6 44/69/6 51/18/6
f 51/18/6 50/64/6 48/16/6
f 48/16/6 25/67/6 22/17/6
f 4/15/7 56/70/7 39/19/7
f 56/21/8 41/71/8 18/22/8
f 41/24/9 42/72/9 21/25/9
f 23/28/10 43/73/10 5/1/10
f 5/1/10 55/74/10 21/27/10
f 21/27/10 42/75/10 23/28/10
f 2/1/12 5/30/12 24/32/12
f 46/37/14 2/15/14 59/35/14
f 59/35/14 27/76/14 47/36/14
f 53/39/15 47/77/15 27/38/15
f 27/38/15 31/78/15 3/1/15
f 1/1/17 3/30/17 31/42/17
f 46/44/27 8/79/27 34/45/27
f 20/50/28 19/80/28 16/48/28
f 16/48/20 51/18/20 44/49/20
f 33/51/29 56/81/29 4/30/29
f 1/15/21 32/82/21 33/51/21
f 12/83/22 10/84/22 9/52/22
f 9/52/22 35/56/22 26/53/22
f 26/53/30 29/85/30 30/54/30
f 30/54/22 12/83/22 9/52/22
f 3/30/31 1/15/31 4/1/31
f 4/1/23 38/86/23 61/55/23
