# Blender 4.0.2
# www.blender.org
mtllib 立方体.001_cell.068.mtl
o 立方体.001_cell.068
v 15.093390 5.588374 -17.223585
v 15.071503 5.640687 -17.244822
v 15.065804 5.634012 -17.250351
v 15.046999 5.611308 -17.268599
v 15.052032 5.583037 -17.263714
v 15.076783 5.529900 -17.239698
v 15.060354 5.538950 -17.255638
v 15.104159 5.612762 -17.213135
vn -0.6964 -0.0000 0.7177
vt 0.592437 0.206382
vt 0.591082 0.209130
vt 0.588639 0.200880
vt 0.588993 0.198732
vt 0.592356 0.205246
vt 0.592658 0.210134
vt 0.588595 0.207470
vt 0.587145 0.204192
s 0
usemtl 金边
f 3/1/1 5/2/1 1/3/1
f 8/4/1 2/5/1 3/1/1
f 3/1/1 4/6/1 5/2/1
f 5/2/1 7/7/1 6/8/1
f 1/3/1 8/4/1 3/1/1
f 5/2/1 6/8/1 1/3/1
