# Blender 4.0.2
# www.blender.org
mtllib 立方体.001_cell.169.mtl
o 立方体.001_cell.169
v 16.060581 3.927587 -16.205381
v 16.060581 3.602591 -16.205381
v 15.981714 4.058644 -16.281904
v 16.121984 4.055729 -16.268665
v 16.121969 3.909523 -16.268650
v 16.110224 4.075202 -16.280041
v 16.010489 4.075202 -16.288347
v 16.084431 4.150110 -16.304880
v 16.121929 3.845548 -16.268608
v 16.074907 3.506949 -16.220146
v 16.073446 3.513344 -16.218639
v 16.041126 3.562224 -16.224257
v 16.070135 3.612146 -16.215227
v 16.072441 3.561585 -16.217604
v 15.979647 4.062830 -16.283911
v 16.121969 3.909523 -16.268650
v 16.121984 4.055729 -16.268665
v 16.101215 4.101492 -16.288754
v 15.981714 4.058644 -16.281904
v 16.074907 3.506949 -16.220146
v 16.121929 3.845548 -16.268608
v 16.067377 3.516556 -16.220709
v 16.055399 3.550225 -16.224003
v 16.046663 3.570007 -16.225780
v 16.041126 3.562224 -16.224257
v 15.979647 4.062830 -16.283911
vn -0.6964 -0.0000 0.7177
vn 0.7177 -0.0000 0.6964
vn 0.6950 -0.0002 -0.7190
vn -0.0905 -0.1288 -0.9875
vn 0.6915 -0.0009 -0.7224
vn 0.6964 -0.0000 -0.7177
vn -0.0904 -0.1287 -0.9875
vn -0.1441 -0.1311 -0.9808
vn -0.0908 -0.1288 -0.9875
vn -0.0907 -0.1289 -0.9875
vt 0.507996 0.000000
vt 0.526743 0.015732
vt 0.526854 0.016144
vt 0.523743 1.000000
vt 0.506009 0.989303
vt 0.519768 0.944668
vt 0.287378 0.000000
vt 0.486165 0.108378
vt 0.645500 0.278098
vt 0.837896 0.593801
vt 0.907184 0.827335
vt 0.907687 0.797442
vt 1.000000 0.712622
vt 0.574857 0.574857
vt 1.000000 0.608033
vt 0.505331 0.003881
vt 0.523743 0.000000
vt 0.522867 0.944631
vt 0.529951 0.944617
vt 0.507996 1.000000
vt 0.508459 0.991383
vt 0.503672 0.988397
vt 0.503362 0.987079
vt 0.391967 0.000000
vt 0.890104 0.774803
vt 0.774811 0.591885
vt 0.778751 0.592494
vt 1.000000 0.574857
vt 1.000000 0.743442
vt 0.907801 0.787414
vt 0.900976 0.814981
vt 0.743442 0.743442
s 0
usemtl 石头
f 2/1/1 19/2/1 26/3/1
f 1/4/2 14/5/2 9/6/2
f 5/7/3 6/8/3 4/9/3
f 7/10/4 10/11/4 23/12/4
f 5/13/5 8/14/5 18/15/5
f 26/3/1 12/16/1 2/1/1
f 2/1/1 1/17/1 19/2/1
f 16/18/2 17/19/2 1/4/2
f 1/4/2 2/20/2 13/21/2
f 14/5/2 11/22/2 20/23/2
f 1/4/2 13/21/2 14/5/2
f 9/6/2 16/18/2 1/4/2
f 14/5/2 20/23/2 9/6/2
f 5/7/3 18/24/3 6/8/3
f 25/25/6 15/26/6 3/27/6
f 7/10/7 8/28/7 21/29/7
f 25/25/8 3/27/8 7/10/8
f 24/30/9 25/25/9 7/10/9
f 7/10/4 21/29/4 10/11/4
f 10/11/10 22/31/10 23/12/10
f 23/12/4 24/30/4 7/10/4
f 5/13/5 21/32/5 8/14/5
