# Blender 4.0.2
# www.blender.org
mtllib 立方体.001_cell.128.mtl
o 立方体.001_cell.128
v 15.166052 5.749432 -17.196005
v 15.092705 5.839350 -17.224251
v 15.078144 5.806376 -17.238379
v 15.099871 5.806603 -17.260571
v 15.244791 5.819415 -17.120016
v 15.208582 5.758912 -17.154791
v 15.109239 5.827679 -17.251604
v 15.187122 5.758941 -17.132639
v 15.146106 5.929027 -17.172436
v 15.310134 5.965511 -17.013283
v 15.152088 5.926362 -17.181778
v 15.158950 5.914455 -17.203035
v 15.323673 5.951494 -17.043940
v 15.122390 5.852691 -17.238951
v 15.318740 5.943159 -17.048786
v 15.114418 5.839350 -17.246630
v 15.078144 5.806376 -17.238379
v 15.099871 5.806603 -17.260571
v 15.143632 5.750230 -17.174837
v 15.187122 5.758941 -17.132639
v 15.244791 5.819415 -17.120016
v 15.208582 5.758912 -17.154791
v 15.152088 5.926362 -17.181778
v 15.158950 5.914455 -17.203035
v 15.146106 5.929027 -17.172436
v 15.323673 5.951494 -17.043940
v 15.318740 5.943159 -17.048786
v 15.109239 5.827679 -17.251604
v 15.122390 5.852691 -17.238951
v 15.114418 5.839350 -17.246630
v 15.310134 5.965511 -17.013283
vn -0.3755 -0.8517 -0.3656
vn -0.3714 -0.8505 -0.3724
vn 0.6964 -0.0043 -0.7176
vn 0.0529 0.9687 -0.2425
vn 0.2121 0.8802 -0.4245
vn 0.6937 0.0081 -0.7202
vn 0.6964 -0.0031 -0.7176
vn 0.0799 -0.9893 0.1219
vn 0.5523 -0.6386 0.5359
vn -0.6113 0.5240 -0.5931
vn -0.5523 0.6386 -0.5359
vn 0.1429 0.9225 -0.3587
vn 0.1129 -0.9874 0.1107
vn 0.5523 -0.6385 0.5359
vt 0.431354 0.000000
vt 1.000000 0.000000
vt 1.000000 0.077053
vt 1.000000 1.000000
vt 0.431355 0.431355
vt 1.000000 0.289450
vt 1.000000 0.838562
vt 0.289450 0.289450
vt 0.101878 0.000000
vt 0.707740 0.707740
vt 1.000000 0.097974
vt 1.000000 0.726003
vt 0.795358 0.000000
vt 0.726003 0.726003
vt 0.107333 0.000000
vt 0.204642 0.000000
vt 1.000000 0.110797
vt 1.000000 0.821025
vt 1.000000 0.517987
vt 0.916888 0.864924
vt 0.821026 0.821026
vt 0.910147 0.838548
vt 0.071595 0.071595
vt 0.590595 0.157645
vt 0.589825 0.182186
vt 0.590512 0.160300
vt 0.599555 0.201017
vt 0.599398 0.202045
vt 0.599115 0.203901
vt 0.599555 0.201017
vt 0.599783 0.190681
vt 0.599590 0.199432
vt 0.482013 0.000000
vt 0.037849 0.037849
vt 0.892667 0.000000
vt 0.110797 0.110797
vt 1.000000 0.898122
vt 0.838562 0.838562
vt 0.590549 0.159120
vt 0.589825 0.182183
vt 0.590051 0.174999
vt 0.599112 0.203921
vt 0.599794 0.190175
vt 0.599752 0.192095
s 0
usemtl 石头
f 17/1/1 1/2/1 19/3/1
f 1/4/2 17/5/2 18/6/2
f 22/7/3 18/8/3 28/9/3
f 9/10/4 26/11/4 23/12/4
f 24/13/5 23/14/5 26/15/5
f 24/16/6 27/17/6 29/18/6
f 21/19/7 16/20/7 29/21/7
f 1/4/8 20/22/8 19/23/8
f 31/24/9 6/25/9 15/26/9
f 2/27/10 7/28/10 4/29/10
f 2/30/11 11/31/11 14/32/11
f 28/9/3 21/33/3 22/7/3
f 22/7/3 1/4/3 18/8/3
f 9/10/12 10/34/12 26/11/12
f 24/16/6 26/35/6 27/17/6
f 29/21/7 27/36/7 21/19/7
f 21/19/7 28/37/7 16/20/7
f 1/4/13 22/38/13 20/22/13
f 15/26/9 13/39/9 31/24/9
f 31/24/9 8/40/9 6/25/9
f 6/25/14 5/41/14 15/26/14
f 4/29/10 3/42/10 2/27/10
f 2/27/10 30/27/10 7/28/10
f 14/32/11 30/30/11 2/30/11
f 2/30/11 25/43/11 11/31/11
f 11/31/11 12/44/11 14/32/11
