# Blender 4.0.2
# www.blender.org
mtllib 立方体.001_cell.081.mtl
o 立方体.001_cell.081
v 15.158680 6.395934 -17.163738
v 15.038033 5.967205 -17.197542
v 15.183227 6.359063 -17.139179
v 14.946839 6.223323 -17.286026
v 14.995571 6.333685 -17.238743
v 14.972786 6.169053 -17.343609
v 15.063573 5.934799 -17.252497
v 14.931412 6.169004 -17.300995
v 15.023338 6.301986 -17.295368
v 15.067772 6.454930 -17.168688
v 15.027485 6.333685 -17.271633
v 15.077737 6.461813 -17.159019
v 14.988674 6.223323 -17.329144
v 15.227834 6.215980 -17.096733
v 15.079977 5.967205 -17.240772
v 15.023716 5.934783 -17.211433
v 15.089978 6.443666 -17.147141
v 15.146427 6.359105 -17.092371
v 15.231835 6.223118 -17.092352
v 15.193226 6.227816 -17.046961
v 14.972786 6.169053 -17.343609
v 14.988674 6.223323 -17.329144
v 15.063573 5.934799 -17.252497
v 15.079977 5.967205 -17.240772
v 14.931412 6.169004 -17.300995
v 15.023338 6.301986 -17.295368
v 15.027485 6.333685 -17.271633
v 15.023716 5.934783 -17.211433
v 15.077737 6.461813 -17.159019
v 15.089978 6.443666 -17.147141
v 15.146427 6.359105 -17.092371
v 15.231835 6.223118 -17.092352
v 15.193226 6.227816 -17.046961
v 15.227834 6.215980 -17.096733
v 15.067772 6.454930 -17.168688
vn 0.6959 -0.0040 -0.7181
vn 0.3803 0.5219 -0.7635
vn -0.6964 -0.0000 0.7177
vn 0.5812 0.6823 0.4435
vn 0.5774 0.6791 0.4533
vn 0.7218 0.0198 -0.6918
vn 0.7050 0.4429 0.5539
vn -0.5523 0.6386 -0.5359
vn -0.6113 0.5240 -0.5931
vn -0.6673 0.3680 -0.6475
vn -0.6286 -0.4812 -0.6109
vn 0.5523 -0.6386 0.5359
vn 0.6113 -0.5240 0.5931
vn 0.6425 -0.0485 -0.7648
vn 0.7396 -0.0374 -0.6720
vn 0.6969 0.0008 -0.7171
vn 0.6952 0.0030 -0.7188
vn -0.6963 -0.0000 0.7177
vn -0.6289 -0.4813 -0.6106
vt 1.000000 0.763471
vt 0.627233 0.627233
vt 0.423146 0.000000
vt 1.000000 0.627233
vt 0.482103 0.046079
vt 0.482245 0.000000
vt 0.615434 0.182350
vt 0.625000 0.212442
vt 0.622517 0.225240
vt 1.000000 0.000000
vt 0.515525 0.515525
vt 0.000000 0.000000
vt 1.000000 0.515525
vt 0.892830 0.000000
vt 1.000000 0.576854
vt 1.000000 1.000000
vt 0.350006 0.350006
vt 0.107170 0.000000
vt 0.445612 0.338019
vt 0.846216 0.537558
vt 0.875000 0.537558
vt 0.875000 0.551961
vt 0.837330 0.534627
vt 0.837267 0.527354
vt 0.837695 0.523799
vt 0.875000 0.527354
vt 0.062345 0.062345
vt 0.551924 0.175796
vt 0.767812 0.767812
vt 0.606588 0.173573
vt 0.606091 0.203972
vt 0.605679 0.206803
vt 0.605676 0.206827
vt 0.900658 0.128053
vt 1.000000 0.044630
vt 0.965998 0.864648
vt 0.877752 0.519445
vt 0.606597 0.173015
vt 0.622972 0.193610
vt 0.624589 0.196052
vt 0.625000 0.198039
vt 0.623765 0.222162
vt 1.000000 0.517755
vt 0.350006 0.000000
vt 0.846216 0.537558
vt 0.875000 0.523796
vt 0.175746 0.073533
vt 0.606574 0.174421
s 0
usemtl 石头
f 21/1/1 26/2/1 34/3/1
f 26/4/2 10/5/2 29/6/2
f 31/7/3 5/8/3 25/9/3
f 1/10/4 17/11/4 3/12/4
f 17/13/5 18/14/5 3/10/5
f 3/12/6 34/15/6 1/16/6
f 32/17/7 18/18/7 33/19/7
f 11/20/8 5/21/8 35/22/8
f 5/21/9 9/23/9 13/24/9
f 6/25/10 4/26/10 13/24/10
f 23/27/11 8/28/11 21/29/11
f 19/30/12 2/31/12 15/31/12
f 7/32/13 2/31/13 16/33/13
f 24/34/14 23/35/14 21/1/14
f 21/1/15 22/36/15 26/2/15
f 26/2/16 1/12/16 34/3/16
f 34/3/17 24/34/17 21/1/17
f 29/6/2 1/10/2 26/4/2
f 26/4/2 27/37/2 10/5/2
f 25/9/3 16/33/3 2/31/3
f 2/31/3 20/38/3 31/7/3
f 31/7/18 30/39/18 12/40/18
f 12/40/3 35/41/3 5/8/3
f 5/8/3 4/42/3 25/9/3
f 25/9/3 2/31/3 31/7/3
f 31/7/3 12/40/3 5/8/3
f 1/10/4 29/43/4 17/11/4
f 3/12/6 32/44/6 34/15/6
f 32/17/7 3/12/7 18/18/7
f 13/24/9 4/26/9 5/21/9
f 5/21/9 11/45/9 9/23/9
f 6/25/10 25/46/10 4/26/10
f 23/27/19 28/47/19 8/28/19
f 15/31/12 14/48/12 19/30/12
f 19/30/12 20/38/12 2/31/12
f 7/32/13 15/31/13 2/31/13
