# Blender 4.0.2
# www.blender.org
mtllib 立方体.001_cell.132.mtl
o 立方体.001_cell.132
v 15.991713 5.288458 -16.484591
v 15.980670 5.219024 -16.407286
v 16.010925 5.247077 -16.465509
v 16.022762 5.283143 -16.582977
v 15.560523 5.218549 -16.935114
v 15.956827 5.191015 -16.429728
v 16.020092 5.252783 -16.511272
v 15.955643 5.240831 -16.476429
v 15.910929 5.240831 -16.430346
v 15.520549 5.185556 -16.898592
v 15.524478 5.185566 -16.894781
v 15.520691 5.218245 -16.898455
v 15.749397 5.253985 -16.676544
v 15.883620 5.204888 -16.546310
v 15.936416 5.208105 -16.495085
v 15.942635 5.208494 -16.489050
v 15.918153 5.285618 -16.445009
v 15.952035 5.285625 -16.479929
v 15.907323 5.285590 -16.433844
v 15.912913 5.170464 -16.428419
v 15.956530 5.209386 -16.475569
v 15.520549 5.185556 -16.898592
v 15.524478 5.185566 -16.894781
v 15.520691 5.218245 -16.898455
v 15.749397 5.253985 -16.676544
v 15.883620 5.204888 -16.546310
v 15.936416 5.208105 -16.495085
v 15.942635 5.208494 -16.489050
v 15.952035 5.285625 -16.479929
v 15.907323 5.285590 -16.433844
v 15.925530 5.288297 -16.416176
v 15.956530 5.209386 -16.475569
v 15.917899 5.170784 -16.423582
v 15.944053 5.201742 -16.398205
v 15.956440 5.223104 -16.386185
v 15.958383 5.218820 -16.384302
v 15.912913 5.170464 -16.428419
v 15.937669 5.262665 -16.404400
v 15.918153 5.285618 -16.445009
vn 0.3638 -0.8536 -0.3729
vn -0.6772 0.0060 -0.7358
vn 0.3869 -0.8525 -0.3514
vn 0.3886 -0.8536 -0.3469
vn 0.3890 -0.8538 -0.3459
vn -0.0800 0.9938 -0.0774
vn 0.8350 0.4968 0.2367
vn -0.0774 0.9944 -0.0726
vn 0.5993 0.5507 0.5810
vn 0.5987 0.5515 0.5809
vn 0.6050 0.5475 0.5781
vn 0.8543 0.4664 0.2293
vn 0.7439 -0.6650 0.0661
vn 0.7358 -0.6745 0.0600
vn 0.3894 -0.8541 -0.3448
vn 0.4669 -0.7621 0.4485
vn 0.6046 0.5340 0.5910
vn 0.4700 -0.7599 0.4490
vn -0.6964 -0.0000 0.7177
vn -0.0791 0.9938 -0.0785
vn -0.7132 -0.1115 -0.6920
vn -0.7171 -0.0393 -0.6958
vn -0.6964 -0.0009 0.7177
vn -0.6966 0.0044 0.7175
vn -0.0791 0.9938 -0.0786
vn -0.0794 0.9938 -0.0781
vt 1.000000 0.385733
vt 1.000000 1.000000
vt 0.934939 0.934939
vt 1.000000 0.373899
vt 0.385733 0.385733
vt 0.136917 0.000000
vt 1.000000 0.934939
vt 0.000000 0.000000
vt 1.000000 0.082555
vt 0.136917 0.136917
vt 0.082555 0.082555
vt 0.139626 0.000000
vt 1.000000 0.000000
vt 0.957041 0.025355
vt 0.883531 0.000000
vt 0.883531 0.883531
vt 1.000000 0.509510
vt 0.509510 0.509510
vt 1.000000 0.510559
vt 0.510559 0.510559
vt 0.756180 0.000000
vt 0.079204 0.000000
vt 0.724431 0.641280
vt 0.079204 0.079204
vt 0.390168 0.000000
vt 0.243820 0.000000
vt 0.393893 0.393893
vt 0.390168 0.390168
vt 0.550609 0.124564
vt 0.574052 0.041638
vt 0.575260 0.037626
vt 0.373898 0.373898
vt 0.510286 0.000000
vt 0.576649 0.037803
vt 0.578469 0.038523
vt 0.578469 0.038523
vt 0.573541 0.037407
vt 1.000000 0.489714
vt 0.883438 0.803607
vt 1.000000 0.860374
vt 0.178077 0.078611
vt 1.000000 0.393893
vt 0.578469 0.038523
vt 0.565198 0.078943
vt 0.549285 0.124593
vt 0.549504 0.123809
vt 0.570864 0.052170
vt 0.574426 0.040398
vt 0.578467 0.038522
s 0
usemtl 石头
f 22/1/1 5/2/1 23/3/1
f 24/4/2 5/2/2 22/5/2
f 5/2/3 26/6/3 23/7/3
f 4/8/4 27/9/4 26/10/4
f 27/11/5 7/8/5 28/12/5
f 1/13/6 29/14/6 39/15/6
f 1/2/7 3/8/7 4/13/7
f 39/16/8 31/17/8 1/2/8
f 1/2/9 31/18/9 38/19/9
f 2/13/10 38/20/10 35/21/10
f 2/8/11 3/13/11 1/2/11
f 3/8/12 7/13/12 4/2/12
f 3/8/13 2/13/13 7/2/13
f 2/8/14 6/13/14 7/2/14
f 7/2/15 33/22/15 32/23/15
f 33/24/16 6/8/16 34/25/16
f 35/26/17 36/27/17 2/8/17
f 2/13/18 34/28/18 6/8/18
f 12/29/19 15/30/19 21/31/19
f 4/13/20 24/32/20 13/33/20
f 9/34/21 17/35/21 18/36/21
f 9/34/22 21/31/22 37/37/22
f 5/2/3 4/8/3 26/6/3
f 4/8/4 7/13/4 27/9/4
f 1/13/6 13/38/6 29/14/6
f 39/16/8 30/39/8 31/17/8
f 2/13/10 1/2/10 38/20/10
f 32/23/15 28/40/15 7/2/15
f 7/2/15 6/8/15 33/22/15
f 33/22/15 20/41/15 32/23/15
f 2/13/18 36/42/18 34/28/18
f 21/31/19 8/34/19 18/43/19
f 18/43/23 25/44/23 12/29/23
f 12/29/19 10/45/19 11/46/19
f 11/46/19 14/47/19 15/30/19
f 15/30/24 16/48/24 21/31/24
f 21/31/19 18/43/19 12/29/19
f 12/29/19 11/46/19 15/30/19
f 13/33/25 1/8/25 4/13/25
f 4/13/26 5/2/26 24/32/26
f 18/36/21 8/34/21 9/34/21
f 9/34/21 19/49/21 17/35/21
f 9/34/22 8/34/22 21/31/22
