# Blender 4.0.2
# www.blender.org
mtllib 立方体.001_cell.084.mtl
o 立方体.001_cell.084
v 15.276387 1.516270 -17.090006
v 15.715267 1.516430 -16.664452
v 15.538033 3.428031 -16.881626
v 15.605299 3.411720 -16.816359
v 15.726192 3.423973 -17.084444
v 15.812324 3.403087 -17.000872
v 15.907326 3.379782 -16.908693
v 15.735379 3.379811 -16.690145
v 15.735434 1.625647 -16.690092
v 15.715277 1.625647 -16.664473
v 15.907368 2.060617 -16.908653
v 15.907207 1.606058 -16.908808
v 15.711136 3.427418 -17.099052
v 15.518563 3.432487 -16.900517
v 15.514272 3.431466 -16.904682
v 15.670274 3.417699 -17.138700
v 15.693138 1.625647 -16.641661
v 15.825580 1.605922 -16.988010
v 15.691529 1.516396 -16.643221
v 15.270494 1.516243 -17.051744
v 15.514947 1.605850 -17.289412
v 15.301587 3.379884 -17.111046
v 15.514934 3.380024 -17.289425
v 15.252025 1.516285 -17.069666
v 15.251926 1.587415 -17.069761
v 15.514870 1.661041 -17.289486
v 15.251924 1.625647 -17.069763
v 15.301467 1.625647 -17.111162
v 15.301598 3.373113 -17.111036
v 15.538033 3.428031 -16.881626
v 15.605299 3.411720 -16.816359
v 15.812324 3.403087 -17.000872
v 15.907326 3.379782 -16.908693
v 15.735379 3.379811 -16.690145
v 15.735434 1.625647 -16.690092
v 15.715277 1.625647 -16.664473
v 15.907368 2.060617 -16.908653
v 15.907207 1.606058 -16.908808
v 15.726192 3.423973 -17.084444
v 15.711136 3.427418 -17.099052
v 15.518563 3.432487 -16.900517
v 15.514272 3.431466 -16.904682
v 15.670274 3.417699 -17.138700
v 15.693138 1.625647 -16.641661
v 15.301587 3.379884 -17.111046
v 15.514934 3.380024 -17.289425
v 15.514947 1.605850 -17.289412
v 15.514870 1.661041 -17.289486
v 15.251924 1.625647 -17.069763
v 15.301467 1.625647 -17.111162
v 15.825580 1.605922 -16.988010
v 15.301598 3.373113 -17.111036
v 15.314398 3.373131 -17.098616
v 15.722632 1.643483 -16.702513
v 15.314269 1.643483 -17.098740
v 15.535898 3.410445 -16.883698
v 15.603091 3.394151 -16.818501
v 15.518604 3.414402 -16.900478
v 15.722579 3.364840 -16.702564
v 15.516446 3.413889 -16.902571
v 15.314410 3.364889 -17.098604
v 15.346396 1.643483 -17.131851
v 15.346525 3.373131 -17.131725
v 15.568025 3.410445 -16.916809
v 15.635219 3.394151 -16.851612
v 15.550731 3.414402 -16.933588
v 15.754705 3.364840 -16.735676
v 15.754759 1.643483 -16.735624
v 15.548573 3.413889 -16.935682
v 15.346538 3.364889 -17.131714
vn 0.1358 0.9850 0.1062
vn 0.1371 0.9847 0.1077
vn 0.7859 -0.0000 0.6183
vn 0.7865 -0.0005 0.6176
vn 0.1289 0.9866 0.0998
vn -0.1082 0.9856 -0.1301
vn 0.6964 -0.0000 -0.7177
vn 0.0009 -1.0000 -0.0006
vn 0.1939 -0.9605 -0.1996
vn -0.1109 0.9850 -0.1319
vn -0.6409 -0.0019 -0.7676
vn 0.1949 -0.9604 -0.1992
vn -0.6414 -0.0021 -0.7672
vn -0.0014 -1.0000 -0.0009
vn 0.7177 -0.0001 0.6964
vn -0.6412 -0.0001 -0.7674
vn 0.6665 -0.0205 0.7452
vn -0.0000 1.0000 -0.0000
vn -0.6964 -0.0000 0.7177
vn -0.7177 -0.0000 -0.6964
vn 0.1208 -0.9857 0.1172
vn -0.7177 -0.0021 -0.6964
vn 0.1231 -0.9852 0.1194
vn -0.1231 -0.9852 -0.1194
vn -0.1163 -0.9868 -0.1129
vn -0.1244 -0.9849 -0.1207
vn 0.6963 -0.0001 -0.7178
vn 0.6963 -0.0000 -0.7178
vn 0.6963 0.0001 -0.7177
vn -0.6415 0.0001 -0.7671
vn -0.6412 0.0001 -0.7673
vn 0.7176 0.0001 0.6965
vn -0.6963 -0.0000 0.7177
vn -0.6973 -0.0000 0.7168
vn -0.6968 0.0001 0.7173
vn -0.1230 -0.9852 -0.1194
vt 1.000000 0.490186
vt 0.427673 0.000000
vt 0.553031 0.000000
vt 1.000000 0.291818
vt 0.490186 0.490186
vt 1.000000 0.030332
vt 1.000000 0.292059
vt 0.030332 0.030332
vt 0.972039 0.030653
vt 0.292059 0.292059
vt 0.000000 0.000000
vt 0.292158 0.000000
vt 1.000000 0.572327
vt 0.025912 0.025912
vt 1.000000 0.446969
vt 1.000000 0.246714
vt 0.969329 0.000000
vt 1.000000 0.025912
vt 0.479387 0.616854
vt 0.482993 0.664140
vt 0.407090 0.585871
vt 1.000000 1.000000
vt 0.959672 0.000000
vt 1.000000 0.000000
vt 1.000000 0.708038
vt 0.292097 0.000000
vt 0.969668 0.000000
vt 0.707980 0.707980
vt 0.708228 0.000000
vt 1.000000 0.231551
vt 1.000000 0.471762
vt 1.000000 0.707842
vt 0.708038 0.708038
vt 0.402285 0.402285
vt 1.000000 0.030332
vt 0.563440 0.563440
vt 0.954203 0.000000
vt 1.000000 0.040328
vt 0.408481 0.165740
vt 0.482902 0.165714
vt 0.471762 0.471762
vt 0.231551 0.231551
vt 0.276812 0.261172
vt 0.956293 0.014614
vt 1.000000 0.956343
vt 0.407714 0.168293
vt 0.407733 0.081246
vt 0.407733 0.081246
vt 0.407713 0.081729
vt 0.408481 0.084282
vt 0.483224 0.168267
vt 0.478738 0.121531
vt 0.480640 0.107687
vt 0.479090 0.121105
vt 0.478545 0.124980
vt 0.478624 0.124988
vt 0.482605 0.084293
vt 0.480127 0.108127
vt 0.483525 0.081740
vt 0.478721 0.125845
vt 0.478545 0.125411
vt 0.482594 0.165711
vt 0.483517 0.168269
vt 1.000000 0.627665
vt 0.627665 0.627665
vt 0.941388 0.000000
vt 0.291818 0.291818
vt 0.246714 0.246714
vt 0.707980 0.000000
vt 0.409449 0.585855
vt 0.482956 0.585868
vt 0.478419 0.625005
vt 0.478788 0.628008
vt 0.480821 0.645189
vt 0.426491 0.664148
vt 0.407084 0.664116
vt 0.406294 0.647833
vt 0.959424 0.959424
vt 0.969329 0.969329
vt 0.292097 0.292097
vt 0.087659 0.000000
vt 1.000000 0.402285
vt 1.000000 0.563440
vt 0.231554 0.207007
vt 1.000000 0.058612
vt 0.407754 0.169257
s 0
usemtl 石头
f 31/1/1 39/2/1 30/3/1
f 33/4/2 31/5/2 34/6/2
f 37/7/3 34/8/3 35/9/3
f 37/10/4 2/11/4 38/12/4
f 39/13/5 41/14/5 30/15/5
f 40/16/6 42/17/6 41/18/6
f 16/19/7 7/20/7 21/21/7
f 2/22/8 20/23/8 1/24/8
f 51/25/9 1/11/9 47/26/9
f 45/27/10 43/28/10 23/29/10
f 1/11/11 25/30/11 26/31/11
f 38/32/12 2/22/12 51/33/12
f 52/34/13 45/35/13 23/36/13
f 24/37/14 1/24/14 20/38/14
f 55/39/15 63/40/15 53/40/15
f 26/41/16 25/42/16 50/43/16
f 2/24/17 44/44/17 19/45/17
f 28/46/18 17/47/18 10/48/18
f 55/39/19 9/49/19 54/50/19
f 55/39/19 29/51/19 28/46/19
f 56/52/19 4/53/19 3/54/19
f 58/55/19 3/54/19 14/56/19
f 59/57/19 4/53/19 57/58/19
f 54/50/19 8/59/19 59/57/19
f 58/55/19 15/60/19 60/61/19
f 61/62/19 15/60/19 22/63/19
f 53/40/19 22/63/19 29/51/19
f 62/39/19 67/57/19 64/52/19
f 59/57/20 68/50/20 54/50/20
f 60/61/21 66/55/21 58/55/21
f 53/40/22 70/62/22 61/62/22
f 54/50/18 62/39/18 55/39/18
f 60/61/23 70/62/23 69/61/23
f 56/52/24 65/58/24 57/58/24
f 58/55/25 64/52/25 56/52/25
f 57/58/26 67/57/26 59/57/26
f 31/1/1 32/64/1 39/2/1
f 33/4/2 32/65/2 31/5/2
f 35/9/3 36/66/3 2/24/3
f 37/7/3 33/67/3 34/8/3
f 35/9/3 2/24/3 37/7/3
f 39/13/5 40/68/5 41/14/5
f 40/16/6 43/69/6 42/17/6
f 48/70/7 46/71/7 16/19/7
f 16/19/7 13/72/7 5/73/7
f 5/73/27 6/74/27 7/20/27
f 7/20/28 11/75/28 12/76/28
f 12/76/29 18/77/29 21/21/29
f 21/21/7 48/70/7 16/19/7
f 16/19/7 5/73/7 7/20/7
f 7/20/7 12/76/7 21/21/7
f 2/22/8 19/78/8 20/23/8
f 51/25/9 2/22/9 1/11/9
f 45/27/10 42/79/10 43/28/10
f 26/31/11 47/80/11 1/11/11
f 1/11/11 24/81/11 25/30/11
f 55/39/15 62/39/15 63/40/15
f 52/82/30 23/83/30 26/41/30
f 25/42/16 27/84/16 50/43/16
f 50/43/31 52/82/31 26/41/31
f 2/24/32 36/85/32 44/44/32
f 10/48/18 9/49/18 28/46/18
f 28/46/18 49/86/18 17/47/18
f 55/39/19 28/46/19 9/49/19
f 55/39/19 53/40/19 29/51/19
f 56/52/19 57/58/19 4/53/19
f 58/55/19 56/52/19 3/54/19
f 59/57/19 8/59/19 4/53/19
f 54/50/19 9/49/19 8/59/19
f 58/55/19 14/56/19 15/60/19
f 61/62/19 60/61/19 15/60/19
f 53/40/7 61/62/7 22/63/7
f 64/52/33 66/55/33 69/61/33
f 70/62/34 63/40/34 62/39/34
f 64/52/19 69/61/19 70/62/19
f 67/57/35 65/58/35 64/52/35
f 62/39/19 68/50/19 67/57/19
f 64/52/19 70/62/19 62/39/19
f 59/57/20 67/57/20 68/50/20
f 60/61/21 69/61/21 66/55/21
f 53/40/22 63/40/22 70/62/22
f 54/50/18 68/50/18 62/39/18
f 60/61/23 61/62/23 70/62/23
f 56/52/36 64/52/36 65/58/36
f 58/55/25 66/55/25 64/52/25
f 57/58/26 65/58/26 67/57/26
