# Blender 4.0.2
# www.blender.org
mtllib 立方体.001_cell.111.mtl
o 立方体.001_cell.111
v 15.962126 3.346837 -16.300915
v 15.978876 3.374701 -16.318178
v 15.962126 3.381725 -16.300915
v 15.974370 3.381724 -16.289034
v 15.981094 3.381325 -16.314640
v 16.103781 3.380642 -16.249899
v 16.122099 3.380186 -16.268778
v 16.122299 3.299623 -16.268986
v 16.112623 3.287686 -16.278368
v 16.042871 3.229032 -16.346006
v 16.023811 3.203002 -16.364489
v 16.023809 3.178112 -16.364489
v 16.023661 3.380194 -16.364334
v 15.962126 3.381725 -16.300915
v 15.974370 3.381724 -16.289034
v 16.037748 3.380948 -16.289688
v 16.082489 3.380761 -16.261135
v 16.103781 3.380642 -16.249899
v 16.122099 3.380186 -16.268778
v 16.122299 3.299623 -16.268986
v 16.023811 3.203002 -16.364489
v 16.023661 3.380194 -16.364334
vn -0.7177 -0.0000 -0.6964
vn -0.6964 -0.0000 0.7177
vn 0.0121 0.9998 -0.0124
vn 0.7177 -0.0000 0.6964
vn 0.6965 0.0015 -0.7175
vn -0.7182 -0.0000 -0.6959
vn 0.0121 0.9999 -0.0124
vn 0.6939 0.0036 -0.7201
vn 0.6953 0.0012 -0.7187
vn 0.6947 0.0034 -0.7193
vt 0.493556 0.019640
vt 0.493753 0.019640
vt 0.484253 0.019640
vt 0.493888 0.019640
vt 0.492237 0.019640
vt 0.494308 0.017198
vt 0.906999 0.234556
vt 0.937696 0.175014
vt 1.000000 0.333855
vt 0.493317 0.944337
vt 0.497221 0.944518
vt 0.497243 0.961040
vt 0.923896 0.624049
vt 1.000000 0.591302
vt 1.000000 0.780646
vt 0.492237 0.019640
vt 0.493888 0.019640
vt 0.485431 0.019640
vt 0.952900 0.109374
vt 0.962539 0.083087
vt 1.000000 0.120545
vt 0.874156 0.208022
vt 0.874161 0.181500
vt 0.959952 0.778596
vt 0.953863 0.759683
vt 0.910624 0.586726
s 0
usemtl 石头
f 2/1/1 22/2/1 12/3/1
f 14/4/2 1/5/2 15/6/2
f 5/7/3 16/8/3 13/9/3
f 20/10/4 7/11/4 6/12/4
f 10/13/5 13/14/5 19/15/5
f 2/1/1 1/16/1 14/17/1
f 22/2/6 21/18/6 12/3/6
f 2/1/1 14/17/1 22/2/1
f 16/8/7 17/19/7 18/20/7
f 18/20/3 19/21/3 13/9/3
f 3/22/7 4/23/7 5/7/7
f 16/8/3 18/20/3 13/9/3
f 13/9/3 3/22/3 5/7/3
f 19/15/8 8/24/8 9/25/8
f 10/13/9 11/26/9 13/14/9
f 19/15/10 9/25/10 10/13/10
