# Blender 4.0.2
# www.blender.org
mtllib 立方体.001_cell.133.mtl
o 立方体.001_cell.133
v 14.949592 5.218980 -17.369244
v 14.987513 5.190671 -17.333199
v 14.913948 5.248105 -17.418505
v 14.871137 5.258431 -17.474989
v 15.016598 5.189883 -17.342670
v 14.917357 5.261906 -17.439589
v 14.900688 5.279687 -17.486116
v 15.084461 5.180302 -17.707106
v 14.990315 5.156844 -17.413067
v 15.024666 5.148661 -17.379738
v 14.920096 4.174126 -17.537706
v 15.084461 4.178280 -17.707106
v 15.226286 5.201172 -17.569494
v 15.231446 5.189916 -17.564487
v 15.024666 5.072812 -17.379738
v 15.013123 4.978642 -17.390938
v 15.014670 5.072737 -17.369438
v 15.104480 4.154062 -17.687681
v 14.911357 5.286823 -17.522686
v 14.939293 5.286819 -17.551477
v 15.180524 5.234274 -17.613897
v 15.087458 5.286520 -17.704199
v 14.887349 5.270221 -17.498880
v 14.970208 5.231642 -17.388123
v 14.992426 5.231648 -17.411020
v 15.221757 5.210704 -17.573889
v 15.026458 5.212195 -17.378000
v 14.990315 4.792952 -17.413067
v 15.002253 5.072883 -17.356638
v 14.967961 4.793215 -17.390028
v 14.952531 4.862144 -17.374125
v 14.985289 5.148661 -17.339155
v 14.867700 5.256001 -17.479431
v 14.850333 4.410826 -17.465805
v 14.865291 5.200240 -17.480097
v 14.864447 5.180302 -17.480352
v 15.002747 5.211239 -17.353617
v 14.992702 5.204299 -17.343657
v 14.984663 5.196226 -17.335827
v 14.983696 5.159689 -17.336891
v 14.948989 4.877921 -17.370476
v 14.948899 4.917330 -17.370382
v 14.948884 4.928524 -17.370367
v 14.850200 4.268282 -17.465668
v 14.850193 4.277659 -17.465660
v 14.948708 5.156844 -17.370184
v 15.024666 5.072812 -17.379738
v 15.013123 4.978642 -17.390938
v 15.231446 5.189916 -17.564487
v 15.104480 4.154062 -17.687681
v 14.911357 5.286823 -17.522686
v 14.939293 5.286819 -17.551477
v 15.087458 5.286520 -17.704199
v 14.887349 5.270221 -17.498880
v 14.970208 5.231642 -17.388123
v 14.992426 5.231648 -17.411020
v 15.026458 5.212195 -17.378000
v 14.894547 4.194459 -17.461515
v 14.912807 4.171442 -17.485929
v 14.934047 4.150319 -17.512943
v 14.990315 4.792952 -17.413067
v 15.014670 5.072737 -17.369438
v 15.002253 5.072883 -17.356638
v 15.180524 5.234274 -17.613897
v 14.967961 4.793215 -17.390028
v 14.952531 4.862144 -17.374125
v 14.985289 5.148661 -17.339155
v 14.865291 5.200240 -17.480097
v 14.864447 5.180302 -17.480352
v 15.002747 5.211239 -17.353617
v 14.992702 5.204299 -17.343657
v 14.883223 4.211230 -17.455214
v 14.869392 4.231708 -17.447496
v 14.867163 4.235942 -17.449553
v 14.948899 4.917330 -17.370382
v 14.948884 4.928524 -17.370367
v 15.221757 5.210704 -17.573889
v 14.850200 4.268282 -17.465668
v 14.850193 4.277659 -17.465660
v 14.999519 4.151654 -17.579903
v 14.850333 4.410826 -17.465805
v 14.984663 5.196226 -17.335827
v 14.867700 5.256001 -17.479431
v 14.983696 5.159689 -17.336891
v 14.948989 4.877921 -17.370476
v 15.226286 5.201172 -17.569494
v 14.863266 4.243361 -17.453222
v 14.948708 5.156844 -17.370184
v 14.949592 5.218980 -17.369244
vn 0.6053 0.5383 0.5864
vn 0.7081 -0.1683 0.6858
vn 0.2671 0.9282 0.2590
vn 0.2691 0.9275 0.2593
vn -0.5739 0.8189 -0.0076
vn 0.2723 0.9252 0.2644
vn 0.5487 0.6348 0.5440
vn 0.7064 -0.1687 0.6874
vn 0.2680 0.5714 0.7756
vn 0.3025 -0.1495 0.9414
vn 0.3025 -0.1495 0.9413
vn -0.5824 0.8129 0.0058
vn -0.7978 0.0260 0.6023
vn -0.7979 0.0273 0.6022
vn -0.4040 0.7968 0.4493
vn -0.0600 0.8396 0.5399
vn -0.0330 0.8463 0.5316
vn -0.4068 0.7931 0.4533
vn 0.2670 0.5206 0.8110
vn 0.3036 -0.1496 0.9410
vn -0.6815 -0.0033 0.7318
vn -0.6875 -0.0019 0.7262
vn -0.6908 -0.0011 0.7230
vn -0.7036 0.0015 0.7106
vn -0.7893 0.0664 0.6104
vn -0.7177 -0.0000 -0.6964
vn 0.6964 -0.0000 -0.7177
vn -0.7171 0.0393 -0.6958
vn 0.7012 -0.0208 0.7127
vn 0.7177 -0.0000 0.6964
vn -0.6964 -0.0000 0.7177
vn 0.6650 0.3488 0.6604
vn 0.5984 0.5520 0.5807
vn -0.5824 0.8128 0.0058
vn 0.4843 0.4090 0.7734
vn -0.7186 -0.0000 -0.6954
vn 0.6963 -0.0000 -0.7178
vn 0.6963 -0.0001 -0.7177
vn 0.7171 -0.0393 0.6958
vn 0.7117 -0.1293 0.6905
vn 0.7181 -0.0000 0.6960
vt 1.000000 0.000000
vt 1.000000 0.528104
vt 0.459349 0.000000
vt 0.089294 0.024564
vt 0.574036 0.000000
vt 0.830614 0.257900
vt 0.135673 0.135673
vt 1.000000 0.353993
vt 0.353993 0.353993
vt 0.540288 0.000000
vt 0.831390 0.552448
vt 1.000000 0.135673
vt 0.909175 0.000000
vt 1.000000 0.540471
vt 0.000000 0.000000
vt 0.590293 0.055879
vt 0.540471 0.540471
vt 1.000000 0.935230
vt 1.000000 1.000000
vt 0.935289 0.935289
vt 0.546552 0.436754
vt 1.000000 0.425964
vt 0.897093 0.780503
vt 1.000000 0.780610
vt 0.541476 0.000000
vt 1.000000 0.449448
vt 0.018266 0.000000
vt 0.100307 0.077116
vt 1.000000 0.090825
vt 0.029296 0.029296
vt 0.987171 0.422193
vt 0.489389 0.000000
vt 0.430624 0.430624
vt 0.021668 0.000000
vt 1.000000 0.409737
vt 0.411183 0.411183
vt 0.396477 0.000000
vt 0.529930 0.000000
vt 0.181624 0.181624
vt 0.172828 0.000000
vt 0.396477 0.396477
vt 1.000000 0.982879
vt 0.529981 0.000000
vt 1.000000 0.827172
vt 0.155346 0.000000
vt 0.155346 0.155346
vt 0.525928 0.000000
vt 0.529981 0.529981
vt 0.525928 0.525928
vt 0.838806 0.032134
vt 1.000000 0.512193
vt 0.510611 0.000000
vt 0.512193 0.512193
vt 0.535889 0.500000
vt 0.540249 0.288709
vt 0.547156 0.288829
vt 0.535889 0.500000
vt 0.589418 0.500598
vt 0.578087 0.527387
vt 0.589598 0.366356
vt 0.584437 0.500000
vt 0.585403 0.301812
vt 0.581293 0.229939
vt 0.580695 0.230013
vt 0.577893 0.230360
vt 0.563947 0.230360
vt 0.567088 0.230360
vt 0.578450 0.223151
vt 0.575592 0.223508
vt 0.577731 0.223240
vt 0.575592 0.223508
vt 0.572029 0.223508
vt 0.572036 0.223508
vt 0.568234 0.225811
vt 0.528104 0.528104
vt 0.064770 0.000000
vt 0.116795 0.000000
vt 0.969712 0.056030
vt 0.540288 0.540288
vt 0.590263 0.000000
vt 1.000000 0.540651
vt 0.780610 0.780610
vt 0.449448 0.449448
vt 0.659020 0.425113
vt 1.000000 0.883205
vt 0.181624 0.000000
vt 1.000000 0.935289
vt 1.000000 0.430624
vt 1.000000 0.029296
vt 0.541476 0.541476
vt 1.000000 0.470070
vt 0.149199 0.000000
vt 0.971676 0.517001
vt 0.149199 0.149199
vt 0.584437 0.301559
vt 0.535688 0.351751
vt 0.540704 0.288702
vt 0.577383 0.528290
vt 0.576565 0.529320
vt 0.533885 0.503993
vt 0.581560 0.519162
vt 0.588105 0.302567
vt 0.588794 0.319928
vt 0.589598 0.341159
vt 0.589584 0.500000
vt 0.581292 0.229939
vt 0.566559 0.230360
vt 0.564694 0.230360
vt 0.560685 0.230360
vt 0.560673 0.230360
vt 0.577893 0.230360
vt 0.578095 0.223195
vt 0.578449 0.223151
vt 0.576088 0.223446
vt 0.575592 0.223508
vt 0.572032 0.223508
vt 0.560673 0.230360
s 0
usemtl 石头
f 5/1/1 49/2/1 86/3/1
f 15/4/2 80/5/2 50/6/2
f 51/7/3 6/1/3 52/8/3
f 52/9/4 64/10/4 53/11/4
f 7/1/5 51/12/5 54/13/5
f 77/14/6 6/15/6 56/16/6
f 5/1/7 77/17/7 70/15/7
f 62/18/8 5/19/8 63/20/8
f 59/21/8 80/22/8 61/23/8
f 70/15/9 2/1/9 5/19/9
f 65/24/10 72/25/10 58/26/10
f 5/19/11 84/27/11 67/28/11
f 4/15/12 54/29/12 83/30/12
f 89/1/13 69/31/13 81/32/13
f 4/1/14 68/33/14 89/15/14
f 7/19/15 4/15/15 6/1/15
f 6/19/16 3/15/16 89/1/16
f 6/19/17 89/34/17 55/35/17
f 4/15/18 3/1/18 6/19/18
f 2/1/19 71/36/19 82/37/19
f 73/38/20 66/39/20 85/40/20
f 82/41/21 84/42/21 2/19/21
f 74/43/21 85/44/21 75/45/21
f 75/46/22 87/47/22 74/48/22
f 87/49/23 46/50/23 79/51/23
f 89/15/24 81/52/24 79/53/24
f 3/1/25 4/19/25 89/15/25
f 12/54/26 44/55/26 34/56/26
f 12/57/27 22/58/27 26/59/27
f 20/60/28 8/61/28 35/62/28
f 25/63/29 1/64/29 88/65/29
f 31/66/30 9/65/30 43/67/30
f 27/68/28 32/69/28 39/70/28
f 10/71/26 17/72/26 29/73/26
f 9/65/31 16/74/31 10/69/31
f 50/6/2 49/75/2 5/15/2
f 5/15/2 62/76/2 15/4/2
f 15/4/2 48/77/2 80/5/2
f 50/6/2 5/15/2 15/4/2
f 51/7/3 7/15/3 6/1/3
f 52/9/4 6/15/4 64/10/4
f 57/78/32 70/1/32 77/14/32
f 77/14/6 64/79/6 6/15/6
f 6/15/6 55/80/6 56/16/6
f 56/16/6 57/78/6 77/14/6
f 5/1/33 86/81/33 77/17/33
f 65/82/8 58/83/8 59/21/8
f 59/21/8 60/84/8 80/22/8
f 80/22/8 48/85/8 61/23/8
f 61/23/8 65/82/8 59/21/8
f 65/24/10 66/86/10 72/25/10
f 67/28/10 63/87/10 5/19/10
f 5/19/10 2/15/10 84/27/10
f 4/15/34 7/1/34 54/29/34
f 89/1/13 68/88/13 69/31/13
f 4/1/14 83/89/14 68/33/14
f 2/1/35 70/19/35 71/36/35
f 73/38/20 72/90/20 66/39/20
f 74/43/21 73/91/21 85/44/21
f 75/46/22 76/92/22 87/47/22
f 79/51/23 78/93/23 87/49/23
f 87/49/23 76/94/23 46/50/23
f 46/50/23 89/1/23 79/51/23
f 36/95/26 8/61/26 12/54/26
f 12/54/26 11/96/26 44/55/26
f 44/55/36 45/97/36 34/56/36
f 34/56/26 36/95/26 12/54/26
f 26/59/37 13/98/37 14/99/37
f 14/99/27 18/100/27 12/57/27
f 12/57/27 8/61/27 22/58/27
f 22/58/38 21/101/38 26/59/38
f 26/59/27 14/99/27 12/57/27
f 35/62/28 33/102/28 23/103/28
f 23/103/28 19/104/28 20/60/28
f 20/60/28 22/105/28 8/61/28
f 8/61/28 36/95/28 35/62/28
f 35/62/28 23/103/28 20/60/28
f 88/65/39 9/65/39 25/63/39
f 25/63/40 24/106/40 1/64/40
f 43/67/41 42/107/41 41/108/41
f 31/66/30 30/109/30 28/110/30
f 43/67/30 41/108/30 31/66/30
f 9/65/30 88/111/30 43/67/30
f 31/66/30 28/110/30 9/65/30
f 38/112/28 37/113/28 27/68/28
f 27/68/28 10/69/28 32/69/28
f 32/69/28 40/114/28 39/70/28
f 39/70/28 38/112/28 27/68/28
f 29/73/26 32/115/26 10/71/26
f 10/71/26 47/116/26 17/72/26
f 27/68/31 25/63/31 9/65/31
f 9/65/31 28/117/31 16/74/31
f 16/74/31 47/116/31 10/69/31
f 10/69/31 27/68/31 9/65/31
