# Blender 4.0.2
# www.blender.org
mtllib 立方体.001_cell.008.mtl
o 立方体.001_cell.008
v 15.303711 0.872191 -17.215752
v 15.193851 0.919669 -17.130785
v 14.807282 0.857600 -17.421438
v 14.945138 0.857600 -17.563517
v 15.234585 0.857600 -17.283178
v 14.945217 1.022004 -17.563599
v 15.307963 0.857600 -17.211729
v 14.945141 1.040904 -17.563519
v 15.162136 0.884770 -17.077129
v 15.169958 0.857600 -17.069542
v 15.151691 0.919678 -17.087265
v 14.807282 1.082289 -17.421438
v 14.849256 1.082264 -17.464697
v 14.869144 1.073785 -17.485195
v 14.945138 0.857600 -17.563517
v 15.234585 0.857600 -17.283178
v 15.307963 0.857600 -17.211729
v 14.945217 1.022004 -17.563599
v 14.945141 1.040904 -17.563519
v 15.169958 0.857600 -17.069542
v 14.807282 1.082289 -17.421438
v 14.849256 1.082264 -17.464697
v 14.869144 1.073785 -17.485195
v 15.151691 0.919678 -17.087265
v 15.162136 0.884770 -17.077129
vn 0.6957 -0.0007 -0.7183
vn 0.6976 0.0058 -0.7165
vn 0.6660 0.3723 0.6464
vn 0.6630 0.3848 0.6422
vn 0.2306 0.9471 0.2232
vn 0.4119 0.9110 0.0172
vn 0.4101 0.9118 0.0208
vn -0.7177 -0.0000 -0.6964
vn -0.0000 -1.0000 -0.0000
vn -0.6964 -0.0000 0.7177
vn -0.7176 -0.0000 -0.6965
vt 1.000000 0.845858
vt 0.492303 0.338288
vt 1.000000 0.338650
vt 0.338650 0.338650
vt 1.000000 0.000000
vt 1.000000 0.226020
vt 0.000000 0.000000
vt 0.685669 0.421034
vt 0.226020 0.226020
vt 0.264449 0.264449
vt 0.099085 0.099085
vt 0.785549 0.000000
vt 0.884193 0.098566
vt 0.649941 0.000000
vt 0.792242 0.792242
vt 1.000000 0.792242
vt 0.785549 0.785549
vt 0.375000 0.374338
vt 0.385886 0.250000
vt 0.385474 0.305796
vt 0.249338 0.500000
vt 0.249454 0.572348
vt 0.125000 0.572344
vt 0.375000 0.250000
vt 0.376173 0.179216
vt 0.377684 0.181300
vt 0.845858 0.845858
vt 0.350059 0.000000
vt 0.264449 0.000000
vt 1.000000 0.099085
vt 0.383881 0.374341
vt 0.382965 0.374410
vt 0.385885 0.287858
vt 0.125000 0.500000
vt 0.249567 0.557686
vt 0.385886 0.250000
vt 0.375000 0.177656
s 0
usemtl 石头
f 16/1/1 4/2/1 18/3/1
f 18/4/2 1/5/2 17/6/2
f 1/7/3 20/8/3 17/9/3
f 2/5/4 25/10/4 1/7/4
f 24/11/5 22/12/5 12/13/5
f 19/14/6 23/15/6 1/7/6
f 2/7/7 23/16/7 22/17/7
f 15/18/8 21/19/8 14/20/8
f 15/21/9 7/22/9 10/23/9
f 3/24/10 9/25/10 11/26/10
f 17/6/2 16/27/2 18/4/2
f 18/4/2 19/28/2 1/5/2
f 1/7/3 25/29/3 20/8/3
f 2/5/4 24/30/4 25/10/4
f 24/11/5 2/7/5 22/12/5
f 2/7/7 1/5/7 23/16/7
f 8/31/11 6/32/11 15/18/11
f 15/18/8 3/24/8 21/19/8
f 21/19/8 13/33/8 14/20/8
f 14/20/8 8/31/8 15/18/8
f 10/23/9 3/34/9 15/21/9
f 15/21/9 5/35/9 7/22/9
f 11/26/10 21/36/10 3/24/10
f 3/24/10 10/37/10 9/25/10
