# Blender 4.0.2
# www.blender.org
mtllib 立方体.001_cell.064.mtl
o 立方体.001_cell.064
v 16.043003 5.248880 -16.305357
v 16.038525 5.404693 -16.328638
v 16.046532 5.405612 -16.322535
v 16.098898 5.293380 -16.271112
v 16.050915 5.248725 -16.299854
v 16.023521 5.419100 -16.311827
v 16.032431 5.414964 -16.316652
v 15.955427 5.345788 -16.307415
v 15.962864 5.329935 -16.300198
v 15.976130 5.345805 -16.328754
v 15.952916 5.407044 -16.309851
v 15.996909 5.368356 -16.353806
v 15.997322 5.346065 -16.350637
v 16.001474 5.248647 -16.262735
v 16.006355 5.248532 -16.257999
v 15.978024 5.417525 -16.285490
v 15.958923 5.414278 -16.304022
v 16.034212 5.278171 -16.230970
v 16.047432 5.293479 -16.218143
v 16.013332 5.366217 -16.251228
v 15.989902 5.415965 -16.273964
v 15.955427 5.345788 -16.307415
v 15.962864 5.329935 -16.300198
v 16.006355 5.248532 -16.257999
v 16.034212 5.278171 -16.230970
v 15.976130 5.345805 -16.328754
v 15.997322 5.346065 -16.350637
v 15.952916 5.407044 -16.309851
v 15.996909 5.368356 -16.353806
v 15.978024 5.417525 -16.285490
v 15.958923 5.414278 -16.304022
v 16.047432 5.293479 -16.218143
v 15.989902 5.415965 -16.273964
v 16.013332 5.366217 -16.251228
v 16.001474 5.248647 -16.262735
vn -0.6006 -0.5471 -0.5831
vn -0.1419 0.6683 -0.7302
vn 0.5789 -0.1033 -0.8089
vn 0.5656 -0.1147 -0.8167
vn -0.5958 -0.5519 -0.5835
vn -0.0094 -0.9998 -0.0146
vn 0.0272 0.9939 0.1065
vn -0.0846 0.9926 -0.0868
vn -0.1374 0.6882 -0.7124
vn -0.0001 0.7593 -0.6508
vn 0.3082 0.7941 -0.5238
vn 0.6100 -0.0767 -0.7887
vn 0.5800 -0.1031 -0.8081
vn 0.4176 -0.7945 0.4409
vn 0.4577 -0.7691 0.4461
vn 0.6010 0.5469 0.5829
vn 0.5987 0.5487 0.5836
vn 0.5789 0.5899 0.5629
vn 0.6044 0.5473 0.5789
vn -0.6964 -0.0000 0.7177
vn -0.7355 -0.0708 -0.6738
vn 0.5797 -0.1041 -0.8082
vn 0.4555 -0.7733 0.4410
vn -0.7132 -0.1115 -0.6920
vn -0.7165 -0.0570 -0.6952
vt 0.717823 0.717823
vt 0.826551 0.753696
vt 0.856939 0.856939
vt 0.436995 0.000000
vt 1.000000 0.000000
vt 1.000000 0.853622
vt 1.000000 0.876947
vt 0.000000 0.000000
vt 0.876947 0.876947
vt 1.000000 0.856939
vt 0.279474 0.000000
vt 1.000000 0.284720
vt 1.000000 0.163577
vt 0.771972 0.000000
vt 0.471336 0.000000
vt 0.163577 0.163577
vt 1.000000 0.563005
vt 0.471336 0.471336
vt 1.000000 1.000000
vt 0.339995 0.000000
vt 1.000000 0.701284
vt 0.339995 0.339995
vt 0.451408 0.000000
vt 1.000000 0.401662
vt 0.451408 0.451408
vt 0.260266 0.000000
vt 0.401662 0.401662
vt 0.260266 0.260266
vt 0.584417 0.011791
vt 0.590733 0.009425
vt 0.588826 0.021915
vt 0.586384 0.020976
vt 0.587327 0.021339
vt 0.853622 0.853622
vt 1.000000 0.717823
vt 0.858178 0.858178
vt 0.279474 0.279474
vt 0.586384 0.020976
vt 0.586071 0.019492
vt 0.584812 0.010406
vt 0.587686 0.005260
vt 0.589178 0.002623
vt 0.591739 0.014420
vt 0.591054 0.016469
vt 0.589767 0.020279
vt 0.586395 0.020980
s 0
usemtl 石头
f 23/1/1 22/2/1 26/3/1
f 11/4/2 2/5/2 29/6/2
f 27/7/3 2/8/3 5/5/3
f 27/9/4 5/8/4 1/5/4
f 26/10/5 1/8/5 35/11/5
f 24/12/6 1/8/6 5/5/6
f 30/13/7 33/14/7 6/5/7
f 31/15/8 30/16/8 6/8/8
f 6/8/9 11/17/9 31/18/9
f 6/8/10 7/5/10 2/19/10
f 2/19/11 7/8/11 3/5/11
f 3/8/12 4/5/12 2/19/12
f 2/19/13 4/8/13 5/5/13
f 5/19/14 25/20/14 24/21/14
f 25/22/15 4/8/15 32/23/15
f 4/8/16 34/24/16 32/25/16
f 33/26/17 34/27/17 7/8/17
f 6/5/18 33/28/18 7/8/18
f 7/19/19 4/8/19 3/5/19
f 14/29/20 20/30/20 28/31/20
f 10/32/21 28/31/21 12/33/21
f 27/7/22 29/34/22 2/8/22
f 35/11/5 23/35/5 26/10/5
f 26/10/5 27/36/5 1/8/5
f 24/12/6 35/37/6 1/8/6
f 6/8/9 2/5/9 11/17/9
f 5/19/23 4/8/23 25/20/23
f 4/8/16 7/5/16 34/24/16
f 8/38/20 9/39/20 14/29/20
f 14/29/20 15/40/20 18/41/20
f 18/41/20 19/42/20 20/30/20
f 20/30/20 21/43/20 16/44/20
f 16/44/20 17/45/20 28/31/20
f 28/31/20 8/38/20 14/29/20
f 14/29/20 18/41/20 20/30/20
f 20/30/20 16/44/20 28/31/20
f 12/33/24 13/46/24 10/32/24
f 10/32/25 8/38/25 28/31/25
