# Blender 4.0.2
# www.blender.org
mtllib 立方体.001_cell.043.mtl
o 立方体.001_cell.043
v 16.042557 6.018867 -16.499172
v 16.007092 5.974678 -16.564085
v 16.023285 5.983453 -16.559633
v 16.049343 5.923166 -16.371719
v 16.070015 5.979985 -16.472921
v 15.864717 5.888208 -16.395430
v 15.944493 5.898523 -16.486763
v 15.940518 5.891134 -16.476137
v 15.876179 5.921204 -16.553532
v 15.917598 5.957200 -16.513344
v 15.833871 5.958064 -16.425360
v 15.842250 5.965306 -16.417229
v 15.904602 6.018772 -16.356730
v 15.938421 5.970640 -16.323915
v 15.924596 5.867160 -16.445181
v 15.938876 5.888208 -16.471859
v 15.971672 5.923248 -16.291653
v 15.893335 5.879777 -16.367661
v 15.909792 5.867172 -16.429932
v 15.870667 5.867260 -16.389656
v 15.833871 5.958064 -16.425360
v 15.842250 5.965306 -16.417229
v 15.904602 6.018772 -16.356730
v 15.938421 5.970640 -16.323915
v 15.944493 5.898523 -16.486763
v 15.876179 5.921204 -16.553532
v 15.924596 5.867160 -16.445181
v 15.938876 5.888208 -16.471859
v 15.909792 5.867172 -16.429932
v 15.870667 5.867260 -16.389656
v 15.917598 5.957200 -16.513344
v 15.971672 5.923248 -16.291653
v 15.893335 5.879777 -16.367661
v 15.940518 5.891134 -16.476137
vn -0.3555 0.8515 -0.3854
vn 0.5189 -0.7805 -0.3487
vn 0.2771 -0.7872 -0.5509
vn -0.3765 0.8485 -0.3719
vn 0.8454 0.2974 -0.4437
vn -0.3777 0.8498 -0.3677
vn -0.3768 0.8517 -0.3643
vn 0.5131 0.6996 0.4974
vn 0.5434 -0.7745 -0.3238
vn 0.5397 -0.7770 -0.3241
vn 0.2651 -0.9290 0.2581
vn 0.2633 -0.9297 0.2578
vn -0.6982 0.0042 0.7159
vn -0.6037 -0.5398 -0.5866
vn -0.6673 -0.3680 -0.6475
vn 0.5136 0.6990 0.4975
vn -0.6964 -0.0000 0.7177
vn -0.5910 -0.5417 -0.5978
vn -0.6113 -0.5240 -0.5931
vn -0.6196 -0.5240 -0.5844
vn 0.5141 0.6988 0.4974
vt 1.000000 0.000000
vt 1.000000 1.000000
vt 0.000000 0.000000
vt 1.000000 0.318240
vt 1.000000 0.582870
vt 0.321732 0.321054
vt 0.642266 0.000000
vt 1.000000 0.770740
vt 0.648982 0.647314
vt 0.936671 0.723140
vt 1.000000 0.591740
vt 0.770740 0.770740
vt 1.000000 0.494881
vt 0.591740 0.591740
vt 0.987764 0.203331
vt 1.000000 0.233729
vt 1.000000 0.930514
vt 0.364749 0.000000
vt 0.892170 0.796996
vt 0.930514 0.930514
vt 0.721876 0.721876
vt 0.601494 0.053654
vt 0.605215 0.040005
vt 0.605879 0.045392
vt 0.605116 0.039328
vt 0.605079 0.039070
vt 0.605973 0.045215
vt 0.604561 0.037879
vt 0.604563 0.037883
vt 0.494881 0.494881
vt 0.613937 0.024368
vt 0.606862 0.043552
vt 0.766271 0.000000
vt 0.582870 0.582870
vt 0.930468 0.000000
vt 1.000000 0.721875
vt 0.930468 0.930468
vt 0.605211 0.039979
vt 0.605974 0.045223
vt 0.604560 0.037878
vt 0.635251 0.000000
vt 0.604563 0.037883
vt 0.606657 0.033362
vt 0.614168 0.017736
vt 0.613626 0.031114
s 0
usemtl 石头
f 3/1/1 2/2/1 1/3/1
f 3/3/2 25/4/2 2/2/2
f 26/5/3 2/2/3 25/6/3
f 2/2/4 31/7/4 1/1/4
f 1/2/5 5/3/5 3/1/5
f 22/8/6 31/9/6 21/10/6
f 23/11/7 1/2/7 22/12/7
f 24/13/8 1/2/8 23/14/8
f 3/2/9 5/3/9 4/1/9
f 4/3/10 28/15/10 34/16/10
f 29/17/11 4/3/11 32/18/11
f 30/19/12 29/20/12 33/21/12
f 9/22/13 7/23/13 10/24/13
f 8/25/14 6/26/14 10/27/14
f 16/26/15 19/28/15 20/29/15
f 4/1/16 1/2/16 24/30/16
f 14/31/17 12/32/17 6/26/17
f 3/3/2 34/33/2 25/4/2
f 2/2/4 26/34/4 31/7/4
f 22/8/6 1/2/6 31/9/6
f 34/16/10 3/2/10 4/3/10
f 4/3/10 27/35/10 28/15/10
f 32/18/11 33/36/11 29/17/11
f 29/17/11 27/37/11 4/3/11
f 10/27/18 7/38/18 8/25/18
f 8/25/19 16/26/19 6/26/19
f 6/26/20 11/39/20 10/27/20
f 20/29/15 6/26/15 16/26/15
f 16/26/15 15/40/15 19/28/15
f 24/30/16 32/41/16 4/1/16
f 4/1/21 5/1/21 1/2/21
f 6/26/17 20/42/17 18/43/17
f 18/43/17 17/44/17 14/31/17
f 14/31/17 13/45/17 12/32/17
f 12/32/17 11/39/17 6/26/17
f 6/26/17 18/43/17 14/31/17
