# Blender 4.0.2
# www.blender.org
mtllib 立方体.001_cell.119.mtl
o 立方体.001_cell.119
v 15.710260 6.358806 -16.669052
v 15.642415 6.358746 -16.611124
v 15.656459 6.358849 -16.717243
v 15.686438 6.311823 -16.692106
v 15.721550 6.252571 -16.657694
v 15.698904 6.290860 -16.679977
v 15.652719 6.264631 -16.601126
v 15.596651 6.358787 -16.655529
v 15.721550 6.252571 -16.657694
v 15.698904 6.290860 -16.679977
v 15.686438 6.311823 -16.692106
v 15.652719 6.264631 -16.601126
v 15.642415 6.358746 -16.611124
v 15.596651 6.358787 -16.655529
v 15.656459 6.358849 -16.717243
vn -0.0001 1.0000 0.0010
vn 0.6433 0.1487 0.7510
vn 0.6670 0.0272 -0.7446
vn 0.6965 -0.0010 -0.7176
vn 0.6996 -0.0020 -0.7145
vn -0.5523 -0.6386 -0.5359
vn -0.6964 -0.0000 0.7177
vn 0.6419 0.1502 0.7520
vn -0.5524 -0.6386 -0.5358
vt 0.847617 0.000000
vt 1.000000 0.102725
vt 0.851998 0.091103
vt 1.000000 0.000000
vt 0.353989 0.110164
vt 0.243050 0.000000
vt 0.914680 0.914680
vt 1.000000 0.897008
vt 1.000000 1.000000
vt 0.854198 0.854198
vt 1.000000 0.914680
vt 0.854198 0.000000
vt 1.000000 0.756951
vt 0.606645 0.079926
vt 0.606852 0.092543
vt 0.606761 0.086964
vt 0.606669 0.081358
vt 0.609921 0.083414
vt 1.000000 0.110472
vt 0.606720 0.084474
vt 0.606669 0.081358
vt 0.606852 0.092541
s 0
usemtl 石头
f 13/1/1 15/2/1 8/3/1
f 1/4/2 12/5/2 9/6/2
f 11/7/3 15/8/3 1/9/3
f 1/9/4 10/10/4 11/11/4
f 10/12/5 1/4/5 9/13/5
f 5/14/6 14/15/6 4/16/6
f 14/15/7 7/17/7 2/18/7
f 13/1/1 1/4/1 15/2/1
f 1/4/8 13/19/8 12/5/8
f 4/16/9 6/20/9 5/14/9
f 5/14/6 7/21/6 14/15/6
f 14/15/6 3/22/6 4/16/6
