# Blender 4.0.2
# www.blender.org
mtllib 立方体.001_cell.116.mtl
o 立方体.001_cell.116
v 15.038879 5.357185 -17.276476
v 14.981523 5.204435 -17.332127
v 14.983905 5.288920 -17.329815
v 15.045132 5.340675 -17.270409
v 15.046357 5.349831 -17.269218
v 14.990378 5.369281 -17.323534
v 15.032877 5.362460 -17.282299
vn -0.6964 -0.0000 0.7177
vt 0.581901 0.222719
vt 0.580673 0.210506
vt 0.581797 0.211753
vt 0.582400 0.212950
vt 0.585227 0.221428
vt 0.578167 0.222880
vt 0.581010 0.210261
s 0
usemtl 金边
f 3/1/1 4/2/1 1/3/1
f 7/4/1 6/5/1 3/1/1
f 3/1/1 2/6/1 4/2/1
f 4/2/1 5/7/1 1/3/1
f 1/3/1 7/4/1 3/1/1
