# Blender 4.0.2
# www.blender.org
mtllib 立方体.001_cell.129.mtl
o 立方体.001_cell.129
v 15.210329 1.206138 -17.115175
v 15.417277 1.341410 -17.327702
v 15.408501 1.334239 -17.315872
v 15.219707 1.210899 -17.122288
v 15.248907 1.410462 -17.117785
v 14.979950 1.404382 -17.333652
v 15.024665 1.404382 -17.379736
v 15.226367 1.404382 -17.094559
v 14.807282 1.615438 -17.421434
v 14.835573 1.603698 -17.450592
v 14.856826 1.592103 -17.373363
v 14.984619 1.541615 -17.604204
v 15.056422 1.511099 -17.678205
v 14.979950 1.536208 -17.333652
v 14.905742 1.569020 -17.325901
v 14.990314 1.533792 -17.413065
v 15.024665 1.517583 -17.379736
v 14.990314 1.357285 -17.413065
v 14.849632 1.376211 -17.465082
v 14.948102 1.329781 -17.369558
v 15.018967 1.486539 -17.639603
v 15.171550 1.262962 -17.221453
v 15.089815 1.262962 -17.232084
v 15.162644 1.276011 -17.245857
v 14.807282 1.400800 -17.421434
v 14.905742 1.354377 -17.325901
v 15.169247 1.230134 -17.070227
v 15.099623 1.262962 -17.137783
v 15.175961 1.262962 -17.063713
v 15.207979 1.262962 -17.091692
v 15.212337 1.262962 -17.095825
v 15.258349 1.262962 -17.152996
v 15.266120 1.314688 -17.145456
v 15.268736 1.334104 -17.142918
v 15.248870 1.404382 -17.117786
v 15.261639 1.404382 -17.133587
v 15.268922 1.402254 -17.142738
v 15.264480 1.404382 -17.147049
v 15.190428 1.262962 -17.218899
v 15.056422 1.511099 -17.678205
v 15.018967 1.486539 -17.639603
v 14.990314 1.533792 -17.413065
v 15.024665 1.517583 -17.379736
v 14.807282 1.615438 -17.421434
v 14.835573 1.603698 -17.450592
v 15.268736 1.334104 -17.142918
v 15.268922 1.402254 -17.142738
v 14.905742 1.569020 -17.325901
v 14.979950 1.536208 -17.333652
v 15.226367 1.404382 -17.094559
v 15.226346 1.419868 -17.094580
v 14.990314 1.357285 -17.413065
v 14.948102 1.329781 -17.369558
v 15.248870 1.404382 -17.117786
v 14.849632 1.376211 -17.465082
v 15.162644 1.276011 -17.245857
v 14.807282 1.400800 -17.421434
v 15.261639 1.404382 -17.133587
v 15.264480 1.404382 -17.147049
v 14.905742 1.354377 -17.325901
v 15.089815 1.262962 -17.232084
v 15.099623 1.262962 -17.137783
v 15.169247 1.230134 -17.070227
v 15.175961 1.262962 -17.063713
v 15.212337 1.262962 -17.095825
v 15.258349 1.262962 -17.152996
v 15.190428 1.262962 -17.218899
v 15.216756 1.424461 -17.103884
v 15.266120 1.314688 -17.145456
v 15.171550 1.262962 -17.221453
v 14.856826 1.592103 -17.373363
v 14.984619 1.541615 -17.604204
v 15.207979 1.262962 -17.091692
vn 0.7174 0.0019 0.6967
vn 0.4055 0.9137 0.0256
vn 0.4090 0.9123 0.0206
vn 0.4065 0.9133 0.0253
vn 0.0635 -0.8703 -0.4885
vn -0.4639 -0.8846 0.0482
vn 0.6330 -0.2732 0.7244
vn 0.6640 -0.2620 0.7003
vn 0.7627 -0.2040 0.6138
vn 0.7646 -0.1838 0.6177
vn 0.7778 -0.0049 0.6285
vn 0.7778 -0.0038 0.6285
vn 0.7871 0.0507 0.6147
vn 0.4093 0.9120 0.0283
vn 0.1174 -0.8855 -0.4496
vn 0.0838 -0.8756 -0.4757
vn 0.0661 -0.8697 -0.4891
vn -0.7177 -0.0000 -0.6964
vn -0.6964 -0.0000 0.7177
vn -0.0000 1.0000 -0.0000
vn 0.7177 -0.0000 0.6964
vn -0.0000 -1.0000 -0.0000
vn 0.7182 -0.0046 0.6958
vn 0.5397 0.8341 0.1139
vn -0.7178 -0.0000 -0.6963
vn -0.6962 -0.0001 0.7178
vt 0.902975 0.038383
vt 1.000000 0.000000
vt 1.000000 0.047039
vt 0.661735 0.000000
vt 0.785313 0.128616
vt 0.575223 0.000000
vt 0.000000 0.000000
vt 0.818836 0.000000
vt 0.650807 0.650807
vt 1.000000 0.650807
vt 0.745144 0.481559
vt 0.729680 0.420140
vt 1.000000 0.264665
vt 0.834093 0.000000
vt 0.795912 0.378414
vt 1.000000 0.792136
vt 0.181321 0.000000
vt 0.792135 0.792135
vt 0.671826 0.578746
vt 0.888054 0.794996
vt 0.246041 0.152920
vt 0.264665 0.264665
vt 0.566433 0.000000
vt 0.093137 0.093137
vt 1.000000 0.544832
vt 0.566433 0.566433
vt 0.479972 0.256887
vt 0.873191 0.000000
vt 0.703743 0.703743
vt 1.000000 1.000000
vt 0.920388 0.920388
vt 1.000000 0.920227
vt 0.126809 0.000000
vt 1.000000 0.874275
vt 0.874275 0.874275
vt 0.639488 0.459534
vt 0.478408 0.000000
vt 0.204075 0.063081
vt 0.408141 0.409948
vt 0.405472 0.440928
vt 0.401318 0.250000
vt 0.391059 0.177798
vt 0.392440 0.176459
vt 0.392774 0.191686
vt 0.408105 0.230360
vt 0.411718 0.250000
vt 0.392774 0.191686
vt 0.392429 0.175958
vt 0.392450 0.176894
vt 0.398085 0.230360
vt 0.397947 0.230360
vt 0.398448 0.174354
vt 0.399886 0.223508
vt 0.398486 0.175672
vt 0.399886 0.223508
vt 0.393439 0.195985
vt 0.405198 0.223508
vt 0.941536 0.000000
vt 0.628199 0.423418
vt 0.521592 0.000000
vt 0.661735 0.661735
vt 0.575223 0.575223
vt 0.553202 0.487759
vt 1.000000 0.575885
vt 0.795995 0.000000
vt 0.575885 0.575885
vt 0.093137 0.000000
vt 0.449780 0.074386
vt 0.544832 0.544832
vt 1.000000 0.703743
vt 1.000000 0.910031
vt 0.911942 0.911942
vt 0.881127 0.881127
vt 0.204005 0.000000
vt 0.818679 0.000000
vt 1.000000 0.181164
vt 0.165907 0.000000
vt 0.411718 0.250000
vt 0.411149 0.275517
vt 0.406662 0.474711
vt 0.400127 0.288198
vt 0.397947 0.230360
vt 0.409892 0.240117
vt 0.392747 0.190443
vt 0.392795 0.192637
vt 0.393002 0.202095
vt 0.392440 0.176459
vt 0.392429 0.175922
vt 0.396783 0.230360
vt 0.406438 0.230360
vt 0.398456 0.174621
vt 0.398448 0.174355
vt 0.392747 0.190443
vt 0.394632 0.175344
vt 0.395451 0.174822
vt 0.398369 0.174785
vt 0.398486 0.175672
vt 0.405198 0.223508
vt 0.406438 0.230360
vt 0.406072 0.223508
s 0
usemtl 石头
f 50/1/1 5/2/1 51/3/1
f 45/4/2 44/5/2 71/6/2
f 2/7/3 40/8/3 72/9/3
f 72/10/4 42/11/4 43/12/4
f 1/2/5 61/13/5 70/14/5
f 18/15/5 55/16/5 41/17/5
f 55/18/6 60/19/6 57/20/6
f 1/7/6 62/21/6 61/22/6
f 73/23/7 63/24/7 1/7/7
f 1/7/8 65/25/8 73/26/8
f 4/7/9 3/2/9 66/27/9
f 46/28/10 69/29/10 3/7/10
f 5/30/11 54/31/11 58/32/11
f 46/33/12 3/2/12 47/34/12
f 47/35/13 3/7/13 2/2/13
f 59/36/14 2/7/14 68/37/14
f 4/2/15 2/30/15 3/7/15
f 1/2/16 2/30/16 4/7/16
f 2/30/17 1/7/17 67/38/17
f 12/39/18 21/40/18 25/41/18
f 27/42/19 29/43/19 28/44/19
f 15/45/19 9/46/19 25/41/19
f 28/47/20 30/48/20 32/49/20
f 52/50/21 15/45/21 26/51/21
f 35/52/22 6/53/22 38/54/22
f 7/55/19 52/50/19 24/56/19
f 6/55/18 17/57/18 7/55/18
f 50/1/23 54/58/23 5/2/23
f 43/12/4 14/59/4 68/60/4
f 68/60/4 2/2/4 72/10/4
f 72/10/4 45/61/4 71/62/4
f 71/62/4 48/63/4 42/11/4
f 43/12/4 68/60/4 72/10/4
f 72/10/4 71/62/4 42/11/4
f 18/15/5 53/64/5 55/16/5
f 41/17/5 56/65/5 18/15/5
f 55/18/6 53/66/6 60/19/6
f 1/7/6 63/67/6 62/21/6
f 73/23/7 64/68/7 63/24/7
f 1/7/8 4/2/8 65/25/8
f 66/27/9 65/69/9 4/7/9
f 3/2/9 69/70/9 66/27/9
f 68/37/14 51/71/14 5/30/14
f 5/30/24 58/72/24 59/36/24
f 59/36/14 47/73/14 2/7/14
f 68/37/14 5/30/14 59/36/14
f 67/38/17 56/74/17 41/75/17
f 41/75/17 40/76/17 2/30/17
f 1/7/17 70/77/17 67/38/17
f 67/38/17 41/75/17 2/30/17
f 9/78/25 10/79/25 12/39/25
f 12/39/18 13/80/18 21/40/18
f 21/40/18 19/81/18 25/41/18
f 25/41/18 9/78/18 12/39/18
f 25/41/19 26/82/19 15/45/19
f 15/45/26 11/83/26 9/46/26
f 32/49/20 39/84/20 22/85/20
f 22/85/20 23/86/20 28/47/20
f 28/47/20 29/87/20 30/48/20
f 30/48/20 31/88/20 32/49/20
f 32/49/20 22/85/20 28/47/20
f 26/51/21 20/89/21 52/50/21
f 52/50/21 16/90/21 15/45/21
f 38/54/22 36/91/22 35/52/22
f 35/52/22 8/92/22 6/53/22
f 6/53/22 7/53/22 38/54/22
f 24/56/19 39/93/19 32/49/19
f 32/49/19 33/94/19 34/95/19
f 34/95/19 37/96/19 38/97/19
f 7/55/19 17/98/19 16/99/19
f 34/95/19 38/97/19 7/55/19
f 24/56/19 32/49/19 34/95/19
f 7/55/19 16/99/19 52/50/19
f 24/56/19 34/95/19 7/55/19
f 6/55/18 49/100/18 17/57/18
