# Blender 4.0.2
# www.blender.org
mtllib 立方体.001_cell.087.mtl
o 立方体.001_cell.087
v 15.981718 5.097879 -16.281904
v 16.110861 4.989488 -16.307806
v 16.116985 4.992420 -16.306408
v 16.076574 5.075319 -16.284660
v 16.073620 5.081321 -16.283089
v 16.029797 4.989512 -16.314550
v 15.984614 5.081321 -16.290501
v 16.036240 4.986777 -16.314842
v 16.072218 4.972491 -16.316174
v 16.018850 5.159584 -16.245874
v 15.981619 5.085605 -16.288464
v 15.977846 5.090039 -16.285662
vn 0.0998 -0.4696 0.8772
vn -0.0733 -0.4696 0.8798
vn -0.0795 -0.2890 0.9540
vt 0.750000 0.626178
vt 0.750000 0.629554
vt 0.750503 0.627398
vt 0.749601 0.625000
vt 0.737878 0.625000
vt 0.742908 0.601038
vt 0.733302 0.601725
vt 0.744929 0.646523
vt 0.732504 0.602468
vt 0.737500 0.623479
vt 0.743734 0.601732
vt 0.738318 0.597417
s 0
usemtl 石头
f 11/1/1 1/2/1 12/3/1
f 1/2/2 7/4/2 5/5/2
f 7/4/3 8/6/3 2/7/3
f 5/5/2 10/8/2 1/2/2
f 1/2/2 11/1/2 7/4/2
f 2/7/3 3/9/3 4/10/3
f 4/10/3 5/5/3 7/4/3
f 7/4/3 6/11/3 8/6/3
f 8/6/3 9/12/3 2/7/3
f 2/7/3 4/10/3 7/4/3
