# Blender 4.0.2
# www.blender.org
mtllib 立方体.001_cell.142.mtl
o 立方体.001_cell.142
v 15.093262 5.640678 -17.267311
v 15.075318 5.574629 -17.284557
v 15.068828 5.611246 -17.290911
v 15.093390 5.588374 -17.223585
v 15.125880 5.612736 -17.235544
v 15.104159 5.612762 -17.213135
v 15.060354 5.538950 -17.255638
v 15.104132 5.555472 -17.253351
v 15.113099 5.581460 -17.247826
v 15.115076 5.588374 -17.245934
v 15.076783 5.529900 -17.239698
v 15.071503 5.640687 -17.244822
v 15.065804 5.634012 -17.250351
v 15.046999 5.611308 -17.268599
v 15.052032 5.583037 -17.263714
v 15.104132 5.555472 -17.253351
v 15.113099 5.581460 -17.247826
v 15.115076 5.588374 -17.245934
v 15.125880 5.612736 -17.235544
v 15.076783 5.529900 -17.239698
v 15.104159 5.612762 -17.213135
vn -0.4623 0.7654 -0.4476
vn 0.3761 0.8523 0.3635
vn -0.4670 0.7558 -0.4590
vn -0.6941 -0.2407 -0.6784
vn 0.7027 -0.0924 -0.7055
vn 0.6965 -0.0028 -0.7176
vn 0.2896 -0.6730 -0.6806
vn 0.6113 -0.5240 0.5931
vn -0.6944 -0.2544 -0.6732
vn 0.6673 -0.3680 0.6475
vn 0.6972 -0.0008 -0.7169
vt 0.159178 0.159178
vt 0.000000 0.000000
vt 0.228596 0.000000
vt 0.869256 0.000000
vt 1.000000 0.159178
vt 0.869340 0.158744
vt 1.000000 0.000000
vt 0.228596 0.228596
vt 1.000000 0.227931
vt 1.000000 0.161624
vt 0.115832 0.115832
vt 1.000000 0.130744
vt 0.332510 0.152811
vt 1.000000 0.625833
vt 0.914950 0.914950
vt 0.953318 0.594512
vt 0.588993 0.198732
vt 0.588639 0.200880
vt 0.588993 0.198734
vt 0.374167 0.000000
vt 0.227931 0.227931
vt 0.587145 0.204192
vt 0.588462 0.201271
vt 0.588639 0.200880
vt 1.000000 0.228149
vt 0.228149 0.228149
vt 0.161624 0.161624
vt 1.000000 1.000000
vt 0.587851 0.202627
s 0
usemtl 石头
f 12/1/1 1/2/1 13/3/1
f 19/4/2 12/5/2 6/6/2
f 3/7/3 13/8/3 1/2/3
f 15/9/4 3/2/4 2/7/4
f 2/2/5 17/10/5 16/11/5
f 3/2/6 19/12/6 18/13/6
f 7/14/7 16/15/7 20/16/7
f 21/17/8 10/18/8 5/19/8
f 2/2/9 7/20/9 15/21/9
f 11/22/10 9/23/10 10/24/10
f 19/4/2 1/7/2 12/5/2
f 3/7/3 14/25/3 13/8/3
f 15/9/4 14/26/4 3/2/4
f 2/2/11 3/7/11 17/10/11
f 18/13/6 17/27/6 3/2/6
f 3/2/6 1/7/6 19/12/6
f 7/14/7 2/28/7 16/15/7
f 21/17/8 4/24/8 10/18/8
f 10/24/10 4/24/10 11/22/10
f 11/22/10 8/29/10 9/23/10
