# Blender 4.0.2
# www.blender.org
mtllib 立方体.001_cell.003.mtl
o 立方体.001_cell.003
v 15.433931 7.069816 -16.813412
v 15.613000 7.000622 -16.915518
v 15.571751 7.069816 -16.955452
v 15.518181 6.979693 -17.007627
v 15.454643 6.886725 -17.052916
v 15.464819 6.890115 -17.059364
v 15.678613 6.890246 -16.851624
v 15.668639 6.884748 -16.834793
v 15.440274 6.882132 -17.043581
v 15.663777 6.882239 -16.826794
v 15.322087 6.881999 -16.921932
v 15.545712 6.882107 -16.704954
v 15.613000 7.000622 -16.915518
v 15.571751 7.069816 -16.955452
v 15.518181 6.979693 -17.007627
v 15.454643 6.886725 -17.052916
v 15.464819 6.890115 -17.059364
v 15.678613 6.890246 -16.851624
v 15.668639 6.884748 -16.834793
v 15.440274 6.882132 -17.043581
v 15.663777 6.882239 -16.826794
v 15.545712 6.882107 -16.704954
v 15.322087 6.881999 -16.921932
vn 0.6966 0.0013 -0.7174
vn 0.1939 -0.9606 -0.1989
vn 0.1848 -0.9642 -0.1900
vn 0.6969 -0.0009 -0.7172
vn 0.0008 -1.0000 -0.0003
vn 0.5523 0.6386 0.5359
vn -0.5523 0.6386 -0.5359
vn -0.6964 -0.0000 0.7177
vn 0.5524 0.6385 0.5359
vn 0.5523 0.6385 0.5360
vt 0.500913 0.284281
vt 0.517591 0.000000
vt 0.608778 0.000000
vt 1.000000 0.578811
vt 0.325531 0.325531
vt 1.000000 0.316238
vt 0.316238 0.316238
vt 0.578778 0.000000
vt 0.578811 0.578811
vt 0.608778 0.608778
vt 1.000000 0.325531
vt 1.000000 0.579741
vt 0.578778 0.578778
vt 0.598825 0.312546
vt 0.865039 0.578851
vt 0.750759 0.646330
vt 0.750695 0.625000
vt 0.875000 0.647297
vt 0.875000 0.625000
vt 0.750605 0.614295
vt 0.757980 0.603252
vt 0.625000 0.125000
vt 0.625000 0.147310
vt 0.625000 0.102703
vt 0.579741 0.579741
vt 0.312661 0.000000
vt 0.517591 0.517591
vt 0.312661 0.312661
vt 0.768439 0.647281
vt 0.762707 0.646983
vt 0.750654 0.633219
vt 0.768473 0.602706
vt 0.875000 0.602690
vt 0.750695 0.625000
vt 0.750623 0.603654
s 0
usemtl 石头
f 14/1/1 13/2/1 15/3/1
f 16/4/2 18/5/2 19/6/2
f 19/7/3 20/8/3 16/9/3
f 15/10/4 18/11/4 17/12/4
f 20/13/5 22/14/5 23/15/5
f 7/16/6 3/17/6 12/18/6
f 1/19/7 4/20/7 5/21/7
f 1/22/8 11/23/8 12/24/8
f 16/4/2 17/25/2 18/5/2
f 19/7/3 21/26/3 20/8/3
f 15/10/4 13/27/4 18/11/4
f 20/13/5 21/28/5 22/14/5
f 10/29/9 8/30/9 7/16/9
f 7/16/10 2/31/10 3/17/10
f 3/17/6 1/19/6 12/18/6
f 12/18/6 10/29/6 7/16/6
f 9/32/7 11/33/7 1/19/7
f 1/19/7 3/34/7 4/20/7
f 4/20/7 6/35/7 5/21/7
f 5/21/7 9/32/7 1/19/7
