# Blender 4.0.2
# www.blender.org
mtllib 立方体.001_cell.085.mtl
o 立方体.001_cell.085
v 15.854877 5.839350 -16.484724
v 15.884929 5.771296 -16.455566
v 15.788463 5.884841 -16.549166
v 15.781739 5.781784 -16.555689
v 15.842064 5.734874 -16.497156
v 15.837137 5.869142 -16.501938
v 15.885869 5.743342 -16.454653
v 15.891894 5.746768 -16.448807
v 15.853720 5.726089 -16.485847
v 15.689613 5.877911 -16.645077
v 15.716617 5.832564 -16.618876
vn -0.6964 -0.0000 0.7177
vn -0.6963 -0.0000 0.7177
vn -0.6963 -0.0004 0.7177
vn -0.6964 0.0001 0.7177
vt 0.594592 0.049214
vt 0.599555 0.048983
vt 0.590100 0.076563
vt 0.592214 0.063572
vt 0.594194 0.051539
vt 0.597483 0.042801
vt 0.598028 0.041599
vt 0.598640 0.042989
vt 0.599633 0.052522
vt 0.596894 0.062751
vt 0.590269 0.081949
s 0
usemtl 金边
f 9/1/1 1/2/1 11/3/1
f 4/4/2 5/5/2 9/1/2
f 9/1/3 7/6/3 8/7/3
f 8/7/1 2/8/1 1/2/1
f 1/2/1 6/9/1 3/10/1
f 3/10/1 10/11/1 11/3/1
f 11/3/4 4/4/4 9/1/4
f 9/1/1 8/7/1 1/2/1
f 1/2/1 3/10/1 11/3/1
