# Blender 4.0.2
# www.blender.org
mtllib 立方体.001_cell.057.mtl
o 立方体.001_cell.057
v 15.066417 5.338377 -17.295223
v 14.963955 5.361957 -17.395229
v 15.057497 5.347439 -17.304850
v 14.918029 5.262970 -17.440300
v 14.942517 5.367943 -17.445705
v 14.901023 5.281237 -17.485250
v 14.994907 5.319657 -17.408611
v 15.028621 5.288921 -17.375898
v 15.281039 5.338429 -17.516367
v 15.276764 5.342676 -17.520515
v 15.249445 5.270260 -17.547022
v 15.222470 5.212479 -17.573195
v 14.970746 5.233503 -17.388571
v 14.992476 5.233479 -17.410969
v 15.180874 5.235604 -17.613556
v 15.026523 5.214552 -17.377934
v 15.004606 5.214576 -17.355345
v 14.940080 5.288066 -17.552219
v 15.087502 5.288120 -17.704153
v 14.912207 5.288648 -17.523460
v 14.957129 5.354631 -17.566034
v 15.089426 5.356360 -17.702286
v 15.141161 5.367560 -17.652088
v 15.202296 5.358384 -17.592770
v 15.017497 5.354572 -17.353851
v 14.985799 5.360225 -17.392683
v 14.998175 5.360224 -17.405439
v 15.271887 5.347375 -17.525248
v 15.033909 5.354571 -17.370768
v 14.976353 5.359104 -17.383129
v 15.012302 5.354454 -17.348516
v 15.006750 5.288921 -17.353359
v 14.973854 5.328304 -17.385519
v 15.004842 5.222949 -17.355114
v 14.973161 5.319657 -17.386198
v 15.281039 5.338429 -17.516367
v 15.276764 5.342676 -17.520515
v 15.249445 5.270260 -17.547022
v 14.970746 5.233503 -17.388571
v 14.992476 5.233479 -17.410969
v 15.026523 5.214552 -17.377934
v 15.180874 5.235604 -17.613556
v 15.087502 5.288120 -17.704153
v 14.912207 5.288648 -17.523460
v 14.957129 5.354631 -17.566034
v 15.089426 5.356360 -17.702286
v 15.141161 5.367560 -17.652088
v 15.202296 5.358384 -17.592770
v 14.985799 5.360225 -17.392683
v 14.998175 5.360224 -17.405439
v 15.033909 5.354571 -17.370768
v 15.006750 5.288921 -17.353359
v 15.004842 5.222949 -17.355114
v 14.973161 5.319657 -17.386198
v 15.004606 5.214576 -17.355345
v 15.271887 5.347375 -17.525248
v 15.017497 5.354572 -17.353851
v 15.012302 5.354454 -17.348516
v 15.222470 5.212479 -17.573195
v 14.976353 5.359104 -17.383129
v 14.973854 5.328304 -17.385519
v 14.940080 5.288066 -17.552219
vn 0.4165 0.8142 0.4044
vn 0.6029 -0.5425 0.5850
vn 0.5901 -0.5452 0.5954
vn -0.2665 -0.9288 -0.2575
vn -0.2685 -0.9273 -0.2608
vn -0.2911 -0.9197 -0.2636
vn -0.8607 0.4840 -0.1581
vn -0.1164 0.9881 -0.1005
vn 0.0781 0.9942 0.0733
vn 0.0810 0.9936 0.0785
vn 0.4078 0.8225 0.3964
vn -0.6841 0.0949 0.7232
vn -0.6983 0.0012 0.7158
vn -0.6191 -0.0043 0.7853
vn -0.7004 -0.0000 0.7138
vn -0.8806 0.2168 0.4213
vn -0.8833 0.2387 0.4035
vn 0.0685 0.9937 0.0888
vn 0.6964 -0.0000 -0.7177
vn 0.7132 -0.1115 0.6920
vn -0.7171 0.0393 -0.6958
vn 0.7171 -0.0393 0.6958
vn -0.7132 0.1115 -0.6920
vn -0.6964 -0.0000 0.7177
vn 0.5825 -0.5715 0.5780
vn -0.2665 -0.9288 -0.2576
vn -0.1273 0.9840 -0.1243
vn -0.7011 0.0038 0.7130
vn -0.6464 -0.0016 0.7630
vn 0.0579 0.9833 0.1726
vn 0.6963 -0.0001 -0.7178
vn 0.6965 -0.0000 -0.7176
vn 0.6964 -0.0001 -0.7177
vn 0.6963 -0.0000 -0.7177
vt 0.518582 0.000000
vt 1.000000 0.000000
vt 1.000000 0.471676
vt 0.000000 0.000000
vt 0.539981 0.000000
vt 0.471676 0.471676
vt 0.539981 0.539981
vt 1.000000 0.539916
vt 1.000000 0.539345
vt 0.539916 0.539916
vt 0.467796 0.054689
vt 0.539345 0.539345
vt 0.354997 0.000000
vt 0.831674 0.277058
vt 1.000000 0.141350
vt 0.354997 0.354997
vt 0.141350 0.141350
vt 0.607333 0.000000
vt 1.000000 0.657441
vt 0.611387 0.434164
vt 0.657441 0.657441
vt 0.463204 0.000000
vt 1.000000 0.480853
vt 0.376300 0.027791
vt 0.651944 0.036854
vt 1.000000 0.481418
vt 1.000000 1.000000
vt 1.000000 0.466794
vt 0.225580 0.000000
vt 0.120997 0.120997
vt 0.466793 0.466793
vt 0.931783 0.000000
vt 1.000000 0.587009
vt 0.298049 0.254928
vt 1.000000 0.347891
vt 0.516845 0.000000
vt 1.000000 0.623575
vt 0.578129 0.527529
vt 0.590192 0.511310
vt 0.581494 0.537386
vt 0.585653 0.229305
vt 0.585292 0.229444
vt 0.586987 0.228792
vt 0.589659 0.367035
vt 0.592974 0.381826
vt 0.592968 0.500000
vt 0.581377 0.229929
vt 0.585292 0.229444
vt 0.584618 0.221664
vt 0.581901 0.222719
vt 0.581901 0.222719
vt 0.578557 0.223137
vt 0.578933 0.223090
vt 0.586987 0.228792
vt 0.581376 0.229929
vt 0.412991 0.000000
vt 0.035944 0.000000
vt 0.091217 0.055157
vt 1.000000 0.388327
vt 0.652109 0.000000
vt 0.463204 0.463204
vt 0.376425 0.000000
vt 0.480853 0.480853
vt 0.677415 0.223114
vt 0.225580 0.225580
vt 0.133971 0.000000
vt 0.580989 0.538359
vt 0.580540 0.539212
vt 0.579256 0.532910
vt 0.581603 0.519232
vt 0.589493 0.500607
vt 0.592694 0.500991
vt 0.586136 0.523505
vt 0.586940 0.228810
vt 0.585292 0.229444
vt 0.589661 0.500000
vt 0.589687 0.341880
vt 0.584613 0.221666
vt 0.584618 0.221664
vt 0.578556 0.223137
vt 0.584618 0.221664
s 0
usemtl 石头
f 37/1/1 1/2/1 36/3/1
f 1/4/2 38/5/2 36/6/2
f 38/7/3 55/2/3 59/8/3
f 42/9/4 59/10/4 40/11/4
f 42/12/5 62/13/5 43/14/5
f 4/4/6 44/15/6 62/16/6
f 5/2/7 44/17/7 6/4/7
f 45/18/8 47/19/8 46/20/8
f 47/21/9 5/4/9 48/22/9
f 56/23/10 50/24/10 51/25/10
f 37/26/11 3/4/11 1/2/11
f 1/27/12 3/4/12 58/28/12
f 61/29/13 60/30/13 2/4/13
f 58/31/14 53/32/14 55/2/14
f 2/4/15 39/33/15 54/34/15
f 2/4/16 6/2/16 4/27/16
f 5/2/17 6/27/17 2/4/17
f 3/2/18 57/35/18 58/36/18
f 2/4/18 49/37/18 5/27/18
f 12/38/19 23/39/19 28/40/19
f 33/41/20 7/42/20 26/43/20
f 18/44/21 21/45/21 22/46/21
f 13/47/22 7/42/22 35/48/22
f 25/49/23 8/50/23 32/50/23
f 8/51/21 17/52/21 34/53/21
f 8/50/24 27/54/24 14/55/24
f 38/7/25 1/4/25 55/2/25
f 39/56/4 4/2/4 42/9/4
f 59/10/26 55/57/26 41/58/26
f 40/11/4 39/56/4 42/9/4
f 59/10/4 41/58/4 40/11/4
f 42/12/5 4/4/5 62/13/5
f 4/4/6 6/2/6 44/15/6
f 5/2/7 45/59/7 44/17/7
f 45/18/27 5/2/27 47/19/27
f 57/60/10 3/2/10 56/23/10
f 56/23/10 48/61/10 5/4/10
f 5/4/10 49/62/10 50/24/10
f 51/25/10 57/60/10 56/23/10
f 56/23/10 5/4/10 50/24/10
f 37/26/11 56/63/11 3/4/11
f 55/2/28 1/27/28 58/31/28
f 58/31/29 52/64/29 53/32/29
f 54/34/15 61/65/15 2/4/15
f 2/4/15 4/2/15 39/33/15
f 2/4/30 60/66/30 49/37/30
f 28/40/31 10/67/31 9/68/31
f 9/68/32 11/69/32 12/38/32
f 12/38/33 15/70/33 19/71/33
f 19/71/19 22/72/19 23/39/19
f 23/39/34 24/73/34 28/40/34
f 28/40/19 9/68/19 12/38/19
f 12/38/19 19/71/19 23/39/19
f 26/43/20 30/74/20 33/41/20
f 33/41/20 35/75/20 7/42/20
f 7/42/20 27/54/20 26/43/20
f 22/46/21 19/76/21 18/44/21
f 18/44/21 20/77/21 21/45/21
f 13/47/22 14/55/22 7/42/22
f 32/50/23 31/78/23 25/49/23
f 25/49/23 29/79/23 8/50/23
f 34/53/21 32/51/21 8/51/21
f 8/51/21 16/80/21 17/52/21
f 14/55/24 16/80/24 8/50/24
f 8/50/24 29/81/24 27/54/24
f 27/54/24 7/42/24 14/55/24
