# Blender 4.0.2
# www.blender.org
mtllib 立方体.001_cell.027.mtl
o 立方体.001_cell.027
v 16.021046 5.619061 -16.327765
v 15.965404 5.728371 -16.382082
v 15.981815 5.716395 -16.387579
v 16.014935 5.762722 -16.333738
v 16.063133 5.742082 -16.335115
v 16.048527 5.774361 -16.311609
v 15.959972 5.665978 -16.387220
v 15.933847 5.708607 -16.377050
v 15.927796 5.717758 -16.374411
v 15.907690 5.717863 -16.353729
v 15.914119 5.722308 -16.347492
v 15.972997 5.762917 -16.290363
v 15.993971 5.771538 -16.270012
v 16.001289 5.774301 -16.262911
v 15.998684 5.754366 -16.265440
v 15.990996 5.700497 -16.272900
v 15.979092 5.619206 -16.284449
v 15.918756 5.661526 -16.342993
v 15.959972 5.665978 -16.387220
v 15.933847 5.708607 -16.377050
v 15.927796 5.717758 -16.374411
v 15.972997 5.762917 -16.290363
v 15.993971 5.771538 -16.270012
v 16.001289 5.774301 -16.262911
v 15.998684 5.754366 -16.265440
v 15.990996 5.700497 -16.272900
v 15.979092 5.619206 -16.284449
v 15.918756 5.661526 -16.342993
v 15.907690 5.717863 -16.353729
v 15.914119 5.722308 -16.347492
vn 0.2407 0.6576 -0.7139
vn 0.2431 0.6563 -0.7143
vn 0.2615 0.6427 -0.7201
vn 0.5790 -0.2446 -0.7778
vn 0.5687 -0.2520 -0.7830
vn -0.2277 0.0918 -0.9694
vn -0.2320 0.1248 -0.9647
vn -0.3165 0.8957 -0.3122
vn -0.3169 0.8962 -0.3104
vn -0.2013 0.9591 -0.1989
vn -0.1883 0.9652 -0.1815
vn 0.7063 -0.1792 0.6849
vn 0.7026 -0.1950 0.6843
vn 0.7035 -0.1999 0.6820
vn -0.3245 -0.8932 -0.3113
vn -0.3074 -0.8748 -0.3745
vn -0.6964 -0.0000 0.7177
vn -0.6922 -0.2640 -0.6717
vn -0.6963 -0.0000 0.7177
vn -0.6960 -0.0018 0.7180
vt 0.000000 0.000000
vt 1.000000 0.000000
vt 1.000000 1.000000
vt 1.000000 0.059291
vt 1.000000 0.653845
vt 0.059291 0.059291
vt 0.653845 0.653845
vt 0.412560 0.128907
vt 0.412817 0.000000
vt 1.000000 0.761227
vt 0.412817 0.412817
vt 0.739254 0.000000
vt 0.739254 0.739254
vt 1.000000 0.692728
vt 0.617140 0.000000
vt 0.617141 0.617141
vt 1.000000 0.660349
vt 0.660349 0.660349
vt 0.753652 0.000000
vt 1.000000 0.432637
vt 0.753652 0.753652
vt 0.432636 0.432636
vt 1.000000 0.024813
vt 0.606978 0.017471
vt 0.600611 0.016255
vt 0.608255 0.012347
vt 0.598649 0.028298
vt 0.600438 0.030498
vt 0.600435 0.030494
vt 0.692156 0.000000
vt 0.692156 0.692156
vt 0.761227 0.761227
vt 0.692728 0.692728
vt 0.609371 0.011827
vt 0.608761 0.013287
vt 0.601054 0.029216
vt 0.598643 0.028291
vt 0.605200 0.013881
vt 0.600143 0.030135
vt 0.598643 0.028291
s 0
usemtl 石头
f 2/1/1 4/2/1 3/3/1
f 4/1/2 6/2/2 3/3/2
f 6/1/3 5/2/3 3/3/3
f 3/3/4 5/1/4 1/2/4
f 1/1/5 19/4/5 3/3/5
f 20/5/6 3/3/6 19/6/6
f 20/7/7 2/2/7 3/3/7
f 2/3/8 29/8/8 30/9/8
f 22/10/9 4/3/9 30/11/9
f 4/3/10 23/12/10 6/2/10
f 23/13/11 24/14/11 6/3/11
f 6/3/12 25/15/12 5/2/12
f 25/16/13 26/17/13 5/3/13
f 1/2/14 26/18/14 27/19/14
f 28/20/15 1/3/15 27/21/15
f 1/3/16 28/22/16 19/23/16
f 12/24/17 17/25/17 15/26/17
f 7/27/18 10/28/18 9/29/18
f 20/7/7 21/30/7 2/2/7
f 30/9/8 4/2/8 2/3/8
f 2/3/8 21/31/8 29/8/8
f 4/3/10 22/32/10 23/12/10
f 6/3/12 24/33/12 25/15/12
f 1/2/14 5/3/14 26/18/14
f 14/34/19 13/35/19 12/24/19
f 12/24/20 11/36/20 10/28/20
f 10/28/17 18/37/17 17/25/17
f 17/25/17 16/38/17 15/26/17
f 15/26/17 14/34/17 12/24/17
f 12/24/17 10/28/17 17/25/17
f 9/29/18 8/39/18 7/27/18
f 7/27/18 18/40/18 10/28/18
