# Blender 4.0.2
# www.blender.org
mtllib 立方体.001_cell.167.mtl
o 立方体.001_cell.167
v 15.913891 3.162140 -16.427471
v 15.913891 3.380740 -16.427471
v 15.915520 3.166781 -16.425890
v 15.967634 3.231165 -16.375324
v 15.925171 3.115419 -16.439096
v 15.932404 3.104534 -16.446550
v 15.935691 3.097078 -16.449940
v 15.942440 3.103447 -16.443396
v 15.962746 3.132199 -16.423704
v 15.985320 3.130623 -16.401814
v 15.989450 3.135719 -16.397808
v 15.989318 3.380196 -16.397673
v 15.967634 3.380736 -16.375324
v 15.935586 3.380200 -16.449831
v 15.935691 3.097078 -16.449940
v 15.989450 3.135719 -16.397808
v 15.989318 3.380196 -16.397673
v 15.967634 3.380736 -16.375324
v 15.935586 3.380200 -16.449831
v 15.913891 3.380740 -16.427471
vn -0.0131 -0.3182 0.9479
vn 0.6955 0.0009 -0.7185
vn 0.7177 -0.0000 0.6964
vn 0.0121 0.9998 -0.0124
vn -0.7177 -0.0000 -0.6964
vn -0.6665 0.0657 -0.7426
vn 0.6962 -0.0000 -0.7179
vn 0.6965 0.0005 -0.7175
vn 0.6961 0.0008 -0.7179
vt 0.478009 0.037212
vt 0.480708 0.037212
vt 0.480674 0.037212
vt 0.874502 0.467478
vt 0.856591 0.414549
vt 1.000000 0.525245
vt 0.485610 0.026492
vt 0.492604 0.026492
vt 0.492629 0.026492
vt 1.000000 0.408274
vt 0.955632 0.480344
vt 0.955656 0.363933
vt 0.490791 0.037212
vt 0.490722 0.037212
vt 0.477664 0.037212
vt 0.478512 0.037212
vt 0.876351 0.518914
vt 0.873752 0.510840
vt 0.859577 0.425931
vt 1.000000 0.421892
vt 0.481131 0.026492
vt 1.000000 0.524708
s 0
usemtl 石头
f 6/1/1 3/2/1 1/3/1
f 9/4/2 7/5/2 17/6/2
f 4/7/3 12/8/3 18/9/3
f 17/10/4 2/11/4 13/12/4
f 20/13/5 14/14/5 15/15/5
f 6/1/6 5/16/6 3/2/6
f 20/13/5 15/15/5 6/1/5
f 1/3/5 20/13/5 6/1/5
f 11/17/7 10/18/7 9/4/7
f 9/4/7 8/19/7 7/5/7
f 7/5/8 19/20/8 17/6/8
f 17/6/9 11/17/9 9/4/9
f 4/7/3 16/21/3 12/8/3
f 17/10/4 19/22/4 2/11/4
