# Blender 4.0.2
# www.blender.org
mtllib 立方体.001_cell.157.mtl
o 立方体.001_cell.157
v 15.991286 5.289226 -16.481596
v 16.011845 5.246430 -16.462099
v 15.976937 5.352587 -16.419870
v 15.981383 5.218987 -16.406326
v 15.987397 5.330946 -16.410383
v 15.958419 5.354177 -16.384262
v 15.978978 5.354036 -16.405428
v 15.963675 5.288921 -16.379162
v 16.002523 5.288921 -16.419199
v 15.965631 5.219582 -16.377264
v 15.959280 5.219280 -16.383427
v 15.984466 5.219336 -16.396660
v 16.009926 5.234477 -16.423756
v 16.024994 5.235662 -16.409136
v 16.008921 5.270122 -16.424730
v 15.951191 5.236442 -16.391275
v 15.999597 5.297159 -16.417511
v 15.926677 5.289501 -16.415060
v 15.943468 5.335201 -16.398767
v 15.950039 5.352753 -16.392393
v 15.958419 5.354177 -16.384262
v 15.978978 5.354036 -16.405428
v 15.965631 5.219582 -16.377264
v 15.984466 5.219336 -16.396660
v 16.009926 5.234477 -16.423756
v 16.024994 5.235662 -16.409136
v 16.002523 5.288921 -16.419199
v 16.008921 5.270122 -16.424730
v 15.999597 5.297159 -16.417511
v 15.987397 5.330946 -16.410383
vn -0.5871 -0.5519 -0.5922
vn 0.9163 0.3654 -0.1641
vn 0.9144 0.3691 -0.1663
vn -0.6322 0.4624 -0.6217
vn -0.6043 -0.5413 -0.5846
vn -0.6376 0.4557 -0.6211
vn -0.0836 0.9926 -0.0878
vn 0.7132 0.1115 0.6920
vn 0.7171 0.0393 0.6958
vn 0.0181 -0.9994 0.0302
vn 0.2572 -0.9261 -0.2758
vn -0.6964 -0.0000 0.7177
vn 0.9203 0.3589 -0.1555
vn -0.6049 -0.5489 -0.5769
vn 0.5163 -0.8458 -0.1342
vn 0.3293 -0.9060 -0.2660
vt 1.000000 1.000000
vt 0.000000 0.000000
vt 1.000000 0.000000
vt 0.546164 0.000000
vt 0.395198 0.395198
vt 1.000000 0.395198
vt 0.278039 0.278039
vt 0.481566 0.000000
vt 1.000000 0.511920
vt 1.000000 0.278039
vt 0.511920 0.511920
vt 0.257800 0.257800
vt 0.518434 0.000000
vt 0.657020 0.260369
vt 0.581901 0.027281
vt 0.582242 0.027413
vt 0.584596 0.028327
vt 0.579452 0.026975
vt 0.578782 0.026891
vt 1.000000 0.605273
vt 0.846120 0.846120
vt 0.847495 0.511646
vt 0.791699 0.533545
vt 0.893016 0.000000
vt 0.581056 0.027175
vt 0.579452 0.026975
vt 0.580366 0.023969
vt 0.959025 0.388701
vt 0.877900 0.237479
vt 1.000000 0.753475
vt 0.753170 0.753170
vt 0.257800 0.000000
vt 0.246525 0.000000
vt 0.584602 0.028330
vt 0.583640 0.027956
vt 0.578775 0.026890
vt 0.581056 0.027175
vt 0.539272 0.539272
vt 0.539272 0.000000
vt 1.000000 0.453836
s 0
usemtl 石头
f 1/1/1 2/2/1 4/3/1
f 17/4/2 1/1/2 30/5/2
f 3/2/3 30/6/3 1/1/3
f 3/3/4 19/7/4 20/8/4
f 4/2/5 18/9/5 1/1/5
f 19/10/6 1/1/6 18/11/6
f 22/12/7 20/13/7 6/14/7
f 8/15/8 29/16/8 7/17/8
f 25/18/9 27/15/9 23/19/9
f 11/20/10 12/21/10 10/22/10
f 2/1/11 13/23/11 12/24/11
f 28/25/12 25/26/12 14/27/12
f 2/3/13 9/28/13 15/29/13
f 16/30/14 4/1/14 11/31/14
f 17/4/2 2/3/2 1/1/2
f 3/2/3 22/32/3 30/6/3
f 3/3/4 1/1/4 19/7/4
f 4/2/5 16/33/5 18/9/5
f 22/12/7 3/2/7 20/13/7
f 7/17/8 21/34/8 8/15/8
f 8/15/8 27/15/8 29/16/8
f 29/16/8 5/35/8 7/17/8
f 23/19/9 24/36/9 25/18/9
f 25/18/9 28/37/9 27/15/9
f 27/15/9 8/15/9 23/19/9
f 11/20/10 4/1/10 12/21/10
f 12/24/15 4/3/15 2/1/15
f 2/1/16 26/38/16 13/23/16
f 15/29/13 26/39/13 2/3/13
f 2/3/13 17/40/13 9/28/13
