# Blender 4.0.2
# www.blender.org
mtllib 立方体.001_cell.005.mtl
o 立方体.001_cell.005
v 15.522813 5.343415 -16.903496
v 15.936559 5.586202 -16.450432
v 16.112291 5.586601 -16.631090
v 15.898490 5.640637 -16.487551
v 15.903627 5.690322 -16.576538
v 15.930652 5.592145 -16.446993
v 15.933876 5.598408 -16.453274
v 16.111547 5.598268 -16.635834
v 15.898906 5.588374 -16.531479
v 15.579735 5.376817 -16.841164
v 15.540826 5.355387 -16.878916
v 15.885387 5.557964 -16.500265
v 15.872070 5.596663 -16.468046
v 15.548707 5.362221 -16.871269
v 15.856741 5.585009 -16.486111
v 15.884428 5.607288 -16.456057
v 15.874252 5.639308 -16.551073
v 15.814944 5.774053 -16.998329
v 15.780096 5.744161 -17.032143
v 15.712076 5.685678 -17.098141
v 15.711766 5.463984 -17.098442
v 15.711751 5.343534 -17.098457
v 15.812377 5.398976 -17.000820
v 15.907560 5.557900 -16.523081
v 16.040897 5.525205 -16.779091
v 15.880287 5.562695 -16.497698
v 16.117588 5.567765 -16.704681
v 15.953379 5.728933 -16.864010
v 16.071798 5.690134 -16.749109
v 16.077368 5.683527 -16.743706
v 16.116720 5.578550 -16.705521
v 16.107941 5.647088 -16.714041
v 16.111475 5.621495 -16.710611
v 15.540826 5.355387 -16.878916
v 15.548707 5.362221 -16.871269
v 15.814944 5.774053 -16.998329
v 15.780096 5.744161 -17.032143
v 15.712076 5.685678 -17.098141
v 15.711766 5.463984 -17.098442
v 15.711751 5.343534 -17.098457
v 15.812377 5.398976 -17.000820
v 15.579735 5.376817 -16.841164
v 15.907560 5.557900 -16.523081
v 16.040897 5.525205 -16.779091
v 15.885387 5.557964 -16.500265
v 15.880287 5.562695 -16.497698
v 15.953379 5.728933 -16.864010
v 16.071798 5.690134 -16.749109
v 16.077368 5.683527 -16.743706
v 16.107941 5.647088 -16.714041
v 15.856741 5.585009 -16.486111
v 16.111475 5.621495 -16.710611
v 16.117588 5.567765 -16.704681
v 16.116720 5.578550 -16.705521
v 15.874252 5.639308 -16.551073
vn 0.2516 -0.9298 0.2685
vn -0.7721 0.5652 0.2905
vn -0.7662 0.5797 0.2774
vn -0.7187 0.0019 -0.6954
vn -0.7181 0.0002 -0.6959
vn 0.2643 -0.9299 0.2556
vn 0.2646 -0.9296 0.2565
vn -0.2865 -0.6770 0.6779
vn 0.2663 -0.9290 0.2569
vn 0.6846 0.2948 0.6666
vn -0.2969 -0.6677 0.6827
vn 0.0737 0.6681 0.7404
vn -0.7571 0.5880 0.2846
vn 0.1645 0.9734 0.1592
vn 0.1631 0.9737 0.1590
vn 0.4647 0.7615 0.4520
vn -0.7663 0.5800 0.2763
vn 0.9952 0.0838 0.0502
vn 0.6808 0.3127 0.6623
vn 0.6806 0.3136 0.6621
vn 0.1029 0.6774 0.7283
vn 0.4667 0.7592 0.4536
vn 0.4663 0.7599 0.4529
vn 0.9889 0.1424 0.0433
vn 0.6964 -0.0000 -0.7177
vn -0.6870 -0.0315 0.7260
vn -0.6673 -0.3680 -0.6475
vn -0.6044 -0.5235 -0.6005
vn 0.9913 0.1256 0.0381
vn -0.7668 0.5789 0.2772
vn -0.7667 0.5792 0.2770
vn -0.7662 0.5796 0.2774
vn -0.7661 0.5797 0.2776
vn 0.2623 -0.9300 0.2576
vn -0.3246 -0.5166 0.7923
vn -0.6962 -0.0000 0.7178
vn -0.7660 0.5806 0.2761
vn 0.6964 -0.0000 -0.7176
vn 0.6962 -0.0000 -0.7178
vn 0.6963 0.0001 -0.7177
vn 0.6953 -0.0003 -0.7187
vn 0.6963 -0.0000 -0.7177
vn -0.4763 0.1053 0.8729
vn -0.7927 0.3882 0.4700
vn -0.6965 -0.0003 0.7176
vt 1.000000 1.000000
vt 0.862422 0.862422
vt 1.000000 0.859628
vt 1.000000 0.928325
vt 0.859628 0.859628
vt 1.000000 0.000000
vt 0.928325 0.928325
vt 0.636476 0.058479
vt 0.036450 0.036450
vt 1.000000 0.660405
vt 0.660405 0.660405
vt 1.000000 0.688525
vt 0.688525 0.688525
vt 1.000000 0.536088
vt 0.504176 0.000000
vt 0.954219 0.093373
vt 0.180186 0.000000
vt 1.000000 0.820716
vt 0.504176 0.504176
vt 0.847384 0.000000
vt 0.000000 0.000000
vt 1.000000 0.051567
vt 1.000000 0.117374
vt 0.934696 0.934696
vt 0.947517 0.947517
vt 1.000000 0.584794
vt 0.163899 0.163899
vt 0.584794 0.584794
vt 1.000000 0.099033
vt 0.867182 0.000000
vt 1.000000 0.036450
vt 0.900966 0.000000
vt 0.145957 0.145957
vt 1.000000 0.132818
vt 0.531640 0.000000
vt 0.165256 0.000000
vt 0.531640 0.531640
vt 0.555565 0.625128
vt 0.579333 0.645712
vt 0.592537 0.704157
vt 0.589389 0.053915
vt 0.557287 0.120548
vt 0.587860 0.047394
vt 0.588639 0.049120
vt 0.587862 0.047397
vt 0.587983 0.047665
vt 0.589380 0.053607
vt 1.000000 0.145957
vt 0.834744 0.000000
vt 0.074364 0.074364
vt 0.025237 0.025237
vt 0.017655 0.000000
vt 1.000000 0.862422
vt 0.536088 0.536088
vt 1.000000 0.116585
vt 0.180186 0.180186
vt 0.934696 0.000000
vt 1.000000 0.163900
vt 0.088886 0.088886
vt 1.000000 0.152616
vt 0.589997 0.705909
vt 0.589563 0.706081
vt 0.582880 0.690784
vt 0.563675 0.645200
vt 0.560415 0.625131
vt 0.569357 0.625193
vt 0.575922 0.638761
vt 0.586234 0.673326
vt 0.592144 0.696947
vt 0.592209 0.698059
vt 0.591608 0.704862
vt 0.558018 0.118976
vt 0.560410 0.112786
s 0
usemtl 石头
f 1/1/1 42/2/1 34/3/1
f 35/4/2 1/1/2 34/5/2
f 5/6/3 35/7/3 17/8/3
f 38/9/4 39/10/4 1/1/4
f 39/11/5 40/12/5 1/1/5
f 40/13/6 41/14/6 1/1/6
f 44/15/7 2/6/7 43/16/7
f 2/1/8 46/17/8 45/18/8
f 3/6/9 44/19/9 53/20/9
f 6/6/10 2/1/10 3/21/10
f 6/21/11 13/22/11 51/23/11
f 4/6/12 16/24/12 6/21/12
f 16/25/13 4/21/13 5/6/13
f 47/26/14 5/1/14 48/27/14
f 5/1/15 47/28/15 36/29/15
f 49/30/16 5/1/16 4/21/16
f 38/31/17 5/21/17 36/32/17
f 3/6/18 54/33/18 8/21/18
f 8/6/19 6/1/19 3/21/19
f 7/6/20 6/1/20 8/21/20
f 4/6/21 6/1/21 7/21/21
f 4/1/22 7/21/22 8/6/22
f 49/34/23 8/21/23 50/35/23
f 8/21/24 52/36/24 50/37/24
f 22/38/25 18/39/25 32/40/25
f 55/41/26 11/42/26 24/43/26
f 9/44/27 12/45/27 26/46/27
f 55/47/28 9/44/28 15/44/28
f 54/48/29 52/49/29 8/6/29
f 17/8/30 51/50/30 13/51/30
f 13/51/31 16/52/31 5/6/31
f 5/6/32 1/1/32 35/7/32
f 17/8/33 13/51/33 5/6/33
f 43/16/7 42/53/7 1/1/7
f 1/1/7 41/54/7 44/15/7
f 2/6/34 45/55/34 43/16/34
f 43/16/7 1/1/7 44/15/7
f 2/1/8 6/21/8 46/17/8
f 3/6/9 2/1/9 44/19/9
f 51/23/11 46/56/11 6/21/11
f 6/21/35 16/57/35 13/22/35
f 49/30/16 48/58/16 5/1/16
f 36/32/36 37/59/36 38/31/36
f 38/31/37 1/1/37 5/21/37
f 3/6/18 53/60/18 54/33/18
f 49/34/23 4/1/23 8/21/23
f 31/61/25 27/62/25 25/63/25
f 25/63/25 23/64/25 22/38/25
f 22/38/38 21/65/38 20/66/38
f 20/66/39 19/67/39 18/39/39
f 18/39/40 28/68/40 29/69/40
f 29/69/41 30/70/41 32/40/41
f 32/40/42 33/71/42 31/61/42
f 31/61/25 25/63/25 22/38/25
f 22/38/25 20/66/25 18/39/25
f 18/39/25 29/69/25 32/40/25
f 32/40/25 31/61/25 22/38/25
f 24/43/43 9/44/43 55/41/43
f 55/41/44 14/72/44 11/42/44
f 11/42/45 10/73/45 24/43/45
f 26/46/27 15/44/27 9/44/27
f 9/44/27 24/43/27 12/45/27
