# Blender 4.0.2
# www.blender.org
mtllib 立方体.001_cell.103.mtl
o 立方体.001_cell.103
v 15.926677 5.289501 -16.415060
v 15.943468 5.335201 -16.398767
v 15.950039 5.352753 -16.392393
v 15.963675 5.288921 -16.379162
v 15.958419 5.354177 -16.384262
v 15.959280 5.219280 -16.383427
v 15.965631 5.219582 -16.377264
v 15.951191 5.236442 -16.391275
vn -0.6964 -0.0000 0.7177
vn -0.6963 -0.0000 0.7177
vn -0.6964 -0.0000 0.7176
vt 0.581901 0.027281
vt 0.584044 0.030001
vt 0.579777 0.034661
vt 0.578747 0.029771
vt 0.578408 0.028158
vt 0.578782 0.026891
vt 0.584602 0.028330
vt 0.582851 0.031312
s 0
usemtl 金边
f 4/1/1 3/2/1 1/3/1
f 1/3/2 8/4/2 6/5/2
f 6/5/1 7/6/1 4/1/1
f 4/1/1 5/7/1 3/2/1
f 3/2/3 2/8/3 1/3/3
f 1/3/1 6/5/1 4/1/1
