# Blender 4.0.2
# www.blender.org
mtllib 立方体.001_cell.023.mtl
o 立方体.001_cell.023
v 16.041195 5.247953 -16.307507
v 16.037706 5.247081 -16.311132
v 15.957531 5.319657 -16.305368
v 15.961748 5.328753 -16.301277
v 15.955858 5.340426 -16.306993
v 15.998079 5.331113 -16.349005
v 15.995549 5.319657 -16.344551
v 15.970160 5.238877 -16.313826
v 15.959809 5.238908 -16.303160
v 15.987899 5.245359 -16.275904
v 15.997001 5.247520 -16.267073
v 15.961748 5.328753 -16.301277
v 15.955858 5.340426 -16.306993
v 15.998079 5.331113 -16.349005
v 15.995549 5.319657 -16.344551
v 15.970160 5.238877 -16.313826
v 15.959809 5.238908 -16.303160
v 15.997001 5.247520 -16.267073
v 15.987899 5.245359 -16.275904
vn 0.6379 0.5735 0.5140
vn 0.7175 0.0246 -0.6961
vn 0.0826 -0.3769 -0.9226
vn 0.1153 -0.9867 0.1147
vn 0.5752 0.5167 0.6342
vn 0.1204 -0.9853 0.1211
vn 0.1184 -0.9858 0.1192
vn -0.7171 -0.0393 -0.6958
vn -0.6964 -0.0000 0.7177
vn -0.7132 -0.1115 -0.6920
vn 0.6326 0.5826 0.5103
vt 0.497674 0.000000
vt 1.000000 0.770843
vt 0.498009 0.105689
vt 0.770843 0.770843
vt 0.000000 0.000000
vt 1.000000 0.000000
vt 0.765994 0.657106
vt 0.751397 0.751397
vt 0.980384 0.980384
vt 0.220428 0.000000
vt 0.981025 0.915404
vt 0.722739 0.000000
vt 1.000000 0.502326
vt 1.000000 1.000000
vt 0.722159 0.000000
vt 1.000000 0.779572
vt 0.722159 0.722159
vt 0.585292 0.020556
vt 0.581621 0.020102
vt 0.581622 0.020102
vt 0.583493 0.014499
vt 0.585953 0.019715
vt 0.586160 0.020890
vt 0.585770 0.020740
vt 0.980384 0.000000
vt 0.581622 0.020102
vt 0.584288 0.012163
vt 0.586160 0.020890
s 0
usemtl 石头
f 12/1/1 14/2/1 13/3/1
f 14/4/2 1/5/2 2/6/2
f 2/5/3 15/7/3 14/8/3
f 16/9/4 19/10/4 17/11/4
f 18/12/5 1/6/5 12/13/5
f 1/14/6 18/15/6 2/6/6
f 19/16/7 2/14/7 18/17/7
f 3/18/8 8/19/8 9/20/8
f 3/18/9 10/21/9 4/22/9
f 7/18/10 5/23/10 6/24/10
f 12/1/11 1/6/11 14/2/11
f 2/5/3 16/25/3 15/7/3
f 16/9/4 2/5/4 19/10/4
f 3/18/8 7/18/8 8/19/8
f 3/18/9 9/26/9 10/21/9
f 10/21/9 11/27/9 4/22/9
f 4/22/9 5/28/9 3/18/9
f 7/18/10 3/18/10 5/23/10
