# Blender 4.0.2
# www.blender.org
mtllib 立方体.001_cell.080.mtl
o 立方体.001_cell.080
v 15.711110 7.069816 -17.099077
v 15.614223 7.000828 -16.917021
v 15.573235 7.069816 -16.956978
v 15.519588 6.979909 -17.008816
v 15.466062 6.890029 -17.060743
v 15.680229 6.890014 -16.853010
v 15.529471 6.764794 -17.275318
v 15.892734 6.764821 -16.922852
v 15.614223 7.000828 -16.917021
v 15.573235 7.069816 -16.956978
v 15.519588 6.979909 -17.008816
v 15.466062 6.890029 -17.060743
v 15.529471 6.764794 -17.275318
v 15.680229 6.890014 -16.853010
v 15.892734 6.764821 -16.922852
vn -0.6965 0.0018 0.7176
vn -0.6962 -0.0001 0.7178
vn -0.3720 -0.8453 0.3834
vn 0.5523 0.6386 0.5359
vn -0.5523 0.6386 -0.5359
vn 0.6964 -0.0000 -0.7177
vn 0.5524 0.6384 0.5360
vt 0.716815 0.498594
vt 1.000000 0.390946
vt 1.000000 0.481960
vt 0.674828 0.000000
vt 0.390946 0.390946
vt 0.419993 0.000000
vt 1.000000 0.325172
vt 0.723560 0.525487
vt 0.723677 0.093237
vt 0.749357 0.625000
vt 0.749426 0.646358
vt 0.625000 0.661229
vt 0.625000 0.625000
vt 0.749457 0.603644
vt 0.749453 0.614320
vt 0.625000 0.588768
vt 0.481960 0.481960
vt 1.000000 0.580007
vt 0.749440 0.633195
vt 0.749357 0.625000
vt 0.625000 0.588768
s 0
usemtl 石头
f 10/1/1 11/2/1 9/3/1
f 14/4/2 11/5/2 12/6/2
f 14/7/3 13/8/3 15/9/3
f 3/10/4 6/11/4 8/12/4
f 1/13/5 5/14/5 4/15/5
f 8/12/6 7/16/6 1/13/6
f 14/4/2 9/17/2 11/5/2
f 14/7/3 12/18/3 13/8/3
f 8/12/4 1/13/4 3/10/4
f 3/10/7 2/19/7 6/11/7
f 4/15/5 3/20/5 1/13/5
f 1/13/5 7/21/5 5/14/5
