# Blender 4.0.2
# www.blender.org
mtllib 立方体.001_cell.147.mtl
o 立方体.001_cell.147
v 15.164356 5.748368 -17.197546
v 15.109985 5.705775 -17.250603
v 15.062654 5.771296 -17.253408
v 15.077436 5.804775 -17.239065
v 15.099072 5.804784 -17.261356
v 15.071722 5.726838 -17.288019
v 15.050016 5.726803 -17.265671
v 15.084332 5.771296 -17.275751
v 15.077436 5.804775 -17.239065
v 15.099072 5.804784 -17.261356
v 15.088436 5.705734 -17.228392
v 15.050016 5.726803 -17.265671
v 15.142959 5.748337 -17.175489
v 15.071722 5.726838 -17.288019
v 15.084332 5.771296 -17.275751
vn 0.3770 0.8507 0.3664
vn -0.2620 -0.9305 -0.2559
vn 0.3517 -0.8722 0.3400
vn 0.6988 -0.0008 -0.7153
vn -0.6113 0.5240 -0.5931
vn -0.6673 0.3680 -0.6475
vn 0.3768 0.8506 0.3667
vn 0.3518 -0.8723 0.3397
vn 0.6989 -0.0002 -0.7152
vn 0.6988 -0.0011 -0.7153
vt 0.772541 0.076178
vt 0.000000 0.000000
vt 0.704718 0.000000
vt 0.677798 0.127090
vt 1.000000 0.000000
vt 1.000000 0.126242
vt 0.126242 0.126242
vt 0.071104 0.000000
vt 1.000000 1.000000
vt 0.322107 0.000000
vt 0.635554 0.452944
vt 0.598640 0.207011
vt 0.599090 0.204061
vt 0.597531 0.209530
vt 0.075368 0.075368
vt 0.677893 0.000000
vt 1.000000 0.295282
vt 0.599090 0.204062
vt 0.597530 0.209532
s 0
usemtl 石头
f 4/1/1 1/2/1 10/3/1
f 12/4/2 2/5/2 11/6/2
f 11/7/3 1/2/3 13/8/3
f 1/9/4 14/10/4 15/11/4
f 3/12/5 5/13/5 8/12/5
f 6/14/6 3/12/6 8/12/6
f 4/1/7 13/15/7 1/2/7
f 12/4/2 14/16/2 2/5/2
f 11/7/8 2/2/8 1/2/8
f 15/11/9 10/17/9 1/9/9
f 1/9/10 2/2/10 14/10/10
f 3/12/5 9/18/5 5/13/5
f 6/14/6 7/19/6 3/12/6
