# Blender 4.0.2
# www.blender.org
mtllib 立方体.001_cell.152.mtl
o 立方体.001_cell.152
v 14.905743 5.156845 -17.325903
v 14.807283 4.326095 -17.421436
v 14.905743 4.715381 -17.325903
v 14.848439 4.247392 -17.381504
v 14.944666 4.868262 -17.366018
v 14.947382 4.933936 -17.368818
v 14.849018 4.269874 -17.464451
v 14.947334 4.878945 -17.368769
v 14.848977 4.406997 -17.464409
v 14.947311 5.156845 -17.368746
v 14.949017 5.217890 -17.367058
v 14.907188 5.222610 -17.324501
v 14.936400 5.225855 -17.353605
v 14.807283 4.406407 -17.421436
v 14.864491 4.235731 -17.433308
v 14.848439 4.247392 -17.381504
v 14.849018 4.269874 -17.464451
v 14.848977 4.406997 -17.464409
v 14.905743 4.715381 -17.325903
v 14.944666 4.868262 -17.366018
v 14.949017 5.217890 -17.367058
v 14.936400 5.225855 -17.353605
v 14.868194 4.233111 -17.445517
v 14.947382 4.933936 -17.368818
v 14.947311 5.156845 -17.368746
v 14.807283 4.406407 -17.421436
v 14.907188 5.222610 -17.324501
v 14.947334 4.878945 -17.368769
vn 0.9337 -0.1528 0.3237
vn 0.9362 -0.1524 0.3167
vn 0.6955 0.0005 -0.7185
vn -0.7079 0.0662 -0.7032
vn -0.6937 0.1681 -0.7004
vn -0.7177 -0.0000 -0.6964
vn -0.6964 -0.0000 0.7177
vn 0.7014 -0.0012 -0.7128
vn 0.7171 -0.0393 0.6958
vn 0.7177 -0.0000 0.6964
vn 0.6956 0.0004 -0.7184
vn -0.7085 0.1696 -0.6851
vn 0.7072 -0.0306 0.7064
vt 0.737729 0.090515
vt 0.472171 0.000000
vt 0.821654 0.000000
vt 0.470847 0.000000
vt 1.000000 0.178346
vt 1.000000 0.527829
vt 0.406226 0.406226
vt 1.000000 0.022722
vt 0.963715 0.163922
vt 1.000000 0.000000
vt 0.774231 0.181062
vt 0.599532 0.000000
vt 0.000000 0.000000
vt 0.738076 0.220021
vt 0.219259 0.219259
vt 0.543051 0.250000
vt 0.546970 0.287606
vt 0.540327 0.287643
vt 0.577893 0.230360
vt 0.546942 0.250000
vt 0.537440 0.241790
vt 0.406226 0.000000
vt 0.172403 0.000000
vt 0.529153 0.000000
vt 0.580674 0.230016
vt 0.581029 0.229972
vt 0.564237 0.230360
vt 0.567345 0.230360
vt 0.479102 0.081179
vt 0.827597 0.000000
vt 0.833913 0.833913
vt 0.484927 0.000000
vt 0.515073 0.000000
vt 0.546942 0.250000
vt 0.557002 0.230360
vt 0.580904 0.230071
vt 0.833913 0.000000
vt 0.581038 0.229971
vt 0.564742 0.230360
s 0
usemtl 石头
f 3/1/1 15/2/1 20/3/1
f 23/4/2 20/5/2 15/6/2
f 17/7/3 21/8/3 25/9/3
f 21/10/4 27/11/4 22/12/4
f 21/13/5 26/14/5 27/15/5
f 2/16/6 9/17/6 7/18/6
f 1/19/7 14/20/7 4/21/7
f 17/22/8 28/23/8 23/24/8
f 1/19/9 11/25/9 13/26/9
f 1/19/10 5/27/10 6/28/10
f 3/1/1 16/29/1 15/2/1
f 23/4/2 28/30/2 20/5/2
f 25/9/3 24/31/3 17/7/3
f 17/7/11 18/32/11 21/8/11
f 21/13/12 18/33/12 26/14/12
f 2/16/6 14/34/6 9/17/6
f 4/21/7 19/35/7 1/19/7
f 1/19/7 12/36/7 14/20/7
f 14/20/7 2/16/7 4/21/7
f 17/22/8 24/37/8 28/23/8
f 13/26/13 12/38/13 1/19/13
f 1/19/9 10/19/9 11/25/9
f 6/28/10 10/19/10 1/19/10
f 1/19/10 19/35/10 5/27/10
f 5/27/10 8/39/10 6/28/10
