# Blender 4.0.2
# www.blender.org
mtllib 立方体.001_cell.138.mtl
o 立方体.001_cell.138
v 15.419728 1.342720 -17.329704
v 15.249009 1.413009 -17.117075
v 15.275466 1.515491 -17.092209
v 15.033694 1.625647 -17.281504
v 15.078409 1.625647 -17.327589
v 14.807282 3.336389 -17.421434
v 15.241828 3.379958 -17.169025
v 15.032081 3.379830 -17.653118
v 15.084461 3.379781 -17.707102
v 15.513341 3.379779 -17.290966
v 15.299809 3.379958 -17.112766
v 15.300104 3.372535 -17.112482
v 15.513556 3.374362 -17.290758
v 15.002391 3.379677 -17.356779
v 14.968040 3.379639 -17.390106
v 14.990315 3.379680 -17.413063
v 14.869576 3.379530 -17.485636
v 15.056137 3.379736 -17.304634
v 15.078409 3.379777 -17.327589
v 15.024665 3.379718 -17.379734
v 14.944480 3.379354 -17.365824
v 15.039336 3.379533 -17.287319
v 14.835307 3.378337 -17.394243
v 14.837770 3.379135 -17.452854
v 14.979951 3.379384 -17.333651
v 14.905743 3.378338 -17.325901
v 15.033694 3.379385 -17.281504
v 15.300336 1.697349 -17.112257
v 15.513793 1.730878 -17.290527
v 15.250749 1.625647 -17.070902
v 15.513758 1.659315 -17.290564
v 15.300300 1.625647 -17.112291
v 15.513510 1.604884 -17.290804
v 15.495111 1.532507 -17.308657
v 15.445745 1.342663 -17.356554
v 14.807282 1.617584 -17.421434
v 14.905743 1.571123 -17.325901
v 14.979951 1.538346 -17.333651
v 14.990315 1.535940 -17.413063
v 15.024665 1.519745 -17.379734
v 15.058632 1.512986 -17.680481
v 15.084461 1.512920 -17.707102
v 15.513510 1.604884 -17.290804
v 15.495111 1.532507 -17.308657
v 15.032081 3.379830 -17.653118
v 15.084461 3.379781 -17.707102
v 15.513341 3.379779 -17.290966
v 15.241828 3.379958 -17.169025
v 15.299809 3.379958 -17.112766
v 15.300104 3.372535 -17.112482
v 15.513556 3.374362 -17.290758
v 14.968040 3.379639 -17.390106
v 14.990315 3.379680 -17.413063
v 14.869576 3.379530 -17.485636
v 15.056137 3.379736 -17.304634
v 15.078409 3.379777 -17.327589
v 15.024665 3.379718 -17.379734
v 15.039336 3.379533 -17.287319
v 14.835307 3.378337 -17.394243
v 14.905743 3.378338 -17.325901
v 14.979951 3.379384 -17.333651
v 15.033694 3.379385 -17.281504
v 15.300336 1.697349 -17.112257
v 15.250749 1.625647 -17.070902
v 15.250728 1.585340 -17.070921
v 15.300300 1.625647 -17.112291
v 15.250411 1.515485 -17.071228
v 15.002391 3.379677 -17.356779
v 15.445745 1.342663 -17.356554
v 14.837770 3.379135 -17.452854
v 14.905743 1.571123 -17.325901
v 14.990315 1.535940 -17.413063
v 14.807282 1.617584 -17.421434
v 15.058632 1.512986 -17.680481
v 15.084461 1.512920 -17.707102
v 14.944480 3.379354 -17.365824
v 15.226746 1.422246 -17.094191
v 15.024665 1.519745 -17.379734
v 14.979951 1.538346 -17.333651
v 15.513793 1.730878 -17.290527
v 15.513758 1.659315 -17.290564
v 15.217169 1.426499 -17.103483
vn 0.0005 1.0000 -0.0005
vn 0.6398 0.0548 0.7666
vn -0.0015 1.0000 0.0004
vn -0.0064 1.0000 0.0055
vn -0.0071 1.0000 0.0058
vn -0.0127 0.9998 0.0131
vn 0.6411 -0.0007 0.7675
vn 0.6420 -0.0063 0.7667
vn 0.6746 -0.3339 0.6583
vn -0.4061 -0.9135 -0.0253
vn -0.3949 -0.9186 -0.0134
vn 0.6057 -0.3318 0.7232
vn -0.2311 -0.9473 -0.2219
vn -0.7177 -0.0000 -0.6964
vn 0.6964 -0.0000 -0.7177
vn 0.6749 -0.3407 0.6545
vn -0.6964 -0.0000 0.7177
vn 0.7177 -0.0000 0.6964
vn -0.0000 1.0000 -0.0000
vn 0.6410 0.0002 0.7675
vn -0.0066 1.0000 0.0056
vn -0.4063 -0.9134 -0.0255
vn -0.4063 -0.9134 -0.0254
vn -0.7179 -0.0000 -0.6962
vn 0.6963 -0.0000 -0.7177
vn 0.6748 -0.3406 0.6546
vn 0.7181 -0.0000 0.6959
vn 0.7177 0.0001 0.6963
vt 1.000000 0.030284
vt 0.142549 0.068281
vt 0.153927 0.000000
vt 0.292288 0.292288
vt 1.000000 0.402197
vt 1.000000 0.563715
vt 0.659229 0.115958
vt 1.000000 0.846073
vt 0.547158 0.115969
vt 0.154264 0.154264
vt 1.000000 0.363814
vt 0.359600 0.359600
vt 1.000000 0.546323
vt 0.431235 0.431235
vt 1.000000 0.434979
vt 0.363814 0.363814
vt 0.225379 0.151894
vt 0.372520 0.287113
vt 0.547591 0.535153
vt 0.546323 0.546323
vt 0.435319 0.431978
vt 1.000000 0.228487
vt 0.563738 0.563738
vt 0.839251 0.308484
vt 1.000000 0.000000
vt 0.470261 0.470261
vt 0.228487 0.228487
vt 1.000000 0.292609
vt 0.000000 0.000000
vt 0.462974 0.382733
vt 0.384601 0.382778
vt 0.175669 0.000000
vt 0.485084 0.485084
vt 0.090191 0.090191
vt 1.000000 0.929017
vt 0.175669 0.175669
vt 0.175710 0.105287
vt 0.497171 0.278122
vt 0.497203 0.452756
vt 0.406751 0.500000
vt 0.482998 0.585550
vt 0.407062 0.585584
vt 0.396242 0.572066
vt 0.292609 0.292609
vt 0.492581 0.223508
vt 0.406539 0.230360
vt 0.405299 0.223508
vt 0.493792 0.230360
vt 0.493776 0.230360
vt 0.408204 0.230360
vt 0.485453 0.180190
vt 0.409570 0.212788
vt 0.410824 0.168519
vt 0.407764 0.169491
vt 0.407724 0.168526
vt 0.402197 0.402197
vt 0.563738 0.000000
vt 0.563715 0.563715
vt 0.492581 0.223508
vt 0.406172 0.223508
vt 0.492568 0.223508
vt 0.490746 0.212788
vt 0.490735 0.212788
vt 0.493728 0.230360
vt 0.495099 0.250000
vt 0.411822 0.250000
vt 0.884077 0.000000
vt 1.000000 0.292288
vt 0.030285 0.030285
vt 0.431235 0.000000
vt 0.543317 0.000000
vt 1.000000 0.115922
vt 0.154264 0.000000
vt 0.359600 0.000000
vt 0.475530 0.115976
vt 1.000000 0.159830
vt 0.543317 0.543317
vt 0.159986 0.158460
vt 0.754283 0.281137
vt 1.000000 0.470261
vt 0.402143 0.402143
vt 0.908329 0.000000
vt 1.000000 0.292222
vt 0.292222 0.292222
vt 0.625307 0.480153
vt 0.343032 0.133202
vt 1.000000 0.485084
vt 0.950183 0.472524
vt 1.000000 0.090190
vt 1.000000 0.091671
vt 1.000000 1.000000
vt 0.406754 0.476703
vt 0.411822 0.250000
vt 0.497189 0.306185
vt 0.497201 0.500000
vt 0.482760 0.585593
vt 0.412446 0.585640
vt 0.409387 0.585633
vt 0.404123 0.581914
vt 0.070983 0.000000
vt 0.493792 0.230360
vt 0.493790 0.230360
vt 0.493728 0.230360
vt 0.483247 0.168566
vt 0.483577 0.168624
vt 0.490746 0.212788
vt 0.407724 0.168526
vt 0.402143 0.000000
vt 0.492579 0.223508
vt 0.490728 0.212788
vt 0.490744 0.212788
vt 0.496134 0.244410
s 0
usemtl 石头
f 49/1/1 46/2/1 45/3/1
f 47/4/2 50/5/2 51/6/2
f 56/7/3 45/8/3 57/9/3
f 54/10/4 76/11/4 52/12/4
f 58/13/5 68/14/5 61/15/5
f 76/16/6 23/17/6 60/18/6
f 62/19/6 58/20/6 61/21/6
f 65/22/7 80/23/7 66/24/7
f 3/25/8 81/26/8 65/27/8
f 44/28/9 3/29/9 2/25/9
f 78/30/10 72/31/10 74/32/10
f 2/25/11 82/33/11 1/29/11
f 3/25/12 77/34/12 2/29/12
f 35/35/13 74/36/13 75/37/13
f 24/38/14 8/39/14 42/40/14
f 10/41/15 33/42/15 69/43/15
f 1/29/16 44/44/16 2/29/16
f 20/45/17 39/46/17 40/47/17
f 16/48/18 21/49/18 37/50/18
f 7/51/17 5/52/17 63/53/17
f 5/52/19 64/54/19 32/55/19
f 50/56/20 80/57/20 51/58/20
f 20/59/14 38/60/14 25/61/14
f 4/52/18 19/62/18 22/63/18
f 26/64/17 6/65/17 73/66/17
f 45/3/1 48/67/1 49/1/1
f 49/1/1 47/68/1 46/2/1
f 47/4/2 49/69/2 50/5/2
f 68/70/3 55/71/3 56/7/3
f 56/7/3 48/72/3 45/8/3
f 45/8/3 54/73/3 52/74/3
f 45/8/3 52/74/3 53/75/3
f 57/9/3 68/70/3 56/7/3
f 45/8/3 53/75/3 57/9/3
f 54/10/21 70/76/21 76/11/21
f 58/13/4 55/77/4 68/14/4
f 76/16/6 70/78/6 23/17/6
f 66/24/7 30/79/7 65/22/7
f 65/22/7 81/80/7 80/23/7
f 80/23/7 28/81/7 66/24/7
f 65/27/8 67/82/8 3/25/8
f 3/25/8 43/83/8 81/26/8
f 44/28/9 43/84/9 3/29/9
f 72/31/22 71/85/22 36/86/22
f 74/32/10 1/25/10 82/87/10
f 82/87/10 79/88/10 78/30/10
f 72/31/23 36/86/23 74/32/23
f 74/32/10 82/87/10 78/30/10
f 2/25/11 77/89/11 82/33/11
f 3/25/12 67/90/12 77/34/12
f 35/35/13 1/91/13 74/36/13
f 42/40/14 41/92/14 73/93/14
f 73/93/14 6/65/14 24/38/14
f 24/38/24 17/94/24 8/39/24
f 8/39/14 9/95/14 42/40/14
f 42/40/14 73/93/14 24/38/14
f 42/40/15 9/95/15 10/41/15
f 10/41/25 13/96/25 29/97/25
f 29/97/25 31/98/25 33/42/25
f 33/42/25 34/99/25 69/43/25
f 69/43/15 42/40/15 10/41/15
f 10/41/15 29/97/15 33/42/15
f 1/29/26 35/100/26 44/44/26
f 20/45/17 16/101/17 39/46/17
f 37/50/18 39/46/18 16/48/18
f 16/48/27 15/102/27 21/49/27
f 21/49/18 26/103/18 37/50/18
f 12/104/17 11/105/17 7/51/17
f 7/51/17 19/106/17 5/52/17
f 5/52/17 32/107/17 63/53/17
f 63/53/17 12/104/17 7/51/17
f 5/52/19 4/52/19 64/54/19
f 50/56/20 28/108/20 80/57/20
f 25/61/14 14/109/14 20/59/14
f 20/59/14 40/47/14 38/60/14
f 22/63/18 27/110/18 4/52/18
f 4/52/18 5/52/18 19/62/18
f 19/62/28 18/111/28 22/63/28
f 73/66/17 37/50/17 26/64/17
f 26/64/17 59/112/17 6/65/17
