# Blender 4.0.2
# www.blender.org
mtllib 立方体.001_cell.017.mtl
o 立方体.001_cell.017
v 15.932656 6.189631 -16.605831
v 16.026390 6.113528 -16.514612
v 15.999540 6.148901 -16.573256
v 15.921027 6.223323 -16.340790
v 16.082104 6.157876 -16.469608
v 16.081554 6.144016 -16.461166
v 15.888306 6.113824 -16.372540
v 15.943462 6.144329 -16.319021
v 15.859282 6.137169 -16.400700
v 15.794483 6.189704 -16.463573
v 16.083717 6.203725 -16.497326
v 16.070503 6.227595 -16.498617
v 16.073511 6.223323 -16.497944
v 15.896991 6.277757 -16.364111
v 16.035173 6.277658 -16.506439
v 16.082104 6.157876 -16.469608
v 16.081554 6.144016 -16.461166
v 15.943462 6.144329 -16.319021
v 15.888306 6.113824 -16.372540
v 15.859282 6.137169 -16.400700
v 15.794483 6.189704 -16.463573
v 16.070503 6.227595 -16.498617
v 16.073511 6.223323 -16.497944
v 16.083717 6.203725 -16.497326
v 15.896991 6.277757 -16.364111
v 16.035173 6.277658 -16.506439
vn 0.7438 -0.3689 -0.5573
vn 0.2636 -0.9295 0.2581
vn -0.3594 -0.8660 -0.3475
vn -0.3610 -0.8643 -0.3502
vn -0.3506 -0.8642 -0.3608
vn 0.7433 -0.3650 -0.5605
vn 0.5478 0.2602 -0.7951
vn -0.3762 0.8512 -0.3659
vn 0.5467 0.2615 -0.7955
vn 0.6113 0.5240 0.5931
vn 0.6673 0.3680 0.6475
vn -0.6964 -0.0000 0.7177
vn 0.6103 0.5235 0.5945
vt 0.847483 0.847483
vt 1.000000 0.849122
vt 1.000000 1.000000
vt 0.849038 0.460173
vt 1.000000 0.611247
vt 1.000000 0.690316
vt 0.611247 0.611247
vt 1.000000 0.000000
vt 0.690316 0.690316
vt 0.690106 0.000000
vt 0.000000 0.000000
vt 0.214657 0.000000
vt 1.000000 0.847483
vt 0.188614 0.042385
vt 0.180941 0.000000
vt 0.776620 0.309982
vt 0.776684 0.000000
vt 0.776684 0.776684
vt 0.819059 0.000000
vt 0.737468 0.722646
vt 0.750406 0.717622
vt 0.875000 0.717613
vt 0.746483 0.726933
vt 0.737468 0.722646
vt 0.875000 0.727821
vt 0.623765 0.027838
vt 0.613247 0.053080
vt 0.616613 0.034365
vt 0.849122 0.849122
vt 0.214657 0.214657
vt 1.000000 0.309894
vt 0.875000 0.722646
vt 0.738480 0.722251
vt 0.750528 0.727842
vt 0.733282 0.723930
vt 0.621950 0.023362
vt 0.624374 0.032632
vt 0.615541 0.040154
s 0
usemtl 石头
f 16/1/1 17/2/1 2/3/1
f 2/3/2 18/4/2 19/5/2
f 20/6/3 2/3/3 19/7/3
f 1/8/4 20/9/4 21/10/4
f 3/8/5 2/3/5 1/11/5
f 2/3/6 24/12/6 16/13/6
f 23/14/7 3/11/7 22/15/7
f 1/8/8 14/16/8 26/17/8
f 3/8/9 26/18/9 22/19/9
f 13/20/10 15/21/10 25/22/10
f 5/23/11 13/24/11 8/25/11
f 4/26/12 10/27/12 7/28/12
f 2/3/2 17/29/2 18/4/2
f 1/8/4 2/3/4 20/9/4
f 2/3/6 3/11/6 24/12/6
f 23/14/7 24/30/7 3/11/7
f 1/8/8 21/31/8 14/16/8
f 3/8/9 1/3/9 26/18/9
f 25/22/10 4/32/10 13/20/10
f 13/20/13 12/33/13 15/21/13
f 8/25/11 6/34/11 5/23/11
f 5/23/11 11/35/11 13/24/11
f 13/24/11 4/32/11 8/25/11
f 7/28/12 8/36/12 4/26/12
f 4/26/12 25/37/12 10/27/12
f 10/27/12 9/38/12 7/28/12
