# Blender 4.0.2
# www.blender.org
mtllib 立方体.001_cell.135.mtl
o 立方体.001_cell.135
v 16.052254 5.246991 -16.299629
v 16.092432 5.210445 -16.331305
v 16.100893 5.292057 -16.270777
v 16.083889 5.180303 -16.229401
v 16.131321 5.081321 -16.278286
v 16.059275 5.226759 -16.206654
v 16.196838 5.148625 -16.345810
v 16.163229 4.963994 -16.311171
v 16.202404 5.180303 -16.351545
v 16.203943 5.194854 -16.353952
v 16.019871 5.161282 -16.244886
v 16.009289 5.247272 -16.255154
v 16.119322 5.292552 -16.272255
v 16.160929 5.244684 -16.312435
v 16.025349 5.265903 -16.239573
v 16.048454 5.292335 -16.217154
v 16.057409 5.292896 -16.208464
v 16.119024 4.994381 -16.305647
v 16.075611 5.081321 -16.282925
v 16.196838 5.148625 -16.345810
v 16.163229 4.963994 -16.311171
v 16.202404 5.180303 -16.351545
v 16.019871 5.161282 -16.244886
v 16.119322 5.292552 -16.272255
v 16.160929 5.244684 -16.312435
v 16.009289 5.247272 -16.255154
v 16.025349 5.265903 -16.239573
v 16.048454 5.292335 -16.217154
v 16.057409 5.292896 -16.208464
v 16.203943 5.194854 -16.353952
vn -0.2179 -0.1415 -0.9657
vn -0.2155 -0.1372 -0.9668
vn -0.7094 -0.1690 -0.6842
vn -0.7003 -0.1687 -0.6937
vn -0.0828 0.5992 -0.7963
vn -0.0800 0.5991 -0.7966
vn -0.0786 0.5972 -0.7982
vn -0.4578 0.7685 -0.4471
vn -0.4517 0.7729 -0.4457
vn -0.0296 0.9990 -0.0341
vn 0.7177 -0.0000 0.6964
vn 0.7171 0.0393 0.6958
vn -0.6964 -0.0000 0.7177
vn -0.7005 -0.1686 -0.6934
vn -0.6963 -0.0000 0.7177
vt 1.000000 0.351437
vt 0.851303 0.000000
vt 1.000000 0.000000
vt 0.000000 0.000000
vt 0.549693 0.109896
vt 0.351437 0.351437
vt 0.681883 0.057736
vt 0.696451 0.000000
vt 0.113168 0.113168
vt 1.000000 1.000000
vt 0.112649 0.000000
vt 1.000000 0.601900
vt 0.601900 0.601900
vt 1.000000 0.365749
vt 0.585883 0.000000
vt 1.000000 0.303549
vt 0.585883 0.585883
vt 0.538420 0.000000
vt 0.450542 0.334777
vt 1.000000 0.887351
vt 0.579642 0.936200
vt 0.582903 0.877107
vt 0.584437 0.872087
vt 0.584437 0.978980
vt 0.585142 0.870329
vt 0.589876 0.944166
vt 0.586616 0.000261
vt 0.589181 0.002420
vt 0.584793 0.010232
vt 0.848176 0.146912
vt 0.634251 0.000000
vt 0.992931 0.111222
vt 1.000000 0.148697
vt 0.538420 0.538420
vt 0.584437 0.978980
vt 0.573957 0.907421
vt 0.589893 1.000000
vt 0.586688 1.000000
vt 0.587557 0.907856
vt 0.581278 0.008121
vt 0.589717 0.000634
vt 0.586593 0.007029
s 0
usemtl 石头
f 20/1/1 18/2/1 2/3/1
f 2/4/2 22/5/2 20/6/2
f 1/3/3 11/7/3 26/8/3
f 2/3/4 19/9/4 1/4/4
f 1/4/5 3/3/5 2/10/5
f 2/10/6 24/11/6 25/12/6
f 25/13/7 30/14/7 2/10/7
f 27/15/8 1/3/8 26/16/8
f 3/3/9 27/17/9 28/18/9
f 3/10/10 29/19/10 24/20/10
f 5/21/11 7/22/11 9/23/11
f 4/24/12 10/25/12 13/26/12
f 6/27/13 16/28/13 12/29/13
f 20/1/1 21/30/1 18/2/1
f 2/4/2 30/31/2 22/5/2
f 1/3/3 19/32/3 11/7/3
f 2/3/14 18/33/14 19/9/14
f 2/10/6 3/4/6 24/11/6
f 3/3/9 1/10/9 27/17/9
f 3/10/10 28/34/10 29/19/10
f 9/23/11 4/35/11 5/21/11
f 5/21/11 8/36/11 7/22/11
f 17/37/12 6/38/12 4/24/12
f 4/24/12 9/23/12 10/25/12
f 10/25/12 14/39/12 13/26/12
f 13/26/12 17/37/12 4/24/12
f 12/29/13 23/40/13 6/27/13
f 6/27/13 17/41/13 16/28/13
f 16/28/15 15/42/15 12/29/15
