# Blender 4.0.2
# www.blender.org
mtllib 立方体.001_cell.060.mtl
o 立方体.001_cell.060
v 16.038658 5.246503 -16.311869
v 15.978780 5.353516 -16.421751
v 15.993104 5.289454 -16.484140
v 16.012905 5.247516 -16.464859
v 16.042215 5.222900 -16.347210
v 16.043516 5.248028 -16.307886
v 16.038404 5.403966 -16.330479
v 16.048954 5.405318 -16.323120
v 16.101023 5.294121 -16.272877
v 16.052155 5.248125 -16.301065
v 15.991805 5.366051 -16.458515
v 16.021519 5.391796 -16.460648
v 16.022451 5.253441 -16.512537
v 16.025059 5.284397 -16.583599
v 16.130110 5.392221 -16.573082
v 16.091953 5.211255 -16.333170
v 16.147535 5.253858 -16.641575
v 16.122938 5.284114 -16.684620
v 16.042105 5.319657 -16.392534
v 16.008392 5.288921 -16.425247
v 15.980647 5.354833 -16.407276
v 15.990994 5.364523 -16.419502
v 15.989075 5.330783 -16.412086
v 16.003363 5.319657 -16.352604
v 15.999424 5.330749 -16.350334
v 16.003937 5.288921 -16.420656
v 16.008783 5.274670 -16.424847
v 16.023323 5.260962 -16.369864
v 15.998394 5.341722 -16.351042
v 15.998139 5.346836 -16.351603
v 15.997698 5.369001 -16.354721
v 16.020031 5.389016 -16.380964
v 16.001507 5.373945 -16.431856
v 16.030294 5.398120 -16.393009
v 16.028664 5.396945 -16.405577
v 16.028185 5.246915 -16.374083
v 16.021755 5.247168 -16.412279
v 16.027359 5.235377 -16.406843
v 16.034216 5.229619 -16.379322
v 16.195763 5.207280 -16.346222
v 16.206205 5.195426 -16.356318
v 16.142075 5.269110 -16.294380
v 16.121334 5.294533 -16.274439
v 16.173500 5.414170 -16.335627
v 16.141884 5.341069 -16.298244
v 16.171362 5.407758 -16.332390
v 16.199781 5.414132 -16.362707
v 16.035782 5.398143 -16.398670
v 16.201483 5.407758 -16.363434
v 16.235952 5.195450 -16.386976
v 16.044651 5.229393 -16.390064
v 16.251419 5.197556 -16.403036
v 15.989075 5.330783 -16.412086
v 16.003937 5.288921 -16.420656
v 16.008783 5.274670 -16.424847
v 15.980647 5.354833 -16.407276
v 16.023323 5.260962 -16.369864
v 16.028185 5.246915 -16.374083
v 16.034216 5.229619 -16.379322
v 16.142075 5.269110 -16.294380
v 16.121334 5.294533 -16.274439
v 16.141884 5.341069 -16.298244
v 16.171362 5.407758 -16.332390
v 16.028664 5.396945 -16.405577
v 16.035782 5.398143 -16.398670
v 16.199781 5.414132 -16.362707
v 16.201483 5.407758 -16.363434
v 16.001507 5.373945 -16.431856
v 16.021755 5.247168 -16.412279
v 16.003363 5.319657 -16.352604
v 15.999424 5.330749 -16.350334
v 16.195763 5.207280 -16.346222
v 15.998394 5.341722 -16.351042
v 16.206205 5.195426 -16.356318
v 15.990994 5.364523 -16.419502
v 16.027359 5.235377 -16.406843
v 15.998139 5.346836 -16.351603
v 16.235952 5.195450 -16.386976
v 16.173500 5.414170 -16.335627
v 15.997698 5.369001 -16.354721
v 16.020031 5.389016 -16.380964
v 16.030294 5.398120 -16.393009
v 16.044651 5.229393 -16.390064
v 16.251419 5.197556 -16.403036
vn -0.6713 0.7410 0.0192
vn -0.9480 0.0864 -0.3064
vn -0.9230 -0.3537 0.1513
vn -0.9207 -0.3584 0.1541
vn -0.7253 -0.0237 0.6880
vn -0.6416 0.0437 0.7658
vn -0.6279 0.0539 0.7764
vn -0.5734 0.1024 0.8128
vn -0.5781 0.1127 0.8081
vn -0.6569 0.7538 0.0159
vn -0.5698 0.6123 -0.5480
vn -0.5708 0.6098 -0.5498
vn -0.9471 0.0872 -0.3087
vn -0.6542 0.7562 0.0142
vn -0.8370 -0.4897 -0.2440
vn -0.8352 -0.4998 -0.2293
vn -0.9189 -0.3639 0.1523
vn -0.6171 -0.0792 0.7829
vn -0.9180 -0.3661 0.1521
vn -0.3289 -0.8003 0.5014
vn -0.3186 -0.7943 0.5173
vn 0.0763 -0.6067 0.7913
vn 0.0804 -0.5985 0.7971
vn 0.0743 -0.5773 0.8132
vn -0.5680 0.1030 0.8166
vn -0.0778 0.9944 -0.0712
vn 0.0594 0.4340 0.8989
vn -0.0781 0.9939 -0.0776
vn -0.0882 0.9928 -0.0814
vn -0.5691 0.6084 -0.5531
vn 0.9027 0.2785 -0.3280
vn -0.3938 -0.8373 -0.3792
vn -0.3834 -0.8443 -0.3744
vn -0.1196 -0.9630 -0.2415
vn -0.1678 -0.9721 -0.1636
vn -0.1828 -0.9705 -0.1574
vn 0.9056 0.2637 -0.3322
vn 0.9036 0.2763 -0.3273
vn 0.0604 0.4333 0.8992
vn 0.7132 0.1115 0.6920
vn 0.7171 0.0393 0.6958
vn -0.7171 -0.0393 -0.6958
vn -0.7132 -0.1115 -0.6920
vn -0.6964 -0.0000 0.7177
vn -0.6709 0.7414 0.0151
vn -0.6188 0.0627 0.7830
vn -0.5738 0.1028 0.8125
vn -0.0780 0.9940 -0.0771
vn -0.1614 -0.9739 -0.1596
vn -0.1835 -0.9704 -0.1573
vn -0.1828 -0.9705 -0.1575
vn -0.1831 -0.9704 -0.1573
vn -0.1829 -0.9705 -0.1573
vn 0.7164 0.0389 0.6966
vn -0.7171 -0.0392 -0.6959
vn -0.6952 -0.0004 0.7188
vn -0.6945 0.0011 0.7194
vt 0.606175 0.000000
vt 1.000000 1.000000
vt 0.778489 0.778489
vt 0.000000 0.000000
vt 1.000000 0.000000
vt 0.595603 0.000000
vt 0.414262 0.153638
vt 0.344192 0.000000
vt 0.951953 0.632803
vt 0.663351 0.000000
vt 0.823207 0.000000
vt 0.749904 0.749904
vt 0.823207 0.823207
vt 0.841637 0.841637
vt 1.000000 0.865528
vt 0.865528 0.865528
vt 0.865508 0.865508
vt 0.394299 0.000000
vt 0.836610 0.836610
vt 1.000000 0.393825
vt 0.791787 0.000000
vt 0.480373 0.000000
vt 0.394298 0.394298
vt 0.792059 0.790541
vt 0.576934 0.000000
vt 1.000000 0.336649
vt 0.593343 0.000000
vt 1.000000 0.655808
vt 0.343675 0.000000
vt 0.493128 0.000000
vt 0.343675 0.343675
vt 0.593343 0.593343
vt 1.000000 0.331904
vt 1.000000 0.574268
vt 0.331904 0.331904
vt 0.574268 0.574268
vt 0.191387 0.000000
vt 1.000000 0.215020
vt 0.383334 0.000000
vt 0.101075 0.000000
vt 0.949474 0.519779
vt 0.070858 0.000000
vt 0.872699 0.000000
vt 1.000000 0.127332
vt 0.347690 0.000000
vt 0.842712 0.272564
vt 0.872699 0.872699
vt 0.891192 0.891192
vt 0.929142 0.000000
vt 1.000000 0.125110
vt 0.616666 0.000000
vt 0.595458 0.867130
vt 0.595769 0.891903
vt 0.595458 0.894297
vt 0.595458 0.894298
vt 0.585745 0.877391
vt 0.585171 0.841442
vt 0.581986 0.020147
vt 0.585292 0.020556
vt 0.581190 0.020048
vt 0.585292 0.020556
vt 0.587353 0.021349
vt 0.588570 0.021817
vt 0.581259 0.027201
vt 0.581901 0.027281
vt 0.581901 0.027281
vt 0.585030 0.028496
vt 0.583634 0.027954
vt 0.580719 0.024615
vt 1.000000 0.752936
vt 0.595603 0.595603
vt 1.000000 0.749904
vt 1.000000 0.865508
vt 0.727060 0.000000
vt 0.652310 0.000000
vt 0.874890 0.000000
vt 0.945516 0.191891
vt 0.191387 0.191387
vt 1.000000 0.423066
vt 1.000000 0.519627
vt 0.101075 0.101075
vt 0.127332 0.127332
vt 0.506873 0.000000
vt 0.272940 0.000000
vt 0.595767 0.868202
vt 0.585273 0.827439
vt 0.592227 0.922582
vt 0.589972 0.942301
vt 0.588740 0.924240
vt 0.585170 0.868272
vt 0.581200 0.020049
vt 0.582625 0.020226
vt 0.588571 0.021817
vt 0.585755 0.020734
vt 0.586313 0.020949
vt 0.586427 0.020993
vt 0.588190 0.021671
vt 0.585420 0.028647
vt 0.584629 0.028340
vt 0.580487 0.023498
vt 0.588093 0.023237
vt 0.585421 0.028648
vt 0.581259 0.027201
s 0
usemtl 石头
f 75/1/1 2/2/1 56/3/1
f 11/4/2 3/5/2 2/2/2
f 53/6/3 2/2/3 3/4/3
f 54/7/4 3/4/4 55/8/4
f 1/5/4 70/9/4 57/10/4
f 1/4/5 73/11/5 71/12/5
f 73/13/6 1/4/6 6/5/6
f 73/14/7 10/5/7 77/15/7
f 8/5/8 77/16/8 10/4/8
f 7/5/9 80/17/9 8/4/9
f 7/4/10 81/18/10 80/19/10
f 11/5/10 75/20/10 68/21/10
f 11/2/11 12/4/11 15/5/11
f 14/5/12 11/2/12 15/4/12
f 11/2/13 14/4/13 3/5/13
f 7/4/14 82/22/14 81/23/14
f 12/5/14 68/24/14 64/25/14
f 3/2/15 14/4/15 13/5/15
f 13/4/16 4/5/16 3/2/16
f 57/26/17 58/27/17 1/5/17
f 55/28/17 4/4/17 69/29/17
f 6/5/18 1/2/18 10/4/18
f 4/4/19 76/30/19 69/31/19
f 58/32/19 5/5/19 1/2/19
f 5/4/20 16/5/20 1/2/20
f 1/2/21 16/4/21 10/5/21
f 16/4/22 72/33/22 10/2/22
f 60/34/23 10/2/23 72/35/23
f 60/36/24 9/5/24 10/2/24
f 8/5/25 10/2/25 9/4/25
f 7/5/26 8/2/26 79/37/26
f 79/38/27 9/4/27 62/39/27
f 7/2/28 66/40/28 15/5/28
f 7/2/29 15/4/29 65/41/29
f 18/4/30 14/5/30 15/2/30
f 15/2/31 67/42/31 18/5/31
f 14/2/32 18/4/32 13/5/32
f 18/4/33 17/5/33 13/2/33
f 13/2/34 84/43/34 78/44/34
f 13/2/35 74/45/35 16/5/35
f 13/2/36 16/4/36 51/46/36
f 84/47/37 17/4/37 18/5/37
f 84/48/38 18/4/38 67/49/38
f 9/5/39 61/50/39 62/51/39
f 49/52/40 44/53/40 46/54/40
f 46/55/41 40/56/41 50/57/41
f 36/58/42 24/59/42 83/60/42
f 24/61/43 31/62/43 34/63/43
f 27/64/41 20/65/41 26/66/41
f 20/65/40 22/67/40 23/68/40
f 19/59/44 20/65/44 37/69/44
f 75/1/45 11/5/45 2/2/45
f 53/6/3 56/70/3 2/2/3
f 54/7/4 53/71/4 3/4/4
f 1/5/4 71/72/4 70/9/4
f 73/14/46 6/4/46 10/5/46
f 8/5/47 80/73/47 77/16/47
f 12/5/14 11/2/14 68/24/14
f 55/28/17 3/2/17 4/4/17
f 58/32/19 59/74/19 5/5/19
f 16/4/22 74/75/22 72/33/22
f 60/36/24 61/76/24 9/5/24
f 62/39/27 63/77/27 79/38/27
f 79/38/27 8/2/27 9/4/27
f 7/2/48 79/78/48 66/40/48
f 15/4/29 12/5/29 64/79/29
f 65/41/29 82/80/29 7/2/29
f 15/4/29 64/79/29 65/41/29
f 15/2/31 66/81/31 67/42/31
f 13/2/49 17/4/49 84/43/49
f 13/2/35 78/82/35 74/45/35
f 76/83/50 4/5/50 13/2/50
f 16/4/51 5/4/51 59/84/51
f 51/46/52 76/83/52 13/2/52
f 16/4/53 59/84/53 51/46/53
f 49/52/40 47/85/40 44/53/40
f 52/86/41 49/52/41 46/55/41
f 46/55/54 45/87/54 43/88/54
f 43/88/41 42/89/41 40/56/41
f 40/56/41 41/90/41 50/57/41
f 50/57/41 52/86/41 46/55/41
f 46/55/41 43/88/41 40/56/41
f 83/60/42 39/91/42 36/58/42
f 36/58/55 28/92/55 24/59/55
f 24/59/42 19/59/42 83/60/42
f 48/93/43 19/59/43 24/61/43
f 24/61/43 25/94/43 29/95/43
f 29/95/43 30/96/43 31/62/43
f 31/62/43 32/97/43 34/63/43
f 34/63/43 48/93/43 24/61/43
f 24/61/43 29/95/43 31/62/43
f 23/68/40 26/65/40 20/65/40
f 20/65/40 33/98/40 22/67/40
f 22/67/40 21/99/40 23/68/40
f 38/100/44 83/60/44 19/59/44
f 19/59/44 48/93/44 35/101/44
f 35/101/56 33/102/56 20/65/56
f 20/65/57 27/103/57 37/69/57
f 37/69/44 38/100/44 19/59/44
f 19/59/44 35/101/44 20/65/44
