# Blender 4.0.2
# www.blender.org
mtllib 立方体.001_cell.019.mtl
o 立方体.001_cell.019
v 15.962125 5.040596 -16.300917
v 15.973539 5.081321 -16.289841
v 15.979111 4.989338 -16.318422
v 16.027683 4.989336 -16.314783
v 15.992713 5.061181 -16.295931
v 15.976999 5.088326 -16.286484
v 15.981584 5.081321 -16.290756
vn 0.1082 -0.2890 0.9512
vn 0.0998 -0.4696 0.8772
vn -0.0723 -0.2855 0.9556
vn -0.0716 -0.2856 0.9557
vt 0.750000 0.625000
vt 0.752493 0.614679
vt 0.750000 0.601925
vt 0.750613 0.626926
vt 0.751063 0.625000
vt 0.750000 0.625451
vt 0.748534 0.619896
vt 0.751063 0.625000
vt 0.744006 0.601687
s 0
usemtl 石头
f 7/1/1 1/2/1 3/3/1
f 6/4/2 2/5/2 7/6/2
f 3/3/3 5/7/3 7/1/3
f 7/1/1 2/8/1 1/2/1
f 3/3/4 4/9/4 5/7/4
