# Blender 4.0.2
# www.blender.org
mtllib 立方体.001_cell.071.mtl
o 立方体.001_cell.071
v 15.210247 1.204780 -17.116352
v 15.194880 0.921992 -17.130962
v 15.419952 1.340718 -17.330040
v 15.219751 1.208736 -17.123119
v 15.411495 1.333607 -17.319872
v 15.304671 0.874185 -17.216042
v 15.323012 0.887473 -17.228786
v 14.990315 1.262962 -17.413069
v 14.870475 1.075442 -17.486567
v 14.850411 1.084075 -17.465889
v 14.945764 1.043765 -17.564161
v 14.951077 1.048897 -17.569637
v 15.084461 1.179539 -17.707108
v 15.429214 1.016433 -17.372599
v 15.446299 1.008390 -17.356024
v 15.446404 1.333582 -17.355921
v 14.948933 1.328222 -17.370419
v 14.850571 1.374687 -17.466053
v 15.087082 1.262962 -17.236101
v 14.990315 1.355328 -17.413069
v 14.948897 1.262962 -17.370382
v 14.985160 1.462826 -17.604765
v 15.186295 1.262962 -17.222914
v 15.445698 1.340664 -17.356606
v 15.084461 1.510842 -17.707108
v 15.058891 1.510895 -17.680754
v 15.441215 1.342784 -17.360956
v 14.870475 1.075442 -17.486567
v 14.850411 1.084075 -17.465889
v 14.945764 1.043765 -17.564161
v 14.951077 1.048897 -17.569637
v 15.084461 1.179539 -17.707108
v 15.429214 1.016433 -17.372599
v 15.446299 1.008390 -17.356024
v 15.446404 1.333582 -17.355921
v 15.445698 1.340664 -17.356606
v 14.948933 1.328222 -17.370419
v 14.990315 1.355328 -17.413069
v 15.084461 1.510842 -17.707108
v 15.058891 1.510895 -17.680754
v 15.441215 1.342784 -17.360956
v 15.186295 1.262962 -17.222914
v 15.087082 1.262962 -17.236101
v 14.850571 1.374687 -17.466053
v 14.985160 1.462826 -17.604765
v 14.948897 1.262962 -17.370382
vn 0.6021 -0.0681 0.7955
vn 0.5978 -0.0700 0.7985
vn 0.5906 -0.0736 0.8036
vn -0.4111 -0.9114 -0.0183
vn -0.4083 -0.9126 -0.0236
vn 0.1796 -0.7987 -0.5743
vn 0.7160 0.0005 0.6981
vn 0.1840 -0.7954 -0.5774
vn 0.1851 -0.7956 -0.5768
vn 0.7184 -0.0005 0.6956
vn 0.2945 0.6506 0.7000
vn 0.0972 0.7938 0.6004
vn -0.6964 -0.0000 0.7177
vn 0.7115 0.1388 0.6889
vn 0.2308 0.9473 0.2220
vn 0.2316 0.9470 0.2226
vn -0.0641 0.8703 0.4883
vn -0.7177 -0.0000 -0.6964
vn 0.6964 -0.0000 -0.7177
vn -0.0650 0.8696 0.4894
vn -0.0000 1.0000 -0.0000
vn 0.7177 -0.0000 0.6964
vn -0.6969 0.0008 0.7172
vn 0.7114 0.1374 0.6892
vn 0.6963 -0.0000 -0.7177
vn 0.6964 -0.0008 -0.7177
vn -0.0650 0.8696 0.4895
vn -0.0651 0.8696 0.4895
vn -0.0649 0.8698 0.4891
vt 1.000000 0.000000
vt 1.000000 1.000000
vt 0.000000 0.000000
vt 1.000000 0.209490
vt 0.783829 0.000000
vt 1.000000 0.350040
vt 0.209490 0.209490
vt 0.350040 0.350040
vt 0.348100 0.000000
vt 0.348100 0.348100
vt 1.000000 0.732690
vt 0.732690 0.732690
vt 1.000000 0.728805
vt 0.728805 0.728805
vt 0.393621 0.230360
vt 0.392765 0.191267
vt 0.397992 0.230360
vt 0.906285 0.906285
vt 0.176117 0.000000
vt 1.000000 0.070789
vt 0.186304 0.070269
vt 0.070789 0.070789
vt 0.070833 0.000000
vt 0.176117 0.176117
vt 1.000000 0.349080
vt 0.406650 0.500000
vt 0.385555 0.306996
vt 0.400053 0.289043
vt 0.381638 0.572177
vt 0.390598 0.500000
vt 0.396272 0.571163
vt 0.564200 0.519718
vt 0.854673 0.735901
vt 0.393017 0.202776
vt 0.393621 0.230360
vt 0.396709 0.230360
vt 0.216171 0.000000
vt 0.649635 0.425210
vt 0.381411 0.093517
vt 0.904652 0.000000
vt 0.929167 0.000000
vt 0.404324 0.410435
vt 0.406652 0.476937
vt 0.384268 0.379694
vt 0.384020 0.374902
vt 0.385973 0.288899
vt 0.396155 0.572057
vt 0.395842 0.572198
vt 0.382008 0.568769
vt 0.650920 0.000000
vt 1.000000 0.208794
vt 1.000000 0.425168
vt 1.000000 0.729066
vt 0.425168 0.425168
vt 0.208794 0.208794
vt 0.729066 0.729066
s 0
usemtl 石头
f 4/1/1 6/2/1 7/3/1
f 4/3/2 1/1/2 6/2/2
f 1/3/3 2/1/3 6/2/3
f 28/4/4 2/3/4 29/5/4
f 30/6/5 6/2/5 28/7/5
f 7/1/6 30/8/6 31/9/6
f 4/1/7 7/2/7 5/3/7
f 31/10/8 33/11/8 7/2/8
f 33/12/9 34/13/9 7/2/9
f 34/14/10 5/1/10 7/2/10
f 4/2/11 5/3/11 3/1/11
f 1/1/12 4/2/12 3/3/12
f 8/15/13 42/16/13 20/17/13
f 35/18/14 3/1/14 5/2/14
f 40/19/15 41/20/15 25/21/15
f 41/22/16 3/3/16 36/23/16
f 3/2/17 40/24/17 45/25/17
f 39/26/18 9/27/18 18/28/18
f 15/29/19 13/30/19 27/31/19
f 3/3/20 38/32/20 23/33/20
f 19/34/21 8/15/21 46/35/21
f 8/15/22 17/36/22 46/15/22
f 29/37/23 1/2/23 21/38/23
f 28/4/4 6/2/4 2/3/4
f 7/1/6 6/2/6 30/8/6
f 31/10/8 32/39/8 33/11/8
f 34/14/10 35/40/10 5/1/10
f 35/18/24 36/41/24 3/1/24
f 40/19/15 3/1/15 41/20/15
f 22/42/18 26/43/18 39/26/18
f 39/26/18 13/30/18 12/44/18
f 12/44/18 11/45/18 9/27/18
f 9/27/18 10/46/18 18/28/18
f 18/28/18 22/42/18 39/26/18
f 39/26/18 12/44/18 9/27/18
f 24/47/25 16/48/25 15/29/25
f 15/29/26 14/49/26 13/30/26
f 13/30/19 39/26/19 27/31/19
f 27/31/19 24/47/19 15/29/19
f 3/3/27 45/50/27 44/51/27
f 44/51/28 37/52/28 38/32/28
f 23/33/20 43/53/20 1/2/20
f 3/3/29 44/51/29 38/32/29
f 23/33/20 1/2/20 3/3/20
f 19/34/21 42/16/21 8/15/21
f 8/15/22 20/17/22 17/36/22
f 37/54/23 44/55/23 29/37/23
f 29/37/23 2/1/23 1/2/23
f 1/2/23 43/56/23 21/38/23
f 21/38/23 37/54/23 29/37/23
