# Blender 4.0.2
# www.blender.org
mtllib 立方体.001_cell.076.mtl
o 立方体.001_cell.076
v 14.965076 5.361604 -17.391390
v 14.918002 5.261789 -17.437078
v 14.914301 5.248309 -17.415571
v 14.975083 5.359998 -17.381678
v 14.968344 5.364895 -17.373941
v 14.940011 5.293140 -17.353531
v 14.972954 5.333125 -17.383814
v 14.969489 5.232735 -17.387321
v 14.971878 5.319657 -17.384876
v 14.950312 5.319657 -17.362650
v 14.963525 5.228844 -17.381393
v 14.941425 5.225252 -17.358820
v 14.919737 5.239082 -17.335686
v 14.949334 5.220275 -17.367250
v 14.975083 5.359998 -17.381678
v 14.972954 5.333125 -17.383814
v 14.969489 5.232735 -17.387321
v 14.971878 5.319657 -17.384876
v 14.940011 5.293140 -17.353531
v 14.950312 5.319657 -17.362650
v 14.941425 5.225252 -17.358820
v 14.949334 5.220275 -17.367250
v 14.968344 5.364895 -17.373941
v 14.919737 5.239082 -17.335686
v 14.963525 5.228844 -17.381393
vn 0.3758 0.8953 -0.2393
vn -0.9189 0.3798 0.1064
vn 0.6966 0.0018 -0.7175
vn 0.6952 0.0011 -0.7188
vn -0.9159 0.3917 0.0879
vn 0.0302 -0.8493 -0.5271
vn 0.0128 -0.8608 -0.5087
vn -0.5777 -0.8144 -0.0547
vn 0.7132 -0.1115 0.6920
vn 0.7171 -0.0393 0.6958
vn -0.9158 0.3895 0.0980
vn -0.5746 -0.8164 -0.0571
vn 0.7132 -0.1115 0.6921
vn 0.7171 -0.0392 0.6958
vn -0.9158 0.3895 0.0981
vt 1.000000 0.000000
vt 1.000000 0.119542
vt 0.889983 0.000000
vt 0.327277 0.327277
vt 0.000000 0.000000
vt 0.470904 0.000000
vt 1.000000 0.110017
vt 0.809832 0.000000
vt 0.809832 0.809832
vt 0.762749 0.698456
vt 1.000000 1.000000
vt 0.581787 0.000000
vt 1.000000 0.466120
vt 0.466119 0.466119
vt 0.271866 0.000000
vt 1.000000 0.020790
vt 0.586977 0.228796
vt 0.585292 0.229444
vt 0.581342 0.229933
vt 0.581630 0.229897
vt 0.564367 0.275118
vt 1.000000 0.871498
vt 0.418213 0.000000
vt 0.585855 0.229228
vt 0.587182 0.228717
vt 0.581002 0.229975
vt 0.580767 0.230004
vt 0.581165 0.229955
vt 0.585292 0.229444
vt 0.584087 0.229593
vt 1.000000 0.327277
s 0
usemtl 石头
f 1/1/1 23/2/1 15/3/1
f 6/4/2 3/5/2 24/6/2
f 15/7/3 16/8/3 1/1/3
f 2/1/4 16/9/4 18/10/4
f 1/11/5 2/5/5 3/1/5
f 3/11/6 17/12/6 25/13/6
f 22/1/7 3/11/7 25/14/7
f 3/11/8 21/15/8 24/16/8
f 4/17/9 20/18/9 9/18/9
f 8/19/10 20/18/10 13/20/10
f 3/1/11 10/21/11 23/22/11
f 18/10/4 17/23/4 2/1/4
f 2/1/4 1/11/4 16/9/4
f 3/11/6 2/5/6 17/12/6
f 3/11/12 22/5/12 21/15/12
f 9/18/13 7/24/13 4/17/13
f 4/17/9 5/25/9 20/18/9
f 13/20/14 12/26/14 14/27/14
f 14/27/10 11/28/10 8/19/10
f 8/19/10 9/29/10 20/18/10
f 20/18/10 19/30/10 13/20/10
f 13/20/10 14/27/10 8/19/10
f 23/22/11 1/11/11 3/1/11
f 3/1/15 6/31/15 10/21/15
