# Blender 4.0.2
# www.blender.org
mtllib 立方体.001_cell.097.mtl
o 立方体.001_cell.097
v 15.786666 5.887003 -16.550913
v 15.688590 5.879631 -16.646074
v 15.633173 5.972691 -16.699844
v 15.679212 6.134342 -16.655174
v 15.790505 5.888310 -16.547188
v 15.813819 5.908300 -16.524567
vn -0.6964 -0.0000 0.7177
vt 0.597217 0.062103
vt 0.599736 0.057174
vt 0.590622 0.093208
vt 0.590275 0.082153
vt 0.597350 0.061824
vt 0.600330 0.084024
s 0
usemtl 金边
f 1/1/1 6/2/1 3/3/1
f 3/3/1 2/4/1 1/1/1
f 1/1/1 5/5/1 6/2/1
f 6/2/1 4/6/1 3/3/1
