# Blender 4.0.2
# www.blender.org
mtllib 立方体.001_cell.069.mtl
o 立方体.001_cell.069
v 15.907578 2.765448 -16.662865
v 16.337761 2.359095 -16.491051
v 16.337761 2.796992 -16.491051
v 16.146935 2.607491 -16.676207
v 16.248806 2.426952 -16.577362
v 16.214680 2.508514 -16.610474
v 16.129522 2.225190 -16.276432
v 16.154806 3.157398 -16.302490
v 16.224030 3.053228 -16.373835
v 16.012348 2.484323 -16.421408
v 16.012348 3.095878 -16.421408
v 16.046698 2.402228 -16.388079
v 16.046698 3.115545 -16.388079
v 16.033607 3.135242 -16.374588
v 15.901642 2.988006 -16.528824
v 15.888745 2.770203 -16.541338
v 15.863248 2.721063 -16.566076
v 15.958604 2.581747 -16.473555
v 15.958604 3.045107 -16.473555
v 16.113235 2.239860 -16.280176
v 16.086773 2.249310 -16.305828
v 16.024994 2.396883 -16.365711
v 16.025055 3.172658 -16.365774
v 16.043077 3.222854 -16.348297
v 16.114216 3.282766 -16.279280
v 16.025059 3.198228 -16.365778
v 15.949717 2.560811 -16.438732
v 15.977349 2.510705 -16.411903
v 15.965480 3.130197 -16.423578
v 15.936894 2.579550 -16.451180
v 15.936958 3.094201 -16.451246
v 16.123501 2.223466 -16.270226
v 15.989334 3.128544 -16.400429
v 16.123524 3.294261 -16.270250
v 15.945048 3.102310 -16.443398
v 15.990627 2.478974 -16.399023
vn -0.2888 -0.6642 0.6896
vn 0.5410 0.6089 0.5801
vn 0.4459 0.6517 0.6136
vn 0.8443 -0.5141 0.1510
vn -0.2889 -0.4992 0.8169
vn 0.7177 -0.0000 0.6964
vn -0.5281 -0.6900 0.4950
vn -0.4464 -0.3006 0.8428
vn -0.6964 0.0002 0.7176
vn -0.4668 -0.3421 0.8155
vn -0.5117 -0.3138 0.7998
vn -0.3198 -0.3819 0.8671
vn -0.2888 -0.6642 0.6895
vn 0.5578 0.5018 0.6611
vn 0.5999 0.6088 0.5191
vn 0.7286 0.6473 0.2239
vn -0.6964 -0.0000 0.7177
vn 0.4849 0.6893 0.5382
vn 0.5386 0.6089 0.5824
vn 0.5320 0.6174 0.5795
vn 0.0662 0.8164 0.5736
vn -0.1520 0.8662 0.4760
vn 0.9856 -0.0673 0.1554
vn -0.2913 -0.4992 0.8160
vn -0.2879 -0.5050 0.8136
vn -0.2914 -0.5019 0.8144
vn -0.2894 -0.4998 0.8164
vt 0.189056 0.510470
vt 0.187500 0.530577
vt 0.213515 0.520522
vt 0.411171 0.214765
vt 0.375000 0.213130
vt 0.402905 0.228424
vt 0.436694 0.177780
vt 0.390664 0.187500
vt 0.434566 0.181261
vt 0.375000 0.250000
vt 0.386343 0.257434
vt 0.388790 0.250000
vt 0.177673 0.505618
vt 0.156702 0.549115
vt 0.187500 0.504382
vt 0.201676 0.510437
vt 0.196452 0.512596
vt 0.205508 0.508806
vt 0.197212 0.506931
vt 0.192445 0.505374
vt 0.227544 0.514545
vt 0.225323 0.514021
vt 0.210506 0.509408
vt 0.206774 0.508329
vt 0.187500 0.504382
vt 0.411987 0.220014
vt 0.414317 0.216329
vt 0.416798 0.204442
vt 0.419939 0.206008
vt 0.430002 0.187500
vt 0.407770 0.227088
vt 0.406002 0.230233
vt 0.385031 0.197799
vt 0.436837 0.178590
vt 0.407837 0.165263
vt 0.375000 0.290310
vt 0.165310 0.500000
vt 0.125000 0.500000
vt 0.125000 0.536870
vt 0.185791 0.503616
s 0
usemtl 石头
f 11/1/1 9/2/1 8/3/1
f 10/4/2 4/5/2 18/6/2
f 7/7/3 5/8/3 20/9/3
f 1/10/4 16/11/4 17/12/4
f 19/13/5 3/14/5 35/15/5
f 14/16/6 13/17/6 23/18/6
f 11/1/7 33/19/7 29/20/7
f 8/3/8 34/21/8 25/22/8
f 25/22/9 24/23/9 26/24/9
f 25/22/10 26/24/10 13/17/10
f 8/3/11 25/22/11 13/17/11
f 11/1/12 29/20/12 35/25/12
f 8/3/13 13/17/13 11/1/13
f 11/1/13 35/25/13 9/2/13
f 28/26/14 36/27/14 10/4/14
f 12/28/14 22/29/14 21/30/14
f 27/31/15 28/26/15 10/4/15
f 12/28/14 21/30/14 5/8/14
f 30/32/16 27/31/16 10/4/16
f 10/4/14 12/28/14 5/8/14
f 5/8/17 6/33/17 4/5/17
f 4/5/18 1/10/18 17/12/18
f 18/6/19 30/32/19 10/4/19
f 4/5/18 17/12/18 18/6/18
f 10/4/20 5/8/20 4/5/20
f 20/9/3 32/34/3 7/7/3
f 7/7/21 2/35/21 5/8/21
f 5/8/22 21/30/22 20/9/22
f 1/10/23 15/36/23 16/11/23
f 19/13/24 15/37/24 1/38/24
f 1/38/25 4/39/25 3/14/25
f 3/14/26 9/2/26 35/15/26
f 35/15/24 31/40/24 19/13/24
f 19/13/27 1/38/27 3/14/27
