# Blender 4.0.2
# www.blender.org
mtllib 立方体.001_cell.053.mtl
o 立方体.001_cell.053
v 15.036654 5.240831 -17.278639
v 14.985933 5.191800 -17.327852
v 15.034008 5.313410 -17.281206
v 15.035194 5.189077 -17.280054
v 14.981613 5.201639 -17.332043
v 15.044039 5.332499 -17.271473
vn -0.6964 -0.0000 0.7177
vt 0.577264 0.222314
vt 0.576649 0.212197
vt 0.580097 0.212725
vt 0.577965 0.223176
vt 0.574363 0.212488
vt 0.580487 0.210641
s 0
usemtl 金边
f 2/1/1 1/2/1 3/3/1
f 3/3/1 5/4/1 2/1/1
f 2/1/1 4/5/1 1/2/1
f 1/2/1 6/6/1 3/3/1
