# Blender v3.6.5 OBJ File: ''
# www.blender.org
mtllib final.002.mtl
o final.002_final.072
v 180.840103 30.602304 197.551407
v 180.792404 30.612276 197.659607
v 180.776001 30.602095 197.651596
v 180.856400 30.610245 197.561707
v 180.887207 30.635195 197.461700
v 180.730896 30.642614 197.755096
v 180.714706 30.632435 197.749207
v 180.881302 30.875275 197.259399
v 180.831497 30.912195 197.270004
v 180.845901 30.923456 197.275497
v 180.769394 30.942196 197.300293
v 180.784897 30.954876 197.304596
v 180.895401 30.884365 197.265503
v 180.902802 30.838184 197.277802
v 180.911407 30.688335 197.397995
v 180.921494 30.760296 197.334396
v 180.933395 30.764416 197.341995
v 180.918594 30.845976 197.281799
v 180.589005 30.780495 197.930603
v 180.570404 30.860676 197.953506
v 180.555099 30.854206 197.956604
v 180.533203 30.948114 197.969803
v 180.518600 30.942446 197.973297
v 180.903107 30.640884 197.472794
v 180.682404 30.681065 197.824905
v 180.665100 30.672056 197.824295
v 180.702499 30.990274 197.359406
v 180.690201 30.973545 197.354202
v 180.606598 31.030525 197.462204
v 180.591995 31.016386 197.454803
v 180.925293 30.692326 197.407196
v 180.533401 31.061855 197.558502
v 180.516998 31.045235 197.555496
v 180.467300 31.080605 197.657196
v 180.485992 31.095165 197.658707
v 180.405594 31.169386 197.894302
v 180.444199 31.137165 197.924606
v 180.420197 31.179464 197.893707
v 180.428802 31.127686 197.924805
v 180.489807 31.044275 197.961304
v 180.467499 31.091825 197.945801
v 180.451599 31.085135 197.946701
v 180.475204 31.037624 197.962906
v 180.641800 30.729416 197.882706
v 180.603500 30.788496 197.927994
v 180.625900 30.720566 197.882797
v 180.436798 31.152706 197.820999
v 180.437805 31.110044 197.747604
v 180.419800 31.139456 197.822296
v 180.455994 31.126144 197.746399
v 181.819595 30.476105 196.607193
v 181.904800 30.420635 196.575500
v 181.915207 30.429596 196.591293
v 182.007599 30.391966 196.522797
v 182.016098 30.403484 196.537994
v 182.119598 30.405676 196.482300
v 182.113098 30.393835 196.467606
v 181.686005 30.766386 196.486801
v 181.731094 30.793446 196.437500
v 181.725693 30.779045 196.423904
v 181.665497 30.741476 196.540695
v 181.692505 30.778996 196.499496
v 181.672104 30.751844 196.553604
v 181.675201 30.706396 196.569901
v 181.722595 30.629776 196.618805
v 181.715103 30.624876 196.606903
v 181.765198 30.542665 196.615494
v 181.679504 30.716145 196.584503
v 182.365204 30.554426 196.308502
v 182.326904 30.483955 196.337799
v 182.368195 30.544855 196.294907
v 182.399796 30.629625 196.259003
v 182.403198 30.620886 196.246002
v 181.830399 30.482676 196.623001
v 182.198502 30.422386 196.435303
v 182.197495 30.410585 196.419800
v 181.789703 30.785934 196.346497
v 181.912003 30.807795 196.265793
v 181.903107 30.792665 196.253098
v 181.797104 30.803514 196.356201
v 181.773895 30.547535 196.629395
v 182.017197 30.808676 196.198593
v 182.012299 30.790094 196.184906
v 182.124893 30.815516 196.156601
v 182.121994 30.798256 196.140594
v 182.396301 30.804094 196.135605
v 182.375107 30.833336 196.089203
v 182.375305 30.845865 196.101807
v 182.395798 30.792076 196.121994
v 182.412094 30.716276 196.199493
v 182.413498 30.706905 196.186401
v 182.407104 30.760866 196.168106
v 182.407898 30.751335 196.153702
v 182.324799 30.494816 196.350494
v 182.266403 30.440655 196.379196
v 182.266907 30.452145 196.393402
v 182.298004 30.818985 196.100906
v 182.298004 30.835135 196.115204
v 182.218201 30.806255 196.115906
v 182.218597 30.825405 196.130905
vt 0.359174 0.489387
vt 0.358791 0.486416
vt 0.381301 0.485361
vt 0.381016 0.482217
vt 0.397075 0.477459
vt 0.338130 0.485034
vt 0.338295 0.488446
vt 0.407880 0.421146
vt 0.408930 0.419137
vt 0.418053 0.432646
vt 0.396548 0.414653
vt 0.398502 0.411655
vt 0.419135 0.443591
vt 0.416252 0.434080
vt 0.410850 0.456161
vt 0.413008 0.456515
vt 0.405519 0.467932
vt 0.417094 0.443361
vt 0.285105 0.464035
vt 0.286228 0.461643
vt 0.296480 0.474431
vt 0.277961 0.449742
vt 0.276269 0.451286
vt 0.396051 0.474708
vt 0.320558 0.485093
vt 0.320780 0.482124
vt 0.383527 0.409290
vt 0.384174 0.405037
vt 0.366182 0.405413
vt 0.366516 0.400708
vt 0.403432 0.466460
vt 0.337570 0.402997
vt 0.338804 0.397178
vt 0.313605 0.405692
vt 0.314297 0.400985
vt 0.276552 0.418881
vt 0.272124 0.421605
vt 0.275341 0.417023
vt 0.270402 0.421013
vt 0.273420 0.434568
vt 0.272320 0.427170
vt 0.270667 0.426394
vt 0.272003 0.434995
vt 0.308976 0.478167
vt 0.297423 0.472398
vt 0.308356 0.480753
vt 0.283661 0.412308
vt 0.297188 0.406751
vt 0.284039 0.415530
vt 0.296931 0.410515
vt 0.618985 0.482217
vt 0.618699 0.485361
vt 0.602925 0.477459
vt 0.641209 0.486416
vt 0.640826 0.489387
vt 0.661870 0.485034
vt 0.661705 0.488446
vt 0.601498 0.411655
vt 0.603452 0.414653
vt 0.591070 0.419137
vt 0.592120 0.421146
vt 0.581947 0.432646
vt 0.583748 0.434080
vt 0.580865 0.443591
vt 0.594481 0.467932
vt 0.586992 0.456515
vt 0.589150 0.456161
vt 0.582906 0.443361
vt 0.714895 0.464035
vt 0.703520 0.474431
vt 0.713772 0.461643
vt 0.722039 0.449742
vt 0.723732 0.451286
vt 0.603949 0.474708
vt 0.679220 0.482124
vt 0.679442 0.485093
vt 0.633484 0.400708
vt 0.633818 0.405413
vt 0.615826 0.405037
vt 0.616472 0.409290
vt 0.596568 0.466460
vt 0.661196 0.397178
vt 0.662430 0.402997
vt 0.685704 0.400985
vt 0.686395 0.405692
vt 0.723448 0.418881
vt 0.724659 0.417023
vt 0.727876 0.421605
vt 0.729598 0.421013
vt 0.726580 0.434568
vt 0.727997 0.434995
vt 0.729333 0.426394
vt 0.727680 0.427170
vt 0.702577 0.472398
vt 0.691644 0.480753
vt 0.691024 0.478167
vt 0.715961 0.415530
vt 0.716339 0.412308
vt 0.702812 0.406751
vt 0.703069 0.410515
vn -0.6696 0.5505 -0.4986
vn 0.6519 0.6983 0.2957
vn -0.7473 0.5595 -0.3584
vn 0.6518 0.6985 0.2954
vn 0.5832 0.6857 0.4355
vn -0.7473 0.5594 -0.3587
vn -0.7473 0.5595 -0.3586
vn 0.5832 0.6856 0.4356
vn -0.8708 0.4699 -0.1445
vn 0.6519 0.6984 0.2955
vn -0.6696 0.5504 -0.4987
vn 0.7126 0.6851 0.1511
vn -0.6404 0.4852 -0.5954
vn 0.5324 0.3610 0.7656
vn -0.5219 -0.8529 0.0101
vn -0.7177 -0.6481 0.2548
vn 0.6374 0.2442 0.7308
vn -0.4799 -0.8697 -0.1155
vn -0.5220 -0.8529 0.0101
vn 0.5324 0.3611 0.7656
vn -0.7178 -0.6480 0.2548
vn -0.9110 0.0108 0.4123
vn 0.5144 0.4112 0.7525
vn 0.5145 0.4112 0.7525
vn 0.4955 0.5365 0.6831
vn -0.9240 0.2185 0.3137
vn -0.9286 0.3513 0.1194
vn 0.5048 0.5239 0.6861
vn -0.9110 0.0109 0.4123
vn 0.5048 0.5239 0.6860
vn 0.5145 0.4113 0.7525
vn -0.9240 0.2186 0.3137
vn -0.7372 -0.1079 -0.6670
vn 0.9010 0.4036 -0.1592
vn -0.7025 0.0591 -0.7092
vn 0.9009 0.4037 -0.1592
vn 0.9355 0.3157 -0.1587
vn -0.7894 -0.2386 -0.5657
vn 0.5832 0.6857 0.4356
vn 0.5190 0.6117 0.5971
vn -0.8708 0.4699 -0.1444
vn -0.6511 0.3762 -0.6592
vn 0.7394 0.6714 0.0503
vn 0.7394 0.6714 0.0504
vn 0.7127 0.6850 0.1510
vn 0.6374 0.2441 0.7308
vn 0.6835 0.1919 0.7043
vn -0.4800 -0.8696 -0.1156
vn 0.6834 0.1922 0.7043
vn -0.4915 -0.8576 -0.1517
vn -0.4799 -0.8697 -0.1153
vn 0.6835 0.1920 0.7043
vn 0.7804 0.1432 0.6087
vn -0.4916 -0.8575 -0.1519
vn 0.7803 0.1434 0.6087
vn -0.5132 -0.8486 -0.1284
vn -0.4915 -0.8576 -0.1516
vn 0.5191 0.6116 0.5971
vn 0.5141 0.5744 0.6370
vn -0.8708 0.4699 -0.1443
vn 0.5141 0.5743 0.6370
vn 0.5142 0.5744 0.6369
vn 0.7803 0.1433 0.6088
vn 0.8865 0.0959 0.4526
vn -0.5132 -0.8487 -0.1282
vn 0.8866 0.0958 0.4525
vn -0.5624 -0.8252 -0.0518
vn -0.5132 -0.8486 -0.1283
vn 0.9658 0.0241 0.2583
vn -0.5468 -0.8330 0.0842
vn -0.5625 -0.8252 -0.0517
vn 0.8866 0.0958 0.4526
vn 0.9658 0.0240 0.2583
vn 0.9981 0.0341 0.0513
vn 0.9735 0.1439 -0.1777
vn -0.2786 -0.9466 0.1621
vn -0.5945 -0.7359 -0.3240
vn -0.2785 -0.9467 0.1621
vn 0.9355 0.3157 -0.1586
vn -0.7893 -0.2386 -0.5657
vn 0.9536 0.2513 -0.1658
vn 0.9540 0.2497 -0.1662
vn -0.5946 -0.7358 -0.3241
vn 0.9540 0.2496 -0.1661
vn -0.7650 -0.4411 -0.4693
vn -0.5946 -0.7358 -0.3240
vn -0.7951 -0.3355 -0.5051
vn -0.7650 -0.4411 -0.4692
vn 0.9540 0.2497 -0.1661
vn -0.7893 -0.2387 -0.5657
vn -0.7951 -0.3356 -0.5051
vn 0.9536 0.2514 -0.1658
vn -0.7952 -0.3355 -0.5051
vn 0.7962 0.6004 -0.0749
vn -0.6512 0.3763 -0.6591
vn 0.9010 0.4036 -0.1591
vn 0.8288 0.5496 -0.1050
vn -0.6765 0.2474 -0.6936
vn 0.7961 0.6005 -0.0750
vn -0.6511 0.3763 -0.6591
vn -0.6766 0.2474 -0.6936
vn 0.8288 0.5495 -0.1050
vn 0.7961 0.6005 -0.0749
vn -0.6766 0.2475 -0.6935
vn -0.2853 -0.9057 0.3136
vn -0.4367 -0.8732 0.2163
vn 0.9959 -0.0196 0.0878
vn 0.9981 0.0340 0.0513
vn -0.2785 -0.9466 0.1622
vn -0.2854 -0.9057 0.3136
vn 0.9636 -0.1285 0.2344
vn -0.4367 -0.8733 0.2162
vn -0.4367 -0.8732 0.2162
vn 0.9960 -0.0196 0.0877
vn 0.9657 0.0241 0.2584
vn 0.9636 -0.1284 0.2344
vn -0.5469 -0.8330 0.0843
vn 0.5115 0.6978 0.5015
vn -0.1972 0.4658 -0.8627
vn 0.0052 0.3207 -0.9472
vn 0.3716 0.7462 0.5523
vn -0.3417 0.4944 -0.7992
vn -0.1972 0.4656 -0.8628
vn 0.5115 0.6979 0.5013
vn 0.3717 0.7462 0.5523
vn -0.3417 0.4943 -0.7993
vn 0.3716 0.7464 0.5521
vn 0.2233 0.7686 0.5994
vn -0.4505 0.4529 -0.7693
vn -0.3418 0.4945 -0.7992
vn 0.2234 0.7685 0.5996
vn -0.2384 -0.9110 -0.3365
vn 0.7165 0.2308 0.6583
vn -0.1094 -0.9233 -0.3681
vn -0.1094 -0.9233 -0.3682
vn 0.7795 0.3188 0.5392
vn 0.1818 -0.8015 -0.5696
vn 0.7166 0.2307 0.6582
vn -0.1093 -0.9233 -0.3681
vn 0.7795 0.3189 0.5392
vn 0.7770 0.3664 0.5118
vn 0.4701 -0.2248 -0.8535
vn 0.2461 0.1507 -0.9575
vn 0.4122 -0.0096 -0.9111
vn 0.7332 0.4960 0.4651
vn 0.4123 -0.0095 -0.9110
vn 0.7331 0.4850 0.4768
vn 0.7770 0.3665 0.5118
vn 0.7331 0.4959 0.4653
vn -0.6222 -0.1275 -0.7724
vn -0.6354 0.0477 -0.7708
vn -0.1455 0.5823 0.7999
vn -0.1456 0.5823 0.7998
vn -0.1635 0.5032 0.8486
vn -0.6221 -0.1275 -0.7725
vn -0.1636 0.5031 0.8486
vn -0.5428 -0.2807 -0.7916
vn 0.6609 0.5876 0.4669
vn 0.5115 0.6980 0.5012
vn 0.0050 0.3203 -0.9473
vn -0.4506 0.4529 -0.7693
vn 0.2235 0.7684 0.5997
vn 0.1203 0.7770 0.6180
vn -0.5320 0.3558 -0.7683
vn -0.4504 0.4527 -0.7696
vn 0.1202 0.7772 0.6177
vn -0.2448 -0.8945 -0.3742
vn 0.5684 0.1796 0.8029
vn -0.2711 -0.8951 -0.3539
vn 0.6779 0.1929 0.7094
vn -0.2384 -0.9109 -0.3367
vn -0.2709 -0.8952 -0.3538
vn 0.6778 0.1930 0.7095
vn -0.2386 -0.9109 -0.3366
vn 0.5686 0.1795 0.8028
vn 0.6779 0.1929 0.7093
vn -0.2710 -0.8951 -0.3540
vn 0.0051 0.3205 -0.9472
vn 0.2462 0.1508 -0.9574
vn 0.6935 0.5439 0.4725
vn 0.7332 0.4959 0.4654
vn 0.6608 0.5875 0.4671
vn 0.6935 0.5438 0.4725
vn -0.1621 -0.8934 -0.4191
vn 0.3993 0.1787 0.8992
vn -0.2449 -0.8944 -0.3743
vn 0.5685 0.1794 0.8029
vn -0.1621 -0.8934 -0.4189
vn -0.0311 -0.9210 -0.3884
vn 0.1901 0.1565 0.9692
vn 0.3992 0.1789 0.8992
vn -0.1620 -0.8935 -0.4188
vn 0.1900 0.1566 0.9692
vn -0.0135 0.2066 0.9783
vn 0.0058 -0.9951 -0.0984
vn -0.2164 0.3469 0.9126
vn 0.0057 -0.9951 -0.0984
vn -0.4104 -0.7673 -0.4927
vn -0.2163 0.3470 0.9126
vn -0.1834 0.4453 0.8764
vn -0.5430 -0.2806 -0.7915
vn -0.1835 0.4453 0.8764
vn -0.5009 -0.3857 -0.7748
vn -0.5429 -0.2807 -0.7915
vn -0.4871 -0.4886 -0.7238
vn -0.1842 0.4439 0.8770
vn -0.4105 -0.7673 -0.4927
vn -0.1842 0.4438 0.8770
vn -0.5010 -0.3856 -0.7748
vn -0.1841 0.4438 0.8770
vn -0.2162 0.3469 0.9126
vn -0.4105 -0.7673 -0.4928
vn -0.1842 0.4439 0.8769
vn -0.4871 -0.4886 -0.7239
vn -0.5009 -0.3856 -0.7748
vn -0.6354 0.0476 -0.7707
vn -0.0608 0.7014 0.7101
vn -0.1456 0.5822 0.7999
vn -0.6352 0.0475 -0.7708
vn -0.5876 0.2322 -0.7751
vn -0.0609 0.7015 0.7101
vn 0.1200 0.7772 0.6177
vn -0.0196 0.7397 0.6727
vn -0.5320 0.3558 -0.7684
vn -0.5877 0.2324 -0.7750
vn -0.0194 0.7395 0.6729
vn -0.0608 0.7013 0.7102
vn -0.0193 0.7395 0.6729
vn -0.5878 0.2325 -0.7749
vn -0.5323 0.3561 -0.7680
vn 0.0129 0.1481 0.9889
vn 0.1622 -0.9820 -0.0967
vn 0.0831 -0.9619 -0.2604
vn -0.0134 0.2066 0.9783
vn 0.0129 0.1480 0.9889
vn -0.0312 -0.9210 -0.3883
vn 0.0832 -0.9619 -0.2604
vn 0.1390 0.0122 0.9902
vn 0.1900 0.1565 0.9692
usemtl m1.012
s off
f 3/1/1 2/2/2 1/3/3
f 2/2/4 4/4/5 1/3/6
f 1/3/7 4/4/8 5/5/9
f 2/2/10 3/1/11 6/6/12
f 3/1/11 7/7/13 6/6/12
f 10/8/14 9/9/15 8/10/16
f 12/11/17 11/12/18 9/9/19
f 10/8/20 12/11/17 9/9/15
f 8/10/21 14/13/22 13/14/23
f 13/14/24 10/8/20 8/10/21
f 17/15/25 16/16/26 15/17/27
f 17/15/25 18/18/28 16/16/26
f 14/13/29 18/18/30 13/14/31
f 18/18/28 14/13/22 16/16/32
f 21/19/33 20/20/34 19/21/35
f 20/20/36 21/19/33 22/22/37
f 21/19/33 23/23/38 22/22/37
f 4/4/39 24/24/40 5/5/41
f 26/25/42 25/26/43 7/7/13
f 25/26/44 6/6/45 7/7/13
f 12/11/46 27/27/47 11/12/48
f 27/27/49 28/28/50 11/12/51
f 27/27/52 29/29/53 28/28/54
f 29/29/55 30/30/56 28/28/57
f 24/24/58 31/31/59 5/5/60
f 31/31/61 15/17/27 5/5/41
f 31/31/62 17/15/25 15/17/27
f 29/29/63 32/32/64 30/30/65
f 32/32/66 33/33/67 30/30/68
f 35/34/69 34/35/70 33/33/71
f 32/32/72 35/34/73 33/33/67
f 38/36/74 37/37/75 36/38/76
f 37/37/75 39/39/77 36/38/78
f 22/22/79 23/23/80 40/40/81
f 37/37/75 41/41/82 39/39/83
f 41/41/84 42/42/85 39/39/86
f 43/43/87 42/42/88 41/41/89
f 23/23/90 43/43/91 40/40/81
f 40/40/92 43/43/93 41/41/84
f 44/44/94 25/26/44 26/25/95
f 20/20/96 45/45/97 19/21/35
f 46/46/98 44/44/99 26/25/100
f 46/46/101 19/21/35 45/45/102
f 44/44/103 46/46/104 45/45/102
f 49/47/105 48/48/106 47/49/107
f 47/49/107 38/36/108 36/38/109
f 49/47/110 47/49/107 36/38/76
f 50/50/111 48/48/112 34/35/70
f 48/48/113 50/50/111 47/49/114
f 35/34/115 50/50/116 34/35/117
f 53/51/118 52/52/119 51/53/120
f 55/54/121 54/55/122 52/52/123
f 53/51/124 55/54/125 52/52/123
f 54/55/126 55/54/127 56/56/128
f 57/57/129 54/55/130 56/56/131
f 60/58/132 59/59/133 58/60/134
f 58/60/135 62/61/136 61/62/137
f 59/59/138 62/61/136 58/60/139
f 62/61/140 63/63/141 61/62/137
f 61/62/137 63/63/141 64/64/142
f 67/65/143 66/66/144 65/67/145
f 66/66/146 64/64/142 68/68/147
f 63/63/148 68/68/147 64/64/142
f 65/67/149 66/66/146 68/68/147
f 71/69/150 70/70/151 69/71/152
f 69/71/153 72/72/154 71/69/155
f 72/72/156 73/73/157 71/69/155
f 74/74/158 53/51/159 51/53/160
f 57/57/161 56/56/162 75/75/163
f 76/76/164 57/57/165 75/75/166
f 79/77/167 78/78/168 77/79/169
f 80/80/170 59/59/133 60/58/171
f 77/79/172 80/80/173 60/58/174
f 78/78/175 80/80/176 77/79/177
f 51/53/178 67/65/179 81/81/180
f 81/81/180 67/65/179 65/67/181
f 74/74/182 51/53/178 81/81/183
f 83/82/184 82/83/185 79/77/186
f 82/83/185 78/78/187 79/77/186
f 83/82/188 85/84/189 84/85/190
f 82/83/191 83/82/192 84/85/193
f 88/86/194 87/87/195 86/88/196
f 87/87/197 89/89/198 86/88/199
f 72/72/154 90/90/200 73/73/201
f 90/90/202 91/91/203 73/73/204
f 93/92/205 92/93/206 89/89/207
f 90/90/202 92/93/208 91/91/209
f 92/93/210 86/88/211 89/89/212
f 92/93/213 93/92/214 91/91/215
f 70/70/216 94/94/217 69/71/218
f 70/70/219 95/95/220 94/94/221
f 75/75/222 96/96/223 76/76/224
f 95/95/225 96/96/226 94/94/227
f 96/96/228 95/95/229 76/76/230
f 98/97/231 97/98/232 87/87/197
f 97/98/232 98/97/231 99/99/233
f 88/86/234 98/97/235 87/87/197
f 85/84/236 99/99/237 100/100/238
f 84/85/239 85/84/236 100/100/238
f 98/97/235 100/100/238 99/99/237
