# Blender v3.6.5 OBJ File: ''
# www.blender.org
mtllib final.018.mtl
o final.018_final.088
v 181.427094 23.915365 199.373199
v 181.447403 23.873726 199.171997
v 181.453293 23.935165 199.189804
v 181.471893 23.998585 199.188705
v 181.471802 24.062065 199.362503
v 181.502808 24.064215 199.161499
v 181.540802 24.105446 199.112595
v 181.586594 24.234976 199.233093
v 181.665405 24.278805 199.106705
v 181.604996 24.109896 198.993896
v 181.728699 24.243114 198.969498
v 181.765701 24.180105 198.867905
v 181.627197 24.071335 198.930603
v 181.777893 24.079596 198.794403
v 181.634399 24.006435 198.886398
v 181.766006 23.934755 198.744095
v 181.610001 23.881525 198.869507
v 181.721100 23.788105 198.754807
v 181.577393 23.816046 198.895905
v 181.668900 23.683926 198.800507
v 181.540894 23.774315 198.945908
v 181.606201 23.615206 198.884094
v 181.527496 23.571384 199.010498
v 181.476700 23.769995 199.064697
v 181.464203 23.607075 199.147797
v 181.453003 23.808926 199.126801
v 181.414993 23.770575 199.322906
v 181.508606 23.948545 199.011993
v 181.575607 24.122095 199.053406
v 181.626907 23.945095 198.867599
v 181.504593 23.758156 199.003998
v 181.427200 23.670086 199.249298
v 181.428207 23.629326 199.449600
v 181.474792 23.474365 199.283707
v 181.443298 23.539455 199.375900
v 181.516998 23.425575 199.179504
v 181.585800 23.399225 199.036697
v 181.666504 23.434114 198.902100
v 181.728897 23.488905 198.811996
v 181.786804 23.559105 198.738205
v 181.837708 23.652765 198.689499
v 181.883896 23.761585 198.657196
v 181.924301 23.915516 198.658493
v 181.943604 24.068254 198.698898
v 181.939301 24.174185 198.760300
v 181.892700 24.329155 198.926193
v 181.850494 24.377945 199.030396
v 181.701096 24.369396 199.307800
v 181.638702 24.314625 199.397797
v 181.523895 24.166265 199.316696
v 181.529907 24.150755 199.520401
v 181.580704 24.244406 199.471695
v 181.483704 24.041925 199.552597
v 181.423904 23.735266 199.511002
v 181.443298 23.887995 199.551407
v 181.781799 24.404285 199.173203
v 181.924301 24.264065 198.834000
vt 0.115917 0.430928
vt 0.116777 0.435926
vt 0.101238 0.430971
vt 0.116770 0.425781
vt 0.104042 0.418783
vt 0.119951 0.420555
vt 0.118065 0.404664
vt 0.124849 0.417306
vt 0.130244 0.401342
vt 0.142445 0.404593
vt 0.135542 0.417195
vt 0.151001 0.410093
vt 0.140673 0.420511
vt 0.156579 0.418610
vt 0.143907 0.425822
vt 0.159459 0.430795
vt 0.156651 0.442997
vt 0.143929 0.435962
vt 0.140736 0.441197
vt 0.151127 0.451548
vt 0.135838 0.444482
vt 0.142605 0.457101
vt 0.130423 0.460427
vt 0.118224 0.457179
vt 0.125137 0.444554
vt 0.120014 0.441276
vt 0.104112 0.443144
vt 0.130345 0.430885
vt 0.130307 0.416154
vt 0.144776 0.430841
vt 0.130395 0.445615
vt 0.109684 0.451654
vt 0.093392 0.453939
vt 0.107468 0.467953
vt 0.099477 0.461902
vt 0.116945 0.472483
vt 0.130457 0.474944
vt 0.143957 0.472408
vt 0.153415 0.467831
vt 0.161380 0.461740
vt 0.167427 0.453739
vt 0.171944 0.444246
vt 0.173764 0.430752
vt 0.171863 0.417269
vt 0.167288 0.407803
vt 0.153190 0.393797
vt 0.143705 0.389278
vt 0.116695 0.389368
vt 0.107245 0.393954
vt 0.109560 0.410239
vt 0.093255 0.408051
vt 0.099291 0.400052
vt 0.088747 0.417537
vt 0.088827 0.444481
vt 0.086931 0.431014
vt 0.130190 0.386825
vt 0.161192 0.399839
vn -0.9588 0.2129 -0.1879
vn -0.9721 0.1148 -0.2046
vn -0.9818 0.1898 0.0119
vn -0.9818 0.1898 0.0120
vn -0.9341 0.3093 -0.1782
vn -0.9324 0.3615 -0.0054
vn -0.9341 0.3093 -0.1783
vn -0.8831 0.4099 -0.2284
vn -0.7685 0.6117 -0.1876
vn -0.8214 0.4826 -0.3041
vn -0.8831 0.4099 -0.2283
vn -0.7686 0.6117 -0.1876
vn -0.6704 0.6591 -0.3408
vn -0.8213 0.4826 -0.3041
vn -0.5972 0.6185 -0.5106
vn -0.7143 0.4903 -0.4994
vn -0.5973 0.6185 -0.5106
vn -0.5451 0.5295 -0.6499
vn -0.5452 0.5295 -0.6499
vn -0.6889 0.4175 -0.5925
vn -0.5272 0.3846 -0.7577
vn -0.5272 0.3847 -0.7577
vn -0.6710 0.3240 -0.6669
vn -0.6890 0.4175 -0.5925
vn -0.5353 0.2154 -0.8168
vn -0.6709 0.3240 -0.6670
vn -0.5353 0.2154 -0.8167
vn -0.5931 0.0459 -0.8038
vn -0.7088 0.1295 -0.6934
vn -0.7630 0.0350 -0.6454
vn -0.6684 -0.1047 -0.7364
vn -0.8186 -0.0456 -0.5726
vn -0.7569 -0.2010 -0.6218
vn -0.8483 -0.2536 -0.4648
vn -0.9297 -0.2143 -0.2997
vn -0.9249 -0.0498 -0.3768
vn -0.9592 0.0189 -0.2822
vn -0.9984 0.0227 -0.0516
vn -0.9591 0.0189 -0.2823
vn -0.8598 0.2296 -0.4561
vn -0.9592 0.0189 -0.2823
vn -0.7089 0.1295 -0.6934
vn -0.9249 -0.0499 -0.3768
vn -0.7630 0.0350 -0.6455
vn -0.7729 0.4932 -0.3992
vn -0.7730 0.4932 -0.3991
vn -0.7729 0.4932 -0.3991
vn -0.6902 0.2276 -0.6869
vn -0.8598 0.2296 -0.4562
vn -0.6902 0.2276 -0.6868
vn -0.8483 -0.2535 -0.4648
vn -0.8778 -0.0524 -0.4761
vn -0.9249 -0.0499 -0.3769
vn -0.9249 -0.0498 -0.3769
vn -0.8778 -0.0525 -0.4761
vn -0.9793 -0.1220 -0.1612
vn -0.9984 0.0228 -0.0516
vn -0.9296 -0.2143 -0.2997
vn -0.9793 -0.1220 -0.1613
vn -0.9794 -0.1220 -0.1612
vn -0.9948 -0.1018 0.0027
vn -0.9409 -0.2809 -0.1891
vn -0.9756 -0.2027 -0.0848
vn -0.8957 -0.3256 -0.3028
vn -0.8212 -0.3470 -0.4530
vn -0.7373 -0.3166 -0.5968
vn -0.8212 -0.3470 -0.4531
vn -0.8483 -0.2536 -0.4649
vn -0.6686 -0.2653 -0.6947
vn -0.6025 -0.1813 -0.7772
vn -0.5427 -0.0758 -0.8365
vn -0.4940 0.0586 -0.8675
vn -0.4461 0.2053 -0.8711
vn -0.4366 0.3531 -0.8275
vn -0.5451 0.5296 -0.6499
vn -0.4337 0.4833 -0.7605
vn -0.4876 0.6624 -0.5687
vn -0.5375 0.7084 -0.4575
vn -0.4876 0.6624 -0.5688
vn -0.6704 0.6591 -0.3409
vn -0.6958 0.6994 -0.1634
vn -0.7599 0.6469 -0.0634
vn -0.6958 0.6993 -0.1634
vn -0.8557 0.5120 -0.0750
vn -0.9324 0.3615 -0.0055
vn -0.8859 0.4572 0.0787
vn -0.8557 0.5120 -0.0749
vn -0.8263 0.5629 0.0193
vn -0.7599 0.6469 -0.0633
vn -0.9399 0.3243 0.1068
vn -0.9973 0.0298 0.0668
vn -0.9778 0.1749 0.1158
vn -0.6112 0.7296 -0.3068
vn -0.6959 0.6993 -0.1634
vn -0.4532 0.5843 -0.6732
usemtl m17.012
s off
f 3/1/1 2/2/2 1/3/3
f 1/3/4 4/4/5 3/1/1
f 1/3/3 5/5/6 4/4/7
f 5/5/6 6/6/8 4/4/7
f 8/7/9 7/8/10 6/6/11
f 8/7/12 9/9/13 7/8/14
f 9/9/13 11/10/15 10/11/16
f 11/10/17 12/12/18 10/11/16
f 12/12/19 13/13/20 10/11/16
f 12/12/18 14/14/21 13/13/20
f 14/14/22 15/15/23 13/13/24
f 14/14/22 16/16/25 15/15/26
f 16/16/27 18/17/28 17/18/29
f 18/17/28 19/19/30 17/18/29
f 18/17/28 20/20/31 19/19/30
f 20/20/31 21/21/32 19/19/30
f 20/20/31 22/22/33 21/21/32
f 22/22/33 23/23/34 21/21/32
f 23/23/34 25/24/35 24/25/36
f 25/24/35 26/26/37 24/25/36
f 27/27/38 2/2/2 26/26/39
f 2/2/2 27/27/38 1/3/3
f 28/28/40 3/1/1 4/4/7
f 28/28/40 4/4/7 6/6/8
f 28/28/40 6/6/8 7/8/14
f 28/28/40 2/2/2 3/1/1
f 28/28/40 26/26/41 2/2/2
f 28/28/40 13/13/20 15/15/26
f 19/19/30 28/28/40 17/18/42
f 28/28/40 24/25/43 26/26/39
f 21/21/32 28/28/40 19/19/44
f 28/28/40 10/11/16 13/13/20
f 9/9/13 29/29/45 7/8/10
f 9/9/13 10/11/16 29/29/45
f 29/29/46 28/28/40 7/8/14
f 28/28/40 29/29/47 10/11/16
f 16/16/27 30/30/48 15/15/26
f 30/30/48 28/28/49 15/15/26
f 17/18/29 28/28/40 30/30/48
f 16/16/27 17/18/42 30/30/50
f 23/23/51 31/31/52 21/21/32
f 23/23/51 24/25/53 31/31/52
f 28/28/40 31/31/52 24/25/54
f 31/31/55 28/28/40 21/21/32
f 32/32/56 27/27/57 26/26/41
f 25/24/58 32/32/59 26/26/37
f 32/32/60 33/33/61 27/27/38
f 25/24/35 34/34/62 32/32/56
f 34/34/62 35/35/63 32/32/56
f 32/32/60 35/35/63 33/33/61
f 25/24/35 36/36/64 34/34/62
f 23/23/34 36/36/64 25/24/58
f 23/23/34 37/37/65 36/36/64
f 38/38/66 23/23/34 22/22/33
f 38/38/66 37/37/67 23/23/68
f 39/39/69 38/38/66 22/22/33
f 39/39/69 22/22/33 20/20/31
f 40/40/70 39/39/69 20/20/31
f 41/41/71 40/40/70 20/20/31
f 41/41/71 20/20/31 18/17/28
f 42/42/72 41/41/71 18/17/28
f 42/42/72 18/17/28 16/16/27
f 43/43/73 42/42/72 16/16/27
f 43/43/73 16/16/27 44/44/74
f 16/16/27 14/14/21 44/44/74
f 12/12/75 45/45/76 14/14/22
f 14/14/22 45/45/76 44/44/74
f 11/10/17 46/46/77 12/12/18
f 11/10/17 47/47/78 46/46/79
f 9/9/80 47/47/78 11/10/17
f 9/9/13 8/7/9 48/48/81
f 8/7/12 49/49/82 48/48/83
f 50/50/84 49/49/82 8/7/9
f 5/5/85 50/50/84 6/6/8
f 50/50/84 8/7/9 6/6/8
f 5/5/6 51/51/86 50/50/87
f 51/51/86 52/52/88 50/50/84
f 50/50/84 52/52/88 49/49/89
f 1/3/3 53/53/90 5/5/6
f 5/5/6 53/53/90 51/51/86
f 27/27/38 33/33/61 54/54/91
f 27/27/38 54/54/91 1/3/3
f 54/54/91 55/55/92 1/3/4
f 1/3/3 55/55/92 53/53/90
f 56/56/93 9/9/13 48/48/94
f 9/9/13 56/56/93 47/47/78
f 46/46/77 57/57/95 12/12/75
f 12/12/18 57/57/95 45/45/76
