# Blender v3.6.5 OBJ File: ''
# www.blender.org
mtllib final.003.mtl
o final.003_final.073
v 181.693893 30.965425 196.143005
v 181.618103 30.967196 196.185501
v 181.634293 30.947216 196.200302
v 181.678696 30.985306 196.129700
v 181.929092 30.988125 195.990601
v 182.011795 30.986795 195.958206
v 182.008698 30.998856 195.948502
v 182.096100 30.988504 195.932098
v 182.095703 30.994474 195.926498
v 181.844498 30.985195 196.031693
v 181.923996 31.002625 195.978302
v 181.836700 31.002285 196.018600
v 181.570908 30.948885 196.235001
v 181.589706 30.929485 196.248199
v 181.435898 30.827166 196.416504
v 181.465897 30.849054 196.388504
v 181.457504 30.855215 196.385803
v 181.550293 30.908085 196.293793
v 181.501404 30.903635 196.321793
v 181.520706 30.888155 196.328796
v 181.529999 30.926216 196.283798
v 181.476196 30.878244 196.356995
v 181.490601 30.866436 196.362503
v 181.763107 30.978216 196.085800
v 181.751907 30.996695 196.072006
v 182.150208 30.991304 195.917999
v 181.724304 30.924295 196.170807
v 181.634293 30.947216 196.200302
v 181.668503 30.904455 196.231400
v 181.693893 30.965425 196.143005
v 181.941696 30.955956 196.021301
v 182.021301 30.956745 195.986893
v 181.929092 30.988125 195.990601
v 182.011795 30.986795 195.958206
v 182.101303 30.957506 195.961899
v 182.096100 30.988504 195.932098
v 181.844498 30.985195 196.031693
v 181.863297 30.951975 196.060593
v 181.589706 30.929485 196.248199
v 181.632004 30.887465 196.275208
v 181.511307 30.792625 196.450806
v 181.528900 30.811295 196.421005
v 181.496002 30.819605 196.417603
v 181.550293 30.908085 196.293793
v 181.596207 30.866495 196.323502
v 181.520706 30.888155 196.328796
v 181.571396 30.849316 196.357498
v 181.788406 30.942844 196.110794
v 181.763107 30.978216 196.085800
v 182.153793 30.959995 195.950806
v 182.150208 30.991304 195.917999
v 182.216293 30.967886 195.941193
v 182.214096 30.989056 195.916397
v 181.490601 30.866436 196.362503
v 181.551804 30.832756 196.385895
v 181.488205 30.845276 196.388107
v 182.289093 30.979795 195.927307
v 180.530106 31.163996 197.209595
v 180.577499 31.144745 197.139206
v 180.521805 31.182705 197.190002
v 180.587204 31.125875 197.160004
v 180.330597 31.273645 197.498993
v 180.368301 31.254435 197.421005
v 180.323502 31.286406 197.492996
v 180.299301 31.295095 197.578796
v 180.294998 31.301725 197.576797
v 180.359299 31.269596 197.412292
v 180.414001 31.229265 197.342697
v 180.404907 31.246574 197.330795
v 180.626007 31.110115 197.101105
v 180.634094 31.092525 197.123993
v 180.765701 30.968534 197.030304
v 180.791199 30.937164 197.007294
v 180.764694 30.973415 197.020706
v 180.672607 31.072506 197.069595
v 180.677597 31.056974 197.093597
v 180.707703 31.039045 197.049194
v 180.710403 31.026405 197.071503
v 180.739395 31.003965 197.032303
v 180.741592 30.994246 197.048996
v 180.471603 31.198586 197.269501
v 180.462204 31.216764 197.254105
v 180.282196 31.310036 197.630005
v 180.547806 31.125034 197.249100
v 180.587204 31.125875 197.160004
v 180.530106 31.163996 197.209595
v 180.607498 31.085476 197.203796
v 180.352493 31.241486 197.516403
v 180.391693 31.220425 197.441895
v 180.368301 31.254435 197.421005
v 180.322601 31.260996 197.592102
v 180.330597 31.273645 197.498993
v 180.299301 31.295095 197.578796
v 180.414001 31.229265 197.342697
v 180.434998 31.195675 197.369598
v 180.634094 31.092525 197.123993
v 180.649902 31.055035 197.175400
v 180.786194 30.938015 197.101593
v 180.813293 30.911726 197.090607
v 180.786697 30.940636 197.067703
v 180.677597 31.056974 197.093597
v 180.695999 31.020105 197.148605
v 180.710403 31.026405 197.071503
v 180.727905 30.993235 197.130600
v 180.487793 31.164745 197.302795
v 180.471603 31.198586 197.269501
v 180.308502 31.274866 197.642105
v 180.282196 31.310036 197.630005
v 180.296097 31.295515 197.701004
v 180.275803 31.319775 197.692902
v 180.741592 30.994246 197.048996
v 180.754105 30.968855 197.117004
v 180.763000 30.969006 197.052704
v 180.279495 31.322685 197.769104
vt 0.268917 0.009576
vt 0.268161 0.005132
vt 0.256078 0.010481
vt 0.255388 0.006232
vt 0.202224 0.027592
vt 0.203460 0.029644
vt 0.215243 0.023081
vt 0.191106 0.035508
vt 0.191908 0.036462
vt 0.226989 0.014025
vt 0.213856 0.020435
vt 0.228291 0.017246
vt 0.278911 0.005040
vt 0.279223 0.009595
vt 0.310313 0.011400
vt 0.310007 0.013017
vt 0.317043 0.013715
vt 0.296445 0.011330
vt 0.296994 0.007459
vt 0.288909 0.010353
vt 0.289142 0.005952
vt 0.304360 0.009397
vt 0.303991 0.012328
vt 0.242522 0.012891
vt 0.241423 0.009150
vt 0.184627 0.040842
vt 0.273932 0.032432
vt 0.272331 0.023000
vt 0.261062 0.032606
vt 0.259492 0.023906
vt 0.218656 0.036505
vt 0.210164 0.048647
vt 0.221936 0.042719
vt 0.206873 0.043068
vt 0.195321 0.049886
vt 0.199239 0.055180
vt 0.231704 0.030671
vt 0.234222 0.037494
vt 0.282636 0.023019
vt 0.282950 0.032964
vt 0.314613 0.034088
vt 0.311920 0.038496
vt 0.317620 0.040297
vt 0.292323 0.023778
vt 0.292532 0.034219
vt 0.299859 0.024755
vt 0.299334 0.035380
vt 0.247481 0.033771
vt 0.245935 0.026315
vt 0.192395 0.059639
vt 0.188040 0.054267
vt 0.184229 0.064818
vt 0.181046 0.061011
vt 0.307405 0.025753
vt 0.305011 0.036674
vt 0.311242 0.029045
vt 0.174300 0.070454
vt 0.255388 0.006232
vt 0.268161 0.005132
vt 0.256078 0.010481
vt 0.268917 0.009576
vt 0.202224 0.027592
vt 0.215243 0.023081
vt 0.203460 0.029644
vt 0.191106 0.035508
vt 0.191908 0.036462
vt 0.213856 0.020435
vt 0.228291 0.017246
vt 0.226989 0.014025
vt 0.278911 0.005040
vt 0.279223 0.009595
vt 0.310313 0.011400
vt 0.317043 0.013715
vt 0.310007 0.013017
vt 0.289142 0.005952
vt 0.288909 0.010353
vt 0.296994 0.007459
vt 0.296445 0.011330
vt 0.304360 0.009397
vt 0.303991 0.012328
vt 0.242522 0.012891
vt 0.241423 0.009150
vt 0.184627 0.040842
vt 0.259492 0.023906
vt 0.272331 0.023000
vt 0.261062 0.032606
vt 0.273932 0.032432
vt 0.218656 0.036505
vt 0.221936 0.042719
vt 0.210164 0.048647
vt 0.195321 0.049886
vt 0.206873 0.043068
vt 0.199239 0.055180
vt 0.231704 0.030671
vt 0.234222 0.037494
vt 0.282636 0.023019
vt 0.282950 0.032964
vt 0.314613 0.034088
vt 0.317620 0.040297
vt 0.311920 0.038496
vt 0.292323 0.023778
vt 0.292532 0.034219
vt 0.299859 0.024755
vt 0.299334 0.035380
vt 0.245935 0.026315
vt 0.247481 0.033771
vt 0.192395 0.059639
vt 0.188040 0.054267
vt 0.184229 0.064818
vt 0.181046 0.061011
vt 0.307405 0.025753
vt 0.305011 0.036674
vt 0.311242 0.029045
vt 0.174300 0.070454
vn -0.3623 -0.7165 -0.5961
vn -0.3518 -0.7171 -0.6017
vn -0.3727 -0.7018 -0.6071
vn -0.3518 -0.7172 -0.6016
vn -0.3674 -0.7014 -0.6107
vn -0.3727 -0.7019 -0.6070
vn -0.2440 -0.6536 -0.7165
vn -0.2287 -0.6927 -0.6840
vn -0.2852 -0.7015 -0.6531
vn -0.2025 -0.6618 -0.7218
vn -0.1769 -0.6992 -0.6927
vn -0.2440 -0.6537 -0.7163
vn -0.1768 -0.6987 -0.6932
vn -0.2286 -0.6924 -0.6843
vn -0.2439 -0.6533 -0.7168
vn -0.3380 -0.6738 -0.6571
vn -0.2969 -0.6706 -0.6799
vn -0.3225 -0.6986 -0.6387
vn -0.2970 -0.6708 -0.6796
vn -0.3226 -0.6988 -0.6384
vn -0.2439 -0.6533 -0.7167
vn -0.2852 -0.7013 -0.6533
vn -0.2969 -0.6706 -0.6798
vn -0.3359 -0.7241 -0.6024
vn -0.3624 -0.7166 -0.5960
vn -0.3375 -0.7296 -0.5948
vn -0.2571 -0.6551 -0.7104
vn -0.2561 -0.6551 -0.7108
vn -0.2249 -0.6351 -0.7390
vn -0.2505 -0.7343 -0.6309
vn -0.2996 -0.6835 -0.6657
vn -0.3032 -0.7337 -0.6081
vn -0.3360 -0.7241 -0.6023
vn -0.3375 -0.7296 -0.5947
vn -0.3195 -0.7096 -0.6280
vn -0.3195 -0.7095 -0.6281
vn -0.2996 -0.6834 -0.6657
vn -0.3195 -0.7095 -0.6282
vn -0.2505 -0.7344 -0.6309
vn -0.2806 -0.6664 -0.6907
vn -0.2210 -0.7279 -0.6490
vn -0.2565 -0.6546 -0.7111
vn -0.2571 -0.6550 -0.7105
vn -0.2210 -0.7279 -0.6491
vn -0.2806 -0.6664 -0.6908
vn -0.3632 -0.6954 -0.6201
vn -0.3673 -0.7014 -0.6108
vn -0.3632 -0.6955 -0.6200
vn -0.3701 -0.6858 -0.6267
vn -0.3226 -0.6987 -0.6386
vn -0.3381 -0.6740 -0.6569
vn -0.3226 -0.6987 -0.6385
vn -0.3674 -0.7015 -0.6107
vn -0.0764 -0.7277 -0.6816
vn -0.1768 -0.6989 -0.6931
vn -0.2024 -0.6615 -0.7221
vn -0.3662 -0.7171 -0.5929
vn -0.3625 -0.7165 -0.5960
vn -0.3757 -0.7028 -0.6041
vn -0.3625 -0.7166 -0.5959
vn -0.3727 -0.7020 -0.6069
vn -0.3758 -0.7028 -0.6041
vn -0.2851 -0.7014 -0.6532
vn -0.2250 -0.7064 -0.6711
vn -0.2793 -0.7174 -0.6383
vn -0.2286 -0.6925 -0.6843
vn -0.2250 -0.7064 -0.6712
vn -0.2851 -0.7014 -0.6533
vn -0.1766 -0.6990 -0.6930
vn -0.1741 -0.7069 -0.6855
vn -0.2287 -0.6926 -0.6841
vn -0.1741 -0.7068 -0.6856
vn -0.2286 -0.6925 -0.6842
vn -0.2792 -0.7173 -0.6383
vn -0.3225 -0.6987 -0.6386
vn -0.2793 -0.7174 -0.6382
vn -0.3140 -0.7117 -0.6284
vn -0.3663 -0.7171 -0.5929
vn -0.3367 -0.7335 -0.5904
vn -0.3662 -0.7171 -0.5930
vn -0.1345 -0.7774 -0.6144
vn -0.1597 -0.7867 -0.5963
vn -0.1432 -0.7992 -0.5838
vn -0.3376 -0.7296 -0.5948
vn -0.3367 -0.7336 -0.5903
vn -0.3033 -0.7337 -0.6080
vn -0.2904 -0.7458 -0.5995
vn -0.2904 -0.7458 -0.5996
vn -0.2266 -0.7537 -0.6170
vn -0.3591 -0.7007 -0.6165
vn -0.3757 -0.7027 -0.6041
vn -0.3141 -0.7117 -0.6284
vn -0.3591 -0.7007 -0.6164
vn -0.3632 -0.6955 -0.6199
vn -0.1766 -0.6989 -0.6930
vn -0.0802 -0.7267 -0.6823
vn -0.1766 -0.6989 -0.6931
vn -0.0759 -0.7277 -0.6817
vn -0.0801 -0.7266 -0.6823
vn -0.0760 -0.7277 -0.6817
vn -0.0188 -0.7463 -0.6653
vn -0.0760 -0.7276 -0.6818
vn -0.0189 -0.7462 -0.6655
vn -0.0187 -0.7462 -0.6654
vn -0.2505 -0.7344 -0.6308
vn -0.2211 -0.7280 -0.6490
vn -0.2266 -0.7536 -0.6170
vn -0.1914 -0.7617 -0.6190
vn -0.2211 -0.7279 -0.6490
vn -0.1672 -0.7642 -0.6230
vn -0.1597 -0.7866 -0.5965
vn -0.1345 -0.7773 -0.6146
vn -0.1672 -0.7643 -0.6228
vn -0.1914 -0.7618 -0.6189
vn -0.1672 -0.7643 -0.6229
vn -0.2211 -0.7280 -0.6489
vn -0.0189 -0.7462 -0.6654
vn 0.0000 -0.7605 -0.6494
vn -0.7013 -0.6444 -0.3047
vn -0.6963 -0.6584 -0.2859
vn -0.6974 -0.6464 -0.3095
vn -0.6962 -0.6584 -0.2859
vn -0.6899 -0.6607 -0.2958
vn -0.8050 -0.5576 -0.2025
vn -0.7487 -0.6224 -0.2283
vn -0.7814 -0.5982 -0.1776
vn -0.8149 -0.5570 -0.1606
vn -0.7950 -0.5933 -0.1264
vn -0.8050 -0.5577 -0.2024
vn -0.7950 -0.5933 -0.1263
vn -0.7683 -0.5903 -0.2477
vn -0.7487 -0.6224 -0.2284
vn -0.7487 -0.6224 -0.2282
vn -0.7683 -0.5903 -0.2475
vn -0.7312 -0.6290 -0.2639
vn -0.7683 -0.5903 -0.2476
vn -0.7436 -0.6047 -0.2851
vn -0.6900 -0.6607 -0.2957
vn -0.6963 -0.6585 -0.2857
vn -0.6995 -0.6620 -0.2692
vn -0.6929 -0.6689 -0.2690
vn -0.7984 -0.5627 -0.2143
vn -0.8250 -0.5326 -0.1889
vn -0.7989 -0.5621 -0.2138
vn -0.7232 -0.6406 -0.2580
vn -0.7232 -0.6406 -0.2581
vn -0.7090 -0.6645 -0.2361
vn -0.6929 -0.6689 -0.2691
vn -0.7232 -0.6407 -0.2581
vn -0.7566 -0.6055 -0.2467
vn -0.7091 -0.6645 -0.2361
vn -0.7566 -0.6055 -0.2468
vn -0.7352 -0.6516 -0.1866
vn -0.7353 -0.6516 -0.1865
vn -0.7566 -0.6054 -0.2470
vn -0.7794 -0.5814 -0.2335
vn -0.7984 -0.5627 -0.2145
vn -0.7989 -0.5621 -0.2140
vn -0.7539 -0.6370 -0.1606
vn -0.7539 -0.6371 -0.1606
vn -0.7794 -0.5814 -0.2336
vn -0.6974 -0.6464 -0.3096
vn -0.7095 -0.6364 -0.3027
vn -0.7013 -0.6444 -0.3048
vn -0.7312 -0.6290 -0.2640
vn -0.7436 -0.6047 -0.2852
vn -0.7138 -0.6272 -0.3116
vn -0.7095 -0.6365 -0.3025
vn -0.7138 -0.6272 -0.3115
vn -0.7013 -0.6445 -0.3047
vn -0.7095 -0.6364 -0.3026
vn -0.7312 -0.6290 -0.2641
vn -0.7961 -0.6047 -0.0219
vn -0.8148 -0.5569 -0.1608
vn -0.7949 -0.5934 -0.1266
vn -0.6973 -0.6465 -0.3095
vn -0.6899 -0.6606 -0.2959
vn -0.6944 -0.6484 -0.3120
vn -0.6900 -0.6606 -0.2958
vn -0.6868 -0.6624 -0.2992
vn -0.7487 -0.6223 -0.2283
vn -0.7374 -0.6392 -0.2185
vn -0.7713 -0.6132 -0.1703
vn -0.7949 -0.5934 -0.1264
vn -0.7892 -0.6019 -0.1219
vn -0.7242 -0.6417 -0.2524
vn -0.6929 -0.6689 -0.2692
vn -0.6893 -0.6734 -0.2672
vn -0.7353 -0.6747 -0.0641
vn -0.7085 -0.7026 -0.0658
vn -0.7172 -0.6916 -0.0855
vn -0.7090 -0.6644 -0.2362
vn -0.6893 -0.6733 -0.2672
vn -0.7038 -0.6752 -0.2207
vn -0.7038 -0.6752 -0.2206
vn -0.7091 -0.6644 -0.2361
vn -0.7352 -0.6516 -0.1865
vn -0.7268 -0.6683 -0.1585
vn -0.7095 -0.6364 -0.3025
vn -0.7074 -0.6413 -0.2973
vn -0.7242 -0.6417 -0.2526
vn -0.6973 -0.6465 -0.3094
vn -0.7074 -0.6413 -0.2972
vn -0.6973 -0.6466 -0.3094
vn -0.7962 -0.6044 -0.0261
vn -0.7962 -0.6044 -0.0260
vn -0.7960 -0.6048 -0.0217
vn -0.7875 -0.6151 0.0392
vn -0.7960 -0.6049 -0.0218
vn -0.7875 -0.6151 0.0390
vn -0.7539 -0.6370 -0.1608
vn -0.7268 -0.6683 -0.1586
vn -0.7539 -0.6370 -0.1607
vn -0.7327 -0.6694 -0.1229
vn -0.7387 -0.6667 -0.0991
vn -0.7353 -0.6747 -0.0640
vn -0.7172 -0.6916 -0.0854
vn -0.7387 -0.6667 -0.0992
vn -0.7173 -0.6916 -0.0854
vn -0.7327 -0.6694 -0.1228
vn -0.7874 -0.6151 0.0391
vn -0.7756 -0.6282 0.0614
vn -0.7875 -0.6150 0.0389
usemtl m2.012
s off
f 3/1/1 2/2/2 1/3/3
f 2/2/4 4/4/5 1/3/6
f 7/5/7 6/6/8 5/7/9
f 9/8/10 8/9/11 7/5/12
f 8/9/13 6/6/14 7/5/15
f 12/10/16 11/11/17 10/12/18
f 11/11/19 5/7/9 10/12/20
f 7/5/21 5/7/22 11/11/23
f 13/13/24 2/2/4 3/1/25
f 14/14/26 13/13/24 3/1/25
f 17/15/27 16/16/28 15/17/29
f 20/18/30 19/19/31 18/20/32
f 13/13/33 14/14/34 21/21/35
f 14/14/26 18/20/32 21/21/36
f 19/19/37 21/21/38 18/20/32
f 19/19/31 20/18/39 22/22/40
f 23/23/41 16/16/42 17/15/43
f 20/18/30 23/23/44 22/22/45
f 22/22/45 23/23/41 17/15/43
f 24/24/46 1/3/3 4/4/47
f 24/24/48 25/25/49 10/12/50
f 25/25/49 12/10/51 10/12/52
f 25/25/49 24/24/48 4/4/53
f 26/26/54 8/9/55 9/8/56
f 29/27/57 28/28/58 27/29/59
f 28/28/60 30/30/61 27/29/62
f 33/31/63 32/32/64 31/33/65
f 34/34/66 32/32/67 33/31/68
f 36/35/69 35/36/70 34/34/71
f 35/36/72 32/32/64 34/34/73
f 33/31/63 31/33/74 37/37/75
f 31/33/76 38/38/77 37/37/50
f 39/39/26 28/28/58 29/27/78
f 40/40/79 39/39/26 29/27/80
f 43/41/81 42/42/82 41/43/83
f 39/39/84 40/40/85 44/44/86
f 40/40/79 45/45/87 44/44/86
f 44/44/86 45/45/87 46/46/30
f 45/45/88 47/47/89 46/46/30
f 48/48/90 27/29/91 30/30/6
f 38/38/92 48/48/93 37/37/52
f 49/49/94 48/48/90 30/30/61
f 48/48/90 49/49/94 37/37/75
f 35/36/70 36/35/95 50/50/96
f 36/35/97 51/51/98 50/50/99
f 50/50/99 51/51/100 52/52/101
f 51/51/102 53/53/103 52/52/104
f 46/46/105 47/47/89 54/54/106
f 47/47/107 55/55/108 54/54/109
f 56/56/110 42/42/111 43/41/112
f 56/56/113 55/55/114 42/42/82
f 55/55/114 56/56/115 54/54/116
f 52/52/101 53/53/117 57/57/118
f 60/58/119 59/59/120 58/60/121
f 59/59/122 61/61/123 58/60/121
f 64/62/124 63/63/125 62/64/126
f 66/65/127 64/62/124 65/66/128
f 64/62/129 62/64/126 65/66/130
f 64/62/124 67/67/131 63/63/132
f 63/63/133 67/67/134 68/68/135
f 67/67/136 69/69/137 68/68/135
f 61/61/138 59/59/139 70/70/140
f 71/71/141 61/61/138 70/70/140
f 74/72/142 73/73/143 72/74/144
f 70/70/140 75/75/145 71/71/141
f 75/75/146 76/76/147 71/71/148
f 75/75/149 77/77/150 76/76/151
f 77/77/152 78/78/153 76/76/147
f 78/78/154 77/77/155 79/79/156
f 74/72/157 72/74/158 80/80/159
f 79/79/156 74/72/157 80/80/160
f 80/80/160 78/78/153 79/79/161
f 58/60/162 81/81/163 60/58/164
f 68/68/165 69/69/166 82/82/167
f 81/81/168 82/82/169 60/58/170
f 81/81/171 68/68/172 82/82/167
f 83/83/173 66/65/174 65/66/175
f 86/84/176 85/85/177 84/86/178
f 85/85/179 87/87/180 84/86/178
f 90/88/181 89/89/182 88/90/183
f 93/91/184 92/92/126 91/93/185
f 92/92/126 88/90/183 91/93/185
f 92/92/126 90/88/181 88/90/183
f 90/88/181 94/94/165 89/89/182
f 94/94/165 95/95/186 89/89/182
f 87/87/180 85/85/123 96/96/187
f 97/97/188 87/87/180 96/96/148
f 100/98/189 99/99/190 98/100/191
f 96/96/187 101/101/192 97/97/193
f 101/101/192 102/102/194 97/97/188
f 102/102/195 101/101/196 103/103/197
f 104/104/198 102/102/194 103/103/153
f 106/105/199 105/106/200 94/94/165
f 105/106/200 95/95/201 94/94/172
f 84/86/178 105/106/200 86/84/202
f 105/106/203 106/105/168 86/84/204
f 91/93/185 107/107/205 93/91/184
f 107/107/206 108/108/207 93/91/184
f 107/107/206 109/109/208 108/108/209
f 109/109/208 110/110/210 108/108/209
f 103/103/153 111/111/211 104/104/212
f 111/111/213 112/112/214 104/104/198
f 113/113/215 100/98/216 98/100/217
f 113/113/218 98/100/219 112/112/214
f 112/112/220 111/111/159 113/113/215
f 109/109/221 114/114/222 110/110/223
