# Blender v3.6.5 OBJ File: ''
# www.blender.org
mtllib final.025.mtl
o final.025_final.095
v 185.741898 23.829006 201.407898
v 185.627197 23.824594 201.564301
v 184.997498 24.320595 200.987595
v 185.312195 23.901606 201.809998
v 185.190002 23.950205 201.868607
v 184.997498 24.320595 200.987595
v 185.004807 24.329765 200.996704
v 185.273102 23.815765 201.787201
v 184.798798 24.373955 201.141006
v 185.553497 24.042925 200.884094
v 185.667297 23.765675 201.395493
v 185.004807 24.329765 200.996704
v 185.214706 24.265015 200.841003
v 186.370499 19.298534 208.800095
v 186.090805 19.036036 209.330994
v 186.228607 19.370316 208.870407
v 190.829102 16.490475 206.405396
v 190.401901 16.953054 206.774002
v 190.825195 16.779675 206.076202
v 190.436096 17.330315 206.245804
v 189.927399 17.339615 207.252396
v 189.983795 17.977316 206.325699
v 191.253006 16.152876 205.881607
v 188.582306 18.557255 208.476898
v 188.192001 18.358446 209.191696
v 187.915497 18.728876 209.098297
v 187.614807 18.182276 210.148102
v 186.335403 19.728586 208.416901
v 186.626694 19.567245 208.291702
v 186.840393 19.867836 207.784698
v 185.278793 21.474174 205.858704
v 185.137802 21.655766 205.727798
v 185.860596 21.542295 205.223099
v 186.043198 20.792696 206.159393
v 185.857803 20.938425 206.110397
v 185.945801 21.121895 205.744797
v 185.892807 21.346004 205.469604
v 185.448898 21.288626 205.970993
v 185.643204 21.103355 206.063705
v 185.023697 21.847586 205.567505
v 184.976700 22.091225 205.309097
v 185.018097 22.065655 205.263901
v 184.960907 22.284426 205.052597
v 185.031906 22.240366 204.995605
v 185.836304 21.741955 204.967194
v 188.725693 21.691635 201.154007
v 188.841797 21.488785 201.337601
v 188.286102 21.611376 202.027206
v 189.152206 20.704136 202.256393
v 189.171204 20.472105 202.649597
v 188.776901 20.976475 202.320496
v 188.557007 21.272085 202.151306
v 188.954605 21.274046 201.541306
v 189.061493 20.996006 201.870407
v 188.083298 21.861546 201.968307
v 188.432693 22.083944 200.963394
v 188.585297 21.893545 201.028503
v 188.247299 22.233406 201.031204
v 188.289001 22.272366 200.992493
v 185.816299 22.007185 204.610199
v 185.105392 22.602066 204.368393
v 185.839203 21.993456 205.706696
v 185.735306 22.392666 205.046204
v 187.115402 21.668976 204.815308
v 186.999893 20.926805 206.247406
v 186.222504 20.971725 207.070602
v 186.035095 21.482635 206.446899
v 186.781799 21.318886 205.797699
v 187.537598 21.204935 205.202194
v 186.978897 20.192696 207.300400
v 186.381699 20.112505 207.977905
v 187.907104 20.764025 205.532196
v 187.315994 20.443405 206.650696
v 190.293900 18.511724 203.652100
v 189.694504 19.380665 203.798492
v 189.966599 19.262455 203.447098
v 188.845200 21.000906 203.580704
v 189.377197 20.757996 202.836594
v 189.145203 20.441965 203.740997
v 189.592896 20.271706 203.073196
v 188.214996 21.136286 204.707901
v 187.986099 21.628885 204.042007
v 189.002808 21.362816 202.506104
v 189.779800 19.760185 203.283798
v 189.416504 19.890224 203.813599
v 189.296295 20.426716 204.162796
v 189.600998 18.511526 206.305603
v 189.138306 18.102806 207.683395
v 188.799698 18.465256 207.721603
v 187.704300 22.031876 203.572693
v 189.522598 17.719496 207.529404
v 189.227905 19.059475 206.229401
v 188.098694 19.302216 207.500900
v 188.825500 19.628706 206.092300
v 187.662094 19.946896 207.084702
v 188.255600 20.323725 205.831100
v 188.101807 19.116936 208.348099
v 188.225800 19.470875 207.676605
v 188.854401 18.756275 207.880798
v 188.332397 19.911036 206.803101
v 188.405899 20.376255 205.933899
v 189.508896 19.423996 205.805603
v 189.369797 19.223635 206.373093
v 185.894897 23.169855 203.062103
v 186.151505 22.824175 203.545303
v 185.468994 23.318396 203.332397
v 185.313904 23.683996 202.502304
v 185.567703 23.584764 202.369995
v 187.569000 22.735506 202.010895
v 187.040405 22.744635 202.786606
v 187.067398 23.071636 201.881805
v 186.654297 23.073496 202.425201
v 186.429794 23.445274 201.681702
v 186.151093 23.454985 202.005096
v 184.742599 23.672785 202.682495
v 184.789093 23.965315 201.990906
v 185.482697 23.461136 202.346695
v 185.179703 23.181545 203.302094
v 185.654495 23.023876 203.095901
v 185.733093 22.626976 203.726303
v 185.160797 22.872675 203.880997
v 185.769196 22.328146 204.182205
v 185.996201 23.810566 200.887802
v 186.462204 23.384106 201.297501
v 186.611694 23.504385 200.792404
v 187.136795 23.141954 201.015396
v 187.127304 23.271585 200.624802
v 187.073303 23.024244 201.351395
v 187.621094 22.734356 201.203995
v 187.604797 22.711744 201.211899
v 188.173798 22.375046 201.016403
v 188.114304 22.331936 201.065399
v 188.205795 22.440016 201.005402
v 187.651001 22.921326 200.844101
v 187.555206 23.090395 200.417496
v 187.982895 22.851116 200.463303
v 188.148193 22.646776 200.744202
v 187.863800 22.105515 201.933594
v 187.459793 22.486734 201.885193
v 186.948502 22.886915 201.825104
v 187.779602 23.007795 200.260696
v 186.305099 23.313875 201.669006
v 185.114304 22.656275 204.394104
v 184.771194 22.468746 205.005707
v 184.543396 22.675926 204.836700
v 184.370895 22.874395 204.631104
v 184.475403 22.962406 204.382202
v 184.583893 23.118734 203.996902
v 184.675903 23.342556 203.475998
v 184.947693 22.357904 205.071503
v 189.568497 19.698015 205.232697
v 189.264206 19.007015 206.874603
v 189.087799 18.855394 207.377197
v 187.027695 20.538475 206.814896
v 186.343903 20.521055 207.552505
v 186.750397 22.070974 204.399002
v 186.425201 22.465654 203.974701
v 185.585098 23.004385 203.929306
v 185.687698 22.714905 204.438095
v 188.327499 20.783245 205.237305
v 187.373199 22.419405 203.138306
v 188.102097 22.343204 202.071106
v 188.576508 21.880054 202.243500
v 189.491394 20.050476 204.667999
vt 0.794527 0.446300
vt 0.809059 0.422797
vt 0.813290 0.426120
vt 0.919209 0.292584
vt 0.922745 0.264773
vt 0.918661 0.264571
vt 0.324862 0.967188
vt 0.347272 0.958167
vt 0.322884 0.960868
vt 0.360891 0.992489
vt 0.336618 0.996185
vt 0.346745 0.984994
vt 0.357127 0.986859
vt 0.946377 0.024342
vt 0.952506 0.008888
vt 0.941466 0.023852
vt 0.774525 0.014501
vt 0.796292 0.005151
vt 0.775799 0.002124
vt 0.792264 0.023161
vt 0.818339 0.004574
vt 0.810982 0.035695
vt 0.754557 0.004702
vt 0.844846 0.163109
vt 0.854718 0.154530
vt 0.868473 0.173273
vt 0.833926 0.131049
vt 0.941292 0.040236
vt 0.931330 0.038572
vt 0.922502 0.054030
vt 0.450367 0.956832
vt 0.457014 0.977789
vt 0.462592 0.974369
vt 0.467051 0.956034
vt 0.476771 0.959587
vt 0.480305 0.954793
vt 0.458198 0.956649
vt 0.467930 0.970124
vt 0.472931 0.965191
vt 0.450760 0.980456
vt 0.441538 0.979749
vt 0.441944 0.981343
vt 0.433985 0.981062
vt 0.433699 0.978571
vt 0.442320 0.956787
vt 0.248756 0.989431
vt 0.240409 0.968260
vt 0.246996 0.964528
vt 0.227358 0.993346
vt 0.209796 0.998598
vt 0.216284 0.988937
vt 0.237331 0.990685
vt 0.233564 0.972533
vt 0.225052 0.979974
vt 0.257085 0.989293
vt 0.253697 0.962389
vt 0.260109 0.961813
vt 0.265688 0.964761
vt 0.266033 0.963039
vt 0.431323 0.956307
vt 0.416227 0.974452
vt 0.894171 0.149058
vt 0.936369 0.163904
vt 0.938750 0.141925
vt 0.938999 0.115792
vt 0.937949 0.092316
vt 0.908588 0.105466
vt 0.911522 0.123262
vt 0.884924 0.130284
vt 0.938050 0.056525
vt 0.915958 0.069738
vt 0.876448 0.113471
vt 0.901956 0.086597
vt 0.947101 0.296895
vt 0.935752 0.291080
vt 0.963050 0.279756
vt 0.908669 0.310253
vt 0.919074 0.335531
vt 0.895923 0.323168
vt 0.928109 0.322149
vt 0.863767 0.323973
vt 0.867935 0.300509
vt 0.906332 0.353161
vt 0.937411 0.308895
vt 0.921938 0.299357
vt 0.906851 0.299689
vt 0.862673 0.020781
vt 0.850670 0.013337
vt 0.825187 0.047807
vt 0.857488 0.341746
vt 0.835671 0.007706
vt 0.838481 0.061304
vt 0.884095 0.044043
vt 0.851653 0.076582
vt 0.894876 0.066672
vt 0.868095 0.097460
vt 0.878347 0.189497
vt 0.857476 0.206615
vt 0.852054 0.185987
vt 0.906601 0.245948
vt 0.868604 0.260163
vt 0.863591 0.233208
vt 0.899976 0.230149
vt 0.929138 0.219264
vt 0.911227 0.202292
vt 0.914253 0.220415
vt 0.925507 0.245137
vt 0.916906 0.244994
vt 0.848249 0.398843
vt 0.842083 0.372862
vt 0.862376 0.389169
vt 0.831108 0.411376
vt 0.833036 0.387573
vt 0.821167 0.404939
vt 0.364279 0.955725
vt 0.347753 0.971662
vt 0.365741 0.976440
vt 0.386637 0.968497
vt 0.386116 0.955114
vt 0.404558 0.955755
vt 0.402639 0.971577
vt 0.418015 0.956292
vt 0.316305 0.986285
vt 0.334701 0.980865
vt 0.318980 0.972801
vt 0.301763 0.973127
vt 0.306866 0.963966
vt 0.298708 0.981822
vt 0.284870 0.973217
vt 0.284590 0.973903
vt 0.269764 0.964367
vt 0.269594 0.966602
vt 0.270811 0.962836
vt 0.289886 0.964130
vt 0.297566 0.954979
vt 0.285431 0.951923
vt 0.277074 0.956984
vt 0.265449 0.989904
vt 0.279462 0.991664
vt 0.295702 0.994452
vt 0.293259 0.949116
vt 0.315554 0.996675
vt 0.415737 0.975848
vt 0.422615 0.992198
vt 0.429662 0.986994
vt 0.415080 0.995714
vt 0.409118 0.991906
vt 0.399514 0.987156
vt 0.386248 0.982242
vt 0.433070 0.982748
vt 0.910584 0.263180
vt 0.895023 0.215537
vt 0.887656 0.202059
vt 0.911700 0.086176
vt 0.937186 0.073282
vt 0.901144 0.167188
vt 0.931178 0.199941
vt 0.906991 0.185126
vt 0.932635 0.183131
vt 0.869210 0.282632
vt 0.878555 0.380336
vt 0.849903 0.358702
vt 0.893085 0.368100
vt 0.910482 0.281764
vn 0.6500 0.2135 0.7293
vn 0.6783 0.2085 0.7046
vn 0.6990 0.2088 0.6839
vn 0.6501 0.2135 0.7292
vn 0.6028 0.2087 0.7701
vn 0.6252 0.2086 0.7521
vn 0.6181 0.2135 0.7566
vn 0.6240 0.2085 0.7531
vn 0.6501 0.2134 0.7293
vn 0.6947 0.2089 0.6883
vn 0.7166 0.2117 0.6646
vn 0.7166 0.2117 0.6645
vn 0.6875 0.2133 0.6941
vn 0.2594 0.0996 0.9606
vn 0.2184 0.0934 0.9714
vn 0.2760 0.0982 0.9561
vn 0.8856 0.0732 0.4587
vn 0.8146 0.0663 0.5763
vn 0.8766 0.0673 0.4766
vn 0.8146 0.0662 0.5762
vn 0.8856 0.0733 0.4586
vn 0.8451 0.0764 0.5292
vn 0.7478 0.0656 0.6607
vn 0.8146 0.0662 0.5763
vn 0.8450 0.0764 0.5292
vn 0.7999 0.0829 0.5944
vn 0.9232 0.0716 0.3776
vn 0.4323 0.0747 0.8986
vn 0.4524 0.0678 0.8892
vn 0.5326 0.0734 0.8432
vn 0.4324 0.0747 0.8986
vn 0.3407 0.0644 0.9380
vn 0.2760 0.0981 0.9561
vn 0.3004 0.1062 0.9479
vn 0.2593 0.0996 0.9606
vn 0.3353 0.1031 0.9364
vn 0.3003 0.1063 0.9479
vn 0.3920 0.1096 0.9134
vn 0.4435 0.1664 0.8807
vn 0.3204 0.1678 0.9323
vn 0.3270 0.1639 0.9307
vn 0.4116 0.1557 0.8980
vn 0.3803 0.1504 0.9126
vn 0.3964 0.1466 0.9063
vn 0.3269 0.1639 0.9307
vn 0.4310 0.1619 0.8877
vn 0.3382 0.1592 0.9275
vn 0.4311 0.1619 0.8877
vn 0.3600 0.1544 0.9201
vn 0.3601 0.1544 0.9201
vn 0.3188 0.1718 0.9321
vn 0.3205 0.1678 0.9323
vn 0.3374 0.1766 0.9246
vn 0.3308 0.1767 0.9270
vn 0.3504 0.1804 0.9190
vn 0.3309 0.1766 0.9270
vn 0.3504 0.1805 0.9191
vn 0.3616 0.1803 0.9147
vn 0.4570 0.1709 0.8729
vn 0.3189 0.1718 0.9321
vn 0.8791 0.1839 0.4397
vn 0.9320 0.1867 0.3108
vn 0.9316 0.1900 0.3098
vn 0.9010 0.1737 0.3974
vn 0.9102 0.1636 0.3806
vn 0.9198 0.1703 0.3534
vn 0.8791 0.1840 0.4397
vn 0.8908 0.1790 0.4177
vn 0.8908 0.1789 0.4177
vn 0.9319 0.1831 0.3131
vn 0.9010 0.1737 0.3975
vn 0.9285 0.1772 0.3263
vn 0.9010 0.1738 0.3974
vn 0.9285 0.1772 0.3262
vn 0.8684 0.1870 0.4593
vn 0.9288 0.1929 0.3164
vn 0.9236 0.1949 0.3301
vn 0.9288 0.1928 0.3164
vn 0.9236 0.1948 0.3301
vn 0.9108 0.1958 0.3635
vn 0.9126 0.1961 0.3587
vn 0.4771 0.1769 0.8609
vn 0.3616 0.1802 0.9147
vn 0.3375 0.1766 0.9246
vn 0.4771 0.1769 0.8608
vn 0.4105 0.1875 0.8923
vn 0.3617 0.1803 0.9147
vn 0.4771 0.1770 0.8609
vn 0.6080 0.1626 0.7772
vn 0.4469 0.1763 0.8771
vn 0.4153 0.1653 0.8945
vn 0.3921 0.1502 0.9076
vn 0.3743 0.1355 0.9173
vn 0.5082 0.1379 0.8501
vn 0.4153 0.1652 0.8945
vn 0.5131 0.1498 0.8452
vn 0.6079 0.1626 0.7772
vn 0.5081 0.1379 0.8502
vn 0.6298 0.1496 0.7622
vn 0.5131 0.1498 0.8451
vn 0.4154 0.1653 0.8945
vn 0.3920 0.1503 0.9076
vn 0.5132 0.1497 0.8451
vn 0.3325 0.1145 0.9361
vn 0.3921 0.1096 0.9134
vn 0.4397 0.1170 0.8905
vn 0.6449 0.1374 0.7518
vn 0.5158 0.1246 0.8476
vn 0.9253 0.1362 0.3539
vn 0.9023 0.1340 0.4097
vn 0.9436 0.1252 0.3066
vn 0.8519 0.1488 0.5020
vn 0.9017 0.1621 0.4008
vn 0.8344 0.1585 0.5279
vn 0.9017 0.1621 0.4007
vn 0.9091 0.1533 0.3873
vn 0.7384 0.1647 0.6540
vn 0.7183 0.1498 0.6794
vn 0.8881 0.1731 0.4257
vn 0.8882 0.1731 0.4257
vn 0.8344 0.1584 0.5279
vn 0.9168 0.1443 0.3723
vn 0.8761 0.1405 0.4611
vn 0.8376 0.1417 0.5275
vn 0.6002 0.0784 0.7960
vn 0.6407 0.0728 0.7644
vn 0.7625 0.0906 0.6406
vn 0.7404 0.1751 0.6490
vn 0.6913 0.0683 0.7193
vn 0.6406 0.0728 0.7644
vn 0.7998 0.0829 0.5945
vn 0.7625 0.0905 0.6406
vn 0.6914 0.0683 0.7193
vn 0.7281 0.0991 0.6783
vn 0.7280 0.0991 0.6783
vn 0.5416 0.0952 0.8352
vn 0.7009 0.1101 0.7047
vn 0.5244 0.1108 0.8442
vn 0.5245 0.1108 0.8442
vn 0.6593 0.1256 0.7413
vn 0.7010 0.1101 0.7046
vn 0.5948 0.0794 0.7999
vn 0.5441 0.0941 0.8337
vn 0.4910 0.0841 0.8671
vn 0.5948 0.0793 0.7999
vn 0.4909 0.0841 0.8671
vn 0.7702 0.1070 0.6288
vn 0.6648 0.1237 0.7367
vn 0.6067 0.1081 0.7876
vn 0.7274 0.0982 0.6792
vn 0.3003 0.1062 0.9479
vn 0.5306 0.1972 0.8244
vn 0.5915 0.1899 0.7836
vn 0.5962 0.1963 0.7784
vn 0.5962 0.1963 0.7785
vn 0.5734 0.2043 0.7934
vn 0.5305 0.1972 0.8244
vn 0.5734 0.2042 0.7934
vn 0.6028 0.2087 0.7702
vn 0.6252 0.2086 0.7520
vn 0.6136 0.2036 0.7629
vn 0.6135 0.2036 0.7630
vn 0.7858 0.1988 0.5857
vn 0.7303 0.1909 0.6559
vn 0.8147 0.1940 0.5464
vn 0.7455 0.2038 0.6346
vn 0.7155 0.1968 0.6704
vn 0.6979 0.2031 0.6868
vn 0.6978 0.2031 0.6869
vn 0.6020 0.2036 0.7721
vn 0.5515 0.2092 0.8075
vn 0.4923 0.2052 0.8459
vn 0.5515 0.2093 0.8075
vn 0.6020 0.2035 0.7721
vn 0.5001 0.1980 0.8430
vn 0.5702 0.1964 0.7977
vn 0.5317 0.1895 0.8254
vn 0.5318 0.1895 0.8254
vn 0.4541 0.1927 0.8698
vn 0.4542 0.1927 0.8698
vn 0.5068 0.1833 0.8423
vn 0.4105 0.1875 0.8924
vn 0.4150 0.1831 0.8912
vn 0.7785 0.2054 0.5930
vn 0.7600 0.2101 0.6151
vn 0.6948 0.2089 0.6882
vn 0.7599 0.2101 0.6151
vn 0.7167 0.2116 0.6645
vn 0.8206 0.2080 0.5323
vn 0.8433 0.2039 0.4972
vn 0.8207 0.2079 0.5322
vn 0.8434 0.2039 0.4972
vn 0.8643 0.2064 0.4588
vn 0.7786 0.2054 0.5930
vn 0.8236 0.2019 0.5300
vn 0.8672 0.1995 0.4562
vn 0.8434 0.2039 0.4971
vn 0.8236 0.2019 0.5299
vn 0.8667 0.1994 0.4573
vn 0.9060 0.1969 0.3746
vn 0.8667 0.1993 0.4573
vn 0.9060 0.1968 0.3746
vn 0.9126 0.1961 0.3588
vn 0.9033 0.1965 0.3814
vn 0.9061 0.1969 0.3746
vn 0.9061 0.1969 0.3745
vn 0.8672 0.1994 0.4563
vn 0.9061 0.1968 0.3746
vn 0.9059 0.1970 0.3748
vn 0.8821 0.2025 0.4254
vn 0.8821 0.2024 0.4253
vn 0.8642 0.2063 0.4588
vn 0.8820 0.2025 0.4255
vn 0.8971 0.2054 0.3912
vn 0.9132 0.2032 0.3533
vn 0.9059 0.1971 0.3748
vn 0.9106 0.1999 0.3617
vn 0.8672 0.1994 0.4562
vn 0.8821 0.2024 0.4254
vn 0.9106 0.1999 0.3616
vn 0.9132 0.2032 0.3532
vn 0.8512 0.1899 0.4892
vn 0.8513 0.1899 0.4892
vn 0.8255 0.1942 0.5299
vn 0.8513 0.1899 0.4891
vn 0.8256 0.1942 0.5298
vn 0.7865 0.1988 0.5848
vn 0.9126 0.2052 0.3536
vn 0.7401 0.2038 0.6408
vn 0.7401 0.2038 0.6409
vn 0.7864 0.1988 0.5848
vn 0.4542 0.1926 0.8698
vn 0.4112 0.1875 0.8921
vn 0.4106 0.1876 0.8923
vn 0.3504 0.1805 0.9190
vn 0.4112 0.1875 0.8920
vn 0.3142 0.1875 0.9307
vn 0.3293 0.1833 0.9263
vn 0.4112 0.1876 0.8920
vn 0.3069 0.1914 0.9323
vn 0.3142 0.1875 0.9306
vn 0.3349 0.1930 0.9223
vn 0.3070 0.1914 0.9323
vn 0.3767 0.1959 0.9054
vn 0.4112 0.1876 0.8921
vn 0.3768 0.1959 0.9054
vn 0.4260 0.1999 0.8824
vn 0.5001 0.1980 0.8431
vn 0.3768 0.1959 0.9053
vn 0.3293 0.1833 0.9262
vn 0.3450 0.1809 0.9210
vn 0.4771 0.1770 0.8608
vn 0.5068 0.1833 0.8424
vn 0.7702 0.1069 0.6288
vn 0.8050 0.1171 0.5816
vn 0.6945 0.0907 0.7138
vn 0.6067 0.1081 0.7875
vn 0.5441 0.0941 0.8338
vn 0.5441 0.0940 0.8337
vn 0.5948 0.0794 0.8000
vn 0.6479 0.0844 0.7570
vn 0.6479 0.0843 0.7571
vn 0.3743 0.1355 0.9174
vn 0.4731 0.1263 0.8719
vn 0.3575 0.1236 0.9257
vn 0.3574 0.1236 0.9257
vn 0.4396 0.1170 0.8905
vn 0.5982 0.1731 0.7824
vn 0.5040 0.1910 0.8423
vn 0.5923 0.1822 0.7849
vn 0.4797 0.1841 0.8579
vn 0.5982 0.1730 0.7825
vn 0.4468 0.1763 0.8771
vn 0.4798 0.1841 0.8579
vn 0.5982 0.1730 0.7824
vn 0.5922 0.1822 0.7849
vn 0.7000 0.1381 0.7007
vn 0.8494 0.1889 0.4928
vn 0.7374 0.1839 0.6500
vn 0.8732 0.1821 0.4521
vn 0.7404 0.1751 0.6489
vn 0.8148 0.1940 0.5463
vn 0.8148 0.1940 0.5464
vn 0.6593 0.1257 0.7413
vn 0.7000 0.1381 0.7006
vn 0.8286 0.1293 0.5447
vn 0.6648 0.1236 0.7367
vn 0.5915 0.1900 0.7836
vn 0.7155 0.1968 0.6703
vn 0.8050 0.1172 0.5817
usemtl m24.012
s off
f 3/1/1 2/2/2 1/3/3
f 6/4/4 5/5/5 4/6/6
f 9/7/7 8/8/8 7/9/9
f 12/10/9 11/11/10 10/12/11
f 12/10/1 10/12/12 13/13/13
f 16/14/14 15/15/15 14/16/16
f 19/17/17 18/18/18 17/19/19
f 18/18/20 19/17/21 20/20/22
f 21/21/23 18/18/24 20/20/22
f 21/21/23 20/20/25 22/22/26
f 17/19/19 23/23/27 19/17/21
f 26/24/28 25/25/29 24/26/30
f 26/24/31 27/27/32 25/25/29
f 14/16/33 28/28/34 16/14/35
f 28/28/34 14/16/33 29/29/36
f 28/28/37 29/29/36 30/30/38
f 33/31/39 32/32/40 31/33/41
f 36/34/42 35/35/43 34/36/44
f 33/31/39 31/33/45 37/37/46
f 37/37/46 31/33/45 38/38/47
f 37/37/48 39/39/49 36/34/42
f 36/34/42 39/39/50 35/35/43
f 37/37/48 38/38/47 39/39/49
f 33/31/39 40/40/51 32/32/52
f 42/41/53 41/42/54 40/40/51
f 42/41/53 43/43/55 41/42/56
f 43/43/57 42/41/53 44/44/58
f 45/45/59 42/41/53 40/40/51
f 40/40/60 33/31/39 45/45/59
f 48/46/61 47/47/62 46/48/63
f 51/49/64 50/50/65 49/51/66
f 48/46/67 52/52/68 47/47/62
f 52/52/69 53/53/70 47/47/62
f 51/49/71 49/51/66 54/54/72
f 52/52/69 51/49/73 54/54/74
f 52/52/69 54/54/74 53/53/70
f 46/48/63 55/55/75 48/46/61
f 55/55/75 57/56/76 56/57/77
f 55/55/75 46/48/63 57/56/78
f 55/55/75 56/57/79 58/58/80
f 56/57/79 59/59/81 58/58/80
f 60/60/82 44/44/83 42/41/84
f 60/60/85 61/61/86 44/44/87
f 60/60/88 42/41/53 45/45/59
f 64/62/89 63/63/90 62/64/91
f 67/65/92 66/66/93 65/67/94
f 62/64/95 68/68/96 64/62/97
f 65/67/98 69/69/99 68/68/96
f 67/65/92 65/67/94 68/68/100
f 62/64/101 67/65/102 68/68/103
f 69/69/99 64/62/97 68/68/96
f 71/70/104 30/30/105 70/71/106
f 65/67/94 72/72/107 69/69/99
f 65/67/94 73/73/108 72/72/107
f 76/74/109 75/75/110 74/76/111
f 79/77/112 78/78/113 77/79/114
f 78/78/115 79/77/112 80/80/116
f 77/79/114 82/81/117 81/82/118
f 83/83/119 77/79/114 78/78/113
f 83/83/120 82/81/117 77/79/121
f 84/84/122 75/75/110 76/74/109
f 80/80/116 85/85/123 84/84/122
f 75/75/110 84/84/122 85/85/123
f 85/85/123 80/80/116 79/77/112
f 77/79/114 81/82/118 86/86/124
f 89/87/125 88/88/126 87/89/127
f 83/83/119 90/90/128 82/81/117
f 88/88/126 91/91/129 22/22/26
f 88/88/130 22/22/131 87/89/132
f 91/91/133 21/21/23 22/22/131
f 89/87/125 87/89/132 92/92/134
f 89/87/125 92/92/135 93/93/136
f 93/93/136 92/92/134 94/94/137
f 93/93/136 94/94/137 95/95/138
f 95/95/139 96/96/140 73/73/108
f 95/95/139 94/94/141 96/96/140
f 99/97/142 98/98/143 97/99/144
f 99/97/145 97/99/146 24/26/30
f 97/99/146 26/24/31 24/26/30
f 102/100/147 101/101/148 100/102/149
f 100/102/149 103/103/150 102/100/147
f 71/70/104 28/28/151 30/30/38
f 106/104/152 105/105/153 104/106/154
f 104/106/155 107/107/156 106/104/157
f 107/107/158 4/6/6 5/5/159
f 4/6/160 107/107/156 108/108/161
f 107/107/156 104/106/154 108/108/162
f 111/109/163 110/110/164 109/111/165
f 113/112/166 112/113/167 111/109/163
f 112/113/167 113/112/166 114/114/168
f 114/114/169 1/3/3 2/2/2
f 1/3/3 114/114/169 113/112/166
f 117/115/170 116/116/171 115/117/172
f 116/116/173 117/115/174 8/8/8
f 117/115/170 115/117/172 118/118/175
f 117/115/170 118/118/175 119/119/176
f 118/118/175 120/120/177 119/119/176
f 120/120/178 118/118/175 121/121/179
f 121/121/180 122/122/181 120/120/178
f 122/122/181 121/121/180 61/61/182
f 61/61/183 43/43/57 44/44/83
f 8/8/8 9/7/7 116/116/171
f 11/11/10 124/123/184 123/124/185
f 11/11/186 123/124/187 10/12/188
f 124/123/184 125/125/189 123/124/187
f 126/126/190 125/125/191 124/123/184
f 126/126/192 127/127/193 125/125/191
f 126/126/190 124/123/194 128/128/195
f 129/129/196 126/126/197 128/128/198
f 130/130/199 129/129/196 128/128/195
f 131/131/200 129/129/196 130/130/201
f 131/131/202 58/58/80 59/59/203
f 132/132/204 131/131/205 130/130/199
f 58/58/80 131/131/206 132/132/204
f 129/129/207 131/131/208 133/133/209
f 126/126/197 129/129/196 134/134/210
f 134/134/211 127/127/212 126/126/197
f 127/127/212 134/134/213 135/135/214
f 135/135/214 134/134/210 136/136/215
f 133/133/216 137/137/217 129/129/218
f 134/134/219 137/137/220 136/136/221
f 137/137/217 134/134/219 129/129/207
f 130/130/201 138/138/222 132/132/204
f 138/138/223 55/55/75 58/58/80
f 138/138/223 58/58/80 132/132/204
f 128/128/195 139/139/224 130/130/201
f 138/138/225 130/130/201 139/139/226
f 139/139/224 128/128/195 140/140/227
f 141/141/228 135/135/214 136/136/215
f 142/142/229 128/128/195 124/123/194
f 142/142/230 140/140/231 128/128/195
f 11/11/10 142/142/230 124/123/194
f 121/121/232 143/143/233 61/61/234
f 61/61/86 143/143/233 43/43/235
f 143/143/236 145/144/237 144/145/238
f 143/143/239 146/146/240 145/144/241
f 147/147/242 146/146/243 143/143/239
f 148/148/244 143/143/239 121/121/179
f 143/143/245 148/148/246 147/147/242
f 115/117/172 149/149/247 118/118/175
f 149/149/247 121/121/180 118/118/248
f 121/121/180 149/149/247 148/148/249
f 143/143/239 144/145/250 150/150/251
f 143/143/233 150/150/251 43/43/55
f 61/61/182 60/60/252 122/122/253
f 102/100/254 151/151/255 101/101/148
f 152/152/256 103/103/150 100/102/257
f 152/152/256 100/102/149 98/98/258
f 98/98/259 99/97/260 153/153/261
f 98/98/143 153/153/262 152/152/256
f 66/66/263 154/154/264 65/67/94
f 66/66/263 155/155/265 154/154/264
f 155/155/266 71/70/104 70/71/106
f 155/155/266 70/71/267 154/154/264
f 63/63/90 64/62/97 156/156/268
f 158/157/269 157/158/270 105/105/153
f 157/158/270 158/157/269 159/159/271
f 156/156/272 159/159/271 63/63/273
f 159/159/274 156/156/275 157/158/276
f 81/82/118 160/160/277 86/86/124
f 90/90/128 162/161/278 161/162/279
f 90/90/128 83/83/120 163/163/280
f 162/161/278 90/90/281 163/163/280
f 161/162/279 109/111/282 110/110/164
f 109/111/283 161/162/279 162/161/278
f 73/73/108 96/96/284 72/72/107
f 86/86/124 160/160/285 164/164/286
f 160/160/277 101/101/287 164/164/286
f 105/105/288 106/104/152 158/157/269
f 110/110/164 111/109/163 112/113/289
f 151/151/290 164/164/286 101/101/148
