# Blender v3.6.5 OBJ File: ''
# www.blender.org
mtllib final.006.mtl
o final.006_final.076
v 181.363800 29.616955 197.101898
v 181.397903 29.733335 196.994293
v 181.325104 29.734436 197.035995
v 181.437607 29.616535 197.058807
v 181.487106 29.752356 196.977203
v 181.579605 29.658384 197.051697
v 181.544601 29.776476 196.990005
v 181.527100 29.633915 197.039902
v 181.301102 29.624935 197.150604
v 181.262695 29.742165 197.086899
v 181.667404 29.717945 197.109406
v 181.634003 29.837336 197.046906
v 181.523300 29.647066 197.061493
v 181.447693 29.754536 196.999603
v 181.485199 29.766874 196.998001
v 181.489899 29.636755 197.063202
v 181.570602 29.670635 197.075607
v 181.533005 29.788675 197.010895
v 181.444794 29.628675 197.076004
v 181.401703 29.745665 197.011505
v 181.649902 29.725645 197.131104
v 181.617996 29.847666 197.070206
v 181.375397 29.628456 197.116806
v 181.336807 29.746435 197.051407
v 181.315994 29.636086 197.164795
v 181.276901 29.753826 197.100204
v 181.489502 29.624775 197.044601
v 181.450699 29.743505 196.981094
v 181.207001 29.754595 197.144196
v 181.247498 29.636795 197.208496
v 181.160797 29.773796 197.211700
v 181.199905 29.657095 197.276596
v 181.190598 29.724754 197.408096
v 181.141296 29.811365 197.294205
v 181.154205 29.843096 197.347900
v 181.178406 29.693415 197.359497
v 181.251999 29.788805 197.490097
v 181.214798 29.908865 197.431107
v 181.202194 29.701855 197.355896
v 181.166397 29.802536 197.257401
v 181.204300 29.685495 197.324997
v 181.164398 29.821615 197.292007
v 181.216904 29.730976 197.399704
v 181.177704 29.849306 197.336502
v 181.218506 29.667286 197.283401
v 181.179596 29.783556 197.214996
v 181.275894 29.789465 197.473907
v 181.240707 29.912045 197.416000
v 181.263306 29.647585 197.219498
v 181.223404 29.765766 197.155197
v 181.183899 29.676935 197.324707
v 181.145996 29.795465 197.260300
v 181.481598 29.498735 197.128006
v 181.492996 29.628315 197.048798
v 181.441101 29.619804 197.062607
v 181.531601 29.507256 197.112793
v 181.407501 29.500175 197.171906
v 181.367493 29.620975 197.105499
v 181.531097 29.637384 197.043793
v 181.573593 29.516516 197.105606
v 181.619995 29.539486 197.120407
v 181.584106 29.662506 197.055801
v 181.344406 29.506355 197.219894
v 181.305603 29.628826 197.154800
v 181.700104 29.595446 197.172195
v 181.666702 29.718824 197.109604
v 181.527298 29.650446 197.064804
v 181.493607 29.640236 197.066406
v 181.533493 29.523575 197.132507
v 181.567398 29.532566 197.129303
v 181.574493 29.673916 197.078400
v 181.612000 29.554726 197.146194
v 181.448807 29.633005 197.079605
v 181.490601 29.516294 197.146500
v 181.683395 29.604216 197.194595
v 181.649704 29.727304 197.131104
v 181.379196 29.632626 197.119904
v 181.419495 29.516584 197.186295
v 181.320099 29.640015 197.168594
v 181.357605 29.521776 197.231506
v 181.243195 29.539415 197.346497
v 181.188400 29.680285 197.327896
v 181.226303 29.559345 197.392502
v 181.203995 29.660265 197.279907
v 181.291702 29.519926 197.278000
v 181.251495 29.640766 197.211807
v 181.182495 29.696865 197.363297
v 181.218002 29.577196 197.431503
v 181.233505 29.605425 197.474594
v 181.195206 29.728865 197.412292
v 181.288895 29.665596 197.548996
v 181.252396 29.789526 197.489304
v 181.207794 29.689005 197.328293
v 181.205795 29.705305 197.359497
v 181.248505 29.572216 197.393707
v 181.244598 29.587645 197.425095
v 181.220093 29.734385 197.403198
v 181.262207 29.614416 197.466797
v 181.222595 29.671606 197.286896
v 181.263901 29.554966 197.354202
v 181.313705 29.667286 197.533401
v 181.276199 29.791025 197.473404
v 181.266907 29.651785 197.222794
v 181.307999 29.535616 197.288498
vt 0.414626 0.953481
vt 0.427707 0.953481
vt 0.414626 0.941858
vt 0.427707 0.941858
vt 0.454379 0.953481
vt 0.454379 0.941858
vt 0.444920 0.953481
vt 0.444920 0.941858
vt 0.405791 0.941858
vt 0.405791 0.953481
vt 0.470304 0.941858
vt 0.470304 0.953481
vt 0.444920 0.932214
vt 0.444920 0.922625
vt 0.436707 0.922625
vt 0.436707 0.932214
vt 0.454379 0.932214
vt 0.454379 0.922625
vt 0.427707 0.922625
vt 0.427707 0.932214
vt 0.470304 0.932214
vt 0.470304 0.922625
vt 0.414626 0.932214
vt 0.414626 0.922625
vt 0.405791 0.932214
vt 0.405791 0.922625
vt 0.436543 0.941871
vt 0.436707 0.953481
vt 0.414626 0.953481
vt 0.414626 0.941858
vt 0.427707 0.953481
vt 0.427707 0.941858
vt 0.454379 0.953481
vt 0.444920 0.953481
vt 0.454379 0.941858
vt 0.444920 0.941858
vt 0.470304 0.941858
vt 0.470304 0.953481
vt 0.444920 0.932214
vt 0.436707 0.932214
vt 0.436707 0.922625
vt 0.444920 0.922625
vt 0.454379 0.932214
vt 0.454379 0.922625
vt 0.427707 0.922625
vt 0.427707 0.932214
vt 0.470304 0.932214
vt 0.470304 0.922625
vt 0.414626 0.932214
vt 0.414626 0.922625
vt 0.436543 0.941871
vt 0.436707 0.953481
vt 0.427707 0.980371
vt 0.436707 0.980371
vt 0.427707 0.991995
vt 0.436707 0.991995
vt 0.414626 0.991995
vt 0.414626 0.980371
vt 0.444920 0.980371
vt 0.444920 0.991995
vt 0.454379 0.980371
vt 0.454379 0.991995
vt 0.405791 0.991995
vt 0.405791 0.980371
vt 0.470304 0.991995
vt 0.470304 0.980371
vt 0.444920 0.970728
vt 0.436707 0.970728
vt 0.436707 0.961139
vt 0.444920 0.961139
vt 0.454379 0.970728
vt 0.454379 0.961139
vt 0.427707 0.970728
vt 0.427708 0.961139
vt 0.470304 0.961139
vt 0.470304 0.970728
vt 0.414626 0.970728
vt 0.414626 0.961139
vt 0.405791 0.970728
vt 0.405791 0.961139
vt 0.436707 0.991995
vt 0.436707 0.980371
vt 0.427708 0.991995
vt 0.427707 0.980371
vt 0.414626 0.991995
vt 0.414625 0.980371
vt 0.444920 0.980371
vt 0.444920 0.991995
vt 0.454379 0.991995
vt 0.454379 0.980371
vt 0.470304 0.991995
vt 0.470304 0.980371
vt 0.436707 0.970728
vt 0.444920 0.970728
vt 0.436707 0.961139
vt 0.444920 0.961139
vt 0.454379 0.961139
vt 0.454378 0.970728
vt 0.427707 0.970728
vt 0.427707 0.961139
vt 0.470303 0.961139
vt 0.470304 0.970728
vt 0.414626 0.970728
vt 0.414626 0.961139
vn -0.4959 -0.5410 -0.6793
vn -0.3154 -0.5367 -0.7827
vn -0.4502 -0.6585 -0.6031
vn -0.3154 -0.5367 -0.7826
vn -0.2719 -0.6472 -0.7122
vn -0.4502 -0.6585 -0.6030
vn 0.5419 -0.2597 -0.7993
vn 0.5746 -0.3910 -0.7190
vn 0.2179 -0.4010 -0.8898
vn 0.2619 -0.5240 -0.8105
vn -0.5744 -0.6425 -0.5072
vn -0.6219 -0.5254 -0.5807
vn 0.6672 -0.3678 -0.6478
vn 0.6282 -0.2110 -0.7489
vn 0.2618 -0.5238 -0.8106
vn 0.5745 -0.3909 -0.7191
vn -0.2165 0.2025 0.9550
vn -0.2828 0.3820 0.8798
vn 0.0325 0.4857 0.8735
vn -0.2166 0.2027 0.9550
vn 0.0777 0.3277 0.9416
vn -0.2829 0.3820 0.8798
vn -0.5013 0.0509 0.8638
vn -0.5752 0.2427 0.7812
vn 0.5746 -0.3912 -0.7189
vn -0.5014 0.0510 0.8637
vn -0.2167 0.2028 0.9549
vn 0.3260 0.5406 0.7755
vn 0.3648 0.3789 0.8505
vn 0.3649 0.3789 0.8505
vn -0.5921 0.0433 0.8047
vn -0.6495 0.1963 0.7346
vn -0.5920 0.0433 0.8047
vn -0.5014 0.0508 0.8637
vn -0.2718 -0.6472 -0.7122
vn 0.5433 0.3878 0.7446
vn 0.5432 0.3878 0.7446
vn 0.5040 0.5416 0.6728
vn 0.6601 0.3759 0.6503
vn -0.4503 -0.6585 -0.6030
vn 0.6602 0.3759 0.6503
vn 0.6219 0.5253 0.5807
vn -0.0335 -0.6094 -0.7922
vn -0.0335 -0.6095 -0.7921
vn 0.2619 -0.5241 -0.8104
vn -0.2166 0.2029 0.9549
vn -0.0336 -0.6094 -0.7922
vn -0.0746 -0.4920 -0.8674
vn -0.6218 -0.5254 -0.5807
vn -0.7302 -0.5010 -0.4645
vn -0.6801 -0.6193 -0.3923
vn -0.7302 -0.5011 -0.4644
vn 0.6602 0.3760 0.6502
vn -0.6801 -0.6193 -0.3924
vn -0.8434 -0.4466 -0.2987
vn -0.7976 -0.5575 -0.2303
vn -0.8434 -0.4466 -0.2986
vn -0.8693 -0.0189 0.4940
vn -0.9611 -0.1998 0.1908
vn -0.8168 -0.1537 0.5561
vn -0.9088 -0.3242 0.2625
vn -0.8167 -0.1537 0.5561
vn -0.8692 -0.0189 0.4940
vn -0.7491 -0.1262 0.6503
vn -0.8170 0.0355 0.5755
vn -0.8168 -0.1536 0.5561
vn -0.9088 -0.3243 0.2624
vn 0.9887 -0.0030 -0.1496
vn 0.9778 0.1741 0.1167
vn 0.9431 0.3303 0.0391
vn 0.9524 0.1713 -0.2523
vn 0.9887 -0.0030 -0.1497
vn 0.8915 -0.1868 -0.4128
vn -0.8167 -0.1537 0.5562
vn 0.9887 -0.0029 -0.1496
vn -0.7492 -0.1262 0.6502
vn 0.8507 -0.0006 -0.5256
vn 0.8915 -0.1867 -0.4128
vn 0.8363 0.4539 0.3076
vn 0.8776 0.2914 0.3805
vn 0.9431 0.3303 0.0390
vn 0.9778 0.1741 0.1166
vn 0.8777 0.2915 0.3805
vn 0.8385 -0.2008 -0.5065
vn -0.7491 -0.1261 0.6503
vn 0.8017 -0.0513 -0.5955
vn 0.8386 -0.2008 -0.5065
vn 0.7630 0.3500 0.5434
vn -0.6802 -0.6192 -0.3924
vn 0.8364 0.4535 0.3078
vn 0.8777 0.2914 0.3805
vn 0.7630 0.3503 0.5433
vn -0.6802 -0.6191 -0.3925
vn 0.7630 0.3502 0.5433
vn -0.7975 -0.5576 -0.2303
vn 0.7630 0.3503 0.5432
vn 0.6221 0.5249 0.5810
vn 0.7234 0.5041 0.4717
vn 0.7234 0.5042 0.4717
vn 0.8364 0.4535 0.3077
vn -0.9611 -0.1998 0.1909
vn -0.8858 -0.4640 -0.0110
vn -0.7975 -0.5577 -0.2303
vn 0.8777 0.2915 0.3804
vn -0.8858 -0.4638 -0.0111
vn -0.9088 -0.3243 0.2625
vn -0.8858 -0.4639 -0.0112
vn -0.8858 -0.4639 -0.0110
vn 0.8776 0.2915 0.3804
vn 0.9778 0.1740 0.1165
vn -0.9353 -0.3451 -0.0786
vn -0.8858 -0.4640 -0.0111
vn -0.7976 -0.5575 -0.2304
vn -0.8434 -0.4465 -0.2987
vn -0.3656 -0.4143 -0.8335
vn -0.1359 -0.3712 -0.9186
vn -0.3306 -0.5312 -0.7801
vn -0.1359 -0.3711 -0.9186
vn -0.1010 -0.4901 -0.8658
vn -0.4946 -0.5344 -0.6854
vn -0.4946 -0.5345 -0.6853
vn -0.5232 -0.4090 -0.7476
vn 0.1745 -0.2701 -0.9469
vn 0.2220 -0.3918 -0.8929
vn 0.5064 -0.1159 -0.8545
vn 0.5516 -0.2507 -0.7956
vn 0.5515 -0.2507 -0.7956
vn -0.6242 -0.5184 -0.5845
vn -0.6577 -0.3888 -0.6452
vn 0.6296 -0.2093 -0.7482
vn 0.5063 -0.1158 -0.8545
vn 0.5655 -0.0425 -0.8237
vn 0.6298 -0.2090 -0.7481
vn 0.5064 -0.1158 -0.8545
vn 0.1745 -0.2700 -0.9469
vn -0.3515 0.5561 0.7532
vn -0.3515 0.5561 0.7531
vn 0.0165 0.6550 0.7554
vn 0.1745 -0.2702 -0.9469
vn -0.1359 -0.3712 -0.9185
vn 0.0166 0.6550 0.7554
vn 0.0663 0.5078 0.8589
vn -0.3516 0.5561 0.7531
vn -0.3023 0.3864 0.8714
vn -0.6295 0.4320 0.6458
vn -0.6295 0.4321 0.6458
vn -0.5834 0.2472 0.7736
vn 0.0164 0.6552 0.7553
vn -0.1357 -0.3715 -0.9185
vn 0.2730 0.6917 0.6686
vn -0.1359 -0.3709 -0.9187
vn -0.3656 -0.4142 -0.8335
vn 0.2733 0.6913 0.6688
vn 0.3239 0.5528 0.7678
vn 0.2732 0.6915 0.6687
vn 0.3240 0.5528 0.7678
vn 0.0165 0.6551 0.7554
vn -0.6496 0.2056 0.7319
vn -0.6888 0.3644 0.6267
vn 0.5654 -0.0425 -0.8237
vn -0.6294 0.4321 0.6459
vn -0.6496 0.2057 0.7319
vn -0.3657 -0.4143 -0.8335
vn -0.5232 -0.4089 -0.7477
vn 0.4270 0.6835 0.5920
vn -0.3656 -0.4142 -0.8336
vn 0.4800 0.5491 0.6842
vn 0.2732 0.6916 0.6687
vn 0.4269 0.6836 0.5920
vn 0.2731 0.6916 0.6687
vn -0.5232 -0.4090 -0.7477
vn 0.5656 0.6601 0.4943
vn 0.5657 0.6601 0.4943
vn 0.6215 0.5266 0.5801
vn -0.9315 -0.3484 -0.1047
vn -0.9591 -0.2307 -0.1641
vn -0.8389 -0.4445 -0.3142
vn -0.8674 -0.3287 -0.3735
vn -0.8389 -0.4445 -0.3143
vn -0.7351 -0.4934 -0.4650
vn -0.7672 -0.3680 -0.5253
vn -0.7350 -0.4934 -0.4650
vn -0.6577 -0.3885 -0.6453
vn -0.7673 -0.3680 -0.5252
vn 0.5657 0.6600 0.4944
vn -0.9901 -0.0715 0.1205
vn -0.9591 -0.2307 -0.1642
vn -0.9627 -0.1897 0.1930
vn -0.9901 -0.0715 0.1206
vn -0.9315 -0.3484 -0.1046
vn -0.9627 -0.1897 0.1929
vn -0.8646 -0.0090 0.5023
vn -0.8946 0.1231 0.4296
vn -0.8647 -0.0091 0.5023
vn -0.8160 0.0379 0.5769
vn -0.8551 0.1999 0.4783
vn -0.8161 0.0374 0.5766
vn -0.9901 -0.0716 0.1206
vn 0.8592 0.5113 -0.0170
vn 0.8647 0.3487 -0.3615
vn 0.8647 0.3486 -0.3616
vn 0.8593 0.5112 -0.0169
vn 0.8593 0.5113 -0.0170
vn 0.9304 0.3603 0.0669
vn 0.9464 0.1731 -0.2728
vn 0.8447 0.0036 -0.5352
vn 0.7563 0.1956 -0.6243
vn 0.7562 0.1955 -0.6244
vn 0.8648 0.3486 -0.3615
vn -0.8946 0.1232 0.4295
vn 0.7562 0.1956 -0.6244
vn 0.7562 0.1957 -0.6244
vn -0.8551 0.1998 0.4784
vn -0.8674 -0.3289 -0.3735
vn -0.9591 -0.2306 -0.1642
vn 0.7629 0.6080 0.2198
vn -0.9591 -0.2308 -0.1641
vn 0.8593 0.5113 -0.0169
vn 0.9304 0.3604 0.0668
vn 0.8312 0.4662 0.3030
vn 0.8312 0.4662 0.3029
vn 0.8447 0.0036 -0.5353
vn 0.8008 -0.0418 -0.5974
vn 0.7294 0.1224 -0.6731
vn 0.8008 -0.0418 -0.5975
vn 0.7294 0.1224 -0.6730
vn 0.5656 0.6601 0.4942
vn 0.6755 0.6412 0.3642
vn 0.6215 0.5266 0.5800
vn -0.7672 -0.3681 -0.5253
vn 0.6754 0.6413 0.3641
vn -0.8675 -0.3287 -0.3735
vn -0.8674 -0.3287 -0.3736
vn 0.7629 0.6080 0.2199
vn 0.7376 0.5051 0.4481
usemtl m5.012
s off
f 3/1/1 2/2/2 1/3/3
f 2/2/4 4/4/5 1/3/6
f 7/5/7 6/6/8 5/7/9
f 6/6/8 8/8/10 5/7/9
f 3/1/1 1/3/6 9/9/11
f 10/10/12 3/1/1 9/9/11
f 11/11/13 6/6/8 7/5/7
f 12/12/14 11/11/13 7/5/7
f 8/8/15 6/6/16 13/13/17
f 15/14/18 14/15/19 13/13/20
f 14/15/19 16/16/21 13/13/20
f 15/14/22 13/13/20 17/17/23
f 18/18/24 15/14/18 17/17/23
f 6/6/25 17/17/26 13/13/27
f 6/6/8 11/11/13 17/17/23
f 20/19/28 19/20/29 14/15/19
f 19/20/30 16/16/21 14/15/19
f 18/18/24 17/17/23 21/21/31
f 22/22/32 18/18/24 21/21/31
f 11/11/13 21/21/33 17/17/34
f 4/4/35 19/20/29 23/23/36
f 23/23/37 19/20/29 20/19/28
f 1/3/3 4/4/35 23/23/36
f 24/24/38 23/23/37 20/19/28
f 9/9/11 1/3/6 25/25/39
f 1/3/40 23/23/36 25/25/41
f 25/25/39 23/23/36 24/24/38
f 26/26/42 25/25/41 24/24/38
f 8/8/10 27/27/43 5/7/9
f 4/4/35 27/27/43 19/20/29
f 27/27/44 8/8/45 13/13/46
f 27/27/47 16/16/21 19/20/29
f 16/16/21 27/27/43 13/13/20
f 27/27/43 28/28/48 5/7/9
f 28/28/48 27/27/43 4/4/35
f 2/2/4 28/28/48 4/4/35
f 10/10/49 9/9/11 29/29/50
f 9/9/11 30/30/51 29/29/52
f 9/9/11 25/25/53 30/30/54
f 29/29/50 30/30/54 31/31/55
f 30/30/51 32/32/56 31/31/57
f 35/33/58 34/34/59 33/35/60
f 34/34/59 36/36/61 33/35/62
f 35/33/63 33/35/62 37/37/64
f 38/38/65 35/33/63 37/37/64
f 33/35/66 36/36/67 39/39/68
f 41/40/69 40/41/70 39/39/68
f 40/41/70 42/42/71 39/39/72
f 43/43/73 33/35/74 39/39/75
f 43/43/73 39/39/72 42/42/71
f 37/37/76 33/35/74 43/43/73
f 44/44/77 43/43/78 42/42/71
f 46/45/79 40/41/70 45/46/80
f 40/41/81 41/40/82 45/46/83
f 47/47/84 37/37/85 43/43/73
f 47/47/84 43/43/73 44/44/77
f 48/48/86 47/47/87 44/44/77
f 25/25/41 49/49/88 30/30/89
f 46/45/90 45/46/91 49/49/92
f 30/30/93 49/49/94 32/32/95
f 49/49/96 45/46/83 32/32/56
f 26/26/97 50/50/98 25/25/39
f 50/50/98 49/49/92 25/25/39
f 50/50/99 46/45/100 49/49/96
f 36/36/61 34/34/101 51/51/102
f 32/32/103 45/46/104 51/51/105
f 39/39/68 36/36/106 51/51/107
f 41/40/82 39/39/75 51/51/108
f 45/46/109 41/40/110 51/51/102
f 34/34/59 52/52/111 51/51/112
f 51/51/112 52/52/111 32/32/113
f 52/52/111 31/31/114 32/32/56
f 55/53/115 54/54/116 53/55/117
f 54/54/118 56/56/119 53/55/117
f 53/55/117 57/57/120 55/53/115
f 57/57/121 58/58/122 55/53/115
f 54/54/116 59/59/123 56/56/119
f 59/59/123 60/60/124 56/56/119
f 62/61/125 61/62/126 59/59/123
f 61/62/127 60/60/124 59/59/123
f 57/57/121 63/63/128 58/58/122
f 63/63/128 64/64/129 58/58/122
f 65/65/130 61/62/127 62/61/131
f 66/66/132 65/65/133 62/61/125
f 62/61/134 59/59/135 67/67/136
f 67/67/137 59/59/123 68/68/138
f 59/59/139 54/54/140 68/68/138
f 68/68/141 69/69/142 67/67/143
f 69/69/142 70/70/144 67/67/143
f 71/71/145 62/61/125 67/67/143
f 66/66/132 62/61/125 71/71/146
f 67/67/143 70/70/144 71/71/145
f 70/70/144 72/72/147 71/71/145
f 68/68/148 54/54/149 73/73/150
f 54/54/151 55/53/152 73/73/153
f 74/74/154 69/69/142 68/68/141
f 73/73/155 74/74/156 68/68/157
f 72/72/147 75/75/158 71/71/145
f 76/76/159 66/66/160 71/71/161
f 75/75/162 76/76/159 71/71/145
f 55/53/163 58/58/164 77/77/165
f 73/73/155 55/53/166 77/77/165
f 78/78/167 74/74/154 73/73/168
f 77/77/169 78/78/167 73/73/170
f 77/77/169 58/58/171 79/79/172
f 58/58/171 64/64/129 79/79/173
f 80/80/174 78/78/167 77/77/169
f 79/79/172 80/80/174 77/77/169
f 83/81/175 82/82/176 81/83/177
f 82/82/176 84/84/178 81/83/179
f 81/83/179 84/84/178 85/85/180
f 84/84/178 86/86/181 85/85/182
f 86/86/181 64/64/129 63/63/128
f 85/85/180 86/86/181 63/63/128
f 64/64/183 86/86/184 79/79/185
f 87/87/186 82/82/187 83/81/175
f 88/88/188 87/87/189 83/81/190
f 87/87/186 88/88/191 89/89/192
f 90/90/193 87/87/186 89/89/194
f 90/90/193 89/89/192 91/91/195
f 92/92/196 90/90/193 91/91/197
f 82/82/187 87/87/198 93/93/199
f 94/94/200 87/87/186 90/90/193
f 87/87/186 94/94/201 93/93/202
f 93/93/203 94/94/201 95/95/204
f 94/94/201 96/96/205 95/95/204
f 98/97/206 96/96/205 97/98/207
f 97/98/208 94/94/209 90/90/210
f 96/96/205 94/94/201 97/98/211
f 97/98/212 90/90/193 92/92/213
f 84/84/214 82/82/215 99/99/216
f 82/82/217 93/93/202 99/99/216
f 93/93/218 95/95/219 100/100/220
f 99/99/216 93/93/203 100/100/221
f 98/97/222 97/98/207 101/101/223
f 97/98/211 102/102/224 101/101/225
f 102/102/226 97/98/212 92/92/213
f 79/79/227 103/103/228 80/80/229
f 86/86/230 103/103/231 79/79/172
f 84/84/232 99/99/216 103/103/228
f 86/86/181 84/84/233 103/103/228
f 103/103/228 99/99/234 104/104/235
f 103/103/228 104/104/235 80/80/174
f 99/99/216 100/100/221 104/104/235
