# Blender v3.6.5 OBJ File: ''
# www.blender.org
mtllib final.016.mtl
o final.016_final.086
v 184.224197 22.178104 197.537598
v 184.195297 22.295324 197.524200
v 184.213303 22.169506 197.556503
v 184.145493 22.257576 197.606995
v 184.260895 22.157434 197.537796
v 184.223206 22.160456 197.516602
v 184.235306 22.124676 197.534698
v 184.195297 22.295324 197.524200
v 184.197403 22.412525 197.643097
v 184.145493 22.257576 197.606995
v 184.285995 22.288445 197.574097
v 184.197403 22.412525 197.643097
v 184.195297 22.295324 197.524200
v 184.213303 22.169506 197.556503
v 184.145493 22.257576 197.606995
v 184.244598 22.176386 197.549194
v 184.285995 22.288445 197.574097
v 184.285995 22.288445 197.574097
v 184.145493 22.257576 197.606995
v 184.197403 22.412525 197.643097
v 184.202698 22.144636 197.551498
v 184.223206 22.160456 197.516602
v 184.213303 22.169506 197.556503
v 184.224197 22.178104 197.537598
v 184.285995 22.288445 197.574097
v 184.195297 22.295324 197.524200
v 184.244598 22.176386 197.549194
v 184.224197 22.178104 197.537598
v 184.260895 22.157434 197.537796
v 184.202698 22.144636 197.551498
v 184.244598 22.176386 197.549194
v 184.213303 22.169506 197.556503
v 184.244598 22.176386 197.549194
v 184.224197 22.178104 197.537598
v 184.260895 22.157434 197.537796
v 184.223206 22.160456 197.516602
v 184.202698 22.144636 197.551498
v 184.235306 22.124676 197.534698
v 184.223206 22.160456 197.516602
v 184.260895 22.157434 197.537796
v 184.235306 22.124676 197.534698
v 184.202698 22.144636 197.551498
vt 0.644615 0.913232
vt 0.656037 0.915709
vt 0.644615 0.915709
vt 0.656037 0.906018
vt 0.638609 0.915709
vt 0.642065 0.915709
vt 0.642065 0.919406
vt 0.656037 0.906018
vt 0.671834 0.915709
vt 0.656037 0.915709
vt 0.656037 0.915709
vt 0.671834 0.915709
vt 0.656037 0.925400
vt 0.510968 0.975382
vt 0.515888 0.969507
vt 0.512759 0.975382
vt 0.507840 0.969507
vt 0.511864 0.961315
vt 0.515888 0.969507
vt 0.507840 0.969507
vt 0.644615 0.913232
vt 0.642065 0.915709
vt 0.642065 0.912013
vt 0.644615 0.915709
vt 0.644615 0.918186
vt 0.656037 0.915709
vt 0.656037 0.925400
vt 0.644615 0.915709
vt 0.510968 0.975382
vt 0.513532 0.976668
vt 0.510196 0.976668
vt 0.512759 0.975382
vt 0.642065 0.919406
vt 0.644615 0.915709
vt 0.644615 0.918186
vt 0.642065 0.915709
vt 0.642065 0.915709
vt 0.638609 0.915709
vt 0.642065 0.912013
vt 0.513532 0.976668
vt 0.511864 0.978216
vt 0.510196 0.976668
vn -0.7836 -0.3070 -0.5401
vn -0.7836 -0.3069 -0.5402
vn -0.7836 -0.3069 -0.5401
vn 0.4332 -0.2948 -0.8517
vn -0.8844 0.3278 -0.3323
vn 0.3603 0.6336 -0.6847
vn 0.3216 -0.2596 0.9106
vn -0.8770 0.3814 -0.2923
vn 0.4546 -0.0028 -0.8907
vn 0.4547 -0.0028 -0.8907
vn 0.3215 -0.2596 0.9106
vn 0.3515 0.6833 -0.6400
vn 0.3516 0.6833 -0.6399
vn 0.3515 0.6832 -0.6401
vn -0.6223 -0.5542 -0.5528
usemtl m15.012
s off
f 3/1/1 2/2/2 1/3/3
f 2/2/3 3/1/1 4/4/3
f 7/5/4 6/6/4 5/7/4
f 10/8/5 9/9/5 8/10/5
f 13/11/6 12/12/6 11/13/6
f 16/14/7 15/15/7 14/16/7
f 15/15/7 16/14/7 17/17/7
f 20/18/7 19/19/7 18/20/7
f 23/21/8 22/22/8 21/23/8
f 22/22/8 23/21/8 24/24/8
f 27/25/9 26/26/9 25/27/9
f 26/26/9 27/25/10 28/28/10
f 31/29/7 30/30/7 29/31/7
f 30/30/11 31/29/7 32/32/11
f 35/33/12 34/34/13 33/35/12
f 34/34/14 35/33/14 36/36/14
f 39/37/15 38/38/15 37/39/15
f 42/40/7 41/41/7 40/42/7
