# Blender v3.6.5 OBJ File: ''
# www.blender.org
mtllib final.007.mtl
o final.007_final.077
v 181.400604 31.269606 195.927307
v 181.373306 31.200045 195.989502
v 181.441803 31.207176 195.956497
v 181.330704 31.251995 195.969299
v 181.559906 31.291405 195.852707
v 181.518204 31.215355 195.921295
v 181.595505 31.223145 195.888000
v 181.478897 31.282286 195.887802
v 182.235397 31.295465 195.723297
v 182.142899 31.315226 195.708603
v 182.146500 31.281996 195.732193
v 182.234695 31.315016 195.709000
v 182.051895 31.315454 195.715698
v 182.058502 31.271154 195.745895
v 181.841599 31.247725 195.799606
v 181.936401 31.315405 195.734406
v 181.822693 31.312904 195.761795
v 181.949402 31.259075 195.769897
v 181.644501 31.300276 195.819397
v 181.675095 31.230595 195.856293
v 181.730499 31.307615 195.789505
v 181.755707 31.238375 195.827194
v 181.300201 31.193806 196.026703
v 181.275497 31.229654 196.012802
v 181.220795 31.190744 196.070099
v 182.341797 31.320166 195.722702
v 180.444901 31.358435 196.840302
v 180.394699 31.441235 196.849197
v 180.409103 31.383375 196.903000
v 180.437500 31.404396 196.787903
v 180.370697 31.411146 196.973099
v 180.314407 31.503925 196.994202
v 180.334106 31.438395 197.044205
v 180.352798 31.474415 196.919907
v 180.140793 31.652855 197.642899
v 180.136505 31.657555 197.547394
v 180.130493 31.674046 197.637604
v 180.153397 31.622086 197.558899
v 180.149902 31.639986 197.458801
v 180.171005 31.593204 197.475800
v 180.176407 31.615725 197.347504
v 180.234604 31.521935 197.272507
v 180.210800 31.587946 197.239197
v 180.199905 31.557575 197.373306
v 180.277405 31.533545 197.072403
v 180.243393 31.561356 197.152496
v 180.298706 31.465456 197.117798
v 180.265900 31.492565 197.192505
v 180.485397 31.332836 196.773499
v 180.479996 31.365385 196.741898
v 180.532898 31.308115 196.700500
v 180.137299 31.696304 197.743103
vt 0.863159 0.027331
vt 0.852954 0.028768
vt 0.859328 0.017133
vt 0.848516 0.020436
vt 0.885902 0.025221
vt 0.874485 0.026128
vt 0.883316 0.014003
vt 0.871279 0.015088
vt 0.964124 0.025293
vt 0.964897 0.019785
vt 0.976331 0.025976
vt 0.977044 0.022777
vt 0.952749 0.017542
vt 0.951920 0.024819
vt 0.921311 0.013537
vt 0.937128 0.015084
vt 0.921395 0.024074
vt 0.936632 0.024286
vt 0.895740 0.013197
vt 0.897499 0.024509
vt 0.908216 0.012992
vt 0.909095 0.024194
vt 0.841561 0.030035
vt 0.839571 0.024093
vt 0.829141 0.029826
vt 0.991118 0.026909
vt 0.863159 0.027331
vt 0.859328 0.017133
vt 0.852954 0.028768
vt 0.848516 0.020436
vt 0.885902 0.025221
vt 0.883316 0.014003
vt 0.874485 0.026128
vt 0.871279 0.015088
vt 0.977044 0.022777
vt 0.964897 0.019785
vt 0.976331 0.025976
vt 0.964124 0.025293
vt 0.952749 0.017542
vt 0.951920 0.024819
vt 0.921311 0.013537
vt 0.921395 0.024074
vt 0.937128 0.015084
vt 0.936632 0.024286
vt 0.895740 0.013197
vt 0.897499 0.024509
vt 0.908216 0.012992
vt 0.909095 0.024194
vt 0.839571 0.024093
vt 0.841561 0.030035
vt 0.829141 0.029826
vt 0.991118 0.026909
vn -0.3039 -0.5607 -0.7702
vn -0.3252 -0.5610 -0.7613
vn -0.3059 -0.5608 -0.7694
vn -0.3303 -0.5608 -0.7592
vn -0.3059 -0.5608 -0.7693
vn -0.2702 -0.5481 -0.7916
vn -0.2866 -0.5573 -0.7792
vn -0.2716 -0.5492 -0.7903
vn -0.2893 -0.5575 -0.7781
vn -0.2893 -0.5576 -0.7781
vn -0.2867 -0.5573 -0.7792
vn -0.2866 -0.5573 -0.7793
vn -0.0360 -0.5781 -0.8151
vn -0.0355 -0.5782 -0.8151
vn 0.0381 -0.5826 -0.8119
vn -0.0355 -0.5783 -0.8151
vn 0.0416 -0.5826 -0.8117
vn 0.0381 -0.5827 -0.8118
vn -0.1021 -0.5653 -0.8185
vn -0.0356 -0.5783 -0.8151
vn -0.0360 -0.5782 -0.8151
vn -0.1025 -0.5653 -0.8185
vn -0.1021 -0.5654 -0.8185
vn -0.1947 -0.5358 -0.8216
vn -0.1555 -0.5492 -0.8211
vn -0.1936 -0.5362 -0.8216
vn -0.1555 -0.5493 -0.8211
vn -0.1547 -0.5496 -0.8210
vn -0.2702 -0.5480 -0.7916
vn -0.2517 -0.5379 -0.8045
vn -0.2501 -0.5372 -0.8056
vn -0.2518 -0.5380 -0.8045
vn -0.2517 -0.5380 -0.8045
vn -0.2261 -0.5310 -0.8167
vn -0.2247 -0.5309 -0.8171
vn -0.2261 -0.5309 -0.8167
vn -0.2247 -0.5308 -0.8172
vn -0.2501 -0.5371 -0.8056
vn -0.3251 -0.5610 -0.7613
vn -0.3565 -0.5582 -0.7492
vn -0.3581 -0.5578 -0.7487
vn -0.3831 -0.5524 -0.7403
vn -0.3580 -0.5579 -0.7487
vn 0.1304 -0.5800 -0.8041
vn -0.8364 -0.4698 -0.2823
vn -0.8354 -0.4704 -0.2841
vn -0.8262 -0.4755 -0.3020
vn -0.8354 -0.4704 -0.2842
vn -0.8238 -0.4766 -0.3071
vn -0.8262 -0.4755 -0.3021
vn -0.8575 -0.4479 -0.2531
vn -0.8563 -0.4494 -0.2544
vn -0.8459 -0.4617 -0.2671
vn -0.8446 -0.4629 -0.2690
vn -0.8447 -0.4628 -0.2689
vn -0.8365 -0.4698 -0.2822
vn -0.9052 -0.4212 0.0562
vn -0.9024 -0.4304 -0.0206
vn -0.9051 -0.4218 0.0527
vn -0.9024 -0.4304 -0.0210
vn -0.8988 -0.4294 -0.0883
vn -0.8988 -0.4294 -0.0887
vn -0.8899 -0.4172 -0.1844
vn -0.8901 -0.4173 -0.1834
vn -0.8946 -0.4232 -0.1437
vn -0.8946 -0.4233 -0.1429
vn -0.8946 -0.4234 -0.1428
vn -0.8563 -0.4494 -0.2545
vn -0.8575 -0.4479 -0.2532
vn -0.8696 -0.4326 -0.2382
vn -0.8696 -0.4326 -0.2381
vn -0.8706 -0.4313 -0.2368
vn -0.8820 -0.4190 -0.2154
vn -0.8820 -0.4190 -0.2155
vn -0.8825 -0.4186 -0.2142
vn -0.8238 -0.4766 -0.3070
vn -0.8111 -0.4806 -0.3335
vn -0.8117 -0.4805 -0.3319
vn -0.8263 -0.4755 -0.3020
vn -0.8117 -0.4805 -0.3320
vn -0.8003 -0.4810 -0.3580
vn -0.9035 -0.4036 0.1441
usemtl m6.012
s off
f 3/1/1 2/2/2 1/3/3
f 2/2/2 4/4/4 1/3/5
f 7/5/6 6/6/7 5/7/8
f 1/3/3 8/8/9 3/1/1
f 8/8/10 6/6/11 3/1/1
f 6/6/12 8/8/9 5/7/8
f 11/9/13 10/10/14 9/11/15
f 10/10/16 12/12/17 9/11/18
f 13/13/19 10/10/20 11/9/21
f 14/14/22 13/13/23 11/9/21
f 17/15/24 16/16/25 15/17/26
f 16/16/27 18/18/28 15/17/26
f 16/16/27 13/13/19 18/18/28
f 13/13/23 14/14/22 18/18/28
f 7/5/29 5/7/8 19/19/30
f 20/20/31 7/5/6 19/19/32
f 19/19/33 21/21/34 20/20/31
f 17/15/24 15/17/26 22/22/35
f 21/21/36 17/15/24 22/22/37
f 21/21/36 22/22/35 20/20/38
f 4/4/4 2/2/39 23/23/40
f 24/24/41 4/4/4 23/23/40
f 25/25/42 24/24/43 23/23/40
f 9/11/15 12/12/17 26/26/44
f 29/27/45 28/28/46 27/29/47
f 28/28/48 30/30/49 27/29/50
f 33/31/51 32/32/52 31/33/53
f 32/32/52 34/34/54 31/33/53
f 29/27/45 31/33/53 34/34/55
f 28/28/48 29/27/56 34/34/54
f 37/35/57 36/36/58 35/37/59
f 36/36/58 38/38/60 35/37/59
f 36/36/58 39/39/61 38/38/60
f 39/39/61 40/40/62 38/38/60
f 43/41/63 42/42/64 41/43/65
f 42/42/64 44/44/66 41/43/65
f 44/44/67 40/40/62 39/39/61
f 41/43/65 44/44/66 39/39/61
f 32/32/68 33/31/69 45/45/70
f 45/45/71 47/46/72 46/47/73
f 33/31/69 47/46/72 45/45/70
f 46/47/74 48/48/75 43/41/63
f 47/46/72 48/48/75 46/47/74
f 48/48/75 42/42/64 43/41/63
f 30/30/76 50/49/77 49/50/78
f 27/29/79 30/30/76 49/50/80
f 51/51/81 49/50/80 50/49/77
f 35/37/59 52/52/82 37/35/57
