# Blender 3.6.5
# www.blender.org
mtllib furina.007.mtl
o furina.007
v 14.512047 2.501564 -15.674185
v 14.509861 2.495999 -15.679161
v 14.515343 2.496570 -15.676521
v 14.506457 2.500155 -15.677539
v 14.524793 2.503308 -15.668217
v 14.521458 2.497224 -15.673706
v 14.527643 2.497847 -15.671042
v 14.518309 2.502578 -15.671025
v 14.578833 2.503633 -15.657859
v 14.571429 2.505213 -15.656685
v 14.571720 2.502555 -15.658574
v 14.578778 2.505197 -15.656722
v 14.564150 2.505232 -15.657251
v 14.564677 2.501688 -15.659673
v 14.547332 2.499814 -15.663965
v 14.554916 2.505228 -15.658753
v 14.545817 2.505028 -15.660946
v 14.555953 2.500721 -15.661587
v 14.531563 2.504018 -15.665550
v 14.534009 2.498443 -15.668500
v 14.538445 2.504604 -15.663160
v 14.540455 2.499065 -15.666173
v 14.504018 2.495500 -15.682137
v 14.502039 2.498368 -15.681021
v 14.497664 2.495255 -15.685607
v 14.587344 2.505609 -15.657814
v 14.435596 2.508671 -15.747227
v 14.431578 2.515294 -15.747934
v 14.432727 2.510666 -15.752238
v 14.435002 2.512348 -15.743029
v 14.429658 2.512888 -15.757843
v 14.425152 2.520310 -15.759539
v 14.426725 2.515067 -15.763534
v 14.428226 2.517948 -15.753588
v 14.411267 2.532224 -15.811433
v 14.410924 2.532600 -15.803789
v 14.410442 2.533919 -15.811004
v 14.412271 2.529762 -15.804710
v 14.411992 2.531194 -15.796705
v 14.413684 2.527452 -15.798060
v 14.414112 2.529253 -15.787803
v 14.418765 2.521750 -15.781798
v 14.416862 2.527031 -15.779135
v 14.415995 2.524602 -15.789860
v 14.422192 2.522679 -15.765790
v 14.419474 2.524904 -15.772199
v 14.423895 2.517232 -15.769420
v 14.421275 2.519400 -15.775401
v 14.438831 2.506622 -15.741881
v 14.438399 2.509226 -15.739347
v 14.442635 2.504645 -15.736041
v 14.410988 2.535700 -15.819446
vn -0.3060 -0.5609 0.7693
vn -0.3251 -0.5611 0.7613
vn -0.3038 -0.5609 0.7702
vn -0.3304 -0.5608 0.7592
vn -0.2716 -0.5494 0.7902
vn -0.2866 -0.5573 0.7793
vn -0.2703 -0.5481 0.7916
vn -0.2891 -0.5578 0.7780
vn 0.0382 -0.5826 0.8118
vn -0.0355 -0.5782 0.8151
vn -0.0360 -0.5780 0.8152
vn 0.0417 -0.5827 0.8116
vn -0.1021 -0.5652 0.8186
vn -0.1025 -0.5651 0.8186
vn -0.1935 -0.5365 0.8214
vn -0.1555 -0.5492 0.8211
vn -0.1946 -0.5360 0.8215
vn -0.1547 -0.5495 0.8210
vn -0.2517 -0.5382 0.8043
vn -0.2501 -0.5373 0.8055
vn -0.2261 -0.5308 0.8168
vn -0.2247 -0.5308 0.8172
vn -0.3563 -0.5585 0.7491
vn -0.3578 -0.5584 0.7485
vn -0.3829 -0.5529 0.7400
vn 0.1305 -0.5802 0.8039
vn -0.8261 -0.4756 0.3021
vn -0.8354 -0.4705 0.2842
vn -0.8364 -0.4699 0.2822
vn -0.8237 -0.4767 0.3071
vn -0.8458 -0.4618 0.2671
vn -0.8563 -0.4495 0.2543
vn -0.8575 -0.4479 0.2533
vn -0.8446 -0.4628 0.2691
vn -0.9051 -0.4220 -0.0525
vn -0.9024 -0.4304 0.0206
vn -0.9051 -0.4215 -0.0560
vn -0.9024 -0.4304 0.0211
vn -0.8988 -0.4294 0.0882
vn -0.8987 -0.4294 0.0887
vn -0.8946 -0.4231 0.1437
vn -0.8900 -0.4174 0.1836
vn -0.8899 -0.4171 0.1845
vn -0.8946 -0.4234 0.1429
vn -0.8696 -0.4327 0.2378
vn -0.8821 -0.4190 0.2154
vn -0.8706 -0.4312 0.2369
vn -0.8825 -0.4186 0.2145
vn -0.8117 -0.4803 0.3323
vn -0.8111 -0.4801 0.3341
vn -0.8000 -0.4810 0.3587
vn -0.9036 -0.4035 -0.1437
vt 0.859328 0.017411
vt 0.852954 0.029046
vt 0.863159 0.027609
vt 0.848516 0.020714
vt 0.883316 0.014281
vt 0.874485 0.026406
vt 0.885902 0.025499
vt 0.871279 0.015366
vt 0.976331 0.026254
vt 0.964897 0.020063
vt 0.964124 0.025571
vt 0.977044 0.023055
vt 0.952749 0.017820
vt 0.951920 0.025097
vt 0.921396 0.024352
vt 0.937128 0.015362
vt 0.921311 0.013815
vt 0.936632 0.024564
vt 0.895740 0.013475
vt 0.897499 0.024787
vt 0.908216 0.013270
vt 0.909095 0.024472
vt 0.841561 0.030313
vt 0.839571 0.024371
vt 0.829141 0.030104
vt 0.991118 0.027187
s 1
usemtl 眉.001
f 1/1/1 2/2/2 3/3/3
f 1/1/1 4/4/4 2/2/2
f 5/5/5 6/6/6 7/7/7
f 3/3/3 8/8/8 1/1/1
f 3/3/3 6/6/6 8/8/8
f 5/5/5 8/8/8 6/6/6
f 9/9/9 10/10/10 11/11/11
f 9/9/9 12/12/12 10/10/10
f 11/11/11 10/10/10 13/13/13
f 11/11/11 13/13/13 14/14/14
f 15/15/15 16/16/16 17/17/17
f 15/15/15 18/18/18 16/16/16
f 18/18/18 13/13/13 16/16/16
f 18/18/18 14/14/14 13/13/13
f 19/19/19 5/5/5 7/7/7
f 19/19/19 7/7/7 20/20/20
f 20/20/20 21/21/21 19/19/19
f 22/22/22 15/15/15 17/17/17
f 22/22/22 17/17/17 21/21/21
f 20/20/20 22/22/22 21/21/21
f 23/23/23 2/2/2 4/4/4
f 23/23/23 4/4/4 24/24/24
f 23/23/23 24/24/24 25/25/25
f 26/26/26 12/12/12 9/9/9
f 27/2/27 28/1/28 29/3/29
f 27/2/27 30/4/30 28/1/28
f 31/6/31 32/5/32 33/7/33
f 31/6/31 34/8/34 32/5/32
f 34/8/34 31/6/31 29/3/29
f 34/8/34 29/3/29 28/1/28
f 35/9/35 36/10/36 37/12/37
f 35/9/35 38/11/38 36/10/36
f 38/11/38 39/13/39 36/10/36
f 38/11/38 40/14/40 39/13/39
f 41/16/41 42/15/42 43/17/43
f 41/16/41 44/18/44 42/15/42
f 39/13/39 40/14/40 44/18/44
f 39/13/39 44/18/44 41/16/41
f 45/19/45 33/7/33 32/5/32
f 46/21/46 47/20/47 45/19/45
f 45/19/45 47/20/47 33/7/33
f 43/17/43 48/22/48 46/21/46
f 46/21/46 48/22/48 47/20/47
f 43/17/43 42/15/42 48/22/48
f 49/23/49 50/24/50 30/4/30
f 49/23/49 30/4/30 27/2/27
f 50/24/50 49/23/49 51/25/51
f 37/12/37 52/26/52 35/9/35
