# Blender 3.6.5
# www.blender.org
mtllib furina.018.mtl
o furina.018
v 14.514167 1.913225 -15.949856
v 14.515792 1.909894 -15.933758
v 14.516262 1.914809 -15.935184
v 14.517750 1.919883 -15.935095
v 14.517748 1.924961 -15.948996
v 14.520222 1.925133 -15.932919
v 14.523266 1.928431 -15.929007
v 14.526931 1.938794 -15.938644
v 14.533231 1.942300 -15.928532
v 14.528401 1.928788 -15.919506
v 14.538292 1.939445 -15.917555
v 14.541255 1.934404 -15.909430
v 14.530174 1.925703 -15.914446
v 14.542233 1.926364 -15.903547
v 14.530748 1.920511 -15.910910
v 14.541282 1.914776 -15.899527
v 14.528796 1.910518 -15.909559
v 14.537684 1.903044 -15.900381
v 14.526193 1.905280 -15.911671
v 14.533515 1.894710 -15.904036
v 14.523269 1.901941 -15.915667
v 14.528499 1.889212 -15.910730
v 14.522197 1.885707 -15.920841
v 14.518132 1.901596 -15.925177
v 14.517136 1.888562 -15.931818
v 14.516240 1.904710 -15.930145
v 14.513201 1.901642 -15.945829
v 14.520687 1.915880 -15.920959
v 14.526046 1.929764 -15.924273
v 14.530149 1.915604 -15.909405
v 14.520370 1.900649 -15.920319
v 14.514172 1.893603 -15.939941
v 14.514257 1.890342 -15.955963
v 14.517985 1.877945 -15.942692
v 14.515462 1.883152 -15.950069
v 14.521363 1.874042 -15.934361
v 14.526864 1.871934 -15.922932
v 14.533319 1.874726 -15.912169
v 14.538313 1.879108 -15.904963
v 14.542945 1.884724 -15.899055
v 14.547014 1.892217 -15.895159
v 14.550708 1.900923 -15.892578
v 14.553943 1.913238 -15.892681
v 14.555491 1.925456 -15.895912
v 14.555147 1.933931 -15.900826
v 14.551419 1.946329 -15.914095
v 14.548040 1.950232 -15.922428
v 14.536086 1.949548 -15.944620
v 14.531093 1.945166 -15.951826
v 14.521912 1.933297 -15.945335
v 14.522389 1.932056 -15.961630
v 14.526459 1.939549 -15.957733
v 14.518696 1.923350 -15.964211
v 14.513913 1.898817 -15.960876
v 14.515462 1.911036 -15.964108
v 14.542542 1.952339 -15.933855
v 14.553942 1.941122 -15.906717
vn -0.9818 0.1898 -0.0119
vn -0.9721 0.1147 0.2046
vn -0.9589 0.2122 0.1881
vn -0.9341 0.3093 0.1783
vn -0.9324 0.3615 0.0055
vn -0.8831 0.4099 0.2284
vn -0.8214 0.4826 0.3041
vn -0.7686 0.6116 0.1876
vn -0.6704 0.6591 0.3408
vn -0.7143 0.4903 0.4994
vn -0.5973 0.6185 0.5107
vn -0.5452 0.5295 0.6499
vn -0.6889 0.4176 0.5925
vn -0.5272 0.3847 0.7577
vn -0.6709 0.3241 0.6669
vn -0.5353 0.2153 0.8167
vn -0.7088 0.1295 0.6934
vn -0.5931 0.0460 0.8038
vn -0.7630 0.0351 0.6455
vn -0.6684 -0.1046 0.7364
vn -0.8186 -0.0455 0.5725
vn -0.7569 -0.2010 0.6218
vn -0.8483 -0.2536 0.4648
vn -0.9249 -0.0498 0.3769
vn -0.9297 -0.2142 0.2997
vn -0.9591 0.0189 0.2823
vn -0.9984 0.0228 0.0516
vn -0.8598 0.2296 0.4561
vn -0.7729 0.4932 0.3993
vn -0.6903 0.2274 0.6869
vn -0.8778 -0.0525 0.4761
vn -0.9794 -0.1221 0.1611
vn -0.9948 -0.1021 -0.0026
vn -0.9410 -0.2809 0.1890
vn -0.9756 -0.2026 0.0848
vn -0.8957 -0.3256 0.3028
vn -0.8211 -0.3471 0.4531
vn -0.7373 -0.3166 0.5968
vn -0.6682 -0.2653 0.6951
vn -0.6025 -0.1813 0.7772
vn -0.5428 -0.0762 0.8364
vn -0.4941 0.0585 0.8674
vn -0.4461 0.2054 0.8711
vn -0.4366 0.3531 0.8275
vn -0.4336 0.4836 0.7603
vn -0.4874 0.6623 0.5691
vn -0.5375 0.7084 0.4575
vn -0.6958 0.6994 0.1634
vn -0.7599 0.6469 0.0634
vn -0.8556 0.5124 0.0743
vn -0.8856 0.4578 -0.0786
vn -0.8262 0.5630 -0.0192
vn -0.9399 0.3243 -0.1068
vn -0.9973 0.0298 -0.0668
vn -0.9778 0.1749 -0.1157
vn -0.6112 0.7296 0.3068
vn -0.4533 0.5843 0.6732
vt 0.101238 0.431249
vt 0.116777 0.436204
vt 0.115917 0.431206
vt 0.116770 0.426058
vt 0.104041 0.419061
vt 0.119951 0.420833
vt 0.124849 0.417584
vt 0.118065 0.404942
vt 0.130244 0.401620
vt 0.135542 0.417473
vt 0.142445 0.404871
vt 0.151001 0.410371
vt 0.140673 0.420789
vt 0.156579 0.418888
vt 0.143907 0.426100
vt 0.159459 0.431073
vt 0.143929 0.436240
vt 0.156651 0.443275
vt 0.140736 0.441475
vt 0.151127 0.451827
vt 0.135838 0.444760
vt 0.142605 0.457379
vt 0.130423 0.460705
vt 0.125137 0.444832
vt 0.118224 0.457457
vt 0.120014 0.441554
vt 0.104112 0.443422
vt 0.130345 0.431163
vt 0.130307 0.416432
vt 0.144776 0.431119
vt 0.130395 0.445893
vt 0.109684 0.451932
vt 0.093392 0.454217
vt 0.107468 0.468231
vt 0.099477 0.462180
vt 0.116946 0.472761
vt 0.130457 0.475222
vt 0.143957 0.472686
vt 0.153415 0.468109
vt 0.161381 0.462018
vt 0.167428 0.454017
vt 0.171944 0.444524
vt 0.173764 0.431030
vt 0.171863 0.417547
vt 0.167288 0.408081
vt 0.153190 0.394075
vt 0.143705 0.389556
vt 0.116695 0.389646
vt 0.107245 0.394232
vt 0.109560 0.410517
vt 0.093255 0.408329
vt 0.099291 0.400331
vt 0.088747 0.417815
vt 0.088827 0.444759
vt 0.086931 0.431292
vt 0.130190 0.387103
vt 0.161192 0.400117
s 1
usemtl ç¥ä¹‹çœ¼.001
f 1/1/1 2/2/2 3/3/3
f 3/3/3 4/4/4 1/1/1
f 4/4/4 5/5/5 1/1/1
f 4/4/4 6/6/6 5/5/5
f 6/6/6 7/7/7 8/8/8
f 7/7/7 9/9/9 8/8/8
f 10/10/10 11/11/11 9/9/9
f 10/10/10 12/12/12 11/11/11
f 10/10/10 13/13/13 12/12/12
f 13/13/13 14/14/14 12/12/12
f 13/13/13 15/15/15 14/14/14
f 15/15/15 16/16/16 14/14/14
f 17/17/17 18/18/18 16/16/16
f 17/17/17 19/19/19 18/18/18
f 19/19/19 20/20/20 18/18/18
f 19/19/19 21/21/21 20/20/20
f 21/21/21 22/22/22 20/20/20
f 21/21/21 23/23/23 22/22/22
f 24/24/24 25/25/25 23/23/23
f 24/24/24 26/26/26 25/25/25
f 26/26/26 2/2/2 27/27/27
f 1/1/1 27/27/27 2/2/2
f 4/4/4 3/3/3 28/28/28
f 6/6/6 4/4/4 28/28/28
f 7/7/7 6/6/6 28/28/28
f 3/3/3 2/2/2 28/28/28
f 2/2/2 26/26/26 28/28/28
f 15/15/15 13/13/13 28/28/28
f 17/17/17 28/28/28 19/19/19
f 26/26/26 24/24/24 28/28/28
f 19/19/19 28/28/28 21/21/21
f 13/13/13 10/10/10 28/28/28
f 7/7/7 29/29/29 9/9/9
f 29/29/29 10/10/10 9/9/9
f 7/7/7 28/28/28 29/29/29
f 10/10/10 29/29/29 28/28/28
f 15/15/15 30/30/30 16/16/16
f 15/15/15 28/28/28 30/30/30
f 30/30/30 28/28/28 17/17/17
f 30/30/30 17/17/17 16/16/16
f 21/21/21 31/31/31 23/23/23
f 31/31/31 24/24/24 23/23/23
f 24/24/24 31/31/31 28/28/28
f 21/21/21 28/28/28 31/31/31
f 26/26/26 27/27/27 32/32/32
f 26/26/26 32/32/32 25/25/25
f 27/27/27 33/33/33 32/32/32
f 32/32/32 34/34/34 25/25/25
f 32/32/32 35/35/35 34/34/34
f 33/33/33 35/35/35 32/32/32
f 34/34/34 36/36/36 25/25/25
f 25/25/25 36/36/36 23/23/23
f 36/36/36 37/37/37 23/23/23
f 22/22/22 23/23/23 38/38/38
f 23/23/23 37/37/37 38/38/38
f 22/22/22 38/38/38 39/39/39
f 20/20/20 22/22/22 39/39/39
f 20/20/20 39/39/39 40/40/40
f 20/20/20 40/40/40 41/41/41
f 18/18/18 20/20/20 41/41/41
f 18/18/18 41/41/41 42/42/42
f 16/16/16 18/18/18 42/42/42
f 16/16/16 42/42/42 43/43/43
f 44/44/44 16/16/16 43/43/43
f 44/44/44 14/14/14 16/16/16
f 14/14/14 45/45/45 12/12/12
f 44/44/44 45/45/45 14/14/14
f 12/12/12 46/46/46 11/11/11
f 46/46/46 47/47/47 11/11/11
f 11/11/11 47/47/47 9/9/9
f 48/48/48 8/8/8 9/9/9
f 48/48/48 49/49/49 8/8/8
f 8/8/8 49/49/49 50/50/50
f 6/6/6 50/50/50 5/5/5
f 6/6/6 8/8/8 50/50/50
f 50/50/50 51/51/51 5/5/5
f 50/50/50 52/52/52 51/51/51
f 49/49/49 52/52/52 50/50/50
f 5/5/5 53/53/53 1/1/1
f 51/51/51 53/53/53 5/5/5
f 54/54/54 33/33/33 27/27/27
f 1/1/1 54/54/54 27/27/27
f 1/1/1 55/55/55 54/54/54
f 53/53/53 55/55/55 1/1/1
f 48/48/48 9/9/9 56/56/56
f 47/47/47 56/56/56 9/9/9
f 12/12/12 57/57/57 46/46/46
f 45/45/45 57/57/57 12/12/12
