# Blender 3.6.5
# www.blender.org
mtllib furina.006.mtl
o furina.006
v 14.506006 2.378752 -15.762880
v 14.509100 2.369353 -15.768157
v 14.511834 2.378663 -15.759544
v 14.515009 2.369320 -15.764704
v 14.523570 2.382115 -15.759201
v 14.518967 2.380186 -15.758179
v 14.526366 2.372668 -15.764134
v 14.522163 2.370710 -15.763196
v 14.504086 2.369992 -15.772053
v 14.501015 2.379371 -15.766954
v 14.533387 2.377432 -15.768754
v 14.530720 2.386984 -15.763751
v 14.521864 2.371762 -15.764925
v 14.518818 2.381347 -15.759843
v 14.515815 2.380360 -15.759968
v 14.519192 2.370938 -15.765060
v 14.525648 2.373648 -15.766046
v 14.522641 2.383091 -15.760874
v 14.512136 2.379650 -15.760920
v 14.515582 2.370291 -15.766078
v 14.531993 2.378049 -15.770490
v 14.529439 2.387811 -15.765619
v 14.510031 2.370274 -15.769343
v 14.506939 2.379712 -15.764112
v 14.505276 2.370884 -15.773183
v 14.502150 2.380303 -15.768019
v 14.519160 2.369979 -15.763567
v 14.516050 2.379477 -15.758492
v 14.496556 2.380364 -15.771541
v 14.499799 2.370941 -15.776681
v 14.492861 2.381901 -15.776934
v 14.495993 2.372564 -15.782133
v 14.492332 2.387445 -15.787831
v 14.495250 2.377977 -15.792652
v 14.491301 2.384906 -15.783536
v 14.494267 2.375470 -15.788763
v 14.500158 2.383102 -15.799209
v 14.497183 2.392706 -15.794488
v 14.496175 2.376145 -15.788469
v 14.496345 2.374836 -15.786000
v 14.493307 2.384200 -15.780597
v 14.493155 2.385726 -15.783363
v 14.497354 2.378475 -15.791978
v 14.494216 2.387941 -15.786926
v 14.494369 2.382682 -15.777204
v 14.497478 2.373380 -15.782671
v 14.502071 2.383154 -15.797914
v 14.499256 2.392960 -15.793283
v 14.501065 2.371804 -15.777560
v 14.497874 2.381259 -15.772420
v 14.494707 2.374152 -15.785978
v 14.491682 2.383634 -15.780826
v 14.515290 2.369582 -15.765010
v 14.518527 2.359896 -15.770242
v 14.519436 2.370263 -15.763904
v 14.522528 2.360578 -15.769023
v 14.512598 2.360011 -15.773755
v 14.509396 2.369675 -15.768441
v 14.522488 2.370988 -15.763508
v 14.525888 2.361318 -15.768447
v 14.526728 2.372997 -15.764467
v 14.529595 2.363156 -15.769629
v 14.507550 2.360505 -15.777597
v 14.504445 2.370303 -15.772386
v 14.536006 2.367633 -15.773778
v 14.533339 2.377503 -15.768769
v 14.522182 2.372033 -15.765190
v 14.519486 2.371216 -15.765314
v 14.522679 2.361883 -15.770600
v 14.525392 2.362603 -15.770343
v 14.525955 2.373910 -15.766273
v 14.528960 2.364375 -15.771698
v 14.515900 2.370638 -15.766368
v 14.519242 2.361301 -15.771721
v 14.534667 2.368334 -15.775573
v 14.531971 2.378182 -15.770490
v 14.510335 2.370607 -15.769595
v 14.513557 2.361324 -15.774904
v 14.505608 2.371198 -15.773487
v 14.508607 2.361739 -15.778521
v 14.498106 2.364745 -15.791406
v 14.499456 2.363150 -15.787720
v 14.495070 2.374420 -15.786236
v 14.496321 2.372818 -15.782395
v 14.503338 2.361591 -15.782242
v 14.500116 2.371258 -15.776947
v 14.494600 2.375746 -15.789067
v 14.497441 2.366172 -15.794519
v 14.498676 2.368431 -15.797967
v 14.495611 2.378306 -15.792986
v 14.503113 2.373245 -15.803925
v 14.500190 2.383159 -15.799150
v 14.496623 2.375117 -15.786268
v 14.496462 2.376422 -15.788762
v 14.499881 2.365774 -15.791495
v 14.499569 2.367009 -15.794009
v 14.500972 2.369151 -15.797349
v 14.497603 2.378748 -15.792258
v 14.497803 2.373725 -15.782953
v 14.501114 2.364394 -15.788336
v 14.505095 2.373380 -15.802676
v 14.502096 2.383279 -15.797870
v 14.501352 2.372140 -15.777828
v 14.504638 2.362846 -15.783079
vn -0.4502 -0.6585 0.6030
vn -0.3154 -0.5367 0.7826
vn -0.4959 -0.5410 0.6793
vn -0.2718 -0.6472 0.7122
vn 0.2179 -0.4010 0.8898
vn 0.5746 -0.3910 0.7190
vn 0.5419 -0.2597 0.7993
vn 0.2619 -0.5240 0.8105
vn -0.5744 -0.6425 0.5072
vn -0.6219 -0.5254 0.5807
vn 0.6672 -0.3678 0.6478
vn 0.6282 -0.2111 0.7489
vn -0.2166 0.2027 -0.9550
vn 0.0325 0.4859 -0.8734
vn -0.2828 0.3820 -0.8798
vn 0.0777 0.3277 -0.9416
vn -0.5013 0.0508 -0.8638
vn -0.5752 0.2427 -0.7812
vn 0.3648 0.3789 -0.8505
vn 0.3260 0.5407 -0.7755
vn -0.5921 0.0433 -0.8047
vn -0.6497 0.1961 -0.7345
vn 0.5433 0.3878 -0.7446
vn 0.5040 0.5416 -0.6728
vn 0.6602 0.3759 -0.6503
vn 0.6219 0.5255 -0.5807
vn -0.0335 -0.6094 0.7921
vn -0.0746 -0.4920 0.8674
vn -0.7302 -0.5011 0.4645
vn -0.6801 -0.6193 0.3923
vn -0.8434 -0.4466 0.2987
vn -0.7976 -0.5575 0.2303
vn -0.8167 -0.1537 -0.5562
vn -0.9611 -0.1998 -0.1909
vn -0.8693 -0.0189 -0.4940
vn -0.9088 -0.3243 -0.2625
vn -0.7491 -0.1262 -0.6503
vn -0.8170 0.0355 -0.5755
vn 0.9887 -0.0030 0.1497
vn 0.9431 0.3303 -0.0390
vn 0.9778 0.1741 -0.1166
vn 0.9524 0.1713 0.2523
vn 0.8915 -0.1868 0.4128
vn 0.8507 -0.0006 0.5256
vn 0.8777 0.2915 -0.3805
vn 0.8364 0.4535 -0.3077
vn 0.8385 -0.2008 0.5065
vn 0.8016 -0.0515 0.5956
vn 0.7631 0.3503 -0.5432
vn 0.7234 0.5041 -0.4717
vn -0.8858 -0.4640 0.0111
vn -0.9353 -0.3451 0.0786
vn -0.3306 -0.5312 0.7801
vn -0.1359 -0.3712 0.9186
vn -0.3656 -0.4143 0.8335
vn -0.1010 -0.4901 0.8658
vn -0.4946 -0.5345 0.6853
vn -0.5232 -0.4090 0.7476
vn 0.1745 -0.2701 0.9469
vn 0.2220 -0.3918 0.8929
vn 0.5515 -0.2507 0.7956
vn 0.5063 -0.1159 0.8545
vn -0.6242 -0.5184 0.5845
vn -0.6577 -0.3888 0.6452
vn 0.6298 -0.2090 0.7481
vn 0.5655 -0.0425 0.8237
vn -0.3516 0.5561 -0.7531
vn 0.0166 0.6550 -0.7554
vn 0.0663 0.5078 -0.8589
vn -0.3023 0.3865 -0.8713
vn -0.6295 0.4321 -0.6458
vn -0.5834 0.2472 -0.7736
vn 0.2732 0.6915 -0.6687
vn 0.3239 0.5528 -0.7678
vn -0.6496 0.2056 -0.7319
vn -0.6888 0.3644 -0.6267
vn 0.4269 0.6836 -0.5920
vn 0.4800 0.5491 -0.6842
vn 0.5656 0.6601 -0.4943
vn 0.6215 0.5266 -0.5801
vn -0.8389 -0.4445 0.3142
vn -0.9591 -0.2307 0.1642
vn -0.9315 -0.3484 0.1047
vn -0.8675 -0.3287 0.3735
vn -0.7350 -0.4934 0.4650
vn -0.7672 -0.3680 0.5253
vn -0.9901 -0.0715 -0.1205
vn -0.9627 -0.1897 -0.1929
vn -0.8646 -0.0090 -0.5023
vn -0.8946 0.1231 -0.4296
vn -0.8159 0.0376 -0.5770
vn -0.8551 0.1999 -0.4783
vn 0.8593 0.5112 0.0170
vn 0.8647 0.3486 0.3616
vn 0.9304 0.3603 -0.0669
vn 0.9464 0.1731 0.2728
vn 0.7562 0.1956 0.6244
vn 0.8447 0.0036 0.5353
vn 0.7629 0.6080 -0.2198
vn 0.8312 0.4663 -0.3029
vn 0.8008 -0.0418 0.5974
vn 0.7294 0.1224 0.6731
vn 0.6755 0.6412 -0.3642
vn 0.7376 0.5051 -0.4481
vt 0.414626 0.942136
vt 0.427707 0.953759
vt 0.414626 0.953759
vt 0.427707 0.942136
vt 0.444920 0.953759
vt 0.454379 0.942136
vt 0.454379 0.953759
vt 0.444920 0.942136
vt 0.405791 0.942136
vt 0.405791 0.953759
vt 0.470304 0.942136
vt 0.470304 0.953759
vt 0.444920 0.932492
vt 0.436707 0.922903
vt 0.444920 0.922903
vt 0.436707 0.932492
vt 0.454379 0.932492
vt 0.454379 0.922903
vt 0.427707 0.932492
vt 0.427707 0.922903
vt 0.470304 0.932492
vt 0.470304 0.922903
vt 0.414626 0.932492
vt 0.414626 0.922903
vt 0.405791 0.932492
vt 0.405791 0.922903
vt 0.436543 0.942149
vt 0.436707 0.953759
vt 0.427707 0.992273
vt 0.436707 0.980649
vt 0.427707 0.980649
vt 0.436707 0.992273
vt 0.414626 0.992273
vt 0.414626 0.980649
vt 0.444920 0.980649
vt 0.444920 0.992273
vt 0.454379 0.992273
vt 0.454379 0.980649
vt 0.405791 0.992273
vt 0.405791 0.980649
vt 0.470304 0.992273
vt 0.470304 0.980649
vt 0.444920 0.971006
vt 0.436707 0.971006
vt 0.436707 0.961417
vt 0.444920 0.961417
vt 0.454379 0.971006
vt 0.454379 0.961417
vt 0.427707 0.971006
vt 0.427708 0.961417
vt 0.470304 0.961417
vt 0.470304 0.971006
vt 0.414626 0.971006
vt 0.414626 0.961417
vt 0.405791 0.971006
vt 0.405791 0.961417
vt 0.427708 0.992273
vt 0.414625 0.980649
vt 0.454378 0.971006
vt 0.427707 0.961417
vt 0.470303 0.961417
s 1
usemtl Mat_Face
f 2/1/1 3/2/2 1/3/3
f 2/1/1 4/4/4 3/2/2
f 6/5/5 7/6/6 5/7/7
f 6/5/5 8/8/8 7/6/6
f 9/9/9 2/1/1 1/3/3
f 9/9/9 1/3/3 10/10/10
f 5/7/7 7/6/6 11/11/11
f 5/7/7 11/11/11 12/12/12
f 13/13/13 7/6/6 8/8/8
f 13/13/13 15/14/14 14/15/15
f 13/13/13 16/16/16 15/14/14
f 17/17/17 13/13/13 14/15/15
f 17/17/17 14/15/15 18/18/18
f 13/13/13 17/17/17 7/6/6
f 17/17/17 11/11/11 7/6/6
f 15/14/14 20/19/19 19/20/20
f 15/14/14 16/16/16 20/19/19
f 21/21/21 17/17/17 18/18/18
f 21/21/21 18/18/18 22/22/22
f 17/17/17 21/21/21 11/11/11
f 23/23/23 20/19/19 4/4/4
f 19/20/20 20/19/19 23/23/23
f 23/23/23 4/4/4 2/1/1
f 19/20/20 23/23/23 24/24/24
f 25/25/25 2/1/1 9/9/9
f 25/25/25 23/23/23 2/1/1
f 24/24/24 23/23/23 25/25/25
f 24/24/24 25/25/25 26/26/26
f 6/5/5 27/27/27 8/8/8
f 20/19/19 27/27/27 4/4/4
f 13/13/13 8/8/8 27/27/27
f 20/19/19 16/16/16 27/27/27
f 13/13/13 27/27/27 16/16/16
f 6/5/5 28/28/28 27/27/27
f 4/4/4 27/27/27 28/28/28
f 4/4/4 28/28/28 3/2/2
f 29/3/29 9/9/9 10/10/10
f 29/3/29 30/1/30 9/9/9
f 30/1/30 25/25/25 9/9/9
f 31/2/31 30/1/30 29/3/29
f 31/2/31 32/4/32 30/1/30
f 34/6/33 35/5/34 33/7/35
f 34/6/33 36/8/36 35/5/34
f 37/11/37 34/6/33 33/7/35
f 37/11/37 33/7/35 38/12/38
f 39/13/39 36/8/36 34/6/33
f 39/13/39 41/14/40 40/16/41
f 39/13/39 42/15/42 41/14/40
f 39/13/39 34/6/33 43/17/43
f 42/15/42 39/13/39 43/17/43
f 43/17/43 34/6/33 37/11/37
f 42/15/42 43/17/43 44/18/44
f 46/19/45 41/14/40 45/20/46
f 46/19/45 40/16/41 41/14/40
f 43/17/43 37/11/37 47/21/47
f 44/18/44 43/17/43 47/21/47
f 44/18/44 47/21/47 48/22/48
f 30/1/30 49/23/49 25/25/25
f 49/23/49 46/19/45 45/20/46
f 32/4/32 49/23/49 30/1/30
f 32/4/32 46/19/45 49/23/49
f 25/25/25 50/24/50 26/26/26
f 25/25/25 49/23/49 50/24/50
f 49/23/49 45/20/46 50/24/50
f 51/27/51 35/5/34 36/8/36
f 51/27/51 46/19/45 32/4/32
f 51/27/51 36/8/36 39/13/39
f 51/27/51 39/13/39 40/16/41
f 51/27/51 40/16/41 46/19/45
f 51/27/51 52/28/52 35/5/34
f 32/4/32 52/28/52 51/27/51
f 32/4/32 31/2/31 52/28/52
f 54/29/53 55/30/54 53/31/55
f 54/29/53 56/32/56 55/30/54
f 53/31/55 57/33/57 54/29/53
f 53/31/55 58/34/58 57/33/57
f 56/32/56 59/35/59 55/30/54
f 56/32/56 60/36/60 59/35/59
f 59/35/59 62/37/61 61/38/62
f 59/35/59 60/36/60 62/37/61
f 58/34/58 63/39/63 57/33/57
f 58/34/58 64/40/64 63/39/63
f 61/38/62 62/37/61 65/41/65
f 61/38/62 65/41/65 66/42/66
f 67/43/67 59/35/59 61/38/62
f 68/44/68 59/35/59 67/43/67
f 68/44/68 55/30/54 59/35/59
f 67/43/67 69/45/69 68/44/68
f 67/43/67 70/46/70 69/45/69
f 67/43/67 61/38/62 71/47/71
f 71/47/71 61/38/62 66/42/66
f 71/47/71 70/46/70 67/43/67
f 71/47/71 72/48/72 70/46/70
f 73/49/73 55/30/54 68/44/68
f 73/49/73 53/31/55 55/30/54
f 68/44/68 69/45/69 74/50/74
f 68/44/68 74/50/74 73/49/73
f 71/47/71 75/51/75 72/48/72
f 71/47/71 66/42/66 76/52/76
f 71/47/71 76/52/76 75/51/75
f 77/53/77 58/34/58 53/31/55
f 77/53/77 53/31/55 73/49/73
f 73/49/73 74/50/74 78/54/78
f 73/49/73 78/54/78 77/53/77
f 79/55/79 58/34/58 77/53/77
f 79/55/79 64/40/64 58/34/58
f 77/53/77 78/54/78 80/56/80
f 77/53/77 80/56/80 79/55/79
f 82/57/81 83/30/82 81/32/83
f 82/57/81 84/31/84 83/30/82
f 85/33/85 84/31/84 82/57/81
f 85/33/85 86/58/86 84/31/84
f 63/39/63 64/40/64 86/58/86
f 63/39/63 86/58/86 85/33/85
f 79/55/79 86/58/86 64/40/64
f 81/32/83 83/30/82 87/35/87
f 81/32/83 87/35/87 88/36/88
f 89/37/89 88/36/88 87/35/87
f 89/37/89 87/35/87 90/38/90
f 91/41/91 89/37/89 90/38/90
f 91/41/91 90/38/90 92/42/92
f 93/44/93 87/35/87 83/30/82
f 90/38/90 87/35/87 94/43/94
f 93/44/93 94/43/94 87/35/87
f 95/45/95 94/43/94 93/44/93
f 95/45/95 96/46/96 94/43/94
f 98/59/97 96/46/96 97/48/98
f 90/38/90 94/43/94 98/59/97
f 98/59/97 94/43/94 96/46/96
f 92/42/92 90/38/90 98/59/97
f 99/49/99 83/30/82 84/31/84
f 99/49/99 93/44/93 83/30/82
f 100/60/100 95/45/95 93/44/93
f 100/60/100 93/44/93 99/49/99
f 101/61/101 98/59/97 97/48/98
f 101/61/101 102/52/102 98/59/97
f 92/42/92 98/59/97 102/52/102
f 80/56/80 103/53/103 79/55/79
f 79/55/79 103/53/103 86/58/86
f 103/53/103 99/49/99 84/31/84
f 103/53/103 84/31/84 86/58/86
f 104/54/104 99/49/99 103/53/103
f 80/56/80 104/54/104 103/53/103
f 104/54/104 100/60/100 99/49/99
