# Blender 3.6.5
# www.blender.org
mtllib furina.008.mtl
g furina.008_furina.008
v 14.471465 2.438796 -15.814483
v 14.468516 2.448816 -15.804932
v 14.479997 2.441316 -15.799397
v 14.463394 2.448979 -15.812763
v 14.470946 2.488969 -15.771542
v 14.467669 2.473873 -15.782040
v 14.462796 2.476387 -15.784370
v 14.480166 2.473885 -15.772779
v 14.471633 2.470746 -15.781238
v 14.483903 2.454152 -15.784375
v 14.473487 2.467674 -15.782542
v 14.474676 2.461150 -15.787359
v 14.443707 2.475543 -15.848778
v 14.445632 2.468850 -15.836277
v 14.449103 2.462125 -15.845273
v 14.442657 2.475846 -15.837580
v 14.472252 2.451267 -15.797821
v 14.457276 2.499844 -15.780813
v 14.456198 2.479219 -15.788753
v 14.448524 2.482439 -15.796979
v 14.474024 2.455382 -15.792571
v 14.442146 2.508780 -15.797607
v 14.442674 2.484945 -15.804680
v 14.438879 2.487610 -15.812696
v 14.434158 2.507822 -15.824288
v 14.435954 2.500187 -15.841125
v 14.433617 2.494353 -15.831494
v 14.435539 2.490970 -15.833970
v 14.439183 2.483539 -15.836905
v 14.440135 2.488953 -15.847377
v 14.437397 2.487342 -15.835663
v 14.455904 2.450540 -15.838572
v 14.448283 2.463076 -15.834238
v 14.451347 2.458350 -15.830615
v 14.463185 2.442575 -15.828299
v 14.477324 2.442596 -15.819088
v 14.469698 2.444808 -15.831843
v 14.476165 2.492537 -15.778390
v 14.484347 2.476413 -15.778330
v 14.485575 2.457281 -15.791305
v 14.456426 2.464726 -15.844801
v 14.450905 2.477215 -15.846721
v 14.462726 2.452893 -15.839841
v 14.483408 2.446207 -15.805350
v 14.464232 2.503201 -15.789019
v 14.453270 2.511045 -15.802871
v 14.445766 2.500723 -15.839039
v 14.445894 2.509678 -15.825563
v 14.447373 2.488948 -15.844673
v 14.463411 2.476346 -15.812300
v 14.434947 2.492213 -15.825679
v 14.436481 2.490088 -15.819707
v 14.454591 2.454482 -15.825990
v 14.458475 2.451406 -15.820404
v 14.560549 2.423597 -15.732836
v 14.553219 2.434364 -15.727301
v 14.561289 2.432276 -15.723042
v 14.545617 2.430120 -15.739254
v 14.535403 2.462316 -15.719961
v 14.527634 2.479297 -15.719587
v 14.538488 2.463472 -15.714997
v 14.525448 2.466159 -15.731278
v 14.533768 2.460144 -15.724290
v 14.532956 2.445782 -15.739418
v 14.534357 2.457288 -15.726755
v 14.537807 2.450378 -15.729500
v 14.602837 2.448392 -15.702936
v 14.589219 2.444350 -15.704678
v 14.591982 2.450366 -15.700722
v 14.596572 2.436964 -15.710118
v 14.546432 2.438610 -15.729836
v 14.539669 2.485785 -15.705299
v 14.543765 2.464277 -15.708496
v 14.552958 2.464620 -15.701264
v 14.541910 2.443800 -15.730352
v 14.558831 2.488870 -15.690665
v 14.561378 2.464691 -15.695887
v 14.569991 2.465238 -15.692531
v 14.585382 2.482019 -15.685691
v 14.590026 2.467666 -15.688142
v 14.600373 2.472133 -15.690434
v 14.591702 2.464324 -15.690845
v 14.592969 2.457299 -15.695959
v 14.592570 2.460865 -15.693446
v 14.604159 2.460966 -15.697046
v 14.585980 2.439582 -15.708038
v 14.587408 2.428103 -15.718048
v 14.581349 2.436168 -15.711467
v 14.575368 2.423433 -15.725482
v 14.565350 2.427577 -15.738413
v 14.578797 2.426194 -15.731854
v 14.531061 2.468442 -15.735517
v 14.534636 2.482561 -15.724801
v 14.540207 2.447959 -15.741236
v 14.600620 2.451670 -15.709505
v 14.596070 2.440899 -15.716814
v 14.588604 2.431415 -15.724471
v 14.552110 2.434485 -15.742383
v 14.547842 2.488936 -15.712390
v 14.563627 2.492215 -15.701727
v 14.597738 2.474792 -15.699755
v 14.586149 2.485747 -15.697019
v 14.601001 2.462734 -15.703872
v 14.565828 2.458872 -15.718433
v 14.583839 2.466808 -15.689217
v 14.577487 2.466029 -15.690473
v 14.575881 2.433787 -15.714827
v 14.569569 2.432450 -15.718585
vn 0.2265 0.9660 -0.1246
vn 0.5833 0.6857 -0.4354
vn -0.2479 0.8838 -0.3968
vn 0.6519 0.6983 -0.2955
vn 0.1664 -0.1865 -0.9683
vn 0.5324 0.3613 -0.7655
vn 0.6375 0.2442 -0.7308
vn -0.3233 0.1997 -0.9250
vn 0.5143 0.4116 -0.7523
vn -0.4707 0.5550 -0.6859
vn 0.5047 0.5238 -0.6862
vn 0.4955 0.5366 -0.6830
vn 0.6223 0.2315 0.7477
vn 0.9009 0.4037 0.1592
vn 0.5070 0.4906 0.7087
vn 0.9355 0.3158 0.1586
vn 0.5190 0.6115 -0.5973
vn 0.5005 -0.3174 -0.8054
vn 0.6834 0.1920 -0.7043
vn 0.7803 0.1433 -0.6087
vn 0.5140 0.5744 -0.6370
vn 0.7657 -0.4333 -0.4754
vn 0.8866 0.0957 -0.4525
vn 0.9658 0.0241 -0.2581
vn 0.7893 -0.6139 -0.0123
vn 0.5578 -0.5901 0.5836
vn 0.9981 0.0340 -0.0514
vn 0.9734 0.1440 0.1780
vn 0.9536 0.2513 0.1658
vn 0.5551 -0.1113 0.8243
vn 0.9540 0.2497 0.1662
vn 0.4931 0.7355 0.4645
vn 0.8288 0.5496 0.1050
vn 0.7961 0.6005 0.0747
vn 0.4456 0.8859 0.1291
vn -0.8696 0.0464 0.4916
vn -0.8085 0.0467 0.5867
vn -0.7870 -0.6147 0.0532
vn -0.9344 -0.3275 0.1400
vn -0.9460 -0.1926 0.2606
vn -0.7672 -0.1514 0.6233
vn -0.7517 -0.2473 0.6114
vn -0.7731 -0.0370 0.6332
vn -0.9337 -0.0466 0.3549
vn -0.6601 -0.7475 0.0740
vn -0.5304 -0.8374 0.1317
vn -0.6433 -0.5932 0.4840
vn -0.5174 -0.7999 0.3040
vn -0.7429 -0.3456 0.5734
vn -0.8366 -0.3741 0.4003
vn 0.9959 -0.0196 -0.0879
vn 0.9637 -0.1285 -0.2341
vn 0.7394 0.6714 -0.0504
vn 0.7125 0.6852 -0.1511
vn 0.2827 0.9564 -0.0732
vn 0.5115 0.6979 -0.5013
vn 0.3717 0.7462 -0.5523
vn 0.5679 0.7446 0.3508
vn 0.7795 0.3187 -0.5392
vn 0.9039 -0.3123 -0.2923
vn 0.7166 0.2306 -0.6582
vn 0.9662 -0.0202 0.2569
vn 0.7769 0.3665 -0.5119
vn 0.8070 0.3370 0.4850
vn 0.7330 0.4851 -0.4768
vn 0.7332 0.4961 -0.4651
vn -0.7347 0.4629 -0.4959
vn -0.1455 0.5821 -0.8000
vn -0.1635 0.5031 -0.8486
vn -0.6410 0.6864 -0.3435
vn 0.6609 0.5876 -0.4668
vn 0.6969 -0.3509 -0.6255
vn 0.6778 0.1930 -0.7095
vn 0.5685 0.1795 -0.8029
vn 0.6935 0.5439 -0.4725
vn 0.3335 -0.3596 -0.8715
vn 0.3993 0.1789 -0.8992
vn 0.1901 0.1564 -0.9692
vn -0.1552 -0.4528 -0.8780
vn -0.0133 0.2067 -0.9783
vn -0.7191 -0.3723 -0.5867
vn -0.2161 0.3471 -0.9126
vn -0.1835 0.4455 -0.8763
vn -0.1842 0.4439 -0.8769
vn -0.8676 0.1315 -0.4796
vn -0.0608 0.7014 -0.7102
vn -0.3559 0.8804 -0.3133
vn -0.0196 0.7396 -0.6728
vn 0.0039 0.9612 -0.2757
vn -0.4127 -0.0316 0.9103
vn -0.5103 -0.0042 0.8600
vn -0.1317 -0.4644 0.8758
vn -0.1092 -0.7303 0.6743
vn -0.2245 -0.3157 0.9219
vn -0.5920 -0.2745 0.7577
vn -0.5851 -0.1825 0.7901
vn -0.5734 -0.0711 0.8162
vn -0.2910 -0.1561 0.9439
vn -0.1628 -0.8323 0.5298
vn -0.2450 -0.8861 0.3934
vn -0.5379 -0.6112 0.5806
vn -0.4079 -0.8187 0.4042
vn -0.5734 -0.3744 0.7287
vn -0.4023 -0.4482 0.7983
vn 0.0129 0.1482 -0.9889
vn 0.1390 0.0122 -0.9902
vn 0.1201 0.7770 -0.6180
vn 0.2233 0.7686 -0.5995
vt 0.359959 0.477259
vt 0.365035 0.463977
vt 0.383980 0.472151
vt 0.349107 0.465689
vt 0.392580 0.423436
vt 0.380593 0.430605
vt 0.372340 0.426762
vt 0.406417 0.438296
vt 0.387968 0.435787
vt 0.402995 0.457932
vt 0.393333 0.442043
vt 0.389724 0.449735
vt 0.290040 0.453882
vt 0.302093 0.454731
vt 0.301848 0.464097
vt 0.296572 0.450200
vt 0.377101 0.460373
vt 0.367149 0.415345
vt 0.361834 0.424871
vt 0.344912 0.424411
vt 0.383694 0.455813
vt 0.332955 0.411736
vt 0.328669 0.426155
vt 0.315369 0.429262
vt 0.301298 0.421412
vt 0.282765 0.431403
vt 0.292844 0.438278
vt 0.291013 0.440247
vt 0.293136 0.445068
vt 0.283698 0.442874
vt 0.291591 0.442042
vt 0.317833 0.472011
vt 0.308590 0.458241
vt 0.316052 0.461210
vt 0.336874 0.476484
vt 0.360621 0.476204
vt 0.339462 0.477022
vt 0.389992 0.424840
vt 0.402254 0.438724
vt 0.394325 0.457748
vt 0.310326 0.464651
vt 0.299564 0.454484
vt 0.323325 0.472341
vt 0.379997 0.470312
vt 0.364977 0.417762
vt 0.338285 0.414016
vt 0.295953 0.431722
vt 0.308181 0.420713
vt 0.294386 0.443641
vt 0.346253 0.445499
vt 0.298138 0.434958
vt 0.306133 0.431808
vt 0.322058 0.462763
vt 0.334123 0.465144
vt 0.640041 0.477259
vt 0.634965 0.463977
vt 0.650893 0.465689
vt 0.616020 0.472151
vt 0.619407 0.430605
vt 0.607420 0.423436
vt 0.627660 0.426762
vt 0.593583 0.438296
vt 0.612032 0.435787
vt 0.597005 0.457932
vt 0.606667 0.442043
vt 0.610276 0.449735
vt 0.709960 0.453882
vt 0.697907 0.454731
vt 0.703428 0.450200
vt 0.698152 0.464097
vt 0.622899 0.460373
vt 0.632851 0.415345
vt 0.638166 0.424871
vt 0.655088 0.424411
vt 0.616306 0.455813
vt 0.667045 0.411736
vt 0.671331 0.426155
vt 0.684631 0.429262
vt 0.698702 0.421412
vt 0.707156 0.438278
vt 0.717235 0.431403
vt 0.708987 0.440247
vt 0.706864 0.445068
vt 0.708409 0.442042
vt 0.716302 0.442874
vt 0.691410 0.458241
vt 0.682167 0.472011
vt 0.683948 0.461210
vt 0.663126 0.476484
vt 0.639379 0.476204
vt 0.660538 0.477022
vt 0.597746 0.438724
vt 0.610008 0.424840
vt 0.605675 0.457748
vt 0.700436 0.454484
vt 0.689674 0.464651
vt 0.676675 0.472341
vt 0.620003 0.470312
vt 0.635023 0.417762
vt 0.661715 0.414016
vt 0.704047 0.431722
vt 0.691819 0.420713
vt 0.705614 0.443641
vt 0.653747 0.445499
vt 0.701862 0.434958
vt 0.693867 0.431808
vt 0.677942 0.462763
vt 0.665877 0.465144
s 1
g furina.008_白目.001
usemtl 白目.001
f 1/1/1 2/2/2 3/3/3
f 1/1/1 4/4/4 2/2/2
f 5/5/5 6/6/6 7/7/7
f 8/8/8 6/6/6 5/5/5
f 8/8/8 9/9/9 6/6/6
f 10/10/10 11/11/11 8/8/8
f 8/8/8 11/11/11 9/9/9
f 10/10/10 12/12/12 11/11/11
f 13/13/13 14/14/14 15/15/15
f 13/13/13 16/16/16 14/14/14
f 3/3/3 2/2/2 17/17/17
f 18/18/18 5/5/5 7/7/7
f 18/18/18 7/7/7 19/19/19
f 18/18/18 19/19/19 20/20/20
f 3/3/3 17/17/17 21/21/21
f 3/3/3 21/21/21 10/10/10
f 10/10/10 21/21/21 12/12/12
f 22/22/22 18/18/18 20/20/20
f 22/22/22 20/20/20 23/23/23
f 22/22/22 24/24/24 25/25/25
f 22/22/22 23/23/23 24/24/24
f 26/26/26 27/27/27 28/28/28
f 25/25/25 27/27/27 26/26/26
f 13/13/13 29/29/29 16/16/16
f 13/13/13 30/30/30 29/29/29
f 28/28/28 31/31/31 26/26/26
f 30/30/30 31/31/31 29/29/29
f 30/30/30 26/26/26 31/31/31
f 32/32/32 33/33/33 34/34/34
f 32/32/32 15/15/15 33/33/33
f 15/15/15 14/14/14 33/33/33
f 35/35/35 4/4/4 1/1/1
f 36/36/36 35/35/35 1/1/1
f 36/36/36 37/37/37 35/35/35
f 38/38/38 5/5/5 18/18/18
f 39/39/39 10/10/10 8/8/8
f 39/39/39 5/5/5 38/38/38
f 39/39/39 8/8/8 5/5/5
f 39/39/39 40/40/40 10/10/10
f 40/40/40 3/3/3 10/10/10
f 41/41/41 15/15/15 32/32/32
f 42/42/42 13/13/13 15/15/15
f 42/42/42 15/15/15 41/41/41
f 43/43/43 32/32/32 35/35/35
f 43/43/43 35/35/35 37/37/37
f 41/41/41 32/32/32 43/43/43
f 40/40/40 44/44/44 3/3/3
f 44/44/44 36/36/36 1/1/1
f 44/44/44 1/1/1 3/3/3
f 38/38/38 18/18/18 45/45/45
f 45/45/45 18/18/18 22/22/22
f 45/45/45 22/22/22 46/46/46
f 47/47/47 25/25/25 26/26/26
f 47/47/47 26/26/26 30/30/30
f 48/48/48 46/46/46 22/22/22
f 47/47/47 48/48/48 25/25/25
f 48/48/48 22/22/22 25/25/25
f 47/47/47 30/30/30 49/49/49
f 49/49/49 13/13/13 42/42/42
f 49/49/49 30/30/30 13/13/13
f 50/50/50 48/48/48 47/47/47
f 50/50/50 36/36/36 44/44/44
f 50/50/50 37/37/37 36/36/36
f 50/50/50 39/39/39 38/38/38
f 50/50/50 40/40/40 39/39/39
f 50/50/50 42/42/42 41/41/41
f 50/50/50 43/43/43 37/37/37
f 50/50/50 44/44/44 40/40/40
f 50/50/50 45/45/45 46/46/46
f 50/50/50 46/46/46 48/48/48
f 50/50/50 47/47/47 49/49/49
f 50/50/50 38/38/38 45/45/45
f 50/50/50 41/41/41 43/43/43
f 50/50/50 49/49/49 42/42/42
f 25/25/25 51/51/51 27/27/27
f 25/25/25 52/52/52 51/51/51
f 25/25/25 24/24/24 52/52/52
f 34/34/34 53/53/53 32/32/32
f 35/35/35 32/32/32 53/53/53
f 35/35/35 54/54/54 4/4/4
f 35/35/35 53/53/53 54/54/54
f 55/55/55 56/56/56 57/57/57
f 55/55/55 58/58/58 56/56/56
f 59/59/59 60/60/60 61/61/61
f 62/62/62 60/60/60 59/59/59
f 62/62/62 59/59/59 63/63/63
f 64/64/64 65/65/65 66/66/66
f 64/64/64 62/62/62 65/65/65
f 65/65/65 62/62/62 63/63/63
f 67/67/67 68/68/68 69/69/69
f 67/67/67 70/70/70 68/68/68
f 56/56/56 58/58/58 71/71/71
f 61/61/61 72/72/72 73/73/73
f 73/73/73 72/72/72 74/74/74
f 61/61/61 60/60/60 72/72/72
f 75/75/75 64/64/64 66/66/66
f 58/58/58 75/75/75 71/71/71
f 58/58/58 64/64/64 75/75/75
f 74/74/74 72/72/72 76/76/76
f 74/74/74 76/76/76 77/77/77
f 76/76/76 78/78/78 77/77/77
f 76/76/76 79/79/79 78/78/78
f 80/80/80 81/81/81 82/82/82
f 79/79/79 81/81/81 80/80/80
f 83/83/83 67/67/67 69/69/69
f 84/84/84 82/82/82 81/81/81
f 83/83/83 85/85/85 67/67/67
f 84/84/84 85/85/85 83/83/83
f 84/84/84 81/81/81 85/85/85
f 68/68/68 70/70/70 86/86/86
f 86/86/86 87/87/87 88/88/88
f 86/86/86 70/70/70 87/87/87
f 89/89/89 55/55/55 57/57/57
f 89/89/89 90/90/90 55/55/55
f 89/89/89 91/91/91 90/90/90
f 92/92/92 60/60/60 62/62/62
f 64/64/64 92/92/92 62/62/62
f 93/93/93 72/72/72 60/60/60
f 92/92/92 93/93/93 60/60/60
f 58/58/58 94/94/94 64/64/64
f 64/64/64 94/94/94 92/92/92
f 95/95/95 70/70/70 67/67/67
f 95/95/95 96/96/96 70/70/70
f 96/96/96 87/87/87 70/70/70
f 97/97/97 91/91/91 89/89/89
f 96/96/96 97/97/97 87/87/87
f 97/97/97 89/89/89 87/87/87
f 58/58/58 98/98/98 94/94/94
f 55/55/55 98/98/98 58/58/58
f 55/55/55 90/90/90 98/98/98
f 99/99/99 76/76/76 72/72/72
f 93/93/93 99/99/99 72/72/72
f 99/99/99 100/100/100 76/76/76
f 101/101/101 85/85/85 81/81/81
f 79/79/79 101/101/101 81/81/81
f 79/79/79 102/102/102 101/101/101
f 76/76/76 102/102/102 79/79/79
f 76/76/76 100/100/100 102/102/102
f 101/101/101 103/103/103 85/85/85
f 103/103/103 67/67/67 85/85/85
f 103/103/103 95/95/95 67/67/67
f 103/103/103 104/104/104 95/95/95
f 93/93/93 104/104/104 99/99/99
f 96/96/96 104/104/104 97/97/97
f 90/90/90 104/104/104 98/98/98
f 91/91/91 104/104/104 90/90/90
f 92/92/92 104/104/104 93/93/93
f 101/101/101 104/104/104 103/103/103
f 94/94/94 104/104/104 92/92/92
f 95/95/95 104/104/104 96/96/96
f 97/97/97 104/104/104 91/91/91
f 98/98/98 104/104/104 94/94/94
f 99/99/99 104/104/104 100/100/100
f 100/100/100 104/104/104 102/102/102
f 102/102/102 104/104/104 101/101/101
f 79/79/79 80/80/80 105/105/105
f 78/78/78 79/79/79 106/106/106
f 106/106/106 79/79/79 105/105/105
f 107/107/107 87/87/87 89/89/89
f 107/107/107 88/88/88 87/87/87
f 107/107/107 89/89/89 108/108/108
f 89/89/89 57/57/57 108/108/108
