# Blender 3.6.5
# www.blender.org
mtllib furina.008.mtl
o furina.008
v 14.479995 2.441317 -15.799399
v 14.471463 2.438797 -15.814485
v 14.468513 2.448817 -15.804934
v 14.463391 2.448979 -15.812767
v 14.462794 2.476387 -15.784373
v 14.470944 2.488970 -15.771544
v 14.467668 2.473874 -15.782043
v 14.480165 2.473885 -15.772781
v 14.471630 2.470746 -15.781240
v 14.483901 2.454152 -15.784378
v 14.473485 2.467675 -15.782545
v 14.474674 2.461150 -15.787362
v 14.449101 2.462126 -15.845276
v 14.443706 2.475544 -15.848781
v 14.445630 2.468851 -15.836280
v 14.442655 2.475846 -15.837582
v 14.472250 2.451268 -15.797823
v 14.457274 2.499844 -15.780815
v 14.456196 2.479219 -15.788755
v 14.448523 2.482439 -15.796982
v 14.474022 2.455383 -15.792573
v 14.442143 2.508780 -15.797610
v 14.442672 2.484946 -15.804683
v 14.434155 2.507822 -15.824291
v 14.438877 2.487610 -15.812698
v 14.435536 2.490970 -15.833972
v 14.435952 2.500188 -15.841127
v 14.433614 2.494354 -15.831497
v 14.439181 2.483539 -15.836908
v 14.440133 2.488953 -15.847379
v 14.437395 2.487343 -15.835665
v 14.451345 2.458350 -15.830618
v 14.455902 2.450541 -15.838574
v 14.448281 2.463076 -15.834241
v 14.463183 2.442575 -15.828301
v 14.477324 2.442596 -15.819091
v 14.469696 2.444809 -15.831846
v 14.476163 2.492538 -15.778392
v 14.484345 2.476413 -15.778334
v 14.485573 2.457281 -15.791308
v 14.456423 2.464726 -15.844804
v 14.450903 2.477216 -15.846725
v 14.462723 2.452894 -15.839844
v 14.483405 2.446207 -15.805353
v 14.464231 2.503202 -15.789021
v 14.453267 2.511045 -15.802875
v 14.445764 2.500723 -15.839043
v 14.445891 2.509679 -15.825566
v 14.447371 2.488948 -15.844675
v 14.463409 2.476347 -15.812303
v 14.434944 2.492213 -15.825682
v 14.436479 2.490089 -15.819709
v 14.454589 2.454482 -15.825994
v 14.458473 2.451406 -15.820407
v 14.561286 2.432276 -15.723045
v 14.560547 2.423597 -15.732839
v 14.553216 2.434364 -15.727304
v 14.545615 2.430120 -15.739258
v 14.538486 2.463472 -15.715000
v 14.535401 2.462316 -15.719964
v 14.527632 2.479298 -15.719589
v 14.525446 2.466159 -15.731281
v 14.533766 2.460144 -15.724293
v 14.537805 2.450379 -15.729503
v 14.532953 2.445783 -15.739420
v 14.534355 2.457289 -15.726758
v 14.591980 2.450367 -15.700724
v 14.602834 2.448392 -15.702938
v 14.589218 2.444351 -15.704680
v 14.596569 2.436964 -15.710121
v 14.546429 2.438611 -15.729837
v 14.543763 2.464278 -15.708499
v 14.539667 2.485785 -15.705301
v 14.552956 2.464620 -15.701267
v 14.541907 2.443800 -15.730356
v 14.558829 2.488871 -15.690667
v 14.561376 2.464691 -15.695889
v 14.569989 2.465238 -15.692533
v 14.585380 2.482019 -15.685694
v 14.591700 2.464325 -15.690847
v 14.590025 2.467666 -15.688145
v 14.600370 2.472133 -15.690436
v 14.592968 2.457299 -15.695962
v 14.592567 2.460866 -15.693448
v 14.604157 2.460966 -15.697049
v 14.585979 2.439582 -15.708041
v 14.581347 2.436168 -15.711470
v 14.587405 2.428103 -15.718051
v 14.575366 2.423434 -15.725485
v 14.565348 2.427577 -15.738416
v 14.578794 2.426194 -15.731856
v 14.531059 2.468443 -15.735519
v 14.534634 2.482561 -15.724803
v 14.540204 2.447960 -15.741238
v 14.600618 2.451671 -15.709509
v 14.596068 2.440900 -15.716817
v 14.588602 2.431415 -15.724474
v 14.552108 2.434485 -15.742386
v 14.547840 2.488936 -15.712393
v 14.563625 2.492216 -15.701730
v 14.597736 2.474793 -15.699758
v 14.586147 2.485748 -15.697021
v 14.600998 2.462735 -15.703875
v 14.565826 2.458872 -15.718436
v 14.583838 2.466808 -15.689219
v 14.577485 2.466029 -15.690475
v 14.575879 2.433787 -15.714829
v 14.569567 2.432451 -15.718589
vn 0.2265 0.9660 -0.1246
vn 0.5833 0.6856 -0.4356
vn -0.2478 0.8838 -0.3969
vn 0.6519 0.6983 -0.2955
vn 0.1664 -0.1864 -0.9683
vn 0.5325 0.3611 -0.7656
vn 0.6374 0.2441 -0.7308
vn -0.3232 0.1997 -0.9250
vn 0.5145 0.4113 -0.7524
vn -0.4707 0.5549 -0.6859
vn 0.5048 0.5239 -0.6861
vn 0.4956 0.5365 -0.6831
vn 0.6224 0.2314 0.7477
vn 0.9009 0.4037 0.1592
vn 0.5070 0.4906 0.7087
vn 0.9355 0.3156 0.1586
vn 0.5190 0.6117 -0.5970
vn 0.5005 -0.3174 -0.8054
vn 0.6834 0.1920 -0.7043
vn 0.7804 0.1433 -0.6087
vn 0.5141 0.5745 -0.6369
vn 0.7657 -0.4333 -0.4754
vn 0.8865 0.0957 -0.4527
vn 0.9658 0.0241 -0.2583
vn 0.7893 -0.6139 -0.0124
vn 0.5578 -0.5901 0.5836
vn 0.9981 0.0340 -0.0513
vn 0.9735 0.1439 0.1777
vn 0.9536 0.2513 0.1659
vn 0.5551 -0.1112 0.8243
vn 0.9540 0.2496 0.1662
vn 0.4931 0.7355 0.4646
vn 0.8288 0.5496 0.1051
vn 0.7961 0.6005 0.0749
vn 0.4456 0.8859 0.1291
vn -0.8696 0.0464 0.4916
vn -0.8085 0.0467 0.5867
vn -0.7870 -0.6147 0.0531
vn -0.9344 -0.3275 0.1399
vn -0.9460 -0.1926 0.2606
vn -0.7672 -0.1514 0.6233
vn -0.7516 -0.2473 0.6114
vn -0.7731 -0.0370 0.6332
vn -0.9338 -0.0465 0.3548
vn -0.6601 -0.7475 0.0741
vn -0.5304 -0.8374 0.1318
vn -0.6433 -0.5931 0.4841
vn -0.5174 -0.8000 0.3040
vn -0.7428 -0.3455 0.5734
vn -0.8366 -0.3741 0.4003
vn 0.9959 -0.0197 -0.0878
vn 0.9636 -0.1285 -0.2344
vn 0.7394 0.6714 -0.0504
vn 0.7126 0.6851 -0.1511
vn 0.2827 0.9564 -0.0731
vn 0.5115 0.6979 -0.5014
vn 0.3717 0.7461 -0.5524
vn 0.5679 0.7446 0.3508
vn 0.7794 0.3189 -0.5392
vn 0.9039 -0.3123 -0.2923
vn 0.7166 0.2306 -0.6582
vn 0.9663 -0.0203 0.2568
vn 0.7770 0.3665 -0.5118
vn 0.8070 0.3369 0.4850
vn 0.7331 0.4850 -0.4768
vn 0.7331 0.4960 -0.4653
vn -0.7346 0.4629 -0.4960
vn -0.1455 0.5823 -0.7999
vn -0.1635 0.5031 -0.8486
vn -0.6409 0.6865 -0.3435
vn 0.6609 0.5875 -0.4671
vn 0.6969 -0.3509 -0.6255
vn 0.6779 0.1929 -0.7094
vn 0.5685 0.1795 -0.8029
vn 0.6935 0.5439 -0.4725
vn 0.3335 -0.3595 -0.8715
vn 0.3993 0.1788 -0.8992
vn 0.1901 0.1565 -0.9692
vn -0.1552 -0.4528 -0.8780
vn -0.0133 0.2066 -0.9783
vn -0.7191 -0.3723 -0.5868
vn -0.2162 0.3469 -0.9126
vn -0.1835 0.4454 -0.8763
vn -0.1842 0.4439 -0.8769
vn -0.8676 0.1315 -0.4796
vn -0.0608 0.7014 -0.7102
vn -0.3559 0.8804 -0.3135
vn -0.0196 0.7397 -0.6727
vn 0.0039 0.9612 -0.2757
vn -0.4127 -0.0316 0.9103
vn -0.5102 -0.0042 0.8601
vn -0.1315 -0.4645 0.8758
vn -0.1092 -0.7304 0.6743
vn -0.2245 -0.3157 0.9219
vn -0.5921 -0.2746 0.7576
vn -0.5852 -0.1824 0.7901
vn -0.5736 -0.0711 0.8161
vn -0.2910 -0.1562 0.9439
vn -0.1629 -0.8323 0.5298
vn -0.2450 -0.8861 0.3934
vn -0.5380 -0.6111 0.5806
vn -0.4079 -0.8186 0.4043
vn -0.5734 -0.3744 0.7287
vn -0.4023 -0.4482 0.7983
vn 0.0128 0.1481 -0.9889
vn 0.1390 0.0122 -0.9902
vn 0.1202 0.7770 -0.6179
vn 0.2234 0.7686 -0.5995
vt 0.359959 0.477259
vt 0.365035 0.463977
vt 0.383980 0.472151
vt 0.349107 0.465689
vt 0.392580 0.423436
vt 0.380593 0.430605
vt 0.372340 0.426762
vt 0.406417 0.438296
vt 0.387968 0.435787
vt 0.402995 0.457932
vt 0.393333 0.442043
vt 0.389724 0.449735
vt 0.290040 0.453882
vt 0.302093 0.454731
vt 0.301848 0.464097
vt 0.296572 0.450200
vt 0.377101 0.460373
vt 0.367149 0.415345
vt 0.361834 0.424871
vt 0.344912 0.424411
vt 0.383694 0.455813
vt 0.332955 0.411736
vt 0.328669 0.426155
vt 0.315369 0.429262
vt 0.301298 0.421412
vt 0.282765 0.431403
vt 0.292844 0.438278
vt 0.291013 0.440247
vt 0.293136 0.445068
vt 0.283698 0.442874
vt 0.291591 0.442042
vt 0.317833 0.472011
vt 0.308590 0.458241
vt 0.316052 0.461210
vt 0.336874 0.476484
vt 0.360621 0.476204
vt 0.339462 0.477022
vt 0.389992 0.424840
vt 0.402254 0.438724
vt 0.394325 0.457748
vt 0.310326 0.464651
vt 0.299564 0.454484
vt 0.323325 0.472341
vt 0.379997 0.470312
vt 0.364977 0.417762
vt 0.338285 0.414016
vt 0.295953 0.431722
vt 0.308181 0.420713
vt 0.294386 0.443641
vt 0.346253 0.445499
vt 0.298138 0.434958
vt 0.306133 0.431808
vt 0.322058 0.462763
vt 0.334123 0.465144
vt 0.640041 0.477259
vt 0.634965 0.463977
vt 0.650893 0.465689
vt 0.616020 0.472151
vt 0.619407 0.430605
vt 0.607420 0.423436
vt 0.627660 0.426762
vt 0.593583 0.438296
vt 0.612032 0.435787
vt 0.597005 0.457932
vt 0.606667 0.442043
vt 0.610276 0.449735
vt 0.709960 0.453882
vt 0.697907 0.454731
vt 0.703428 0.450200
vt 0.698152 0.464097
vt 0.622899 0.460373
vt 0.632851 0.415345
vt 0.638166 0.424871
vt 0.655088 0.424411
vt 0.616306 0.455813
vt 0.667045 0.411736
vt 0.671331 0.426155
vt 0.684631 0.429262
vt 0.698702 0.421412
vt 0.707156 0.438278
vt 0.717235 0.431403
vt 0.708987 0.440247
vt 0.706864 0.445068
vt 0.708409 0.442042
vt 0.716302 0.442874
vt 0.691410 0.458241
vt 0.682167 0.472011
vt 0.683948 0.461210
vt 0.663126 0.476484
vt 0.639379 0.476204
vt 0.660538 0.477022
vt 0.597746 0.438724
vt 0.610008 0.424840
vt 0.605675 0.457748
vt 0.700436 0.454484
vt 0.689674 0.464651
vt 0.676675 0.472341
vt 0.620003 0.470312
vt 0.635023 0.417762
vt 0.661715 0.414016
vt 0.704047 0.431722
vt 0.691819 0.420713
vt 0.705614 0.443641
vt 0.653747 0.445499
vt 0.701862 0.434958
vt 0.693867 0.431808
vt 0.677942 0.462763
vt 0.665877 0.465144
s 1
usemtl Mat_Face.007
f 2/1/1 3/2/2 1/3/3
f 2/1/1 4/4/4 3/2/2
f 6/5/5 7/6/6 5/7/7
f 8/8/8 7/6/6 6/5/5
f 8/8/8 9/9/9 7/6/6
f 10/10/10 11/11/11 8/8/8
f 8/8/8 11/11/11 9/9/9
f 10/10/10 12/12/12 11/11/11
f 14/13/13 15/14/14 13/15/15
f 14/13/13 16/16/16 15/14/14
f 1/3/3 3/2/2 17/17/17
f 18/18/18 6/5/5 5/7/7
f 18/18/18 5/7/7 19/19/19
f 18/18/18 19/19/19 20/20/20
f 1/3/3 17/17/17 21/21/21
f 1/3/3 21/21/21 10/10/10
f 10/10/10 21/21/21 12/12/12
f 22/22/22 18/18/18 20/20/20
f 22/22/22 20/20/20 23/23/23
f 22/22/22 25/24/24 24/25/25
f 22/22/22 23/23/23 25/24/24
f 27/26/26 28/27/27 26/28/28
f 24/25/25 28/27/27 27/26/26
f 14/13/13 29/29/29 16/16/16
f 14/13/13 30/30/30 29/29/29
f 26/28/28 31/31/31 27/26/26
f 30/30/30 31/31/31 29/29/29
f 30/30/30 27/26/26 31/31/31
f 33/32/32 34/33/33 32/34/34
f 33/32/32 13/15/15 34/33/33
f 13/15/15 15/14/14 34/33/33
f 35/35/35 4/4/4 2/1/1
f 36/36/36 35/35/35 2/1/1
f 36/36/36 37/37/37 35/35/35
f 38/38/38 6/5/5 18/18/18
f 39/39/39 10/10/10 8/8/8
f 39/39/39 6/5/5 38/38/38
f 39/39/39 8/8/8 6/5/5
f 39/39/39 40/40/40 10/10/10
f 40/40/40 1/3/3 10/10/10
f 41/41/41 13/15/15 33/32/32
f 42/42/42 14/13/13 13/15/15
f 42/42/42 13/15/15 41/41/41
f 43/43/43 33/32/32 35/35/35
f 43/43/43 35/35/35 37/37/37
f 41/41/41 33/32/32 43/43/43
f 40/40/40 44/44/44 1/3/3
f 44/44/44 36/36/36 2/1/1
f 44/44/44 2/1/1 1/3/3
f 38/38/38 18/18/18 45/45/45
f 45/45/45 18/18/18 22/22/22
f 45/45/45 22/22/22 46/46/46
f 47/47/47 24/25/25 27/26/26
f 47/47/47 27/26/26 30/30/30
f 48/48/48 46/46/46 22/22/22
f 47/47/47 48/48/48 24/25/25
f 48/48/48 22/22/22 24/25/25
f 47/47/47 30/30/30 49/49/49
f 49/49/49 14/13/13 42/42/42
f 49/49/49 30/30/30 14/13/13
f 50/50/50 48/48/48 47/47/47
f 50/50/50 36/36/36 44/44/44
f 50/50/50 37/37/37 36/36/36
f 50/50/50 39/39/39 38/38/38
f 50/50/50 40/40/40 39/39/39
f 50/50/50 42/42/42 41/41/41
f 50/50/50 43/43/43 37/37/37
f 50/50/50 44/44/44 40/40/40
f 50/50/50 45/45/45 46/46/46
f 50/50/50 46/46/46 48/48/48
f 50/50/50 47/47/47 49/49/49
f 50/50/50 38/38/38 45/45/45
f 50/50/50 41/41/41 43/43/43
f 50/50/50 49/49/49 42/42/42
f 24/25/25 51/51/51 28/27/27
f 24/25/25 52/52/52 51/51/51
f 24/25/25 25/24/24 52/52/52
f 32/34/34 53/53/53 33/32/32
f 35/35/35 33/32/32 53/53/53
f 35/35/35 54/54/54 4/4/4
f 35/35/35 53/53/53 54/54/54
f 56/55/55 57/56/56 55/57/57
f 56/55/55 58/58/58 57/56/56
f 60/59/59 61/60/60 59/61/61
f 62/62/62 61/60/60 60/59/59
f 62/62/62 60/59/59 63/63/63
f 65/64/64 66/65/65 64/66/66
f 65/64/64 62/62/62 66/65/65
f 66/65/65 62/62/62 63/63/63
f 68/67/67 69/68/68 67/69/69
f 68/67/67 70/70/70 69/68/68
f 57/56/56 58/58/58 71/71/71
f 59/61/61 73/72/72 72/73/73
f 72/73/73 73/72/72 74/74/74
f 59/61/61 61/60/60 73/72/72
f 75/75/75 65/64/64 64/66/66
f 58/58/58 75/75/75 71/71/71
f 58/58/58 65/64/64 75/75/75
f 74/74/74 73/72/72 76/76/76
f 74/74/74 76/76/76 77/77/77
f 76/76/76 78/78/78 77/77/77
f 76/76/76 79/79/79 78/78/78
f 81/80/80 82/81/81 80/82/82
f 79/79/79 82/81/81 81/80/80
f 83/83/83 68/67/67 67/69/69
f 84/84/84 80/82/82 82/81/81
f 83/83/83 85/85/85 68/67/67
f 84/84/84 85/85/85 83/83/83
f 84/84/84 82/81/81 85/85/85
f 69/68/68 70/70/70 86/86/86
f 86/86/86 88/87/87 87/88/88
f 86/86/86 70/70/70 88/87/87
f 89/89/89 56/55/55 55/57/57
f 89/89/89 90/90/90 56/55/55
f 89/89/89 91/91/91 90/90/90
f 92/92/92 61/60/60 62/62/62
f 65/64/64 92/92/92 62/62/62
f 93/93/93 73/72/72 61/60/60
f 92/92/92 93/93/93 61/60/60
f 58/58/58 94/94/94 65/64/64
f 65/64/64 94/94/94 92/92/92
f 95/95/95 70/70/70 68/67/67
f 95/95/95 96/96/96 70/70/70
f 96/96/96 88/87/87 70/70/70
f 97/97/97 91/91/91 89/89/89
f 96/96/96 97/97/97 88/87/87
f 97/97/97 89/89/89 88/87/87
f 58/58/58 98/98/98 94/94/94
f 56/55/55 98/98/98 58/58/58
f 56/55/55 90/90/90 98/98/98
f 99/99/99 76/76/76 73/72/72
f 93/93/93 99/99/99 73/72/72
f 99/99/99 100/100/100 76/76/76
f 101/101/101 85/85/85 82/81/81
f 79/79/79 101/101/101 82/81/81
f 79/79/79 102/102/102 101/101/101
f 76/76/76 102/102/102 79/79/79
f 76/76/76 100/100/100 102/102/102
f 101/101/101 103/103/103 85/85/85
f 103/103/103 68/67/67 85/85/85
f 103/103/103 95/95/95 68/67/67
f 103/103/103 104/104/104 95/95/95
f 93/93/93 104/104/104 99/99/99
f 96/96/96 104/104/104 97/97/97
f 90/90/90 104/104/104 98/98/98
f 91/91/91 104/104/104 90/90/90
f 92/92/92 104/104/104 93/93/93
f 101/101/101 104/104/104 103/103/103
f 94/94/94 104/104/104 92/92/92
f 95/95/95 104/104/104 96/96/96
f 97/97/97 104/104/104 91/91/91
f 98/98/98 104/104/104 94/94/94
f 99/99/99 104/104/104 100/100/100
f 100/100/100 104/104/104 102/102/102
f 102/102/102 104/104/104 101/101/101
f 79/79/79 81/80/80 105/105/105
f 78/78/78 79/79/79 106/106/106
f 106/106/106 79/79/79 105/105/105
f 107/107/107 88/87/87 89/89/89
f 107/107/107 87/88/88 88/87/87
f 107/107/107 89/89/89 108/108/108
f 89/89/89 55/57/57 108/108/108
