# Blender 3.6.5
# www.blender.org
mtllib furina.016.mtl
g furina.016_furina.016
v 14.737938 1.774245 -15.803003
v 14.735627 1.783623 -15.801935
v 14.737064 1.773558 -15.804523
v 14.731643 1.780603 -15.808562
v 14.740876 1.772591 -15.803023
v 14.737855 1.772833 -15.801327
v 14.738823 1.769971 -15.802774
v 14.735627 1.783623 -15.801935
v 14.735797 1.792999 -15.811449
v 14.731643 1.780603 -15.808562
v 14.742883 1.783073 -15.805927
v 14.735797 1.792999 -15.811449
v 14.735627 1.783623 -15.801935
v 14.737064 1.773558 -15.804523
v 14.731643 1.780603 -15.808562
v 14.739566 1.774107 -15.803937
v 14.742883 1.783073 -15.805927
v 14.742883 1.783073 -15.805927
v 14.731643 1.780603 -15.808562
v 14.735797 1.792999 -15.811449
v 14.736216 1.771568 -15.804116
v 14.737855 1.772833 -15.801327
v 14.737064 1.773558 -15.804523
v 14.737938 1.774245 -15.803003
v 14.742883 1.783073 -15.805927
v 14.735627 1.783623 -15.801935
v 14.739566 1.774107 -15.803937
v 14.737938 1.774245 -15.803003
v 14.740876 1.772591 -15.803023
v 14.736216 1.771568 -15.804116
v 14.739566 1.774107 -15.803937
v 14.737064 1.773558 -15.804523
v 14.739566 1.774107 -15.803937
v 14.737938 1.774245 -15.803003
v 14.740876 1.772591 -15.803023
v 14.737855 1.772833 -15.801327
v 14.736216 1.771568 -15.804116
v 14.738823 1.769971 -15.802774
v 14.737855 1.772833 -15.801327
v 14.740876 1.772591 -15.803023
v 14.738823 1.769971 -15.802774
v 14.736216 1.771568 -15.804116
vn -0.7830 -0.3065 0.5413
vn -0.7836 -0.3071 0.5401
vn -0.7833 -0.3068 0.5407
vn -0.7837 -0.3073 0.5398
vn 0.4334 -0.2939 0.8519
vn -0.8843 0.3278 0.3326
vn 0.3603 0.6335 0.6847
vn 0.3217 -0.2598 -0.9105
vn 0.3216 -0.2599 -0.9105
vn 0.3216 -0.2598 -0.9105
vn 0.3216 -0.2594 -0.9106
vn -0.8765 0.3823 0.2926
vn -0.8769 0.3815 0.2923
vn -0.8768 0.3817 0.2924
vn -0.8774 0.3807 0.2919
vn 0.4548 -0.0026 0.8906
vn 0.4546 -0.0026 0.8907
vn 0.4543 -0.0025 0.8909
vn 0.4539 -0.0024 0.8911
vn 0.3214 -0.2594 -0.9107
vn 0.3217 -0.2597 -0.9105
vn 0.3215 -0.2595 -0.9106
vn 0.3219 -0.2601 -0.9104
vn 0.3502 0.6848 0.6391
vn 0.3515 0.6830 0.6403
vn 0.3512 0.6834 0.6401
vn 0.3521 0.6821 0.6409
vn -0.6225 -0.5553 0.5514
vn -0.6225 -0.5553 0.5515
vn 0.3216 -0.2604 -0.9104
vt 0.644614 0.915987
vt 0.656037 0.915987
vt 0.644614 0.913510
vt 0.656037 0.906296
vt 0.642064 0.919684
vt 0.642064 0.915987
vt 0.638608 0.915987
vt 0.671834 0.915987
vt 0.656037 0.925678
vt 0.512759 0.975660
vt 0.515888 0.969785
vt 0.510968 0.975660
vt 0.507840 0.969785
vt 0.511864 0.961593
vt 0.642064 0.912291
vt 0.644614 0.918464
vt 0.510196 0.976946
vt 0.513532 0.976946
vt 0.511864 0.978494
s 1
g furina.016_服饰2.001
usemtl 服饰2.001
f 1/1/1 2/2/2 3/3/3
f 4/4/4 3/3/3 2/2/2
f 5/5/5 6/6/5 7/7/5
f 8/2/6 9/8/6 10/4/6
f 11/9/7 12/8/7 13/2/7
f 14/10/8 15/11/9 16/12/10
f 17/13/9 16/12/10 15/11/9
f 18/13/11 19/11/11 20/14/11
f 21/15/12 22/6/13 23/3/14
f 24/1/15 23/3/14 22/6/13
f 25/9/16 26/2/17 27/16/18
f 28/1/19 27/16/18 26/2/17
f 29/17/20 30/18/21 31/12/22
f 32/10/23 31/12/22 30/18/21
f 33/16/24 34/1/25 35/5/26
f 36/6/27 35/5/26 34/1/25
f 37/15/28 38/7/28 39/6/29
f 40/17/30 41/19/30 42/18/30
