# Blender 3.6.5
# www.blender.org
mtllib furina.022.mtl
g furina.022_furina.022
v 15.108667 1.596659 -15.874677
v 15.094559 1.619622 -15.843616
v 15.143479 1.591189 -15.841954
v 15.152755 1.575618 -15.859200
v 14.488844 1.619623 -16.326715
v 14.515988 1.596659 -16.347378
v 14.476343 1.591190 -16.374044
v 14.491095 1.575619 -16.386923
v 15.082865 1.611383 -15.913725
v 15.072948 1.626624 -15.877822
v 15.158468 1.557556 -15.875009
v 15.118609 1.565728 -15.908868
v 14.976087 1.750928 -15.860645
v 14.934255 1.805028 -15.864522
v 14.954457 1.741845 -15.842103
v 14.948719 1.808702 -15.898678
v 14.912560 1.858112 -15.903064
v 14.951790 1.813434 -15.933079
v 15.040398 1.660851 -15.843997
v 15.009163 1.705198 -15.857800
v 14.994011 1.698174 -15.842450
v 15.048567 1.660167 -15.882208
v 14.527000 1.626625 -16.313251
v 14.559796 1.611383 -16.330908
v 14.547112 1.565728 -16.364679
v 14.505237 1.557557 -16.396008
v 14.529338 1.794992 -16.149874
v 14.544879 1.805029 -16.175077
v 14.518528 1.741845 -16.189787
v 14.574961 1.808702 -16.196777
v 14.587280 1.858113 -16.162498
v 14.631092 1.911421 -16.141609
v 14.619674 1.862719 -16.174942
v 14.607818 1.813435 -16.207424
v 14.501260 1.660852 -16.273998
v 14.531795 1.750928 -16.215000
v 14.510069 1.698174 -16.228424
v 14.521664 1.705198 -16.246613
v 14.536696 1.660169 -16.290459
v 15.006902 1.474810 -16.244070
v 15.069007 1.349154 -16.272100
v 15.042127 1.326549 -16.322491
v 15.101886 1.246188 -16.327787
v 15.125289 1.269374 -16.277779
v 15.078320 1.231959 -16.367981
v 15.012323 1.314421 -16.361782
v 15.084264 1.378257 -16.225437
v 15.038271 1.494468 -16.182249
v 14.987984 1.583671 -16.185951
v 15.094723 1.584507 -15.996196
v 15.138699 1.515783 -15.989056
v 15.073483 1.549354 -16.051207
v 15.115541 1.477875 -16.045338
v 15.075873 1.437302 -16.103149
v 15.102031 1.395962 -16.097324
v 15.132045 1.372750 -16.130079
v 15.089565 1.418594 -16.164867
v 15.039821 1.507177 -16.099474
v 15.180752 1.421555 -16.018263
v 15.142495 1.403083 -16.060432
v 15.004827 1.587973 -16.099081
v 15.037762 1.616356 -16.052444
v 14.832325 1.872424 -16.136103
v 14.857396 1.871633 -16.108973
v 14.852911 1.822002 -16.161909
v 14.926125 1.818991 -16.044647
v 14.903016 1.818226 -16.083803
v 14.896197 1.869273 -16.041443
v 15.187599 1.479834 -15.941916
v 15.197494 1.450550 -15.975912
v 15.131498 1.544062 -15.942882
v 15.161215 1.512334 -15.917048
v 15.157926 1.530457 -15.894853
v 15.092183 1.601869 -15.950926
v 15.050750 1.652324 -15.918870
v 15.144817 1.338048 -16.168335
v 15.139462 1.299566 -16.228827
v 15.044915 1.234031 -16.402651
v 15.070052 1.216260 -16.393873
v 15.065109 1.184225 -16.427971
v 14.962274 1.463835 -16.299034
v 14.829234 1.903394 -15.849859
v 14.874504 1.846491 -15.846486
v 14.856389 1.906117 -15.874617
v 14.896317 1.855016 -15.868978
v 14.875528 1.909715 -15.906866
v 14.882449 1.911421 -15.941132
v 14.918971 1.867359 -15.969184
v 14.911787 1.869286 -16.005373
v 14.878157 1.916475 -16.003235
v 14.863896 1.917267 -16.035440
v 14.876379 1.867760 -16.074427
v 14.846780 1.917068 -16.061701
v 14.828139 1.917742 -16.086582
v 14.917486 1.862719 -15.937413
v 14.952232 1.817944 -15.967742
v 14.987093 1.753818 -15.893899
v 14.988966 1.755892 -15.928114
v 14.990003 1.759183 -15.964464
v 14.883316 1.821154 -16.127705
v 14.913110 1.753135 -16.146973
v 14.935984 1.752635 -16.091827
v 14.973145 1.669654 -16.097525
v 14.950300 1.668350 -16.169048
v 14.876961 1.753891 -16.192060
v 14.884330 1.914089 -15.970154
v 14.967387 1.326549 -16.382099
v 14.898765 1.474811 -16.330320
v 14.912280 1.349154 -16.397100
v 14.959259 1.246188 -16.441544
v 14.905298 1.269375 -16.453238
v 15.003684 1.231959 -16.427507
v 14.863391 1.378257 -16.401598
v 14.831511 1.494467 -16.347149
v 14.846310 1.583671 -16.298948
v 14.637563 1.584507 -16.360811
v 14.695924 1.549357 -16.352341
v 14.620822 1.515782 -16.402100
v 14.680847 1.477876 -16.392036
v 14.734534 1.395963 -16.390429
v 14.746033 1.437302 -16.366222
v 14.759793 1.372752 -16.426975
v 14.750469 1.507179 -16.330257
v 14.803162 1.418595 -16.393297
v 14.689566 1.403084 -16.421675
v 14.639945 1.421555 -16.449594
v 14.757869 1.587973 -16.296049
v 14.651172 1.640544 -16.327669
v 14.705077 1.616357 -16.317787
v 14.905705 1.662449 -16.228106
v 14.838205 1.668349 -16.258446
v 14.812799 1.821153 -16.183945
v 14.800299 1.871633 -16.154510
v 14.594931 1.450550 -16.456497
v 14.563987 1.479833 -16.439291
v 14.577404 1.544061 -16.384809
v 14.545608 1.512333 -16.408037
v 14.524704 1.530457 -16.399893
v 14.593997 1.601870 -16.348265
v 14.854424 1.299567 -16.456167
v 14.794252 1.338049 -16.447937
v 15.030767 1.216260 -16.425207
v 14.557661 1.855017 -16.139082
v 14.540585 1.846491 -16.112814
v 14.572039 1.906117 -16.101408
v 14.599224 1.909715 -16.127239
v 14.687196 1.869287 -16.184498
v 14.650318 1.867359 -16.183455
v 14.692594 1.916475 -16.151234
v 14.658968 1.914090 -16.149895
v 14.725832 1.869273 -16.177322
v 14.727164 1.917267 -16.144493
v 14.762396 1.867760 -16.165337
v 14.756575 1.917068 -16.133648
v 14.784978 1.917743 -16.121006
v 14.641515 1.817945 -16.215561
v 14.561767 1.753818 -16.233124
v 14.594711 1.755893 -16.242561
v 14.629920 1.759184 -16.251659
v 14.824959 1.753133 -16.217278
v 14.766105 1.752632 -16.227314
v 14.765614 1.818224 -16.193388
v 14.763399 1.669655 -16.264814
v 14.549798 1.705478 -16.262875
v 14.571957 1.652324 -16.300739
v 15.059387 1.640542 -16.002087
v 14.931830 1.569114 -16.260860
v 14.944535 1.818553 -16.005754
v 15.059975 1.650041 -15.956597
v 14.913139 1.794992 -15.843765
v 14.808753 1.919130 -16.106546
v 14.983656 1.758429 -16.005886
v 14.963334 1.755196 -16.048706
v 15.019740 1.701348 -15.923956
v 15.023515 1.695755 -16.004930
v 15.027240 1.701406 -15.961143
v 15.002005 1.683268 -16.051401
v 15.018761 1.705478 -15.888844
v 14.680285 1.818554 -16.216509
v 14.722300 1.818990 -16.207209
v 14.606690 1.650042 -16.318123
v 14.553940 1.903394 -16.069426
v 14.671716 1.758429 -16.254683
v 14.717982 1.755195 -16.244392
v 14.583814 1.701348 -16.271641
v 14.618402 1.701406 -16.287222
v 14.661918 1.695757 -16.293329
v 14.712008 1.683270 -16.282694
vn 0.7680 0.6336 0.0933
vn 0.7354 0.6474 0.2002
vn 0.7517 0.6402 0.1584
vn 0.7689 0.6313 0.1013
vn -0.3587 0.6474 -0.6725
vn -0.2617 0.6336 -0.7280
vn -0.3215 0.6402 -0.6977
vn -0.2697 0.6314 -0.7271
vn 0.7857 0.6186 0.0033
vn 0.7584 0.6396 0.1253
vn 0.7821 0.6212 0.0491
vn 0.7910 0.6115 -0.0190
vn 0.6804 0.6397 0.3574
vn 0.6623 0.6167 0.4255
vn 0.6078 0.6299 0.4836
vn 0.7457 0.6228 0.2368
vn 0.7540 0.5964 0.2752
vn 0.7824 0.6167 0.0865
vn 0.6961 0.6545 0.2951
vn 0.6972 0.6493 0.3040
vn 0.6500 0.6493 0.3949
vn 0.7526 0.6416 0.1484
vn -0.2908 0.6396 -0.7116
vn -0.1780 0.6186 -0.7653
vn -0.1574 0.6115 -0.7754
vn -0.2218 0.6212 -0.7516
vn -0.6930 0.5924 -0.4110
vn -0.5622 0.6167 -0.5510
vn -0.6066 0.6299 -0.4850
vn -0.3967 0.6228 -0.6744
vn -0.4360 0.5965 -0.6739
vn -0.3342 0.5008 -0.7985
vn -0.2764 0.5881 -0.7601
vn -0.2583 0.6167 -0.7436
vn -0.4425 0.6545 -0.6130
vn -0.4998 0.6397 -0.5839
vn -0.5296 0.6493 -0.5458
vn -0.4514 0.6493 -0.6121
vn -0.3120 0.6416 -0.7007
vn 0.6112 0.4670 -0.6390
vn 0.6431 0.4077 -0.6483
vn 0.6080 0.3971 -0.6875
vn 0.6363 0.3834 -0.6695
vn 0.6701 0.3911 -0.6309
vn 0.6084 0.3794 -0.6970
vn 0.5746 0.3915 -0.7187
vn 0.6747 0.4250 -0.6035
vn 0.6678 0.4874 -0.5627
vn 0.6344 0.5103 -0.5806
vn 0.7938 0.5742 -0.2007
vn 0.8003 0.5615 -0.2103
vn 0.7717 0.5446 -0.3285
vn 0.7837 0.5266 -0.3294
vn 0.7396 0.4907 -0.4607
vn 0.7541 0.4715 -0.4572
vn 0.7481 0.4478 -0.4898
vn 0.7049 0.4552 -0.5440
vn 0.7255 0.5176 -0.4536
vn 0.8077 0.5153 -0.2864
vn 0.7868 0.4915 -0.3733
vn 0.7123 0.5353 -0.4541
vn 0.7619 0.5577 -0.3294
vn 0.5215 0.5481 -0.6539
vn 0.6174 0.5489 -0.5636
vn 0.5100 0.5754 -0.6394
vn 0.7251 0.5901 -0.3550
vn 0.6688 0.5828 -0.4615
vn 0.7364 0.5560 -0.3856
vn 0.8110 0.5694 -0.1341
vn 0.8136 0.5422 -0.2100
vn 0.8001 0.5911 -0.1023
vn 0.8023 0.5930 -0.0691
vn 0.7947 0.6068 -0.0164
vn 0.7957 0.5994 -0.0876
vn 0.7816 0.6234 0.0237
vn 0.7334 0.4248 -0.5307
vn 0.6984 0.4010 -0.5928
vn 0.5775 0.3775 -0.7239
vn 0.5939 0.3776 -0.7104
vn 0.5780 0.3751 -0.7247
vn 0.5529 0.4575 -0.6964
vn 0.4989 0.4828 0.7197
vn 0.5297 0.5514 0.6445
vn 0.6274 0.5197 0.5799
vn 0.6474 0.5817 0.4925
vn 0.7679 0.5254 0.3665
vn 0.8528 0.5008 0.1482
vn 0.8146 0.5777 -0.0513
vn 0.7907 0.5667 -0.2314
vn 0.8520 0.4519 -0.2644
vn 0.7909 0.4318 -0.4337
vn 0.6815 0.5512 -0.4814
vn 0.7345 0.4220 -0.5314
vn 0.6654 0.4190 -0.6178
vn 0.8026 0.5881 0.1004
vn 0.7916 0.6089 -0.0506
vn 0.7446 0.6367 0.2005
vn 0.7759 0.6270 0.0695
vn 0.7864 0.6154 -0.0534
vn 0.6042 0.5779 -0.5486
vn 0.6117 0.5638 -0.5550
vn 0.6804 0.5778 -0.4507
vn 0.6979 0.5550 -0.4527
vn 0.6239 0.5330 -0.5716
vn 0.5179 0.5575 -0.6488
vn 0.8777 0.4771 -0.0444
vn 0.5351 0.3971 -0.7457
vn 0.4871 0.4670 -0.7380
vn 0.4891 0.4077 -0.7711
vn 0.5112 0.3833 -0.7692
vn 0.4660 0.3911 -0.7936
vn 0.5443 0.3794 -0.7482
vn 0.4384 0.4250 -0.7920
vn 0.4000 0.4874 -0.7762
vn 0.4250 0.5103 -0.7477
vn 0.0191 0.5742 -0.8185
vn 0.1486 0.5446 -0.8254
vn 0.0270 0.5615 -0.8270
vn 0.1469 0.5266 -0.8373
vn 0.2781 0.4716 -0.8368
vn 0.2847 0.4908 -0.8235
vn 0.3111 0.4479 -0.8382
vn 0.2810 0.5176 -0.8082
vn 0.3737 0.4552 -0.8082
vn 0.1890 0.4914 -0.8502
vn 0.0996 0.5153 -0.8512
vn 0.2844 0.5352 -0.7954
vn 0.0148 0.5825 -0.8127
vn 0.1517 0.5577 -0.8161
vn 0.5331 0.5218 -0.6660
vn 0.4185 0.5331 -0.7353
vn 0.4005 0.5779 -0.7111
vn 0.4121 0.5489 -0.7273
vn 0.0238 0.5423 -0.8399
vn -0.0497 0.5694 -0.8206
vn -0.0782 0.5911 -0.8028
vn -0.1111 0.5930 -0.7975
vn -0.1608 0.6068 -0.7784
vn -0.0916 0.5994 -0.7952
vn 0.4226 0.4010 -0.8128
vn 0.3543 0.4249 -0.8330
vn 0.5605 0.3776 -0.7370
vn -0.6241 0.5817 -0.5217
vn -0.7462 0.5514 -0.3731
vn -0.7049 0.5197 -0.4828
vn -0.5281 0.5254 -0.6672
vn 0.0497 0.5667 -0.8224
vn -0.1311 0.5777 -0.8056
vn 0.0683 0.4519 -0.8895
vn -0.1519 0.4771 -0.8656
vn 0.2121 0.5560 -0.8037
vn 0.2469 0.4318 -0.8675
vn 0.3178 0.5512 -0.7715
vn 0.3547 0.4220 -0.8343
vn 0.4543 0.4190 -0.7861
vn -0.1266 0.6089 -0.7831
vn -0.3611 0.6367 -0.6813
vn -0.2403 0.6270 -0.7410
vn -0.1228 0.6153 -0.7786
vn 0.4051 0.5638 -0.7198
vn 0.2881 0.5778 -0.7636
vn 0.3012 0.5828 -0.7547
vn 0.2862 0.5550 -0.7810
vn -0.3340 0.6412 -0.6908
vn -0.1970 0.6233 -0.7567
vn 0.7891 0.5825 -0.1952
vn 0.5400 0.4958 -0.6801
vn 0.7731 0.6004 -0.2048
vn 0.7929 0.6051 -0.0722
vn 0.5548 0.5924 0.5842
vn 0.5666 0.4155 -0.7116
vn 0.7745 0.6039 -0.1883
vn 0.7348 0.5906 -0.3334
vn 0.7773 0.6274 0.0469
vn 0.7815 0.5947 -0.1888
vn 0.7887 0.6120 -0.0575
vn 0.7489 0.5748 -0.3298
vn 0.7478 0.6412 0.1719
vn 0.0278 0.6003 -0.7993
vn 0.1848 0.5901 -0.7859
vn -0.1060 0.6051 -0.7891
vn -0.8126 0.4829 -0.3263
vn 0.0114 0.6040 -0.7969
vn 0.1617 0.5907 -0.7905
vn -0.2186 0.6273 -0.7474
vn -0.1194 0.6120 -0.7818
vn 0.0103 0.5946 -0.8039
vn 0.1549 0.5748 -0.8035
vt 0.363482 0.720831
vt 0.369252 0.706413
vt 0.381649 0.723274
vt 0.379236 0.732268
vt 0.344864 0.718493
vt 0.353783 0.705941
vt 0.376328 0.740987
vt 0.356491 0.737375
vt 0.332825 0.649536
vt 0.320082 0.627356
vt 0.342154 0.641914
vt 0.308642 0.635087
vt 0.296157 0.615482
vt 0.296554 0.640411
vt 0.357189 0.684236
vt 0.343455 0.668193
vt 0.350353 0.663014
vt 0.345098 0.692730
vt 0.330220 0.619457
vt 0.273092 0.601332
vt 0.284775 0.620835
vt 0.229625 0.806884
vt 0.241430 0.860012
vt 0.221190 0.871597
vt 0.237624 0.905995
vt 0.256624 0.893967
vt 0.221077 0.913791
vt 0.202959 0.877872
vt 0.257601 0.845550
vt 0.254629 0.795303
vt 0.237988 0.760062
vt 0.321617 0.742809
vt 0.337996 0.769423
vt 0.302439 0.760550
vt 0.317936 0.788031
vt 0.293141 0.806504
vt 0.303348 0.822142
vt 0.297678 0.839865
vt 0.275310 0.824246
vt 0.282069 0.778996
vt 0.344458 0.809712
vt 0.323658 0.818170
vt 0.269585 0.748177
vt 0.289792 0.734682
vt 0.202959 0.639486
vt 0.216856 0.638565
vt 0.202959 0.662141
vt 0.254666 0.654028
vt 0.237898 0.657521
vt 0.245840 0.633546
vt 0.365376 0.779774
vt 0.359216 0.795826
vt 0.349234 0.751830
vt 0.365795 0.761579
vt 0.370998 0.752229
vt 0.334456 0.729450
vt 0.334090 0.701755
vt 0.290329 0.858294
vt 0.272762 0.878764
vt 0.202959 0.914409
vt 0.212506 0.921904
vt 0.202959 0.936975
vt 0.202959 0.813190
vt 0.299922 0.578785
vt 0.316875 0.599995
vt 0.293235 0.587191
vt 0.307461 0.607257
vt 0.283101 0.595388
vt 0.273425 0.625436
vt 0.260199 0.629844
vt 0.250632 0.609988
vt 0.237512 0.613039
vt 0.231661 0.636712
vt 0.225672 0.615085
vt 0.213751 0.616457
vt 0.284248 0.645273
vt 0.321744 0.656947
vt 0.310058 0.662708
vt 0.297388 0.668314
vt 0.220084 0.660916
vt 0.224719 0.689511
vt 0.246681 0.684206
vt 0.258144 0.716947
vt 0.230695 0.725035
vt 0.202959 0.691603
vt 0.262876 0.605996
vt 0.308257 0.721345
vt 0.202959 0.730200
vt 0.333505 0.675549
vt 0.202959 0.768991
vt 0.270486 0.650355
vt 0.322429 0.710817
vt 0.202959 0.616710
vt 0.282796 0.674631
vt 0.265581 0.679943
vt 0.322360 0.683076
vt 0.295843 0.699627
vt 0.310323 0.690998
vt 0.277808 0.708472
s 1
g furina.022_裙摆.001
usemtl 裙摆.001
f 1/1/1 2/2/2 3/3/3
f 4/4/4 1/1/1 3/3/3
f 5/2/5 6/1/6 7/3/7
f 6/1/6 8/4/8 7/3/7
f 9/5/9 10/6/10 1/1/1
f 11/7/11 12/8/12 1/1/1
f 13/9/13 14/10/14 15/11/15
f 14/10/14 16/12/16 17/13/17
f 16/12/16 18/14/18 17/13/17
f 2/2/2 10/6/10 19/15/19
f 20/16/20 21/17/21 19/15/19
f 15/11/15 21/17/21 13/9/13
f 20/16/20 13/9/13 21/17/21
f 10/6/10 22/18/22 19/15/19
f 1/1/1 4/4/4 11/7/11
f 23/6/23 24/5/24 6/1/6
f 25/8/25 26/7/26 6/1/6
f 27/19/27 28/10/28 29/11/29
f 30/12/30 28/10/28 31/13/31
f 32/20/32 33/21/33 31/13/31
f 33/21/33 34/14/34 31/13/31
f 23/6/23 5/2/5 35/15/35
f 29/11/29 36/9/36 37/17/37
f 38/16/38 37/17/37 36/9/36
f 37/17/37 38/16/38 35/15/35
f 39/18/39 23/6/23 35/15/35
f 8/4/8 6/1/6 26/7/26
f 40/22/40 41/23/41 42/24/42
f 42/24/42 41/23/41 43/25/43
f 44/26/44 43/25/43 41/23/41
f 43/25/43 45/27/45 42/24/42
f 45/27/45 46/28/46 42/24/42
f 47/29/47 41/23/41 40/22/40
f 40/22/40 48/30/48 47/29/47
f 49/31/49 48/30/48 40/22/40
f 50/32/50 51/33/51 52/34/52
f 53/35/53 52/34/52 51/33/51
f 54/36/54 55/37/55 56/38/56
f 48/30/48 57/39/57 47/29/47
f 54/36/54 56/38/56 57/39/57
f 57/39/57 48/30/48 58/40/58
f 57/39/57 58/40/58 54/36/54
f 52/34/52 53/35/53 58/40/58
f 54/36/54 58/40/58 53/35/53
f 59/41/59 53/35/53 51/33/51
f 60/42/60 55/37/55 54/36/54
f 59/41/59 60/42/60 53/35/53
f 60/42/60 54/36/54 53/35/53
f 58/40/58 61/43/61 52/34/52
f 61/43/61 58/40/58 48/30/48
f 52/34/52 62/44/62 50/32/50
f 63/45/63 64/46/64 65/47/65
f 66/48/66 67/49/67 68/50/68
f 69/51/69 70/52/70 51/33/51
f 70/52/70 59/41/59 51/33/51
f 69/51/69 51/33/51 71/53/71
f 51/33/51 50/32/50 71/53/71
f 72/54/72 69/51/69 71/53/71
f 71/53/71 12/8/12 72/54/72
f 12/8/12 73/55/73 72/54/72
f 74/56/74 71/53/71 50/32/50
f 71/53/71 74/56/74 12/8/12
f 9/5/9 75/57/75 10/6/10
f 2/2/2 1/1/1 10/6/10
f 9/5/9 1/1/1 12/8/12
f 11/7/11 73/55/73 12/8/12
f 14/10/14 13/9/13 16/12/16
f 56/38/56 76/58/76 57/39/57
f 77/59/77 44/26/44 41/23/41
f 77/59/77 41/23/41 47/29/47
f 76/58/76 77/59/77 57/39/57
f 77/59/77 47/29/47 57/39/57
f 45/27/45 78/60/78 46/28/46
f 45/27/45 79/61/79 78/60/78
f 79/61/79 80/62/80 78/60/78
f 42/24/42 81/63/81 40/22/40
f 82/64/82 83/65/83 84/66/84
f 84/66/84 85/67/85 86/68/86
f 85/67/85 17/13/17 86/68/86
f 17/13/17 87/20/87 86/68/86
f 88/69/88 89/70/89 90/71/90
f 89/70/89 68/50/68 91/72/91
f 68/50/68 92/73/92 91/72/91
f 90/71/90 89/70/89 91/72/91
f 93/74/93 64/46/64 94/75/94
f 95/21/95 17/13/17 18/14/18
f 17/13/17 95/21/95 87/20/87
f 95/21/95 96/76/96 88/69/88
f 13/9/13 97/77/97 16/12/16
f 97/77/97 98/78/98 16/12/16
f 98/78/98 99/79/99 18/14/18
f 100/80/100 67/49/67 101/81/101
f 102/82/102 103/83/103 101/81/101
f 100/80/100 101/81/101 65/47/65
f 101/81/101 104/84/104 105/85/105
f 105/85/105 65/47/65 101/81/101
f 20/16/20 19/15/19 22/18/22
f 95/21/95 106/86/106 87/20/87
f 106/86/106 88/69/88 90/71/90
f 95/21/95 88/69/88 106/86/106
f 81/63/81 107/24/107 108/22/108
f 109/23/109 108/22/108 107/24/107
f 109/23/109 107/24/107 110/25/110
f 110/25/110 111/26/111 109/23/109
f 78/60/78 112/27/112 46/28/46
f 112/27/112 110/25/110 107/24/107
f 46/28/46 112/27/112 107/24/107
f 109/23/109 113/29/113 108/22/108
f 114/30/114 108/22/108 113/29/113
f 114/30/114 115/31/115 108/22/108
f 116/32/116 117/34/117 118/33/118
f 119/35/119 118/33/118 117/34/117
f 120/37/120 121/36/121 122/38/122
f 117/34/117 123/40/123 119/35/119
f 121/36/121 119/35/119 123/40/123
f 124/39/124 114/30/114 113/29/113
f 122/38/122 121/36/121 124/39/124
f 123/40/123 124/39/124 121/36/121
f 114/30/114 124/39/124 123/40/123
f 120/37/120 125/42/125 121/36/121
f 121/36/121 125/42/125 119/35/119
f 119/35/119 126/41/126 118/33/118
f 125/42/125 126/41/126 119/35/119
f 123/40/123 127/43/127 114/30/114
f 128/87/128 129/44/129 116/32/116
f 129/44/129 127/43/127 117/34/117
f 130/88/130 131/84/131 105/85/105
f 132/80/132 133/46/133 65/47/65
f 126/41/126 134/52/134 118/33/118
f 134/52/134 135/51/135 118/33/118
f 118/33/118 136/53/136 116/32/116
f 118/33/118 135/51/135 136/53/136
f 135/51/135 137/54/137 136/53/136
f 138/55/138 25/8/25 137/54/137
f 25/8/25 136/53/136 137/54/137
f 139/56/139 116/32/116 136/53/136
f 24/5/24 139/56/139 25/8/25
f 6/1/6 24/5/24 25/8/25
f 6/1/6 5/2/5 23/6/23
f 138/55/138 26/7/26 25/8/25
f 36/9/36 28/10/28 30/12/30
f 111/26/111 140/59/140 109/23/109
f 109/23/109 140/59/140 113/29/113
f 113/29/113 140/59/140 124/39/124
f 140/59/140 141/58/141 124/39/124
f 141/58/141 122/38/122 124/39/124
f 80/62/80 142/61/142 78/60/78
f 142/61/142 112/27/112 78/60/78
f 143/67/143 144/65/144 145/66/145
f 143/67/143 145/66/145 146/68/146
f 31/13/31 143/67/143 146/68/146
f 32/20/32 31/13/31 146/68/146
f 147/70/147 148/69/148 149/71/149
f 148/69/148 150/86/150 149/71/149
f 151/50/151 147/70/147 152/72/152
f 147/70/147 149/71/149 152/72/152
f 133/46/133 153/73/153 154/74/154
f 154/74/154 153/73/153 152/72/152
f 133/46/133 154/74/154 155/75/155
f 150/86/150 148/69/148 33/21/33
f 150/86/150 33/21/33 32/20/32
f 30/12/30 31/13/31 34/14/34
f 156/76/156 34/14/34 33/21/33
f 156/76/156 33/21/33 148/69/148
f 157/77/157 36/9/36 30/12/30
f 34/14/34 158/78/158 30/12/30
f 156/76/156 159/79/159 34/14/34
f 105/85/105 160/81/160 65/47/65
f 161/82/161 162/49/162 160/81/160
f 131/84/131 163/83/163 160/81/160
f 132/80/132 65/47/65 160/81/160
f 39/18/39 38/16/38 164/89/164
f 39/18/39 165/57/165 23/6/23
f 35/15/35 38/16/38 39/18/39
f 61/43/61 48/30/48 49/31/49
f 62/44/62 52/34/52 61/43/61
f 166/87/166 50/32/50 62/44/62
f 49/31/49 40/22/40 167/90/167
f 167/90/167 130/88/130 49/31/49
f 104/84/104 49/31/49 130/88/130
f 49/31/49 104/84/104 61/43/61
f 100/80/100 65/47/65 64/46/64
f 61/43/61 103/83/103 62/44/62
f 103/83/103 61/43/61 104/84/104
f 64/46/64 92/73/92 100/80/100
f 67/49/67 100/80/100 92/73/92
f 92/73/92 68/50/68 67/49/67
f 68/50/68 89/70/89 66/48/66
f 168/91/168 66/48/66 89/70/89
f 50/32/50 166/87/166 74/56/74
f 9/5/9 12/8/12 74/56/74
f 74/56/74 169/92/169 9/5/9
f 169/92/169 74/56/74 166/87/166
f 75/57/75 9/5/9 169/92/169
f 170/19/170 15/11/15 14/10/14
f 14/10/14 85/67/85 170/19/170
f 83/65/83 170/19/170 85/67/85
f 14/10/14 17/13/17 85/67/85
f 40/22/40 81/63/81 167/90/167
f 42/24/42 46/28/46 81/63/81
f 85/67/85 84/66/84 83/65/83
f 93/74/93 92/73/92 64/46/64
f 93/74/93 91/72/91 92/73/92
f 94/75/94 64/46/64 63/45/63
f 171/93/171 94/75/94 63/45/63
f 88/69/88 96/76/96 89/70/89
f 95/21/95 18/14/18 96/76/96
f 96/76/96 168/91/168 89/70/89
f 18/14/18 16/12/16 98/78/98
f 96/76/96 18/14/18 99/79/99
f 99/79/99 172/94/172 96/76/96
f 168/91/168 96/76/96 172/94/172
f 66/48/66 168/91/168 173/95/173
f 172/94/172 173/95/173 168/91/168
f 67/49/67 66/48/66 102/82/102
f 102/82/102 173/95/173 103/83/103
f 173/95/173 102/82/102 66/48/66
f 104/84/104 101/81/101 103/83/103
f 102/82/102 101/81/101 67/49/67
f 130/88/130 105/85/105 104/84/104
f 13/9/13 20/16/20 97/77/97
f 174/96/174 75/57/75 169/92/169
f 98/78/98 97/77/97 174/96/174
f 166/87/166 175/97/175 169/92/169
f 172/94/172 99/79/99 175/97/175
f 176/98/176 175/97/175 99/79/99
f 169/92/169 176/98/176 174/96/174
f 176/98/176 169/92/169 175/97/175
f 174/96/174 176/98/176 98/78/98
f 99/79/99 98/78/98 176/98/176
f 177/99/177 103/83/103 173/95/173
f 175/97/175 177/99/177 172/94/172
f 173/95/173 172/94/172 177/99/177
f 175/97/175 166/87/166 177/99/177
f 62/44/62 177/99/177 166/87/166
f 177/99/177 62/44/62 103/83/103
f 174/96/174 178/89/178 75/57/75
f 20/16/20 178/89/178 97/77/97
f 178/89/178 174/96/174 97/77/97
f 20/16/20 22/18/22 178/89/178
f 22/18/22 10/6/10 75/57/75
f 178/89/178 22/18/22 75/57/75
f 46/28/46 107/24/107 81/63/81
f 81/63/81 108/22/108 167/90/167
f 167/90/167 115/31/115 130/88/130
f 108/22/108 115/31/115 167/90/167
f 114/30/114 127/43/127 115/31/115
f 123/40/123 117/34/117 127/43/127
f 117/34/117 116/32/116 129/44/129
f 131/84/131 130/88/130 115/31/115
f 115/31/115 127/43/127 131/84/131
f 63/45/63 65/47/65 133/46/133
f 127/43/127 129/44/129 163/83/163
f 163/83/163 131/84/131 127/43/127
f 162/49/162 153/73/153 132/80/132
f 133/46/133 132/80/132 153/73/153
f 179/91/179 147/70/147 180/48/180
f 153/73/153 162/49/162 151/50/151
f 151/50/151 180/48/180 147/70/147
f 180/48/180 151/50/151 162/49/162
f 116/32/116 139/56/139 128/87/128
f 136/53/136 25/8/25 139/56/139
f 181/92/181 128/87/128 139/56/139
f 139/56/139 24/5/24 181/92/181
f 165/57/165 181/92/181 24/5/24
f 24/5/24 23/6/23 165/57/165
f 36/9/36 29/11/29 28/10/28
f 28/10/28 27/19/27 143/67/143
f 144/65/144 143/67/143 27/19/27
f 31/13/31 28/10/28 143/67/143
f 182/64/182 145/66/145 144/65/144
f 151/50/151 152/72/152 153/73/153
f 155/75/155 171/93/171 63/45/63
f 133/46/133 155/75/155 63/45/63
f 179/91/179 156/76/156 147/70/147
f 156/76/156 148/69/148 147/70/147
f 157/77/157 30/12/30 158/78/158
f 179/91/179 183/94/183 156/76/156
f 158/78/158 34/14/34 159/79/159
f 159/79/159 156/76/156 183/94/183
f 183/94/183 179/91/179 184/95/184
f 180/48/180 184/95/184 179/91/179
f 161/82/161 163/83/163 184/95/184
f 162/49/162 161/82/161 180/48/180
f 184/95/184 180/48/180 161/82/161
f 160/81/160 105/85/105 131/84/131
f 132/80/132 160/81/160 162/49/162
f 161/82/161 160/81/160 163/83/163
f 38/16/38 36/9/36 157/77/157
f 158/78/158 185/96/185 157/77/157
f 165/57/165 185/96/185 181/92/181
f 185/96/185 158/78/158 186/98/186
f 186/98/186 181/92/181 185/96/185
f 159/79/159 186/98/186 158/78/158
f 183/94/183 187/97/187 159/79/159
f 128/87/128 181/92/181 187/97/187
f 186/98/186 159/79/159 187/97/187
f 186/98/186 187/97/187 181/92/181
f 188/99/188 184/95/184 163/83/163
f 187/97/187 188/99/188 128/87/128
f 129/44/129 128/87/128 188/99/188
f 188/99/188 163/83/163 129/44/129
f 187/97/187 183/94/183 188/99/188
f 184/95/184 188/99/188 183/94/183
f 164/89/164 38/16/38 157/77/157
f 164/89/164 185/96/185 165/57/165
f 164/89/164 157/77/157 185/96/185
f 39/18/39 164/89/164 165/57/165
