# Blender 3.6.5
# www.blender.org
mtllib furina.010.mtl
o furina.010
v 14.580968 2.482874 -15.732586
v 14.583838 2.482750 -15.730827
v 14.582048 2.488088 -15.727698
v 14.586724 2.482625 -15.729058
v 14.597512 2.471960 -15.730638
v 14.598442 2.469175 -15.732282
v 14.602324 2.471811 -15.727641
v 14.596583 2.474743 -15.728994
v 14.587349 2.472274 -15.736966
v 14.593373 2.472088 -15.733214
v 14.591399 2.477963 -15.729755
v 14.585376 2.478150 -15.733506
v 14.585376 2.478150 -15.733506
v 14.591399 2.477963 -15.729755
v 14.586724 2.482625 -15.729058
v 14.583838 2.482750 -15.730827
v 14.596583 2.474743 -15.728994
v 14.591399 2.477963 -15.729755
v 14.593373 2.472088 -15.733214
v 14.597512 2.471960 -15.730638
v 14.590542 2.462749 -15.742549
v 14.587474 2.462812 -15.744486
v 14.592649 2.456461 -15.746234
v 14.593627 2.462686 -15.740602
v 14.589323 2.466398 -15.740427
v 14.595345 2.466213 -15.736675
v 14.598442 2.469175 -15.732282
v 14.595345 2.466213 -15.736675
v 14.593627 2.462686 -15.740602
v 14.595345 2.466213 -15.736675
v 14.589323 2.466398 -15.740427
v 14.590542 2.462749 -15.742549
v 14.577821 2.472569 -15.742900
v 14.576830 2.475500 -15.741178
v 14.572375 2.472737 -15.746291
v 14.579353 2.478336 -15.737257
v 14.581326 2.472461 -15.740718
v 14.580968 2.482874 -15.732586
v 14.579353 2.478336 -15.737257
v 14.578813 2.469634 -15.744625
v 14.583300 2.466585 -15.744177
v 14.587474 2.462812 -15.744486
v 14.583300 2.466585 -15.744177
v 14.578813 2.469634 -15.744625
v 14.583300 2.466585 -15.744177
v 14.581326 2.472461 -15.740718
v 14.577821 2.472569 -15.742900
v 14.576830 2.475500 -15.741178
v 14.579353 2.478336 -15.737257
v 14.480597 2.500001 -15.824575
v 14.476680 2.506068 -15.824270
v 14.478648 2.500699 -15.827233
v 14.476688 2.501400 -15.829906
v 14.475534 2.492770 -15.842428
v 14.472232 2.494006 -15.846869
v 14.476573 2.489966 -15.843971
v 14.474497 2.495572 -15.840886
v 14.476194 2.497620 -15.835340
v 14.478375 2.491708 -15.838608
v 14.482511 2.490162 -15.833049
v 14.480328 2.496075 -15.829781
v 14.480328 2.496075 -15.829781
v 14.478648 2.500699 -15.827233
v 14.476688 2.501400 -15.829906
v 14.476194 2.497620 -15.835340
v 14.478375 2.491708 -15.838608
v 14.476194 2.497620 -15.835340
v 14.474497 2.495572 -15.840886
v 14.475534 2.492770 -15.842428
v 14.486022 2.480581 -15.838336
v 14.488340 2.474256 -15.841827
v 14.488148 2.479758 -15.835513
v 14.483885 2.481409 -15.841175
v 14.480558 2.485796 -15.841874
v 14.484693 2.484249 -15.836316
v 14.476573 2.489966 -15.843971
v 14.480558 2.485796 -15.841874
v 14.484693 2.484249 -15.836316
v 14.480558 2.485796 -15.841874
v 14.483885 2.481409 -15.841175
v 14.486022 2.480581 -15.838336
v 14.489051 2.487716 -15.824255
v 14.492788 2.486319 -15.819228
v 14.487966 2.490665 -15.822618
v 14.486645 2.488616 -15.827489
v 14.484462 2.494528 -15.824223
v 14.480597 2.500001 -15.824575
v 14.484462 2.494528 -15.824223
v 14.490136 2.484765 -15.825891
v 14.488827 2.482705 -15.830757
v 14.488148 2.479758 -15.835513
v 14.488827 2.482705 -15.830757
v 14.486645 2.488616 -15.827489
v 14.488827 2.482705 -15.830757
v 14.490136 2.484765 -15.825891
v 14.489051 2.487716 -15.824255
v 14.487966 2.490665 -15.822618
v 14.484462 2.494528 -15.824223
vn -0.4289 -0.5428 0.7221
vn -0.4290 -0.5428 0.7220
vn -0.4290 -0.5429 0.7220
vn -0.4289 -0.5428 0.7220
vn -0.7772 -0.4833 0.4030
vn -0.7772 -0.4833 0.4029
vt 0.016362 0.975687
vt 0.016362 0.967253
vt 0.014350 0.975687
vt 0.018384 0.975687
vt 0.023457 0.984733
vt 0.028935 0.982726
vt 0.023452 0.982726
vt 0.023448 0.980724
vt 0.020592 0.982726
vt 0.020592 0.978543
vt 0.016362 0.982726
vt 0.016362 0.978543
vt 0.014178 0.989321
vt 0.016362 0.998340
vt 0.016362 0.989321
vt 0.018553 0.989321
vt 0.016362 0.987050
vt 0.020592 0.987050
vt 0.009556 0.980595
vt 0.003617 0.982726
vt 0.009548 0.982726
vt 0.012023 0.978543
vt 0.012023 0.982726
vt 0.009545 0.984864
vt 0.012023 0.987050
s 1
usemtl Mat_Face.008
f 2/1/1 3/2/1 1/3/2
f 4/4/1 3/2/1 2/1/1
f 6/5/2 7/6/3 5/7/3
f 5/7/3 7/6/3 8/8/4
f 10/9/1 11/10/1 9/11/1
f 12/12/1 9/11/1 11/10/1
f 14/10/1 15/4/1 13/12/1
f 16/1/1 13/12/1 15/4/1
f 18/10/2 19/9/2 17/8/4
f 20/7/1 17/8/4 19/9/2
f 22/13/1 23/14/1 21/15/1
f 21/15/1 23/14/1 24/16/1
f 25/17/1 26/18/1 9/11/1
f 10/9/1 9/11/1 26/18/1
f 20/7/1 19/9/2 27/5/2
f 28/18/2 27/5/2 19/9/2
f 30/18/4 31/17/1 29/16/1
f 32/15/1 29/16/1 31/17/1
f 34/19/1 35/20/1 33/21/1
f 36/22/1 37/23/1 12/12/1
f 9/11/1 12/12/1 37/23/1
f 9/11/1 37/23/1 25/17/1
f 16/1/1 38/3/1 13/12/1
f 39/22/1 13/12/1 38/3/1
f 33/21/1 35/20/1 40/24/2
f 41/25/1 25/17/1 37/23/1
f 32/15/1 31/17/1 42/13/1
f 43/25/1 42/13/1 31/17/1
f 45/25/2 46/23/1 44/24/1
f 47/21/1 44/24/1 46/23/1
f 47/21/1 46/23/1 48/19/1
f 49/22/1 48/19/1 46/23/1
f 51/2/5 52/1/5 50/3/6
f 51/2/5 53/4/5 52/1/5
f 55/6/6 56/5/6 54/7/6
f 55/6/6 54/7/6 57/8/5
f 59/9/5 60/11/6 58/10/6
f 61/12/6 58/10/6 60/11/6
f 63/1/5 64/4/5 62/12/5
f 65/10/6 62/12/5 64/4/5
f 67/10/6 68/8/6 66/9/6
f 69/7/6 66/9/6 68/8/6
f 71/14/6 72/13/6 70/15/6
f 71/14/6 70/15/6 73/16/5
f 59/9/5 74/18/6 60/11/6
f 75/17/5 60/11/6 74/18/6
f 69/7/6 76/5/6 66/9/6
f 77/18/6 66/9/6 76/5/6
f 79/18/5 80/16/5 78/17/5
f 81/15/6 78/17/5 80/16/5
f 83/20/5 84/19/6 82/21/5
f 60/11/6 75/17/5 85/23/6
f 60/11/6 85/23/6 61/12/6
f 86/22/6 61/12/6 85/23/6
f 63/1/5 62/12/5 87/3/5
f 88/22/5 87/3/5 62/12/5
f 83/20/5 82/21/5 89/24/5
f 90/25/6 85/23/6 75/17/5
f 81/15/6 91/13/6 78/17/5
f 92/25/5 78/17/5 91/13/6
f 94/25/5 95/24/6 93/23/6
f 96/21/6 93/23/6 95/24/6
f 96/21/6 97/19/6 93/23/6
f 98/22/6 93/23/6 97/19/6
