# Blender 3.6.5
# www.blender.org
mtllib furina.018.mtl
o furina.018
v 14.516261 1.914810 -15.935187
v 14.514166 1.913226 -15.949861
v 14.515791 1.909895 -15.933761
v 14.517749 1.919883 -15.935099
v 14.517746 1.924962 -15.948998
v 14.520221 1.925134 -15.932923
v 14.526929 1.938795 -15.938648
v 14.523265 1.928432 -15.929010
v 14.533230 1.942301 -15.928535
v 14.528400 1.928789 -15.919510
v 14.538291 1.939446 -15.917558
v 14.541253 1.934405 -15.909433
v 14.530173 1.925703 -15.914450
v 14.542232 1.926364 -15.903550
v 14.530746 1.920512 -15.910913
v 14.541280 1.914777 -15.899530
v 14.528795 1.910519 -15.909563
v 14.537683 1.903045 -15.900383
v 14.526192 1.905280 -15.911674
v 14.533514 1.894710 -15.904040
v 14.523268 1.901942 -15.915670
v 14.528497 1.889213 -15.910732
v 14.522195 1.885707 -15.920845
v 14.518131 1.901596 -15.925179
v 14.517135 1.888562 -15.931822
v 14.516239 1.904711 -15.930148
v 14.513199 1.901642 -15.945832
v 14.520686 1.915880 -15.920961
v 14.526045 1.929765 -15.924276
v 14.530149 1.915604 -15.909409
v 14.520368 1.900649 -15.920321
v 14.514171 1.893603 -15.939946
v 14.514256 1.890343 -15.955965
v 14.517984 1.877946 -15.942696
v 14.515462 1.883153 -15.950073
v 14.521362 1.874042 -15.934363
v 14.526862 1.871935 -15.922935
v 14.533318 1.874726 -15.912171
v 14.538311 1.879109 -15.904965
v 14.542945 1.884725 -15.899058
v 14.547013 1.892218 -15.895162
v 14.550707 1.900924 -15.892581
v 14.553941 1.913238 -15.892684
v 14.555490 1.925457 -15.895914
v 14.555146 1.933932 -15.900829
v 14.551417 1.946329 -15.914098
v 14.548039 1.950232 -15.922431
v 14.536084 1.949548 -15.944622
v 14.531091 1.945166 -15.951829
v 14.521910 1.933298 -15.945339
v 14.522389 1.932057 -15.961633
v 14.526458 1.939549 -15.957736
v 14.518695 1.923351 -15.964213
v 14.513912 1.898818 -15.960880
v 14.515461 1.911036 -15.964110
v 14.542540 1.952340 -15.933860
v 14.553941 1.941122 -15.906721
vn -0.9818 0.1898 -0.0119
vn -0.9721 0.1148 0.2046
vn -0.9589 0.2123 0.1880
vn -0.9341 0.3093 0.1782
vn -0.9324 0.3615 0.0054
vn -0.8831 0.4099 0.2284
vn -0.8214 0.4826 0.3041
vn -0.7685 0.6117 0.1876
vn -0.6704 0.6591 0.3408
vn -0.7143 0.4903 0.4994
vn -0.5973 0.6185 0.5106
vn -0.5452 0.5295 0.6499
vn -0.6889 0.4175 0.5925
vn -0.5272 0.3847 0.7577
vn -0.6709 0.3240 0.6670
vn -0.5353 0.2154 0.8167
vn -0.7088 0.1295 0.6934
vn -0.5931 0.0459 0.8038
vn -0.7630 0.0350 0.6454
vn -0.6684 -0.1047 0.7364
vn -0.8186 -0.0456 0.5725
vn -0.7569 -0.2010 0.6218
vn -0.8483 -0.2536 0.4648
vn -0.9249 -0.0498 0.3768
vn -0.9297 -0.2143 0.2997
vn -0.9592 0.0189 0.2822
vn -0.9984 0.0227 0.0516
vn -0.8598 0.2296 0.4561
vn -0.7729 0.4932 0.3992
vn -0.6902 0.2275 0.6869
vn -0.8779 -0.0524 0.4760
vn -0.9794 -0.1221 0.1612
vn -0.9948 -0.1021 -0.0025
vn -0.9410 -0.2809 0.1889
vn -0.9756 -0.2026 0.0848
vn -0.8957 -0.3257 0.3028
vn -0.8212 -0.3471 0.4530
vn -0.7373 -0.3166 0.5968
vn -0.6682 -0.2651 0.6952
vn -0.6025 -0.1813 0.7772
vn -0.5427 -0.0763 0.8364
vn -0.4940 0.0586 0.8675
vn -0.4460 0.2053 0.8711
vn -0.4366 0.3531 0.8275
vn -0.4336 0.4837 0.7603
vn -0.4873 0.6623 0.5692
vn -0.5375 0.7084 0.4575
vn -0.6959 0.6993 0.1634
vn -0.7600 0.6469 0.0632
vn -0.8557 0.5121 0.0748
vn -0.8859 0.4572 -0.0787
vn -0.8264 0.5628 -0.0193
vn -0.9399 0.3243 -0.1068
vn -0.9973 0.0298 -0.0668
vn -0.9778 0.1748 -0.1157
vn -0.6113 0.7296 0.3068
vn -0.4532 0.5842 0.6733
vt 0.101238 0.431249
vt 0.116777 0.436204
vt 0.115917 0.431206
vt 0.116770 0.426058
vt 0.104041 0.419061
vt 0.119951 0.420833
vt 0.124849 0.417584
vt 0.118065 0.404942
vt 0.130244 0.401620
vt 0.135542 0.417473
vt 0.142445 0.404871
vt 0.151001 0.410371
vt 0.140673 0.420789
vt 0.156579 0.418888
vt 0.143907 0.426100
vt 0.159459 0.431073
vt 0.143929 0.436240
vt 0.156651 0.443275
vt 0.140736 0.441475
vt 0.151127 0.451827
vt 0.135838 0.444760
vt 0.142605 0.457379
vt 0.130423 0.460705
vt 0.125137 0.444832
vt 0.118224 0.457457
vt 0.120014 0.441554
vt 0.104112 0.443422
vt 0.130345 0.431163
vt 0.130307 0.416432
vt 0.144776 0.431119
vt 0.130395 0.445893
vt 0.109684 0.451932
vt 0.093392 0.454217
vt 0.107468 0.468231
vt 0.099477 0.462180
vt 0.116946 0.472761
vt 0.130457 0.475222
vt 0.143957 0.472686
vt 0.153415 0.468109
vt 0.161381 0.462018
vt 0.167428 0.454017
vt 0.171944 0.444524
vt 0.173764 0.431030
vt 0.171863 0.417547
vt 0.167288 0.408081
vt 0.153190 0.394075
vt 0.143705 0.389556
vt 0.116695 0.389646
vt 0.107245 0.394232
vt 0.109560 0.410517
vt 0.093255 0.408329
vt 0.099291 0.400331
vt 0.088747 0.417815
vt 0.088827 0.444759
vt 0.086931 0.431292
vt 0.130190 0.387103
vt 0.161192 0.400117
s 1
usemtl Mat_Hair.006
f 2/1/1 3/2/2 1/3/3
f 1/3/3 4/4/4 2/1/1
f 4/4/4 5/5/5 2/1/1
f 4/4/4 6/6/6 5/5/5
f 6/6/6 8/7/7 7/8/8
f 8/7/7 9/9/9 7/8/8
f 10/10/10 11/11/11 9/9/9
f 10/10/10 12/12/12 11/11/11
f 10/10/10 13/13/13 12/12/12
f 13/13/13 14/14/14 12/12/12
f 13/13/13 15/15/15 14/14/14
f 15/15/15 16/16/16 14/14/14
f 17/17/17 18/18/18 16/16/16
f 17/17/17 19/19/19 18/18/18
f 19/19/19 20/20/20 18/18/18
f 19/19/19 21/21/21 20/20/20
f 21/21/21 22/22/22 20/20/20
f 21/21/21 23/23/23 22/22/22
f 24/24/24 25/25/25 23/23/23
f 24/24/24 26/26/26 25/25/25
f 26/26/26 3/2/2 27/27/27
f 2/1/1 27/27/27 3/2/2
f 4/4/4 1/3/3 28/28/28
f 6/6/6 4/4/4 28/28/28
f 8/7/7 6/6/6 28/28/28
f 1/3/3 3/2/2 28/28/28
f 3/2/2 26/26/26 28/28/28
f 15/15/15 13/13/13 28/28/28
f 17/17/17 28/28/28 19/19/19
f 26/26/26 24/24/24 28/28/28
f 19/19/19 28/28/28 21/21/21
f 13/13/13 10/10/10 28/28/28
f 8/7/7 29/29/29 9/9/9
f 29/29/29 10/10/10 9/9/9
f 8/7/7 28/28/28 29/29/29
f 10/10/10 29/29/29 28/28/28
f 15/15/15 30/30/30 16/16/16
f 15/15/15 28/28/28 30/30/30
f 30/30/30 28/28/28 17/17/17
f 30/30/30 17/17/17 16/16/16
f 21/21/21 31/31/31 23/23/23
f 31/31/31 24/24/24 23/23/23
f 24/24/24 31/31/31 28/28/28
f 21/21/21 28/28/28 31/31/31
f 26/26/26 27/27/27 32/32/32
f 26/26/26 32/32/32 25/25/25
f 27/27/27 33/33/33 32/32/32
f 32/32/32 34/34/34 25/25/25
f 32/32/32 35/35/35 34/34/34
f 33/33/33 35/35/35 32/32/32
f 34/34/34 36/36/36 25/25/25
f 25/25/25 36/36/36 23/23/23
f 36/36/36 37/37/37 23/23/23
f 22/22/22 23/23/23 38/38/38
f 23/23/23 37/37/37 38/38/38
f 22/22/22 38/38/38 39/39/39
f 20/20/20 22/22/22 39/39/39
f 20/20/20 39/39/39 40/40/40
f 20/20/20 40/40/40 41/41/41
f 18/18/18 20/20/20 41/41/41
f 18/18/18 41/41/41 42/42/42
f 16/16/16 18/18/18 42/42/42
f 16/16/16 42/42/42 43/43/43
f 44/44/44 16/16/16 43/43/43
f 44/44/44 14/14/14 16/16/16
f 14/14/14 45/45/45 12/12/12
f 44/44/44 45/45/45 14/14/14
f 12/12/12 46/46/46 11/11/11
f 46/46/46 47/47/47 11/11/11
f 11/11/11 47/47/47 9/9/9
f 48/48/48 7/8/8 9/9/9
f 48/48/48 49/49/49 7/8/8
f 7/8/8 49/49/49 50/50/50
f 6/6/6 50/50/50 5/5/5
f 6/6/6 7/8/8 50/50/50
f 50/50/50 51/51/51 5/5/5
f 50/50/50 52/52/52 51/51/51
f 49/49/49 52/52/52 50/50/50
f 5/5/5 53/53/53 2/1/1
f 51/51/51 53/53/53 5/5/5
f 54/54/54 33/33/33 27/27/27
f 2/1/1 54/54/54 27/27/27
f 2/1/1 55/55/55 54/54/54
f 53/53/53 55/55/55 2/1/1
f 48/48/48 9/9/9 56/56/56
f 47/47/47 56/56/56 9/9/9
f 12/12/12 57/57/57 46/46/46
f 45/45/45 57/57/57 12/12/12
