# Blender 3.6.5
# www.blender.org
mtllib furina.019.mtl
o furina.019
v 14.396852 1.595024 -16.086760
v 14.394455 1.607415 -16.074383
v 14.388938 1.611659 -16.088148
v 14.409225 1.606070 -16.078623
v 14.394455 1.607415 -16.074383
v 14.396852 1.595024 -16.086760
v 14.394455 1.607415 -16.074383
v 14.401310 1.622706 -16.080011
v 14.388938 1.611659 -16.088148
v 14.409225 1.606070 -16.078623
v 14.401310 1.622706 -16.080011
v 14.394455 1.607415 -16.074383
v 14.403707 1.610315 -16.092388
v 14.396852 1.595024 -16.086760
v 14.388938 1.611659 -16.088148
v 14.403707 1.610315 -16.092388
v 14.409225 1.606070 -16.078623
v 14.396852 1.595024 -16.086760
v 14.401310 1.622706 -16.080011
v 14.403707 1.610315 -16.092388
v 14.388938 1.611659 -16.088148
v 14.401310 1.622706 -16.080011
v 14.409225 1.606070 -16.078623
v 14.403707 1.610315 -16.092388
v 14.399471 1.583287 -16.099224
v 14.404597 1.581054 -16.093458
v 14.392131 1.512080 -16.125374
v 14.401951 1.507810 -16.114330
v 14.376985 1.514687 -16.126051
v 14.391562 1.584644 -16.099577
v 14.365383 1.514098 -16.115965
v 14.385507 1.584337 -16.094313
v 14.384849 1.582540 -16.086512
v 14.385507 1.584337 -16.094313
v 14.364123 1.510656 -16.101025
v 14.365383 1.514098 -16.115965
v 14.373942 1.506382 -16.089979
v 14.389974 1.580310 -16.080746
v 14.389089 1.503780 -16.089302
v 14.397882 1.578953 -16.080391
v 14.400691 1.504371 -16.099388
v 14.403937 1.579259 -16.085657
v 14.403937 1.579259 -16.085657
v 14.400691 1.504371 -16.099388
v 14.399058 1.591452 -16.093555
v 14.390443 1.592100 -16.090525
v 14.390443 1.592100 -16.090525
v 14.393199 1.589615 -16.082153
v 14.401816 1.588967 -16.085184
v 14.389089 1.503780 -16.089302
v 14.373942 1.506382 -16.089979
v 14.364123 1.510656 -16.101025
v 14.396643 1.593725 -16.087078
v 14.396643 1.593725 -16.087078
v 14.401816 1.588967 -16.085184
v 14.376985 1.514687 -16.126051
v 14.392131 1.512080 -16.125374
v 14.401951 1.507810 -16.114330
v 14.389089 1.503780 -16.089302
v 14.364123 1.510656 -16.101025
v 14.400691 1.504371 -16.099388
v 14.365383 1.514098 -16.115965
v 14.365383 1.514098 -16.115965
v 14.376985 1.514687 -16.126051
v 14.400691 1.504371 -16.099388
v 14.401951 1.507810 -16.114330
v 14.429210 1.537216 -15.983294
v 14.425688 1.549861 -15.971455
v 14.420052 1.553117 -15.985439
v 14.440576 1.549504 -15.975474
v 14.425688 1.549861 -15.971455
v 14.429210 1.537216 -15.983294
v 14.425688 1.549861 -15.971455
v 14.431417 1.565405 -15.977619
v 14.420052 1.553117 -15.985439
v 14.440576 1.549504 -15.975474
v 14.431417 1.565405 -15.977619
v 14.425688 1.549861 -15.971455
v 14.434939 1.552760 -15.989459
v 14.429210 1.537216 -15.983294
v 14.420052 1.553117 -15.985439
v 14.434939 1.552760 -15.989459
v 14.440576 1.549504 -15.975474
v 14.429210 1.537216 -15.983294
v 14.431417 1.565405 -15.977619
v 14.434939 1.552760 -15.989459
v 14.420052 1.553117 -15.985439
v 14.431417 1.565405 -15.977619
v 14.440576 1.549504 -15.975474
v 14.434939 1.552760 -15.989459
v 14.432698 1.525811 -15.994616
v 14.437620 1.524300 -15.989025
v 14.431282 1.458201 -16.016211
v 14.440561 1.455357 -16.005676
v 14.417046 1.459497 -16.017094
v 14.425145 1.526496 -15.995083
v 14.406187 1.458475 -16.007807
v 14.419385 1.525956 -15.990156
v 14.418792 1.524505 -15.982720
v 14.419385 1.525956 -15.990156
v 14.405070 1.455743 -15.993792
v 14.406187 1.458475 -16.007807
v 14.414348 1.452894 -15.983256
v 14.423714 1.522995 -15.977132
v 14.428586 1.451604 -15.982372
v 14.431268 1.522310 -15.976665
v 14.439444 1.452620 -15.991660
v 14.437028 1.522850 -15.981590
v 14.437028 1.522850 -15.981590
v 14.439444 1.452620 -15.991660
v 14.431638 1.533686 -15.989573
v 14.423422 1.533778 -15.986822
v 14.423422 1.533778 -15.986822
v 14.426094 1.531952 -15.978786
v 14.434308 1.531860 -15.981537
v 14.428586 1.451604 -15.982372
v 14.414348 1.452894 -15.983256
v 14.405070 1.455743 -15.993792
v 14.429106 1.535893 -15.983561
v 14.429106 1.535893 -15.983561
v 14.434308 1.531860 -15.981537
v 14.417046 1.459497 -16.017094
v 14.431282 1.458201 -16.016211
v 14.440561 1.455357 -16.005676
v 14.428586 1.451604 -15.982372
v 14.405070 1.455743 -15.993792
v 14.439444 1.452620 -15.991660
v 14.406187 1.458475 -16.007807
v 14.406187 1.458475 -16.007807
v 14.417046 1.459497 -16.017094
v 14.439444 1.452620 -15.991660
v 14.440561 1.455357 -16.005676
vn -0.8860 -0.4021 0.2311
vn 0.1427 -0.6855 0.7139
vn -0.7409 0.4981 0.4505
vn 0.2873 0.2147 0.9335
vn -0.2874 -0.2147 -0.9334
vn 0.7408 -0.4981 -0.4507
vn -0.1427 0.6855 -0.7139
vn 0.8859 0.4022 -0.2311
vn 0.4678 0.2565 -0.8458
vn 0.9529 0.0488 -0.2994
vn 0.4664 0.2438 -0.8503
vn 0.9521 0.0324 -0.3040
vn -0.2828 0.3726 -0.8838
vn -0.2796 0.3884 -0.8781
vn -0.8567 0.3434 -0.3849
vn -0.8532 0.3559 -0.3812
vn -0.9145 0.1894 0.3574
vn -0.8533 0.3559 -0.3811
vn -0.9190 0.1732 0.3541
vn -0.4333 -0.0382 0.9004
vn -0.4305 -0.0250 0.9022
vn 0.3159 -0.1671 0.9340
vn 0.3180 -0.1502 0.9361
vn 0.8898 -0.1378 0.4351
vn 0.8905 -0.1245 0.4376
vn 0.4408 0.7438 -0.5024
vn -0.5536 0.8187 -0.1526
vn -0.2354 0.5319 0.8134
vn 0.7590 0.4571 0.4637
vn -0.1544 -0.9599 -0.2342
vn 0.1546 0.9599 0.2340
vn 0.7590 0.4570 0.4637
vn -0.1545 -0.9598 -0.2343
vn -0.1544 -0.9598 -0.2342
vn -0.1545 -0.9599 -0.2340
vn -0.1545 -0.9598 -0.2341
vn -0.1544 -0.9600 -0.2337
vn -0.1547 -0.9599 -0.2339
vn -0.1546 -0.9599 -0.2339
vn -0.1545 -0.9599 -0.2339
vn -0.8554 -0.4607 0.2369
vn 0.1850 -0.6438 0.7425
vn -0.7835 0.4561 0.4220
vn 0.2569 0.2730 0.9271
vn -0.2568 -0.2730 -0.9271
vn 0.7835 -0.4562 -0.4220
vn -0.1852 0.6437 -0.7426
vn 0.8553 0.4606 -0.2375
vn 0.4583 0.2587 -0.8503
vn 0.9504 0.1110 -0.2907
vn 0.4580 0.2456 -0.8543
vn 0.9509 0.0944 -0.2946
vn -0.2984 0.3144 -0.9012
vn -0.2964 0.3305 -0.8960
vn -0.8753 0.2602 -0.4077
vn -0.8728 0.2731 -0.4045
vn -0.9314 0.1315 0.3395
vn -0.8727 0.2731 -0.4047
vn -0.9346 0.1149 0.3366
vn -0.8751 0.2601 -0.4081
vn -0.4417 -0.0363 0.8964
vn -0.4400 -0.0228 0.8977
vn 0.3147 -0.1050 0.9434
vn 0.3155 -0.0879 0.9448
vn 0.8915 -0.0508 0.4501
vn 0.8914 -0.0374 0.4517
vn 0.8912 -0.0375 0.4521
vn 0.8916 -0.0509 0.4500
vn 0.3889 0.7556 -0.5271
vn -0.6130 0.7665 -0.1916
vn -0.6131 0.7665 -0.1915
vn -0.2873 0.5435 0.7887
vn 0.7147 0.5327 0.4532
vn -0.0764 -0.9774 -0.1972
vn -0.0765 -0.9774 -0.1969
vn 0.0765 0.9775 0.1967
vn 0.0765 0.9775 0.1968
vn 0.7148 0.5326 0.4532
vn -0.0769 -0.9775 -0.1963
vn -0.0766 -0.9775 -0.1965
vn -0.0765 -0.9774 -0.1970
vn -0.0766 -0.9775 -0.1966
vn -0.0767 -0.9775 -0.1965
vn -0.0767 -0.9775 -0.1964
vn -0.0764 -0.9774 -0.1969
vt 0.159177 0.265710
vt 0.172926 0.265710
vt 0.172926 0.253713
vt 0.172926 0.277708
vt 0.186675 0.265710
vt 0.055786 0.408810
vt 0.055786 0.422559
vt 0.067783 0.408810
vt 0.043789 0.408810
vt 0.055786 0.395061
vt 0.320012 0.666945
vt 0.315699 0.666627
vt 0.320012 0.704820
vt 0.312442 0.704477
vt 0.327595 0.704492
vt 0.324315 0.666612
vt 0.335107 0.703512
vt 0.328556 0.665745
vt 0.196364 0.718159
vt 0.200632 0.717304
vt 0.199622 0.756008
vt 0.207104 0.755025
vt 0.192052 0.756351
vt 0.192052 0.718476
vt 0.184469 0.756023
vt 0.187748 0.718143
vt 0.176956 0.755043
vt 0.183507 0.717276
vt 0.311431 0.665773
vt 0.304959 0.703494
vt 0.320011 0.662018
vt 0.324743 0.660215
vt 0.196796 0.711758
vt 0.192052 0.713549
vt 0.315268 0.660227
vt 0.075484 0.419404
vt 0.072422 0.426798
vt 0.075485 0.434192
vt 0.320011 0.658476
vt 0.192052 0.710007
vt 0.187320 0.711746
vt 0.082878 0.416341
vt 0.082878 0.437255
s 1
usemtl æµè‹.001
f 1/1/1 2/2/1 3/3/1
f 4/4/2 5/2/2 6/1/2
f 7/2/3 8/5/3 9/3/3
f 10/4/4 11/5/4 12/2/4
f 13/6/5 14/7/5 15/8/5
f 16/6/6 17/9/6 18/7/6
f 19/10/7 20/6/7 21/8/7
f 22/10/8 23/9/8 24/6/8
f 25/11/9 26/12/10 27/13/11
f 28/14/12 27/13/11 26/12/10
f 27/13/11 29/15/13 25/11/9
f 30/16/14 25/11/9 29/15/13
f 29/15/13 31/17/15 30/16/14
f 32/18/16 30/16/14 31/17/15
f 33/19/17 34/20/18 35/21/19
f 36/22/15 35/21/19 34/20/18
f 35/21/19 37/23/20 33/19/17
f 38/24/21 33/19/17 37/23/20
f 37/23/20 39/25/22 38/24/21
f 40/26/23 38/24/21 39/25/22
f 39/25/22 41/27/24 40/26/23
f 42/28/25 40/26/23 41/27/24
f 26/12/10 43/29/25 28/14/12
f 44/30/24 28/14/12 43/29/25
f 25/11/9 45/31/26 26/12/10
f 30/16/14 45/31/26 25/11/9
f 32/18/16 46/32/27 30/16/14
f 30/16/14 46/32/27 45/31/26
f 33/19/17 47/33/27 34/20/18
f 33/19/17 48/34/28 47/33/27
f 38/24/21 48/34/28 33/19/17
f 40/26/23 48/34/28 38/24/21
f 26/12/10 49/35/29 43/29/25
f 26/12/10 45/31/26 49/35/29
f 50/36/30 51/37/30 52/38/30
f 49/35/29 45/31/26 53/39/31
f 45/31/26 46/32/27 53/39/31
f 47/33/27 48/34/28 54/40/31
f 42/28/25 55/41/32 40/26/23
f 40/26/23 55/41/32 48/34/28
f 48/34/28 55/41/32 54/40/31
f 56/38/33 57/37/33 58/36/34
f 59/36/35 60/38/36 61/42/35
f 62/43/37 61/42/35 60/38/36
f 63/43/38 64/38/39 65/42/40
f 66/36/35 65/42/40 64/38/39
f 67/1/41 68/2/41 69/3/41
f 70/4/42 71/2/42 72/1/42
f 73/2/43 74/5/43 75/3/43
f 76/4/44 77/5/44 78/2/44
f 79/6/45 80/7/45 81/8/45
f 82/6/46 83/9/46 84/7/46
f 85/10/47 86/6/47 87/8/47
f 88/10/48 89/9/48 90/6/48
f 91/11/49 92/12/50 93/13/51
f 94/14/52 93/13/51 92/12/50
f 93/13/51 95/15/53 91/11/49
f 96/16/54 91/11/49 95/15/53
f 95/15/53 97/17/55 96/16/54
f 98/18/56 96/16/54 97/17/55
f 99/19/57 100/20/58 101/21/59
f 102/22/60 101/21/59 100/20/58
f 101/21/59 103/23/61 99/19/57
f 104/24/62 99/19/57 103/23/61
f 103/23/61 105/25/63 104/24/62
f 106/26/64 104/24/62 105/25/63
f 105/25/63 107/27/65 106/26/64
f 108/28/66 106/26/64 107/27/65
f 92/12/50 109/29/67 94/14/52
f 110/30/68 94/14/52 109/29/67
f 91/11/49 111/31/69 92/12/50
f 96/16/54 111/31/69 91/11/49
f 98/18/56 112/32/70 96/16/54
f 96/16/54 112/32/70 111/31/69
f 99/19/57 113/33/71 100/20/58
f 104/24/62 114/34/72 99/19/57
f 99/19/57 114/34/72 113/33/71
f 106/26/64 114/34/72 104/24/62
f 92/12/50 111/31/69 115/35/73
f 92/12/50 115/35/73 109/29/67
f 116/36/74 117/37/75 118/38/74
f 115/35/73 111/31/69 119/39/76
f 111/31/69 112/32/70 119/39/76
f 113/33/71 114/34/72 120/40/77
f 114/34/72 121/41/78 120/40/77
f 106/26/64 121/41/78 114/34/72
f 108/28/66 121/41/78 106/26/64
f 122/38/79 123/37/79 124/36/79
f 125/36/80 126/38/75 127/42/81
f 128/43/82 127/42/81 126/38/75
f 129/43/83 130/38/81 131/42/84
f 132/36/85 131/42/84 130/38/81
