# Blender 3.6.5
# www.blender.org
mtllib furina.006.mtl
o furina.006
v 14.509104 2.369354 -15.768156
v 14.511839 2.378664 -15.759542
v 14.506011 2.378752 -15.762879
v 14.515014 2.369320 -15.764703
v 14.518971 2.380186 -15.758178
v 14.526370 2.372668 -15.764132
v 14.523574 2.382115 -15.759200
v 14.522167 2.370710 -15.763195
v 14.504090 2.369992 -15.772052
v 14.501019 2.379371 -15.766953
v 14.533391 2.377432 -15.768753
v 14.530724 2.386984 -15.763749
v 14.521868 2.371762 -15.764924
v 14.515820 2.380360 -15.759968
v 14.518822 2.381348 -15.759842
v 14.519196 2.370938 -15.765059
v 14.525652 2.373648 -15.766046
v 14.522645 2.383091 -15.760874
v 14.515586 2.370291 -15.766077
v 14.512140 2.379650 -15.760919
v 14.531997 2.378049 -15.770489
v 14.529444 2.387811 -15.765618
v 14.510036 2.370274 -15.769342
v 14.506944 2.379712 -15.764111
v 14.505280 2.370884 -15.773182
v 14.502153 2.380303 -15.768018
v 14.519165 2.369979 -15.763566
v 14.516055 2.379477 -15.758491
v 14.496560 2.380365 -15.771540
v 14.499803 2.370941 -15.776680
v 14.492866 2.381901 -15.776933
v 14.495996 2.372565 -15.782132
v 14.495254 2.377977 -15.792652
v 14.491303 2.384906 -15.783535
v 14.492336 2.387445 -15.787830
v 14.494271 2.375470 -15.788763
v 14.500162 2.383102 -15.799207
v 14.497187 2.392706 -15.794487
v 14.496180 2.376145 -15.788468
v 14.493312 2.384200 -15.780595
v 14.496349 2.374837 -15.785999
v 14.493158 2.385726 -15.783362
v 14.497357 2.378475 -15.791977
v 14.494220 2.387941 -15.786924
v 14.497481 2.373380 -15.782670
v 14.494372 2.382682 -15.777203
v 14.502075 2.383154 -15.797912
v 14.499260 2.392960 -15.793282
v 14.501069 2.371804 -15.777559
v 14.497878 2.381259 -15.772419
v 14.494711 2.374152 -15.785977
v 14.491686 2.383634 -15.780825
v 14.518529 2.359896 -15.770239
v 14.519437 2.370262 -15.763901
v 14.515291 2.369581 -15.765008
v 14.522529 2.360577 -15.769021
v 14.512599 2.360010 -15.773753
v 14.509397 2.369675 -15.768439
v 14.522489 2.370988 -15.763507
v 14.525889 2.361318 -15.768446
v 14.529597 2.363155 -15.769629
v 14.526729 2.372997 -15.764465
v 14.507551 2.360505 -15.777595
v 14.504447 2.370302 -15.772384
v 14.536007 2.367632 -15.773775
v 14.533340 2.377503 -15.768766
v 14.522183 2.372033 -15.765187
v 14.519488 2.371216 -15.765312
v 14.522680 2.361883 -15.770599
v 14.525393 2.362602 -15.770340
v 14.525957 2.373910 -15.766272
v 14.528961 2.364375 -15.771696
v 14.515901 2.370637 -15.766367
v 14.519244 2.361301 -15.771720
v 14.534669 2.368334 -15.775571
v 14.531972 2.378181 -15.770488
v 14.510337 2.370607 -15.769593
v 14.513558 2.361324 -15.774902
v 14.505609 2.371198 -15.773485
v 14.508608 2.361739 -15.778519
v 14.499457 2.363150 -15.787718
v 14.495070 2.374420 -15.786234
v 14.498106 2.364744 -15.791404
v 14.496322 2.372818 -15.782393
v 14.503340 2.361590 -15.782240
v 14.500117 2.371258 -15.776944
v 14.494602 2.375746 -15.789064
v 14.497442 2.366172 -15.794518
v 14.498677 2.368431 -15.797965
v 14.495612 2.378306 -15.792984
v 14.503114 2.373245 -15.803923
v 14.500192 2.383158 -15.799148
v 14.496624 2.375117 -15.786266
v 14.496464 2.376421 -15.788760
v 14.499882 2.365774 -15.791493
v 14.499570 2.367008 -15.794007
v 14.497604 2.378747 -15.792256
v 14.500973 2.369150 -15.797347
v 14.497805 2.373725 -15.782951
v 14.501116 2.364394 -15.788335
v 14.505096 2.373380 -15.802674
v 14.502098 2.383278 -15.797869
v 14.501353 2.372140 -15.777827
v 14.504640 2.362846 -15.783077
vn -0.4503 -0.6586 0.6029
vn -0.3154 -0.5367 0.7826
vn -0.4960 -0.5410 0.6792
vn -0.2718 -0.6471 0.7123
vn 0.2179 -0.4013 0.8896
vn 0.5746 -0.3910 0.7190
vn 0.5420 -0.2599 0.7992
vn 0.2618 -0.5240 0.8105
vn -0.5745 -0.6425 0.5071
vn -0.6220 -0.5254 0.5806
vn 0.6675 -0.3679 0.6474
vn 0.6283 -0.2112 0.7488
vn -0.2166 0.2030 -0.9549
vn 0.0325 0.4857 -0.8735
vn -0.2829 0.3818 -0.8799
vn 0.0780 0.3282 -0.9414
vn -0.5013 0.0509 -0.8638
vn -0.5752 0.2424 -0.7813
vn 0.3649 0.3789 -0.8504
vn 0.3260 0.5408 -0.7754
vn -0.5921 0.0437 -0.8047
vn -0.6497 0.1958 -0.7345
vn 0.5431 0.3880 -0.7446
vn 0.5039 0.5416 -0.6729
vn 0.6601 0.3759 -0.6504
vn 0.6219 0.5255 -0.5807
vn -0.0334 -0.6094 0.7922
vn -0.0746 -0.4923 0.8672
vn -0.7303 -0.5010 0.4643
vn -0.6801 -0.6194 0.3922
vn -0.8435 -0.4466 0.2985
vn -0.7975 -0.5575 0.2307
vn -0.8167 -0.1534 -0.5563
vn -0.9611 -0.1997 -0.1910
vn -0.8691 -0.0189 -0.4942
vn -0.9088 -0.3243 -0.2624
vn -0.7491 -0.1260 -0.6504
vn -0.8170 0.0353 -0.5755
vn 0.9887 -0.0030 0.1496
vn 0.9431 0.3304 -0.0385
vn 0.9777 0.1743 -0.1169
vn 0.9523 0.1712 0.2526
vn 0.8916 -0.1868 0.4125
vn 0.8507 -0.0007 0.5256
vn 0.8778 0.2913 -0.3802
vn 0.8364 0.4536 -0.3076
vn 0.8387 -0.2007 0.5063
vn 0.8015 -0.0514 0.5957
vn 0.7629 0.3502 -0.5435
vn 0.7235 0.5041 -0.4716
vn -0.8858 -0.4639 0.0106
vn -0.9353 -0.3451 0.0785
vn -0.3306 -0.5312 0.7801
vn -0.1359 -0.3712 0.9186
vn -0.3656 -0.4143 0.8335
vn -0.1010 -0.4901 0.8658
vn -0.4946 -0.5345 0.6853
vn -0.5230 -0.4090 0.7478
vn 0.1745 -0.2701 0.9469
vn 0.2219 -0.3918 0.8929
vn 0.5515 -0.2507 0.7956
vn 0.5063 -0.1159 0.8545
vn -0.6242 -0.5184 0.5845
vn -0.6577 -0.3887 0.6453
vn 0.6298 -0.2091 0.7481
vn 0.5654 -0.0425 0.8237
vn -0.3515 0.5561 -0.7531
vn 0.0166 0.6550 -0.7554
vn 0.0662 0.5078 -0.8589
vn -0.3023 0.3864 -0.8714
vn -0.6295 0.4320 -0.6458
vn -0.5834 0.2472 -0.7736
vn 0.2732 0.6915 -0.6687
vn 0.3240 0.5528 -0.7678
vn -0.6497 0.2056 -0.7319
vn -0.6888 0.3644 -0.6267
vn 0.4269 0.6836 -0.5920
vn 0.4800 0.5491 -0.6842
vn 0.5656 0.6601 -0.4943
vn 0.6215 0.5266 -0.5801
vn -0.8389 -0.4445 0.3142
vn -0.9591 -0.2308 0.1641
vn -0.9315 -0.3484 0.1046
vn -0.8674 -0.3287 0.3736
vn -0.7350 -0.4934 0.4650
vn -0.7672 -0.3680 0.5253
vn -0.9901 -0.0715 -0.1205
vn -0.9627 -0.1897 -0.1929
vn -0.8646 -0.0090 -0.5023
vn -0.8946 0.1231 -0.4296
vn -0.8159 0.0376 -0.5770
vn -0.8552 0.1999 -0.4783
vn 0.8592 0.5113 0.0170
vn 0.8647 0.3486 0.3616
vn 0.9304 0.3603 -0.0669
vn 0.9464 0.1731 0.2728
vn 0.7562 0.1956 0.6244
vn 0.8447 0.0036 0.5353
vn 0.7630 0.6079 -0.2196
vn 0.8311 0.4664 -0.3028
vn 0.8008 -0.0418 0.5974
vn 0.7293 0.1224 0.6732
vn 0.6755 0.6411 -0.3643
vn 0.7376 0.5051 -0.4481
vt 0.414626 0.942136
vt 0.427707 0.953759
vt 0.414626 0.953759
vt 0.427707 0.942136
vt 0.444920 0.953759
vt 0.454379 0.942136
vt 0.454379 0.953759
vt 0.444920 0.942136
vt 0.405791 0.942136
vt 0.405791 0.953759
vt 0.470304 0.942136
vt 0.470304 0.953759
vt 0.444920 0.932492
vt 0.436707 0.922903
vt 0.444920 0.922903
vt 0.436707 0.932492
vt 0.454379 0.932492
vt 0.454379 0.922903
vt 0.427707 0.932492
vt 0.427707 0.922903
vt 0.470304 0.932492
vt 0.470304 0.922903
vt 0.414626 0.932492
vt 0.414626 0.922903
vt 0.405791 0.932492
vt 0.405791 0.922903
vt 0.436543 0.942149
vt 0.436707 0.953759
vt 0.427707 0.992273
vt 0.436707 0.980649
vt 0.427707 0.980649
vt 0.436707 0.992273
vt 0.414626 0.992273
vt 0.414626 0.980649
vt 0.444920 0.980649
vt 0.444920 0.992273
vt 0.454379 0.992273
vt 0.454379 0.980649
vt 0.405791 0.992273
vt 0.405791 0.980649
vt 0.470304 0.992273
vt 0.470304 0.980649
vt 0.444920 0.971006
vt 0.436707 0.971006
vt 0.436707 0.961417
vt 0.444920 0.961417
vt 0.454379 0.971006
vt 0.454379 0.961417
vt 0.427707 0.971006
vt 0.427708 0.961417
vt 0.470304 0.961417
vt 0.470304 0.971006
vt 0.414626 0.971006
vt 0.414626 0.961417
vt 0.405791 0.971006
vt 0.405791 0.961417
vt 0.427708 0.992273
vt 0.414625 0.980649
vt 0.454378 0.971006
vt 0.427707 0.961417
vt 0.470303 0.961417
s 1
usemtl 齿.001
f 1/1/1 2/2/2 3/3/3
f 1/1/1 4/4/4 2/2/2
f 5/5/5 6/6/6 7/7/7
f 5/5/5 8/8/8 6/6/6
f 9/9/9 1/1/1 3/3/3
f 9/9/9 3/3/3 10/10/10
f 7/7/7 6/6/6 11/11/11
f 7/7/7 11/11/11 12/12/12
f 13/13/13 6/6/6 8/8/8
f 13/13/13 14/14/14 15/15/15
f 13/13/13 16/16/16 14/14/14
f 17/17/17 13/13/13 15/15/15
f 17/17/17 15/15/15 18/18/18
f 13/13/13 17/17/17 6/6/6
f 17/17/17 11/11/11 6/6/6
f 14/14/14 19/19/19 20/20/20
f 14/14/14 16/16/16 19/19/19
f 21/21/21 17/17/17 18/18/18
f 21/21/21 18/18/18 22/22/22
f 17/17/17 21/21/21 11/11/11
f 23/23/23 19/19/19 4/4/4
f 20/20/20 19/19/19 23/23/23
f 23/23/23 4/4/4 1/1/1
f 20/20/20 23/23/23 24/24/24
f 25/25/25 1/1/1 9/9/9
f 25/25/25 23/23/23 1/1/1
f 24/24/24 23/23/23 25/25/25
f 24/24/24 25/25/25 26/26/26
f 5/5/5 27/27/27 8/8/8
f 19/19/19 27/27/27 4/4/4
f 13/13/13 8/8/8 27/27/27
f 19/19/19 16/16/16 27/27/27
f 13/13/13 27/27/27 16/16/16
f 5/5/5 28/28/28 27/27/27
f 4/4/4 27/27/27 28/28/28
f 4/4/4 28/28/28 2/2/2
f 29/3/29 9/9/9 10/10/10
f 29/3/29 30/1/30 9/9/9
f 30/1/30 25/25/25 9/9/9
f 31/2/31 30/1/30 29/3/29
f 31/2/31 32/4/32 30/1/30
f 33/6/33 34/5/34 35/7/35
f 33/6/33 36/8/36 34/5/34
f 37/11/37 33/6/33 35/7/35
f 37/11/37 35/7/35 38/12/38
f 39/13/39 36/8/36 33/6/33
f 39/13/39 40/14/40 41/16/41
f 39/13/39 42/15/42 40/14/40
f 39/13/39 33/6/33 43/17/43
f 42/15/42 39/13/39 43/17/43
f 43/17/43 33/6/33 37/11/37
f 42/15/42 43/17/43 44/18/44
f 45/19/45 40/14/40 46/20/46
f 45/19/45 41/16/41 40/14/40
f 43/17/43 37/11/37 47/21/47
f 44/18/44 43/17/43 47/21/47
f 44/18/44 47/21/47 48/22/48
f 30/1/30 49/23/49 25/25/25
f 49/23/49 45/19/45 46/20/46
f 32/4/32 49/23/49 30/1/30
f 32/4/32 45/19/45 49/23/49
f 25/25/25 50/24/50 26/26/26
f 25/25/25 49/23/49 50/24/50
f 49/23/49 46/20/46 50/24/50
f 51/27/51 34/5/34 36/8/36
f 51/27/51 45/19/45 32/4/32
f 51/27/51 36/8/36 39/13/39
f 51/27/51 39/13/39 41/16/41
f 51/27/51 41/16/41 45/19/45
f 51/27/51 52/28/52 34/5/34
f 32/4/32 52/28/52 51/27/51
f 32/4/32 31/2/31 52/28/52
f 53/29/53 54/30/54 55/31/55
f 53/29/53 56/32/56 54/30/54
f 55/31/55 57/33/57 53/29/53
f 55/31/55 58/34/58 57/33/57
f 56/32/56 59/35/59 54/30/54
f 56/32/56 60/36/60 59/35/59
f 59/35/59 61/37/61 62/38/62
f 59/35/59 60/36/60 61/37/61
f 58/34/58 63/39/63 57/33/57
f 58/34/58 64/40/64 63/39/63
f 62/38/62 61/37/61 65/41/65
f 62/38/62 65/41/65 66/42/66
f 67/43/67 59/35/59 62/38/62
f 68/44/68 59/35/59 67/43/67
f 68/44/68 54/30/54 59/35/59
f 67/43/67 69/45/69 68/44/68
f 67/43/67 70/46/70 69/45/69
f 67/43/67 62/38/62 71/47/71
f 71/47/71 62/38/62 66/42/66
f 71/47/71 70/46/70 67/43/67
f 71/47/71 72/48/72 70/46/70
f 73/49/73 54/30/54 68/44/68
f 73/49/73 55/31/55 54/30/54
f 68/44/68 69/45/69 74/50/74
f 68/44/68 74/50/74 73/49/73
f 71/47/71 75/51/75 72/48/72
f 71/47/71 66/42/66 76/52/76
f 71/47/71 76/52/76 75/51/75
f 77/53/77 58/34/58 55/31/55
f 77/53/77 55/31/55 73/49/73
f 73/49/73 74/50/74 78/54/78
f 73/49/73 78/54/78 77/53/77
f 79/55/79 58/34/58 77/53/77
f 79/55/79 64/40/64 58/34/58
f 77/53/77 78/54/78 80/56/80
f 77/53/77 80/56/80 79/55/79
f 81/57/81 82/30/82 83/32/83
f 81/57/81 84/31/84 82/30/82
f 85/33/85 84/31/84 81/57/81
f 85/33/85 86/58/86 84/31/84
f 63/39/63 64/40/64 86/58/86
f 63/39/63 86/58/86 85/33/85
f 79/55/79 86/58/86 64/40/64
f 83/32/83 82/30/82 87/35/87
f 83/32/83 87/35/87 88/36/88
f 89/37/89 88/36/88 87/35/87
f 89/37/89 87/35/87 90/38/90
f 91/41/91 89/37/89 90/38/90
f 91/41/91 90/38/90 92/42/92
f 93/44/93 87/35/87 82/30/82
f 90/38/90 87/35/87 94/43/94
f 93/44/93 94/43/94 87/35/87
f 95/45/95 94/43/94 93/44/93
f 95/45/95 96/46/96 94/43/94
f 97/59/97 96/46/96 98/48/98
f 90/38/90 94/43/94 97/59/97
f 97/59/97 94/43/94 96/46/96
f 92/42/92 90/38/90 97/59/97
f 99/49/99 82/30/82 84/31/84
f 99/49/99 93/44/93 82/30/82
f 100/60/100 95/45/95 93/44/93
f 100/60/100 93/44/93 99/49/99
f 101/61/101 97/59/97 98/48/98
f 101/61/101 102/52/102 97/59/97
f 92/42/92 97/59/97 102/52/102
f 80/56/80 103/53/103 79/55/79
f 79/55/79 103/53/103 86/58/86
f 103/53/103 99/49/99 84/31/84
f 103/53/103 84/31/84 86/58/86
f 104/54/104 99/49/99 103/53/103
f 80/56/80 104/54/104 103/53/103
f 104/54/104 100/60/100 99/49/99
