# Blender 3.6.5
# www.blender.org
mtllib furina.009.mtl
g furina.009_furina.009
v 14.580161 2.450326 -15.703330
v 14.579398 2.455802 -15.699463
v 14.562083 2.456879 -15.713554
v 14.577054 2.461293 -15.696162
v 14.573259 2.466976 -15.693496
v 14.567256 2.472615 -15.692340
v 14.559623 2.476645 -15.693727
v 14.552676 2.478083 -15.697380
v 14.546352 2.477554 -15.702503
v 14.541936 2.474596 -15.708740
v 14.539668 2.469087 -15.715396
v 14.539605 2.462978 -15.720889
v 14.541273 2.456811 -15.725006
v 14.544220 2.450840 -15.727624
v 14.548493 2.444963 -15.728699
v 14.553885 2.439891 -15.728102
v 14.559831 2.436853 -15.725743
v 14.565687 2.435846 -15.722280
v 14.571613 2.436484 -15.717950
v 14.576472 2.439396 -15.713141
v 14.579350 2.444571 -15.708044
v 14.581002 2.456760 -15.701142
v 14.580161 2.450326 -15.703330
v 14.581795 2.451171 -15.705137
v 14.579398 2.455802 -15.699463
v 14.578688 2.462384 -15.697712
v 14.577054 2.461293 -15.696162
v 14.574856 2.468191 -15.694995
v 14.573259 2.466976 -15.693496
v 14.568693 2.473924 -15.693845
v 14.567256 2.472615 -15.692340
v 14.561044 2.477959 -15.695112
v 14.559623 2.476645 -15.693727
v 14.553898 2.479393 -15.698794
v 14.552676 2.478083 -15.697380
v 14.547441 2.478823 -15.703942
v 14.546352 2.477554 -15.702503
v 14.541936 2.474596 -15.708740
v 14.542958 2.475798 -15.710217
v 14.539668 2.469087 -15.715396
v 14.540624 2.470204 -15.717016
v 14.539605 2.462978 -15.720889
v 14.540643 2.463890 -15.722612
v 14.541273 2.456811 -15.725006
v 14.542397 2.457530 -15.726851
v 14.544220 2.450840 -15.727624
v 14.545397 2.451435 -15.729603
v 14.548493 2.444963 -15.728699
v 14.549762 2.445411 -15.730822
v 14.553885 2.439891 -15.728102
v 14.555245 2.440248 -15.730311
v 14.559831 2.436853 -15.725743
v 14.561296 2.437214 -15.727934
v 14.565687 2.435846 -15.722280
v 14.567108 2.436278 -15.724574
v 14.571613 2.436484 -15.717950
v 14.573352 2.436939 -15.720012
v 14.576472 2.439396 -15.713141
v 14.578236 2.440001 -15.715118
v 14.579350 2.444571 -15.708044
v 14.581081 2.445339 -15.709893
v 14.564754 2.436042 -15.722377
v 14.562639 2.438446 -15.722322
v 14.564115 2.435604 -15.723063
v 14.565164 2.436784 -15.721704
v 14.565291 2.437782 -15.721122
v 14.565076 2.438970 -15.720690
v 14.564483 2.440040 -15.720515
v 14.563651 2.440836 -15.720599
v 14.562694 2.441315 -15.720925
v 14.561847 2.441430 -15.721402
v 14.561093 2.441212 -15.722007
v 14.560576 2.440698 -15.722596
v 14.560244 2.439964 -15.723194
v 14.560177 2.439067 -15.723734
v 14.560394 2.438124 -15.724128
v 14.560965 2.437092 -15.724355
v 14.561734 2.436257 -15.724326
v 14.562548 2.435734 -15.724079
v 14.563346 2.435521 -15.723656
v 14.443293 2.479026 -15.824209
v 14.446031 2.473210 -15.826264
v 14.458521 2.474551 -15.808473
v 14.441222 2.484470 -15.820659
v 14.439911 2.489731 -15.815719
v 14.440228 2.494292 -15.808772
v 14.442860 2.496573 -15.800753
v 14.447190 2.496087 -15.794068
v 14.452559 2.493565 -15.788474
v 14.458446 2.488849 -15.785267
v 14.464125 2.481984 -15.784636
v 14.468401 2.475134 -15.786151
v 14.471195 2.468774 -15.789233
v 14.472466 2.463088 -15.793386
v 14.472148 2.457992 -15.798668
v 14.470259 2.454162 -15.804743
v 14.466975 2.452698 -15.810843
v 14.462985 2.453370 -15.816406
v 14.458441 2.455794 -15.821672
v 14.453917 2.460306 -15.825465
v 14.449661 2.466698 -15.826908
v 14.446031 2.473210 -15.826264
v 14.445002 2.479964 -15.825792
v 14.447845 2.474025 -15.827907
v 14.443293 2.479026 -15.824209
v 14.442827 2.485566 -15.822237
v 14.441222 2.484470 -15.820659
v 14.441491 2.490948 -15.817234
v 14.439911 2.489731 -15.815719
v 14.441842 2.495571 -15.810114
v 14.440228 2.494292 -15.808772
v 14.444357 2.497872 -15.802067
v 14.442860 2.496573 -15.800753
v 14.448730 2.497343 -15.795192
v 14.447190 2.496087 -15.794068
v 14.454126 2.494753 -15.789474
v 14.452559 2.493565 -15.788474
v 14.458446 2.488849 -15.785267
v 14.460041 2.489953 -15.786219
v 14.464125 2.481984 -15.784636
v 14.465851 2.482968 -15.785552
v 14.468401 2.475134 -15.786151
v 14.470184 2.475918 -15.787189
v 14.471195 2.468774 -15.789233
v 14.473057 2.469367 -15.790402
v 14.472466 2.463088 -15.793386
v 14.474434 2.463547 -15.794640
v 14.472148 2.457992 -15.798668
v 14.474223 2.458303 -15.800051
v 14.470259 2.454162 -15.804743
v 14.472395 2.454386 -15.806241
v 14.466975 2.452698 -15.810843
v 14.469088 2.452948 -15.812441
v 14.462985 2.453370 -15.816406
v 14.465214 2.453663 -15.817959
v 14.458441 2.455794 -15.821672
v 14.460424 2.456206 -15.823511
v 14.453917 2.460306 -15.825465
v 14.455841 2.460883 -15.827293
v 14.449661 2.466698 -15.826908
v 14.451493 2.467448 -15.828665
v 14.463715 2.455326 -15.812985
v 14.463181 2.453374 -15.815466
v 14.463819 2.452717 -15.814982
v 14.462628 2.454279 -15.815676
v 14.462230 2.455368 -15.815578
v 14.462038 2.456552 -15.815124
v 14.462104 2.457509 -15.814344
v 14.462389 2.458115 -15.813404
v 14.462864 2.458349 -15.812418
v 14.463412 2.458226 -15.811617
v 14.464018 2.457778 -15.810975
v 14.464539 2.457086 -15.810614
v 14.465015 2.456214 -15.810472
v 14.465384 2.455242 -15.810610
v 14.465584 2.454302 -15.811021
v 14.465578 2.453368 -15.811775
v 14.465343 2.452706 -15.812667
v 14.464948 2.452387 -15.813528
v 14.464437 2.452397 -15.814302
vn -0.5628 -0.5028 0.6561
vn -0.5614 -0.5476 0.6205
vn -0.4765 -0.5467 0.6885
vn -0.5330 -0.5926 0.6039
vn -0.5056 -0.6255 0.5942
vn -0.4766 -0.6436 0.5989
vn -0.4408 -0.6581 0.6105
vn -0.4444 -0.6617 0.6038
vn -0.4511 -0.6572 0.6038
vn -0.4208 -0.6441 0.6388
vn -0.3969 -0.6206 0.6763
vn -0.3881 -0.5838 0.7131
vn -0.3953 -0.5334 0.7478
vn -0.4216 -0.4823 0.7679
vn -0.4577 -0.4413 0.7718
vn -0.4911 -0.4160 0.7654
vn -0.5096 -0.4060 0.7586
vn -0.5096 -0.4048 0.7592
vn -0.5034 -0.4048 0.7633
vn -0.5137 -0.4124 0.7523
vn -0.5430 -0.4439 0.7128
vn 0.7578 -0.2034 0.6200
vn 0.7633 -0.3601 0.5364
vn 0.7608 -0.3786 0.5272
vn 0.7536 -0.1832 0.6313
vn 0.7078 -0.0368 0.7055
vn 0.7001 -0.0188 0.7138
vn 0.5985 0.1893 0.7784
vn 0.5791 0.2233 0.7841
vn 0.3743 0.4764 0.7956
vn 0.3458 0.5025 0.7924
vn 0.0631 0.7003 0.7111
vn 0.0212 0.7214 0.6922
vn -0.2681 0.8109 0.5201
vn -0.2808 0.8125 0.5108
vn -0.5496 0.7881 0.2773
vn -0.5455 0.7894 0.2817
vn -0.7748 0.6321 -0.0114
vn -0.7808 0.6244 -0.0214
vn -0.8757 0.4156 -0.2457
vn -0.8792 0.3988 -0.2607
vn -0.8869 0.1822 -0.4245
vn -0.8842 0.1594 -0.4390
vn -0.8522 -0.0274 -0.5225
vn -0.8463 -0.0562 -0.5297
vn -0.8017 -0.2370 -0.5487
vn -0.7909 -0.2735 -0.5474
vn -0.7075 -0.4762 -0.5221
vn -0.6858 -0.5157 -0.5136
vn -0.5096 -0.7397 -0.4396
vn -0.4786 -0.7680 -0.4256
vn -0.2225 -0.9280 -0.2988
vn -0.2037 -0.9354 -0.2890
vn 0.0725 -0.9886 -0.1319
vn 0.0697 -0.9886 -0.1335
vn 0.3315 -0.9417 0.0577
vn 0.3380 -0.9390 0.0634
vn 0.5721 -0.7716 0.2779
vn 0.5685 -0.7755 0.2745
vn 0.7096 -0.5561 0.4328
vn 0.7047 -0.5671 0.4263
vn -0.2956 -0.5611 0.7732
vn -0.2950 -0.5138 0.8056
vn -0.3054 -0.5699 0.7629
vn -0.2677 -0.5161 0.8136
vn -0.2546 -0.4782 0.8405
vn -0.2519 -0.4751 0.8431
vn -0.2496 -0.4875 0.8367
vn -0.2507 -0.4906 0.8345
vn -0.2697 -0.4741 0.8381
vn -0.2988 -0.4612 0.8355
vn -0.3094 -0.4600 0.8323
vn -0.3106 -0.4610 0.8313
vn -0.3213 -0.4866 0.8124
vn -0.3280 -0.5200 0.7887
vn -0.3261 -0.5447 0.7726
vn -0.3223 -0.5577 0.7649
vn -0.3214 -0.5618 0.7623
vn -0.3198 -0.5643 0.7611
vn -0.3095 -0.5672 0.7632
vn -0.6692 -0.5292 0.5217
vn -0.6959 -0.4799 0.5342
vn -0.7417 -0.5013 0.4456
vn -0.6631 -0.5703 0.4848
vn -0.6617 -0.5986 0.4515
vn -0.6716 -0.6101 0.4204
vn -0.6879 -0.6159 0.3841
vn -0.6818 -0.6212 0.3864
vn -0.6806 -0.6180 0.3934
vn -0.7147 -0.5939 0.3694
vn -0.7488 -0.5603 0.3540
vn -0.7787 -0.5171 0.3552
vn -0.8030 -0.4638 0.3742
vn -0.8116 -0.4156 0.4106
vn -0.8055 -0.3817 0.4533
vn -0.7921 -0.3647 0.4894
vn -0.7825 -0.3592 0.5086
vn -0.7828 -0.3580 0.5090
vn -0.7872 -0.3563 0.5033
vn -0.7772 -0.3673 0.5110
vn -0.7420 -0.4099 0.5305
vn -0.6465 -0.1196 -0.7535
vn -0.6980 0.0448 -0.7147
vn -0.6406 -0.1395 -0.7551
vn -0.7049 0.0654 -0.7063
vn -0.7482 0.2114 -0.6289
vn -0.7526 0.2288 -0.6175
vn -0.7704 0.4228 -0.4771
vn -0.7684 0.4532 -0.4519
vn -0.7195 0.6629 -0.2070
vn -0.7097 0.6825 -0.1749
vn -0.5735 0.8093 0.1271
vn -0.5483 0.8188 0.1698
vn -0.3434 0.8237 0.4512
vn -0.3332 0.8213 0.4631
vn -0.0897 0.7096 0.6988
vn -0.0940 0.7125 0.6954
vn 0.1816 0.4684 0.8647
vn 0.1905 0.4581 0.8682
vn 0.3783 0.2013 0.9035
vn 0.3900 0.1821 0.9026
vn 0.5114 -0.0555 0.8575
vn 0.5213 -0.0796 0.8497
vn 0.5669 -0.2694 0.7785
vn 0.5682 -0.2976 0.7672
vn 0.5502 -0.4677 0.6917
vn 0.5416 -0.5009 0.6751
vn 0.4752 -0.6777 0.5612
vn 0.4580 -0.7106 0.5341
vn 0.3315 -0.8832 0.3318
vn 0.3103 -0.9027 0.2980
vn 0.1390 -0.9897 0.0330
vn 0.1267 -0.9918 0.0143
vn -0.0563 -0.9667 -0.2498
vn -0.0544 -0.9674 -0.2472
vn -0.2520 -0.8421 -0.4768
vn -0.2574 -0.8375 -0.4820
vn -0.4533 -0.5969 -0.6620
vn -0.4503 -0.6020 -0.6594
vn -0.5754 -0.3366 -0.7454
vn -0.5706 -0.3492 -0.7433
vn -0.8632 -0.4167 0.2850
vn -0.8402 -0.4675 0.2749
vn -0.8310 -0.4793 0.2824
vn -0.8733 -0.4132 0.2582
vn -0.8940 -0.3690 0.2543
vn -0.8962 -0.3646 0.2527
vn -0.8919 -0.3781 0.2480
vn -0.8905 -0.3813 0.2482
vn -0.8902 -0.3680 0.2686
vn -0.8830 -0.3609 0.3000
vn -0.8780 -0.3626 0.3126
vn -0.8770 -0.3643 0.3134
vn -0.8631 -0.3938 0.3162
vn -0.8455 -0.4315 0.3146
vn -0.8346 -0.4572 0.3074
vn -0.8287 -0.4719 0.3008
vn -0.8274 -0.4761 0.2979
vn -0.8280 -0.4772 0.2944
vn -0.8308 -0.4779 0.2852
vt 0.933358 0.739976
vt 0.932292 0.731324
vt 0.960707 0.734680
vt 0.933333 0.722585
vt 0.936456 0.713701
vt 0.942953 0.705272
vt 0.952648 0.699742
vt 0.962774 0.698598
vt 0.972955 0.700796
vt 0.981551 0.706771
vt 0.987832 0.716350
vt 0.990848 0.726471
vt 0.991056 0.736252
vt 0.988891 0.745218
vt 0.984245 0.753477
vt 0.977337 0.760089
vt 0.968919 0.763552
vt 0.960093 0.764059
vt 0.950811 0.762140
vt 0.942659 0.757164
vt 0.936698 0.749050
vt 0.929125 0.731975
vt 0.930318 0.741323
vt 0.930119 0.722495
vt 0.933409 0.712728
vt 0.940550 0.703268
vt 0.951194 0.697091
vt 0.962694 0.695675
vt 0.974107 0.698176
vt 0.983626 0.704965
vt 0.990488 0.715462
vt 0.993674 0.726603
vt 0.993774 0.737343
vt 0.991340 0.747069
vt 0.986244 0.756039
vt 0.978639 0.763196
vt 0.969348 0.766937
vt 0.959920 0.767562
vt 0.949374 0.765329
vt 0.940439 0.759765
vt 0.933873 0.750972
vt 0.922540 0.728645
vt 0.914867 0.730171
vt 0.921520 0.726258
vt 0.922657 0.731228
vt 0.921784 0.733768
vt 0.919862 0.736006
vt 0.917217 0.737275
vt 0.914356 0.737485
vt 0.911569 0.736709
vt 0.909447 0.735268
vt 0.907922 0.733227
vt 0.907313 0.731003
vt 0.907384 0.728628
vt 0.908254 0.726371
vt 0.909836 0.724560
vt 0.912346 0.723238
vt 0.915111 0.722821
vt 0.917634 0.723255
vt 0.919774 0.724417
vt 0.006212 0.639658
vt 0.007277 0.648310
vt 0.034627 0.643014
vt 0.007253 0.630919
vt 0.010376 0.622035
vt 0.016874 0.613606
vt 0.026567 0.608076
vt 0.036694 0.606932
vt 0.046875 0.609130
vt 0.055471 0.615105
vt 0.061753 0.624685
vt 0.064768 0.634805
vt 0.064976 0.644586
vt 0.062811 0.653552
vt 0.058166 0.661811
vt 0.051257 0.668422
vt 0.042839 0.671886
vt 0.034013 0.672393
vt 0.024731 0.670474
vt 0.016580 0.665498
vt 0.010619 0.657384
vt 0.003046 0.640309
vt 0.004239 0.649657
vt 0.004039 0.630829
vt 0.007330 0.621062
vt 0.014470 0.611602
vt 0.025115 0.605425
vt 0.036615 0.604009
vt 0.048027 0.606510
vt 0.057546 0.613299
vt 0.064409 0.623796
vt 0.067595 0.634937
vt 0.067694 0.645677
vt 0.065259 0.655403
vt 0.060164 0.664373
vt 0.052559 0.671530
vt 0.043268 0.675271
vt 0.033841 0.675895
vt 0.023295 0.673663
vt 0.014359 0.668099
vt 0.007794 0.659306
s 1
g furina.009_目.001
usemtl 目.001
f 1/1/1 2/2/2 3/3/3
f 2/2/2 4/4/4 3/3/3
f 4/4/4 5/5/5 3/3/3
f 5/5/5 6/6/6 3/3/3
f 6/6/6 7/7/7 3/3/3
f 7/7/7 8/8/8 3/3/3
f 8/8/8 9/9/9 3/3/3
f 9/9/9 10/10/10 3/3/3
f 10/10/10 11/11/11 3/3/3
f 11/11/11 12/12/12 3/3/3
f 12/12/12 13/13/13 3/3/3
f 13/13/13 14/14/14 3/3/3
f 14/14/14 15/15/15 3/3/3
f 15/15/15 16/16/16 3/3/3
f 16/16/16 17/17/17 3/3/3
f 17/17/17 18/18/18 3/3/3
f 18/18/18 19/19/19 3/3/3
f 19/19/19 20/20/20 3/3/3
f 21/21/21 1/1/1 3/3/3
f 20/20/20 21/21/21 3/3/3
f 22/22/22 23/1/23 24/23/24
f 25/2/25 23/1/23 22/22/22
f 22/22/22 26/24/26 25/2/25
f 25/2/25 26/24/26 27/4/27
f 27/4/27 28/25/28 29/5/29
f 26/24/26 28/25/28 27/4/27
f 28/25/28 30/26/30 29/5/29
f 29/5/29 30/26/30 31/6/31
f 31/6/31 32/27/32 33/7/33
f 30/26/30 32/27/32 31/6/31
f 32/27/32 34/28/34 33/7/33
f 33/7/33 34/28/34 35/8/35
f 34/28/34 36/29/36 35/8/35
f 35/8/35 36/29/36 37/9/37
f 36/29/36 38/10/38 37/9/37
f 39/30/39 38/10/38 36/29/36
f 39/30/39 40/11/40 38/10/38
f 41/31/41 40/11/40 39/30/39
f 41/31/41 42/12/42 40/11/40
f 43/32/43 42/12/42 41/31/41
f 43/32/43 44/13/44 42/12/42
f 45/33/45 44/13/44 43/32/43
f 45/33/45 46/14/46 44/13/44
f 47/34/47 46/14/46 45/33/45
f 47/34/47 48/15/48 46/14/46
f 49/35/49 48/15/48 47/34/47
f 49/35/49 50/16/50 48/15/48
f 51/36/51 50/16/50 49/35/49
f 51/36/51 52/17/52 50/16/50
f 53/37/53 52/17/52 51/36/51
f 53/37/53 54/18/54 52/17/52
f 55/38/55 54/18/54 53/37/53
f 55/38/55 56/19/56 54/18/54
f 57/39/57 56/19/56 55/38/55
f 57/39/57 58/20/58 56/19/56
f 59/40/59 58/20/58 57/39/57
f 60/21/60 24/23/24 23/1/23
f 61/41/61 24/23/24 60/21/60
f 59/40/59 61/41/61 58/20/58
f 58/20/58 61/41/61 60/21/60
f 62/42/62 63/43/63 64/44/64
f 62/42/62 65/45/65 63/43/63
f 65/45/65 66/46/66 63/43/63
f 66/46/66 67/47/67 63/43/63
f 67/47/67 68/48/68 63/43/63
f 68/48/68 69/49/69 63/43/63
f 69/49/69 70/50/70 63/43/63
f 70/50/70 71/51/71 63/43/63
f 71/51/71 72/52/72 63/43/63
f 72/52/72 73/53/73 63/43/63
f 73/53/73 74/54/74 63/43/63
f 74/54/74 75/55/75 63/43/63
f 75/55/75 76/56/76 63/43/63
f 76/56/76 77/57/77 63/43/63
f 77/57/77 78/58/78 63/43/63
f 78/58/78 79/59/79 63/43/63
f 80/60/80 64/44/64 63/43/63
f 79/59/79 80/60/80 63/43/63
f 81/61/81 82/62/82 83/63/83
f 84/64/84 81/61/81 83/63/83
f 85/65/85 84/64/84 83/63/83
f 86/66/86 85/65/85 83/63/83
f 87/67/87 86/66/86 83/63/83
f 88/68/88 87/67/87 83/63/83
f 89/69/89 88/68/88 83/63/83
f 90/70/90 89/69/89 83/63/83
f 91/71/91 90/70/90 83/63/83
f 92/72/92 91/71/91 83/63/83
f 93/73/93 92/72/92 83/63/83
f 94/74/94 93/73/93 83/63/83
f 95/75/95 94/74/94 83/63/83
f 96/76/96 95/75/95 83/63/83
f 97/77/97 96/76/96 83/63/83
f 98/78/98 97/77/97 83/63/83
f 99/79/99 98/78/98 83/63/83
f 100/80/100 99/79/99 83/63/83
f 101/81/101 100/80/100 83/63/83
f 82/62/82 101/81/101 83/63/83
f 102/62/102 103/82/103 104/83/104
f 102/62/102 105/61/105 103/82/103
f 106/84/106 103/82/103 105/61/105
f 106/84/106 105/61/105 107/64/107
f 108/85/108 107/64/107 109/65/109
f 108/85/108 106/84/106 107/64/107
f 110/86/110 108/85/108 109/65/109
f 110/86/110 109/65/109 111/66/111
f 112/87/112 110/86/110 111/66/111
f 112/87/112 111/66/111 113/67/113
f 114/88/114 113/67/113 115/68/115
f 114/88/114 112/87/112 113/67/113
f 116/89/116 115/68/115 117/69/117
f 116/89/116 114/88/114 115/68/115
f 118/70/118 116/89/116 117/69/117
f 118/70/118 119/90/119 116/89/116
f 120/71/120 119/90/119 118/70/118
f 120/71/120 121/91/121 119/90/119
f 122/72/122 121/91/121 120/71/120
f 122/72/122 123/92/123 121/91/121
f 124/73/124 123/92/123 122/72/122
f 124/73/124 125/93/125 123/92/123
f 126/74/126 125/93/125 124/73/124
f 126/74/126 127/94/127 125/93/125
f 128/75/128 127/94/127 126/74/126
f 128/75/128 129/95/129 127/94/127
f 130/76/130 129/95/129 128/75/128
f 130/76/130 131/96/131 129/95/129
f 132/77/132 131/96/131 130/76/130
f 132/77/132 133/97/133 131/96/131
f 134/78/134 133/97/133 132/77/132
f 134/78/134 135/98/135 133/97/133
f 136/79/136 135/98/135 134/78/134
f 136/79/136 137/99/137 135/98/135
f 138/80/138 137/99/137 136/79/136
f 138/80/138 139/100/139 137/99/137
f 104/83/104 140/81/140 102/62/102
f 141/101/141 138/80/138 140/81/140
f 141/101/141 139/100/139 138/80/138
f 104/83/104 141/101/141 140/81/140
f 142/43/142 143/42/143 144/44/144
f 145/45/145 143/42/143 142/43/142
f 146/46/146 145/45/145 142/43/142
f 147/47/147 146/46/146 142/43/142
f 148/48/148 147/47/147 142/43/142
f 149/49/149 148/48/148 142/43/142
f 150/50/150 149/49/149 142/43/142
f 151/51/151 150/50/150 142/43/142
f 152/52/152 151/51/151 142/43/142
f 153/53/153 152/52/152 142/43/142
f 154/54/154 153/53/153 142/43/142
f 155/55/155 154/54/154 142/43/142
f 156/56/156 155/55/155 142/43/142
f 157/57/157 156/56/156 142/43/142
f 158/58/158 157/57/157 142/43/142
f 159/59/159 158/58/158 142/43/142
f 160/60/160 159/59/159 142/43/142
f 144/44/144 160/60/160 142/43/142
