# Blender 3.6.5
# www.blender.org
mtllib furina.003.mtl
o furina.003
v 14.535515 2.477230 -15.691437
v 14.529447 2.477371 -15.694840
v 14.530743 2.475773 -15.696024
v 14.534298 2.478820 -15.690373
v 14.554327 2.479046 -15.679244
v 14.560943 2.478939 -15.676654
v 14.560698 2.479904 -15.675879
v 14.567691 2.479076 -15.674564
v 14.567656 2.479553 -15.674115
v 14.547557 2.478811 -15.682531
v 14.553919 2.480205 -15.678264
v 14.546933 2.480178 -15.681487
v 14.525675 2.475906 -15.698799
v 14.527173 2.474354 -15.699859
v 14.514869 2.466169 -15.713318
v 14.517276 2.467919 -15.711082
v 14.516599 2.468413 -15.710864
v 14.524021 2.472642 -15.703504
v 14.520109 2.472286 -15.705745
v 14.521656 2.471048 -15.706306
v 14.522397 2.474093 -15.702703
v 14.518095 2.470255 -15.708562
v 14.519251 2.469310 -15.709001
v 14.541050 2.478253 -15.686867
v 14.540155 2.479731 -15.685758
v 14.572016 2.479300 -15.673436
v 14.537943 2.473939 -15.693661
v 14.530743 2.475773 -15.696024
v 14.533480 2.472352 -15.698512
v 14.535515 2.477230 -15.691437
v 14.555340 2.476472 -15.681703
v 14.561708 2.476535 -15.678950
v 14.554327 2.479046 -15.679244
v 14.560943 2.478939 -15.676654
v 14.568104 2.476596 -15.676953
v 14.567691 2.479076 -15.674564
v 14.547557 2.478811 -15.682531
v 14.549061 2.476153 -15.684844
v 14.527173 2.474354 -15.699859
v 14.530564 2.470992 -15.702018
v 14.520904 2.463405 -15.716064
v 14.522309 2.464899 -15.713675
v 14.519685 2.465564 -15.713409
v 14.524021 2.472642 -15.703504
v 14.527699 2.469315 -15.705879
v 14.521656 2.471048 -15.706306
v 14.525714 2.467940 -15.708597
v 14.543071 2.475423 -15.688864
v 14.541050 2.478253 -15.686867
v 14.572308 2.476795 -15.676064
v 14.572016 2.479300 -15.673436
v 14.577302 2.477427 -15.675295
v 14.577128 2.479120 -15.673313
v 14.519251 2.469310 -15.709001
v 14.524141 2.466616 -15.710873
v 14.519053 2.467617 -15.711045
v 14.583132 2.478379 -15.674180
v 14.442410 2.493115 -15.776766
v 14.446199 2.491575 -15.771136
v 14.441744 2.494612 -15.775200
v 14.446977 2.490065 -15.772796
v 14.426445 2.501887 -15.799922
v 14.429468 2.500350 -15.793679
v 14.425879 2.502908 -15.799442
v 14.423948 2.503603 -15.806306
v 14.423596 2.504134 -15.806147
v 14.428747 2.501563 -15.792986
v 14.433124 2.498337 -15.787412
v 14.432392 2.499722 -15.786465
v 14.450079 2.488805 -15.768084
v 14.450729 2.487398 -15.769920
v 14.461254 2.477478 -15.762426
v 14.463297 2.474969 -15.760585
v 14.461179 2.477869 -15.761657
v 14.453806 2.485796 -15.765568
v 14.454212 2.484553 -15.767484
v 14.456619 2.483119 -15.763934
v 14.456836 2.482108 -15.765716
v 14.459151 2.480312 -15.762584
v 14.459328 2.479535 -15.763921
v 14.437729 2.495882 -15.781563
v 14.436974 2.497337 -15.780325
v 14.422579 2.504798 -15.810396
v 14.443822 2.489998 -15.779924
v 14.446977 2.490065 -15.772796
v 14.442410 2.493115 -15.776766
v 14.448602 2.486834 -15.776303
v 14.428204 2.499314 -15.801308
v 14.431337 2.497630 -15.795351
v 14.429468 2.500350 -15.793679
v 14.425809 2.500876 -15.807368
v 14.426445 2.501887 -15.799922
v 14.423948 2.503603 -15.806306
v 14.433124 2.498337 -15.787412
v 14.434799 2.495649 -15.789564
v 14.450729 2.487398 -15.769920
v 14.451997 2.484398 -15.774027
v 14.462893 2.475037 -15.768129
v 14.465063 2.472933 -15.767243
v 14.462937 2.475246 -15.765419
v 14.454212 2.484553 -15.767484
v 14.455677 2.481604 -15.771889
v 14.456836 2.482108 -15.765716
v 14.458231 2.479455 -15.770446
v 14.439028 2.493175 -15.784220
v 14.437729 2.495882 -15.781563
v 14.424679 2.501985 -15.811366
v 14.422579 2.504798 -15.810396
v 14.423691 2.503637 -15.816081
v 14.422068 2.505577 -15.815427
v 14.459328 2.479535 -15.763921
v 14.460330 2.477504 -15.769357
v 14.461039 2.477516 -15.764216
v 14.422361 2.505810 -15.821527
vn -0.3728 -0.7017 0.6071
vn -0.3516 -0.7179 0.6009
vn -0.3622 -0.7173 0.5953
vn -0.3676 -0.7011 0.6110
vn -0.2851 -0.7013 0.6533
vn -0.2284 -0.6931 0.6837
vn -0.2437 -0.6539 0.7162
vn -0.1774 -0.6968 0.6950
vn -0.2030 -0.6591 0.7241
vn -0.3226 -0.6989 0.6384
vn -0.2969 -0.6707 0.6798
vn -0.3380 -0.6742 0.6566
vn -0.3360 -0.7242 0.6022
vn -0.3377 -0.7295 0.5948
vn -0.2243 -0.6344 0.7398
vn -0.2560 -0.6552 0.7108
vn -0.2567 -0.6554 0.7104
vn -0.3035 -0.7335 0.6081
vn -0.2998 -0.6832 0.6659
vn -0.2506 -0.7342 0.6310
vn -0.3197 -0.7093 0.6282
vn -0.2807 -0.6664 0.6908
vn -0.2210 -0.7281 0.6488
vn -0.3633 -0.6951 0.6204
vn -0.3701 -0.6854 0.6271
vn -0.0772 -0.7250 0.6844
vn -0.3758 -0.7027 0.6042
vn -0.3625 -0.7165 0.5960
vn -0.3662 -0.7172 0.5929
vn -0.3727 -0.7018 0.6071
vn -0.2792 -0.7176 0.6380
vn -0.2249 -0.7064 0.6712
vn -0.2850 -0.7019 0.6528
vn -0.2286 -0.6924 0.6843
vn -0.1742 -0.7067 0.6857
vn -0.1766 -0.6989 0.6931
vn -0.3226 -0.6985 0.6388
vn -0.3141 -0.7112 0.6289
vn -0.3375 -0.7296 0.5948
vn -0.3366 -0.7335 0.5905
vn -0.1430 -0.7990 0.5840
vn -0.1596 -0.7867 0.5964
vn -0.1339 -0.7772 0.6148
vn -0.3032 -0.7337 0.6081
vn -0.2903 -0.7460 0.5993
vn -0.2505 -0.7344 0.6308
vn -0.2266 -0.7538 0.6168
vn -0.3591 -0.7008 0.6164
vn -0.3632 -0.6957 0.6197
vn -0.0801 -0.7266 0.6824
vn -0.0759 -0.7279 0.6815
vn -0.0188 -0.7466 0.6650
vn -0.0189 -0.7468 0.6648
vn -0.2212 -0.7275 0.6494
vn -0.1914 -0.7618 0.6189
vn -0.1672 -0.7640 0.6232
vn -0.0002 -0.7608 0.6490
vn -0.6976 -0.6460 0.3098
vn -0.6962 -0.6585 0.2859
vn -0.7016 -0.6440 0.3049
vn -0.6897 -0.6609 0.2958
vn -0.7811 -0.5987 0.1775
vn -0.7490 -0.6220 0.2283
vn -0.8048 -0.5580 0.2023
vn -0.7951 -0.5931 0.1267
vn -0.8150 -0.5566 0.1609
vn -0.7686 -0.5899 0.2476
vn -0.7314 -0.6288 0.2641
vn -0.7437 -0.6046 0.2852
vn -0.6992 -0.6623 0.2693
vn -0.6926 -0.6691 0.2694
vn -0.7986 -0.5625 0.2143
vn -0.8246 -0.5324 0.1914
vn -0.7982 -0.5628 0.2149
vn -0.7235 -0.6403 0.2581
vn -0.7093 -0.6641 0.2362
vn -0.7568 -0.6051 0.2472
vn -0.7353 -0.6514 0.1870
vn -0.7797 -0.5809 0.2338
vn -0.7541 -0.6368 0.1607
vn -0.7098 -0.6361 0.3026
vn -0.7141 -0.6270 0.3114
vn -0.7966 -0.6041 0.0222
vn -0.6946 -0.6483 0.3119
vn -0.6900 -0.6607 0.2957
vn -0.6974 -0.6465 0.3093
vn -0.6867 -0.6626 0.2991
vn -0.7713 -0.6132 0.1704
vn -0.7373 -0.6393 0.2184
vn -0.7486 -0.6225 0.2283
vn -0.7891 -0.6020 0.1221
vn -0.7813 -0.5983 0.1777
vn -0.7949 -0.5935 0.1264
vn -0.7313 -0.6289 0.2640
vn -0.7245 -0.6414 0.2524
vn -0.6929 -0.6690 0.2690
vn -0.6891 -0.6736 0.2672
vn -0.7170 -0.6918 0.0858
vn -0.7079 -0.7031 0.0665
vn -0.7354 -0.6745 0.0649
vn -0.7090 -0.6645 0.2362
vn -0.7038 -0.6753 0.2207
vn -0.7352 -0.6516 0.1866
vn -0.7268 -0.6683 0.1586
vn -0.7073 -0.6414 0.2972
vn -0.7092 -0.6367 0.3026
vn -0.7962 -0.6044 0.0261
vn -0.7960 -0.6049 0.0217
vn -0.7875 -0.6150 -0.0395
vn -0.7876 -0.6150 -0.0394
vn -0.7539 -0.6370 0.1608
vn -0.7327 -0.6694 0.1229
vn -0.7387 -0.6667 0.0990
vn -0.7760 -0.6276 -0.0620
vt 0.256078 0.010759
vt 0.268161 0.005410
vt 0.268917 0.009854
vt 0.255388 0.006510
vt 0.215243 0.023359
vt 0.203460 0.029922
vt 0.202224 0.027870
vt 0.191908 0.036740
vt 0.191106 0.035786
vt 0.228291 0.017524
vt 0.213856 0.020713
vt 0.226989 0.014303
vt 0.278911 0.005318
vt 0.279223 0.009873
vt 0.317043 0.013993
vt 0.310007 0.013295
vt 0.310313 0.011678
vt 0.288909 0.010631
vt 0.296994 0.007737
vt 0.296445 0.011608
vt 0.289142 0.006230
vt 0.304360 0.009675
vt 0.303991 0.012606
vt 0.242522 0.013169
vt 0.241423 0.009428
vt 0.184627 0.041120
vt 0.261062 0.032884
vt 0.272331 0.023278
vt 0.273932 0.032710
vt 0.259492 0.024184
vt 0.221936 0.042997
vt 0.210164 0.048925
vt 0.218657 0.036783
vt 0.206873 0.043346
vt 0.199239 0.055458
vt 0.195321 0.050164
vt 0.231704 0.030949
vt 0.234222 0.037772
vt 0.282636 0.023297
vt 0.282950 0.033242
vt 0.317620 0.040575
vt 0.311920 0.038774
vt 0.314613 0.034366
vt 0.292323 0.024056
vt 0.292532 0.034497
vt 0.299859 0.025033
vt 0.299335 0.035658
vt 0.247481 0.034049
vt 0.245935 0.026593
vt 0.192395 0.059917
vt 0.188040 0.054545
vt 0.184229 0.065096
vt 0.181046 0.061289
vt 0.307405 0.026031
vt 0.305011 0.036952
vt 0.311242 0.029323
vt 0.174300 0.070732
s 1
usemtl äºŒé‡.001
f 1/1/1 2/2/2 3/3/3
f 1/1/1 4/4/4 2/2/2
f 5/5/5 6/6/6 7/7/7
f 7/7/7 8/8/8 9/9/9
f 7/7/7 6/6/6 8/8/8
f 10/10/10 11/11/11 12/12/12
f 10/10/10 5/5/5 11/11/11
f 11/11/11 5/5/5 7/7/7
f 3/3/3 2/2/2 13/13/13
f 3/3/3 13/13/13 14/14/14
f 15/15/15 16/16/16 17/17/17
f 18/18/18 19/19/19 20/20/20
f 21/21/21 14/14/14 13/13/13
f 21/21/21 18/18/18 14/14/14
f 18/18/18 21/21/21 19/19/19
f 22/22/22 20/20/20 19/19/19
f 17/17/17 16/16/16 23/23/23
f 22/22/22 23/23/23 20/20/20
f 17/17/17 23/23/23 22/22/22
f 4/4/4 1/1/1 24/24/24
f 10/10/10 25/25/25 24/24/24
f 10/10/10 12/12/12 25/25/25
f 4/4/4 24/24/24 25/25/25
f 9/9/9 8/8/8 26/26/26
f 27/27/27 28/28/28 29/29/29
f 27/27/27 30/30/30 28/28/28
f 31/31/31 32/32/32 33/33/33
f 33/33/33 32/32/32 34/34/34
f 34/34/34 35/35/35 36/36/36
f 34/34/34 32/32/32 35/35/35
f 37/37/37 31/31/31 33/33/33
f 37/37/37 38/38/38 31/31/31
f 29/29/29 28/28/28 39/39/39
f 29/29/29 39/39/39 40/40/40
f 41/41/41 42/42/42 43/43/43
f 44/44/44 40/40/40 39/39/39
f 44/44/44 45/45/45 40/40/40
f 46/46/46 45/45/45 44/44/44
f 46/46/46 47/47/47 45/45/45
f 30/30/30 27/27/27 48/48/48
f 37/37/37 48/48/48 38/38/38
f 30/30/30 48/48/48 49/49/49
f 37/37/37 49/49/49 48/48/48
f 50/50/50 36/36/36 35/35/35
f 50/50/50 51/51/51 36/36/36
f 52/52/52 51/51/51 50/50/50
f 52/52/52 53/53/53 51/51/51
f 54/54/54 47/47/47 46/46/46
f 54/54/54 55/55/55 47/47/47
f 43/43/43 42/42/42 56/56/56
f 42/42/42 55/55/55 56/56/56
f 54/54/54 56/56/56 55/55/55
f 57/57/57 53/53/53 52/52/52
f 58/1/58 59/2/59 60/4/60
f 58/1/58 61/3/61 59/2/59
f 62/6/62 63/5/63 64/7/64
f 65/8/65 64/7/64 66/9/66
f 65/8/65 62/6/62 64/7/64
f 63/5/63 67/11/67 64/7/64
f 68/10/68 67/11/67 63/5/63
f 68/10/68 69/12/69 67/11/67
f 70/13/70 59/2/59 61/3/61
f 70/13/70 61/3/61 71/14/71
f 72/16/72 73/15/73 74/17/74
f 71/14/71 75/21/75 70/13/70
f 71/14/71 76/18/76 75/21/75
f 76/18/76 77/19/77 75/21/75
f 76/18/76 78/20/78 77/19/77
f 79/22/79 77/19/77 78/20/78
f 80/23/80 72/16/72 74/17/74
f 80/23/80 74/17/74 79/22/79
f 79/22/79 78/20/78 80/23/80
f 60/4/60 81/24/81 58/1/58
f 82/25/82 69/12/69 68/10/68
f 60/4/60 82/25/82 81/24/81
f 82/25/82 68/10/68 81/24/81
f 65/8/65 66/9/66 83/26/83
f 84/27/84 85/28/85 86/30/86
f 84/27/84 87/29/87 85/28/85
f 88/32/88 89/31/89 90/33/90
f 91/35/91 92/34/92 93/36/93
f 91/35/91 88/32/88 92/34/92
f 88/32/88 90/33/90 92/34/92
f 89/31/89 94/37/94 90/33/90
f 89/31/89 95/38/95 94/37/94
f 96/39/96 85/28/85 87/29/87
f 96/39/96 87/29/87 97/40/97
f 98/42/98 99/41/99 100/43/100
f 97/40/97 101/44/101 96/39/96
f 97/40/97 102/45/102 101/44/101
f 103/46/103 101/44/101 102/45/102
f 103/46/103 102/45/102 104/47/104
f 94/37/94 105/48/105 106/49/106
f 94/37/94 95/38/95 105/48/105
f 86/30/86 105/48/105 84/27/84
f 86/30/86 106/49/106 105/48/105
f 93/36/93 107/50/107 91/35/91
f 93/36/93 108/51/108 107/50/107
f 108/51/108 109/52/109 107/50/107
f 108/51/108 110/53/110 109/52/109
f 104/47/104 111/54/111 103/46/103
f 104/47/104 112/55/112 111/54/111
f 98/42/98 100/43/100 113/56/113
f 112/55/112 98/42/98 113/56/113
f 113/56/113 111/54/111 112/55/112
f 110/53/110 114/57/114 109/52/109
