# Blender 3.6.5
# www.blender.org
mtllib furina.023.mtl
o furina.023
v 14.908657 0.745425 -16.867975
v 14.984805 0.622465 -16.834442
v 14.871244 0.635313 -16.995808
v 14.924517 0.588998 -16.950480
v 14.839927 0.561405 -17.097832
v 15.251516 1.265615 -16.202007
v 15.278948 1.274484 -16.123268
v 15.306700 1.186138 -16.155098
v 15.310678 1.200373 -16.117109
v 15.304160 1.252625 -16.058102
v 15.309147 1.221364 -16.085884
v 15.228986 1.474969 -15.981250
v 15.177415 1.562810 -15.990013
v 15.210427 1.507154 -15.886194
v 14.981866 0.732240 -16.769073
v 15.038234 0.664910 -16.732855
v 15.078746 0.721436 -16.652172
v 15.191676 1.408225 -16.183001
v 15.146566 1.509274 -16.169134
v 15.221926 1.445737 -16.058039
v 15.272605 1.393607 -15.921048
v 15.297593 1.352230 -15.975415
v 14.898749 0.807872 -16.836065
v 14.970842 1.565783 -16.320412
v 15.002919 1.460328 -16.370834
v 14.886346 1.550005 -16.387758
v 15.026793 1.358517 -16.412930
v 14.913273 1.442046 -16.446856
v 14.945643 1.205442 -16.569023
v 14.947840 1.072338 -16.636034
v 14.907634 1.198406 -16.598349
v 15.056232 1.223589 -16.460340
v 14.928650 1.340791 -16.499840
v 14.873745 0.745500 -16.920061
v 15.129663 1.384891 -16.299084
v 15.092436 1.482591 -16.271616
v 14.863017 1.399955 -16.509279
v 14.873176 1.438408 -16.474585
v 15.078158 1.094672 -16.503777
v 14.942288 0.968378 -16.687023
v 15.199575 1.118747 -16.355551
v 15.169086 1.246568 -16.332466
v 15.200724 1.120606 -16.368500
v 15.251905 1.129456 -16.268909
v 15.273721 1.038807 -16.282946
v 15.227690 0.960627 -16.377934
v 15.087907 0.922585 -16.558521
v 14.888874 1.829018 -16.124107
v 14.873040 1.878004 -16.078672
v 14.917259 1.829320 -16.087313
v 15.298166 1.279199 -16.050611
v 15.289135 1.134257 -16.187071
v 15.290225 1.097931 -16.202044
v 15.286069 1.066813 -16.232176
v 15.222314 0.995005 -16.407261
v 15.234458 1.447422 -16.071911
v 15.177720 1.542909 -16.067118
v 15.282954 1.172972 -16.222269
v 15.295891 1.178317 -16.191528
v 15.240777 1.446331 -15.886586
v 15.305004 1.324593 -16.039431
v 15.298843 1.316908 -16.096346
v 14.955824 0.886389 -16.713690
v 15.094761 0.773045 -16.608269
v 14.917817 0.874052 -16.766560
v 14.901049 1.878234 -16.039015
v 14.868362 1.925914 -16.027491
v 14.918262 1.878677 -16.002426
v 14.959440 1.833131 -16.006502
v 15.066049 1.721498 -15.941799
v 15.064454 1.716004 -16.004826
v 15.018331 1.775291 -15.959391
v 15.122270 1.644918 -15.999202
v 15.115270 1.659121 -15.924623
v 15.164465 1.585647 -15.905966
v 14.876479 1.827842 -16.134645
v 15.247777 1.009562 -16.353682
v 15.012020 1.776077 -16.006874
v 14.995593 1.773676 -16.052969
v 14.931838 1.765695 -16.157867
v 14.989983 1.680379 -16.199074
v 14.879111 1.759828 -16.205030
v 14.929572 1.668172 -16.264874
v 14.883573 1.662575 -16.293413
v 14.965364 1.831128 -15.981856
v 14.968450 1.770242 -16.105623
v 14.942248 1.832110 -16.046753
v 15.065072 1.722708 -15.934148
v 15.112926 1.662931 -15.903512
v 15.147189 1.612477 -15.895665
v 15.134097 1.633064 -15.890810
v 15.119553 1.629878 -16.063263
v 15.092342 1.605763 -16.151680
v 14.878742 1.063341 -16.695400
v 14.897827 0.948079 -16.741442
v 15.044532 1.583990 -16.236792
v 15.175465 0.946408 -16.459566
v 15.228000 0.927667 -16.394138
v 15.211848 0.890861 -16.436054
v 14.851354 0.938204 -16.786337
v 15.166968 0.842319 -16.523323
v 15.086557 0.923077 -16.569172
v 15.243129 1.261988 -16.193207
v 14.867943 1.061230 -16.705711
v 15.086411 0.812809 -16.634148
v 15.123358 0.819928 -16.589947
v 15.055658 1.708305 -16.058056
v 15.030470 1.695985 -16.128832
vn 0.7732 0.3619 -0.5208
vn 0.7730 0.3522 -0.5276
vn 0.7732 0.3695 -0.5154
vn 0.7688 0.3835 -0.5117
vn 0.7687 0.3822 -0.5129
vn -0.0422 0.2462 -0.9683
vn 0.8864 0.3716 -0.2760
vn 0.8713 0.3846 -0.3047
vn 0.9035 0.3687 -0.2185
vn 0.9154 0.3171 -0.2478
vn 0.9064 0.3613 -0.2188
vn 0.8709 0.4904 -0.0330
vn 0.8467 0.5267 -0.0757
vn 0.8740 0.4859 0.0055
vn 0.7533 0.3352 -0.5659
vn 0.7552 0.3266 -0.5683
vn 0.7496 0.2914 -0.5943
vn 0.4835 0.3843 -0.7864
vn 0.7761 0.4495 -0.4422
vn 0.2468 0.2535 -0.9353
vn 0.8697 0.4924 0.0353
vn 0.8739 0.4828 -0.0564
vn 0.7646 0.3741 -0.5248
vn 0.5113 0.5318 -0.6751
vn 0.5597 0.4611 -0.6886
vn 0.4682 0.5252 -0.7106
vn 0.5997 0.4004 -0.6929
vn 0.4995 0.4821 -0.7198
vn 0.5764 0.3926 -0.7167
vn 0.6064 0.3553 -0.7114
vn 0.5451 0.4034 -0.7350
vn 0.6448 0.3567 -0.6760
vn 0.5462 0.4319 -0.7177
vn 0.7672 0.3842 -0.5137
vn 0.7193 0.3833 -0.5794
vn 0.6756 0.4606 -0.5757
vn 0.4834 0.4943 -0.7225
vn 0.4529 0.5213 -0.7233
vn -0.0737 0.3298 -0.9412
vn 0.6878 0.2994 -0.6612
vn -0.0396 0.2528 -0.9667
vn -0.0003 0.3424 -0.9396
vn -0.1442 0.3024 -0.9422
vn 0.8614 0.2794 -0.4241
vn 0.8621 0.2825 -0.4206
vn -0.2913 0.1353 -0.9470
vn -0.6382 0.3482 -0.6866
vn 0.5279 0.6571 -0.5381
vn 0.5868 0.6385 -0.4980
vn 0.6114 0.6494 -0.4521
vn 0.1688 -0.0233 -0.9854
vn 0.0969 -0.0375 -0.9946
vn 0.8873 0.2272 -0.4014
vn 0.8881 0.2637 -0.3764
vn -0.2937 0.2355 -0.9264
vn 0.1165 0.3321 -0.9360
vn 0.3568 0.4754 -0.8042
vn -0.1978 0.1449 -0.9695
vn 0.8433 0.3834 -0.3766
vn 0.8814 0.4712 0.0328
vn 0.8743 0.4676 -0.1305
vn 0.0030 0.1855 -0.9826
vn 0.7157 0.3144 -0.6236
vn -0.5280 0.3958 -0.7514
vn 0.7400 0.3362 -0.5825
vn 0.6728 0.6276 -0.3918
vn 0.7010 0.5807 -0.4140
vn 0.7201 0.6395 -0.2691
vn 0.7061 0.6637 -0.2469
vn 0.7723 0.6341 -0.0387
vn 0.7662 0.6315 -0.1192
vn 0.7503 0.6578 -0.0653
vn 0.8021 0.5871 -0.1090
vn 0.8061 0.5910 -0.0301
vn 0.8410 0.5406 -0.0218
vn 0.4546 0.6563 -0.6022
vn 0.8400 0.2952 -0.4552
vn 0.7295 0.6597 -0.1806
vn 0.6794 0.6545 -0.3318
vn 0.5437 0.6465 -0.5352
vn 0.5738 0.6042 -0.5529
vn 0.4496 0.6410 -0.6221
vn 0.4729 0.5955 -0.6494
vn 0.3915 0.5939 -0.7029
vn 0.7336 0.6706 -0.1098
vn 0.6232 0.6554 -0.4266
vn 0.6571 0.6551 -0.3728
vn 0.7739 0.6333 -0.0101
vn 0.8159 0.5766 -0.0416
vn 0.8314 0.5539 -0.0448
vn 0.8303 0.5497 -0.0916
vn 0.7713 0.5772 -0.2683
vn 0.7097 0.5424 -0.4495
vn 0.5849 0.3849 -0.7140
vn 0.6203 0.3527 -0.7006
vn 0.6297 0.5304 -0.5676
vn 0.7574 0.2796 -0.5901
vn 0.7862 0.2797 -0.5511
vn 0.7845 0.2795 -0.5536
vn 0.5994 0.3805 -0.7042
vn 0.7325 0.3285 -0.5963
vn -0.5607 0.4577 -0.6901
vn 0.5068 0.2105 -0.8360
vn 0.5995 0.3786 -0.7052
vn -0.4857 0.4443 -0.7528
vn 0.6981 0.3723 -0.6116
vn 0.7264 0.6329 -0.2679
vn 0.6583 0.6246 -0.4200
vt 0.301669 0.494663
vt 0.336525 0.533558
vt 0.265790 0.545799
vt 0.293038 0.557270
vt 0.236441 0.581974
vt 0.497319 0.218179
vt 0.516466 0.194637
vt 0.536668 0.221038
vt 0.541223 0.208439
vt 0.539818 0.182507
vt 0.542106 0.196101
vt 0.496910 0.094747
vt 0.463741 0.081539
vt 0.500338 0.059016
vt 0.345038 0.489215
vt 0.371922 0.508590
vt 0.397542 0.480941
vt 0.459377 0.175852
vt 0.433959 0.144066
vt 0.485636 0.133052
vt 0.535202 0.088225
vt 0.542510 0.112040
vt 0.304233 0.469610
vt 0.351543 0.163135
vt 0.366624 0.202262
vt 0.318522 0.181782
vt 0.378814 0.239304
vt 0.330238 0.222703
vt 0.343737 0.311160
vt 0.344633 0.361511
vt 0.327998 0.317216
vt 0.393664 0.288107
vt 0.338060 0.260720
vt 0.278635 0.500089
vt 0.424354 0.208530
vt 0.405287 0.174965
vt 0.310579 0.247284
vt 0.314434 0.229448
vt 0.403790 0.336256
vt 0.344009 0.400832
vt 0.464160 0.302420
vt 0.447333 0.256717
vt 0.468554 0.300953
vt 0.499359 0.276078
vt 0.517623 0.303680
vt 0.483709 0.356991
vt 0.410304 0.401553
vt 0.320777 0.050038
vt 0.315968 0.026466
vt 0.334319 0.040878
vt 0.534498 0.174966
vt 0.525032 0.258871
vt 0.528370 0.271598
vt 0.526222 0.285954
vt 0.490990 0.343134
vt 0.491358 0.128218
vt 0.455671 0.109305
vt 0.525416 0.241245
vt 0.530758 0.232010
vt 0.521060 0.068802
vt 0.542695 0.135952
vt 0.536402 0.154693
vt 0.345935 0.430594
vt 0.408425 0.458841
vt 0.323624 0.439806
vt 0.329851 0.016432
vt 0.315102 0.001766
vt 0.340415 0.006860
vt 0.358209 0.019446
vt 0.416199 0.029405
vt 0.405407 0.048784
vt 0.391971 0.020903
vt 0.433236 0.065094
vt 0.442265 0.039765
vt 0.471410 0.050021
vt 0.315763 0.052835
vt 0.503585 0.326913
vt 0.381413 0.034083
vt 0.369829 0.046671
vt 0.337084 0.074376
vt 0.359774 0.106147
vt 0.315615 0.086867
vt 0.334312 0.124239
vt 0.317014 0.132155
vt 0.364440 0.013019
vt 0.354630 0.060666
vt 0.347139 0.030124
vt 0.416840 0.026652
vt 0.444636 0.032292
vt 0.463528 0.041388
vt 0.457742 0.034993
vt 0.424679 0.086510
vt 0.407024 0.114510
vt 0.314059 0.372151
vt 0.320599 0.415391
vt 0.383317 0.139932
vt 0.454398 0.374608
vt 0.484303 0.369535
vt 0.475926 0.387333
vt 0.297376 0.424872
vt 0.453591 0.416278
vt 0.413123 0.402142
vt 0.493806 0.221210
vt 0.308722 0.374214
vt 0.421539 0.449026
vt 0.435622 0.436036
vt 0.395534 0.064929
vt 0.379472 0.085655
s 1
usemtl 裙1.001
f 1/1/1 2/2/2 3/3/3
f 3/3/3 4/4/4 5/5/5
f 3/3/3 2/2/2 4/4/4
f 6/6/6 7/7/7 8/8/8
f 7/7/7 9/9/9 8/8/8
f 7/7/7 10/10/10 11/11/11
f 7/7/7 11/11/11 9/9/9
f 12/12/12 13/13/13 14/14/14
f 15/15/15 16/16/16 2/2/2
f 15/15/15 17/17/17 16/16/16
f 18/18/18 19/19/19 20/20/20
f 21/21/21 22/22/22 12/12/12
f 2/2/2 1/1/1 15/15/15
f 15/15/15 1/1/1 23/23/23
f 24/24/24 25/25/25 26/26/26
f 25/25/25 27/27/27 28/28/28
f 29/29/29 30/30/30 31/31/31
f 27/27/27 32/32/32 33/33/33
f 31/31/31 33/33/33 29/29/29
f 1/1/1 34/34/34 23/23/23
f 35/35/35 36/36/36 18/18/18
f 33/33/33 37/37/37 28/28/28
f 38/38/38 28/28/28 37/37/37
f 28/28/28 38/38/38 26/26/26
f 30/30/30 39/39/39 40/40/40
f 39/39/39 32/32/32 41/41/41
f 32/32/32 39/39/39 29/29/29
f 42/42/42 43/43/43 41/41/41
f 43/43/43 42/42/42 44/44/44
f 44/44/44 45/45/45 43/43/43
f 43/43/43 46/46/46 41/41/41
f 39/39/39 47/47/47 40/40/40
f 48/48/48 49/49/49 50/50/50
f 7/7/7 18/18/18 20/20/20
f 7/7/7 6/6/6 18/18/18
f 51/51/51 7/7/7 20/20/20
f 7/7/7 51/51/51 10/10/10
f 44/44/44 52/52/52 53/53/53
f 44/44/44 53/53/53 54/54/54
f 44/44/44 54/54/54 45/45/45
f 55/55/55 46/46/46 43/43/43
f 51/51/51 20/20/20 56/56/56
f 57/57/57 56/56/56 20/20/20
f 56/56/56 12/12/12 22/22/22
f 56/56/56 57/57/57 12/12/12
f 6/6/6 58/58/58 52/52/52
f 6/6/6 59/59/59 58/58/58
f 6/6/6 8/8/8 59/59/59
f 60/60/60 21/21/21 12/12/12
f 14/14/14 60/60/60 12/12/12
f 22/22/22 61/61/61 56/56/56
f 62/62/62 51/51/51 56/56/56
f 61/61/61 62/62/62 56/56/56
f 63/63/63 64/64/64 15/15/15
f 15/15/15 64/64/64 17/17/17
f 63/63/63 65/65/65 40/40/40
f 63/63/63 15/15/15 65/65/65
f 23/23/23 65/65/65 15/15/15
f 49/49/49 66/66/66 50/50/50
f 49/49/49 67/67/67 66/66/66
f 67/67/67 68/68/68 66/66/66
f 66/66/66 68/68/68 69/69/69
f 70/70/70 71/71/71 72/72/72
f 73/73/73 71/71/71 74/74/74
f 13/13/13 73/73/73 75/75/75
f 76/76/76 49/49/49 48/48/48
f 77/77/77 55/55/55 43/43/43
f 45/45/45 77/77/77 43/43/43
f 78/78/78 79/79/79 69/69/69
f 80/80/80 81/81/81 82/82/82
f 76/76/76 80/80/80 82/82/82
f 83/83/83 24/24/24 84/84/84
f 82/82/82 83/83/83 84/84/84
f 68/68/68 85/85/85 69/69/69
f 79/79/79 86/86/86 87/87/87
f 66/66/66 87/87/87 50/50/50
f 87/87/87 66/66/66 69/69/69
f 72/72/72 88/88/88 70/70/70
f 70/70/70 88/88/88 74/74/74
f 89/89/89 74/74/74 88/88/88
f 74/74/74 90/90/90 75/75/75
f 74/74/74 89/89/89 90/90/90
f 89/89/89 91/91/91 90/90/90
f 35/35/35 42/42/42 27/27/27
f 32/32/32 27/27/27 42/42/42
f 92/92/92 57/57/57 93/93/93
f 19/19/19 93/93/93 57/57/57
f 57/57/57 20/20/20 19/19/19
f 27/27/27 25/25/25 35/35/35
f 28/28/28 26/26/26 25/25/25
f 94/94/94 31/31/31 30/30/30
f 29/29/29 33/33/33 32/32/32
f 33/33/33 28/28/28 27/27/27
f 95/95/95 94/94/94 30/30/30
f 40/40/40 95/95/95 30/30/30
f 25/25/25 24/24/24 36/36/36
f 36/36/36 35/35/35 25/25/25
f 19/19/19 18/18/18 36/36/36
f 96/96/96 36/36/36 24/24/24
f 93/93/93 19/19/19 96/96/96
f 36/36/36 96/96/96 19/19/19
f 97/97/97 98/98/98 99/99/99
f 42/42/42 41/41/41 32/32/32
f 39/39/39 41/41/41 97/97/97
f 30/30/30 29/29/29 39/39/39
f 41/41/41 46/46/46 97/97/97
f 97/97/97 46/46/46 98/98/98
f 95/95/95 100/100/100 94/94/94
f 97/97/97 99/99/99 101/101/101
f 39/39/39 102/102/102 47/47/47
f 97/97/97 102/102/102 39/39/39
f 102/102/102 97/97/97 101/101/101
f 42/42/42 35/35/35 103/103/103
f 44/44/44 42/42/42 103/103/103
f 18/18/18 103/103/103 35/35/35
f 103/103/103 18/18/18 6/6/6
f 52/52/52 103/103/103 6/6/6
f 52/52/52 44/44/44 103/103/103
f 57/57/57 92/92/92 13/13/13
f 13/13/13 12/12/12 57/57/57
f 104/104/104 31/31/31 94/94/94
f 47/47/47 102/102/102 64/64/64
f 63/63/63 47/47/47 64/64/64
f 63/63/63 40/40/40 47/47/47
f 102/102/102 105/105/105 64/64/64
f 73/73/73 13/13/13 92/92/92
f 78/78/78 72/72/72 71/71/71
f 70/70/70 74/74/74 71/71/71
f 74/74/74 75/75/75 73/73/73
f 75/75/75 14/14/14 13/13/13
f 102/102/102 106/106/106 105/105/105
f 102/102/102 101/101/101 106/106/106
f 92/92/92 107/107/107 73/73/73
f 71/71/71 73/73/73 107/107/107
f 71/71/71 107/107/107 78/78/78
f 79/79/79 78/78/78 107/107/107
f 93/93/93 108/108/108 92/92/92
f 107/107/107 92/92/92 108/108/108
f 107/107/107 108/108/108 79/79/79
f 86/86/86 79/79/79 108/108/108
f 86/86/86 108/108/108 80/80/80
f 50/50/50 86/86/86 80/80/80
f 76/76/76 48/48/48 80/80/80
f 48/48/48 50/50/50 80/80/80
f 81/81/81 80/80/80 108/108/108
f 96/96/96 81/81/81 93/93/93
f 108/108/108 93/93/93 81/81/81
f 24/24/24 83/83/83 96/96/96
f 81/81/81 96/96/96 83/83/83
f 83/83/83 82/82/82 81/81/81
f 26/26/26 84/84/84 24/24/24
f 85/85/85 72/72/72 78/78/78
f 69/69/69 85/85/85 78/78/78
f 87/87/87 69/69/69 79/79/79
f 50/50/50 87/87/87 86/86/86
