# Blender 3.6.5
# www.blender.org
mtllib furina.025.mtl
g furina.025_furina.025
v 14.859349 1.906317 -16.112629
v 14.850178 1.905964 -16.125145
v 14.799801 1.945645 -16.079012
v 14.824979 1.912125 -16.144802
v 14.815200 1.916013 -16.149488
v 14.799801 1.945645 -16.079012
v 14.800382 1.946378 -16.079742
v 14.821849 1.905258 -16.142979
v 14.783907 1.949914 -16.091284
v 14.844277 1.923431 -16.070728
v 14.853385 1.901251 -16.111639
v 14.800382 1.946378 -16.079742
v 14.817179 1.941198 -16.067284
v 14.909637 1.543879 -16.704004
v 14.887262 1.522879 -16.746477
v 14.898289 1.549622 -16.709631
v 15.266331 1.319235 -16.512434
v 15.232151 1.356241 -16.541920
v 15.266017 1.342371 -16.486095
v 15.234887 1.386420 -16.499662
v 15.194188 1.387165 -16.580189
v 15.198703 1.438181 -16.506052
v 15.300241 1.292227 -16.470528
v 15.086581 1.484575 -16.678148
v 15.055359 1.468671 -16.735332
v 15.033240 1.498305 -16.727859
v 15.009185 1.454579 -16.811848
v 14.906831 1.578283 -16.673349
v 14.930134 1.565376 -16.663338
v 14.947234 1.589423 -16.622776
v 14.822303 1.717930 -16.468693
v 14.811024 1.732458 -16.458225
v 14.868845 1.723381 -16.417849
v 14.883452 1.663412 -16.492748
v 14.868628 1.675071 -16.488834
v 14.875660 1.689748 -16.459583
v 14.871423 1.707677 -16.437569
v 14.835916 1.703087 -16.477676
v 14.851454 1.688265 -16.485096
v 14.801895 1.747805 -16.445400
v 14.798136 1.767296 -16.424728
v 14.801450 1.765250 -16.421108
v 14.796872 1.782751 -16.404209
v 14.802550 1.779227 -16.399643
v 14.866904 1.739354 -16.397375
v 15.098055 1.735327 -16.092323
v 15.107340 1.719100 -16.107004
v 15.062887 1.728907 -16.162172
v 15.132173 1.656328 -16.180515
v 15.133695 1.637764 -16.211971
v 15.102151 1.678115 -16.185638
v 15.084557 1.701764 -16.172100
v 15.116367 1.701921 -16.123302
v 15.124917 1.679678 -16.149632
v 15.046663 1.748920 -16.157461
v 15.074612 1.766712 -16.077070
v 15.086823 1.751480 -16.082281
v 15.059782 1.778669 -16.082493
v 15.063117 1.781785 -16.079399
v 14.865307 1.760572 -16.368814
v 14.808434 1.808162 -16.349470
v 14.867132 1.759474 -16.456532
v 14.858825 1.791411 -16.403694
v 14.969230 1.733515 -16.385220
v 14.959991 1.674142 -16.499792
v 14.897799 1.677735 -16.565645
v 14.882806 1.718608 -16.515751
v 14.942542 1.705507 -16.463818
v 15.003006 1.696391 -16.416176
v 14.958310 1.615413 -16.584034
v 14.910535 1.608997 -16.638235
v 15.032568 1.661119 -16.442575
v 14.985281 1.635469 -16.532057
v 15.223512 1.480934 -16.292166
v 15.175565 1.550450 -16.303881
v 15.197330 1.540993 -16.275770
v 15.107618 1.680068 -16.286453
v 15.150177 1.660635 -16.226929
v 15.131619 1.635354 -16.299278
v 15.167435 1.621734 -16.245853
v 15.057200 1.690900 -16.376629
v 15.038889 1.730308 -16.323357
v 15.120227 1.709024 -16.200485
v 15.182386 1.580812 -16.262701
v 15.153325 1.591215 -16.305090
v 15.143708 1.634134 -16.333019
v 15.168082 1.480919 -16.504450
v 15.131066 1.448219 -16.614676
v 15.103976 1.477216 -16.617727
v 15.016346 1.762548 -16.285812
v 15.161811 1.417555 -16.602350
v 15.138231 1.524754 -16.498354
v 15.047894 1.544174 -16.600075
v 15.106036 1.570293 -16.487381
v 15.012967 1.595748 -16.566772
v 15.060445 1.625895 -16.466486
v 15.048145 1.529351 -16.667847
v 15.058066 1.557666 -16.614126
v 15.108356 1.500498 -16.630461
v 15.066591 1.592879 -16.544245
v 15.072469 1.630097 -16.474710
v 15.160707 1.553916 -16.464445
v 15.149581 1.537887 -16.509850
v 14.871590 1.853585 -16.244965
v 14.892116 1.825931 -16.283628
v 14.837515 1.865468 -16.266592
v 14.825108 1.894717 -16.200188
v 14.845414 1.886778 -16.189602
v 15.005515 1.818836 -16.160870
v 14.963228 1.819567 -16.222925
v 14.965392 1.845727 -16.150541
v 14.932339 1.845876 -16.194017
v 14.914382 1.875619 -16.134533
v 14.892083 1.876396 -16.160412
v 14.779405 1.893820 -16.214603
v 14.783127 1.917223 -16.159271
v 14.838614 1.876888 -16.187737
v 14.814370 1.854520 -16.264166
v 14.852361 1.841906 -16.247671
v 14.858644 1.810154 -16.298103
v 14.812859 1.829810 -16.310478
v 14.861532 1.786248 -16.334572
v 14.879692 1.904843 -16.071028
v 14.916975 1.870726 -16.103796
v 14.928934 1.880348 -16.063395
v 14.970943 1.851354 -16.081234
v 14.970181 1.861724 -16.049988
v 14.965859 1.841937 -16.108109
v 15.009686 1.818745 -16.096321
v 15.008383 1.816936 -16.096951
v 15.053904 1.790000 -16.081312
v 15.049145 1.786551 -16.085230
v 15.056464 1.795197 -16.080433
v 15.012075 1.833703 -16.067524
v 15.004418 1.847229 -16.033401
v 15.038630 1.828087 -16.037067
v 15.051853 1.811739 -16.059538
v 15.029104 1.768437 -16.154688
v 14.996786 1.798935 -16.150816
v 14.955880 1.830950 -16.146006
v 15.022369 1.840621 -16.020859
v 14.904408 1.865107 -16.133522
v 14.809142 1.812499 -16.351528
v 14.781693 1.797496 -16.400450
v 14.763473 1.814071 -16.386934
v 14.749668 1.829948 -16.370483
v 14.758030 1.836989 -16.350580
v 14.766711 1.849495 -16.319750
v 14.774070 1.867401 -16.278076
v 14.795812 1.788630 -16.405720
v 15.165476 1.575838 -16.418617
v 15.141132 1.520558 -16.549965
v 15.127021 1.508428 -16.590176
v 14.962220 1.643075 -16.545191
v 14.907512 1.641682 -16.604200
v 14.940030 1.765676 -16.351919
v 14.914012 1.797250 -16.317972
v 14.846807 1.840347 -16.314344
v 14.855019 1.817189 -16.355043
v 15.066203 1.662657 -16.418985
v 14.989854 1.793549 -16.251059
v 15.048166 1.787453 -16.165686
v 15.086116 1.750401 -16.179474
v 15.159314 1.604035 -16.373446
vn 0.6991 0.2087 -0.6839
vn 0.6783 0.2083 -0.7046
vn 0.6501 0.2134 -0.7292
vn 0.6252 0.2086 -0.7521
vn 0.6028 0.2087 -0.7701
vn 0.6501 0.2135 -0.7293
vn 0.6500 0.2134 -0.7293
vn 0.6240 0.2085 -0.7531
vn 0.6181 0.2135 -0.7566
vn 0.7167 0.2117 -0.6645
vn 0.6947 0.2089 -0.6883
vn 0.6501 0.2134 -0.7293
vn 0.6875 0.2132 -0.6941
vn 0.2759 0.0981 -0.9562
vn 0.2183 0.0934 -0.9714
vn 0.2593 0.0996 -0.9607
vn 0.8766 0.0673 -0.4766
vn 0.8146 0.0662 -0.5763
vn 0.8856 0.0733 -0.4586
vn 0.8451 0.0764 -0.5292
vn 0.7478 0.0656 -0.6607
vn 0.7998 0.0829 -0.5945
vn 0.9232 0.0716 -0.3776
vn 0.5325 0.0734 -0.8432
vn 0.4524 0.0678 -0.8892
vn 0.4323 0.0747 -0.8986
vn 0.3407 0.0644 -0.9380
vn 0.3004 0.1062 -0.9479
vn 0.3354 0.1031 -0.9364
vn 0.3920 0.1096 -0.9134
vn 0.3270 0.1639 -0.9307
vn 0.3204 0.1678 -0.9323
vn 0.4435 0.1665 -0.8807
vn 0.3964 0.1466 -0.9063
vn 0.3803 0.1505 -0.9125
vn 0.4116 0.1558 -0.8979
vn 0.4311 0.1619 -0.8877
vn 0.3382 0.1592 -0.9275
vn 0.3600 0.1544 -0.9201
vn 0.3188 0.1718 -0.9321
vn 0.3306 0.1766 -0.9271
vn 0.3373 0.1766 -0.9247
vn 0.3504 0.1804 -0.9191
vn 0.3617 0.1802 -0.9147
vn 0.4570 0.1709 -0.8729
vn 0.9316 0.1901 -0.3098
vn 0.9320 0.1867 -0.3108
vn 0.8791 0.1840 -0.4397
vn 0.9198 0.1703 -0.3534
vn 0.9101 0.1636 -0.3807
vn 0.9010 0.1737 -0.3975
vn 0.8908 0.1790 -0.4177
vn 0.9319 0.1831 -0.3131
vn 0.9285 0.1772 -0.3262
vn 0.8684 0.1870 -0.4593
vn 0.9236 0.1948 -0.3301
vn 0.9288 0.1929 -0.3164
vn 0.9108 0.1958 -0.3635
vn 0.9127 0.1961 -0.3586
vn 0.4771 0.1769 -0.8609
vn 0.4106 0.1875 -0.8923
vn 0.4153 0.1653 -0.8945
vn 0.4469 0.1763 -0.8770
vn 0.6079 0.1626 -0.7772
vn 0.5082 0.1379 -0.8501
vn 0.3743 0.1355 -0.9174
vn 0.3921 0.1502 -0.9076
vn 0.5131 0.1498 -0.8452
vn 0.6298 0.1496 -0.7622
vn 0.4397 0.1170 -0.8905
vn 0.3325 0.1145 -0.9361
vn 0.6449 0.1374 -0.7518
vn 0.5158 0.1246 -0.8476
vn 0.9436 0.1252 -0.3065
vn 0.9023 0.1340 -0.4097
vn 0.9253 0.1361 -0.3539
vn 0.8344 0.1585 -0.5279
vn 0.9017 0.1621 -0.4007
vn 0.8519 0.1489 -0.5020
vn 0.9091 0.1533 -0.3873
vn 0.7183 0.1498 -0.6794
vn 0.7384 0.1647 -0.6540
vn 0.8881 0.1731 -0.4257
vn 0.9168 0.1443 -0.3723
vn 0.8762 0.1405 -0.4611
vn 0.8376 0.1417 -0.5275
vn 0.7625 0.0906 -0.6406
vn 0.6406 0.0728 -0.7644
vn 0.6002 0.0784 -0.7960
vn 0.7404 0.1751 -0.6490
vn 0.6913 0.0683 -0.7193
vn 0.7281 0.0991 -0.6783
vn 0.5416 0.0952 -0.8352
vn 0.7009 0.1101 -0.7047
vn 0.5245 0.1108 -0.8442
vn 0.6593 0.1256 -0.7413
vn 0.4909 0.0841 -0.8671
vn 0.5441 0.0941 -0.8337
vn 0.5948 0.0793 -0.7999
vn 0.6067 0.1081 -0.7876
vn 0.6648 0.1236 -0.7367
vn 0.7702 0.1070 -0.6288
vn 0.7274 0.0982 -0.6792
vn 0.5962 0.1964 -0.7784
vn 0.5915 0.1900 -0.7836
vn 0.5306 0.1972 -0.8244
vn 0.5734 0.2043 -0.7934
vn 0.6136 0.2036 -0.7629
vn 0.8148 0.1940 -0.5464
vn 0.7303 0.1909 -0.6559
vn 0.7858 0.1988 -0.5857
vn 0.7155 0.1968 -0.6704
vn 0.7455 0.2038 -0.6346
vn 0.6978 0.2031 -0.6869
vn 0.4923 0.2052 -0.8459
vn 0.5515 0.2093 -0.8075
vn 0.6020 0.2035 -0.7721
vn 0.5001 0.1980 -0.8430
vn 0.5702 0.1964 -0.7977
vn 0.5318 0.1895 -0.8254
vn 0.4542 0.1927 -0.8698
vn 0.5068 0.1834 -0.8423
vn 0.7599 0.2101 -0.6151
vn 0.7786 0.2054 -0.5930
vn 0.8206 0.2080 -0.5323
vn 0.8434 0.2039 -0.4972
vn 0.8643 0.2063 -0.4588
vn 0.8236 0.2019 -0.5300
vn 0.8672 0.1994 -0.4562
vn 0.8667 0.1994 -0.4572
vn 0.9061 0.1968 -0.3746
vn 0.9033 0.1965 -0.3814
vn 0.9059 0.1971 -0.3748
vn 0.8821 0.2024 -0.4254
vn 0.8971 0.2054 -0.3912
vn 0.9132 0.2031 -0.3533
vn 0.9106 0.1999 -0.3616
vn 0.8513 0.1899 -0.4891
vn 0.8256 0.1942 -0.5298
vn 0.7865 0.1988 -0.5848
vn 0.9126 0.2053 -0.3537
vn 0.7401 0.2038 -0.6408
vn 0.4112 0.1875 -0.8921
vn 0.3293 0.1833 -0.9263
vn 0.3143 0.1875 -0.9306
vn 0.3069 0.1914 -0.9323
vn 0.3349 0.1930 -0.9223
vn 0.3768 0.1959 -0.9053
vn 0.4260 0.1999 -0.8824
vn 0.3450 0.1809 -0.9210
vn 0.8050 0.1171 -0.5816
vn 0.6945 0.0907 -0.7138
vn 0.6479 0.0843 -0.7571
vn 0.4731 0.1263 -0.8719
vn 0.3574 0.1236 -0.9257
vn 0.5982 0.1730 -0.7824
vn 0.5922 0.1822 -0.7849
vn 0.5041 0.1910 -0.8423
vn 0.4797 0.1842 -0.8579
vn 0.7000 0.1381 -0.7007
vn 0.7374 0.1839 -0.6500
vn 0.8494 0.1889 -0.4928
vn 0.8732 0.1821 -0.4520
vn 0.8286 0.1292 -0.5447
vt 0.813290 0.426398
vt 0.809059 0.423075
vt 0.794528 0.446578
vt 0.918661 0.264849
vt 0.922745 0.265051
vt 0.919209 0.292862
vt 0.322884 0.961146
vt 0.347272 0.958445
vt 0.324862 0.967466
vt 0.346745 0.985272
vt 0.336618 0.996463
vt 0.360891 0.992767
vt 0.357127 0.987137
vt 0.941466 0.024130
vt 0.952506 0.009166
vt 0.946377 0.024620
vt 0.775799 0.002402
vt 0.796292 0.005429
vt 0.774525 0.014779
vt 0.792264 0.023439
vt 0.818339 0.004852
vt 0.810982 0.035973
vt 0.754557 0.004980
vt 0.868473 0.173551
vt 0.854718 0.154808
vt 0.844846 0.163387
vt 0.833926 0.131328
vt 0.941292 0.040514
vt 0.931330 0.038850
vt 0.922502 0.054308
vt 0.462592 0.974647
vt 0.457014 0.978067
vt 0.450367 0.957110
vt 0.480305 0.955071
vt 0.476771 0.959865
vt 0.467051 0.956312
vt 0.458198 0.956927
vt 0.467930 0.970402
vt 0.472931 0.965469
vt 0.450760 0.980734
vt 0.441944 0.981621
vt 0.441538 0.980027
vt 0.433985 0.981340
vt 0.433699 0.978849
vt 0.442320 0.957065
vt 0.246996 0.964806
vt 0.240409 0.968538
vt 0.248756 0.989709
vt 0.216284 0.989215
vt 0.209796 0.998876
vt 0.227358 0.993624
vt 0.237331 0.990963
vt 0.233564 0.972810
vt 0.225052 0.980252
vt 0.257085 0.989571
vt 0.260109 0.962091
vt 0.253697 0.962667
vt 0.265688 0.965039
vt 0.266033 0.963317
vt 0.431324 0.956585
vt 0.416227 0.974730
vt 0.938750 0.142203
vt 0.936369 0.164182
vt 0.894171 0.149336
vt 0.908588 0.105743
vt 0.937949 0.092594
vt 0.938999 0.116070
vt 0.911522 0.123540
vt 0.884924 0.130562
vt 0.915958 0.070016
vt 0.938050 0.056803
vt 0.876448 0.113749
vt 0.901956 0.086875
vt 0.963050 0.280034
vt 0.935752 0.291358
vt 0.947101 0.297173
vt 0.895923 0.323446
vt 0.919074 0.335809
vt 0.908669 0.310531
vt 0.928109 0.322427
vt 0.867936 0.300787
vt 0.863767 0.324251
vt 0.906332 0.353439
vt 0.937411 0.309173
vt 0.921938 0.299635
vt 0.906851 0.299967
vt 0.825187 0.048085
vt 0.850670 0.013615
vt 0.862673 0.021059
vt 0.857488 0.342024
vt 0.835671 0.007984
vt 0.838482 0.061581
vt 0.884096 0.044321
vt 0.851653 0.076860
vt 0.894876 0.066951
vt 0.868095 0.097738
vt 0.852054 0.186265
vt 0.857476 0.206893
vt 0.878347 0.189775
vt 0.863591 0.233486
vt 0.868604 0.260440
vt 0.906601 0.246226
vt 0.899976 0.230427
vt 0.914253 0.220693
vt 0.911227 0.202569
vt 0.929139 0.219542
vt 0.925507 0.245415
vt 0.916906 0.245272
vt 0.862376 0.389447
vt 0.842083 0.373140
vt 0.848249 0.399121
vt 0.833036 0.387851
vt 0.831108 0.411654
vt 0.821167 0.405217
vt 0.365741 0.976718
vt 0.347754 0.971940
vt 0.364279 0.956003
vt 0.386637 0.968775
vt 0.386116 0.955392
vt 0.404558 0.956033
vt 0.402639 0.971855
vt 0.418015 0.956570
vt 0.334701 0.981143
vt 0.316305 0.986563
vt 0.318980 0.973079
vt 0.301763 0.973405
vt 0.306866 0.964244
vt 0.298708 0.982100
vt 0.284870 0.973495
vt 0.284590 0.974181
vt 0.269764 0.964645
vt 0.269594 0.966880
vt 0.270811 0.963114
vt 0.289886 0.964408
vt 0.297566 0.955257
vt 0.285431 0.952201
vt 0.277074 0.957262
vt 0.265450 0.990182
vt 0.279462 0.991942
vt 0.295702 0.994730
vt 0.293259 0.949394
vt 0.315554 0.996953
vt 0.415737 0.976126
vt 0.429662 0.987272
vt 0.422615 0.992476
vt 0.415080 0.995992
vt 0.409118 0.992184
vt 0.399514 0.987434
vt 0.386248 0.982520
vt 0.433070 0.983026
vt 0.910584 0.263458
vt 0.895023 0.215815
vt 0.887656 0.202337
vt 0.911700 0.086454
vt 0.937186 0.073560
vt 0.901144 0.167466
vt 0.906991 0.185404
vt 0.931178 0.200219
vt 0.932635 0.183409
vt 0.869210 0.282911
vt 0.849903 0.358980
vt 0.878555 0.380614
vt 0.893085 0.368378
vt 0.910482 0.282042
s 1
g furina.025_裙3.001
usemtl 裙3.001
f 1/1/1 2/2/2 3/3/3
f 4/4/4 5/5/5 6/6/6
f 7/7/7 8/8/8 9/9/9
f 10/10/10 11/11/11 12/12/12
f 13/13/13 10/10/10 12/12/12
f 14/14/14 15/15/15 16/16/16
f 17/17/17 18/18/18 19/19/19
f 20/20/20 19/19/19 18/18/18
f 20/20/20 18/18/18 21/21/21
f 22/22/22 20/20/20 21/21/21
f 19/19/19 23/23/23 17/17/17
f 24/24/24 25/25/25 26/26/26
f 25/25/25 27/27/27 26/26/26
f 16/16/16 28/28/28 14/14/14
f 29/29/29 14/14/14 28/28/28
f 30/30/30 29/29/29 28/28/28
f 31/31/31 32/32/32 33/33/33
f 34/34/34 35/35/35 36/36/36
f 37/37/37 31/31/31 33/33/33
f 38/38/38 31/31/31 37/37/37
f 36/36/36 39/39/39 37/37/37
f 35/35/35 39/39/39 36/36/36
f 39/39/39 38/38/38 37/37/37
f 32/32/32 40/40/40 33/33/33
f 40/40/40 41/41/41 42/42/42
f 41/41/41 43/43/43 42/42/42
f 44/44/44 42/42/42 43/43/43
f 40/40/40 42/42/42 45/45/45
f 45/45/45 33/33/33 40/40/40
f 46/46/46 47/47/47 48/48/48
f 49/49/49 50/50/50 51/51/51
f 47/47/47 52/52/52 48/48/48
f 47/47/47 53/53/53 52/52/52
f 54/54/54 49/49/49 51/51/51
f 54/54/54 51/51/51 52/52/52
f 53/53/53 54/54/54 52/52/52
f 48/48/48 55/55/55 46/46/46
f 56/56/56 57/57/57 55/55/55
f 57/57/57 46/46/46 55/55/55
f 58/58/58 56/56/56 55/55/55
f 58/58/58 59/59/59 56/56/56
f 42/42/42 44/44/44 60/60/60
f 44/44/44 61/61/61 60/60/60
f 45/45/45 42/42/42 60/60/60
f 62/62/62 63/63/63 64/64/64
f 65/65/65 66/66/66 67/67/67
f 64/64/64 68/68/68 62/62/62
f 68/68/68 69/69/69 65/65/65
f 68/68/68 65/65/65 67/67/67
f 68/68/68 67/67/67 62/62/62
f 68/68/68 64/64/64 69/69/69
f 70/70/70 30/30/30 71/71/71
f 69/69/69 72/72/72 65/65/65
f 72/72/72 73/73/73 65/65/65
f 74/74/74 75/75/75 76/76/76
f 77/77/77 78/78/78 79/79/79
f 80/80/80 79/79/79 78/78/78
f 81/81/81 82/82/82 77/77/77
f 78/78/78 77/77/77 83/83/83
f 77/77/77 82/82/82 83/83/83
f 76/76/76 75/75/75 84/84/84
f 84/84/84 85/85/85 80/80/80
f 85/85/85 84/84/84 75/75/75
f 79/79/79 80/80/80 85/85/85
f 86/86/86 81/81/81 77/77/77
f 87/87/87 88/88/88 89/89/89
f 82/82/82 90/90/90 83/83/83
f 22/22/22 91/91/91 88/88/88
f 87/87/87 22/22/22 88/88/88
f 22/22/22 21/21/21 91/91/91
f 92/92/92 87/87/87 89/89/89
f 93/93/93 92/92/92 89/89/89
f 94/94/94 92/92/92 93/93/93
f 95/95/95 94/94/94 93/93/93
f 73/73/73 96/96/96 95/95/95
f 96/96/96 94/94/94 95/95/95
f 97/97/97 98/98/98 99/99/99
f 24/24/24 97/97/97 99/99/99
f 24/24/24 26/26/26 97/97/97
f 100/100/100 101/101/101 102/102/102
f 102/102/102 103/103/103 100/100/100
f 30/30/30 28/28/28 71/71/71
f 104/104/104 105/105/105 106/106/106
f 106/106/106 107/107/107 104/104/104
f 5/5/5 4/4/4 107/107/107
f 108/108/108 107/107/107 4/4/4
f 108/108/108 104/104/104 107/107/107
f 109/109/109 110/110/110 111/111/111
f 111/111/111 112/112/112 113/113/113
f 114/114/114 113/113/113 112/112/112
f 2/2/2 1/1/1 114/114/114
f 113/113/113 114/114/114 1/1/1
f 115/115/115 116/116/116 117/117/117
f 8/8/8 117/117/117 116/116/116
f 118/118/118 115/115/115 117/117/117
f 119/119/119 118/118/118 117/117/117
f 119/119/119 120/120/120 118/118/118
f 121/121/121 118/118/118 120/120/120
f 120/120/120 122/122/122 121/121/121
f 61/61/61 121/121/121 122/122/122
f 44/44/44 43/43/43 61/61/61
f 116/116/116 9/9/9 8/8/8
f 123/123/123 124/124/124 11/11/11
f 10/10/10 123/123/123 11/11/11
f 123/123/123 125/125/125 124/124/124
f 124/124/124 125/125/125 126/126/126
f 125/125/125 127/127/127 126/126/126
f 128/128/128 124/124/124 126/126/126
f 128/128/128 126/126/126 129/129/129
f 128/128/128 129/129/129 130/130/130
f 130/130/130 129/129/129 131/131/131
f 59/59/59 58/58/58 131/131/131
f 130/130/130 131/131/131 132/132/132
f 132/132/132 131/131/131 58/58/58
f 133/133/133 131/131/131 129/129/129
f 134/134/134 129/129/129 126/126/126
f 126/126/126 127/127/127 134/134/134
f 135/135/135 134/134/134 127/127/127
f 136/136/136 134/134/134 135/135/135
f 129/129/129 137/137/137 133/133/133
f 136/136/136 137/137/137 134/134/134
f 129/129/129 134/134/134 137/137/137
f 132/132/132 138/138/138 130/130/130
f 58/58/58 55/55/55 138/138/138
f 132/132/132 58/58/58 138/138/138
f 130/130/130 139/139/139 128/128/128
f 139/139/139 130/130/130 138/138/138
f 140/140/140 128/128/128 139/139/139
f 136/136/136 135/135/135 141/141/141
f 124/124/124 128/128/128 142/142/142
f 128/128/128 140/140/140 142/142/142
f 124/124/124 142/142/142 11/11/11
f 61/61/61 143/143/143 121/121/121
f 43/43/43 143/143/143 61/61/61
f 144/144/144 145/145/145 143/143/143
f 145/145/145 146/146/146 143/143/143
f 143/143/143 146/146/146 147/147/147
f 121/121/121 143/143/143 148/148/148
f 147/147/147 148/148/148 143/143/143
f 118/118/118 149/149/149 115/115/115
f 118/118/118 121/121/121 149/149/149
f 148/148/148 149/149/149 121/121/121
f 150/150/150 144/144/144 143/143/143
f 43/43/43 150/150/150 143/143/143
f 122/122/122 60/60/60 61/61/61
f 101/101/101 151/151/151 102/102/102
f 100/100/100 103/103/103 152/152/152
f 98/98/98 100/100/100 152/152/152
f 153/153/153 99/99/99 98/98/98
f 152/152/152 153/153/153 98/98/98
f 65/65/65 154/154/154 66/66/66
f 154/154/154 155/155/155 66/66/66
f 70/70/70 71/71/71 155/155/155
f 154/154/154 70/70/70 155/155/155
f 156/156/156 64/64/64 63/63/63
f 105/105/105 157/157/157 158/158/158
f 159/159/159 158/158/158 157/157/157
f 63/63/63 159/159/159 156/156/156
f 157/157/157 156/156/156 159/159/159
f 86/86/86 160/160/160 81/81/81
f 161/161/161 162/162/162 90/90/90
f 163/163/163 83/83/83 90/90/90
f 163/163/163 90/90/90 162/162/162
f 110/110/110 109/109/109 161/161/161
f 162/162/162 161/161/161 109/109/109
f 72/72/72 96/96/96 73/73/73
f 164/164/164 160/160/160 86/86/86
f 164/164/164 101/101/101 160/160/160
f 158/158/158 106/106/106 105/105/105
f 112/112/112 111/111/111 110/110/110
f 101/101/101 164/164/164 151/151/151
