# Blender 3.6.5
# www.blender.org
mtllib furina.023.mtl
o furina.023
v 14.871247 0.635313 -16.995813
v 14.908654 0.745427 -16.867975
v 14.984803 0.622468 -16.834440
v 14.839924 0.561406 -17.097836
v 14.924518 0.589000 -16.950483
v 15.306699 1.186138 -16.155100
v 15.251517 1.265616 -16.202007
v 15.278948 1.274485 -16.123268
v 15.310678 1.200374 -16.117111
v 15.309148 1.221365 -16.085884
v 15.304161 1.252626 -16.058102
v 15.210425 1.507155 -15.886195
v 15.228983 1.474970 -15.981251
v 15.177415 1.562811 -15.990014
v 14.981864 0.732241 -16.769077
v 15.038233 0.664912 -16.732857
v 15.078746 0.721437 -16.652174
v 15.221926 1.445738 -16.058037
v 15.191676 1.408227 -16.183002
v 15.146564 1.509275 -16.169134
v 15.272603 1.393608 -15.921047
v 15.297592 1.352231 -15.975415
v 14.898748 0.807874 -16.836067
v 14.886344 1.550005 -16.387758
v 14.970840 1.565784 -16.320414
v 15.002920 1.460330 -16.370836
v 14.913273 1.442047 -16.446857
v 15.026793 1.358518 -16.412928
v 14.907634 1.198408 -16.598352
v 14.945642 1.205443 -16.569027
v 14.947837 1.072339 -16.636038
v 14.928648 1.340791 -16.499842
v 15.056231 1.223591 -16.460340
v 14.873742 0.745503 -16.920061
v 15.129663 1.384892 -16.299086
v 15.092435 1.482592 -16.271614
v 14.863017 1.399956 -16.509281
v 14.873176 1.438409 -16.474586
v 14.942286 0.968380 -16.687025
v 15.078158 1.094673 -16.503780
v 15.199574 1.118748 -16.355551
v 15.169086 1.246569 -16.332468
v 15.200724 1.120607 -16.368502
v 15.251904 1.129457 -16.268909
v 15.273721 1.038809 -16.282949
v 15.227690 0.960627 -16.377937
v 15.087905 0.922587 -16.558525
v 14.917258 1.829321 -16.087313
v 14.888873 1.829019 -16.124109
v 14.873039 1.878005 -16.078672
v 15.298168 1.279200 -16.050613
v 15.290224 1.097932 -16.202044
v 15.289134 1.134258 -16.187073
v 15.286068 1.066814 -16.232178
v 15.222313 0.995006 -16.407265
v 15.234457 1.447422 -16.071909
v 15.177718 1.542910 -16.067120
v 15.282952 1.172973 -16.222271
v 15.295889 1.178318 -16.191528
v 15.240774 1.446331 -15.886589
v 15.305004 1.324595 -16.039434
v 15.298843 1.316909 -16.096350
v 14.955825 0.886391 -16.713692
v 15.094761 0.773046 -16.608271
v 14.917817 0.874053 -16.766562
v 14.901047 1.878235 -16.039013
v 14.868361 1.925915 -16.027493
v 14.918261 1.878679 -16.002426
v 14.959439 1.833132 -16.006502
v 15.018330 1.775293 -15.959393
v 15.066048 1.721501 -15.941800
v 15.064451 1.716006 -16.004827
v 15.115267 1.659122 -15.924623
v 15.122268 1.644919 -15.999204
v 15.164463 1.585648 -15.905968
v 14.876477 1.827843 -16.134645
v 15.247776 1.009564 -16.353685
v 15.012018 1.776078 -16.006876
v 14.995591 1.773678 -16.052969
v 14.879109 1.759831 -16.205034
v 14.931836 1.765697 -16.157869
v 14.989981 1.680380 -16.199076
v 14.883571 1.662576 -16.293415
v 14.929570 1.668173 -16.264874
v 14.965363 1.831129 -15.981857
v 14.942246 1.832111 -16.046753
v 14.968448 1.770245 -16.105625
v 15.065070 1.722710 -15.934149
v 15.112924 1.662933 -15.903513
v 15.147187 1.612478 -15.895666
v 15.134093 1.633065 -15.890812
v 15.092341 1.605764 -16.151682
v 15.119552 1.629879 -16.063265
v 14.878740 1.063343 -16.695402
v 14.897828 0.948081 -16.741444
v 15.044530 1.583991 -16.236794
v 15.211844 0.890862 -16.436056
v 15.175462 0.946409 -16.459568
v 15.227999 0.927668 -16.394140
v 14.851353 0.938205 -16.786339
v 15.166966 0.842320 -16.523327
v 15.086555 0.923078 -16.569176
v 15.243130 1.261988 -16.193207
v 14.867940 1.061231 -16.705715
v 15.086411 0.812810 -16.634150
v 15.123357 0.819929 -16.589947
v 15.055656 1.708306 -16.058056
v 15.030467 1.695986 -16.128834
vn 0.7732 0.3619 -0.5208
vn 0.7731 0.3522 -0.5276
vn 0.7732 0.3695 -0.5154
vn 0.7688 0.3835 -0.5117
vn 0.7687 0.3822 -0.5129
vn -0.0421 0.2463 -0.9683
vn 0.8864 0.3716 -0.2760
vn 0.8714 0.3846 -0.3045
vn 0.9035 0.3687 -0.2183
vn 0.9154 0.3171 -0.2478
vn 0.9064 0.3612 -0.2189
vn 0.8709 0.4904 -0.0330
vn 0.8466 0.5268 -0.0761
vn 0.8740 0.4859 0.0055
vn 0.7533 0.3352 -0.5659
vn 0.7552 0.3266 -0.5683
vn 0.7496 0.2914 -0.5943
vn 0.4835 0.3844 -0.7864
vn 0.7761 0.4495 -0.4422
vn 0.2469 0.2535 -0.9353
vn 0.8697 0.4924 0.0353
vn 0.8739 0.4828 -0.0564
vn 0.7646 0.3741 -0.5248
vn 0.5113 0.5318 -0.6751
vn 0.5597 0.4611 -0.6886
vn 0.4682 0.5252 -0.7106
vn 0.5997 0.4004 -0.6929
vn 0.4995 0.4821 -0.7198
vn 0.5764 0.3926 -0.7167
vn 0.6064 0.3553 -0.7114
vn 0.5450 0.4034 -0.7350
vn 0.6448 0.3567 -0.6760
vn 0.5462 0.4319 -0.7177
vn 0.7672 0.3841 -0.5137
vn 0.7193 0.3833 -0.5794
vn 0.6756 0.4607 -0.5756
vn 0.4834 0.4943 -0.7225
vn 0.4529 0.5212 -0.7234
vn -0.0737 0.3298 -0.9412
vn 0.6878 0.2994 -0.6612
vn -0.0396 0.2528 -0.9667
vn -0.0003 0.3424 -0.9396
vn -0.1441 0.3024 -0.9422
vn 0.8614 0.2794 -0.4241
vn 0.8621 0.2825 -0.4206
vn -0.2913 0.1352 -0.9470
vn -0.6383 0.3483 -0.6865
vn 0.5279 0.6571 -0.5381
vn 0.5868 0.6385 -0.4980
vn 0.6113 0.6494 -0.4522
vn 0.1688 -0.0233 -0.9854
vn 0.0969 -0.0375 -0.9946
vn 0.8873 0.2272 -0.4014
vn 0.8881 0.2636 -0.3765
vn -0.2937 0.2355 -0.9264
vn 0.1165 0.3322 -0.9360
vn 0.3568 0.4754 -0.8042
vn -0.1977 0.1449 -0.9695
vn 0.8433 0.3834 -0.3766
vn 0.8813 0.4715 0.0328
vn 0.8742 0.4676 -0.1305
vn 0.0028 0.1854 -0.9827
vn 0.7157 0.3144 -0.6236
vn -0.5280 0.3958 -0.7514
vn 0.7400 0.3362 -0.5825
vn 0.6728 0.6275 -0.3918
vn 0.7011 0.5806 -0.4140
vn 0.7202 0.6395 -0.2691
vn 0.7061 0.6637 -0.2469
vn 0.7722 0.6342 -0.0388
vn 0.7662 0.6315 -0.1192
vn 0.7503 0.6578 -0.0653
vn 0.8021 0.5871 -0.1089
vn 0.8061 0.5910 -0.0302
vn 0.8410 0.5406 -0.0218
vn 0.4548 0.6564 -0.6020
vn 0.8401 0.2953 -0.4549
vn 0.7295 0.6597 -0.1805
vn 0.6794 0.6545 -0.3318
vn 0.5437 0.6465 -0.5351
vn 0.5738 0.6042 -0.5529
vn 0.4496 0.6410 -0.6221
vn 0.4729 0.5955 -0.6494
vn 0.3915 0.5939 -0.7029
vn 0.7336 0.6707 -0.1097
vn 0.6232 0.6554 -0.4266
vn 0.6571 0.6551 -0.3728
vn 0.7739 0.6333 -0.0102
vn 0.8159 0.5766 -0.0417
vn 0.8314 0.5539 -0.0448
vn 0.8304 0.5497 -0.0914
vn 0.7713 0.5772 -0.2683
vn 0.7097 0.5424 -0.4495
vn 0.5849 0.3849 -0.7139
vn 0.6203 0.3528 -0.7005
vn 0.6297 0.5304 -0.5676
vn 0.7574 0.2796 -0.5901
vn 0.7861 0.2797 -0.5512
vn 0.7845 0.2795 -0.5536
vn 0.5994 0.3805 -0.7042
vn 0.7325 0.3285 -0.5963
vn -0.5608 0.4578 -0.6899
vn 0.5068 0.2106 -0.8359
vn 0.5995 0.3784 -0.7052
vn -0.4857 0.4443 -0.7528
vn 0.6981 0.3722 -0.6116
vn 0.7264 0.6329 -0.2679
vn 0.6583 0.6246 -0.4201
vt 0.301669 0.494663
vt 0.336525 0.533558
vt 0.265790 0.545799
vt 0.293038 0.557270
vt 0.236441 0.581974
vt 0.497319 0.218179
vt 0.516466 0.194637
vt 0.536668 0.221038
vt 0.541223 0.208439
vt 0.539818 0.182507
vt 0.542106 0.196101
vt 0.496910 0.094747
vt 0.463741 0.081539
vt 0.500338 0.059016
vt 0.345038 0.489215
vt 0.371922 0.508590
vt 0.397542 0.480941
vt 0.459377 0.175852
vt 0.433959 0.144066
vt 0.485636 0.133052
vt 0.535202 0.088225
vt 0.542510 0.112040
vt 0.304233 0.469610
vt 0.351543 0.163135
vt 0.366624 0.202262
vt 0.318522 0.181782
vt 0.378814 0.239304
vt 0.330238 0.222703
vt 0.343737 0.311160
vt 0.344633 0.361511
vt 0.327998 0.317216
vt 0.393664 0.288107
vt 0.338060 0.260720
vt 0.278635 0.500089
vt 0.424354 0.208530
vt 0.405287 0.174965
vt 0.310579 0.247284
vt 0.314434 0.229448
vt 0.403790 0.336256
vt 0.344009 0.400832
vt 0.464160 0.302420
vt 0.447333 0.256717
vt 0.468554 0.300953
vt 0.499359 0.276078
vt 0.517623 0.303680
vt 0.483709 0.356991
vt 0.410304 0.401553
vt 0.320777 0.050038
vt 0.315968 0.026466
vt 0.334319 0.040878
vt 0.534498 0.174966
vt 0.525032 0.258871
vt 0.528370 0.271598
vt 0.526222 0.285954
vt 0.490990 0.343134
vt 0.491358 0.128218
vt 0.455671 0.109305
vt 0.525416 0.241245
vt 0.530758 0.232010
vt 0.521060 0.068802
vt 0.542695 0.135952
vt 0.536402 0.154693
vt 0.345935 0.430594
vt 0.408425 0.458841
vt 0.323624 0.439806
vt 0.329851 0.016432
vt 0.315102 0.001766
vt 0.340415 0.006860
vt 0.358209 0.019446
vt 0.416199 0.029405
vt 0.405407 0.048784
vt 0.391971 0.020903
vt 0.433236 0.065094
vt 0.442265 0.039765
vt 0.471410 0.050021
vt 0.315763 0.052835
vt 0.503585 0.326913
vt 0.381413 0.034083
vt 0.369829 0.046671
vt 0.337084 0.074376
vt 0.359774 0.106147
vt 0.315615 0.086867
vt 0.334312 0.124239
vt 0.317014 0.132155
vt 0.364440 0.013019
vt 0.354630 0.060666
vt 0.347139 0.030124
vt 0.416840 0.026652
vt 0.444636 0.032292
vt 0.463528 0.041388
vt 0.457742 0.034993
vt 0.424679 0.086510
vt 0.407024 0.114510
vt 0.314059 0.372151
vt 0.320599 0.415391
vt 0.383317 0.139932
vt 0.454398 0.374608
vt 0.484303 0.369535
vt 0.475926 0.387333
vt 0.297376 0.424872
vt 0.453591 0.416278
vt 0.413123 0.402142
vt 0.493806 0.221210
vt 0.308722 0.374214
vt 0.421539 0.449026
vt 0.435622 0.436036
vt 0.395534 0.064929
vt 0.379472 0.085655
s 1
usemtl Mat_Dress.003
f 2/1/1 3/2/2 1/3/3
f 1/3/3 5/4/4 4/5/5
f 1/3/3 3/2/2 5/4/4
f 7/6/6 8/7/7 6/8/8
f 8/7/7 9/9/9 6/8/8
f 8/7/7 11/10/10 10/11/11
f 8/7/7 10/11/11 9/9/9
f 13/12/12 14/13/13 12/14/14
f 15/15/15 16/16/16 3/2/2
f 15/15/15 17/17/17 16/16/16
f 19/18/18 20/19/19 18/20/20
f 21/21/21 22/22/22 13/12/12
f 3/2/2 2/1/1 15/15/15
f 15/15/15 2/1/1 23/23/23
f 25/24/24 26/25/25 24/26/26
f 26/25/25 28/27/27 27/28/28
f 30/29/29 31/30/30 29/31/31
f 28/27/27 33/32/32 32/33/33
f 29/31/31 32/33/33 30/29/29
f 2/1/1 34/34/34 23/23/23
f 35/35/35 36/36/36 19/18/18
f 32/33/33 37/37/37 27/28/28
f 38/38/38 27/28/28 37/37/37
f 27/28/28 38/38/38 24/26/26
f 31/30/30 40/39/39 39/40/40
f 40/39/39 33/32/32 41/41/41
f 33/32/32 40/39/39 30/29/29
f 42/42/42 43/43/43 41/41/41
f 43/43/43 42/42/42 44/44/44
f 44/44/44 45/45/45 43/43/43
f 43/43/43 46/46/46 41/41/41
f 40/39/39 47/47/47 39/40/40
f 49/48/48 50/49/49 48/50/50
f 8/7/7 19/18/18 18/20/20
f 8/7/7 7/6/6 19/18/18
f 51/51/51 8/7/7 18/20/20
f 8/7/7 51/51/51 11/10/10
f 44/44/44 53/52/52 52/53/53
f 44/44/44 52/53/53 54/54/54
f 44/44/44 54/54/54 45/45/45
f 55/55/55 46/46/46 43/43/43
f 51/51/51 18/20/20 56/56/56
f 57/57/57 56/56/56 18/20/20
f 56/56/56 13/12/12 22/22/22
f 56/56/56 57/57/57 13/12/12
f 7/6/6 58/58/58 53/52/52
f 7/6/6 59/59/59 58/58/58
f 7/6/6 6/8/8 59/59/59
f 60/60/60 21/21/21 13/12/12
f 12/14/14 60/60/60 13/12/12
f 22/22/22 61/61/61 56/56/56
f 62/62/62 51/51/51 56/56/56
f 61/61/61 62/62/62 56/56/56
f 63/63/63 64/64/64 15/15/15
f 15/15/15 64/64/64 17/17/17
f 63/63/63 65/65/65 39/40/40
f 63/63/63 15/15/15 65/65/65
f 23/23/23 65/65/65 15/15/15
f 50/49/49 66/66/66 48/50/50
f 50/49/49 67/67/67 66/66/66
f 67/67/67 68/68/68 66/66/66
f 66/66/66 68/68/68 69/69/69
f 71/70/70 72/71/71 70/72/72
f 74/73/73 72/71/71 73/74/74
f 14/13/13 74/73/73 75/75/75
f 76/76/76 50/49/49 49/48/48
f 77/77/77 55/55/55 43/43/43
f 45/45/45 77/77/77 43/43/43
f 78/78/78 79/79/79 69/69/69
f 81/80/80 82/81/81 80/82/82
f 76/76/76 81/80/80 80/82/82
f 84/83/83 25/24/24 83/84/84
f 80/82/82 84/83/83 83/84/84
f 68/68/68 85/85/85 69/69/69
f 79/79/79 87/86/86 86/87/87
f 66/66/66 86/87/87 48/50/50
f 86/87/87 66/66/66 69/69/69
f 70/72/72 88/88/88 71/70/70
f 71/70/70 88/88/88 73/74/74
f 89/89/89 73/74/74 88/88/88
f 73/74/74 90/90/90 75/75/75
f 73/74/74 89/89/89 90/90/90
f 89/89/89 91/91/91 90/90/90
f 35/35/35 42/42/42 28/27/27
f 33/32/32 28/27/27 42/42/42
f 93/92/92 57/57/57 92/93/93
f 20/19/19 92/93/93 57/57/57
f 57/57/57 18/20/20 20/19/19
f 28/27/27 26/25/25 35/35/35
f 27/28/28 24/26/26 26/25/25
f 94/94/94 29/31/31 31/30/30
f 30/29/29 32/33/33 33/32/32
f 32/33/33 27/28/28 28/27/27
f 95/95/95 94/94/94 31/30/30
f 39/40/40 95/95/95 31/30/30
f 26/25/25 25/24/24 36/36/36
f 36/36/36 35/35/35 26/25/25
f 20/19/19 19/18/18 36/36/36
f 96/96/96 36/36/36 25/24/24
f 92/93/93 20/19/19 96/96/96
f 36/36/36 96/96/96 20/19/19
f 98/97/97 99/98/98 97/99/99
f 42/42/42 41/41/41 33/32/32
f 40/39/39 41/41/41 98/97/97
f 31/30/30 30/29/29 40/39/39
f 41/41/41 46/46/46 98/97/97
f 98/97/97 46/46/46 99/98/98
f 95/95/95 100/100/100 94/94/94
f 98/97/97 97/99/99 101/101/101
f 40/39/39 102/102/102 47/47/47
f 98/97/97 102/102/102 40/39/39
f 102/102/102 98/97/97 101/101/101
f 42/42/42 35/35/35 103/103/103
f 44/44/44 42/42/42 103/103/103
f 19/18/18 103/103/103 35/35/35
f 103/103/103 19/18/18 7/6/6
f 53/52/52 103/103/103 7/6/6
f 53/52/52 44/44/44 103/103/103
f 57/57/57 93/92/92 14/13/13
f 14/13/13 13/12/12 57/57/57
f 104/104/104 29/31/31 94/94/94
f 47/47/47 102/102/102 64/64/64
f 63/63/63 47/47/47 64/64/64
f 63/63/63 39/40/40 47/47/47
f 102/102/102 105/105/105 64/64/64
f 74/73/73 14/13/13 93/92/92
f 78/78/78 70/72/72 72/71/71
f 71/70/70 73/74/74 72/71/71
f 73/74/74 75/75/75 74/73/73
f 75/75/75 12/14/14 14/13/13
f 102/102/102 106/106/106 105/105/105
f 102/102/102 101/101/101 106/106/106
f 93/92/92 107/107/107 74/73/73
f 72/71/71 74/73/73 107/107/107
f 72/71/71 107/107/107 78/78/78
f 79/79/79 78/78/78 107/107/107
f 92/93/93 108/108/108 93/92/92
f 107/107/107 93/92/92 108/108/108
f 107/107/107 108/108/108 79/79/79
f 87/86/86 79/79/79 108/108/108
f 87/86/86 108/108/108 81/80/80
f 48/50/50 87/86/86 81/80/80
f 76/76/76 49/48/48 81/80/80
f 49/48/48 48/50/50 81/80/80
f 82/81/81 81/80/80 108/108/108
f 96/96/96 82/81/81 92/93/93
f 108/108/108 92/93/93 82/81/81
f 25/24/24 84/83/83 96/96/96
f 82/81/81 96/96/96 84/83/83
f 84/83/83 80/82/82 82/81/81
f 24/26/26 83/84/84 25/24/24
f 85/85/85 70/72/72 78/78/78
f 69/69/69 85/85/85 78/78/78
f 86/87/87 69/69/69 79/79/79
f 48/50/50 86/87/87 87/86/86
