# Blender v3.6.5 OBJ File: ''
# www.blender.org
mtllib sit_test.008.mtl
o sit_test.008_sit_test.041
v -0.073501 2.023078 0.611679
v -0.069886 2.039094 0.606960
v -0.054142 2.030756 0.608057
v -0.080771 2.036875 0.609021
v -0.046771 2.097678 0.603043
v -0.055885 2.077153 0.601072
v -0.062452 2.079970 0.600260
v -0.037359 2.078485 0.603816
v -0.051265 2.073178 0.602036
v -0.040472 2.050746 0.605931
v -0.050221 2.068791 0.602986
v -0.052087 2.059179 0.604403
v -0.131294 2.053931 0.634296
v -0.118472 2.051923 0.622899
v -0.121673 2.039634 0.629231
v -0.123206 2.059656 0.625008
v -0.061203 2.044158 0.605651
v -0.067980 2.108495 0.604757
v -0.072250 2.082597 0.599824
v -0.086166 2.084133 0.601685
v -0.056010 2.050644 0.605046
v -0.096275 2.114082 0.610146
v -0.097940 2.084703 0.604227
v -0.108178 2.084818 0.608711
v -0.124772 2.102650 0.623881
v -0.135659 2.086159 0.634469
v -0.129052 2.084772 0.622340
v -0.128847 2.079490 0.624089
v -0.126887 2.069175 0.625550
v -0.135334 2.070045 0.637023
v -0.128030 2.074317 0.625064
v -0.108501 2.028476 0.623722
v -0.113611 2.045937 0.620571
v -0.107262 2.041726 0.617869
v -0.092560 2.022796 0.617635
v -0.072627 2.023728 0.621718
v -0.090015 2.022072 0.626599
v -0.048242 2.097196 0.614185
v -0.038542 2.077707 0.612630
v -0.045075 2.050581 0.614122
v -0.115219 2.040967 0.635927
v -0.123528 2.055008 0.639217
v -0.103861 2.028856 0.631239
v -0.056685 2.032553 0.617739
v -0.068984 2.106750 0.618210
v -0.091054 2.111518 0.624085
v -0.125390 2.085395 0.640869
v -0.115722 2.101330 0.635035
v -0.126755 2.069580 0.640651
v -0.084502 2.066942 0.622194
v -0.122849 2.084797 0.617863
v -0.116342 2.084863 0.613432
v -0.100074 2.038869 0.614962
v -0.091661 2.037167 0.612212
v 0.073504 2.023078 0.611679
v 0.069889 2.039094 0.606960
v 0.080774 2.036875 0.609021
v 0.054145 2.030756 0.608057
v 0.055888 2.077153 0.601072
v 0.046774 2.097678 0.603043
v 0.062455 2.079970 0.600260
v 0.037363 2.078485 0.603816
v 0.051269 2.073178 0.602036
v 0.040475 2.050746 0.605931
v 0.050225 2.068791 0.602986
v 0.052090 2.059179 0.604403
v 0.131298 2.053931 0.634296
v 0.118475 2.051922 0.622899
v 0.123209 2.059655 0.625008
v 0.121676 2.039634 0.629231
v 0.061206 2.044158 0.605651
v 0.067984 2.108495 0.604757
v 0.072253 2.082597 0.599824
v 0.086169 2.084133 0.601685
v 0.056013 2.050644 0.605046
v 0.096278 2.114082 0.610146
v 0.097943 2.084702 0.604227
v 0.108182 2.084817 0.608711
v 0.124775 2.102649 0.623881
v 0.129055 2.084771 0.622340
v 0.135663 2.086158 0.634469
v 0.128851 2.079489 0.624089
v 0.126890 2.069175 0.625550
v 0.128034 2.074316 0.625064
v 0.135338 2.070045 0.637023
v 0.113614 2.045937 0.620571
v 0.108504 2.028476 0.623722
v 0.107266 2.041725 0.617869
v 0.092563 2.022796 0.617635
v 0.072630 2.023728 0.621718
v 0.090018 2.022072 0.626599
v 0.038545 2.077707 0.612630
v 0.048245 2.097196 0.614185
v 0.045078 2.050581 0.614122
v 0.123531 2.055008 0.639217
v 0.115222 2.040967 0.635927
v 0.103864 2.028855 0.631239
v 0.056688 2.032553 0.617739
v 0.068987 2.106750 0.618210
v 0.091058 2.111518 0.624085
v 0.125394 2.085395 0.640869
v 0.115726 2.101329 0.635035
v 0.126758 2.069580 0.640651
v 0.084505 2.066942 0.622194
v 0.122853 2.084796 0.617863
v 0.116346 2.084863 0.613432
v 0.100078 2.038869 0.614962
v 0.091664 2.037167 0.612212
vt 0.383980 0.471873
vt 0.365035 0.463699
vt 0.359959 0.476981
vt 0.349107 0.465411
vt 0.372340 0.426484
vt 0.380593 0.430327
vt 0.392580 0.423158
vt 0.406417 0.438018
vt 0.387968 0.435509
vt 0.393333 0.441765
vt 0.402995 0.457654
vt 0.389724 0.449457
vt 0.301848 0.463819
vt 0.302093 0.454453
vt 0.290040 0.453604
vt 0.296572 0.449922
vt 0.377101 0.460095
vt 0.367149 0.415067
vt 0.361834 0.424593
vt 0.344912 0.424133
vt 0.383694 0.455535
vt 0.332955 0.411458
vt 0.328669 0.425877
vt 0.301298 0.421134
vt 0.315369 0.428984
vt 0.291013 0.439968
vt 0.292844 0.438000
vt 0.282765 0.431125
vt 0.293136 0.444790
vt 0.283698 0.442596
vt 0.291591 0.441764
vt 0.316052 0.460932
vt 0.308590 0.457963
vt 0.317833 0.471733
vt 0.336874 0.476206
vt 0.360622 0.475926
vt 0.339462 0.476744
vt 0.389991 0.424562
vt 0.402254 0.438446
vt 0.394325 0.457470
vt 0.310326 0.464373
vt 0.299564 0.454206
vt 0.323325 0.472063
vt 0.379997 0.470034
vt 0.364977 0.417484
vt 0.338285 0.413738
vt 0.295953 0.431444
vt 0.308181 0.420435
vt 0.294386 0.443363
vt 0.346253 0.445221
vt 0.298138 0.434680
vt 0.306133 0.431529
vt 0.322058 0.462485
vt 0.334123 0.464866
vt 0.650893 0.465411
vt 0.634965 0.463699
vt 0.640041 0.476981
vt 0.616020 0.471873
vt 0.627660 0.426484
vt 0.607420 0.423158
vt 0.619407 0.430327
vt 0.593583 0.438018
vt 0.612032 0.435509
vt 0.610276 0.449457
vt 0.606667 0.441765
vt 0.597005 0.457654
vt 0.703428 0.449922
vt 0.697907 0.454453
vt 0.709960 0.453604
vt 0.698152 0.463819
vt 0.622899 0.460095
vt 0.638166 0.424593
vt 0.632851 0.415067
vt 0.655088 0.424133
vt 0.616306 0.455535
vt 0.667045 0.411458
vt 0.671331 0.425877
vt 0.684631 0.428984
vt 0.698702 0.421134
vt 0.708987 0.439968
vt 0.717235 0.431125
vt 0.707156 0.438000
vt 0.706864 0.444790
vt 0.708409 0.441764
vt 0.716302 0.442596
vt 0.691410 0.457963
vt 0.683948 0.460932
vt 0.682167 0.471733
vt 0.663127 0.476206
vt 0.639378 0.475926
vt 0.660538 0.476744
vt 0.597746 0.438446
vt 0.610008 0.424562
vt 0.605675 0.457470
vt 0.700436 0.454206
vt 0.689674 0.464373
vt 0.676675 0.472063
vt 0.620003 0.470034
vt 0.635023 0.417484
vt 0.661715 0.413738
vt 0.704047 0.431444
vt 0.691819 0.420435
vt 0.705614 0.443363
vt 0.653747 0.445221
vt 0.701862 0.434680
vt 0.693867 0.431529
vt 0.677942 0.462485
vt 0.665877 0.464866
vn -0.5576 0.6959 0.4524
vn 0.0491 0.3402 0.9391
vn -0.0384 0.7816 0.6226
vn 0.1916 0.3916 0.9000
vn -0.0541 -0.1818 0.9818
vn -0.1688 -0.0690 0.9832
vn -0.5042 -0.5697 0.6491
vn -0.5041 -0.5697 0.6491
vn -0.8815 -0.1088 0.4596
vn -0.1795 -0.0151 0.9836
vn -0.8814 -0.1088 0.4596
vn -0.1561 0.1140 0.9811
vn -0.8734 0.3321 0.3563
vn -0.1795 -0.0150 0.9837
vn -0.1561 0.1139 0.9811
vn -0.1624 0.1283 0.9784
vn -0.8734 0.3320 0.3563
vn 0.7848 0.6145 0.0808
vn 0.7153 0.2500 0.6525
vn 0.9276 0.3727 0.0252
vn 0.7153 0.2500 0.6526
vn 0.7512 0.1635 0.6395
vn -0.0969 0.2244 0.9697
vn -0.5576 0.6960 0.4524
vn -0.1342 -0.6911 0.7101
vn 0.0038 -0.2279 0.9737
vn -0.1342 -0.6912 0.7101
vn 0.1448 -0.2543 0.9562
vn 0.0038 -0.2278 0.9737
vn -0.1227 0.1765 0.9766
vn -0.5577 0.6959 0.4524
vn 0.2946 -0.7222 0.6258
vn 0.3331 -0.2586 0.9067
vn 0.2955 -0.7219 0.6258
vn 0.6457 -0.7134 0.2724
vn 0.5302 -0.2647 0.8055
vn 0.3330 -0.2586 0.9068
vn 0.2954 -0.7219 0.6258
vn 0.8132 0.0081 0.5819
vn 0.6914 -0.1833 0.6988
vn 0.8729 -0.4199 -0.2486
vn 0.8729 -0.4198 -0.2486
vn 0.6914 -0.1832 0.6988
vn 0.6456 -0.7134 0.2725
vn 0.7773 0.1046 0.6204
vn 0.9276 0.3726 0.0252
vn 0.9725 0.1053 -0.2077
vn 0.7780 0.1031 0.6197
vn 0.7773 0.1045 0.6204
vn 0.9717 0.1106 -0.2087
vn 0.9725 0.1052 -0.2077
vn 0.5576 0.4162 0.7182
vn 0.6081 0.3753 0.6996
vn 0.5803 0.7457 0.3273
vn 0.6081 0.3754 0.6995
vn 0.7847 0.6145 0.0808
vn 0.1915 0.3916 0.9000
vn 0.3019 0.7631 0.5714
vn 0.3020 0.7631 0.5714
vn -0.3123 0.3986 -0.8623
vn 0.3020 0.7631 0.5715
vn -0.2039 0.4232 -0.8828
vn -0.4633 -0.3821 -0.7996
vn -0.5488 -0.0607 -0.8337
vn -0.5041 -0.5697 0.6490
vn -0.4932 0.1095 -0.8630
vn -0.5489 -0.0606 -0.8337
vn -0.1244 0.2500 -0.9602
vn -0.1090 0.1557 -0.9818
vn 0.3019 0.7631 0.5715
vn -0.1364 0.3583 -0.9236
vn -0.1365 0.3583 -0.9236
vn -0.1245 0.2500 -0.9602
vn -0.4394 0.2750 -0.8552
vn -0.4394 0.2751 -0.8552
vn -0.0385 0.7816 0.6226
vn -0.4394 0.2751 -0.8551
vn -0.3399 -0.5188 -0.7844
vn -0.1951 -0.6034 -0.7732
vn 0.6456 -0.7135 0.2724
vn -0.0720 -0.2264 -0.9714
vn -0.0720 -0.2265 -0.9714
vn -0.0748 -0.5065 -0.8590
vn 0.6456 -0.7134 0.2724
vn -0.0721 -0.2265 -0.9713
vn 0.2955 -0.7218 0.6258
vn -0.1158 0.0508 -0.9920
vn 0.9725 0.1054 -0.2077
vn -0.1159 0.0508 -0.9920
vn -0.2968 -0.0227 -0.9547
vn -0.3137 0.3982 -0.8620
vn -0.4633 -0.3820 -0.7996
vn -0.5489 -0.0607 -0.8337
vn 0.6721 -0.2453 0.6987
vn 0.5637 -0.3932 0.7264
vn 0.5302 -0.2647 0.8054
vn 0.4233 0.4436 0.7900
vn 0.3344 0.4229 0.8422
vn 0.3345 0.4229 0.8422
vn -0.1916 0.3916 0.9000
vn -0.0491 0.3402 0.9391
vn 0.0384 0.7816 0.6226
vn 0.5576 0.6959 0.4524
vn 0.0541 -0.1818 0.9818
vn 0.5041 -0.5697 0.6491
vn 0.1688 -0.0690 0.9832
vn 0.8814 -0.1088 0.4596
vn 0.1795 -0.0150 0.9837
vn 0.1624 0.1283 0.9784
vn 0.1561 0.1140 0.9812
vn 0.8734 0.3320 0.3563
vn 0.1561 0.1140 0.9811
vn 0.8815 -0.1088 0.4596
vn 0.8734 0.3321 0.3563
vn 0.1794 -0.0150 0.9837
vn -0.7513 0.1634 0.6394
vn -0.7153 0.2500 0.6525
vn -0.9276 0.3727 0.0252
vn -0.7848 0.6145 0.0808
vn 0.0969 0.2244 0.9697
vn 0.5576 0.6960 0.4524
vn -0.0490 0.3402 0.9391
vn -0.0038 -0.2279 0.9737
vn 0.1342 -0.6912 0.7101
vn -0.1448 -0.2543 0.9562
vn -0.0038 -0.2278 0.9737
vn 0.5042 -0.5697 0.6490
vn 0.1227 0.1765 0.9766
vn 0.1226 0.1765 0.9766
vn 0.5577 0.6959 0.4524
vn -0.2955 -0.7219 0.6258
vn -0.3331 -0.2586 0.9067
vn -0.2955 -0.7218 0.6258
vn -0.1449 -0.2543 0.9562
vn -0.3330 -0.2586 0.9068
vn -0.5302 -0.2648 0.8055
vn -0.2906 -0.7220 0.6279
vn -0.5302 -0.2647 0.8055
vn -0.6456 -0.7134 0.2724
vn -0.8132 0.0081 0.5819
vn -0.8729 -0.4198 -0.2486
vn -0.6914 -0.1832 0.6988
vn -0.6914 -0.1832 0.6989
vn -0.6456 -0.7134 0.2725
vn -0.7773 0.1045 0.6204
vn -0.7780 0.1031 0.6197
vn -0.9725 0.1053 -0.2077
vn -0.7773 0.1046 0.6204
vn -0.9725 0.1052 -0.2077
vn -0.8729 -0.4199 -0.2486
vn -0.6081 0.3754 0.6995
vn -0.7847 0.6145 0.0808
vn -0.5576 0.4162 0.7182
vn -0.5803 0.7457 0.3274
vn -0.6080 0.3754 0.6996
vn -0.5803 0.7457 0.3273
vn -0.1915 0.3916 0.9000
vn -0.3019 0.7631 0.5715
vn 0.3123 0.3986 -0.8623
vn -0.3020 0.7631 0.5714
vn 0.3123 0.3985 -0.8623
vn 0.2039 0.4231 -0.8828
vn -0.3020 0.7631 0.5715
vn 0.5041 -0.5697 0.6490
vn 0.5488 -0.0606 -0.8337
vn 0.5488 -0.0607 -0.8337
vn 0.1343 -0.6911 0.7102
vn 0.4633 -0.3821 -0.7996
vn 0.5489 -0.0606 -0.8337
vn 0.4932 0.1095 -0.8630
vn -0.7848 0.6145 0.0807
vn 0.1090 0.1557 -0.9818
vn 0.1244 0.2500 -0.9602
vn -0.7847 0.6146 0.0808
vn 0.2038 0.4232 -0.8828
vn 0.1364 0.3583 -0.9236
vn 0.1245 0.2500 -0.9602
vn -0.3019 0.7631 0.5714
vn 0.4394 0.2750 -0.8551
vn 0.0385 0.7816 0.6226
vn 0.4394 0.2751 -0.8552
vn 0.3399 -0.5188 -0.7844
vn 0.1342 -0.6911 0.7101
vn 0.1951 -0.6034 -0.7732
vn 0.0720 -0.2264 -0.9714
vn 0.0748 -0.5065 -0.8590
vn 0.1158 0.0508 -0.9920
vn 0.2968 -0.0227 -0.9547
vn 0.4394 0.2751 -0.8551
vn 0.2967 -0.0227 -0.9547
vn 0.2039 0.4232 -0.8828
vn 0.5489 -0.0607 -0.8337
vn 0.0749 -0.5065 -0.8590
vn -0.6721 -0.2453 0.6987
vn -0.5637 -0.3931 0.7264
vn -0.5637 -0.3932 0.7264
vn -0.4233 0.4436 0.7900
vn -0.4233 0.4436 0.7899
vn -0.3344 0.4229 0.8422
usemtl m7.004
s off
f 3/1/1 2/2/2 1/3/3
f 2/2/2 4/4/4 1/3/3
f 7/5/5 6/6/6 5/7/7
f 5/7/8 6/6/6 8/8/9
f 6/6/6 9/9/10 8/8/11
f 8/8/9 11/10/12 10/11/13
f 9/9/14 11/10/12 8/8/11
f 11/10/15 12/12/16 10/11/17
f 15/13/18 14/14/19 13/15/20
f 14/14/21 16/16/22 13/15/20
f 17/17/23 2/2/2 3/1/24
f 7/5/5 5/7/7 18/18/25
f 19/19/26 7/5/5 18/18/27
f 20/20/28 19/19/29 18/18/27
f 21/21/30 17/17/23 3/1/31
f 10/11/13 21/21/30 3/1/24
f 12/12/16 21/21/30 10/11/17
f 20/20/28 18/18/27 22/22/32
f 23/23/33 20/20/28 22/22/34
f 25/24/35 24/25/36 22/22/34
f 24/25/36 23/23/37 22/22/38
f 28/26/39 27/27/40 26/28/41
f 26/28/42 27/27/43 25/24/44
f 16/16/22 29/29/45 13/15/46
f 29/29/45 30/30/47 13/15/20
f 26/28/42 31/31/48 28/26/39
f 29/29/49 31/31/48 30/30/50
f 31/31/48 26/28/41 30/30/51
f 34/32/52 33/33/53 32/34/54
f 33/33/55 15/13/56 32/34/54
f 33/33/55 14/14/19 15/13/56
f 1/3/3 4/4/57 35/35/58
f 1/3/3 35/35/59 36/36/60
f 35/35/61 37/37/62 36/36/60
f 18/18/27 5/7/8 38/38/63
f 8/8/9 10/11/13 39/39/64
f 38/38/63 5/7/7 39/39/64
f 5/7/65 8/8/11 39/39/64
f 10/11/17 40/40/66 39/39/67
f 10/11/17 3/1/31 40/40/66
f 32/34/54 15/13/56 41/41/68
f 15/13/18 13/15/20 42/42/69
f 41/41/68 15/13/56 42/42/69
f 35/35/70 32/34/54 43/43/71
f 37/37/62 35/35/70 43/43/72
f 43/43/71 32/34/54 41/41/73
f 3/1/24 44/44/74 40/40/66
f 1/3/3 36/36/60 44/44/75
f 3/1/24 1/3/76 44/44/77
f 45/45/78 18/18/27 38/38/63
f 22/22/34 18/18/25 45/45/78
f 46/46/79 22/22/34 45/45/78
f 26/28/42 25/24/80 47/47/81
f 30/30/51 26/28/42 47/47/82
f 22/22/34 46/46/79 48/48/83
f 25/24/84 48/48/83 47/47/85
f 25/24/84 22/22/86 48/48/83
f 49/49/87 30/30/47 47/47/81
f 42/42/69 13/15/20 49/49/87
f 13/15/20 30/30/88 49/49/89
f 47/47/81 48/48/83 50/50/90
f 44/44/77 36/36/91 50/50/90
f 36/36/60 37/37/62 50/50/90
f 38/38/92 39/39/93 50/50/90
f 39/39/93 40/40/66 50/50/90
f 41/41/68 42/42/69 50/50/90
f 37/37/62 43/43/71 50/50/90
f 40/40/66 44/44/75 50/50/90
f 46/46/79 45/45/78 50/50/90
f 48/48/83 46/46/79 50/50/90
f 49/49/87 47/47/81 50/50/90
f 45/45/78 38/38/63 50/50/90
f 43/43/71 41/41/68 50/50/90
f 42/42/69 49/49/87 50/50/90
f 27/27/43 51/51/94 25/24/84
f 51/51/94 52/52/95 25/24/84
f 52/52/95 24/25/96 25/24/84
f 32/34/54 53/53/97 34/32/52
f 53/53/97 32/34/54 35/35/70
f 4/4/4 54/54/98 35/35/70
f 54/54/99 53/53/97 35/35/58
f 57/55/100 56/56/101 55/57/102
f 56/56/101 58/58/103 55/57/102
f 61/59/104 60/60/105 59/61/106
f 59/61/106 60/60/105 62/62/107
f 63/63/108 59/61/106 62/62/107
f 66/64/109 65/65/110 64/66/111
f 65/65/112 62/62/113 64/66/114
f 63/63/115 62/62/107 65/65/112
f 69/67/116 68/68/117 67/69/118
f 68/68/117 70/70/119 67/69/118
f 71/71/120 58/58/121 56/56/122
f 73/72/123 72/73/124 61/59/104
f 74/74/125 72/73/124 73/72/126
f 72/73/124 60/60/127 61/59/104
f 66/64/109 64/66/111 75/75/128
f 71/71/120 75/75/129 58/58/130
f 75/75/128 64/66/111 58/58/121
f 76/76/131 72/73/124 74/74/125
f 77/77/132 76/76/133 74/74/134
f 77/77/135 78/78/136 76/76/137
f 78/78/138 79/79/139 76/76/131
f 82/80/140 81/81/141 80/82/142
f 80/82/143 81/81/141 79/79/144
f 69/67/116 67/69/118 83/83/145
f 81/81/141 82/80/140 84/84/146
f 67/69/118 85/85/147 83/83/148
f 83/83/148 85/85/149 84/84/146
f 85/85/149 81/81/150 84/84/146
f 86/86/151 70/70/152 68/68/117
f 88/87/153 87/88/154 86/86/155
f 87/88/156 70/70/152 86/86/151
f 57/55/157 55/57/102 89/89/158
f 55/57/102 90/90/159 89/89/160
f 90/90/161 91/91/162 89/89/163
f 62/62/107 60/60/164 92/92/165
f 62/62/113 92/92/166 64/66/114
f 60/60/164 72/73/167 93/93/168
f 60/60/127 93/93/168 92/92/169
f 64/66/114 94/94/170 58/58/121
f 92/92/169 94/94/170 64/66/111
f 67/69/118 70/70/171 95/95/172
f 70/70/152 96/96/173 95/95/172
f 70/70/174 87/88/156 96/96/173
f 89/89/158 91/91/175 97/97/176
f 87/88/154 97/97/176 96/96/177
f 87/88/156 89/89/178 97/97/176
f 94/94/170 98/98/179 58/58/103
f 58/58/121 98/98/179 55/57/180
f 98/98/181 90/90/159 55/57/102
f 72/73/124 76/76/131 99/99/182
f 72/73/183 99/99/182 93/93/168
f 76/76/131 100/100/184 99/99/182
f 81/81/150 85/85/149 101/101/185
f 81/81/150 101/101/185 79/79/139
f 101/101/185 102/102/186 79/79/139
f 79/79/139 102/102/186 76/76/133
f 102/102/186 100/100/184 76/76/131
f 85/85/149 103/103/187 101/101/185
f 85/85/149 67/69/118 103/103/187
f 67/69/118 95/95/172 103/103/187
f 95/95/172 104/104/188 103/103/187
f 99/99/182 104/104/188 93/93/168
f 97/97/176 104/104/188 96/96/173
f 98/98/189 104/104/190 90/90/159
f 90/90/159 104/104/188 91/91/191
f 93/93/168 104/104/190 92/92/192
f 103/103/187 104/104/188 101/101/185
f 92/92/192 104/104/188 94/94/170
f 96/96/173 104/104/190 95/95/172
f 91/91/175 104/104/190 97/97/176
f 94/94/170 104/104/188 98/98/179
f 100/100/184 104/104/188 99/99/182
f 102/102/193 104/104/188 100/100/184
f 101/101/185 104/104/190 102/102/186
f 105/105/194 80/82/143 79/79/139
f 106/106/195 79/79/139 78/78/138
f 105/105/194 79/79/139 106/106/196
f 89/89/163 87/88/156 107/107/197
f 87/88/156 88/87/153 107/107/198
f 108/108/199 89/89/178 107/107/197
f 108/108/199 57/55/157 89/89/158
