# Blender v3.6.5 OBJ File: ''
# www.blender.org
mtllib sit_test.019.mtl
o sit_test.019_sit_test.052
v -0.373797 0.919118 0.551210
v -0.366744 0.934075 0.537726
v -0.382311 0.939198 0.546563
v -0.355997 0.932452 0.552843
v -0.366744 0.934075 0.537726
v -0.373797 0.919118 0.551210
v -0.366744 0.934075 0.537726
v -0.364511 0.952531 0.548196
v -0.382311 0.939198 0.546563
v -0.355997 0.932452 0.552843
v -0.364511 0.952531 0.548196
v -0.366744 0.934075 0.537726
v -0.371564 0.937575 0.561679
v -0.373797 0.919118 0.551210
v -0.382311 0.939198 0.546563
v -0.371564 0.937575 0.561679
v -0.355997 0.932452 0.552843
v -0.373797 0.919118 0.551210
v -0.364511 0.952531 0.548196
v -0.371564 0.937575 0.561679
v -0.382311 0.939198 0.546563
v -0.364511 0.952531 0.548196
v -0.355997 0.932452 0.552843
v -0.371564 0.937575 0.561679
v -0.380707 0.904951 0.564942
v -0.371530 0.902256 0.563359
v -0.407313 0.819003 0.584094
v -0.389735 0.813849 0.581063
v -0.422116 0.822149 0.573334
v -0.388435 0.906589 0.559324
v -0.425473 0.821438 0.555085
v -0.390188 0.906219 0.549797
v -0.384938 0.904050 0.541941
v -0.390188 0.906219 0.549797
v -0.415417 0.817284 0.540037
v -0.425473 0.821438 0.555085
v -0.397839 0.812125 0.537006
v -0.375760 0.901358 0.540358
v -0.383036 0.808985 0.547766
v -0.368032 0.899720 0.545975
v -0.379679 0.809698 0.566015
v -0.366281 0.900089 0.555503
v -0.366281 0.900089 0.555503
v -0.379679 0.809698 0.566015
v -0.376829 0.914806 0.559283
v -0.382679 0.915590 0.549938
v -0.382679 0.915590 0.549938
v -0.373778 0.912590 0.544113
v -0.367927 0.911807 0.553459
v -0.383036 0.808985 0.547766
v -0.397839 0.812125 0.537006
v -0.415417 0.817284 0.540037
v -0.374233 0.917550 0.551351
v -0.374233 0.917550 0.551351
v -0.367927 0.911807 0.553459
v -0.422116 0.822149 0.573334
v -0.407313 0.819003 0.584094
v -0.389735 0.813849 0.581063
v -0.383036 0.808985 0.547766
v -0.415417 0.817284 0.540037
v -0.379679 0.809698 0.566015
v -0.425473 0.821438 0.555085
v -0.425473 0.821438 0.555085
v -0.422116 0.822149 0.573334
v -0.379679 0.809698 0.566015
v -0.389735 0.813849 0.581063
v -0.265393 0.849343 0.477927
v -0.259806 0.864605 0.464104
v -0.275649 0.868536 0.473059
v -0.248783 0.864175 0.479102
v -0.259806 0.864605 0.464104
v -0.265393 0.849343 0.477927
v -0.259806 0.864605 0.464104
v -0.259039 0.883368 0.474234
v -0.275649 0.868536 0.473059
v -0.248783 0.864175 0.479102
v -0.259039 0.883368 0.474234
v -0.259806 0.864605 0.464104
v -0.264626 0.868105 0.488057
v -0.265393 0.849343 0.477927
v -0.275649 0.868536 0.473059
v -0.264626 0.868105 0.488057
v -0.248783 0.864175 0.479102
v -0.265393 0.849343 0.477927
v -0.259039 0.883368 0.474234
v -0.264626 0.868105 0.488057
v -0.275649 0.868536 0.473059
v -0.259039 0.883368 0.474234
v -0.248783 0.864175 0.479102
v -0.264626 0.868105 0.488057
v -0.270621 0.835576 0.491235
v -0.261770 0.833753 0.489666
v -0.288211 0.753969 0.510549
v -0.271527 0.750536 0.507591
v -0.302311 0.755533 0.500667
v -0.278101 0.836403 0.485992
v -0.305567 0.754300 0.483731
v -0.279828 0.835751 0.477008
v -0.274792 0.834001 0.469546
v -0.279828 0.835751 0.477008
v -0.296073 0.751003 0.469665
v -0.305567 0.754300 0.483731
v -0.279389 0.747563 0.466706
v -0.265941 0.832178 0.467976
v -0.265289 0.746006 0.476588
v -0.258461 0.831351 0.473219
v -0.262032 0.747233 0.493523
v -0.256733 0.832002 0.482203
v -0.256733 0.832002 0.482203
v -0.262032 0.747233 0.493523
v -0.267828 0.845081 0.485679
v -0.273510 0.845193 0.476901
v -0.273510 0.845193 0.476901
v -0.264940 0.842989 0.471327
v -0.259258 0.842877 0.480106
v -0.265289 0.746006 0.476588
v -0.279389 0.747563 0.466706
v -0.296073 0.751003 0.469665
v -0.265691 0.847745 0.478100
v -0.265691 0.847745 0.478100
v -0.259258 0.842877 0.480106
v -0.302311 0.755533 0.500667
v -0.288211 0.753969 0.510549
v -0.271527 0.750536 0.507591
v -0.265289 0.746006 0.476588
v -0.296073 0.751003 0.469665
v -0.262032 0.747233 0.493523
v -0.305567 0.754300 0.483731
v -0.305567 0.754300 0.483731
v -0.302311 0.755533 0.500667
v -0.262032 0.747233 0.493523
v -0.271527 0.750536 0.507591
vt 0.172926 0.253435
vt 0.172926 0.265432
vt 0.159177 0.265432
vt 0.159177 0.265432
vt 0.172926 0.265432
vt 0.172926 0.277430
vt 0.172926 0.253435
vt 0.186675 0.265432
vt 0.172926 0.265432
vt 0.172926 0.265432
vt 0.186675 0.265432
vt 0.172926 0.277430
vt 0.067783 0.408532
vt 0.055786 0.422281
vt 0.055786 0.408532
vt 0.055786 0.422281
vt 0.043789 0.408532
vt 0.055786 0.408532
vt 0.067783 0.408532
vt 0.055786 0.408532
vt 0.055786 0.394783
vt 0.055786 0.408532
vt 0.043789 0.408532
vt 0.055786 0.394783
vt 0.320012 0.704542
vt 0.315699 0.666349
vt 0.320012 0.666667
vt 0.312442 0.704199
vt 0.327595 0.704214
vt 0.324315 0.666334
vt 0.335107 0.703234
vt 0.328556 0.665467
vt 0.199622 0.755730
vt 0.200632 0.717026
vt 0.196364 0.717881
vt 0.207104 0.754747
vt 0.192052 0.756073
vt 0.192052 0.718198
vt 0.184469 0.755745
vt 0.187748 0.717865
vt 0.176956 0.754765
vt 0.183507 0.716998
vt 0.311431 0.665495
vt 0.304959 0.703216
vt 0.320011 0.661740
vt 0.324743 0.659937
vt 0.196796 0.711480
vt 0.192052 0.713271
vt 0.315268 0.659949
vt 0.075485 0.433914
vt 0.072422 0.426520
vt 0.075484 0.419126
vt 0.320011 0.658198
vt 0.192052 0.709729
vt 0.187320 0.711469
vt 0.075484 0.419126
vt 0.072422 0.426520
vt 0.075485 0.433914
vt 0.082878 0.416063
vt 0.075485 0.433914
vt 0.075484 0.419126
vt 0.082878 0.436977
vt 0.082878 0.416063
vt 0.075485 0.433914
vt 0.082878 0.436977
vt 0.075484 0.419126
vt 0.172926 0.253435
vt 0.172926 0.265432
vt 0.159177 0.265432
vt 0.159177 0.265432
vt 0.172926 0.265432
vt 0.172926 0.277430
vt 0.172926 0.253435
vt 0.186675 0.265432
vt 0.172926 0.265432
vt 0.172926 0.265432
vt 0.186675 0.265432
vt 0.172926 0.277430
vt 0.067783 0.408532
vt 0.055786 0.422281
vt 0.055786 0.408532
vt 0.055786 0.422281
vt 0.043789 0.408532
vt 0.055786 0.408532
vt 0.067783 0.408532
vt 0.055786 0.408532
vt 0.055786 0.394783
vt 0.055786 0.408532
vt 0.043789 0.408532
vt 0.055786 0.394783
vt 0.320012 0.704542
vt 0.315699 0.666349
vt 0.320012 0.666667
vt 0.312442 0.704199
vt 0.327595 0.704214
vt 0.324315 0.666334
vt 0.335107 0.703234
vt 0.328556 0.665467
vt 0.199622 0.755730
vt 0.200632 0.717026
vt 0.196364 0.717881
vt 0.207104 0.754747
vt 0.192052 0.756073
vt 0.192052 0.718198
vt 0.184469 0.755745
vt 0.187748 0.717865
vt 0.176956 0.754765
vt 0.183507 0.716998
vt 0.311431 0.665495
vt 0.304959 0.703216
vt 0.320011 0.661740
vt 0.324743 0.659937
vt 0.196796 0.711480
vt 0.192052 0.713271
vt 0.315268 0.659949
vt 0.075485 0.433914
vt 0.072422 0.426520
vt 0.075484 0.419126
vt 0.320011 0.658198
vt 0.192052 0.709729
vt 0.187320 0.711469
vt 0.075484 0.419126
vt 0.072422 0.426520
vt 0.075485 0.433914
vt 0.082878 0.416063
vt 0.075485 0.433914
vt 0.075484 0.419126
vt 0.082878 0.436977
vt 0.082878 0.416063
vt 0.075485 0.433914
vt 0.082878 0.436977
vt 0.075484 0.419126
vn -0.5485 -0.4022 -0.7331
vn 0.5566 -0.6856 -0.4693
vn -0.2983 0.4980 -0.8142
vn 0.8068 0.2147 -0.5505
vn -0.8068 -0.2147 0.5505
vn 0.2983 -0.4980 0.8143
vn -0.5566 0.6856 0.4693
vn 0.5485 0.4022 0.7331
vn -0.1656 0.2438 0.9556
vn 0.5583 0.0488 0.8282
vn -0.1617 0.2565 0.9529
vn -0.1655 0.2438 0.9556
vn 0.5548 0.0323 0.8313
vn -0.7722 0.3726 0.5146
vn -0.7661 0.3884 0.5121
vn -0.9098 0.3434 -0.2333
vn -0.9098 0.3434 -0.2332
vn -0.7661 0.3883 0.5121
vn -0.9047 0.3559 -0.2340
vn -0.4976 0.1732 -0.8499
vn -0.9047 0.3560 -0.2340
vn -0.4921 0.1894 -0.8497
vn -0.4977 0.1733 -0.8499
vn 0.2227 -0.0382 -0.9741
vn -0.4977 0.1732 -0.8499
vn 0.2260 -0.0250 -0.9738
vn 0.8294 -0.1670 -0.5332
vn 0.8323 -0.1502 -0.5336
vn 0.9669 -0.1378 0.2147
vn 0.9691 -0.1245 0.2132
vn 0.9691 -0.1245 0.2131
vn 0.5548 0.0323 0.8314
vn 0.0313 0.7438 0.6676
vn 0.0314 0.7439 0.6676
vn -0.5280 0.8187 -0.2259
vn -0.9047 0.3559 -0.2341
vn -0.5279 0.8187 -0.2259
vn -0.5279 0.8187 -0.2258
vn 0.3232 0.5319 -0.7827
vn -0.4920 0.1894 -0.8497
vn 0.8825 0.4570 0.1108
vn 0.8825 0.4571 0.1108
vn -0.2667 -0.9598 0.0868
vn 0.2668 0.9599 -0.0866
vn 0.2668 0.9599 -0.0865
vn -0.2666 -0.9599 0.0862
vn -0.2667 -0.9599 0.0866
vn -0.2668 -0.9599 0.0867
vn -0.2667 -0.9599 0.0865
vn -0.5206 -0.4606 -0.7189
vn 0.6077 -0.6437 -0.4651
vn -0.3494 0.4561 -0.8184
vn 0.7789 0.2730 -0.5646
vn -0.7789 -0.2730 0.5646
vn 0.3494 -0.4562 0.8184
vn -0.6077 0.6437 0.4651
vn 0.5206 0.4606 0.7189
vn -0.1746 0.2456 0.9535
vn 0.5618 0.1110 0.8198
vn -0.1719 0.2586 0.9506
vn 0.5617 0.1110 0.8198
vn -0.1746 0.2457 0.9535
vn 0.5597 0.0944 0.8233
vn -0.1718 0.2587 0.9506
vn -0.7952 0.3143 0.5185
vn -0.7905 0.3305 0.5157
vn -0.9385 0.2602 -0.2269
vn -0.9346 0.2731 -0.2280
vn -0.5206 0.1149 -0.8460
vn -0.9346 0.2731 -0.2279
vn -0.5165 0.1315 -0.8461
vn -0.9346 0.2732 -0.2279
vn -0.5206 0.1150 -0.8460
vn -0.9385 0.2602 -0.2268
vn -0.5165 0.1316 -0.8461
vn 0.2137 -0.0363 -0.9762
vn 0.2158 -0.0229 -0.9762
vn 0.8343 -0.1050 -0.5413
vn 0.8343 -0.1050 -0.5412
vn 0.8358 -0.0879 -0.5420
vn 0.9776 -0.0508 0.2041
vn 0.9786 -0.0374 0.2024
vn -0.0247 0.7555 0.6546
vn -0.1718 0.2586 0.9506
vn -0.0246 0.7555 0.6546
vn -0.5988 0.7664 -0.2324
vn -0.0246 0.7556 0.6546
vn -0.5988 0.7664 -0.2325
vn -0.7905 0.3305 0.5156
vn -0.5988 0.7665 -0.2325
vn 0.2672 0.5436 -0.7957
vn -0.5165 0.1315 -0.8462
vn 0.8414 0.5327 0.0914
vn -0.0247 0.7555 0.6547
vn 0.8413 0.5327 0.0914
vn -0.1826 -0.9774 0.1066
vn 0.1825 0.9775 -0.1062
vn 0.1825 0.9775 -0.1061
vn -0.5987 0.7665 -0.2324
vn 0.8414 0.5327 0.0915
vn 0.2672 0.5437 -0.7956
vn 0.8358 -0.0880 -0.5420
vn -0.1825 -0.9775 0.1059
vn -0.1825 -0.9774 0.1062
vn -0.1825 -0.9775 0.1058
vn -0.1826 -0.9774 0.1063
vn -0.1824 -0.9775 0.1058
vn -0.1825 -0.9775 0.1060
vn -0.1824 -0.9775 0.1057
usemtl m18.004
s off
f 3/1/1 2/2/1 1/3/1
f 6/4/2 5/5/2 4/6/2
f 9/7/3 8/8/3 7/9/3
f 12/10/4 11/11/4 10/12/4
f 15/13/5 14/14/5 13/15/5
f 18/16/6 17/17/6 16/18/6
f 21/19/7 20/20/7 19/21/7
f 24/22/8 23/23/8 22/24/8
f 27/25/9 26/26/10 25/27/11
f 26/26/10 27/25/12 28/28/13
f 25/27/11 29/29/14 27/25/9
f 29/29/14 25/27/11 30/30/15
f 30/30/15 31/31/16 29/29/14
f 31/31/17 30/30/18 32/32/19
f 35/33/20 34/34/21 33/35/22
f 34/34/21 35/33/23 36/36/17
f 33/35/22 37/37/24 35/33/25
f 37/37/24 33/35/22 38/38/26
f 38/38/26 39/39/27 37/37/24
f 39/39/27 38/38/26 40/40/28
f 40/40/28 41/41/29 39/39/27
f 41/41/29 40/40/28 42/42/30
f 28/28/13 43/43/31 26/26/10
f 43/43/31 28/28/32 44/44/29
f 26/26/10 45/45/33 25/27/11
f 25/27/11 45/45/34 30/30/15
f 30/30/15 46/46/35 32/32/36
f 45/45/33 46/46/35 30/30/15
f 34/34/19 47/47/37 33/35/22
f 47/47/38 48/48/39 33/35/40
f 33/35/22 48/48/39 38/38/26
f 38/38/26 48/48/39 40/40/28
f 43/43/31 49/49/41 26/26/10
f 49/49/42 45/45/34 26/26/10
f 52/50/43 51/51/43 50/52/43
f 53/53/44 45/45/34 49/49/41
f 53/53/45 46/46/37 45/45/34
f 54/54/44 48/48/39 47/47/37
f 40/40/28 55/55/41 42/42/31
f 48/48/39 55/55/42 40/40/28
f 54/54/45 55/55/41 48/48/39
f 58/56/46 57/57/46 56/58/46
f 61/59/47 60/60/47 59/61/47
f 60/60/48 61/59/48 62/62/48
f 65/63/49 64/64/49 63/65/49
f 64/64/47 65/63/47 66/66/47
f 69/67/50 68/68/50 67/69/50
f 72/70/51 71/71/51 70/72/51
f 75/73/52 74/74/52 73/75/52
f 78/76/53 77/77/53 76/78/53
f 81/79/54 80/80/54 79/81/54
f 84/82/55 83/83/55 82/84/55
f 87/85/56 86/86/56 85/87/56
f 90/88/57 89/89/57 88/90/57
f 93/91/58 92/92/59 91/93/60
f 92/92/61 93/91/62 94/94/63
f 91/93/64 95/95/65 93/91/62
f 95/95/65 91/93/64 96/96/66
f 96/96/66 97/97/67 95/95/65
f 97/97/67 96/96/66 98/98/68
f 101/99/69 100/100/70 99/101/71
f 100/100/72 101/99/73 102/102/74
f 99/101/75 103/103/76 101/99/69
f 103/103/76 99/101/71 104/104/77
f 104/104/77 105/105/78 103/103/76
f 105/105/79 104/104/77 106/106/80
f 106/106/80 107/107/81 105/105/79
f 107/107/81 106/106/80 108/108/82
f 94/94/63 109/109/82 92/92/59
f 109/109/82 94/94/63 110/110/81
f 92/92/59 111/111/83 91/93/60
f 91/93/84 111/111/85 96/96/66
f 96/96/66 112/112/86 98/98/68
f 111/111/87 112/112/88 96/96/89
f 100/100/72 113/113/90 99/101/71
f 99/101/71 114/114/91 104/104/77
f 113/113/88 114/114/91 99/101/92
f 104/104/77 114/114/91 106/106/80
f 115/115/93 111/111/94 92/92/61
f 109/109/82 115/115/95 92/92/59
f 118/116/96 117/117/96 116/118/96
f 119/119/97 111/111/87 115/115/95
f 119/119/98 112/112/88 111/111/87
f 120/120/98 114/114/91 113/113/99
f 120/120/98 121/121/100 114/114/101
f 114/114/91 121/121/93 106/106/102
f 106/106/80 121/121/100 108/108/82
f 124/122/103 123/123/103 122/124/103
f 127/125/104 126/126/103 125/127/103
f 126/126/103 127/125/103 128/128/103
f 131/129/105 130/130/106 129/131/107
f 130/130/108 131/129/109 132/132/106
