# Blender v3.6.5 OBJ File: ''
# www.blender.org
mtllib sit_test.002.mtl
o sit_test.002_sit_test.035
v -0.070278 2.039086 0.604983
v -0.081291 2.036589 0.607091
v -0.072575 2.081560 0.598067
v -0.063118 2.079314 0.598515
v -0.056404 2.076644 0.599380
v -0.051761 2.072874 0.600411
v -0.050983 2.068553 0.601440
v -0.052387 2.059326 0.603013
v -0.119670 2.051531 0.621872
v -0.124396 2.059307 0.624077
v -0.061543 2.044366 0.603745
v -0.092304 2.036799 0.610429
v -0.086545 2.083445 0.599749
v -0.056352 2.050894 0.603450
v -0.098705 2.083675 0.602344
v -0.109226 2.083956 0.606860
v -0.130001 2.084144 0.621059
v -0.129832 2.078948 0.622748
v -0.129131 2.073998 0.623857
v -0.114713 2.045416 0.619497
v -0.101150 2.038429 0.613479
v -0.127941 2.068812 0.624463
v -0.108285 2.041250 0.616518
v -0.123974 2.083912 0.616347
v -0.117518 2.083754 0.611724
v 0.070281 2.039086 0.604983
v 0.081294 2.036589 0.607091
v 0.092307 2.036799 0.610429
v 0.072578 2.081560 0.598067
v 0.063121 2.079314 0.598515
v 0.056407 2.076644 0.599380
v 0.051764 2.072874 0.600411
v 0.050986 2.068553 0.601440
v 0.052390 2.059326 0.603013
v 0.119674 2.051531 0.621872
v 0.061546 2.044366 0.603745
v 0.101154 2.038429 0.613479
v 0.086548 2.083445 0.599749
v 0.056356 2.050894 0.603450
v 0.098708 2.083675 0.602344
v 0.109229 2.083955 0.606860
v 0.130004 2.084143 0.621059
v 0.129836 2.078947 0.622748
v 0.129135 2.073997 0.623857
v 0.114717 2.045416 0.619497
v 0.124399 2.059307 0.624077
v 0.127945 2.068812 0.624463
v 0.108288 2.041250 0.616518
v 0.123978 2.083911 0.616347
v 0.117521 2.083753 0.611724
v -0.080771 2.036875 0.609021
v -0.069886 2.039094 0.606960
v -0.091661 2.037167 0.612212
v -0.055885 2.077153 0.601072
v -0.062452 2.079970 0.600260
v -0.051265 2.073178 0.602036
v -0.052087 2.059179 0.604403
v -0.050221 2.068791 0.602986
v -0.118472 2.051923 0.622899
v -0.123206 2.059656 0.625008
v -0.061203 2.044158 0.605651
v -0.100074 2.038869 0.614962
v -0.072250 2.082597 0.599824
v -0.086166 2.084133 0.601685
v -0.056010 2.050644 0.605046
v -0.097940 2.084703 0.604227
v -0.108178 2.084818 0.608711
v -0.128847 2.079490 0.624089
v -0.129052 2.084772 0.622340
v -0.126887 2.069175 0.625550
v -0.128030 2.074317 0.625064
v -0.107262 2.041726 0.617869
v -0.113611 2.045937 0.620571
v -0.122849 2.084797 0.617863
v -0.116342 2.084863 0.613432
v 0.069889 2.039094 0.606960
v 0.080774 2.036875 0.609021
v 0.091664 2.037167 0.612212
v 0.062455 2.079970 0.600260
v 0.055888 2.077153 0.601072
v 0.051269 2.073178 0.602036
v 0.052090 2.059179 0.604403
v 0.050225 2.068791 0.602986
v 0.118475 2.051922 0.622899
v 0.123209 2.059655 0.625008
v 0.061206 2.044158 0.605651
v 0.100078 2.038869 0.614962
v 0.086169 2.084133 0.601685
v 0.072253 2.082597 0.599824
v 0.056013 2.050644 0.605046
v 0.097943 2.084702 0.604227
v 0.108182 2.084817 0.608711
v 0.128851 2.079489 0.624089
v 0.129055 2.084771 0.622340
v 0.126890 2.069175 0.625550
v 0.128034 2.074316 0.625064
v 0.113614 2.045937 0.620571
v 0.107266 2.041725 0.617869
v 0.122853 2.084796 0.617863
v 0.116346 2.084863 0.613432
vt 0.359174 0.489387
vt 0.358791 0.486416
vt 0.381301 0.485361
vt 0.381016 0.482217
vt 0.397075 0.477459
vt 0.338130 0.485034
vt 0.338295 0.488446
vt 0.407880 0.421146
vt 0.408930 0.419137
vt 0.418053 0.432646
vt 0.396548 0.414653
vt 0.398502 0.411655
vt 0.419135 0.443591
vt 0.416252 0.434080
vt 0.410850 0.456161
vt 0.413008 0.456515
vt 0.405519 0.467932
vt 0.417094 0.443361
vt 0.285105 0.464035
vt 0.286228 0.461643
vt 0.296480 0.474431
vt 0.277961 0.449742
vt 0.276269 0.451286
vt 0.396051 0.474708
vt 0.320558 0.485093
vt 0.320780 0.482124
vt 0.383527 0.409290
vt 0.384174 0.405037
vt 0.366182 0.405413
vt 0.366516 0.400708
vt 0.403432 0.466460
vt 0.337570 0.402997
vt 0.338804 0.397178
vt 0.313605 0.405692
vt 0.314297 0.400985
vt 0.276552 0.418881
vt 0.272124 0.421605
vt 0.275341 0.417023
vt 0.270402 0.421013
vt 0.273420 0.434568
vt 0.272320 0.427170
vt 0.270667 0.426394
vt 0.272003 0.434995
vt 0.308976 0.478167
vt 0.297423 0.472398
vt 0.308356 0.480753
vt 0.283661 0.412308
vt 0.297188 0.406751
vt 0.284039 0.415530
vt 0.296931 0.410515
vt 0.618985 0.482217
vt 0.618699 0.485361
vt 0.602925 0.477459
vt 0.641209 0.486416
vt 0.640826 0.489387
vt 0.661870 0.485034
vt 0.661705 0.488446
vt 0.601498 0.411655
vt 0.603452 0.414653
vt 0.591070 0.419137
vt 0.592120 0.421146
vt 0.581947 0.432646
vt 0.583748 0.434080
vt 0.580865 0.443591
vt 0.594481 0.467932
vt 0.586992 0.456515
vt 0.589150 0.456161
vt 0.582906 0.443361
vt 0.714895 0.464035
vt 0.703520 0.474431
vt 0.713772 0.461643
vt 0.722039 0.449742
vt 0.723732 0.451286
vt 0.603949 0.474708
vt 0.679220 0.482124
vt 0.679442 0.485093
vt 0.633484 0.400708
vt 0.633818 0.405413
vt 0.615826 0.405037
vt 0.616472 0.409290
vt 0.596568 0.466460
vt 0.661196 0.397178
vt 0.662430 0.402997
vt 0.685704 0.400985
vt 0.686395 0.405692
vt 0.723448 0.418881
vt 0.724659 0.417023
vt 0.727876 0.421605
vt 0.729598 0.421013
vt 0.726580 0.434568
vt 0.727997 0.434995
vt 0.729333 0.426394
vt 0.727680 0.427170
vt 0.702577 0.472398
vt 0.691644 0.480753
vt 0.691024 0.478167
vt 0.715961 0.415530
vt 0.716339 0.412308
vt 0.702812 0.406751
vt 0.703069 0.410515
vn -0.2241 0.8179 -0.5299
vn 0.1915 0.3917 0.8999
vn -0.3760 0.7878 -0.4878
vn 0.1915 0.3917 0.9000
vn 0.0491 0.3402 0.9391
vn -0.3761 0.7878 -0.4877
vn -0.3760 0.7879 -0.4877
vn 0.0490 0.3402 0.9391
vn -0.5988 0.6494 -0.4688
vn 0.1916 0.3917 0.8999
vn 0.3345 0.4229 0.8422
vn -0.2242 0.8179 -0.5299
vn -0.1298 0.7900 -0.5992
vn 0.3344 0.4229 0.8422
vn -0.1688 -0.0690 0.9832
vn -0.2821 -0.6731 -0.6836
vn -0.6150 -0.5429 -0.5719
vn -0.0541 -0.1819 0.9818
vn -0.1650 -0.6486 -0.7430
vn -0.2821 -0.6731 -0.6837
vn -0.6150 -0.5430 -0.5718
vn -0.9441 0.0303 -0.3283
vn -0.1794 -0.0150 0.9837
vn -0.1795 -0.0151 0.9837
vn -0.1624 0.1282 0.9784
vn -0.9135 0.2581 -0.3146
vn -0.8031 0.4530 -0.3871
vn -0.1561 0.1140 0.9811
vn -0.9441 0.0302 -0.3283
vn -0.1561 0.1139 0.9811
vn -0.1562 0.1139 0.9811
vn -0.9134 0.2581 -0.3147
vn -0.0786 0.3001 -0.9507
vn 0.7153 0.2499 0.6526
vn -0.0459 0.4604 -0.8865
vn 0.7153 0.2500 0.6526
vn -0.0787 0.3001 -0.9506
vn 0.7512 0.1635 0.6395
vn -0.0786 0.3002 -0.9506
vn -0.1683 0.1536 -0.9737
vn 0.7511 0.1634 0.6396
vn -0.0970 0.2244 0.9697
vn -0.5987 0.6494 -0.4688
vn -0.0813 0.7180 -0.6913
vn 0.4233 0.4436 0.7899
vn -0.1299 0.7900 -0.5992
vn 0.4234 0.4436 0.7899
vn 0.0037 -0.2278 0.9737
vn -0.1649 -0.6486 -0.7430
vn 0.0038 -0.2278 0.9737
vn -0.1508 -0.6215 -0.7688
vn 0.1449 -0.2543 0.9562
vn -0.1509 -0.6215 -0.7688
vn -0.1833 -0.6182 -0.7643
vn -0.0969 0.2244 0.9697
vn -0.1227 0.1764 0.9766
vn -0.5987 0.6495 -0.4688
vn -0.1227 0.1765 0.9766
vn -0.1624 0.1283 0.9784
vn 0.1448 -0.2543 0.9562
vn 0.3329 -0.2586 0.9068
vn -0.1834 -0.6182 -0.7643
vn -0.2738 -0.6165 -0.7382
vn 0.5302 -0.2648 0.8055
vn -0.3525 -0.6785 -0.6445
vn 0.3330 -0.2586 0.9068
vn 0.5302 -0.2647 0.8055
vn 0.6915 -0.1832 0.6988
vn 0.8132 0.0081 0.5819
vn -0.1943 -0.8631 -0.4661
vn 0.8132 0.0082 0.5819
vn -0.1258 -0.4259 -0.8960
vn -0.1943 -0.8632 -0.4661
vn 0.7773 0.1046 0.6204
vn 0.7780 0.1031 0.6197
vn -0.1259 -0.4259 -0.8960
vn -0.1900 -0.0710 -0.9792
vn -0.1258 -0.4260 -0.8959
vn -0.2011 0.0440 -0.9786
vn -0.1900 -0.0711 -0.9792
vn -0.1684 0.1536 -0.9737
vn -0.2011 0.0441 -0.9786
vn 0.7773 0.1045 0.6204
vn 0.7780 0.1031 0.6198
vn 0.5577 0.4162 0.7182
vn 0.4232 0.4436 0.7900
vn 0.6081 0.3753 0.6995
vn -0.0609 0.6196 -0.7825
vn 0.5576 0.4162 0.7182
vn -0.0460 0.4604 -0.8865
vn 0.6081 0.3754 0.6995
vn 0.5576 0.4162 0.7183
vn -0.0608 0.6196 -0.7825
vn 0.6081 0.3754 0.6996
vn -0.3060 -0.8824 -0.3574
vn -0.3556 -0.7865 -0.5050
vn 0.6720 -0.2453 0.6987
vn 0.6721 -0.2453 0.6986
vn -0.1943 -0.8631 -0.4662
vn -0.3059 -0.8824 -0.3574
vn 0.6721 -0.2453 0.6987
vn 0.5636 -0.3933 0.7264
vn -0.3526 -0.6785 -0.6445
vn -0.3555 -0.7865 -0.5050
vn 0.5637 -0.3932 0.7264
vn -0.0490 0.3402 0.9391
vn 0.3760 0.7879 -0.4877
vn 0.5988 0.6494 -0.4688
vn -0.1915 0.3917 0.8999
vn 0.2241 0.8179 -0.5299
vn 0.3760 0.7878 -0.4878
vn -0.0491 0.3402 0.9391
vn -0.1915 0.3917 0.9000
vn 0.3761 0.7878 -0.4877
vn -0.1916 0.3917 0.8999
vn -0.3344 0.4229 0.8422
vn 0.1299 0.7900 -0.5992
vn 0.1650 -0.6486 -0.7430
vn 0.0541 -0.1819 0.9818
vn 0.2821 -0.6731 -0.6837
vn 0.2821 -0.6730 -0.6837
vn 0.1689 -0.0689 0.9832
vn 0.6150 -0.5429 -0.5719
vn 0.0542 -0.1819 0.9818
vn 0.1688 -0.0690 0.9832
vn 0.2821 -0.6731 -0.6836
vn 0.1794 -0.0151 0.9837
vn 0.1794 -0.0150 0.9837
vn 0.9441 0.0303 -0.3283
vn 0.8031 0.4530 -0.3871
vn 0.9135 0.2581 -0.3146
vn 0.1624 0.1282 0.9784
vn 0.9134 0.2581 -0.3147
vn 0.1561 0.1139 0.9811
vn 0.1795 -0.0151 0.9836
vn 0.9441 0.0302 -0.3283
vn 0.1560 0.1140 0.9812
vn 0.0788 0.3001 -0.9507
vn 0.0460 0.4604 -0.8865
vn -0.7154 0.2500 0.6525
vn -0.7153 0.2500 0.6526
vn -0.7513 0.1634 0.6394
vn 0.0787 0.3002 -0.9506
vn -0.7513 0.1635 0.6394
vn 0.1684 0.1536 -0.9737
vn 0.0786 0.3001 -0.9507
vn 0.0970 0.2244 0.9697
vn -0.4232 0.4436 0.7900
vn 0.0812 0.7180 -0.6913
vn -0.4233 0.4436 0.7900
vn 0.1833 -0.6182 -0.7644
vn -0.1449 -0.2543 0.9562
vn 0.1508 -0.6215 -0.7688
vn -0.0037 -0.2278 0.9737
vn 0.1649 -0.6486 -0.7430
vn 0.1509 -0.6214 -0.7688
vn -0.0038 -0.2278 0.9737
vn -0.1448 -0.2543 0.9562
vn -0.0038 -0.2279 0.9737
vn 0.1509 -0.6215 -0.7688
vn 0.5987 0.6494 -0.4688
vn 0.1228 0.1765 0.9766
vn 0.1227 0.1764 0.9766
vn 0.1624 0.1283 0.9784
vn 0.0969 0.2244 0.9697
vn 0.5987 0.6495 -0.4688
vn 0.2738 -0.6165 -0.7382
vn -0.3330 -0.2586 0.9068
vn 0.1834 -0.6182 -0.7643
vn -0.3331 -0.2587 0.9067
vn 0.3525 -0.6785 -0.6445
vn -0.5302 -0.2648 0.8055
vn -0.6914 -0.1831 0.6988
vn 0.1943 -0.8631 -0.4661
vn -0.8133 0.0081 0.5819
vn 0.1942 -0.8632 -0.4661
vn 0.1259 -0.4259 -0.8960
vn -0.8132 0.0082 0.5819
vn -0.7512 0.1635 0.6395
vn -0.7773 0.1046 0.6204
vn 0.1684 0.1535 -0.9737
vn -0.7773 0.1045 0.6204
vn 0.2011 0.0440 -0.9786
vn 0.1899 -0.0710 -0.9792
vn -0.7780 0.1031 0.6197
vn 0.1259 -0.4258 -0.8960
vn -0.7780 0.1031 0.6198
vn 0.2011 0.0441 -0.9786
vn 0.1900 -0.0711 -0.9792
vn 0.0458 0.4604 -0.8865
vn -0.6081 0.3753 0.6996
vn -0.7152 0.2500 0.6527
vn 0.0459 0.4604 -0.8865
vn 0.0609 0.6196 -0.7825
vn -0.6081 0.3753 0.6995
vn -0.5576 0.4162 0.7182
vn 0.0813 0.7180 -0.6913
vn 0.0608 0.6196 -0.7825
vn -0.5577 0.4162 0.7182
vn -0.6720 -0.2453 0.6987
vn 0.3060 -0.8824 -0.3574
vn 0.1942 -0.8631 -0.4661
vn 0.3555 -0.7865 -0.5051
vn -0.6914 -0.1832 0.6988
vn -0.6721 -0.2453 0.6987
vn 0.3524 -0.6785 -0.6445
vn 0.3554 -0.7865 -0.5051
vn -0.5637 -0.3932 0.7264
vn 0.3556 -0.7865 -0.5050
usemtl m1.004
s off
f 2/1/1 51/2/2 1/3/3
f 51/2/4 52/4/5 1/3/6
f 1/3/7 52/4/8 11/5/9
f 51/2/10 2/1/1 53/6/11
f 2/1/12 12/7/13 53/6/14
f 54/8/15 5/9/16 6/10/17
f 55/11/18 4/12/19 5/9/16
f 54/8/15 55/11/18 5/9/20
f 6/10/21 7/13/22 56/14/23
f 56/14/24 54/8/15 6/10/17
f 57/15/25 8/16/26 14/17/27
f 57/15/25 58/18/28 8/16/26
f 7/13/29 58/18/30 56/14/24
f 58/18/31 7/13/22 8/16/32
f 9/19/33 59/20/34 20/21/35
f 59/20/36 9/19/37 60/22/38
f 9/19/39 10/23/40 60/22/41
f 52/4/8 61/24/42 11/5/43
f 21/25/44 62/26/45 12/7/46
f 62/26/47 53/6/11 12/7/13
f 55/11/18 63/27/48 4/12/49
f 63/27/50 3/28/51 4/12/49
f 63/27/50 64/29/52 3/28/53
f 64/29/52 13/30/54 3/28/51
f 61/24/55 65/31/56 11/5/57
f 65/31/58 14/17/27 11/5/43
f 65/31/56 57/15/59 14/17/27
f 64/29/60 66/32/61 13/30/62
f 66/32/61 15/33/63 13/30/62
f 67/34/64 16/35/65 15/33/63
f 66/32/66 67/34/67 15/33/63
f 69/36/68 68/37/69 17/38/70
f 68/37/71 18/39/72 17/38/73
f 60/22/41 10/23/40 70/40/74
f 68/37/69 71/41/75 18/39/76
f 71/41/75 19/42/77 18/39/78
f 22/43/79 19/42/80 71/41/75
f 10/23/81 22/43/82 70/40/83
f 70/40/83 22/43/82 71/41/84
f 72/44/85 62/26/86 21/25/44
f 59/20/36 73/45/87 20/21/35
f 23/46/88 72/44/89 21/25/44
f 23/46/88 20/21/90 73/45/91
f 72/44/92 23/46/93 73/45/94
f 24/47/95 25/48/96 74/49/97
f 74/49/98 69/36/68 17/38/99
f 24/47/100 74/49/101 17/38/70
f 75/50/102 25/48/96 16/35/103
f 25/48/104 75/50/102 74/49/97
f 67/34/64 75/50/105 16/35/65
f 76/51/106 26/52/107 36/53/108
f 77/54/109 27/55/110 26/52/111
f 76/51/112 77/54/113 26/52/114
f 27/55/110 77/54/115 78/56/116
f 28/57/117 27/55/110 78/56/116
f 30/58/118 79/59/119 31/60/120
f 31/60/121 80/61/122 32/62/123
f 79/59/124 80/61/125 31/60/126
f 80/61/125 81/63/127 32/62/123
f 32/62/123 81/63/128 33/64/129
f 39/65/130 34/66/131 82/67/132
f 34/66/133 33/64/129 83/68/134
f 81/63/135 83/68/134 33/64/136
f 82/67/132 34/66/131 83/68/137
f 35/69/138 45/70/139 84/71/140
f 84/71/141 85/72/142 35/69/143
f 85/72/144 46/73/145 35/69/146
f 86/74/147 76/51/106 36/53/108
f 28/57/117 78/56/116 87/75/148
f 37/76/149 28/57/117 87/75/150
f 38/77/151 88/78/152 29/79/153
f 89/80/154 79/59/124 30/58/155
f 29/79/156 89/80/157 30/58/155
f 88/78/158 89/80/159 29/79/160
f 36/53/161 39/65/130 90/81/162
f 90/81/163 39/65/130 82/67/164
f 86/74/165 36/53/166 90/81/163
f 40/82/167 91/83/168 38/77/169
f 91/83/170 88/78/152 38/77/169
f 40/82/167 41/84/171 92/85/172
f 91/83/168 40/82/167 92/85/172
f 94/86/173 42/87/174 93/88/175
f 42/87/176 43/89/177 93/88/178
f 85/72/179 95/90/180 46/73/181
f 95/90/182 47/91/183 46/73/181
f 44/92/184 96/93/185 43/89/186
f 95/90/180 96/93/187 47/91/188
f 96/93/187 93/88/178 43/89/177
f 96/93/185 44/92/189 47/91/183
f 45/70/190 97/94/191 84/71/192
f 45/70/193 48/95/194 97/94/195
f 87/75/150 98/96/196 37/76/197
f 48/95/198 98/96/196 97/94/195
f 98/96/199 48/95/198 37/76/197
f 99/97/200 49/98/201 42/87/202
f 49/98/201 99/97/200 50/99/203
f 94/86/204 99/97/205 42/87/202
f 41/84/206 50/99/207 100/100/208
f 92/85/172 41/84/171 100/100/208
f 99/97/205 100/100/208 50/99/209
